G75*
%MOIN*%
%OFA0B0*%
%FSLAX24Y24*%
%IPPOS*%
%LPD*%
%AMOC8*
5,1,8,0,0,1.08239X$1,22.5*
%
%ADD10C,0.0000*%
%ADD11C,0.0030*%
%ADD12C,0.0040*%
%ADD13C,0.0060*%
%ADD14C,0.0050*%
%ADD15C,0.0080*%
%ADD16C,0.0120*%
%ADD17C,0.0354*%
%ADD18C,0.0130*%
%ADD19C,0.0020*%
%ADD20C,0.0070*%
D10*
X000870Y000574D02*
X000870Y030101D01*
X047721Y030101D01*
X047721Y000574D01*
X000870Y000574D01*
X008429Y008251D02*
X008431Y008286D01*
X008437Y008321D01*
X008447Y008355D01*
X008460Y008388D01*
X008477Y008419D01*
X008498Y008447D01*
X008521Y008474D01*
X008548Y008497D01*
X008576Y008518D01*
X008607Y008535D01*
X008640Y008548D01*
X008674Y008558D01*
X008709Y008564D01*
X008744Y008566D01*
X008779Y008564D01*
X008814Y008558D01*
X008848Y008548D01*
X008881Y008535D01*
X008912Y008518D01*
X008940Y008497D01*
X008967Y008474D01*
X008990Y008447D01*
X009011Y008419D01*
X009028Y008388D01*
X009041Y008355D01*
X009051Y008321D01*
X009057Y008286D01*
X009059Y008251D01*
X009057Y008216D01*
X009051Y008181D01*
X009041Y008147D01*
X009028Y008114D01*
X009011Y008083D01*
X008990Y008055D01*
X008967Y008028D01*
X008940Y008005D01*
X008912Y007984D01*
X008881Y007967D01*
X008848Y007954D01*
X008814Y007944D01*
X008779Y007938D01*
X008744Y007936D01*
X008709Y007938D01*
X008674Y007944D01*
X008640Y007954D01*
X008607Y007967D01*
X008576Y007984D01*
X008548Y008005D01*
X008521Y008028D01*
X008498Y008055D01*
X008477Y008083D01*
X008460Y008114D01*
X008447Y008147D01*
X008437Y008181D01*
X008431Y008216D01*
X008429Y008251D01*
X008429Y011794D02*
X008431Y011829D01*
X008437Y011864D01*
X008447Y011898D01*
X008460Y011931D01*
X008477Y011962D01*
X008498Y011990D01*
X008521Y012017D01*
X008548Y012040D01*
X008576Y012061D01*
X008607Y012078D01*
X008640Y012091D01*
X008674Y012101D01*
X008709Y012107D01*
X008744Y012109D01*
X008779Y012107D01*
X008814Y012101D01*
X008848Y012091D01*
X008881Y012078D01*
X008912Y012061D01*
X008940Y012040D01*
X008967Y012017D01*
X008990Y011990D01*
X009011Y011962D01*
X009028Y011931D01*
X009041Y011898D01*
X009051Y011864D01*
X009057Y011829D01*
X009059Y011794D01*
X009057Y011759D01*
X009051Y011724D01*
X009041Y011690D01*
X009028Y011657D01*
X009011Y011626D01*
X008990Y011598D01*
X008967Y011571D01*
X008940Y011548D01*
X008912Y011527D01*
X008881Y011510D01*
X008848Y011497D01*
X008814Y011487D01*
X008779Y011481D01*
X008744Y011479D01*
X008709Y011481D01*
X008674Y011487D01*
X008640Y011497D01*
X008607Y011510D01*
X008576Y011527D01*
X008548Y011548D01*
X008521Y011571D01*
X008498Y011598D01*
X008477Y011626D01*
X008460Y011657D01*
X008447Y011690D01*
X008437Y011724D01*
X008431Y011759D01*
X008429Y011794D01*
X020240Y011794D02*
X020242Y011829D01*
X020248Y011864D01*
X020258Y011898D01*
X020271Y011931D01*
X020288Y011962D01*
X020309Y011990D01*
X020332Y012017D01*
X020359Y012040D01*
X020387Y012061D01*
X020418Y012078D01*
X020451Y012091D01*
X020485Y012101D01*
X020520Y012107D01*
X020555Y012109D01*
X020590Y012107D01*
X020625Y012101D01*
X020659Y012091D01*
X020692Y012078D01*
X020723Y012061D01*
X020751Y012040D01*
X020778Y012017D01*
X020801Y011990D01*
X020822Y011962D01*
X020839Y011931D01*
X020852Y011898D01*
X020862Y011864D01*
X020868Y011829D01*
X020870Y011794D01*
X020868Y011759D01*
X020862Y011724D01*
X020852Y011690D01*
X020839Y011657D01*
X020822Y011626D01*
X020801Y011598D01*
X020778Y011571D01*
X020751Y011548D01*
X020723Y011527D01*
X020692Y011510D01*
X020659Y011497D01*
X020625Y011487D01*
X020590Y011481D01*
X020555Y011479D01*
X020520Y011481D01*
X020485Y011487D01*
X020451Y011497D01*
X020418Y011510D01*
X020387Y011527D01*
X020359Y011548D01*
X020332Y011571D01*
X020309Y011598D01*
X020288Y011626D01*
X020271Y011657D01*
X020258Y011690D01*
X020248Y011724D01*
X020242Y011759D01*
X020240Y011794D01*
X020240Y008251D02*
X020242Y008286D01*
X020248Y008321D01*
X020258Y008355D01*
X020271Y008388D01*
X020288Y008419D01*
X020309Y008447D01*
X020332Y008474D01*
X020359Y008497D01*
X020387Y008518D01*
X020418Y008535D01*
X020451Y008548D01*
X020485Y008558D01*
X020520Y008564D01*
X020555Y008566D01*
X020590Y008564D01*
X020625Y008558D01*
X020659Y008548D01*
X020692Y008535D01*
X020723Y008518D01*
X020751Y008497D01*
X020778Y008474D01*
X020801Y008447D01*
X020822Y008419D01*
X020839Y008388D01*
X020852Y008355D01*
X020862Y008321D01*
X020868Y008286D01*
X020870Y008251D01*
X020868Y008216D01*
X020862Y008181D01*
X020852Y008147D01*
X020839Y008114D01*
X020822Y008083D01*
X020801Y008055D01*
X020778Y008028D01*
X020751Y008005D01*
X020723Y007984D01*
X020692Y007967D01*
X020659Y007954D01*
X020625Y007944D01*
X020590Y007938D01*
X020555Y007936D01*
X020520Y007938D01*
X020485Y007944D01*
X020451Y007954D01*
X020418Y007967D01*
X020387Y007984D01*
X020359Y008005D01*
X020332Y008028D01*
X020309Y008055D01*
X020288Y008083D01*
X020271Y008114D01*
X020258Y008147D01*
X020248Y008181D01*
X020242Y008216D01*
X020240Y008251D01*
X032051Y008251D02*
X032053Y008286D01*
X032059Y008321D01*
X032069Y008355D01*
X032082Y008388D01*
X032099Y008419D01*
X032120Y008447D01*
X032143Y008474D01*
X032170Y008497D01*
X032198Y008518D01*
X032229Y008535D01*
X032262Y008548D01*
X032296Y008558D01*
X032331Y008564D01*
X032366Y008566D01*
X032401Y008564D01*
X032436Y008558D01*
X032470Y008548D01*
X032503Y008535D01*
X032534Y008518D01*
X032562Y008497D01*
X032589Y008474D01*
X032612Y008447D01*
X032633Y008419D01*
X032650Y008388D01*
X032663Y008355D01*
X032673Y008321D01*
X032679Y008286D01*
X032681Y008251D01*
X032679Y008216D01*
X032673Y008181D01*
X032663Y008147D01*
X032650Y008114D01*
X032633Y008083D01*
X032612Y008055D01*
X032589Y008028D01*
X032562Y008005D01*
X032534Y007984D01*
X032503Y007967D01*
X032470Y007954D01*
X032436Y007944D01*
X032401Y007938D01*
X032366Y007936D01*
X032331Y007938D01*
X032296Y007944D01*
X032262Y007954D01*
X032229Y007967D01*
X032198Y007984D01*
X032170Y008005D01*
X032143Y008028D01*
X032120Y008055D01*
X032099Y008083D01*
X032082Y008114D01*
X032069Y008147D01*
X032059Y008181D01*
X032053Y008216D01*
X032051Y008251D01*
X032051Y011794D02*
X032053Y011829D01*
X032059Y011864D01*
X032069Y011898D01*
X032082Y011931D01*
X032099Y011962D01*
X032120Y011990D01*
X032143Y012017D01*
X032170Y012040D01*
X032198Y012061D01*
X032229Y012078D01*
X032262Y012091D01*
X032296Y012101D01*
X032331Y012107D01*
X032366Y012109D01*
X032401Y012107D01*
X032436Y012101D01*
X032470Y012091D01*
X032503Y012078D01*
X032534Y012061D01*
X032562Y012040D01*
X032589Y012017D01*
X032612Y011990D01*
X032633Y011962D01*
X032650Y011931D01*
X032663Y011898D01*
X032673Y011864D01*
X032679Y011829D01*
X032681Y011794D01*
X032679Y011759D01*
X032673Y011724D01*
X032663Y011690D01*
X032650Y011657D01*
X032633Y011626D01*
X032612Y011598D01*
X032589Y011571D01*
X032562Y011548D01*
X032534Y011527D01*
X032503Y011510D01*
X032470Y011497D01*
X032436Y011487D01*
X032401Y011481D01*
X032366Y011479D01*
X032331Y011481D01*
X032296Y011487D01*
X032262Y011497D01*
X032229Y011510D01*
X032198Y011527D01*
X032170Y011548D01*
X032143Y011571D01*
X032120Y011598D01*
X032099Y011626D01*
X032082Y011657D01*
X032069Y011690D01*
X032059Y011724D01*
X032053Y011759D01*
X032051Y011794D01*
X043862Y011794D02*
X043864Y011829D01*
X043870Y011864D01*
X043880Y011898D01*
X043893Y011931D01*
X043910Y011962D01*
X043931Y011990D01*
X043954Y012017D01*
X043981Y012040D01*
X044009Y012061D01*
X044040Y012078D01*
X044073Y012091D01*
X044107Y012101D01*
X044142Y012107D01*
X044177Y012109D01*
X044212Y012107D01*
X044247Y012101D01*
X044281Y012091D01*
X044314Y012078D01*
X044345Y012061D01*
X044373Y012040D01*
X044400Y012017D01*
X044423Y011990D01*
X044444Y011962D01*
X044461Y011931D01*
X044474Y011898D01*
X044484Y011864D01*
X044490Y011829D01*
X044492Y011794D01*
X044490Y011759D01*
X044484Y011724D01*
X044474Y011690D01*
X044461Y011657D01*
X044444Y011626D01*
X044423Y011598D01*
X044400Y011571D01*
X044373Y011548D01*
X044345Y011527D01*
X044314Y011510D01*
X044281Y011497D01*
X044247Y011487D01*
X044212Y011481D01*
X044177Y011479D01*
X044142Y011481D01*
X044107Y011487D01*
X044073Y011497D01*
X044040Y011510D01*
X044009Y011527D01*
X043981Y011548D01*
X043954Y011571D01*
X043931Y011598D01*
X043910Y011626D01*
X043893Y011657D01*
X043880Y011690D01*
X043870Y011724D01*
X043864Y011759D01*
X043862Y011794D01*
X043862Y008251D02*
X043864Y008286D01*
X043870Y008321D01*
X043880Y008355D01*
X043893Y008388D01*
X043910Y008419D01*
X043931Y008447D01*
X043954Y008474D01*
X043981Y008497D01*
X044009Y008518D01*
X044040Y008535D01*
X044073Y008548D01*
X044107Y008558D01*
X044142Y008564D01*
X044177Y008566D01*
X044212Y008564D01*
X044247Y008558D01*
X044281Y008548D01*
X044314Y008535D01*
X044345Y008518D01*
X044373Y008497D01*
X044400Y008474D01*
X044423Y008447D01*
X044444Y008419D01*
X044461Y008388D01*
X044474Y008355D01*
X044484Y008321D01*
X044490Y008286D01*
X044492Y008251D01*
X044490Y008216D01*
X044484Y008181D01*
X044474Y008147D01*
X044461Y008114D01*
X044444Y008083D01*
X044423Y008055D01*
X044400Y008028D01*
X044373Y008005D01*
X044345Y007984D01*
X044314Y007967D01*
X044281Y007954D01*
X044247Y007944D01*
X044212Y007938D01*
X044177Y007936D01*
X044142Y007938D01*
X044107Y007944D01*
X044073Y007954D01*
X044040Y007967D01*
X044009Y007984D01*
X043981Y008005D01*
X043954Y008028D01*
X043931Y008055D01*
X043910Y008083D01*
X043893Y008114D01*
X043880Y008147D01*
X043870Y008181D01*
X043864Y008216D01*
X043862Y008251D01*
X043862Y020062D02*
X043864Y020097D01*
X043870Y020132D01*
X043880Y020166D01*
X043893Y020199D01*
X043910Y020230D01*
X043931Y020258D01*
X043954Y020285D01*
X043981Y020308D01*
X044009Y020329D01*
X044040Y020346D01*
X044073Y020359D01*
X044107Y020369D01*
X044142Y020375D01*
X044177Y020377D01*
X044212Y020375D01*
X044247Y020369D01*
X044281Y020359D01*
X044314Y020346D01*
X044345Y020329D01*
X044373Y020308D01*
X044400Y020285D01*
X044423Y020258D01*
X044444Y020230D01*
X044461Y020199D01*
X044474Y020166D01*
X044484Y020132D01*
X044490Y020097D01*
X044492Y020062D01*
X044490Y020027D01*
X044484Y019992D01*
X044474Y019958D01*
X044461Y019925D01*
X044444Y019894D01*
X044423Y019866D01*
X044400Y019839D01*
X044373Y019816D01*
X044345Y019795D01*
X044314Y019778D01*
X044281Y019765D01*
X044247Y019755D01*
X044212Y019749D01*
X044177Y019747D01*
X044142Y019749D01*
X044107Y019755D01*
X044073Y019765D01*
X044040Y019778D01*
X044009Y019795D01*
X043981Y019816D01*
X043954Y019839D01*
X043931Y019866D01*
X043910Y019894D01*
X043893Y019925D01*
X043880Y019958D01*
X043870Y019992D01*
X043864Y020027D01*
X043862Y020062D01*
X043862Y023605D02*
X043864Y023640D01*
X043870Y023675D01*
X043880Y023709D01*
X043893Y023742D01*
X043910Y023773D01*
X043931Y023801D01*
X043954Y023828D01*
X043981Y023851D01*
X044009Y023872D01*
X044040Y023889D01*
X044073Y023902D01*
X044107Y023912D01*
X044142Y023918D01*
X044177Y023920D01*
X044212Y023918D01*
X044247Y023912D01*
X044281Y023902D01*
X044314Y023889D01*
X044345Y023872D01*
X044373Y023851D01*
X044400Y023828D01*
X044423Y023801D01*
X044444Y023773D01*
X044461Y023742D01*
X044474Y023709D01*
X044484Y023675D01*
X044490Y023640D01*
X044492Y023605D01*
X044490Y023570D01*
X044484Y023535D01*
X044474Y023501D01*
X044461Y023468D01*
X044444Y023437D01*
X044423Y023409D01*
X044400Y023382D01*
X044373Y023359D01*
X044345Y023338D01*
X044314Y023321D01*
X044281Y023308D01*
X044247Y023298D01*
X044212Y023292D01*
X044177Y023290D01*
X044142Y023292D01*
X044107Y023298D01*
X044073Y023308D01*
X044040Y023321D01*
X044009Y023338D01*
X043981Y023359D01*
X043954Y023382D01*
X043931Y023409D01*
X043910Y023437D01*
X043893Y023468D01*
X043880Y023501D01*
X043870Y023535D01*
X043864Y023570D01*
X043862Y023605D01*
X032051Y023605D02*
X032053Y023640D01*
X032059Y023675D01*
X032069Y023709D01*
X032082Y023742D01*
X032099Y023773D01*
X032120Y023801D01*
X032143Y023828D01*
X032170Y023851D01*
X032198Y023872D01*
X032229Y023889D01*
X032262Y023902D01*
X032296Y023912D01*
X032331Y023918D01*
X032366Y023920D01*
X032401Y023918D01*
X032436Y023912D01*
X032470Y023902D01*
X032503Y023889D01*
X032534Y023872D01*
X032562Y023851D01*
X032589Y023828D01*
X032612Y023801D01*
X032633Y023773D01*
X032650Y023742D01*
X032663Y023709D01*
X032673Y023675D01*
X032679Y023640D01*
X032681Y023605D01*
X032679Y023570D01*
X032673Y023535D01*
X032663Y023501D01*
X032650Y023468D01*
X032633Y023437D01*
X032612Y023409D01*
X032589Y023382D01*
X032562Y023359D01*
X032534Y023338D01*
X032503Y023321D01*
X032470Y023308D01*
X032436Y023298D01*
X032401Y023292D01*
X032366Y023290D01*
X032331Y023292D01*
X032296Y023298D01*
X032262Y023308D01*
X032229Y023321D01*
X032198Y023338D01*
X032170Y023359D01*
X032143Y023382D01*
X032120Y023409D01*
X032099Y023437D01*
X032082Y023468D01*
X032069Y023501D01*
X032059Y023535D01*
X032053Y023570D01*
X032051Y023605D01*
X032051Y020062D02*
X032053Y020097D01*
X032059Y020132D01*
X032069Y020166D01*
X032082Y020199D01*
X032099Y020230D01*
X032120Y020258D01*
X032143Y020285D01*
X032170Y020308D01*
X032198Y020329D01*
X032229Y020346D01*
X032262Y020359D01*
X032296Y020369D01*
X032331Y020375D01*
X032366Y020377D01*
X032401Y020375D01*
X032436Y020369D01*
X032470Y020359D01*
X032503Y020346D01*
X032534Y020329D01*
X032562Y020308D01*
X032589Y020285D01*
X032612Y020258D01*
X032633Y020230D01*
X032650Y020199D01*
X032663Y020166D01*
X032673Y020132D01*
X032679Y020097D01*
X032681Y020062D01*
X032679Y020027D01*
X032673Y019992D01*
X032663Y019958D01*
X032650Y019925D01*
X032633Y019894D01*
X032612Y019866D01*
X032589Y019839D01*
X032562Y019816D01*
X032534Y019795D01*
X032503Y019778D01*
X032470Y019765D01*
X032436Y019755D01*
X032401Y019749D01*
X032366Y019747D01*
X032331Y019749D01*
X032296Y019755D01*
X032262Y019765D01*
X032229Y019778D01*
X032198Y019795D01*
X032170Y019816D01*
X032143Y019839D01*
X032120Y019866D01*
X032099Y019894D01*
X032082Y019925D01*
X032069Y019958D01*
X032059Y019992D01*
X032053Y020027D01*
X032051Y020062D01*
X020240Y020062D02*
X020242Y020097D01*
X020248Y020132D01*
X020258Y020166D01*
X020271Y020199D01*
X020288Y020230D01*
X020309Y020258D01*
X020332Y020285D01*
X020359Y020308D01*
X020387Y020329D01*
X020418Y020346D01*
X020451Y020359D01*
X020485Y020369D01*
X020520Y020375D01*
X020555Y020377D01*
X020590Y020375D01*
X020625Y020369D01*
X020659Y020359D01*
X020692Y020346D01*
X020723Y020329D01*
X020751Y020308D01*
X020778Y020285D01*
X020801Y020258D01*
X020822Y020230D01*
X020839Y020199D01*
X020852Y020166D01*
X020862Y020132D01*
X020868Y020097D01*
X020870Y020062D01*
X020868Y020027D01*
X020862Y019992D01*
X020852Y019958D01*
X020839Y019925D01*
X020822Y019894D01*
X020801Y019866D01*
X020778Y019839D01*
X020751Y019816D01*
X020723Y019795D01*
X020692Y019778D01*
X020659Y019765D01*
X020625Y019755D01*
X020590Y019749D01*
X020555Y019747D01*
X020520Y019749D01*
X020485Y019755D01*
X020451Y019765D01*
X020418Y019778D01*
X020387Y019795D01*
X020359Y019816D01*
X020332Y019839D01*
X020309Y019866D01*
X020288Y019894D01*
X020271Y019925D01*
X020258Y019958D01*
X020248Y019992D01*
X020242Y020027D01*
X020240Y020062D01*
X020240Y023605D02*
X020242Y023640D01*
X020248Y023675D01*
X020258Y023709D01*
X020271Y023742D01*
X020288Y023773D01*
X020309Y023801D01*
X020332Y023828D01*
X020359Y023851D01*
X020387Y023872D01*
X020418Y023889D01*
X020451Y023902D01*
X020485Y023912D01*
X020520Y023918D01*
X020555Y023920D01*
X020590Y023918D01*
X020625Y023912D01*
X020659Y023902D01*
X020692Y023889D01*
X020723Y023872D01*
X020751Y023851D01*
X020778Y023828D01*
X020801Y023801D01*
X020822Y023773D01*
X020839Y023742D01*
X020852Y023709D01*
X020862Y023675D01*
X020868Y023640D01*
X020870Y023605D01*
X020868Y023570D01*
X020862Y023535D01*
X020852Y023501D01*
X020839Y023468D01*
X020822Y023437D01*
X020801Y023409D01*
X020778Y023382D01*
X020751Y023359D01*
X020723Y023338D01*
X020692Y023321D01*
X020659Y023308D01*
X020625Y023298D01*
X020590Y023292D01*
X020555Y023290D01*
X020520Y023292D01*
X020485Y023298D01*
X020451Y023308D01*
X020418Y023321D01*
X020387Y023338D01*
X020359Y023359D01*
X020332Y023382D01*
X020309Y023409D01*
X020288Y023437D01*
X020271Y023468D01*
X020258Y023501D01*
X020248Y023535D01*
X020242Y023570D01*
X020240Y023605D01*
X008429Y023605D02*
X008431Y023640D01*
X008437Y023675D01*
X008447Y023709D01*
X008460Y023742D01*
X008477Y023773D01*
X008498Y023801D01*
X008521Y023828D01*
X008548Y023851D01*
X008576Y023872D01*
X008607Y023889D01*
X008640Y023902D01*
X008674Y023912D01*
X008709Y023918D01*
X008744Y023920D01*
X008779Y023918D01*
X008814Y023912D01*
X008848Y023902D01*
X008881Y023889D01*
X008912Y023872D01*
X008940Y023851D01*
X008967Y023828D01*
X008990Y023801D01*
X009011Y023773D01*
X009028Y023742D01*
X009041Y023709D01*
X009051Y023675D01*
X009057Y023640D01*
X009059Y023605D01*
X009057Y023570D01*
X009051Y023535D01*
X009041Y023501D01*
X009028Y023468D01*
X009011Y023437D01*
X008990Y023409D01*
X008967Y023382D01*
X008940Y023359D01*
X008912Y023338D01*
X008881Y023321D01*
X008848Y023308D01*
X008814Y023298D01*
X008779Y023292D01*
X008744Y023290D01*
X008709Y023292D01*
X008674Y023298D01*
X008640Y023308D01*
X008607Y023321D01*
X008576Y023338D01*
X008548Y023359D01*
X008521Y023382D01*
X008498Y023409D01*
X008477Y023437D01*
X008460Y023468D01*
X008447Y023501D01*
X008437Y023535D01*
X008431Y023570D01*
X008429Y023605D01*
X008429Y020062D02*
X008431Y020097D01*
X008437Y020132D01*
X008447Y020166D01*
X008460Y020199D01*
X008477Y020230D01*
X008498Y020258D01*
X008521Y020285D01*
X008548Y020308D01*
X008576Y020329D01*
X008607Y020346D01*
X008640Y020359D01*
X008674Y020369D01*
X008709Y020375D01*
X008744Y020377D01*
X008779Y020375D01*
X008814Y020369D01*
X008848Y020359D01*
X008881Y020346D01*
X008912Y020329D01*
X008940Y020308D01*
X008967Y020285D01*
X008990Y020258D01*
X009011Y020230D01*
X009028Y020199D01*
X009041Y020166D01*
X009051Y020132D01*
X009057Y020097D01*
X009059Y020062D01*
X009057Y020027D01*
X009051Y019992D01*
X009041Y019958D01*
X009028Y019925D01*
X009011Y019894D01*
X008990Y019866D01*
X008967Y019839D01*
X008940Y019816D01*
X008912Y019795D01*
X008881Y019778D01*
X008848Y019765D01*
X008814Y019755D01*
X008779Y019749D01*
X008744Y019747D01*
X008709Y019749D01*
X008674Y019755D01*
X008640Y019765D01*
X008607Y019778D01*
X008576Y019795D01*
X008548Y019816D01*
X008521Y019839D01*
X008498Y019866D01*
X008477Y019894D01*
X008460Y019925D01*
X008447Y019958D01*
X008437Y019992D01*
X008431Y020027D01*
X008429Y020062D01*
D11*
X028721Y007710D02*
X028721Y007586D01*
X028783Y007525D01*
X029030Y007525D01*
X029091Y007586D01*
X029091Y007710D01*
X029030Y007772D01*
X028783Y007772D02*
X028721Y007710D01*
X028906Y007403D02*
X028906Y007156D01*
X028844Y007034D02*
X028844Y006911D01*
X028783Y006973D02*
X029030Y006973D01*
X029091Y007034D01*
X029091Y006727D02*
X028783Y006727D01*
X028721Y006789D01*
X028906Y006789D02*
X028906Y006665D01*
X028844Y006482D02*
X029091Y006482D01*
X029091Y006543D02*
X029091Y006420D01*
X029091Y006298D02*
X028906Y006298D01*
X028844Y006237D01*
X028844Y006113D01*
X028906Y006052D01*
X028968Y005930D02*
X029030Y005930D01*
X029091Y005868D01*
X029091Y005745D01*
X029030Y005683D01*
X028906Y005745D02*
X028906Y005868D01*
X028968Y005930D01*
X029091Y006052D02*
X028721Y006052D01*
X028783Y005930D02*
X028721Y005868D01*
X028721Y005745D01*
X028783Y005683D01*
X028844Y005683D01*
X028906Y005745D01*
X028844Y006420D02*
X028844Y006482D01*
X028721Y006482D02*
X028659Y006482D01*
X029749Y006508D02*
X030119Y006508D01*
X030057Y006387D02*
X030119Y006325D01*
X030119Y006202D01*
X030057Y006140D01*
X029934Y006202D02*
X029934Y006325D01*
X029995Y006387D01*
X030057Y006387D01*
X029934Y006508D02*
X029872Y006570D01*
X029872Y006693D01*
X029934Y006755D01*
X030119Y006755D01*
X030119Y006877D02*
X030119Y007000D01*
X030119Y006938D02*
X029872Y006938D01*
X029872Y006877D01*
X029749Y006938D02*
X029687Y006938D01*
X029810Y007184D02*
X029749Y007245D01*
X029810Y007184D02*
X030119Y007184D01*
X029934Y007245D02*
X029934Y007122D01*
X029872Y007368D02*
X029872Y007491D01*
X029810Y007429D02*
X030057Y007429D01*
X030119Y007491D01*
X029934Y007613D02*
X029934Y007860D01*
X029934Y007981D02*
X029934Y008167D01*
X029995Y008228D01*
X030057Y008228D01*
X030119Y008167D01*
X030119Y007981D01*
X029749Y007981D01*
X029749Y008167D01*
X029810Y008228D01*
X029872Y008228D01*
X029934Y008167D01*
X030839Y007538D02*
X030963Y007661D01*
X031209Y007661D01*
X031024Y007661D02*
X031024Y007415D01*
X030963Y007415D02*
X030839Y007538D01*
X030963Y007415D02*
X031209Y007415D01*
X031024Y007293D02*
X031024Y007046D01*
X030963Y006924D02*
X030963Y006801D01*
X030901Y006862D02*
X031148Y006862D01*
X031209Y006924D01*
X031209Y006617D02*
X030901Y006617D01*
X030839Y006679D01*
X031024Y006679D02*
X031024Y006555D01*
X030963Y006371D02*
X031209Y006371D01*
X031209Y006310D02*
X031209Y006433D01*
X031209Y006188D02*
X031024Y006188D01*
X030963Y006126D01*
X030963Y006003D01*
X031024Y005941D01*
X031086Y005820D02*
X031148Y005820D01*
X031209Y005758D01*
X031209Y005635D01*
X031148Y005573D01*
X031024Y005635D02*
X031024Y005758D01*
X031086Y005820D01*
X031209Y005941D02*
X030839Y005941D01*
X030901Y005820D02*
X030839Y005758D01*
X030839Y005635D01*
X030901Y005573D01*
X030963Y005573D01*
X031024Y005635D01*
X031713Y005850D02*
X031837Y005973D01*
X032083Y005973D01*
X031898Y005973D02*
X031898Y005726D01*
X031837Y005726D02*
X031713Y005850D01*
X031837Y005726D02*
X032083Y005726D01*
X031898Y006095D02*
X031898Y006342D01*
X031837Y006463D02*
X031898Y006525D01*
X031898Y006648D01*
X031960Y006710D01*
X032022Y006710D01*
X032083Y006648D01*
X032083Y006525D01*
X032022Y006463D01*
X031837Y006463D02*
X031775Y006463D01*
X031713Y006525D01*
X031713Y006648D01*
X031775Y006710D01*
X030963Y006371D02*
X030963Y006310D01*
X030839Y006371D02*
X030777Y006371D01*
X029934Y006202D02*
X029872Y006140D01*
X029810Y006140D01*
X029749Y006202D01*
X029749Y006325D01*
X029810Y006387D01*
X032764Y006501D02*
X032826Y006440D01*
X032888Y006440D01*
X032949Y006501D01*
X032949Y006625D01*
X033011Y006686D01*
X033073Y006686D01*
X033135Y006625D01*
X033135Y006501D01*
X033073Y006440D01*
X032949Y006318D02*
X032949Y006071D01*
X032888Y005950D02*
X032949Y005888D01*
X032949Y005703D01*
X032764Y005703D02*
X032764Y005888D01*
X032826Y005950D01*
X032888Y005950D01*
X032949Y005888D02*
X033011Y005950D01*
X033073Y005950D01*
X033135Y005888D01*
X033135Y005703D01*
X032764Y005703D01*
X032764Y006501D02*
X032764Y006625D01*
X032826Y006686D01*
X039578Y004435D02*
X039825Y004435D01*
X039825Y004374D01*
X039578Y004127D01*
X039578Y004065D01*
X039946Y004250D02*
X040193Y004250D01*
X040315Y004250D02*
X040562Y004250D01*
X040683Y004127D02*
X040745Y004065D01*
X040868Y004065D01*
X040930Y004127D01*
X041051Y004250D02*
X041298Y004250D01*
X041420Y004127D02*
X041666Y004374D01*
X041666Y004127D01*
X041605Y004065D01*
X041481Y004065D01*
X041420Y004127D01*
X041420Y004374D01*
X041481Y004435D01*
X041605Y004435D01*
X041666Y004374D01*
X041788Y004435D02*
X041788Y004250D01*
X041911Y004312D01*
X041973Y004312D01*
X042035Y004250D01*
X042035Y004127D01*
X041973Y004065D01*
X041850Y004065D01*
X041788Y004127D01*
X041788Y004435D02*
X042035Y004435D01*
X042156Y004312D02*
X042280Y004435D01*
X042280Y004065D01*
X042403Y004065D02*
X042156Y004065D01*
X041236Y004065D02*
X041236Y004435D01*
X041051Y004250D01*
X040930Y004374D02*
X040868Y004435D01*
X040745Y004435D01*
X040683Y004374D01*
X040683Y004127D01*
X040562Y004065D02*
X040562Y004435D01*
X040315Y004435D02*
X040315Y004065D01*
X040132Y004065D02*
X040132Y004435D01*
X039946Y004250D01*
X035302Y001697D02*
X035241Y001759D01*
X035302Y001697D02*
X035302Y001573D01*
X035241Y001512D01*
X034994Y001512D01*
X034932Y001573D01*
X034932Y001697D01*
X034994Y001759D01*
X034994Y001390D02*
X034932Y001329D01*
X034932Y001205D01*
X034994Y001143D01*
X035241Y001143D01*
X035302Y001205D01*
X035302Y001329D01*
X035241Y001390D01*
X035179Y001022D02*
X034932Y001022D01*
X034932Y000775D02*
X035179Y000775D01*
X035302Y000899D01*
X035179Y001022D01*
X034232Y000960D02*
X034232Y000837D01*
X034170Y000775D01*
X033923Y000775D01*
X033861Y000837D01*
X033861Y000960D01*
X033923Y001022D01*
X034046Y001022D02*
X034046Y000899D01*
X034046Y001022D02*
X034170Y001022D01*
X034232Y000960D01*
X034232Y001143D02*
X033861Y001143D01*
X034232Y001390D01*
X033861Y001390D01*
X033861Y001512D02*
X033861Y001697D01*
X033923Y001759D01*
X034170Y001759D01*
X034232Y001697D01*
X034232Y001512D01*
X033861Y001512D01*
X033271Y001605D02*
X032901Y001605D01*
X032901Y001358D02*
X033271Y001605D01*
X033271Y001358D02*
X032901Y001358D01*
X032901Y001236D02*
X032901Y001113D01*
X032901Y001174D02*
X033271Y001174D01*
X033271Y001113D02*
X033271Y001236D01*
X033209Y000991D02*
X033271Y000929D01*
X033271Y000806D01*
X033209Y000744D01*
X033086Y000806D02*
X033086Y000929D01*
X033147Y000991D01*
X033209Y000991D01*
X033086Y000806D02*
X033024Y000744D01*
X032962Y000744D01*
X032901Y000806D01*
X032901Y000929D01*
X032962Y000991D01*
X032310Y001097D02*
X032310Y001220D01*
X032249Y001282D01*
X032310Y001403D02*
X032310Y001650D01*
X032310Y001772D02*
X031940Y001772D01*
X032125Y001833D02*
X032310Y002018D01*
X032187Y001772D02*
X031940Y002018D01*
X031220Y001765D02*
X030849Y001765D01*
X030849Y001642D02*
X030849Y001889D01*
X030192Y001777D02*
X030192Y002024D01*
X030192Y002146D02*
X029822Y002146D01*
X030007Y002207D02*
X030192Y002392D01*
X030069Y002146D02*
X029822Y002392D01*
X029822Y001777D02*
X030192Y001777D01*
X030130Y001656D02*
X030192Y001594D01*
X030192Y001471D01*
X030130Y001409D01*
X029884Y001409D01*
X029822Y001471D01*
X029822Y001594D01*
X029884Y001656D01*
X029884Y001288D02*
X029822Y001226D01*
X029822Y001102D01*
X029884Y001041D01*
X029945Y001041D01*
X030007Y001102D01*
X030007Y001226D01*
X030069Y001288D01*
X030130Y001288D01*
X030192Y001226D01*
X030192Y001102D01*
X030130Y001041D01*
X030130Y000919D02*
X030007Y000919D01*
X030007Y000796D01*
X030130Y000919D02*
X030192Y000857D01*
X030192Y000734D01*
X030130Y000672D01*
X029884Y000672D01*
X029822Y000734D01*
X029822Y000857D01*
X029884Y000919D01*
X029208Y000937D02*
X029146Y000998D01*
X029023Y000998D01*
X029023Y000875D01*
X029146Y000751D02*
X029208Y000813D01*
X029208Y000937D01*
X029208Y001120D02*
X028838Y001120D01*
X029208Y001367D01*
X028838Y001367D01*
X028838Y001488D02*
X028838Y001673D01*
X028899Y001735D01*
X029146Y001735D01*
X029208Y001673D01*
X029208Y001488D01*
X028838Y001488D01*
X028899Y000998D02*
X028838Y000937D01*
X028838Y000813D01*
X028899Y000751D01*
X029146Y000751D01*
X030849Y000784D02*
X031220Y000537D01*
X031220Y000784D02*
X030849Y000537D01*
X030849Y000905D02*
X031220Y000905D01*
X031220Y001152D01*
X031220Y001273D02*
X030973Y001273D01*
X030849Y001397D01*
X030973Y001520D01*
X031220Y001520D01*
X031035Y001520D02*
X031035Y001273D01*
X031940Y001220D02*
X031940Y001097D01*
X032002Y001035D01*
X032249Y001035D01*
X032310Y001097D01*
X032249Y000914D02*
X032310Y000852D01*
X032310Y000728D01*
X032249Y000667D01*
X032125Y000728D02*
X032125Y000852D01*
X032187Y000914D01*
X032249Y000914D01*
X032125Y000728D02*
X032063Y000667D01*
X032002Y000667D01*
X031940Y000728D01*
X031940Y000852D01*
X032002Y000914D01*
X031940Y001220D02*
X032002Y001282D01*
X031940Y001403D02*
X032310Y001403D01*
X022633Y003800D02*
X022572Y003738D01*
X022448Y003738D01*
X022386Y003800D01*
X022633Y004047D01*
X022633Y003800D01*
X022386Y003800D02*
X022386Y004047D01*
X022448Y004109D01*
X022572Y004109D01*
X022633Y004047D01*
X022265Y003923D02*
X022018Y003923D01*
X022203Y004109D01*
X022203Y003738D01*
X021897Y003800D02*
X021835Y003738D01*
X021711Y003738D01*
X021650Y003800D01*
X021528Y003800D02*
X021467Y003738D01*
X021343Y003738D01*
X021281Y003800D01*
X021160Y003800D02*
X021098Y003738D01*
X020975Y003738D01*
X020913Y003800D01*
X020913Y004047D01*
X020975Y004109D01*
X021098Y004109D01*
X021160Y004047D01*
X021281Y004109D02*
X021281Y003923D01*
X021405Y003985D01*
X021467Y003985D01*
X021528Y003923D01*
X021528Y003800D01*
X021711Y003923D02*
X021897Y003923D01*
X021897Y003800D02*
X021897Y004047D01*
X021835Y004109D01*
X021711Y004109D01*
X021650Y004047D01*
X021650Y003985D01*
X021711Y003923D01*
X021528Y004109D02*
X021281Y004109D01*
X020792Y003738D02*
X020545Y003738D01*
X020545Y004109D01*
X020423Y004109D02*
X020176Y004109D01*
X020300Y004109D02*
X020300Y003738D01*
X005679Y003860D02*
X005432Y003860D01*
X005555Y003860D02*
X005555Y004231D01*
X005432Y004107D01*
X005310Y004046D02*
X005249Y004107D01*
X005187Y004107D01*
X005064Y004046D01*
X005064Y004231D01*
X005310Y004231D01*
X005310Y004046D02*
X005310Y003922D01*
X005249Y003860D01*
X005125Y003860D01*
X005064Y003922D01*
X004942Y003922D02*
X004942Y004169D01*
X004695Y003922D01*
X004757Y003860D01*
X004880Y003860D01*
X004942Y003922D01*
X004695Y003922D02*
X004695Y004169D01*
X004757Y004231D01*
X004880Y004231D01*
X004942Y004169D01*
X004574Y004046D02*
X004327Y004046D01*
X004512Y004231D01*
X004512Y003860D01*
X004205Y003922D02*
X004144Y003860D01*
X004020Y003860D01*
X003959Y003922D01*
X003959Y004169D01*
X004020Y004231D01*
X004144Y004231D01*
X004205Y004169D01*
X003837Y004231D02*
X003837Y003860D01*
X003837Y004046D02*
X003590Y004046D01*
X003469Y004046D02*
X003222Y004046D01*
X003407Y004231D01*
X003407Y003860D01*
X003590Y003860D02*
X003590Y004231D01*
X003101Y004231D02*
X003101Y004169D01*
X002854Y003922D01*
X002854Y003860D01*
X002854Y004231D02*
X003101Y004231D01*
D12*
X014958Y007132D02*
X014958Y007483D01*
X015134Y007483D01*
X015192Y007424D01*
X015192Y007308D01*
X015134Y007249D01*
X014958Y007249D01*
X015075Y007249D02*
X015192Y007132D01*
X015318Y007132D02*
X015551Y007366D01*
X015551Y007424D01*
X015493Y007483D01*
X015376Y007483D01*
X015318Y007424D01*
X015318Y007132D02*
X015551Y007132D01*
X017958Y007132D02*
X018075Y007132D01*
X018017Y007132D02*
X018017Y007483D01*
X018075Y007483D02*
X017958Y007483D01*
X018198Y007483D02*
X018373Y007483D01*
X018431Y007424D01*
X018431Y007308D01*
X018373Y007249D01*
X018198Y007249D01*
X018198Y007132D02*
X018198Y007483D01*
X018315Y007249D02*
X018431Y007132D01*
X018557Y007132D02*
X018790Y007132D01*
X018916Y007132D02*
X018916Y007483D01*
X019150Y007483D01*
X019033Y007308D02*
X018916Y007308D01*
X018790Y007483D02*
X018557Y007483D01*
X018557Y007132D01*
X018557Y007308D02*
X018674Y007308D01*
X015874Y018824D02*
X015874Y019438D01*
X015797Y019361D02*
X015951Y019361D01*
X016028Y019284D01*
X016181Y019284D02*
X016258Y019361D01*
X016411Y019361D01*
X016488Y019284D01*
X016488Y019208D01*
X016411Y019131D01*
X016488Y019054D01*
X016488Y018978D01*
X016411Y018901D01*
X016258Y018901D01*
X016181Y018978D01*
X016028Y018978D02*
X016028Y019054D01*
X015951Y019131D01*
X015797Y019131D01*
X015721Y019208D01*
X015721Y019284D01*
X015797Y019361D01*
X015567Y019361D02*
X015567Y018978D01*
X015490Y018901D01*
X015337Y018901D01*
X015260Y018978D01*
X015260Y019361D01*
X015721Y018978D02*
X015797Y018901D01*
X015951Y018901D01*
X016028Y018978D01*
X016334Y019131D02*
X016411Y019131D01*
X027071Y018978D02*
X027148Y018901D01*
X027301Y018901D01*
X027378Y018978D01*
X027378Y019361D01*
X027532Y019284D02*
X027608Y019361D01*
X027762Y019361D01*
X027839Y019284D01*
X027992Y019284D02*
X028069Y019361D01*
X028222Y019361D01*
X028299Y019284D01*
X028299Y019208D01*
X027992Y018901D01*
X028299Y018901D01*
X027839Y018978D02*
X027839Y019054D01*
X027762Y019131D01*
X027608Y019131D01*
X027532Y019208D01*
X027532Y019284D01*
X027685Y019438D02*
X027685Y018824D01*
X027608Y018901D02*
X027762Y018901D01*
X027839Y018978D01*
X027608Y018901D02*
X027532Y018978D01*
X027071Y018978D02*
X027071Y019361D01*
X038882Y019361D02*
X038882Y018978D01*
X038959Y018901D01*
X039112Y018901D01*
X039189Y018978D01*
X039189Y019361D01*
X039343Y019284D02*
X039419Y019361D01*
X039573Y019361D01*
X039650Y019284D01*
X039803Y019208D02*
X039957Y019361D01*
X039957Y018901D01*
X040110Y018901D02*
X039803Y018901D01*
X039650Y018978D02*
X039650Y019054D01*
X039573Y019131D01*
X039419Y019131D01*
X039343Y019208D01*
X039343Y019284D01*
X039496Y019438D02*
X039496Y018824D01*
X039419Y018901D02*
X039573Y018901D01*
X039650Y018978D01*
X039419Y018901D02*
X039343Y018978D01*
X036827Y028153D02*
X036673Y028153D01*
X036750Y028153D02*
X036750Y028613D01*
X036673Y028613D02*
X036827Y028613D01*
X036520Y028536D02*
X036520Y028229D01*
X036443Y028153D01*
X036213Y028153D01*
X036213Y028613D01*
X036443Y028613D01*
X036520Y028536D01*
X036059Y028613D02*
X035906Y028613D01*
X035983Y028613D02*
X035983Y028153D01*
X036059Y028153D02*
X035906Y028153D01*
X035752Y028153D02*
X035752Y028613D01*
X035599Y028460D01*
X035445Y028613D01*
X035445Y028153D01*
X034832Y028153D02*
X034601Y028153D01*
X034525Y028229D01*
X034525Y028383D01*
X034601Y028460D01*
X034832Y028460D01*
X034294Y028460D02*
X034294Y028153D01*
X034218Y028153D02*
X034371Y028153D01*
X034294Y028460D02*
X034218Y028460D01*
X034064Y028460D02*
X033988Y028460D01*
X033834Y028306D01*
X033834Y028153D02*
X033834Y028460D01*
X033681Y028383D02*
X033681Y028306D01*
X033374Y028306D01*
X033374Y028229D02*
X033374Y028383D01*
X033450Y028460D01*
X033604Y028460D01*
X033681Y028383D01*
X033604Y028153D02*
X033450Y028153D01*
X033374Y028229D01*
X033220Y028153D02*
X033220Y028383D01*
X033143Y028460D01*
X032913Y028460D01*
X032913Y028153D01*
X032760Y028306D02*
X032453Y028306D01*
X032453Y028229D02*
X032453Y028383D01*
X032530Y028460D01*
X032683Y028460D01*
X032760Y028383D01*
X032760Y028306D01*
X032683Y028153D02*
X032530Y028153D01*
X032453Y028229D01*
X032299Y028229D02*
X032299Y028383D01*
X032146Y028383D01*
X032299Y028536D02*
X032223Y028613D01*
X032069Y028613D01*
X031992Y028536D01*
X031992Y028229D01*
X032069Y028153D01*
X032223Y028153D01*
X032299Y028229D01*
X034294Y028613D02*
X034294Y028690D01*
X038882Y030789D02*
X038882Y031172D01*
X039189Y031172D02*
X039189Y030789D01*
X039112Y030712D01*
X038959Y030712D01*
X038882Y030789D01*
X039343Y030789D02*
X039419Y030712D01*
X039573Y030712D01*
X039650Y030789D01*
X039650Y030865D01*
X039573Y030942D01*
X039419Y030942D01*
X039343Y031019D01*
X039343Y031095D01*
X039419Y031172D01*
X039573Y031172D01*
X039650Y031095D01*
X039803Y031172D02*
X039803Y030942D01*
X039957Y031019D01*
X040033Y031019D01*
X040110Y030942D01*
X040110Y030789D01*
X040033Y030712D01*
X039880Y030712D01*
X039803Y030789D01*
X039496Y030635D02*
X039496Y031249D01*
X039803Y031172D02*
X040110Y031172D01*
X028299Y030942D02*
X027992Y030942D01*
X028222Y031172D01*
X028222Y030712D01*
X027839Y030789D02*
X027839Y030865D01*
X027762Y030942D01*
X027608Y030942D01*
X027532Y031019D01*
X027532Y031095D01*
X027608Y031172D01*
X027762Y031172D01*
X027839Y031095D01*
X027685Y031249D02*
X027685Y030635D01*
X027608Y030712D02*
X027762Y030712D01*
X027839Y030789D01*
X027608Y030712D02*
X027532Y030789D01*
X027378Y030789D02*
X027378Y031172D01*
X027071Y031172D02*
X027071Y030789D01*
X027148Y030712D01*
X027301Y030712D01*
X027378Y030789D01*
X023654Y028219D02*
X023654Y027759D01*
X023501Y027759D02*
X023808Y027759D01*
X023501Y028066D02*
X023654Y028219D01*
X023348Y027836D02*
X023348Y027759D01*
X023271Y027759D01*
X023271Y027836D01*
X023348Y027836D01*
X023117Y027836D02*
X023117Y028143D01*
X022810Y027836D01*
X022887Y027759D01*
X023041Y027759D01*
X023117Y027836D01*
X022810Y027836D02*
X022810Y028143D01*
X022887Y028219D01*
X023041Y028219D01*
X023117Y028143D01*
X022197Y028219D02*
X022197Y027913D01*
X022043Y027759D01*
X021890Y027913D01*
X021890Y028219D01*
X021736Y028219D02*
X021429Y028219D01*
X021429Y027759D01*
X021736Y027759D01*
X021583Y027989D02*
X021429Y027989D01*
X021276Y027989D02*
X021199Y027913D01*
X020969Y027913D01*
X021122Y027913D02*
X021276Y027759D01*
X021276Y027989D02*
X021276Y028143D01*
X021199Y028219D01*
X020969Y028219D01*
X020969Y027759D01*
X016488Y030789D02*
X016488Y030865D01*
X016411Y030942D01*
X016181Y030942D01*
X016181Y030789D01*
X016258Y030712D01*
X016411Y030712D01*
X016488Y030789D01*
X016334Y031095D02*
X016181Y030942D01*
X016028Y030865D02*
X015951Y030942D01*
X015797Y030942D01*
X015721Y031019D01*
X015721Y031095D01*
X015797Y031172D01*
X015951Y031172D01*
X016028Y031095D01*
X015874Y031249D02*
X015874Y030635D01*
X015797Y030712D02*
X015951Y030712D01*
X016028Y030789D01*
X016028Y030865D01*
X015797Y030712D02*
X015721Y030789D01*
X015567Y030789D02*
X015567Y031172D01*
X015260Y031172D02*
X015260Y030789D01*
X015337Y030712D01*
X015490Y030712D01*
X015567Y030789D01*
X016334Y031095D02*
X016488Y031172D01*
X014202Y029247D02*
X014125Y029247D01*
X013972Y029094D01*
X013972Y029247D02*
X013972Y028940D01*
X013818Y029094D02*
X013511Y029094D01*
X013511Y029170D02*
X013588Y029247D01*
X013742Y029247D01*
X013818Y029170D01*
X013818Y029094D01*
X013742Y028940D02*
X013588Y028940D01*
X013511Y029017D01*
X013511Y029170D01*
X013358Y029247D02*
X013358Y028863D01*
X013281Y028787D01*
X013205Y028787D01*
X013128Y028940D02*
X013358Y028940D01*
X013128Y028940D02*
X013051Y029017D01*
X013051Y029247D01*
X012898Y029170D02*
X012821Y029247D01*
X012667Y029247D01*
X012591Y029170D01*
X012591Y029017D01*
X012667Y028940D01*
X012821Y028940D01*
X012898Y029017D01*
X012898Y029170D01*
X012437Y029094D02*
X012437Y029017D01*
X012361Y028940D01*
X012130Y028940D01*
X012130Y029401D01*
X012361Y029401D01*
X012437Y029324D01*
X012437Y029247D01*
X012361Y029170D01*
X012130Y029170D01*
X012361Y029170D02*
X012437Y029094D01*
X011516Y029017D02*
X011440Y028940D01*
X011210Y028940D01*
X011056Y028940D02*
X010826Y028940D01*
X010749Y029017D01*
X010826Y029094D01*
X011056Y029094D01*
X011056Y029170D02*
X011056Y028940D01*
X011056Y029170D02*
X010979Y029247D01*
X010826Y029247D01*
X010519Y029401D02*
X010519Y028940D01*
X010442Y028940D02*
X010596Y028940D01*
X010289Y029017D02*
X010289Y029170D01*
X010212Y029247D01*
X010059Y029247D01*
X009982Y029170D01*
X009982Y029017D01*
X010059Y028940D01*
X010212Y028940D01*
X010289Y029017D01*
X010442Y029401D02*
X010519Y029401D01*
X011210Y029170D02*
X011286Y029247D01*
X011516Y029247D01*
X011440Y029094D02*
X011286Y029094D01*
X011210Y029170D01*
X011440Y029094D02*
X011516Y029017D01*
X009828Y028940D02*
X009598Y029094D01*
X009828Y029247D01*
X009598Y029401D02*
X009598Y028940D01*
X009445Y028940D02*
X009214Y028940D01*
X009138Y029017D01*
X009138Y029170D01*
X009214Y029247D01*
X009445Y029247D01*
X008908Y029247D02*
X008908Y028940D01*
X008984Y028940D02*
X008831Y028940D01*
X008677Y028940D02*
X008677Y029401D01*
X008831Y029247D02*
X008908Y029247D01*
X008908Y029401D02*
X008908Y029477D01*
X008370Y029401D02*
X008370Y028940D01*
X008677Y028940D02*
X008370Y029401D01*
X004677Y031095D02*
X004677Y031172D01*
X004370Y031172D01*
X004217Y031095D02*
X004140Y031172D01*
X003986Y031172D01*
X003910Y031095D01*
X003910Y031019D01*
X003986Y030942D01*
X004140Y030942D01*
X004217Y030865D01*
X004217Y030789D01*
X004140Y030712D01*
X003986Y030712D01*
X003910Y030789D01*
X003756Y030789D02*
X003756Y031172D01*
X003449Y031172D02*
X003449Y030789D01*
X003526Y030712D01*
X003679Y030712D01*
X003756Y030789D01*
X004063Y030635D02*
X004063Y031249D01*
X004370Y030789D02*
X004677Y031095D01*
X004370Y030789D02*
X004370Y030712D01*
X004063Y019438D02*
X004063Y018824D01*
X003986Y018901D02*
X003910Y018978D01*
X003986Y018901D02*
X004140Y018901D01*
X004217Y018978D01*
X004217Y019054D01*
X004140Y019131D01*
X003986Y019131D01*
X003910Y019208D01*
X003910Y019284D01*
X003986Y019361D01*
X004140Y019361D01*
X004217Y019284D01*
X004370Y019284D02*
X004370Y019208D01*
X004447Y019131D01*
X004600Y019131D01*
X004677Y019054D01*
X004677Y018978D01*
X004600Y018901D01*
X004447Y018901D01*
X004370Y018978D01*
X004370Y019054D01*
X004447Y019131D01*
X004600Y019131D02*
X004677Y019208D01*
X004677Y019284D01*
X004600Y019361D01*
X004447Y019361D01*
X004370Y019284D01*
X003756Y019361D02*
X003756Y018978D01*
X003679Y018901D01*
X003526Y018901D01*
X003449Y018978D01*
X003449Y019361D01*
D13*
X006884Y020739D02*
X006941Y020682D01*
X007055Y020682D01*
X007111Y020739D01*
X007111Y020796D01*
X007055Y020853D01*
X006998Y020853D01*
X007055Y020853D02*
X007111Y020909D01*
X007111Y020966D01*
X007055Y021023D01*
X006941Y021023D01*
X006884Y020966D01*
X006884Y022651D02*
X007111Y022651D01*
X006998Y022651D02*
X006998Y022991D01*
X006884Y022878D01*
X010349Y022935D02*
X010406Y022991D01*
X010519Y022991D01*
X010576Y022935D01*
X010576Y022878D01*
X010349Y022651D01*
X010576Y022651D01*
X010519Y021023D02*
X010349Y020853D01*
X010576Y020853D01*
X010519Y021023D02*
X010519Y020682D01*
X018695Y020739D02*
X018752Y020682D01*
X018866Y020682D01*
X018922Y020739D01*
X018922Y020796D01*
X018866Y020853D01*
X018809Y020853D01*
X018866Y020853D02*
X018922Y020909D01*
X018922Y020966D01*
X018866Y021023D01*
X018752Y021023D01*
X018695Y020966D01*
X018695Y022651D02*
X018922Y022651D01*
X018809Y022651D02*
X018809Y022991D01*
X018695Y022878D01*
X022160Y022935D02*
X022217Y022991D01*
X022330Y022991D01*
X022387Y022935D01*
X022387Y022878D01*
X022160Y022651D01*
X022387Y022651D01*
X022330Y021023D02*
X022160Y020853D01*
X022387Y020853D01*
X022330Y021023D02*
X022330Y020682D01*
X030506Y020739D02*
X030563Y020682D01*
X030677Y020682D01*
X030733Y020739D01*
X030733Y020796D01*
X030677Y020853D01*
X030620Y020853D01*
X030677Y020853D02*
X030733Y020909D01*
X030733Y020966D01*
X030677Y021023D01*
X030563Y021023D01*
X030506Y020966D01*
X030506Y022651D02*
X030733Y022651D01*
X030620Y022651D02*
X030620Y022991D01*
X030506Y022878D01*
X033971Y022935D02*
X034028Y022991D01*
X034141Y022991D01*
X034198Y022935D01*
X034198Y022878D01*
X033971Y022651D01*
X034198Y022651D01*
X034141Y021023D02*
X033971Y020853D01*
X034198Y020853D01*
X034141Y021023D02*
X034141Y020682D01*
X042317Y020739D02*
X042374Y020682D01*
X042488Y020682D01*
X042544Y020739D01*
X042544Y020796D01*
X042488Y020853D01*
X042431Y020853D01*
X042488Y020853D02*
X042544Y020909D01*
X042544Y020966D01*
X042488Y021023D01*
X042374Y021023D01*
X042317Y020966D01*
X042317Y022651D02*
X042544Y022651D01*
X042431Y022651D02*
X042431Y022991D01*
X042317Y022878D01*
X045782Y022935D02*
X045839Y022991D01*
X045952Y022991D01*
X046009Y022935D01*
X046009Y022878D01*
X045782Y022651D01*
X046009Y022651D01*
X045952Y021023D02*
X045782Y020853D01*
X046009Y020853D01*
X045952Y021023D02*
X045952Y020682D01*
X045952Y011180D02*
X045839Y011180D01*
X045782Y011123D01*
X045952Y011180D02*
X046009Y011123D01*
X046009Y011067D01*
X045782Y010840D01*
X046009Y010840D01*
X045952Y009212D02*
X045782Y009042D01*
X046009Y009042D01*
X045952Y009212D02*
X045952Y008871D01*
X042544Y008928D02*
X042488Y008871D01*
X042374Y008871D01*
X042317Y008928D01*
X042431Y009042D02*
X042488Y009042D01*
X042544Y008985D01*
X042544Y008928D01*
X042488Y009042D02*
X042544Y009098D01*
X042544Y009155D01*
X042488Y009212D01*
X042374Y009212D01*
X042317Y009155D01*
X042317Y010840D02*
X042544Y010840D01*
X042431Y010840D02*
X042431Y011180D01*
X042317Y011067D01*
X034198Y011067D02*
X034198Y011123D01*
X034141Y011180D01*
X034028Y011180D01*
X033971Y011123D01*
X034198Y011067D02*
X033971Y010840D01*
X034198Y010840D01*
X034141Y009212D02*
X033971Y009042D01*
X034198Y009042D01*
X034141Y009212D02*
X034141Y008871D01*
X030733Y008928D02*
X030677Y008871D01*
X030563Y008871D01*
X030506Y008928D01*
X030620Y009042D02*
X030677Y009042D01*
X030733Y008985D01*
X030733Y008928D01*
X030677Y009042D02*
X030733Y009098D01*
X030733Y009155D01*
X030677Y009212D01*
X030563Y009212D01*
X030506Y009155D01*
X030506Y010840D02*
X030733Y010840D01*
X030620Y010840D02*
X030620Y011180D01*
X030506Y011067D01*
X025039Y007434D02*
X024989Y007434D01*
X025039Y007434D02*
X025039Y007234D01*
X024989Y007234D01*
X024089Y007234D02*
X024039Y007234D01*
X024039Y007434D01*
X024089Y007434D01*
X022330Y008871D02*
X022330Y009212D01*
X022160Y009042D01*
X022387Y009042D01*
X022387Y010840D02*
X022160Y010840D01*
X022387Y011067D01*
X022387Y011123D01*
X022330Y011180D01*
X022217Y011180D01*
X022160Y011123D01*
X018922Y010840D02*
X018695Y010840D01*
X018809Y010840D02*
X018809Y011180D01*
X018695Y011067D01*
X018752Y009212D02*
X018866Y009212D01*
X018922Y009155D01*
X018922Y009098D01*
X018866Y009042D01*
X018922Y008985D01*
X018922Y008928D01*
X018866Y008871D01*
X018752Y008871D01*
X018695Y008928D01*
X018809Y009042D02*
X018866Y009042D01*
X018695Y009155D02*
X018752Y009212D01*
X019228Y007002D02*
X019328Y007002D01*
X019345Y007000D01*
X019362Y006996D01*
X019378Y006989D01*
X019392Y006979D01*
X019405Y006966D01*
X019415Y006952D01*
X019422Y006936D01*
X019426Y006919D01*
X019428Y006902D01*
X019228Y007002D02*
X019178Y006952D01*
X018278Y006952D01*
X018228Y007002D01*
X018128Y007002D01*
X018111Y007000D01*
X018094Y006996D01*
X018078Y006989D01*
X018064Y006979D01*
X018051Y006966D01*
X018041Y006952D01*
X018034Y006936D01*
X018030Y006919D01*
X018028Y006902D01*
X018028Y006402D02*
X018030Y006385D01*
X018034Y006368D01*
X018041Y006352D01*
X018051Y006338D01*
X018064Y006325D01*
X018078Y006315D01*
X018094Y006308D01*
X018111Y006304D01*
X018128Y006302D01*
X018228Y006302D01*
X018278Y006352D01*
X019178Y006352D01*
X019228Y006302D01*
X019328Y006302D01*
X019345Y006304D01*
X019362Y006308D01*
X019378Y006315D01*
X019392Y006325D01*
X019405Y006338D01*
X019415Y006352D01*
X019422Y006368D01*
X019426Y006385D01*
X019428Y006402D01*
X016428Y006402D02*
X016426Y006385D01*
X016422Y006368D01*
X016415Y006352D01*
X016405Y006338D01*
X016392Y006325D01*
X016378Y006315D01*
X016362Y006308D01*
X016345Y006304D01*
X016328Y006302D01*
X016228Y006302D01*
X016178Y006352D01*
X015278Y006352D01*
X015228Y006302D01*
X015128Y006302D01*
X015111Y006304D01*
X015094Y006308D01*
X015078Y006315D01*
X015064Y006325D01*
X015051Y006338D01*
X015041Y006352D01*
X015034Y006368D01*
X015030Y006385D01*
X015028Y006402D01*
X015028Y006902D02*
X015030Y006919D01*
X015034Y006936D01*
X015041Y006952D01*
X015051Y006966D01*
X015064Y006979D01*
X015078Y006989D01*
X015094Y006996D01*
X015111Y007000D01*
X015128Y007002D01*
X015228Y007002D01*
X015278Y006952D01*
X016178Y006952D01*
X016228Y007002D01*
X016328Y007002D01*
X016345Y007000D01*
X016362Y006996D01*
X016378Y006989D01*
X016392Y006979D01*
X016405Y006966D01*
X016415Y006952D01*
X016422Y006936D01*
X016426Y006919D01*
X016428Y006902D01*
X010519Y008871D02*
X010519Y009212D01*
X010349Y009042D01*
X010576Y009042D01*
X010576Y010840D02*
X010349Y010840D01*
X010576Y011067D01*
X010576Y011123D01*
X010519Y011180D01*
X010406Y011180D01*
X010349Y011123D01*
X007111Y010840D02*
X006884Y010840D01*
X006998Y010840D02*
X006998Y011180D01*
X006884Y011067D01*
X006941Y009212D02*
X006884Y009155D01*
X006941Y009212D02*
X007055Y009212D01*
X007111Y009155D01*
X007111Y009098D01*
X007055Y009042D01*
X007111Y008985D01*
X007111Y008928D01*
X007055Y008871D01*
X006941Y008871D01*
X006884Y008928D01*
X006998Y009042D02*
X007055Y009042D01*
X009988Y005723D02*
X001988Y005723D01*
X001988Y004723D01*
X001988Y004123D01*
X002027Y004121D01*
X002066Y004115D01*
X002104Y004106D01*
X002141Y004093D01*
X002177Y004076D01*
X002210Y004056D01*
X002242Y004032D01*
X002271Y004006D01*
X002297Y003977D01*
X002321Y003945D01*
X002341Y003912D01*
X002358Y003876D01*
X002371Y003839D01*
X002380Y003801D01*
X002386Y003762D01*
X002388Y003723D01*
X002386Y003684D01*
X002380Y003645D01*
X002371Y003607D01*
X002358Y003570D01*
X002341Y003534D01*
X002321Y003501D01*
X002297Y003469D01*
X002271Y003440D01*
X002242Y003414D01*
X002210Y003390D01*
X002177Y003370D01*
X002141Y003353D01*
X002104Y003340D01*
X002066Y003331D01*
X002027Y003325D01*
X001988Y003323D01*
X001988Y002723D01*
X009988Y002723D01*
X009988Y001723D01*
X001988Y001723D01*
X001988Y002723D01*
X001988Y004723D02*
X009988Y004723D01*
X009988Y002723D01*
X009988Y004723D02*
X009988Y005723D01*
X026972Y005473D02*
X026972Y001973D01*
X028672Y001973D01*
X028672Y002023D01*
X029272Y002023D01*
X029272Y001973D01*
X031172Y001973D01*
X031172Y002373D01*
X031172Y002473D01*
X027472Y002473D01*
X027472Y004973D01*
X036472Y004973D01*
X036472Y002473D01*
X034772Y002473D01*
X034172Y002473D01*
X032772Y002473D01*
X032772Y002373D01*
X032772Y001973D01*
X031172Y001973D01*
X031172Y002473D02*
X031172Y002773D01*
X032772Y002773D01*
X032772Y002473D01*
X032772Y001973D02*
X033822Y001973D01*
X033972Y002173D01*
X034172Y002173D01*
X034772Y002173D01*
X034772Y002373D01*
X034772Y002473D01*
X034772Y002173D02*
X034972Y002173D01*
X035122Y001973D01*
X036972Y001973D01*
X036972Y005473D01*
X036472Y005473D01*
X036472Y005573D01*
X035972Y005573D01*
X035972Y005473D01*
X032222Y005473D01*
X032222Y005573D01*
X031722Y005573D01*
X031722Y005473D01*
X027972Y005473D01*
X027972Y005573D01*
X027472Y005573D01*
X027472Y005473D01*
X026972Y005473D01*
X034172Y002473D02*
X034172Y002373D01*
X034172Y002173D01*
X038551Y001822D02*
X038551Y002822D01*
X038551Y003422D01*
X038590Y003424D01*
X038629Y003430D01*
X038667Y003439D01*
X038704Y003452D01*
X038740Y003469D01*
X038773Y003489D01*
X038805Y003513D01*
X038834Y003539D01*
X038860Y003568D01*
X038884Y003600D01*
X038904Y003633D01*
X038921Y003669D01*
X038934Y003706D01*
X038943Y003744D01*
X038949Y003783D01*
X038951Y003822D01*
X038949Y003861D01*
X038943Y003900D01*
X038934Y003938D01*
X038921Y003975D01*
X038904Y004011D01*
X038884Y004044D01*
X038860Y004076D01*
X038834Y004105D01*
X038805Y004131D01*
X038773Y004155D01*
X038740Y004175D01*
X038704Y004192D01*
X038667Y004205D01*
X038629Y004214D01*
X038590Y004220D01*
X038551Y004222D01*
X038551Y004822D01*
X046551Y004822D01*
X046551Y002822D01*
X046551Y001822D01*
X038551Y001822D01*
X038551Y002822D02*
X046551Y002822D01*
X046551Y004822D02*
X046551Y005822D01*
X038551Y005822D01*
X038551Y004822D01*
D14*
X038426Y002964D02*
X038426Y002664D01*
X038126Y002964D01*
X038051Y002964D01*
X037976Y002889D01*
X037976Y002739D01*
X038051Y002664D01*
X038051Y002504D02*
X037976Y002429D01*
X037976Y002279D01*
X038051Y002204D01*
X038351Y002204D01*
X038426Y002279D01*
X038426Y002429D01*
X038351Y002504D01*
X038426Y002047D02*
X038426Y001897D01*
X038426Y001972D02*
X037976Y001972D01*
X037976Y001897D02*
X037976Y002047D01*
X032358Y002373D02*
X032058Y002373D01*
X032283Y002599D01*
X032283Y002148D01*
X031898Y002148D02*
X031597Y002148D01*
X031748Y002148D02*
X031748Y002599D01*
X031597Y002449D01*
X028298Y002998D02*
X027997Y002998D01*
X028148Y002998D02*
X028148Y003449D01*
X027997Y003299D01*
X027997Y003998D02*
X028298Y004299D01*
X028298Y004374D01*
X028223Y004449D01*
X028073Y004449D01*
X027997Y004374D01*
X027997Y003998D02*
X028298Y003998D01*
X025746Y007859D02*
X025446Y007859D01*
X025596Y007859D02*
X025596Y008309D01*
X025446Y008159D01*
X025285Y008234D02*
X025285Y008084D01*
X025210Y008009D01*
X024985Y008009D01*
X024985Y007859D02*
X024985Y008309D01*
X025210Y008309D01*
X025285Y008234D01*
X024825Y008234D02*
X024750Y008309D01*
X024600Y008309D01*
X024525Y008234D01*
X024525Y008159D01*
X024600Y008084D01*
X024750Y008084D01*
X024825Y008009D01*
X024825Y007934D01*
X024750Y007859D01*
X024600Y007859D01*
X024525Y007934D01*
X024365Y007859D02*
X024064Y007859D01*
X024064Y008309D01*
X025791Y012936D02*
X025791Y018133D01*
X030280Y018133D01*
X030280Y012936D01*
X025791Y012936D01*
X026854Y015534D02*
X026856Y015603D01*
X026862Y015671D01*
X026872Y015739D01*
X026886Y015806D01*
X026904Y015873D01*
X026925Y015938D01*
X026951Y016002D01*
X026980Y016064D01*
X027012Y016124D01*
X027048Y016183D01*
X027088Y016239D01*
X027130Y016293D01*
X027176Y016344D01*
X027225Y016393D01*
X027276Y016439D01*
X027330Y016481D01*
X027386Y016521D01*
X027444Y016557D01*
X027505Y016589D01*
X027567Y016618D01*
X027631Y016644D01*
X027696Y016665D01*
X027763Y016683D01*
X027830Y016697D01*
X027898Y016707D01*
X027966Y016713D01*
X028035Y016715D01*
X028104Y016713D01*
X028172Y016707D01*
X028240Y016697D01*
X028307Y016683D01*
X028374Y016665D01*
X028439Y016644D01*
X028503Y016618D01*
X028565Y016589D01*
X028625Y016557D01*
X028684Y016521D01*
X028740Y016481D01*
X028794Y016439D01*
X028845Y016393D01*
X028894Y016344D01*
X028940Y016293D01*
X028982Y016239D01*
X029022Y016183D01*
X029058Y016124D01*
X029090Y016064D01*
X029119Y016002D01*
X029145Y015938D01*
X029166Y015873D01*
X029184Y015806D01*
X029198Y015739D01*
X029208Y015671D01*
X029214Y015603D01*
X029216Y015534D01*
X029214Y015465D01*
X029208Y015397D01*
X029198Y015329D01*
X029184Y015262D01*
X029166Y015195D01*
X029145Y015130D01*
X029119Y015066D01*
X029090Y015004D01*
X029058Y014943D01*
X029022Y014885D01*
X028982Y014829D01*
X028940Y014775D01*
X028894Y014724D01*
X028845Y014675D01*
X028794Y014629D01*
X028740Y014587D01*
X028684Y014547D01*
X028626Y014511D01*
X028565Y014479D01*
X028503Y014450D01*
X028439Y014424D01*
X028374Y014403D01*
X028307Y014385D01*
X028240Y014371D01*
X028172Y014361D01*
X028104Y014355D01*
X028035Y014353D01*
X027966Y014355D01*
X027898Y014361D01*
X027830Y014371D01*
X027763Y014385D01*
X027696Y014403D01*
X027631Y014424D01*
X027567Y014450D01*
X027505Y014479D01*
X027444Y014511D01*
X027386Y014547D01*
X027330Y014587D01*
X027276Y014629D01*
X027225Y014675D01*
X027176Y014724D01*
X027130Y014775D01*
X027088Y014829D01*
X027048Y014885D01*
X027012Y014943D01*
X026980Y015004D01*
X026951Y015066D01*
X026925Y015130D01*
X026904Y015195D01*
X026886Y015262D01*
X026872Y015329D01*
X026862Y015397D01*
X026856Y015465D01*
X026854Y015534D01*
X027012Y016125D02*
X029059Y016125D01*
X037602Y018133D02*
X037602Y012936D01*
X042091Y012936D01*
X042091Y018133D01*
X037602Y018133D01*
X038823Y016125D02*
X040870Y016125D01*
X038666Y015534D02*
X038668Y015603D01*
X038674Y015671D01*
X038684Y015739D01*
X038698Y015806D01*
X038716Y015873D01*
X038737Y015938D01*
X038763Y016002D01*
X038792Y016064D01*
X038824Y016124D01*
X038860Y016183D01*
X038900Y016239D01*
X038942Y016293D01*
X038988Y016344D01*
X039037Y016393D01*
X039088Y016439D01*
X039142Y016481D01*
X039198Y016521D01*
X039256Y016557D01*
X039317Y016589D01*
X039379Y016618D01*
X039443Y016644D01*
X039508Y016665D01*
X039575Y016683D01*
X039642Y016697D01*
X039710Y016707D01*
X039778Y016713D01*
X039847Y016715D01*
X039916Y016713D01*
X039984Y016707D01*
X040052Y016697D01*
X040119Y016683D01*
X040186Y016665D01*
X040251Y016644D01*
X040315Y016618D01*
X040377Y016589D01*
X040437Y016557D01*
X040496Y016521D01*
X040552Y016481D01*
X040606Y016439D01*
X040657Y016393D01*
X040706Y016344D01*
X040752Y016293D01*
X040794Y016239D01*
X040834Y016183D01*
X040870Y016124D01*
X040902Y016064D01*
X040931Y016002D01*
X040957Y015938D01*
X040978Y015873D01*
X040996Y015806D01*
X041010Y015739D01*
X041020Y015671D01*
X041026Y015603D01*
X041028Y015534D01*
X041026Y015465D01*
X041020Y015397D01*
X041010Y015329D01*
X040996Y015262D01*
X040978Y015195D01*
X040957Y015130D01*
X040931Y015066D01*
X040902Y015004D01*
X040870Y014943D01*
X040834Y014885D01*
X040794Y014829D01*
X040752Y014775D01*
X040706Y014724D01*
X040657Y014675D01*
X040606Y014629D01*
X040552Y014587D01*
X040496Y014547D01*
X040438Y014511D01*
X040377Y014479D01*
X040315Y014450D01*
X040251Y014424D01*
X040186Y014403D01*
X040119Y014385D01*
X040052Y014371D01*
X039984Y014361D01*
X039916Y014355D01*
X039847Y014353D01*
X039778Y014355D01*
X039710Y014361D01*
X039642Y014371D01*
X039575Y014385D01*
X039508Y014403D01*
X039443Y014424D01*
X039379Y014450D01*
X039317Y014479D01*
X039256Y014511D01*
X039198Y014547D01*
X039142Y014587D01*
X039088Y014629D01*
X039037Y014675D01*
X038988Y014724D01*
X038942Y014775D01*
X038900Y014829D01*
X038860Y014885D01*
X038824Y014943D01*
X038792Y015004D01*
X038763Y015066D01*
X038737Y015130D01*
X038716Y015195D01*
X038698Y015262D01*
X038684Y015329D01*
X038674Y015397D01*
X038668Y015465D01*
X038666Y015534D01*
X037602Y024747D02*
X037602Y029944D01*
X042091Y029944D01*
X042091Y024747D01*
X037602Y024747D01*
X038666Y027345D02*
X038668Y027414D01*
X038674Y027482D01*
X038684Y027550D01*
X038698Y027617D01*
X038716Y027684D01*
X038737Y027749D01*
X038763Y027813D01*
X038792Y027875D01*
X038824Y027935D01*
X038860Y027994D01*
X038900Y028050D01*
X038942Y028104D01*
X038988Y028155D01*
X039037Y028204D01*
X039088Y028250D01*
X039142Y028292D01*
X039198Y028332D01*
X039256Y028368D01*
X039317Y028400D01*
X039379Y028429D01*
X039443Y028455D01*
X039508Y028476D01*
X039575Y028494D01*
X039642Y028508D01*
X039710Y028518D01*
X039778Y028524D01*
X039847Y028526D01*
X039916Y028524D01*
X039984Y028518D01*
X040052Y028508D01*
X040119Y028494D01*
X040186Y028476D01*
X040251Y028455D01*
X040315Y028429D01*
X040377Y028400D01*
X040437Y028368D01*
X040496Y028332D01*
X040552Y028292D01*
X040606Y028250D01*
X040657Y028204D01*
X040706Y028155D01*
X040752Y028104D01*
X040794Y028050D01*
X040834Y027994D01*
X040870Y027935D01*
X040902Y027875D01*
X040931Y027813D01*
X040957Y027749D01*
X040978Y027684D01*
X040996Y027617D01*
X041010Y027550D01*
X041020Y027482D01*
X041026Y027414D01*
X041028Y027345D01*
X041026Y027276D01*
X041020Y027208D01*
X041010Y027140D01*
X040996Y027073D01*
X040978Y027006D01*
X040957Y026941D01*
X040931Y026877D01*
X040902Y026815D01*
X040870Y026754D01*
X040834Y026696D01*
X040794Y026640D01*
X040752Y026586D01*
X040706Y026535D01*
X040657Y026486D01*
X040606Y026440D01*
X040552Y026398D01*
X040496Y026358D01*
X040438Y026322D01*
X040377Y026290D01*
X040315Y026261D01*
X040251Y026235D01*
X040186Y026214D01*
X040119Y026196D01*
X040052Y026182D01*
X039984Y026172D01*
X039916Y026166D01*
X039847Y026164D01*
X039778Y026166D01*
X039710Y026172D01*
X039642Y026182D01*
X039575Y026196D01*
X039508Y026214D01*
X039443Y026235D01*
X039379Y026261D01*
X039317Y026290D01*
X039256Y026322D01*
X039198Y026358D01*
X039142Y026398D01*
X039088Y026440D01*
X039037Y026486D01*
X038988Y026535D01*
X038942Y026586D01*
X038900Y026640D01*
X038860Y026696D01*
X038824Y026754D01*
X038792Y026815D01*
X038763Y026877D01*
X038737Y026941D01*
X038716Y027006D01*
X038698Y027073D01*
X038684Y027140D01*
X038674Y027208D01*
X038668Y027276D01*
X038666Y027345D01*
X038823Y027936D02*
X040870Y027936D01*
X030280Y029944D02*
X030280Y024747D01*
X025791Y024747D01*
X025791Y029944D01*
X030280Y029944D01*
X029059Y027936D02*
X027012Y027936D01*
X026854Y027345D02*
X026856Y027414D01*
X026862Y027482D01*
X026872Y027550D01*
X026886Y027617D01*
X026904Y027684D01*
X026925Y027749D01*
X026951Y027813D01*
X026980Y027875D01*
X027012Y027935D01*
X027048Y027994D01*
X027088Y028050D01*
X027130Y028104D01*
X027176Y028155D01*
X027225Y028204D01*
X027276Y028250D01*
X027330Y028292D01*
X027386Y028332D01*
X027444Y028368D01*
X027505Y028400D01*
X027567Y028429D01*
X027631Y028455D01*
X027696Y028476D01*
X027763Y028494D01*
X027830Y028508D01*
X027898Y028518D01*
X027966Y028524D01*
X028035Y028526D01*
X028104Y028524D01*
X028172Y028518D01*
X028240Y028508D01*
X028307Y028494D01*
X028374Y028476D01*
X028439Y028455D01*
X028503Y028429D01*
X028565Y028400D01*
X028625Y028368D01*
X028684Y028332D01*
X028740Y028292D01*
X028794Y028250D01*
X028845Y028204D01*
X028894Y028155D01*
X028940Y028104D01*
X028982Y028050D01*
X029022Y027994D01*
X029058Y027935D01*
X029090Y027875D01*
X029119Y027813D01*
X029145Y027749D01*
X029166Y027684D01*
X029184Y027617D01*
X029198Y027550D01*
X029208Y027482D01*
X029214Y027414D01*
X029216Y027345D01*
X029214Y027276D01*
X029208Y027208D01*
X029198Y027140D01*
X029184Y027073D01*
X029166Y027006D01*
X029145Y026941D01*
X029119Y026877D01*
X029090Y026815D01*
X029058Y026754D01*
X029022Y026696D01*
X028982Y026640D01*
X028940Y026586D01*
X028894Y026535D01*
X028845Y026486D01*
X028794Y026440D01*
X028740Y026398D01*
X028684Y026358D01*
X028626Y026322D01*
X028565Y026290D01*
X028503Y026261D01*
X028439Y026235D01*
X028374Y026214D01*
X028307Y026196D01*
X028240Y026182D01*
X028172Y026172D01*
X028104Y026166D01*
X028035Y026164D01*
X027966Y026166D01*
X027898Y026172D01*
X027830Y026182D01*
X027763Y026196D01*
X027696Y026214D01*
X027631Y026235D01*
X027567Y026261D01*
X027505Y026290D01*
X027444Y026322D01*
X027386Y026358D01*
X027330Y026398D01*
X027276Y026440D01*
X027225Y026486D01*
X027176Y026535D01*
X027130Y026586D01*
X027088Y026640D01*
X027048Y026696D01*
X027012Y026754D01*
X026980Y026815D01*
X026951Y026877D01*
X026925Y026941D01*
X026904Y027006D01*
X026886Y027073D01*
X026872Y027140D01*
X026862Y027208D01*
X026856Y027276D01*
X026854Y027345D01*
X018469Y024747D02*
X018469Y029944D01*
X013980Y029944D01*
X013980Y024747D01*
X018469Y024747D01*
X015043Y027345D02*
X015045Y027414D01*
X015051Y027482D01*
X015061Y027550D01*
X015075Y027617D01*
X015093Y027684D01*
X015114Y027749D01*
X015140Y027813D01*
X015169Y027875D01*
X015201Y027935D01*
X015237Y027994D01*
X015277Y028050D01*
X015319Y028104D01*
X015365Y028155D01*
X015414Y028204D01*
X015465Y028250D01*
X015519Y028292D01*
X015575Y028332D01*
X015633Y028368D01*
X015694Y028400D01*
X015756Y028429D01*
X015820Y028455D01*
X015885Y028476D01*
X015952Y028494D01*
X016019Y028508D01*
X016087Y028518D01*
X016155Y028524D01*
X016224Y028526D01*
X016293Y028524D01*
X016361Y028518D01*
X016429Y028508D01*
X016496Y028494D01*
X016563Y028476D01*
X016628Y028455D01*
X016692Y028429D01*
X016754Y028400D01*
X016814Y028368D01*
X016873Y028332D01*
X016929Y028292D01*
X016983Y028250D01*
X017034Y028204D01*
X017083Y028155D01*
X017129Y028104D01*
X017171Y028050D01*
X017211Y027994D01*
X017247Y027935D01*
X017279Y027875D01*
X017308Y027813D01*
X017334Y027749D01*
X017355Y027684D01*
X017373Y027617D01*
X017387Y027550D01*
X017397Y027482D01*
X017403Y027414D01*
X017405Y027345D01*
X017403Y027276D01*
X017397Y027208D01*
X017387Y027140D01*
X017373Y027073D01*
X017355Y027006D01*
X017334Y026941D01*
X017308Y026877D01*
X017279Y026815D01*
X017247Y026754D01*
X017211Y026696D01*
X017171Y026640D01*
X017129Y026586D01*
X017083Y026535D01*
X017034Y026486D01*
X016983Y026440D01*
X016929Y026398D01*
X016873Y026358D01*
X016815Y026322D01*
X016754Y026290D01*
X016692Y026261D01*
X016628Y026235D01*
X016563Y026214D01*
X016496Y026196D01*
X016429Y026182D01*
X016361Y026172D01*
X016293Y026166D01*
X016224Y026164D01*
X016155Y026166D01*
X016087Y026172D01*
X016019Y026182D01*
X015952Y026196D01*
X015885Y026214D01*
X015820Y026235D01*
X015756Y026261D01*
X015694Y026290D01*
X015633Y026322D01*
X015575Y026358D01*
X015519Y026398D01*
X015465Y026440D01*
X015414Y026486D01*
X015365Y026535D01*
X015319Y026586D01*
X015277Y026640D01*
X015237Y026696D01*
X015201Y026754D01*
X015169Y026815D01*
X015140Y026877D01*
X015114Y026941D01*
X015093Y027006D01*
X015075Y027073D01*
X015061Y027140D01*
X015051Y027208D01*
X015045Y027276D01*
X015043Y027345D01*
X015201Y027936D02*
X017248Y027936D01*
X006658Y029944D02*
X006658Y024747D01*
X002169Y024747D01*
X002169Y029944D01*
X006658Y029944D01*
X005437Y027936D02*
X003390Y027936D01*
X003232Y027345D02*
X003234Y027414D01*
X003240Y027482D01*
X003250Y027550D01*
X003264Y027617D01*
X003282Y027684D01*
X003303Y027749D01*
X003329Y027813D01*
X003358Y027875D01*
X003390Y027935D01*
X003426Y027994D01*
X003466Y028050D01*
X003508Y028104D01*
X003554Y028155D01*
X003603Y028204D01*
X003654Y028250D01*
X003708Y028292D01*
X003764Y028332D01*
X003822Y028368D01*
X003883Y028400D01*
X003945Y028429D01*
X004009Y028455D01*
X004074Y028476D01*
X004141Y028494D01*
X004208Y028508D01*
X004276Y028518D01*
X004344Y028524D01*
X004413Y028526D01*
X004482Y028524D01*
X004550Y028518D01*
X004618Y028508D01*
X004685Y028494D01*
X004752Y028476D01*
X004817Y028455D01*
X004881Y028429D01*
X004943Y028400D01*
X005003Y028368D01*
X005062Y028332D01*
X005118Y028292D01*
X005172Y028250D01*
X005223Y028204D01*
X005272Y028155D01*
X005318Y028104D01*
X005360Y028050D01*
X005400Y027994D01*
X005436Y027935D01*
X005468Y027875D01*
X005497Y027813D01*
X005523Y027749D01*
X005544Y027684D01*
X005562Y027617D01*
X005576Y027550D01*
X005586Y027482D01*
X005592Y027414D01*
X005594Y027345D01*
X005592Y027276D01*
X005586Y027208D01*
X005576Y027140D01*
X005562Y027073D01*
X005544Y027006D01*
X005523Y026941D01*
X005497Y026877D01*
X005468Y026815D01*
X005436Y026754D01*
X005400Y026696D01*
X005360Y026640D01*
X005318Y026586D01*
X005272Y026535D01*
X005223Y026486D01*
X005172Y026440D01*
X005118Y026398D01*
X005062Y026358D01*
X005004Y026322D01*
X004943Y026290D01*
X004881Y026261D01*
X004817Y026235D01*
X004752Y026214D01*
X004685Y026196D01*
X004618Y026182D01*
X004550Y026172D01*
X004482Y026166D01*
X004413Y026164D01*
X004344Y026166D01*
X004276Y026172D01*
X004208Y026182D01*
X004141Y026196D01*
X004074Y026214D01*
X004009Y026235D01*
X003945Y026261D01*
X003883Y026290D01*
X003822Y026322D01*
X003764Y026358D01*
X003708Y026398D01*
X003654Y026440D01*
X003603Y026486D01*
X003554Y026535D01*
X003508Y026586D01*
X003466Y026640D01*
X003426Y026696D01*
X003390Y026754D01*
X003358Y026815D01*
X003329Y026877D01*
X003303Y026941D01*
X003282Y027006D01*
X003264Y027073D01*
X003250Y027140D01*
X003240Y027208D01*
X003234Y027276D01*
X003232Y027345D01*
X002169Y018133D02*
X002169Y012936D01*
X006658Y012936D01*
X006658Y018133D01*
X002169Y018133D01*
X003390Y016125D02*
X005437Y016125D01*
X003232Y015534D02*
X003234Y015603D01*
X003240Y015671D01*
X003250Y015739D01*
X003264Y015806D01*
X003282Y015873D01*
X003303Y015938D01*
X003329Y016002D01*
X003358Y016064D01*
X003390Y016124D01*
X003426Y016183D01*
X003466Y016239D01*
X003508Y016293D01*
X003554Y016344D01*
X003603Y016393D01*
X003654Y016439D01*
X003708Y016481D01*
X003764Y016521D01*
X003822Y016557D01*
X003883Y016589D01*
X003945Y016618D01*
X004009Y016644D01*
X004074Y016665D01*
X004141Y016683D01*
X004208Y016697D01*
X004276Y016707D01*
X004344Y016713D01*
X004413Y016715D01*
X004482Y016713D01*
X004550Y016707D01*
X004618Y016697D01*
X004685Y016683D01*
X004752Y016665D01*
X004817Y016644D01*
X004881Y016618D01*
X004943Y016589D01*
X005003Y016557D01*
X005062Y016521D01*
X005118Y016481D01*
X005172Y016439D01*
X005223Y016393D01*
X005272Y016344D01*
X005318Y016293D01*
X005360Y016239D01*
X005400Y016183D01*
X005436Y016124D01*
X005468Y016064D01*
X005497Y016002D01*
X005523Y015938D01*
X005544Y015873D01*
X005562Y015806D01*
X005576Y015739D01*
X005586Y015671D01*
X005592Y015603D01*
X005594Y015534D01*
X005592Y015465D01*
X005586Y015397D01*
X005576Y015329D01*
X005562Y015262D01*
X005544Y015195D01*
X005523Y015130D01*
X005497Y015066D01*
X005468Y015004D01*
X005436Y014943D01*
X005400Y014885D01*
X005360Y014829D01*
X005318Y014775D01*
X005272Y014724D01*
X005223Y014675D01*
X005172Y014629D01*
X005118Y014587D01*
X005062Y014547D01*
X005004Y014511D01*
X004943Y014479D01*
X004881Y014450D01*
X004817Y014424D01*
X004752Y014403D01*
X004685Y014385D01*
X004618Y014371D01*
X004550Y014361D01*
X004482Y014355D01*
X004413Y014353D01*
X004344Y014355D01*
X004276Y014361D01*
X004208Y014371D01*
X004141Y014385D01*
X004074Y014403D01*
X004009Y014424D01*
X003945Y014450D01*
X003883Y014479D01*
X003822Y014511D01*
X003764Y014547D01*
X003708Y014587D01*
X003654Y014629D01*
X003603Y014675D01*
X003554Y014724D01*
X003508Y014775D01*
X003466Y014829D01*
X003426Y014885D01*
X003390Y014943D01*
X003358Y015004D01*
X003329Y015066D01*
X003303Y015130D01*
X003282Y015195D01*
X003264Y015262D01*
X003250Y015329D01*
X003240Y015397D01*
X003234Y015465D01*
X003232Y015534D01*
X013980Y018133D02*
X013980Y012936D01*
X018469Y012936D01*
X018469Y018133D01*
X013980Y018133D01*
X015201Y016125D02*
X017248Y016125D01*
X015043Y015534D02*
X015045Y015603D01*
X015051Y015671D01*
X015061Y015739D01*
X015075Y015806D01*
X015093Y015873D01*
X015114Y015938D01*
X015140Y016002D01*
X015169Y016064D01*
X015201Y016124D01*
X015237Y016183D01*
X015277Y016239D01*
X015319Y016293D01*
X015365Y016344D01*
X015414Y016393D01*
X015465Y016439D01*
X015519Y016481D01*
X015575Y016521D01*
X015633Y016557D01*
X015694Y016589D01*
X015756Y016618D01*
X015820Y016644D01*
X015885Y016665D01*
X015952Y016683D01*
X016019Y016697D01*
X016087Y016707D01*
X016155Y016713D01*
X016224Y016715D01*
X016293Y016713D01*
X016361Y016707D01*
X016429Y016697D01*
X016496Y016683D01*
X016563Y016665D01*
X016628Y016644D01*
X016692Y016618D01*
X016754Y016589D01*
X016814Y016557D01*
X016873Y016521D01*
X016929Y016481D01*
X016983Y016439D01*
X017034Y016393D01*
X017083Y016344D01*
X017129Y016293D01*
X017171Y016239D01*
X017211Y016183D01*
X017247Y016124D01*
X017279Y016064D01*
X017308Y016002D01*
X017334Y015938D01*
X017355Y015873D01*
X017373Y015806D01*
X017387Y015739D01*
X017397Y015671D01*
X017403Y015603D01*
X017405Y015534D01*
X017403Y015465D01*
X017397Y015397D01*
X017387Y015329D01*
X017373Y015262D01*
X017355Y015195D01*
X017334Y015130D01*
X017308Y015066D01*
X017279Y015004D01*
X017247Y014943D01*
X017211Y014885D01*
X017171Y014829D01*
X017129Y014775D01*
X017083Y014724D01*
X017034Y014675D01*
X016983Y014629D01*
X016929Y014587D01*
X016873Y014547D01*
X016815Y014511D01*
X016754Y014479D01*
X016692Y014450D01*
X016628Y014424D01*
X016563Y014403D01*
X016496Y014385D01*
X016429Y014371D01*
X016361Y014361D01*
X016293Y014355D01*
X016224Y014353D01*
X016155Y014355D01*
X016087Y014361D01*
X016019Y014371D01*
X015952Y014385D01*
X015885Y014403D01*
X015820Y014424D01*
X015756Y014450D01*
X015694Y014479D01*
X015633Y014511D01*
X015575Y014547D01*
X015519Y014587D01*
X015465Y014629D01*
X015414Y014675D01*
X015365Y014724D01*
X015319Y014775D01*
X015277Y014829D01*
X015237Y014885D01*
X015201Y014943D01*
X015169Y015004D01*
X015140Y015066D01*
X015114Y015130D01*
X015093Y015195D01*
X015075Y015262D01*
X015061Y015329D01*
X015051Y015397D01*
X015045Y015465D01*
X015043Y015534D01*
X001863Y002866D02*
X001863Y002566D01*
X001863Y002716D02*
X001413Y002716D01*
X001563Y002566D01*
X001488Y002405D02*
X001413Y002330D01*
X001413Y002180D01*
X001488Y002105D01*
X001788Y002105D01*
X001863Y002180D01*
X001863Y002330D01*
X001788Y002405D01*
X001863Y001948D02*
X001863Y001798D01*
X001863Y001873D02*
X001413Y001873D01*
X001413Y001798D02*
X001413Y001948D01*
D15*
X006835Y007660D02*
X006382Y008113D01*
X006382Y008448D01*
X006835Y007660D02*
X010654Y007660D01*
X011106Y008113D01*
X011106Y008448D01*
X010713Y008448D01*
X010713Y009629D01*
X011106Y009629D01*
X011106Y010416D01*
X010713Y010416D01*
X010713Y011597D01*
X011106Y011597D01*
X011106Y011932D01*
X010654Y012385D01*
X006835Y012385D01*
X006382Y011932D01*
X006382Y011597D01*
X006382Y010416D02*
X006382Y009629D01*
X007366Y010023D02*
X007368Y010097D01*
X007374Y010171D01*
X007384Y010244D01*
X007398Y010317D01*
X007415Y010389D01*
X007437Y010459D01*
X007462Y010529D01*
X007491Y010597D01*
X007524Y010663D01*
X007560Y010728D01*
X007600Y010790D01*
X007642Y010851D01*
X007688Y010909D01*
X007737Y010964D01*
X007789Y011017D01*
X007844Y011067D01*
X007901Y011113D01*
X007961Y011157D01*
X008023Y011197D01*
X008087Y011234D01*
X008153Y011268D01*
X008221Y011298D01*
X008290Y011324D01*
X008361Y011347D01*
X008432Y011365D01*
X008505Y011380D01*
X008578Y011391D01*
X008652Y011398D01*
X008726Y011401D01*
X008799Y011400D01*
X008873Y011395D01*
X008947Y011386D01*
X009020Y011373D01*
X009092Y011356D01*
X009163Y011336D01*
X009233Y011311D01*
X009301Y011283D01*
X009368Y011252D01*
X009433Y011216D01*
X009496Y011178D01*
X009557Y011136D01*
X009616Y011090D01*
X009672Y011042D01*
X009725Y010991D01*
X009775Y010937D01*
X009823Y010880D01*
X009867Y010821D01*
X009909Y010759D01*
X009947Y010696D01*
X009981Y010630D01*
X010012Y010563D01*
X010039Y010494D01*
X010062Y010424D01*
X010082Y010353D01*
X010098Y010280D01*
X010110Y010207D01*
X010118Y010134D01*
X010122Y010060D01*
X010122Y009986D01*
X010118Y009912D01*
X010110Y009839D01*
X010098Y009766D01*
X010082Y009693D01*
X010062Y009622D01*
X010039Y009552D01*
X010012Y009483D01*
X009981Y009416D01*
X009947Y009350D01*
X009909Y009287D01*
X009867Y009225D01*
X009823Y009166D01*
X009775Y009109D01*
X009725Y009055D01*
X009672Y009004D01*
X009616Y008956D01*
X009557Y008910D01*
X009496Y008868D01*
X009433Y008830D01*
X009368Y008794D01*
X009301Y008763D01*
X009233Y008735D01*
X009163Y008710D01*
X009092Y008690D01*
X009020Y008673D01*
X008947Y008660D01*
X008873Y008651D01*
X008799Y008646D01*
X008726Y008645D01*
X008652Y008648D01*
X008578Y008655D01*
X008505Y008666D01*
X008432Y008681D01*
X008361Y008699D01*
X008290Y008722D01*
X008221Y008748D01*
X008153Y008778D01*
X008087Y008812D01*
X008023Y008849D01*
X007961Y008889D01*
X007901Y008933D01*
X007844Y008979D01*
X007789Y009029D01*
X007737Y009082D01*
X007688Y009137D01*
X007642Y009195D01*
X007600Y009256D01*
X007560Y009318D01*
X007524Y009383D01*
X007491Y009449D01*
X007462Y009517D01*
X007437Y009587D01*
X007415Y009657D01*
X007398Y009729D01*
X007384Y009802D01*
X007374Y009875D01*
X007368Y009949D01*
X007366Y010023D01*
X011193Y004923D02*
X011293Y004923D01*
X011193Y004923D02*
X011193Y004223D01*
X011237Y004221D01*
X011280Y004215D01*
X011322Y004206D01*
X011364Y004193D01*
X011404Y004176D01*
X011443Y004156D01*
X011480Y004133D01*
X011514Y004106D01*
X011547Y004077D01*
X011576Y004044D01*
X011603Y004010D01*
X011626Y003973D01*
X011646Y003934D01*
X011663Y003894D01*
X011676Y003852D01*
X011685Y003810D01*
X011691Y003767D01*
X011693Y003723D01*
X011691Y003679D01*
X011685Y003636D01*
X011676Y003594D01*
X011663Y003552D01*
X011646Y003512D01*
X011626Y003473D01*
X011603Y003436D01*
X011576Y003402D01*
X011547Y003369D01*
X011514Y003340D01*
X011480Y003313D01*
X011443Y003290D01*
X011404Y003270D01*
X011364Y003253D01*
X011322Y003240D01*
X011280Y003231D01*
X011237Y003225D01*
X011193Y003223D01*
X011193Y002523D01*
X011293Y002523D01*
X018193Y008113D02*
X018646Y007660D01*
X022465Y007660D01*
X022917Y008113D01*
X022917Y008448D01*
X022524Y008448D01*
X022524Y009629D01*
X022917Y009629D01*
X022917Y010416D01*
X022524Y010416D01*
X022524Y011597D01*
X022917Y011597D01*
X022917Y011932D01*
X022465Y012385D01*
X018646Y012385D01*
X018193Y011932D01*
X018193Y011597D01*
X018193Y010416D02*
X018193Y009629D01*
X018193Y008448D02*
X018193Y008113D01*
X019177Y010023D02*
X019179Y010097D01*
X019185Y010171D01*
X019195Y010244D01*
X019209Y010317D01*
X019226Y010389D01*
X019248Y010459D01*
X019273Y010529D01*
X019302Y010597D01*
X019335Y010663D01*
X019371Y010728D01*
X019411Y010790D01*
X019453Y010851D01*
X019499Y010909D01*
X019548Y010964D01*
X019600Y011017D01*
X019655Y011067D01*
X019712Y011113D01*
X019772Y011157D01*
X019834Y011197D01*
X019898Y011234D01*
X019964Y011268D01*
X020032Y011298D01*
X020101Y011324D01*
X020172Y011347D01*
X020243Y011365D01*
X020316Y011380D01*
X020389Y011391D01*
X020463Y011398D01*
X020537Y011401D01*
X020610Y011400D01*
X020684Y011395D01*
X020758Y011386D01*
X020831Y011373D01*
X020903Y011356D01*
X020974Y011336D01*
X021044Y011311D01*
X021112Y011283D01*
X021179Y011252D01*
X021244Y011216D01*
X021307Y011178D01*
X021368Y011136D01*
X021427Y011090D01*
X021483Y011042D01*
X021536Y010991D01*
X021586Y010937D01*
X021634Y010880D01*
X021678Y010821D01*
X021720Y010759D01*
X021758Y010696D01*
X021792Y010630D01*
X021823Y010563D01*
X021850Y010494D01*
X021873Y010424D01*
X021893Y010353D01*
X021909Y010280D01*
X021921Y010207D01*
X021929Y010134D01*
X021933Y010060D01*
X021933Y009986D01*
X021929Y009912D01*
X021921Y009839D01*
X021909Y009766D01*
X021893Y009693D01*
X021873Y009622D01*
X021850Y009552D01*
X021823Y009483D01*
X021792Y009416D01*
X021758Y009350D01*
X021720Y009287D01*
X021678Y009225D01*
X021634Y009166D01*
X021586Y009109D01*
X021536Y009055D01*
X021483Y009004D01*
X021427Y008956D01*
X021368Y008910D01*
X021307Y008868D01*
X021244Y008830D01*
X021179Y008794D01*
X021112Y008763D01*
X021044Y008735D01*
X020974Y008710D01*
X020903Y008690D01*
X020831Y008673D01*
X020758Y008660D01*
X020684Y008651D01*
X020610Y008646D01*
X020537Y008645D01*
X020463Y008648D01*
X020389Y008655D01*
X020316Y008666D01*
X020243Y008681D01*
X020172Y008699D01*
X020101Y008722D01*
X020032Y008748D01*
X019964Y008778D01*
X019898Y008812D01*
X019834Y008849D01*
X019772Y008889D01*
X019712Y008933D01*
X019655Y008979D01*
X019600Y009029D01*
X019548Y009082D01*
X019499Y009137D01*
X019453Y009195D01*
X019411Y009256D01*
X019371Y009318D01*
X019335Y009383D01*
X019302Y009449D01*
X019273Y009517D01*
X019248Y009587D01*
X019226Y009657D01*
X019209Y009729D01*
X019195Y009802D01*
X019185Y009875D01*
X019179Y009949D01*
X019177Y010023D01*
X025093Y004923D02*
X025193Y004923D01*
X025193Y002523D01*
X025093Y002523D01*
X030457Y007660D02*
X030004Y008113D01*
X030004Y008448D01*
X030457Y007660D02*
X034276Y007660D01*
X034728Y008113D01*
X034728Y008448D01*
X034335Y008448D01*
X034335Y009629D01*
X034728Y009629D01*
X034728Y010416D01*
X034335Y010416D01*
X034335Y011597D01*
X034728Y011597D01*
X034728Y011932D01*
X034276Y012385D01*
X030457Y012385D01*
X030004Y011932D01*
X030004Y011597D01*
X030004Y010416D02*
X030004Y009629D01*
X030988Y010023D02*
X030990Y010097D01*
X030996Y010171D01*
X031006Y010244D01*
X031020Y010317D01*
X031037Y010389D01*
X031059Y010459D01*
X031084Y010529D01*
X031113Y010597D01*
X031146Y010663D01*
X031182Y010728D01*
X031222Y010790D01*
X031264Y010851D01*
X031310Y010909D01*
X031359Y010964D01*
X031411Y011017D01*
X031466Y011067D01*
X031523Y011113D01*
X031583Y011157D01*
X031645Y011197D01*
X031709Y011234D01*
X031775Y011268D01*
X031843Y011298D01*
X031912Y011324D01*
X031983Y011347D01*
X032054Y011365D01*
X032127Y011380D01*
X032200Y011391D01*
X032274Y011398D01*
X032348Y011401D01*
X032421Y011400D01*
X032495Y011395D01*
X032569Y011386D01*
X032642Y011373D01*
X032714Y011356D01*
X032785Y011336D01*
X032855Y011311D01*
X032923Y011283D01*
X032990Y011252D01*
X033055Y011216D01*
X033118Y011178D01*
X033179Y011136D01*
X033238Y011090D01*
X033294Y011042D01*
X033347Y010991D01*
X033397Y010937D01*
X033445Y010880D01*
X033489Y010821D01*
X033531Y010759D01*
X033569Y010696D01*
X033603Y010630D01*
X033634Y010563D01*
X033661Y010494D01*
X033684Y010424D01*
X033704Y010353D01*
X033720Y010280D01*
X033732Y010207D01*
X033740Y010134D01*
X033744Y010060D01*
X033744Y009986D01*
X033740Y009912D01*
X033732Y009839D01*
X033720Y009766D01*
X033704Y009693D01*
X033684Y009622D01*
X033661Y009552D01*
X033634Y009483D01*
X033603Y009416D01*
X033569Y009350D01*
X033531Y009287D01*
X033489Y009225D01*
X033445Y009166D01*
X033397Y009109D01*
X033347Y009055D01*
X033294Y009004D01*
X033238Y008956D01*
X033179Y008910D01*
X033118Y008868D01*
X033055Y008830D01*
X032990Y008794D01*
X032923Y008763D01*
X032855Y008735D01*
X032785Y008710D01*
X032714Y008690D01*
X032642Y008673D01*
X032569Y008660D01*
X032495Y008651D01*
X032421Y008646D01*
X032348Y008645D01*
X032274Y008648D01*
X032200Y008655D01*
X032127Y008666D01*
X032054Y008681D01*
X031983Y008699D01*
X031912Y008722D01*
X031843Y008748D01*
X031775Y008778D01*
X031709Y008812D01*
X031645Y008849D01*
X031583Y008889D01*
X031523Y008933D01*
X031466Y008979D01*
X031411Y009029D01*
X031359Y009082D01*
X031310Y009137D01*
X031264Y009195D01*
X031222Y009256D01*
X031182Y009318D01*
X031146Y009383D01*
X031113Y009449D01*
X031084Y009517D01*
X031059Y009587D01*
X031037Y009657D01*
X031020Y009729D01*
X031006Y009802D01*
X030996Y009875D01*
X030990Y009949D01*
X030988Y010023D01*
X041815Y009629D02*
X041815Y010416D01*
X041815Y011597D02*
X041815Y011932D01*
X042268Y012385D01*
X046087Y012385D01*
X046539Y011932D01*
X046539Y011597D01*
X046146Y011597D01*
X046146Y010416D01*
X046539Y010416D01*
X046539Y009629D01*
X046146Y009629D01*
X046146Y008448D01*
X046539Y008448D01*
X046539Y008113D01*
X046087Y007660D01*
X042268Y007660D01*
X041815Y008113D01*
X041815Y008448D01*
X042799Y010023D02*
X042801Y010097D01*
X042807Y010171D01*
X042817Y010244D01*
X042831Y010317D01*
X042848Y010389D01*
X042870Y010459D01*
X042895Y010529D01*
X042924Y010597D01*
X042957Y010663D01*
X042993Y010728D01*
X043033Y010790D01*
X043075Y010851D01*
X043121Y010909D01*
X043170Y010964D01*
X043222Y011017D01*
X043277Y011067D01*
X043334Y011113D01*
X043394Y011157D01*
X043456Y011197D01*
X043520Y011234D01*
X043586Y011268D01*
X043654Y011298D01*
X043723Y011324D01*
X043794Y011347D01*
X043865Y011365D01*
X043938Y011380D01*
X044011Y011391D01*
X044085Y011398D01*
X044159Y011401D01*
X044232Y011400D01*
X044306Y011395D01*
X044380Y011386D01*
X044453Y011373D01*
X044525Y011356D01*
X044596Y011336D01*
X044666Y011311D01*
X044734Y011283D01*
X044801Y011252D01*
X044866Y011216D01*
X044929Y011178D01*
X044990Y011136D01*
X045049Y011090D01*
X045105Y011042D01*
X045158Y010991D01*
X045208Y010937D01*
X045256Y010880D01*
X045300Y010821D01*
X045342Y010759D01*
X045380Y010696D01*
X045414Y010630D01*
X045445Y010563D01*
X045472Y010494D01*
X045495Y010424D01*
X045515Y010353D01*
X045531Y010280D01*
X045543Y010207D01*
X045551Y010134D01*
X045555Y010060D01*
X045555Y009986D01*
X045551Y009912D01*
X045543Y009839D01*
X045531Y009766D01*
X045515Y009693D01*
X045495Y009622D01*
X045472Y009552D01*
X045445Y009483D01*
X045414Y009416D01*
X045380Y009350D01*
X045342Y009287D01*
X045300Y009225D01*
X045256Y009166D01*
X045208Y009109D01*
X045158Y009055D01*
X045105Y009004D01*
X045049Y008956D01*
X044990Y008910D01*
X044929Y008868D01*
X044866Y008830D01*
X044801Y008794D01*
X044734Y008763D01*
X044666Y008735D01*
X044596Y008710D01*
X044525Y008690D01*
X044453Y008673D01*
X044380Y008660D01*
X044306Y008651D01*
X044232Y008646D01*
X044159Y008645D01*
X044085Y008648D01*
X044011Y008655D01*
X043938Y008666D01*
X043865Y008681D01*
X043794Y008699D01*
X043723Y008722D01*
X043654Y008748D01*
X043586Y008778D01*
X043520Y008812D01*
X043456Y008849D01*
X043394Y008889D01*
X043334Y008933D01*
X043277Y008979D01*
X043222Y009029D01*
X043170Y009082D01*
X043121Y009137D01*
X043075Y009195D01*
X043033Y009256D01*
X042993Y009318D01*
X042957Y009383D01*
X042924Y009449D01*
X042895Y009517D01*
X042870Y009587D01*
X042848Y009657D01*
X042831Y009729D01*
X042817Y009802D01*
X042807Y009875D01*
X042801Y009949D01*
X042799Y010023D01*
X042268Y019471D02*
X041815Y019924D01*
X041815Y020259D01*
X042268Y019471D02*
X046087Y019471D01*
X046539Y019924D01*
X046539Y020259D01*
X046146Y020259D01*
X046146Y021440D01*
X046539Y021440D01*
X046539Y022227D01*
X046146Y022227D01*
X046146Y023408D01*
X046539Y023408D01*
X046539Y023743D01*
X046087Y024196D01*
X042268Y024196D01*
X041815Y023743D01*
X041815Y023408D01*
X041815Y022227D02*
X041815Y021440D01*
X042799Y021834D02*
X042801Y021908D01*
X042807Y021982D01*
X042817Y022055D01*
X042831Y022128D01*
X042848Y022200D01*
X042870Y022270D01*
X042895Y022340D01*
X042924Y022408D01*
X042957Y022474D01*
X042993Y022539D01*
X043033Y022601D01*
X043075Y022662D01*
X043121Y022720D01*
X043170Y022775D01*
X043222Y022828D01*
X043277Y022878D01*
X043334Y022924D01*
X043394Y022968D01*
X043456Y023008D01*
X043520Y023045D01*
X043586Y023079D01*
X043654Y023109D01*
X043723Y023135D01*
X043794Y023158D01*
X043865Y023176D01*
X043938Y023191D01*
X044011Y023202D01*
X044085Y023209D01*
X044159Y023212D01*
X044232Y023211D01*
X044306Y023206D01*
X044380Y023197D01*
X044453Y023184D01*
X044525Y023167D01*
X044596Y023147D01*
X044666Y023122D01*
X044734Y023094D01*
X044801Y023063D01*
X044866Y023027D01*
X044929Y022989D01*
X044990Y022947D01*
X045049Y022901D01*
X045105Y022853D01*
X045158Y022802D01*
X045208Y022748D01*
X045256Y022691D01*
X045300Y022632D01*
X045342Y022570D01*
X045380Y022507D01*
X045414Y022441D01*
X045445Y022374D01*
X045472Y022305D01*
X045495Y022235D01*
X045515Y022164D01*
X045531Y022091D01*
X045543Y022018D01*
X045551Y021945D01*
X045555Y021871D01*
X045555Y021797D01*
X045551Y021723D01*
X045543Y021650D01*
X045531Y021577D01*
X045515Y021504D01*
X045495Y021433D01*
X045472Y021363D01*
X045445Y021294D01*
X045414Y021227D01*
X045380Y021161D01*
X045342Y021098D01*
X045300Y021036D01*
X045256Y020977D01*
X045208Y020920D01*
X045158Y020866D01*
X045105Y020815D01*
X045049Y020767D01*
X044990Y020721D01*
X044929Y020679D01*
X044866Y020641D01*
X044801Y020605D01*
X044734Y020574D01*
X044666Y020546D01*
X044596Y020521D01*
X044525Y020501D01*
X044453Y020484D01*
X044380Y020471D01*
X044306Y020462D01*
X044232Y020457D01*
X044159Y020456D01*
X044085Y020459D01*
X044011Y020466D01*
X043938Y020477D01*
X043865Y020492D01*
X043794Y020510D01*
X043723Y020533D01*
X043654Y020559D01*
X043586Y020589D01*
X043520Y020623D01*
X043456Y020660D01*
X043394Y020700D01*
X043334Y020744D01*
X043277Y020790D01*
X043222Y020840D01*
X043170Y020893D01*
X043121Y020948D01*
X043075Y021006D01*
X043033Y021067D01*
X042993Y021129D01*
X042957Y021194D01*
X042924Y021260D01*
X042895Y021328D01*
X042870Y021398D01*
X042848Y021468D01*
X042831Y021540D01*
X042817Y021613D01*
X042807Y021686D01*
X042801Y021760D01*
X042799Y021834D01*
X034728Y022227D02*
X034728Y021440D01*
X034335Y021440D01*
X034335Y020259D01*
X034728Y020259D01*
X034728Y019924D01*
X034276Y019471D01*
X030457Y019471D01*
X030004Y019924D01*
X030004Y020259D01*
X030004Y021440D02*
X030004Y022227D01*
X030004Y023408D02*
X030004Y023743D01*
X030457Y024196D01*
X034276Y024196D01*
X034728Y023743D01*
X034728Y023408D01*
X034335Y023408D01*
X034335Y022227D01*
X034728Y022227D01*
X030988Y021834D02*
X030990Y021908D01*
X030996Y021982D01*
X031006Y022055D01*
X031020Y022128D01*
X031037Y022200D01*
X031059Y022270D01*
X031084Y022340D01*
X031113Y022408D01*
X031146Y022474D01*
X031182Y022539D01*
X031222Y022601D01*
X031264Y022662D01*
X031310Y022720D01*
X031359Y022775D01*
X031411Y022828D01*
X031466Y022878D01*
X031523Y022924D01*
X031583Y022968D01*
X031645Y023008D01*
X031709Y023045D01*
X031775Y023079D01*
X031843Y023109D01*
X031912Y023135D01*
X031983Y023158D01*
X032054Y023176D01*
X032127Y023191D01*
X032200Y023202D01*
X032274Y023209D01*
X032348Y023212D01*
X032421Y023211D01*
X032495Y023206D01*
X032569Y023197D01*
X032642Y023184D01*
X032714Y023167D01*
X032785Y023147D01*
X032855Y023122D01*
X032923Y023094D01*
X032990Y023063D01*
X033055Y023027D01*
X033118Y022989D01*
X033179Y022947D01*
X033238Y022901D01*
X033294Y022853D01*
X033347Y022802D01*
X033397Y022748D01*
X033445Y022691D01*
X033489Y022632D01*
X033531Y022570D01*
X033569Y022507D01*
X033603Y022441D01*
X033634Y022374D01*
X033661Y022305D01*
X033684Y022235D01*
X033704Y022164D01*
X033720Y022091D01*
X033732Y022018D01*
X033740Y021945D01*
X033744Y021871D01*
X033744Y021797D01*
X033740Y021723D01*
X033732Y021650D01*
X033720Y021577D01*
X033704Y021504D01*
X033684Y021433D01*
X033661Y021363D01*
X033634Y021294D01*
X033603Y021227D01*
X033569Y021161D01*
X033531Y021098D01*
X033489Y021036D01*
X033445Y020977D01*
X033397Y020920D01*
X033347Y020866D01*
X033294Y020815D01*
X033238Y020767D01*
X033179Y020721D01*
X033118Y020679D01*
X033055Y020641D01*
X032990Y020605D01*
X032923Y020574D01*
X032855Y020546D01*
X032785Y020521D01*
X032714Y020501D01*
X032642Y020484D01*
X032569Y020471D01*
X032495Y020462D01*
X032421Y020457D01*
X032348Y020456D01*
X032274Y020459D01*
X032200Y020466D01*
X032127Y020477D01*
X032054Y020492D01*
X031983Y020510D01*
X031912Y020533D01*
X031843Y020559D01*
X031775Y020589D01*
X031709Y020623D01*
X031645Y020660D01*
X031583Y020700D01*
X031523Y020744D01*
X031466Y020790D01*
X031411Y020840D01*
X031359Y020893D01*
X031310Y020948D01*
X031264Y021006D01*
X031222Y021067D01*
X031182Y021129D01*
X031146Y021194D01*
X031113Y021260D01*
X031084Y021328D01*
X031059Y021398D01*
X031037Y021468D01*
X031020Y021540D01*
X031006Y021613D01*
X030996Y021686D01*
X030990Y021760D01*
X030988Y021834D01*
X022917Y022227D02*
X022917Y021440D01*
X022524Y021440D01*
X022524Y020259D01*
X022917Y020259D01*
X022917Y019924D01*
X022465Y019471D01*
X018646Y019471D01*
X018193Y019924D01*
X018193Y020259D01*
X018193Y021440D02*
X018193Y022227D01*
X018193Y023408D02*
X018193Y023743D01*
X018646Y024196D01*
X022465Y024196D01*
X022917Y023743D01*
X022917Y023408D01*
X022524Y023408D01*
X022524Y022227D01*
X022917Y022227D01*
X019177Y021834D02*
X019179Y021908D01*
X019185Y021982D01*
X019195Y022055D01*
X019209Y022128D01*
X019226Y022200D01*
X019248Y022270D01*
X019273Y022340D01*
X019302Y022408D01*
X019335Y022474D01*
X019371Y022539D01*
X019411Y022601D01*
X019453Y022662D01*
X019499Y022720D01*
X019548Y022775D01*
X019600Y022828D01*
X019655Y022878D01*
X019712Y022924D01*
X019772Y022968D01*
X019834Y023008D01*
X019898Y023045D01*
X019964Y023079D01*
X020032Y023109D01*
X020101Y023135D01*
X020172Y023158D01*
X020243Y023176D01*
X020316Y023191D01*
X020389Y023202D01*
X020463Y023209D01*
X020537Y023212D01*
X020610Y023211D01*
X020684Y023206D01*
X020758Y023197D01*
X020831Y023184D01*
X020903Y023167D01*
X020974Y023147D01*
X021044Y023122D01*
X021112Y023094D01*
X021179Y023063D01*
X021244Y023027D01*
X021307Y022989D01*
X021368Y022947D01*
X021427Y022901D01*
X021483Y022853D01*
X021536Y022802D01*
X021586Y022748D01*
X021634Y022691D01*
X021678Y022632D01*
X021720Y022570D01*
X021758Y022507D01*
X021792Y022441D01*
X021823Y022374D01*
X021850Y022305D01*
X021873Y022235D01*
X021893Y022164D01*
X021909Y022091D01*
X021921Y022018D01*
X021929Y021945D01*
X021933Y021871D01*
X021933Y021797D01*
X021929Y021723D01*
X021921Y021650D01*
X021909Y021577D01*
X021893Y021504D01*
X021873Y021433D01*
X021850Y021363D01*
X021823Y021294D01*
X021792Y021227D01*
X021758Y021161D01*
X021720Y021098D01*
X021678Y021036D01*
X021634Y020977D01*
X021586Y020920D01*
X021536Y020866D01*
X021483Y020815D01*
X021427Y020767D01*
X021368Y020721D01*
X021307Y020679D01*
X021244Y020641D01*
X021179Y020605D01*
X021112Y020574D01*
X021044Y020546D01*
X020974Y020521D01*
X020903Y020501D01*
X020831Y020484D01*
X020758Y020471D01*
X020684Y020462D01*
X020610Y020457D01*
X020537Y020456D01*
X020463Y020459D01*
X020389Y020466D01*
X020316Y020477D01*
X020243Y020492D01*
X020172Y020510D01*
X020101Y020533D01*
X020032Y020559D01*
X019964Y020589D01*
X019898Y020623D01*
X019834Y020660D01*
X019772Y020700D01*
X019712Y020744D01*
X019655Y020790D01*
X019600Y020840D01*
X019548Y020893D01*
X019499Y020948D01*
X019453Y021006D01*
X019411Y021067D01*
X019371Y021129D01*
X019335Y021194D01*
X019302Y021260D01*
X019273Y021328D01*
X019248Y021398D01*
X019226Y021468D01*
X019209Y021540D01*
X019195Y021613D01*
X019185Y021686D01*
X019179Y021760D01*
X019177Y021834D01*
X011106Y022227D02*
X011106Y021440D01*
X010713Y021440D01*
X010713Y020259D01*
X011106Y020259D01*
X011106Y019924D01*
X010654Y019471D01*
X006835Y019471D01*
X006382Y019924D01*
X006382Y020259D01*
X006382Y021440D02*
X006382Y022227D01*
X006382Y023408D02*
X006382Y023743D01*
X006835Y024196D01*
X010654Y024196D01*
X011106Y023743D01*
X011106Y023408D01*
X010713Y023408D01*
X010713Y022227D01*
X011106Y022227D01*
X007366Y021834D02*
X007368Y021908D01*
X007374Y021982D01*
X007384Y022055D01*
X007398Y022128D01*
X007415Y022200D01*
X007437Y022270D01*
X007462Y022340D01*
X007491Y022408D01*
X007524Y022474D01*
X007560Y022539D01*
X007600Y022601D01*
X007642Y022662D01*
X007688Y022720D01*
X007737Y022775D01*
X007789Y022828D01*
X007844Y022878D01*
X007901Y022924D01*
X007961Y022968D01*
X008023Y023008D01*
X008087Y023045D01*
X008153Y023079D01*
X008221Y023109D01*
X008290Y023135D01*
X008361Y023158D01*
X008432Y023176D01*
X008505Y023191D01*
X008578Y023202D01*
X008652Y023209D01*
X008726Y023212D01*
X008799Y023211D01*
X008873Y023206D01*
X008947Y023197D01*
X009020Y023184D01*
X009092Y023167D01*
X009163Y023147D01*
X009233Y023122D01*
X009301Y023094D01*
X009368Y023063D01*
X009433Y023027D01*
X009496Y022989D01*
X009557Y022947D01*
X009616Y022901D01*
X009672Y022853D01*
X009725Y022802D01*
X009775Y022748D01*
X009823Y022691D01*
X009867Y022632D01*
X009909Y022570D01*
X009947Y022507D01*
X009981Y022441D01*
X010012Y022374D01*
X010039Y022305D01*
X010062Y022235D01*
X010082Y022164D01*
X010098Y022091D01*
X010110Y022018D01*
X010118Y021945D01*
X010122Y021871D01*
X010122Y021797D01*
X010118Y021723D01*
X010110Y021650D01*
X010098Y021577D01*
X010082Y021504D01*
X010062Y021433D01*
X010039Y021363D01*
X010012Y021294D01*
X009981Y021227D01*
X009947Y021161D01*
X009909Y021098D01*
X009867Y021036D01*
X009823Y020977D01*
X009775Y020920D01*
X009725Y020866D01*
X009672Y020815D01*
X009616Y020767D01*
X009557Y020721D01*
X009496Y020679D01*
X009433Y020641D01*
X009368Y020605D01*
X009301Y020574D01*
X009233Y020546D01*
X009163Y020521D01*
X009092Y020501D01*
X009020Y020484D01*
X008947Y020471D01*
X008873Y020462D01*
X008799Y020457D01*
X008726Y020456D01*
X008652Y020459D01*
X008578Y020466D01*
X008505Y020477D01*
X008432Y020492D01*
X008361Y020510D01*
X008290Y020533D01*
X008221Y020559D01*
X008153Y020589D01*
X008087Y020623D01*
X008023Y020660D01*
X007961Y020700D01*
X007901Y020744D01*
X007844Y020790D01*
X007789Y020840D01*
X007737Y020893D01*
X007688Y020948D01*
X007642Y021006D01*
X007600Y021067D01*
X007560Y021129D01*
X007524Y021194D01*
X007491Y021260D01*
X007462Y021328D01*
X007437Y021398D01*
X007415Y021468D01*
X007398Y021540D01*
X007384Y021613D01*
X007374Y021686D01*
X007368Y021760D01*
X007366Y021834D01*
D16*
X008494Y022084D02*
X008744Y021584D01*
X008494Y021584D01*
X008744Y021584D02*
X008994Y021584D01*
X008744Y021584D02*
X008994Y022084D01*
X008744Y022084D01*
X008494Y022084D01*
X020305Y022084D02*
X020555Y021584D01*
X020305Y021584D01*
X020555Y021584D02*
X020805Y021584D01*
X020555Y021584D02*
X020805Y022084D01*
X020555Y022084D01*
X020305Y022084D01*
X032116Y022084D02*
X032366Y021584D01*
X032116Y021584D01*
X032366Y021584D02*
X032616Y021584D01*
X032366Y021584D02*
X032616Y022084D01*
X032366Y022084D01*
X032116Y022084D01*
X043927Y022084D02*
X044177Y021584D01*
X043927Y021584D01*
X044177Y021584D02*
X044427Y021584D01*
X044177Y021584D02*
X044427Y022084D01*
X044177Y022084D01*
X043927Y022084D01*
X043927Y010273D02*
X044177Y009773D01*
X043927Y009773D01*
X044177Y009773D02*
X044427Y010273D01*
X044177Y010273D01*
X043927Y010273D01*
X044177Y009773D02*
X044427Y009773D01*
X032616Y009773D02*
X032366Y009773D01*
X032116Y009773D01*
X032366Y009773D02*
X032116Y010273D01*
X032366Y010273D01*
X032616Y010273D01*
X032366Y009773D01*
X020805Y009773D02*
X020555Y009773D01*
X020305Y009773D01*
X020555Y009773D02*
X020805Y010273D01*
X020555Y010273D01*
X020305Y010273D01*
X020555Y009773D01*
X008994Y009773D02*
X008744Y009773D01*
X008494Y009773D01*
X008744Y009773D02*
X008994Y010273D01*
X008744Y010273D01*
X008494Y010273D01*
X008744Y009773D01*
D17*
X007012Y008448D02*
X007014Y008473D01*
X007020Y008497D01*
X007029Y008519D01*
X007042Y008540D01*
X007058Y008559D01*
X007077Y008575D01*
X007098Y008588D01*
X007120Y008597D01*
X007144Y008603D01*
X007169Y008605D01*
X007194Y008603D01*
X007218Y008597D01*
X007240Y008588D01*
X007261Y008575D01*
X007280Y008559D01*
X007296Y008540D01*
X007309Y008519D01*
X007318Y008497D01*
X007324Y008473D01*
X007326Y008448D01*
X007324Y008423D01*
X007318Y008399D01*
X007309Y008377D01*
X007296Y008356D01*
X007280Y008337D01*
X007261Y008321D01*
X007240Y008308D01*
X007218Y008299D01*
X007194Y008293D01*
X007169Y008291D01*
X007144Y008293D01*
X007120Y008299D01*
X007098Y008308D01*
X007077Y008321D01*
X007058Y008337D01*
X007042Y008356D01*
X007029Y008377D01*
X007020Y008399D01*
X007014Y008423D01*
X007012Y008448D01*
X010162Y008448D02*
X010164Y008473D01*
X010170Y008497D01*
X010179Y008519D01*
X010192Y008540D01*
X010208Y008559D01*
X010227Y008575D01*
X010248Y008588D01*
X010270Y008597D01*
X010294Y008603D01*
X010319Y008605D01*
X010344Y008603D01*
X010368Y008597D01*
X010390Y008588D01*
X010411Y008575D01*
X010430Y008559D01*
X010446Y008540D01*
X010459Y008519D01*
X010468Y008497D01*
X010474Y008473D01*
X010476Y008448D01*
X010474Y008423D01*
X010468Y008399D01*
X010459Y008377D01*
X010446Y008356D01*
X010430Y008337D01*
X010411Y008321D01*
X010390Y008308D01*
X010368Y008299D01*
X010344Y008293D01*
X010319Y008291D01*
X010294Y008293D01*
X010270Y008299D01*
X010248Y008308D01*
X010227Y008321D01*
X010208Y008337D01*
X010192Y008356D01*
X010179Y008377D01*
X010170Y008399D01*
X010164Y008423D01*
X010162Y008448D01*
X010162Y011597D02*
X010164Y011622D01*
X010170Y011646D01*
X010179Y011668D01*
X010192Y011689D01*
X010208Y011708D01*
X010227Y011724D01*
X010248Y011737D01*
X010270Y011746D01*
X010294Y011752D01*
X010319Y011754D01*
X010344Y011752D01*
X010368Y011746D01*
X010390Y011737D01*
X010411Y011724D01*
X010430Y011708D01*
X010446Y011689D01*
X010459Y011668D01*
X010468Y011646D01*
X010474Y011622D01*
X010476Y011597D01*
X010474Y011572D01*
X010468Y011548D01*
X010459Y011526D01*
X010446Y011505D01*
X010430Y011486D01*
X010411Y011470D01*
X010390Y011457D01*
X010368Y011448D01*
X010344Y011442D01*
X010319Y011440D01*
X010294Y011442D01*
X010270Y011448D01*
X010248Y011457D01*
X010227Y011470D01*
X010208Y011486D01*
X010192Y011505D01*
X010179Y011526D01*
X010170Y011548D01*
X010164Y011572D01*
X010162Y011597D01*
X007012Y011597D02*
X007014Y011622D01*
X007020Y011646D01*
X007029Y011668D01*
X007042Y011689D01*
X007058Y011708D01*
X007077Y011724D01*
X007098Y011737D01*
X007120Y011746D01*
X007144Y011752D01*
X007169Y011754D01*
X007194Y011752D01*
X007218Y011746D01*
X007240Y011737D01*
X007261Y011724D01*
X007280Y011708D01*
X007296Y011689D01*
X007309Y011668D01*
X007318Y011646D01*
X007324Y011622D01*
X007326Y011597D01*
X007324Y011572D01*
X007318Y011548D01*
X007309Y011526D01*
X007296Y011505D01*
X007280Y011486D01*
X007261Y011470D01*
X007240Y011457D01*
X007218Y011448D01*
X007194Y011442D01*
X007169Y011440D01*
X007144Y011442D01*
X007120Y011448D01*
X007098Y011457D01*
X007077Y011470D01*
X007058Y011486D01*
X007042Y011505D01*
X007029Y011526D01*
X007020Y011548D01*
X007014Y011572D01*
X007012Y011597D01*
X018823Y011597D02*
X018825Y011622D01*
X018831Y011646D01*
X018840Y011668D01*
X018853Y011689D01*
X018869Y011708D01*
X018888Y011724D01*
X018909Y011737D01*
X018931Y011746D01*
X018955Y011752D01*
X018980Y011754D01*
X019005Y011752D01*
X019029Y011746D01*
X019051Y011737D01*
X019072Y011724D01*
X019091Y011708D01*
X019107Y011689D01*
X019120Y011668D01*
X019129Y011646D01*
X019135Y011622D01*
X019137Y011597D01*
X019135Y011572D01*
X019129Y011548D01*
X019120Y011526D01*
X019107Y011505D01*
X019091Y011486D01*
X019072Y011470D01*
X019051Y011457D01*
X019029Y011448D01*
X019005Y011442D01*
X018980Y011440D01*
X018955Y011442D01*
X018931Y011448D01*
X018909Y011457D01*
X018888Y011470D01*
X018869Y011486D01*
X018853Y011505D01*
X018840Y011526D01*
X018831Y011548D01*
X018825Y011572D01*
X018823Y011597D01*
X021973Y011597D02*
X021975Y011622D01*
X021981Y011646D01*
X021990Y011668D01*
X022003Y011689D01*
X022019Y011708D01*
X022038Y011724D01*
X022059Y011737D01*
X022081Y011746D01*
X022105Y011752D01*
X022130Y011754D01*
X022155Y011752D01*
X022179Y011746D01*
X022201Y011737D01*
X022222Y011724D01*
X022241Y011708D01*
X022257Y011689D01*
X022270Y011668D01*
X022279Y011646D01*
X022285Y011622D01*
X022287Y011597D01*
X022285Y011572D01*
X022279Y011548D01*
X022270Y011526D01*
X022257Y011505D01*
X022241Y011486D01*
X022222Y011470D01*
X022201Y011457D01*
X022179Y011448D01*
X022155Y011442D01*
X022130Y011440D01*
X022105Y011442D01*
X022081Y011448D01*
X022059Y011457D01*
X022038Y011470D01*
X022019Y011486D01*
X022003Y011505D01*
X021990Y011526D01*
X021981Y011548D01*
X021975Y011572D01*
X021973Y011597D01*
X021973Y008448D02*
X021975Y008473D01*
X021981Y008497D01*
X021990Y008519D01*
X022003Y008540D01*
X022019Y008559D01*
X022038Y008575D01*
X022059Y008588D01*
X022081Y008597D01*
X022105Y008603D01*
X022130Y008605D01*
X022155Y008603D01*
X022179Y008597D01*
X022201Y008588D01*
X022222Y008575D01*
X022241Y008559D01*
X022257Y008540D01*
X022270Y008519D01*
X022279Y008497D01*
X022285Y008473D01*
X022287Y008448D01*
X022285Y008423D01*
X022279Y008399D01*
X022270Y008377D01*
X022257Y008356D01*
X022241Y008337D01*
X022222Y008321D01*
X022201Y008308D01*
X022179Y008299D01*
X022155Y008293D01*
X022130Y008291D01*
X022105Y008293D01*
X022081Y008299D01*
X022059Y008308D01*
X022038Y008321D01*
X022019Y008337D01*
X022003Y008356D01*
X021990Y008377D01*
X021981Y008399D01*
X021975Y008423D01*
X021973Y008448D01*
X018823Y008448D02*
X018825Y008473D01*
X018831Y008497D01*
X018840Y008519D01*
X018853Y008540D01*
X018869Y008559D01*
X018888Y008575D01*
X018909Y008588D01*
X018931Y008597D01*
X018955Y008603D01*
X018980Y008605D01*
X019005Y008603D01*
X019029Y008597D01*
X019051Y008588D01*
X019072Y008575D01*
X019091Y008559D01*
X019107Y008540D01*
X019120Y008519D01*
X019129Y008497D01*
X019135Y008473D01*
X019137Y008448D01*
X019135Y008423D01*
X019129Y008399D01*
X019120Y008377D01*
X019107Y008356D01*
X019091Y008337D01*
X019072Y008321D01*
X019051Y008308D01*
X019029Y008299D01*
X019005Y008293D01*
X018980Y008291D01*
X018955Y008293D01*
X018931Y008299D01*
X018909Y008308D01*
X018888Y008321D01*
X018869Y008337D01*
X018853Y008356D01*
X018840Y008377D01*
X018831Y008399D01*
X018825Y008423D01*
X018823Y008448D01*
X030634Y008448D02*
X030636Y008473D01*
X030642Y008497D01*
X030651Y008519D01*
X030664Y008540D01*
X030680Y008559D01*
X030699Y008575D01*
X030720Y008588D01*
X030742Y008597D01*
X030766Y008603D01*
X030791Y008605D01*
X030816Y008603D01*
X030840Y008597D01*
X030862Y008588D01*
X030883Y008575D01*
X030902Y008559D01*
X030918Y008540D01*
X030931Y008519D01*
X030940Y008497D01*
X030946Y008473D01*
X030948Y008448D01*
X030946Y008423D01*
X030940Y008399D01*
X030931Y008377D01*
X030918Y008356D01*
X030902Y008337D01*
X030883Y008321D01*
X030862Y008308D01*
X030840Y008299D01*
X030816Y008293D01*
X030791Y008291D01*
X030766Y008293D01*
X030742Y008299D01*
X030720Y008308D01*
X030699Y008321D01*
X030680Y008337D01*
X030664Y008356D01*
X030651Y008377D01*
X030642Y008399D01*
X030636Y008423D01*
X030634Y008448D01*
X033784Y008448D02*
X033786Y008473D01*
X033792Y008497D01*
X033801Y008519D01*
X033814Y008540D01*
X033830Y008559D01*
X033849Y008575D01*
X033870Y008588D01*
X033892Y008597D01*
X033916Y008603D01*
X033941Y008605D01*
X033966Y008603D01*
X033990Y008597D01*
X034012Y008588D01*
X034033Y008575D01*
X034052Y008559D01*
X034068Y008540D01*
X034081Y008519D01*
X034090Y008497D01*
X034096Y008473D01*
X034098Y008448D01*
X034096Y008423D01*
X034090Y008399D01*
X034081Y008377D01*
X034068Y008356D01*
X034052Y008337D01*
X034033Y008321D01*
X034012Y008308D01*
X033990Y008299D01*
X033966Y008293D01*
X033941Y008291D01*
X033916Y008293D01*
X033892Y008299D01*
X033870Y008308D01*
X033849Y008321D01*
X033830Y008337D01*
X033814Y008356D01*
X033801Y008377D01*
X033792Y008399D01*
X033786Y008423D01*
X033784Y008448D01*
X033784Y011597D02*
X033786Y011622D01*
X033792Y011646D01*
X033801Y011668D01*
X033814Y011689D01*
X033830Y011708D01*
X033849Y011724D01*
X033870Y011737D01*
X033892Y011746D01*
X033916Y011752D01*
X033941Y011754D01*
X033966Y011752D01*
X033990Y011746D01*
X034012Y011737D01*
X034033Y011724D01*
X034052Y011708D01*
X034068Y011689D01*
X034081Y011668D01*
X034090Y011646D01*
X034096Y011622D01*
X034098Y011597D01*
X034096Y011572D01*
X034090Y011548D01*
X034081Y011526D01*
X034068Y011505D01*
X034052Y011486D01*
X034033Y011470D01*
X034012Y011457D01*
X033990Y011448D01*
X033966Y011442D01*
X033941Y011440D01*
X033916Y011442D01*
X033892Y011448D01*
X033870Y011457D01*
X033849Y011470D01*
X033830Y011486D01*
X033814Y011505D01*
X033801Y011526D01*
X033792Y011548D01*
X033786Y011572D01*
X033784Y011597D01*
X030634Y011597D02*
X030636Y011622D01*
X030642Y011646D01*
X030651Y011668D01*
X030664Y011689D01*
X030680Y011708D01*
X030699Y011724D01*
X030720Y011737D01*
X030742Y011746D01*
X030766Y011752D01*
X030791Y011754D01*
X030816Y011752D01*
X030840Y011746D01*
X030862Y011737D01*
X030883Y011724D01*
X030902Y011708D01*
X030918Y011689D01*
X030931Y011668D01*
X030940Y011646D01*
X030946Y011622D01*
X030948Y011597D01*
X030946Y011572D01*
X030940Y011548D01*
X030931Y011526D01*
X030918Y011505D01*
X030902Y011486D01*
X030883Y011470D01*
X030862Y011457D01*
X030840Y011448D01*
X030816Y011442D01*
X030791Y011440D01*
X030766Y011442D01*
X030742Y011448D01*
X030720Y011457D01*
X030699Y011470D01*
X030680Y011486D01*
X030664Y011505D01*
X030651Y011526D01*
X030642Y011548D01*
X030636Y011572D01*
X030634Y011597D01*
X042445Y011597D02*
X042447Y011622D01*
X042453Y011646D01*
X042462Y011668D01*
X042475Y011689D01*
X042491Y011708D01*
X042510Y011724D01*
X042531Y011737D01*
X042553Y011746D01*
X042577Y011752D01*
X042602Y011754D01*
X042627Y011752D01*
X042651Y011746D01*
X042673Y011737D01*
X042694Y011724D01*
X042713Y011708D01*
X042729Y011689D01*
X042742Y011668D01*
X042751Y011646D01*
X042757Y011622D01*
X042759Y011597D01*
X042757Y011572D01*
X042751Y011548D01*
X042742Y011526D01*
X042729Y011505D01*
X042713Y011486D01*
X042694Y011470D01*
X042673Y011457D01*
X042651Y011448D01*
X042627Y011442D01*
X042602Y011440D01*
X042577Y011442D01*
X042553Y011448D01*
X042531Y011457D01*
X042510Y011470D01*
X042491Y011486D01*
X042475Y011505D01*
X042462Y011526D01*
X042453Y011548D01*
X042447Y011572D01*
X042445Y011597D01*
X045595Y011597D02*
X045597Y011622D01*
X045603Y011646D01*
X045612Y011668D01*
X045625Y011689D01*
X045641Y011708D01*
X045660Y011724D01*
X045681Y011737D01*
X045703Y011746D01*
X045727Y011752D01*
X045752Y011754D01*
X045777Y011752D01*
X045801Y011746D01*
X045823Y011737D01*
X045844Y011724D01*
X045863Y011708D01*
X045879Y011689D01*
X045892Y011668D01*
X045901Y011646D01*
X045907Y011622D01*
X045909Y011597D01*
X045907Y011572D01*
X045901Y011548D01*
X045892Y011526D01*
X045879Y011505D01*
X045863Y011486D01*
X045844Y011470D01*
X045823Y011457D01*
X045801Y011448D01*
X045777Y011442D01*
X045752Y011440D01*
X045727Y011442D01*
X045703Y011448D01*
X045681Y011457D01*
X045660Y011470D01*
X045641Y011486D01*
X045625Y011505D01*
X045612Y011526D01*
X045603Y011548D01*
X045597Y011572D01*
X045595Y011597D01*
X045595Y008448D02*
X045597Y008473D01*
X045603Y008497D01*
X045612Y008519D01*
X045625Y008540D01*
X045641Y008559D01*
X045660Y008575D01*
X045681Y008588D01*
X045703Y008597D01*
X045727Y008603D01*
X045752Y008605D01*
X045777Y008603D01*
X045801Y008597D01*
X045823Y008588D01*
X045844Y008575D01*
X045863Y008559D01*
X045879Y008540D01*
X045892Y008519D01*
X045901Y008497D01*
X045907Y008473D01*
X045909Y008448D01*
X045907Y008423D01*
X045901Y008399D01*
X045892Y008377D01*
X045879Y008356D01*
X045863Y008337D01*
X045844Y008321D01*
X045823Y008308D01*
X045801Y008299D01*
X045777Y008293D01*
X045752Y008291D01*
X045727Y008293D01*
X045703Y008299D01*
X045681Y008308D01*
X045660Y008321D01*
X045641Y008337D01*
X045625Y008356D01*
X045612Y008377D01*
X045603Y008399D01*
X045597Y008423D01*
X045595Y008448D01*
X042445Y008448D02*
X042447Y008473D01*
X042453Y008497D01*
X042462Y008519D01*
X042475Y008540D01*
X042491Y008559D01*
X042510Y008575D01*
X042531Y008588D01*
X042553Y008597D01*
X042577Y008603D01*
X042602Y008605D01*
X042627Y008603D01*
X042651Y008597D01*
X042673Y008588D01*
X042694Y008575D01*
X042713Y008559D01*
X042729Y008540D01*
X042742Y008519D01*
X042751Y008497D01*
X042757Y008473D01*
X042759Y008448D01*
X042757Y008423D01*
X042751Y008399D01*
X042742Y008377D01*
X042729Y008356D01*
X042713Y008337D01*
X042694Y008321D01*
X042673Y008308D01*
X042651Y008299D01*
X042627Y008293D01*
X042602Y008291D01*
X042577Y008293D01*
X042553Y008299D01*
X042531Y008308D01*
X042510Y008321D01*
X042491Y008337D01*
X042475Y008356D01*
X042462Y008377D01*
X042453Y008399D01*
X042447Y008423D01*
X042445Y008448D01*
X042445Y020259D02*
X042447Y020284D01*
X042453Y020308D01*
X042462Y020330D01*
X042475Y020351D01*
X042491Y020370D01*
X042510Y020386D01*
X042531Y020399D01*
X042553Y020408D01*
X042577Y020414D01*
X042602Y020416D01*
X042627Y020414D01*
X042651Y020408D01*
X042673Y020399D01*
X042694Y020386D01*
X042713Y020370D01*
X042729Y020351D01*
X042742Y020330D01*
X042751Y020308D01*
X042757Y020284D01*
X042759Y020259D01*
X042757Y020234D01*
X042751Y020210D01*
X042742Y020188D01*
X042729Y020167D01*
X042713Y020148D01*
X042694Y020132D01*
X042673Y020119D01*
X042651Y020110D01*
X042627Y020104D01*
X042602Y020102D01*
X042577Y020104D01*
X042553Y020110D01*
X042531Y020119D01*
X042510Y020132D01*
X042491Y020148D01*
X042475Y020167D01*
X042462Y020188D01*
X042453Y020210D01*
X042447Y020234D01*
X042445Y020259D01*
X045595Y020259D02*
X045597Y020284D01*
X045603Y020308D01*
X045612Y020330D01*
X045625Y020351D01*
X045641Y020370D01*
X045660Y020386D01*
X045681Y020399D01*
X045703Y020408D01*
X045727Y020414D01*
X045752Y020416D01*
X045777Y020414D01*
X045801Y020408D01*
X045823Y020399D01*
X045844Y020386D01*
X045863Y020370D01*
X045879Y020351D01*
X045892Y020330D01*
X045901Y020308D01*
X045907Y020284D01*
X045909Y020259D01*
X045907Y020234D01*
X045901Y020210D01*
X045892Y020188D01*
X045879Y020167D01*
X045863Y020148D01*
X045844Y020132D01*
X045823Y020119D01*
X045801Y020110D01*
X045777Y020104D01*
X045752Y020102D01*
X045727Y020104D01*
X045703Y020110D01*
X045681Y020119D01*
X045660Y020132D01*
X045641Y020148D01*
X045625Y020167D01*
X045612Y020188D01*
X045603Y020210D01*
X045597Y020234D01*
X045595Y020259D01*
X045595Y023408D02*
X045597Y023433D01*
X045603Y023457D01*
X045612Y023479D01*
X045625Y023500D01*
X045641Y023519D01*
X045660Y023535D01*
X045681Y023548D01*
X045703Y023557D01*
X045727Y023563D01*
X045752Y023565D01*
X045777Y023563D01*
X045801Y023557D01*
X045823Y023548D01*
X045844Y023535D01*
X045863Y023519D01*
X045879Y023500D01*
X045892Y023479D01*
X045901Y023457D01*
X045907Y023433D01*
X045909Y023408D01*
X045907Y023383D01*
X045901Y023359D01*
X045892Y023337D01*
X045879Y023316D01*
X045863Y023297D01*
X045844Y023281D01*
X045823Y023268D01*
X045801Y023259D01*
X045777Y023253D01*
X045752Y023251D01*
X045727Y023253D01*
X045703Y023259D01*
X045681Y023268D01*
X045660Y023281D01*
X045641Y023297D01*
X045625Y023316D01*
X045612Y023337D01*
X045603Y023359D01*
X045597Y023383D01*
X045595Y023408D01*
X042445Y023408D02*
X042447Y023433D01*
X042453Y023457D01*
X042462Y023479D01*
X042475Y023500D01*
X042491Y023519D01*
X042510Y023535D01*
X042531Y023548D01*
X042553Y023557D01*
X042577Y023563D01*
X042602Y023565D01*
X042627Y023563D01*
X042651Y023557D01*
X042673Y023548D01*
X042694Y023535D01*
X042713Y023519D01*
X042729Y023500D01*
X042742Y023479D01*
X042751Y023457D01*
X042757Y023433D01*
X042759Y023408D01*
X042757Y023383D01*
X042751Y023359D01*
X042742Y023337D01*
X042729Y023316D01*
X042713Y023297D01*
X042694Y023281D01*
X042673Y023268D01*
X042651Y023259D01*
X042627Y023253D01*
X042602Y023251D01*
X042577Y023253D01*
X042553Y023259D01*
X042531Y023268D01*
X042510Y023281D01*
X042491Y023297D01*
X042475Y023316D01*
X042462Y023337D01*
X042453Y023359D01*
X042447Y023383D01*
X042445Y023408D01*
X033784Y023408D02*
X033786Y023433D01*
X033792Y023457D01*
X033801Y023479D01*
X033814Y023500D01*
X033830Y023519D01*
X033849Y023535D01*
X033870Y023548D01*
X033892Y023557D01*
X033916Y023563D01*
X033941Y023565D01*
X033966Y023563D01*
X033990Y023557D01*
X034012Y023548D01*
X034033Y023535D01*
X034052Y023519D01*
X034068Y023500D01*
X034081Y023479D01*
X034090Y023457D01*
X034096Y023433D01*
X034098Y023408D01*
X034096Y023383D01*
X034090Y023359D01*
X034081Y023337D01*
X034068Y023316D01*
X034052Y023297D01*
X034033Y023281D01*
X034012Y023268D01*
X033990Y023259D01*
X033966Y023253D01*
X033941Y023251D01*
X033916Y023253D01*
X033892Y023259D01*
X033870Y023268D01*
X033849Y023281D01*
X033830Y023297D01*
X033814Y023316D01*
X033801Y023337D01*
X033792Y023359D01*
X033786Y023383D01*
X033784Y023408D01*
X030634Y023408D02*
X030636Y023433D01*
X030642Y023457D01*
X030651Y023479D01*
X030664Y023500D01*
X030680Y023519D01*
X030699Y023535D01*
X030720Y023548D01*
X030742Y023557D01*
X030766Y023563D01*
X030791Y023565D01*
X030816Y023563D01*
X030840Y023557D01*
X030862Y023548D01*
X030883Y023535D01*
X030902Y023519D01*
X030918Y023500D01*
X030931Y023479D01*
X030940Y023457D01*
X030946Y023433D01*
X030948Y023408D01*
X030946Y023383D01*
X030940Y023359D01*
X030931Y023337D01*
X030918Y023316D01*
X030902Y023297D01*
X030883Y023281D01*
X030862Y023268D01*
X030840Y023259D01*
X030816Y023253D01*
X030791Y023251D01*
X030766Y023253D01*
X030742Y023259D01*
X030720Y023268D01*
X030699Y023281D01*
X030680Y023297D01*
X030664Y023316D01*
X030651Y023337D01*
X030642Y023359D01*
X030636Y023383D01*
X030634Y023408D01*
X030634Y020259D02*
X030636Y020284D01*
X030642Y020308D01*
X030651Y020330D01*
X030664Y020351D01*
X030680Y020370D01*
X030699Y020386D01*
X030720Y020399D01*
X030742Y020408D01*
X030766Y020414D01*
X030791Y020416D01*
X030816Y020414D01*
X030840Y020408D01*
X030862Y020399D01*
X030883Y020386D01*
X030902Y020370D01*
X030918Y020351D01*
X030931Y020330D01*
X030940Y020308D01*
X030946Y020284D01*
X030948Y020259D01*
X030946Y020234D01*
X030940Y020210D01*
X030931Y020188D01*
X030918Y020167D01*
X030902Y020148D01*
X030883Y020132D01*
X030862Y020119D01*
X030840Y020110D01*
X030816Y020104D01*
X030791Y020102D01*
X030766Y020104D01*
X030742Y020110D01*
X030720Y020119D01*
X030699Y020132D01*
X030680Y020148D01*
X030664Y020167D01*
X030651Y020188D01*
X030642Y020210D01*
X030636Y020234D01*
X030634Y020259D01*
X033784Y020259D02*
X033786Y020284D01*
X033792Y020308D01*
X033801Y020330D01*
X033814Y020351D01*
X033830Y020370D01*
X033849Y020386D01*
X033870Y020399D01*
X033892Y020408D01*
X033916Y020414D01*
X033941Y020416D01*
X033966Y020414D01*
X033990Y020408D01*
X034012Y020399D01*
X034033Y020386D01*
X034052Y020370D01*
X034068Y020351D01*
X034081Y020330D01*
X034090Y020308D01*
X034096Y020284D01*
X034098Y020259D01*
X034096Y020234D01*
X034090Y020210D01*
X034081Y020188D01*
X034068Y020167D01*
X034052Y020148D01*
X034033Y020132D01*
X034012Y020119D01*
X033990Y020110D01*
X033966Y020104D01*
X033941Y020102D01*
X033916Y020104D01*
X033892Y020110D01*
X033870Y020119D01*
X033849Y020132D01*
X033830Y020148D01*
X033814Y020167D01*
X033801Y020188D01*
X033792Y020210D01*
X033786Y020234D01*
X033784Y020259D01*
X021973Y020259D02*
X021975Y020284D01*
X021981Y020308D01*
X021990Y020330D01*
X022003Y020351D01*
X022019Y020370D01*
X022038Y020386D01*
X022059Y020399D01*
X022081Y020408D01*
X022105Y020414D01*
X022130Y020416D01*
X022155Y020414D01*
X022179Y020408D01*
X022201Y020399D01*
X022222Y020386D01*
X022241Y020370D01*
X022257Y020351D01*
X022270Y020330D01*
X022279Y020308D01*
X022285Y020284D01*
X022287Y020259D01*
X022285Y020234D01*
X022279Y020210D01*
X022270Y020188D01*
X022257Y020167D01*
X022241Y020148D01*
X022222Y020132D01*
X022201Y020119D01*
X022179Y020110D01*
X022155Y020104D01*
X022130Y020102D01*
X022105Y020104D01*
X022081Y020110D01*
X022059Y020119D01*
X022038Y020132D01*
X022019Y020148D01*
X022003Y020167D01*
X021990Y020188D01*
X021981Y020210D01*
X021975Y020234D01*
X021973Y020259D01*
X018823Y020259D02*
X018825Y020284D01*
X018831Y020308D01*
X018840Y020330D01*
X018853Y020351D01*
X018869Y020370D01*
X018888Y020386D01*
X018909Y020399D01*
X018931Y020408D01*
X018955Y020414D01*
X018980Y020416D01*
X019005Y020414D01*
X019029Y020408D01*
X019051Y020399D01*
X019072Y020386D01*
X019091Y020370D01*
X019107Y020351D01*
X019120Y020330D01*
X019129Y020308D01*
X019135Y020284D01*
X019137Y020259D01*
X019135Y020234D01*
X019129Y020210D01*
X019120Y020188D01*
X019107Y020167D01*
X019091Y020148D01*
X019072Y020132D01*
X019051Y020119D01*
X019029Y020110D01*
X019005Y020104D01*
X018980Y020102D01*
X018955Y020104D01*
X018931Y020110D01*
X018909Y020119D01*
X018888Y020132D01*
X018869Y020148D01*
X018853Y020167D01*
X018840Y020188D01*
X018831Y020210D01*
X018825Y020234D01*
X018823Y020259D01*
X018823Y023408D02*
X018825Y023433D01*
X018831Y023457D01*
X018840Y023479D01*
X018853Y023500D01*
X018869Y023519D01*
X018888Y023535D01*
X018909Y023548D01*
X018931Y023557D01*
X018955Y023563D01*
X018980Y023565D01*
X019005Y023563D01*
X019029Y023557D01*
X019051Y023548D01*
X019072Y023535D01*
X019091Y023519D01*
X019107Y023500D01*
X019120Y023479D01*
X019129Y023457D01*
X019135Y023433D01*
X019137Y023408D01*
X019135Y023383D01*
X019129Y023359D01*
X019120Y023337D01*
X019107Y023316D01*
X019091Y023297D01*
X019072Y023281D01*
X019051Y023268D01*
X019029Y023259D01*
X019005Y023253D01*
X018980Y023251D01*
X018955Y023253D01*
X018931Y023259D01*
X018909Y023268D01*
X018888Y023281D01*
X018869Y023297D01*
X018853Y023316D01*
X018840Y023337D01*
X018831Y023359D01*
X018825Y023383D01*
X018823Y023408D01*
X021973Y023408D02*
X021975Y023433D01*
X021981Y023457D01*
X021990Y023479D01*
X022003Y023500D01*
X022019Y023519D01*
X022038Y023535D01*
X022059Y023548D01*
X022081Y023557D01*
X022105Y023563D01*
X022130Y023565D01*
X022155Y023563D01*
X022179Y023557D01*
X022201Y023548D01*
X022222Y023535D01*
X022241Y023519D01*
X022257Y023500D01*
X022270Y023479D01*
X022279Y023457D01*
X022285Y023433D01*
X022287Y023408D01*
X022285Y023383D01*
X022279Y023359D01*
X022270Y023337D01*
X022257Y023316D01*
X022241Y023297D01*
X022222Y023281D01*
X022201Y023268D01*
X022179Y023259D01*
X022155Y023253D01*
X022130Y023251D01*
X022105Y023253D01*
X022081Y023259D01*
X022059Y023268D01*
X022038Y023281D01*
X022019Y023297D01*
X022003Y023316D01*
X021990Y023337D01*
X021981Y023359D01*
X021975Y023383D01*
X021973Y023408D01*
X010162Y023408D02*
X010164Y023433D01*
X010170Y023457D01*
X010179Y023479D01*
X010192Y023500D01*
X010208Y023519D01*
X010227Y023535D01*
X010248Y023548D01*
X010270Y023557D01*
X010294Y023563D01*
X010319Y023565D01*
X010344Y023563D01*
X010368Y023557D01*
X010390Y023548D01*
X010411Y023535D01*
X010430Y023519D01*
X010446Y023500D01*
X010459Y023479D01*
X010468Y023457D01*
X010474Y023433D01*
X010476Y023408D01*
X010474Y023383D01*
X010468Y023359D01*
X010459Y023337D01*
X010446Y023316D01*
X010430Y023297D01*
X010411Y023281D01*
X010390Y023268D01*
X010368Y023259D01*
X010344Y023253D01*
X010319Y023251D01*
X010294Y023253D01*
X010270Y023259D01*
X010248Y023268D01*
X010227Y023281D01*
X010208Y023297D01*
X010192Y023316D01*
X010179Y023337D01*
X010170Y023359D01*
X010164Y023383D01*
X010162Y023408D01*
X007012Y023408D02*
X007014Y023433D01*
X007020Y023457D01*
X007029Y023479D01*
X007042Y023500D01*
X007058Y023519D01*
X007077Y023535D01*
X007098Y023548D01*
X007120Y023557D01*
X007144Y023563D01*
X007169Y023565D01*
X007194Y023563D01*
X007218Y023557D01*
X007240Y023548D01*
X007261Y023535D01*
X007280Y023519D01*
X007296Y023500D01*
X007309Y023479D01*
X007318Y023457D01*
X007324Y023433D01*
X007326Y023408D01*
X007324Y023383D01*
X007318Y023359D01*
X007309Y023337D01*
X007296Y023316D01*
X007280Y023297D01*
X007261Y023281D01*
X007240Y023268D01*
X007218Y023259D01*
X007194Y023253D01*
X007169Y023251D01*
X007144Y023253D01*
X007120Y023259D01*
X007098Y023268D01*
X007077Y023281D01*
X007058Y023297D01*
X007042Y023316D01*
X007029Y023337D01*
X007020Y023359D01*
X007014Y023383D01*
X007012Y023408D01*
X007012Y020259D02*
X007014Y020284D01*
X007020Y020308D01*
X007029Y020330D01*
X007042Y020351D01*
X007058Y020370D01*
X007077Y020386D01*
X007098Y020399D01*
X007120Y020408D01*
X007144Y020414D01*
X007169Y020416D01*
X007194Y020414D01*
X007218Y020408D01*
X007240Y020399D01*
X007261Y020386D01*
X007280Y020370D01*
X007296Y020351D01*
X007309Y020330D01*
X007318Y020308D01*
X007324Y020284D01*
X007326Y020259D01*
X007324Y020234D01*
X007318Y020210D01*
X007309Y020188D01*
X007296Y020167D01*
X007280Y020148D01*
X007261Y020132D01*
X007240Y020119D01*
X007218Y020110D01*
X007194Y020104D01*
X007169Y020102D01*
X007144Y020104D01*
X007120Y020110D01*
X007098Y020119D01*
X007077Y020132D01*
X007058Y020148D01*
X007042Y020167D01*
X007029Y020188D01*
X007020Y020210D01*
X007014Y020234D01*
X007012Y020259D01*
X010162Y020259D02*
X010164Y020284D01*
X010170Y020308D01*
X010179Y020330D01*
X010192Y020351D01*
X010208Y020370D01*
X010227Y020386D01*
X010248Y020399D01*
X010270Y020408D01*
X010294Y020414D01*
X010319Y020416D01*
X010344Y020414D01*
X010368Y020408D01*
X010390Y020399D01*
X010411Y020386D01*
X010430Y020370D01*
X010446Y020351D01*
X010459Y020330D01*
X010468Y020308D01*
X010474Y020284D01*
X010476Y020259D01*
X010474Y020234D01*
X010468Y020210D01*
X010459Y020188D01*
X010446Y020167D01*
X010430Y020148D01*
X010411Y020132D01*
X010390Y020119D01*
X010368Y020110D01*
X010344Y020104D01*
X010319Y020102D01*
X010294Y020104D01*
X010270Y020110D01*
X010248Y020119D01*
X010227Y020132D01*
X010208Y020148D01*
X010192Y020167D01*
X010179Y020188D01*
X010170Y020210D01*
X010164Y020234D01*
X010162Y020259D01*
D18*
X008979Y020894D02*
X008492Y020894D01*
X008756Y022540D02*
X008756Y023027D01*
X008999Y022784D02*
X008512Y022784D01*
X020323Y022784D02*
X020810Y022784D01*
X020567Y023027D02*
X020567Y022540D01*
X020790Y020894D02*
X020303Y020894D01*
X032114Y020894D02*
X032601Y020894D01*
X032378Y022540D02*
X032378Y023027D01*
X032621Y022784D02*
X032134Y022784D01*
X043945Y022784D02*
X044432Y022784D01*
X044189Y023027D02*
X044189Y022540D01*
X044412Y020894D02*
X043925Y020894D01*
X044189Y011216D02*
X044189Y010729D01*
X044432Y010973D02*
X043945Y010973D01*
X043925Y009083D02*
X044412Y009083D01*
X032601Y009083D02*
X032114Y009083D01*
X032378Y010729D02*
X032378Y011216D01*
X032621Y010973D02*
X032134Y010973D01*
X020810Y010973D02*
X020323Y010973D01*
X020567Y011216D02*
X020567Y010729D01*
X020790Y009083D02*
X020303Y009083D01*
X008979Y009083D02*
X008492Y009083D01*
X008756Y010729D02*
X008756Y011216D01*
X008999Y010973D02*
X008512Y010973D01*
D19*
X012203Y003953D02*
X012203Y003770D01*
X012240Y003733D01*
X012313Y003733D01*
X012350Y003770D01*
X012350Y003953D01*
X012424Y003880D02*
X012497Y003953D01*
X012497Y003733D01*
X012424Y003733D02*
X012571Y003733D01*
X027372Y005073D02*
X027372Y002373D01*
X031172Y002373D01*
X032772Y002373D02*
X034172Y002373D01*
X034772Y002373D02*
X036572Y002373D01*
X036572Y005073D01*
X027372Y005073D01*
D20*
X027323Y005758D02*
X027113Y005758D01*
X027007Y005863D01*
X027113Y006074D02*
X027323Y006074D01*
X027428Y005968D01*
X027428Y005863D01*
X027323Y005758D01*
X027113Y006074D02*
X027007Y006179D01*
X027007Y006284D01*
X027113Y006389D01*
X027323Y006389D01*
X027428Y006284D01*
X027652Y006389D02*
X027652Y005968D01*
X027862Y005758D01*
X028072Y005968D01*
X028072Y006389D01*
X028297Y006179D02*
X028507Y006389D01*
X028507Y005758D01*
X028297Y005758D02*
X028717Y005758D01*
M02*
