%
M48
M72
T01C0.0236
T02C0.0240
T03C0.0315
T04C0.0320
T05C0.0360
T06C0.0394
T07C0.0400
T08C0.0472
T09C0.0630
T10C0.0866
%
T01
X4665Y27125
X13488Y23503
X14764Y20184
X17315Y18857
X22059Y16715
X25579Y20337
X29240Y18857
X35953Y23086
X34122Y27003
X38984Y20865
X44646Y16629
X39035Y10349
X37760Y7440
X28488Y10641
X25579Y9058
X24098Y11597
X22130Y12778
X19374Y12778
X16618Y10810
X16295Y9192
X14134Y11377
X12984Y12841
X11661Y13920
X8803Y13920
X6575Y13782
X6748Y12038
X4417Y13782
X2221Y11759
X2917Y8617
X6358Y6519
X9925Y7267
X12681Y8841
X13232Y7007
X16118Y6137
X13102Y3113
X7488Y3530
X3724Y3263
X26154Y2668
X26370Y1499
X32669Y15999
X45512Y3814
X44614Y27416
X24398Y24274
X22161Y26822
X11244Y27330
X2673Y21105
X6602Y19215
X9563Y17735
T02
X9780Y12784
X10880Y11904
X12090Y10694
X14510Y8384
X13960Y7504
X11100Y5854
X7030Y8604
X7470Y9704
X17260Y8714
X18470Y7504
X18360Y11904
X25510Y12894
X27600Y13884
X36620Y6514
X37610Y6074
X38820Y3764
X39370Y3764
X41570Y3874
X36070Y2774
X34530Y3764
X30900Y2114
X28920Y1344
X22100Y3984
X15830Y3764
X35850Y18064
T03
X8744Y7365
X8744Y12680
X8744Y19176
X8744Y24491
X20555Y24491
X20555Y19176
X20555Y12680
X20555Y7365
X32366Y7365
X32366Y12680
X32366Y19176
X32366Y24491
X44177Y24491
X44177Y19176
X44177Y12680
X44177Y7365
T04
X2488Y2223
X3488Y2223
X4488Y2223
X5488Y2223
X6488Y2223
X7488Y2223
X8488Y2223
X9488Y2223
X11693Y2223
X12693Y2223
X13693Y2223
X14693Y2223
X15693Y2223
X16693Y2223
X17693Y2223
X18693Y2223
X19693Y2223
X20693Y2223
X21693Y2223
X22693Y2223
X23693Y2223
X24693Y2223
X24693Y5223
X23693Y5223
X22693Y5223
X21693Y5223
X20693Y5223
X19693Y5223
X18693Y5223
X17693Y5223
X16693Y5223
X15693Y5223
X14693Y5223
X13693Y5223
X12693Y5223
X11693Y5223
X9488Y5223
X8488Y5223
X7488Y5223
X6488Y5223
X5488Y5223
X4488Y5223
X3488Y5223
X2488Y5223
X14728Y6652
X16728Y6652
X17728Y6652
X19728Y6652
X39051Y5322
X40051Y5322
X41051Y5322
X42051Y5322
X43051Y5322
X44051Y5322
X45051Y5322
X46051Y5322
X46051Y2322
X45051Y2322
X44051Y2322
X43051Y2322
X42051Y2322
X41051Y2322
X40051Y2322
X39051Y2322
T05
X34972Y4223
X33972Y4223
X32972Y4223
X31972Y4223
X30972Y4223
X29972Y4223
X28972Y4223
X28972Y3223
X29972Y3223
X30972Y3223
X31972Y3223
X32972Y3223
X33972Y3223
X34972Y3223
T06
X5398Y12582
X4413Y12582
X3429Y12582
X5398Y24393
X4413Y24393
X3429Y24393
X15240Y24393
X16224Y24393
X17209Y24393
X27051Y24393
X28035Y24393
X29020Y24393
X38862Y24393
X39847Y24393
X40831Y24393
X40831Y12582
X39847Y12582
X38862Y12582
X29020Y12582
X28035Y12582
X27051Y12582
X17209Y12582
X16224Y12582
X15240Y12582
T07
X24539Y7334
T08
X6284Y22818
X6284Y20849
X11205Y20849
X11205Y22818
X18095Y22818
X23016Y22818
X23016Y20849
X18095Y20849
X29906Y20849
X34827Y20849
X34827Y22818
X29906Y22818
X41717Y22818
X46638Y22818
X46638Y20849
X41717Y20849
X41717Y11007
X41717Y9038
X46638Y9038
X46638Y11007
X34827Y11007
X29906Y11007
X29906Y9038
X34827Y9038
X23016Y9038
X18095Y9038
X18095Y11007
X23016Y11007
X11205Y11007
X6284Y11007
X6284Y9038
X11205Y9038
T09
X8744Y8251
X8744Y11794
X20555Y11794
X20555Y8251
X32366Y8251
X32366Y11794
X44177Y11794
X44177Y8251
X44177Y20062
X44177Y23605
X32366Y23605
X32366Y20062
X20555Y20062
X20555Y23605
X8744Y23605
X8744Y20062
T10
X2248Y27345
X6579Y27345
X14059Y27345
X18390Y27345
X18390Y15534
X14059Y15534
X6579Y15534
X2248Y15534
X25870Y15534
X30201Y15534
X37681Y15534
X42012Y15534
X42012Y27345
X37681Y27345
X30201Y27345
X25870Y27345
M30
