G75*
%MOIN*%
%OFA0B0*%
%FSLAX24Y24*%
%IPPOS*%
%LPD*%
%AMOC8*
5,1,8,0,0,1.08239X$1,22.5*
%
%ADD10C,0.0000*%
%ADD11C,0.0600*%
%ADD12OC8,0.0600*%
%ADD13OC8,0.0930*%
%ADD14C,0.0930*%
%ADD15C,0.0740*%
%ADD16C,0.0710*%
%ADD17OC8,0.0640*%
%ADD18R,0.0674X0.0674*%
%ADD19R,0.1346X0.1346*%
%ADD20R,0.0476X0.0476*%
%ADD21C,0.0480*%
D10*
X000870Y000574D02*
X000870Y030101D01*
X047721Y030101D01*
X047721Y000574D01*
X000870Y000574D01*
X008429Y008251D02*
X008431Y008286D01*
X008437Y008321D01*
X008447Y008355D01*
X008460Y008388D01*
X008477Y008419D01*
X008498Y008447D01*
X008521Y008474D01*
X008548Y008497D01*
X008576Y008518D01*
X008607Y008535D01*
X008640Y008548D01*
X008674Y008558D01*
X008709Y008564D01*
X008744Y008566D01*
X008779Y008564D01*
X008814Y008558D01*
X008848Y008548D01*
X008881Y008535D01*
X008912Y008518D01*
X008940Y008497D01*
X008967Y008474D01*
X008990Y008447D01*
X009011Y008419D01*
X009028Y008388D01*
X009041Y008355D01*
X009051Y008321D01*
X009057Y008286D01*
X009059Y008251D01*
X009057Y008216D01*
X009051Y008181D01*
X009041Y008147D01*
X009028Y008114D01*
X009011Y008083D01*
X008990Y008055D01*
X008967Y008028D01*
X008940Y008005D01*
X008912Y007984D01*
X008881Y007967D01*
X008848Y007954D01*
X008814Y007944D01*
X008779Y007938D01*
X008744Y007936D01*
X008709Y007938D01*
X008674Y007944D01*
X008640Y007954D01*
X008607Y007967D01*
X008576Y007984D01*
X008548Y008005D01*
X008521Y008028D01*
X008498Y008055D01*
X008477Y008083D01*
X008460Y008114D01*
X008447Y008147D01*
X008437Y008181D01*
X008431Y008216D01*
X008429Y008251D01*
X008429Y011794D02*
X008431Y011829D01*
X008437Y011864D01*
X008447Y011898D01*
X008460Y011931D01*
X008477Y011962D01*
X008498Y011990D01*
X008521Y012017D01*
X008548Y012040D01*
X008576Y012061D01*
X008607Y012078D01*
X008640Y012091D01*
X008674Y012101D01*
X008709Y012107D01*
X008744Y012109D01*
X008779Y012107D01*
X008814Y012101D01*
X008848Y012091D01*
X008881Y012078D01*
X008912Y012061D01*
X008940Y012040D01*
X008967Y012017D01*
X008990Y011990D01*
X009011Y011962D01*
X009028Y011931D01*
X009041Y011898D01*
X009051Y011864D01*
X009057Y011829D01*
X009059Y011794D01*
X009057Y011759D01*
X009051Y011724D01*
X009041Y011690D01*
X009028Y011657D01*
X009011Y011626D01*
X008990Y011598D01*
X008967Y011571D01*
X008940Y011548D01*
X008912Y011527D01*
X008881Y011510D01*
X008848Y011497D01*
X008814Y011487D01*
X008779Y011481D01*
X008744Y011479D01*
X008709Y011481D01*
X008674Y011487D01*
X008640Y011497D01*
X008607Y011510D01*
X008576Y011527D01*
X008548Y011548D01*
X008521Y011571D01*
X008498Y011598D01*
X008477Y011626D01*
X008460Y011657D01*
X008447Y011690D01*
X008437Y011724D01*
X008431Y011759D01*
X008429Y011794D01*
X020240Y011794D02*
X020242Y011829D01*
X020248Y011864D01*
X020258Y011898D01*
X020271Y011931D01*
X020288Y011962D01*
X020309Y011990D01*
X020332Y012017D01*
X020359Y012040D01*
X020387Y012061D01*
X020418Y012078D01*
X020451Y012091D01*
X020485Y012101D01*
X020520Y012107D01*
X020555Y012109D01*
X020590Y012107D01*
X020625Y012101D01*
X020659Y012091D01*
X020692Y012078D01*
X020723Y012061D01*
X020751Y012040D01*
X020778Y012017D01*
X020801Y011990D01*
X020822Y011962D01*
X020839Y011931D01*
X020852Y011898D01*
X020862Y011864D01*
X020868Y011829D01*
X020870Y011794D01*
X020868Y011759D01*
X020862Y011724D01*
X020852Y011690D01*
X020839Y011657D01*
X020822Y011626D01*
X020801Y011598D01*
X020778Y011571D01*
X020751Y011548D01*
X020723Y011527D01*
X020692Y011510D01*
X020659Y011497D01*
X020625Y011487D01*
X020590Y011481D01*
X020555Y011479D01*
X020520Y011481D01*
X020485Y011487D01*
X020451Y011497D01*
X020418Y011510D01*
X020387Y011527D01*
X020359Y011548D01*
X020332Y011571D01*
X020309Y011598D01*
X020288Y011626D01*
X020271Y011657D01*
X020258Y011690D01*
X020248Y011724D01*
X020242Y011759D01*
X020240Y011794D01*
X020240Y008251D02*
X020242Y008286D01*
X020248Y008321D01*
X020258Y008355D01*
X020271Y008388D01*
X020288Y008419D01*
X020309Y008447D01*
X020332Y008474D01*
X020359Y008497D01*
X020387Y008518D01*
X020418Y008535D01*
X020451Y008548D01*
X020485Y008558D01*
X020520Y008564D01*
X020555Y008566D01*
X020590Y008564D01*
X020625Y008558D01*
X020659Y008548D01*
X020692Y008535D01*
X020723Y008518D01*
X020751Y008497D01*
X020778Y008474D01*
X020801Y008447D01*
X020822Y008419D01*
X020839Y008388D01*
X020852Y008355D01*
X020862Y008321D01*
X020868Y008286D01*
X020870Y008251D01*
X020868Y008216D01*
X020862Y008181D01*
X020852Y008147D01*
X020839Y008114D01*
X020822Y008083D01*
X020801Y008055D01*
X020778Y008028D01*
X020751Y008005D01*
X020723Y007984D01*
X020692Y007967D01*
X020659Y007954D01*
X020625Y007944D01*
X020590Y007938D01*
X020555Y007936D01*
X020520Y007938D01*
X020485Y007944D01*
X020451Y007954D01*
X020418Y007967D01*
X020387Y007984D01*
X020359Y008005D01*
X020332Y008028D01*
X020309Y008055D01*
X020288Y008083D01*
X020271Y008114D01*
X020258Y008147D01*
X020248Y008181D01*
X020242Y008216D01*
X020240Y008251D01*
X032051Y008251D02*
X032053Y008286D01*
X032059Y008321D01*
X032069Y008355D01*
X032082Y008388D01*
X032099Y008419D01*
X032120Y008447D01*
X032143Y008474D01*
X032170Y008497D01*
X032198Y008518D01*
X032229Y008535D01*
X032262Y008548D01*
X032296Y008558D01*
X032331Y008564D01*
X032366Y008566D01*
X032401Y008564D01*
X032436Y008558D01*
X032470Y008548D01*
X032503Y008535D01*
X032534Y008518D01*
X032562Y008497D01*
X032589Y008474D01*
X032612Y008447D01*
X032633Y008419D01*
X032650Y008388D01*
X032663Y008355D01*
X032673Y008321D01*
X032679Y008286D01*
X032681Y008251D01*
X032679Y008216D01*
X032673Y008181D01*
X032663Y008147D01*
X032650Y008114D01*
X032633Y008083D01*
X032612Y008055D01*
X032589Y008028D01*
X032562Y008005D01*
X032534Y007984D01*
X032503Y007967D01*
X032470Y007954D01*
X032436Y007944D01*
X032401Y007938D01*
X032366Y007936D01*
X032331Y007938D01*
X032296Y007944D01*
X032262Y007954D01*
X032229Y007967D01*
X032198Y007984D01*
X032170Y008005D01*
X032143Y008028D01*
X032120Y008055D01*
X032099Y008083D01*
X032082Y008114D01*
X032069Y008147D01*
X032059Y008181D01*
X032053Y008216D01*
X032051Y008251D01*
X032051Y011794D02*
X032053Y011829D01*
X032059Y011864D01*
X032069Y011898D01*
X032082Y011931D01*
X032099Y011962D01*
X032120Y011990D01*
X032143Y012017D01*
X032170Y012040D01*
X032198Y012061D01*
X032229Y012078D01*
X032262Y012091D01*
X032296Y012101D01*
X032331Y012107D01*
X032366Y012109D01*
X032401Y012107D01*
X032436Y012101D01*
X032470Y012091D01*
X032503Y012078D01*
X032534Y012061D01*
X032562Y012040D01*
X032589Y012017D01*
X032612Y011990D01*
X032633Y011962D01*
X032650Y011931D01*
X032663Y011898D01*
X032673Y011864D01*
X032679Y011829D01*
X032681Y011794D01*
X032679Y011759D01*
X032673Y011724D01*
X032663Y011690D01*
X032650Y011657D01*
X032633Y011626D01*
X032612Y011598D01*
X032589Y011571D01*
X032562Y011548D01*
X032534Y011527D01*
X032503Y011510D01*
X032470Y011497D01*
X032436Y011487D01*
X032401Y011481D01*
X032366Y011479D01*
X032331Y011481D01*
X032296Y011487D01*
X032262Y011497D01*
X032229Y011510D01*
X032198Y011527D01*
X032170Y011548D01*
X032143Y011571D01*
X032120Y011598D01*
X032099Y011626D01*
X032082Y011657D01*
X032069Y011690D01*
X032059Y011724D01*
X032053Y011759D01*
X032051Y011794D01*
X043862Y011794D02*
X043864Y011829D01*
X043870Y011864D01*
X043880Y011898D01*
X043893Y011931D01*
X043910Y011962D01*
X043931Y011990D01*
X043954Y012017D01*
X043981Y012040D01*
X044009Y012061D01*
X044040Y012078D01*
X044073Y012091D01*
X044107Y012101D01*
X044142Y012107D01*
X044177Y012109D01*
X044212Y012107D01*
X044247Y012101D01*
X044281Y012091D01*
X044314Y012078D01*
X044345Y012061D01*
X044373Y012040D01*
X044400Y012017D01*
X044423Y011990D01*
X044444Y011962D01*
X044461Y011931D01*
X044474Y011898D01*
X044484Y011864D01*
X044490Y011829D01*
X044492Y011794D01*
X044490Y011759D01*
X044484Y011724D01*
X044474Y011690D01*
X044461Y011657D01*
X044444Y011626D01*
X044423Y011598D01*
X044400Y011571D01*
X044373Y011548D01*
X044345Y011527D01*
X044314Y011510D01*
X044281Y011497D01*
X044247Y011487D01*
X044212Y011481D01*
X044177Y011479D01*
X044142Y011481D01*
X044107Y011487D01*
X044073Y011497D01*
X044040Y011510D01*
X044009Y011527D01*
X043981Y011548D01*
X043954Y011571D01*
X043931Y011598D01*
X043910Y011626D01*
X043893Y011657D01*
X043880Y011690D01*
X043870Y011724D01*
X043864Y011759D01*
X043862Y011794D01*
X043862Y008251D02*
X043864Y008286D01*
X043870Y008321D01*
X043880Y008355D01*
X043893Y008388D01*
X043910Y008419D01*
X043931Y008447D01*
X043954Y008474D01*
X043981Y008497D01*
X044009Y008518D01*
X044040Y008535D01*
X044073Y008548D01*
X044107Y008558D01*
X044142Y008564D01*
X044177Y008566D01*
X044212Y008564D01*
X044247Y008558D01*
X044281Y008548D01*
X044314Y008535D01*
X044345Y008518D01*
X044373Y008497D01*
X044400Y008474D01*
X044423Y008447D01*
X044444Y008419D01*
X044461Y008388D01*
X044474Y008355D01*
X044484Y008321D01*
X044490Y008286D01*
X044492Y008251D01*
X044490Y008216D01*
X044484Y008181D01*
X044474Y008147D01*
X044461Y008114D01*
X044444Y008083D01*
X044423Y008055D01*
X044400Y008028D01*
X044373Y008005D01*
X044345Y007984D01*
X044314Y007967D01*
X044281Y007954D01*
X044247Y007944D01*
X044212Y007938D01*
X044177Y007936D01*
X044142Y007938D01*
X044107Y007944D01*
X044073Y007954D01*
X044040Y007967D01*
X044009Y007984D01*
X043981Y008005D01*
X043954Y008028D01*
X043931Y008055D01*
X043910Y008083D01*
X043893Y008114D01*
X043880Y008147D01*
X043870Y008181D01*
X043864Y008216D01*
X043862Y008251D01*
X043862Y020062D02*
X043864Y020097D01*
X043870Y020132D01*
X043880Y020166D01*
X043893Y020199D01*
X043910Y020230D01*
X043931Y020258D01*
X043954Y020285D01*
X043981Y020308D01*
X044009Y020329D01*
X044040Y020346D01*
X044073Y020359D01*
X044107Y020369D01*
X044142Y020375D01*
X044177Y020377D01*
X044212Y020375D01*
X044247Y020369D01*
X044281Y020359D01*
X044314Y020346D01*
X044345Y020329D01*
X044373Y020308D01*
X044400Y020285D01*
X044423Y020258D01*
X044444Y020230D01*
X044461Y020199D01*
X044474Y020166D01*
X044484Y020132D01*
X044490Y020097D01*
X044492Y020062D01*
X044490Y020027D01*
X044484Y019992D01*
X044474Y019958D01*
X044461Y019925D01*
X044444Y019894D01*
X044423Y019866D01*
X044400Y019839D01*
X044373Y019816D01*
X044345Y019795D01*
X044314Y019778D01*
X044281Y019765D01*
X044247Y019755D01*
X044212Y019749D01*
X044177Y019747D01*
X044142Y019749D01*
X044107Y019755D01*
X044073Y019765D01*
X044040Y019778D01*
X044009Y019795D01*
X043981Y019816D01*
X043954Y019839D01*
X043931Y019866D01*
X043910Y019894D01*
X043893Y019925D01*
X043880Y019958D01*
X043870Y019992D01*
X043864Y020027D01*
X043862Y020062D01*
X043862Y023605D02*
X043864Y023640D01*
X043870Y023675D01*
X043880Y023709D01*
X043893Y023742D01*
X043910Y023773D01*
X043931Y023801D01*
X043954Y023828D01*
X043981Y023851D01*
X044009Y023872D01*
X044040Y023889D01*
X044073Y023902D01*
X044107Y023912D01*
X044142Y023918D01*
X044177Y023920D01*
X044212Y023918D01*
X044247Y023912D01*
X044281Y023902D01*
X044314Y023889D01*
X044345Y023872D01*
X044373Y023851D01*
X044400Y023828D01*
X044423Y023801D01*
X044444Y023773D01*
X044461Y023742D01*
X044474Y023709D01*
X044484Y023675D01*
X044490Y023640D01*
X044492Y023605D01*
X044490Y023570D01*
X044484Y023535D01*
X044474Y023501D01*
X044461Y023468D01*
X044444Y023437D01*
X044423Y023409D01*
X044400Y023382D01*
X044373Y023359D01*
X044345Y023338D01*
X044314Y023321D01*
X044281Y023308D01*
X044247Y023298D01*
X044212Y023292D01*
X044177Y023290D01*
X044142Y023292D01*
X044107Y023298D01*
X044073Y023308D01*
X044040Y023321D01*
X044009Y023338D01*
X043981Y023359D01*
X043954Y023382D01*
X043931Y023409D01*
X043910Y023437D01*
X043893Y023468D01*
X043880Y023501D01*
X043870Y023535D01*
X043864Y023570D01*
X043862Y023605D01*
X032051Y023605D02*
X032053Y023640D01*
X032059Y023675D01*
X032069Y023709D01*
X032082Y023742D01*
X032099Y023773D01*
X032120Y023801D01*
X032143Y023828D01*
X032170Y023851D01*
X032198Y023872D01*
X032229Y023889D01*
X032262Y023902D01*
X032296Y023912D01*
X032331Y023918D01*
X032366Y023920D01*
X032401Y023918D01*
X032436Y023912D01*
X032470Y023902D01*
X032503Y023889D01*
X032534Y023872D01*
X032562Y023851D01*
X032589Y023828D01*
X032612Y023801D01*
X032633Y023773D01*
X032650Y023742D01*
X032663Y023709D01*
X032673Y023675D01*
X032679Y023640D01*
X032681Y023605D01*
X032679Y023570D01*
X032673Y023535D01*
X032663Y023501D01*
X032650Y023468D01*
X032633Y023437D01*
X032612Y023409D01*
X032589Y023382D01*
X032562Y023359D01*
X032534Y023338D01*
X032503Y023321D01*
X032470Y023308D01*
X032436Y023298D01*
X032401Y023292D01*
X032366Y023290D01*
X032331Y023292D01*
X032296Y023298D01*
X032262Y023308D01*
X032229Y023321D01*
X032198Y023338D01*
X032170Y023359D01*
X032143Y023382D01*
X032120Y023409D01*
X032099Y023437D01*
X032082Y023468D01*
X032069Y023501D01*
X032059Y023535D01*
X032053Y023570D01*
X032051Y023605D01*
X032051Y020062D02*
X032053Y020097D01*
X032059Y020132D01*
X032069Y020166D01*
X032082Y020199D01*
X032099Y020230D01*
X032120Y020258D01*
X032143Y020285D01*
X032170Y020308D01*
X032198Y020329D01*
X032229Y020346D01*
X032262Y020359D01*
X032296Y020369D01*
X032331Y020375D01*
X032366Y020377D01*
X032401Y020375D01*
X032436Y020369D01*
X032470Y020359D01*
X032503Y020346D01*
X032534Y020329D01*
X032562Y020308D01*
X032589Y020285D01*
X032612Y020258D01*
X032633Y020230D01*
X032650Y020199D01*
X032663Y020166D01*
X032673Y020132D01*
X032679Y020097D01*
X032681Y020062D01*
X032679Y020027D01*
X032673Y019992D01*
X032663Y019958D01*
X032650Y019925D01*
X032633Y019894D01*
X032612Y019866D01*
X032589Y019839D01*
X032562Y019816D01*
X032534Y019795D01*
X032503Y019778D01*
X032470Y019765D01*
X032436Y019755D01*
X032401Y019749D01*
X032366Y019747D01*
X032331Y019749D01*
X032296Y019755D01*
X032262Y019765D01*
X032229Y019778D01*
X032198Y019795D01*
X032170Y019816D01*
X032143Y019839D01*
X032120Y019866D01*
X032099Y019894D01*
X032082Y019925D01*
X032069Y019958D01*
X032059Y019992D01*
X032053Y020027D01*
X032051Y020062D01*
X020240Y020062D02*
X020242Y020097D01*
X020248Y020132D01*
X020258Y020166D01*
X020271Y020199D01*
X020288Y020230D01*
X020309Y020258D01*
X020332Y020285D01*
X020359Y020308D01*
X020387Y020329D01*
X020418Y020346D01*
X020451Y020359D01*
X020485Y020369D01*
X020520Y020375D01*
X020555Y020377D01*
X020590Y020375D01*
X020625Y020369D01*
X020659Y020359D01*
X020692Y020346D01*
X020723Y020329D01*
X020751Y020308D01*
X020778Y020285D01*
X020801Y020258D01*
X020822Y020230D01*
X020839Y020199D01*
X020852Y020166D01*
X020862Y020132D01*
X020868Y020097D01*
X020870Y020062D01*
X020868Y020027D01*
X020862Y019992D01*
X020852Y019958D01*
X020839Y019925D01*
X020822Y019894D01*
X020801Y019866D01*
X020778Y019839D01*
X020751Y019816D01*
X020723Y019795D01*
X020692Y019778D01*
X020659Y019765D01*
X020625Y019755D01*
X020590Y019749D01*
X020555Y019747D01*
X020520Y019749D01*
X020485Y019755D01*
X020451Y019765D01*
X020418Y019778D01*
X020387Y019795D01*
X020359Y019816D01*
X020332Y019839D01*
X020309Y019866D01*
X020288Y019894D01*
X020271Y019925D01*
X020258Y019958D01*
X020248Y019992D01*
X020242Y020027D01*
X020240Y020062D01*
X020240Y023605D02*
X020242Y023640D01*
X020248Y023675D01*
X020258Y023709D01*
X020271Y023742D01*
X020288Y023773D01*
X020309Y023801D01*
X020332Y023828D01*
X020359Y023851D01*
X020387Y023872D01*
X020418Y023889D01*
X020451Y023902D01*
X020485Y023912D01*
X020520Y023918D01*
X020555Y023920D01*
X020590Y023918D01*
X020625Y023912D01*
X020659Y023902D01*
X020692Y023889D01*
X020723Y023872D01*
X020751Y023851D01*
X020778Y023828D01*
X020801Y023801D01*
X020822Y023773D01*
X020839Y023742D01*
X020852Y023709D01*
X020862Y023675D01*
X020868Y023640D01*
X020870Y023605D01*
X020868Y023570D01*
X020862Y023535D01*
X020852Y023501D01*
X020839Y023468D01*
X020822Y023437D01*
X020801Y023409D01*
X020778Y023382D01*
X020751Y023359D01*
X020723Y023338D01*
X020692Y023321D01*
X020659Y023308D01*
X020625Y023298D01*
X020590Y023292D01*
X020555Y023290D01*
X020520Y023292D01*
X020485Y023298D01*
X020451Y023308D01*
X020418Y023321D01*
X020387Y023338D01*
X020359Y023359D01*
X020332Y023382D01*
X020309Y023409D01*
X020288Y023437D01*
X020271Y023468D01*
X020258Y023501D01*
X020248Y023535D01*
X020242Y023570D01*
X020240Y023605D01*
X008429Y023605D02*
X008431Y023640D01*
X008437Y023675D01*
X008447Y023709D01*
X008460Y023742D01*
X008477Y023773D01*
X008498Y023801D01*
X008521Y023828D01*
X008548Y023851D01*
X008576Y023872D01*
X008607Y023889D01*
X008640Y023902D01*
X008674Y023912D01*
X008709Y023918D01*
X008744Y023920D01*
X008779Y023918D01*
X008814Y023912D01*
X008848Y023902D01*
X008881Y023889D01*
X008912Y023872D01*
X008940Y023851D01*
X008967Y023828D01*
X008990Y023801D01*
X009011Y023773D01*
X009028Y023742D01*
X009041Y023709D01*
X009051Y023675D01*
X009057Y023640D01*
X009059Y023605D01*
X009057Y023570D01*
X009051Y023535D01*
X009041Y023501D01*
X009028Y023468D01*
X009011Y023437D01*
X008990Y023409D01*
X008967Y023382D01*
X008940Y023359D01*
X008912Y023338D01*
X008881Y023321D01*
X008848Y023308D01*
X008814Y023298D01*
X008779Y023292D01*
X008744Y023290D01*
X008709Y023292D01*
X008674Y023298D01*
X008640Y023308D01*
X008607Y023321D01*
X008576Y023338D01*
X008548Y023359D01*
X008521Y023382D01*
X008498Y023409D01*
X008477Y023437D01*
X008460Y023468D01*
X008447Y023501D01*
X008437Y023535D01*
X008431Y023570D01*
X008429Y023605D01*
X008429Y020062D02*
X008431Y020097D01*
X008437Y020132D01*
X008447Y020166D01*
X008460Y020199D01*
X008477Y020230D01*
X008498Y020258D01*
X008521Y020285D01*
X008548Y020308D01*
X008576Y020329D01*
X008607Y020346D01*
X008640Y020359D01*
X008674Y020369D01*
X008709Y020375D01*
X008744Y020377D01*
X008779Y020375D01*
X008814Y020369D01*
X008848Y020359D01*
X008881Y020346D01*
X008912Y020329D01*
X008940Y020308D01*
X008967Y020285D01*
X008990Y020258D01*
X009011Y020230D01*
X009028Y020199D01*
X009041Y020166D01*
X009051Y020132D01*
X009057Y020097D01*
X009059Y020062D01*
X009057Y020027D01*
X009051Y019992D01*
X009041Y019958D01*
X009028Y019925D01*
X009011Y019894D01*
X008990Y019866D01*
X008967Y019839D01*
X008940Y019816D01*
X008912Y019795D01*
X008881Y019778D01*
X008848Y019765D01*
X008814Y019755D01*
X008779Y019749D01*
X008744Y019747D01*
X008709Y019749D01*
X008674Y019755D01*
X008640Y019765D01*
X008607Y019778D01*
X008576Y019795D01*
X008548Y019816D01*
X008521Y019839D01*
X008498Y019866D01*
X008477Y019894D01*
X008460Y019925D01*
X008447Y019958D01*
X008437Y019992D01*
X008431Y020027D01*
X008429Y020062D01*
D11*
X008488Y005483D02*
X008488Y004963D01*
X007488Y004963D02*
X007488Y005483D01*
X006488Y005483D02*
X006488Y004963D01*
X005488Y004963D02*
X005488Y005483D01*
X004488Y005483D02*
X004488Y004963D01*
X003488Y004963D02*
X003488Y005483D01*
X002488Y005483D02*
X002488Y004963D01*
X002488Y002483D02*
X002488Y001963D01*
X003488Y001963D02*
X003488Y002483D01*
X004488Y002483D02*
X004488Y001963D01*
X005488Y001963D02*
X005488Y002483D01*
X006488Y002483D02*
X006488Y001963D01*
X007488Y001963D02*
X007488Y002483D01*
X008488Y002483D02*
X008488Y001963D01*
X009488Y001963D02*
X009488Y002483D01*
X011693Y002483D02*
X011693Y001963D01*
X012693Y001963D02*
X012693Y002483D01*
X013693Y002483D02*
X013693Y001963D01*
X014693Y001963D02*
X014693Y002483D01*
X015693Y002483D02*
X015693Y001963D01*
X016693Y001963D02*
X016693Y002483D01*
X017693Y002483D02*
X017693Y001963D01*
X018693Y001963D02*
X018693Y002483D01*
X019693Y002483D02*
X019693Y001963D01*
X020693Y001963D02*
X020693Y002483D01*
X021693Y002483D02*
X021693Y001963D01*
X022693Y001963D02*
X022693Y002483D01*
X023693Y002483D02*
X023693Y001963D01*
X024693Y001963D02*
X024693Y002483D01*
X024693Y004963D02*
X024693Y005483D01*
X023693Y005483D02*
X023693Y004963D01*
X022693Y004963D02*
X022693Y005483D01*
X021693Y005483D02*
X021693Y004963D01*
X020693Y004963D02*
X020693Y005483D01*
X019693Y005483D02*
X019693Y004963D01*
X018693Y004963D02*
X018693Y005483D01*
X017693Y005483D02*
X017693Y004963D01*
X016693Y004963D02*
X016693Y005483D01*
X015693Y005483D02*
X015693Y004963D01*
X014693Y004963D02*
X014693Y005483D01*
X013693Y005483D02*
X013693Y004963D01*
X012693Y004963D02*
X012693Y005483D01*
X011693Y005483D02*
X011693Y004963D01*
X009488Y004963D02*
X009488Y005483D01*
X039051Y005582D02*
X039051Y005062D01*
X040051Y005062D02*
X040051Y005582D01*
X041051Y005582D02*
X041051Y005062D01*
X042051Y005062D02*
X042051Y005582D01*
X043051Y005582D02*
X043051Y005062D01*
X044051Y005062D02*
X044051Y005582D01*
X045051Y005582D02*
X045051Y005062D01*
X046051Y005062D02*
X046051Y005582D01*
X046051Y002582D02*
X046051Y002062D01*
X045051Y002062D02*
X045051Y002582D01*
X044051Y002582D02*
X044051Y002062D01*
X043051Y002062D02*
X043051Y002582D01*
X042051Y002582D02*
X042051Y002062D01*
X041051Y002062D02*
X041051Y002582D01*
X040051Y002582D02*
X040051Y002062D01*
X039051Y002062D02*
X039051Y002582D01*
D12*
X019728Y006652D03*
X017728Y006652D03*
X016728Y006652D03*
X014728Y006652D03*
D13*
X024539Y007334D03*
D14*
X023016Y009038D03*
X023016Y011007D03*
X018095Y011007D03*
X018095Y009038D03*
X011205Y009038D03*
X011205Y011007D03*
X006284Y011007D03*
X006284Y009038D03*
X006284Y020849D03*
X006284Y022818D03*
X011205Y022818D03*
X011205Y020849D03*
X018095Y020849D03*
X018095Y022818D03*
X023016Y022818D03*
X023016Y020849D03*
X029906Y020849D03*
X029906Y022818D03*
X034827Y022818D03*
X034827Y020849D03*
X041717Y020849D03*
X041717Y022818D03*
X046638Y022818D03*
X046638Y020849D03*
X046638Y011007D03*
X046638Y009038D03*
X041717Y009038D03*
X041717Y011007D03*
X034827Y011007D03*
X034827Y009038D03*
X029906Y009038D03*
X029906Y011007D03*
D15*
X032366Y012680D03*
X032366Y007365D03*
X020555Y007365D03*
X020555Y012680D03*
X020555Y019176D03*
X020555Y024491D03*
X008744Y024491D03*
X008744Y019176D03*
X008744Y012680D03*
X008744Y007365D03*
X032366Y019176D03*
X032366Y024491D03*
X044177Y024491D03*
X044177Y019176D03*
X044177Y012680D03*
X044177Y007365D03*
D16*
X044177Y008251D03*
X044177Y011794D03*
X032366Y011794D03*
X032366Y008251D03*
X020555Y008251D03*
X020555Y011794D03*
X008744Y011794D03*
X008744Y008251D03*
X008744Y020062D03*
X008744Y023605D03*
X020555Y023605D03*
X020555Y020062D03*
X032366Y020062D03*
X032366Y023605D03*
X044177Y023605D03*
X044177Y020062D03*
D17*
X034972Y004223D03*
X033972Y004223D03*
X032972Y004223D03*
X031972Y004223D03*
X030972Y004223D03*
X029972Y004223D03*
X028972Y004223D03*
X028972Y003223D03*
X029972Y003223D03*
X030972Y003223D03*
X031972Y003223D03*
X032972Y003223D03*
X033972Y003223D03*
X034972Y003223D03*
D18*
X038862Y012582D03*
X039847Y012582D03*
X040831Y012582D03*
X029020Y012582D03*
X028035Y012582D03*
X027051Y012582D03*
X017209Y012582D03*
X016224Y012582D03*
X015240Y012582D03*
X005398Y012582D03*
X004413Y012582D03*
X003429Y012582D03*
X003429Y024393D03*
X004413Y024393D03*
X005398Y024393D03*
X015240Y024393D03*
X016224Y024393D03*
X017209Y024393D03*
X027051Y024393D03*
X028035Y024393D03*
X029020Y024393D03*
X038862Y024393D03*
X039847Y024393D03*
X040831Y024393D03*
D19*
X042012Y027345D03*
X037681Y027345D03*
X030201Y027345D03*
X025870Y027345D03*
X018390Y027345D03*
X014059Y027345D03*
X006579Y027345D03*
X002248Y027345D03*
X002248Y015534D03*
X006579Y015534D03*
X014059Y015534D03*
X018390Y015534D03*
X025870Y015534D03*
X030201Y015534D03*
X037681Y015534D03*
X042012Y015534D03*
D20*
X044646Y016629D03*
X038984Y020865D03*
X035953Y023086D03*
X034122Y027003D03*
X024398Y024274D03*
X022161Y026822D03*
X013488Y023503D03*
X014764Y020184D03*
X017315Y018857D03*
X022059Y016715D03*
X025579Y020337D03*
X029240Y018857D03*
X032669Y015999D03*
X028488Y010641D03*
X025579Y009058D03*
X024098Y011597D03*
X022130Y012778D03*
X019374Y012778D03*
X016618Y010810D03*
X016295Y009192D03*
X014134Y011377D03*
X012984Y012841D03*
X011661Y013920D03*
X008803Y013920D03*
X006575Y013782D03*
X006748Y012038D03*
X004417Y013782D03*
X002221Y011759D03*
X002917Y008617D03*
X006358Y006519D03*
X009925Y007267D03*
X012681Y008841D03*
X013232Y007007D03*
X016118Y006137D03*
X013102Y003113D03*
X007488Y003530D03*
X003724Y003263D03*
X026154Y002668D03*
X026370Y001499D03*
X037760Y007440D03*
X039035Y010349D03*
X045512Y003814D03*
X009563Y017735D03*
X006602Y019215D03*
X002673Y021105D03*
X004665Y027125D03*
X011244Y027330D03*
X044614Y027416D03*
D21*
X035850Y018064D03*
X027600Y013884D03*
X025510Y012894D03*
X018360Y011904D03*
X017260Y008714D03*
X018470Y007504D03*
X014510Y008384D03*
X013960Y007504D03*
X011100Y005854D03*
X007030Y008604D03*
X007470Y009704D03*
X010880Y011904D03*
X009780Y012784D03*
X012090Y010694D03*
X022100Y003984D03*
X015830Y003764D03*
X028920Y001344D03*
X030900Y002114D03*
X034530Y003764D03*
X036070Y002774D03*
X038820Y003764D03*
X039370Y003764D03*
X041570Y003874D03*
X037610Y006074D03*
X036620Y006514D03*
M02*
