G75*
%MOIN*%
%OFA0B0*%
%FSLAX24Y24*%
%IPPOS*%
%LPD*%
%AMOC8*
5,1,8,0,0,1.08239X$1,22.5*
%
%ADD10C,0.0000*%
D10*
X000870Y000574D02*
X000870Y030101D01*
X047721Y030101D01*
X047721Y000574D01*
X000870Y000574D01*
X008429Y008251D02*
X008431Y008286D01*
X008437Y008321D01*
X008447Y008355D01*
X008460Y008388D01*
X008477Y008419D01*
X008498Y008447D01*
X008521Y008474D01*
X008548Y008497D01*
X008576Y008518D01*
X008607Y008535D01*
X008640Y008548D01*
X008674Y008558D01*
X008709Y008564D01*
X008744Y008566D01*
X008779Y008564D01*
X008814Y008558D01*
X008848Y008548D01*
X008881Y008535D01*
X008912Y008518D01*
X008940Y008497D01*
X008967Y008474D01*
X008990Y008447D01*
X009011Y008419D01*
X009028Y008388D01*
X009041Y008355D01*
X009051Y008321D01*
X009057Y008286D01*
X009059Y008251D01*
X009057Y008216D01*
X009051Y008181D01*
X009041Y008147D01*
X009028Y008114D01*
X009011Y008083D01*
X008990Y008055D01*
X008967Y008028D01*
X008940Y008005D01*
X008912Y007984D01*
X008881Y007967D01*
X008848Y007954D01*
X008814Y007944D01*
X008779Y007938D01*
X008744Y007936D01*
X008709Y007938D01*
X008674Y007944D01*
X008640Y007954D01*
X008607Y007967D01*
X008576Y007984D01*
X008548Y008005D01*
X008521Y008028D01*
X008498Y008055D01*
X008477Y008083D01*
X008460Y008114D01*
X008447Y008147D01*
X008437Y008181D01*
X008431Y008216D01*
X008429Y008251D01*
X008429Y011794D02*
X008431Y011829D01*
X008437Y011864D01*
X008447Y011898D01*
X008460Y011931D01*
X008477Y011962D01*
X008498Y011990D01*
X008521Y012017D01*
X008548Y012040D01*
X008576Y012061D01*
X008607Y012078D01*
X008640Y012091D01*
X008674Y012101D01*
X008709Y012107D01*
X008744Y012109D01*
X008779Y012107D01*
X008814Y012101D01*
X008848Y012091D01*
X008881Y012078D01*
X008912Y012061D01*
X008940Y012040D01*
X008967Y012017D01*
X008990Y011990D01*
X009011Y011962D01*
X009028Y011931D01*
X009041Y011898D01*
X009051Y011864D01*
X009057Y011829D01*
X009059Y011794D01*
X009057Y011759D01*
X009051Y011724D01*
X009041Y011690D01*
X009028Y011657D01*
X009011Y011626D01*
X008990Y011598D01*
X008967Y011571D01*
X008940Y011548D01*
X008912Y011527D01*
X008881Y011510D01*
X008848Y011497D01*
X008814Y011487D01*
X008779Y011481D01*
X008744Y011479D01*
X008709Y011481D01*
X008674Y011487D01*
X008640Y011497D01*
X008607Y011510D01*
X008576Y011527D01*
X008548Y011548D01*
X008521Y011571D01*
X008498Y011598D01*
X008477Y011626D01*
X008460Y011657D01*
X008447Y011690D01*
X008437Y011724D01*
X008431Y011759D01*
X008429Y011794D01*
X020240Y011794D02*
X020242Y011829D01*
X020248Y011864D01*
X020258Y011898D01*
X020271Y011931D01*
X020288Y011962D01*
X020309Y011990D01*
X020332Y012017D01*
X020359Y012040D01*
X020387Y012061D01*
X020418Y012078D01*
X020451Y012091D01*
X020485Y012101D01*
X020520Y012107D01*
X020555Y012109D01*
X020590Y012107D01*
X020625Y012101D01*
X020659Y012091D01*
X020692Y012078D01*
X020723Y012061D01*
X020751Y012040D01*
X020778Y012017D01*
X020801Y011990D01*
X020822Y011962D01*
X020839Y011931D01*
X020852Y011898D01*
X020862Y011864D01*
X020868Y011829D01*
X020870Y011794D01*
X020868Y011759D01*
X020862Y011724D01*
X020852Y011690D01*
X020839Y011657D01*
X020822Y011626D01*
X020801Y011598D01*
X020778Y011571D01*
X020751Y011548D01*
X020723Y011527D01*
X020692Y011510D01*
X020659Y011497D01*
X020625Y011487D01*
X020590Y011481D01*
X020555Y011479D01*
X020520Y011481D01*
X020485Y011487D01*
X020451Y011497D01*
X020418Y011510D01*
X020387Y011527D01*
X020359Y011548D01*
X020332Y011571D01*
X020309Y011598D01*
X020288Y011626D01*
X020271Y011657D01*
X020258Y011690D01*
X020248Y011724D01*
X020242Y011759D01*
X020240Y011794D01*
X020240Y008251D02*
X020242Y008286D01*
X020248Y008321D01*
X020258Y008355D01*
X020271Y008388D01*
X020288Y008419D01*
X020309Y008447D01*
X020332Y008474D01*
X020359Y008497D01*
X020387Y008518D01*
X020418Y008535D01*
X020451Y008548D01*
X020485Y008558D01*
X020520Y008564D01*
X020555Y008566D01*
X020590Y008564D01*
X020625Y008558D01*
X020659Y008548D01*
X020692Y008535D01*
X020723Y008518D01*
X020751Y008497D01*
X020778Y008474D01*
X020801Y008447D01*
X020822Y008419D01*
X020839Y008388D01*
X020852Y008355D01*
X020862Y008321D01*
X020868Y008286D01*
X020870Y008251D01*
X020868Y008216D01*
X020862Y008181D01*
X020852Y008147D01*
X020839Y008114D01*
X020822Y008083D01*
X020801Y008055D01*
X020778Y008028D01*
X020751Y008005D01*
X020723Y007984D01*
X020692Y007967D01*
X020659Y007954D01*
X020625Y007944D01*
X020590Y007938D01*
X020555Y007936D01*
X020520Y007938D01*
X020485Y007944D01*
X020451Y007954D01*
X020418Y007967D01*
X020387Y007984D01*
X020359Y008005D01*
X020332Y008028D01*
X020309Y008055D01*
X020288Y008083D01*
X020271Y008114D01*
X020258Y008147D01*
X020248Y008181D01*
X020242Y008216D01*
X020240Y008251D01*
X032051Y008251D02*
X032053Y008286D01*
X032059Y008321D01*
X032069Y008355D01*
X032082Y008388D01*
X032099Y008419D01*
X032120Y008447D01*
X032143Y008474D01*
X032170Y008497D01*
X032198Y008518D01*
X032229Y008535D01*
X032262Y008548D01*
X032296Y008558D01*
X032331Y008564D01*
X032366Y008566D01*
X032401Y008564D01*
X032436Y008558D01*
X032470Y008548D01*
X032503Y008535D01*
X032534Y008518D01*
X032562Y008497D01*
X032589Y008474D01*
X032612Y008447D01*
X032633Y008419D01*
X032650Y008388D01*
X032663Y008355D01*
X032673Y008321D01*
X032679Y008286D01*
X032681Y008251D01*
X032679Y008216D01*
X032673Y008181D01*
X032663Y008147D01*
X032650Y008114D01*
X032633Y008083D01*
X032612Y008055D01*
X032589Y008028D01*
X032562Y008005D01*
X032534Y007984D01*
X032503Y007967D01*
X032470Y007954D01*
X032436Y007944D01*
X032401Y007938D01*
X032366Y007936D01*
X032331Y007938D01*
X032296Y007944D01*
X032262Y007954D01*
X032229Y007967D01*
X032198Y007984D01*
X032170Y008005D01*
X032143Y008028D01*
X032120Y008055D01*
X032099Y008083D01*
X032082Y008114D01*
X032069Y008147D01*
X032059Y008181D01*
X032053Y008216D01*
X032051Y008251D01*
X032051Y011794D02*
X032053Y011829D01*
X032059Y011864D01*
X032069Y011898D01*
X032082Y011931D01*
X032099Y011962D01*
X032120Y011990D01*
X032143Y012017D01*
X032170Y012040D01*
X032198Y012061D01*
X032229Y012078D01*
X032262Y012091D01*
X032296Y012101D01*
X032331Y012107D01*
X032366Y012109D01*
X032401Y012107D01*
X032436Y012101D01*
X032470Y012091D01*
X032503Y012078D01*
X032534Y012061D01*
X032562Y012040D01*
X032589Y012017D01*
X032612Y011990D01*
X032633Y011962D01*
X032650Y011931D01*
X032663Y011898D01*
X032673Y011864D01*
X032679Y011829D01*
X032681Y011794D01*
X032679Y011759D01*
X032673Y011724D01*
X032663Y011690D01*
X032650Y011657D01*
X032633Y011626D01*
X032612Y011598D01*
X032589Y011571D01*
X032562Y011548D01*
X032534Y011527D01*
X032503Y011510D01*
X032470Y011497D01*
X032436Y011487D01*
X032401Y011481D01*
X032366Y011479D01*
X032331Y011481D01*
X032296Y011487D01*
X032262Y011497D01*
X032229Y011510D01*
X032198Y011527D01*
X032170Y011548D01*
X032143Y011571D01*
X032120Y011598D01*
X032099Y011626D01*
X032082Y011657D01*
X032069Y011690D01*
X032059Y011724D01*
X032053Y011759D01*
X032051Y011794D01*
X043862Y011794D02*
X043864Y011829D01*
X043870Y011864D01*
X043880Y011898D01*
X043893Y011931D01*
X043910Y011962D01*
X043931Y011990D01*
X043954Y012017D01*
X043981Y012040D01*
X044009Y012061D01*
X044040Y012078D01*
X044073Y012091D01*
X044107Y012101D01*
X044142Y012107D01*
X044177Y012109D01*
X044212Y012107D01*
X044247Y012101D01*
X044281Y012091D01*
X044314Y012078D01*
X044345Y012061D01*
X044373Y012040D01*
X044400Y012017D01*
X044423Y011990D01*
X044444Y011962D01*
X044461Y011931D01*
X044474Y011898D01*
X044484Y011864D01*
X044490Y011829D01*
X044492Y011794D01*
X044490Y011759D01*
X044484Y011724D01*
X044474Y011690D01*
X044461Y011657D01*
X044444Y011626D01*
X044423Y011598D01*
X044400Y011571D01*
X044373Y011548D01*
X044345Y011527D01*
X044314Y011510D01*
X044281Y011497D01*
X044247Y011487D01*
X044212Y011481D01*
X044177Y011479D01*
X044142Y011481D01*
X044107Y011487D01*
X044073Y011497D01*
X044040Y011510D01*
X044009Y011527D01*
X043981Y011548D01*
X043954Y011571D01*
X043931Y011598D01*
X043910Y011626D01*
X043893Y011657D01*
X043880Y011690D01*
X043870Y011724D01*
X043864Y011759D01*
X043862Y011794D01*
X043862Y008251D02*
X043864Y008286D01*
X043870Y008321D01*
X043880Y008355D01*
X043893Y008388D01*
X043910Y008419D01*
X043931Y008447D01*
X043954Y008474D01*
X043981Y008497D01*
X044009Y008518D01*
X044040Y008535D01*
X044073Y008548D01*
X044107Y008558D01*
X044142Y008564D01*
X044177Y008566D01*
X044212Y008564D01*
X044247Y008558D01*
X044281Y008548D01*
X044314Y008535D01*
X044345Y008518D01*
X044373Y008497D01*
X044400Y008474D01*
X044423Y008447D01*
X044444Y008419D01*
X044461Y008388D01*
X044474Y008355D01*
X044484Y008321D01*
X044490Y008286D01*
X044492Y008251D01*
X044490Y008216D01*
X044484Y008181D01*
X044474Y008147D01*
X044461Y008114D01*
X044444Y008083D01*
X044423Y008055D01*
X044400Y008028D01*
X044373Y008005D01*
X044345Y007984D01*
X044314Y007967D01*
X044281Y007954D01*
X044247Y007944D01*
X044212Y007938D01*
X044177Y007936D01*
X044142Y007938D01*
X044107Y007944D01*
X044073Y007954D01*
X044040Y007967D01*
X044009Y007984D01*
X043981Y008005D01*
X043954Y008028D01*
X043931Y008055D01*
X043910Y008083D01*
X043893Y008114D01*
X043880Y008147D01*
X043870Y008181D01*
X043864Y008216D01*
X043862Y008251D01*
X043862Y020062D02*
X043864Y020097D01*
X043870Y020132D01*
X043880Y020166D01*
X043893Y020199D01*
X043910Y020230D01*
X043931Y020258D01*
X043954Y020285D01*
X043981Y020308D01*
X044009Y020329D01*
X044040Y020346D01*
X044073Y020359D01*
X044107Y020369D01*
X044142Y020375D01*
X044177Y020377D01*
X044212Y020375D01*
X044247Y020369D01*
X044281Y020359D01*
X044314Y020346D01*
X044345Y020329D01*
X044373Y020308D01*
X044400Y020285D01*
X044423Y020258D01*
X044444Y020230D01*
X044461Y020199D01*
X044474Y020166D01*
X044484Y020132D01*
X044490Y020097D01*
X044492Y020062D01*
X044490Y020027D01*
X044484Y019992D01*
X044474Y019958D01*
X044461Y019925D01*
X044444Y019894D01*
X044423Y019866D01*
X044400Y019839D01*
X044373Y019816D01*
X044345Y019795D01*
X044314Y019778D01*
X044281Y019765D01*
X044247Y019755D01*
X044212Y019749D01*
X044177Y019747D01*
X044142Y019749D01*
X044107Y019755D01*
X044073Y019765D01*
X044040Y019778D01*
X044009Y019795D01*
X043981Y019816D01*
X043954Y019839D01*
X043931Y019866D01*
X043910Y019894D01*
X043893Y019925D01*
X043880Y019958D01*
X043870Y019992D01*
X043864Y020027D01*
X043862Y020062D01*
X043862Y023605D02*
X043864Y023640D01*
X043870Y023675D01*
X043880Y023709D01*
X043893Y023742D01*
X043910Y023773D01*
X043931Y023801D01*
X043954Y023828D01*
X043981Y023851D01*
X044009Y023872D01*
X044040Y023889D01*
X044073Y023902D01*
X044107Y023912D01*
X044142Y023918D01*
X044177Y023920D01*
X044212Y023918D01*
X044247Y023912D01*
X044281Y023902D01*
X044314Y023889D01*
X044345Y023872D01*
X044373Y023851D01*
X044400Y023828D01*
X044423Y023801D01*
X044444Y023773D01*
X044461Y023742D01*
X044474Y023709D01*
X044484Y023675D01*
X044490Y023640D01*
X044492Y023605D01*
X044490Y023570D01*
X044484Y023535D01*
X044474Y023501D01*
X044461Y023468D01*
X044444Y023437D01*
X044423Y023409D01*
X044400Y023382D01*
X044373Y023359D01*
X044345Y023338D01*
X044314Y023321D01*
X044281Y023308D01*
X044247Y023298D01*
X044212Y023292D01*
X044177Y023290D01*
X044142Y023292D01*
X044107Y023298D01*
X044073Y023308D01*
X044040Y023321D01*
X044009Y023338D01*
X043981Y023359D01*
X043954Y023382D01*
X043931Y023409D01*
X043910Y023437D01*
X043893Y023468D01*
X043880Y023501D01*
X043870Y023535D01*
X043864Y023570D01*
X043862Y023605D01*
X032051Y023605D02*
X032053Y023640D01*
X032059Y023675D01*
X032069Y023709D01*
X032082Y023742D01*
X032099Y023773D01*
X032120Y023801D01*
X032143Y023828D01*
X032170Y023851D01*
X032198Y023872D01*
X032229Y023889D01*
X032262Y023902D01*
X032296Y023912D01*
X032331Y023918D01*
X032366Y023920D01*
X032401Y023918D01*
X032436Y023912D01*
X032470Y023902D01*
X032503Y023889D01*
X032534Y023872D01*
X032562Y023851D01*
X032589Y023828D01*
X032612Y023801D01*
X032633Y023773D01*
X032650Y023742D01*
X032663Y023709D01*
X032673Y023675D01*
X032679Y023640D01*
X032681Y023605D01*
X032679Y023570D01*
X032673Y023535D01*
X032663Y023501D01*
X032650Y023468D01*
X032633Y023437D01*
X032612Y023409D01*
X032589Y023382D01*
X032562Y023359D01*
X032534Y023338D01*
X032503Y023321D01*
X032470Y023308D01*
X032436Y023298D01*
X032401Y023292D01*
X032366Y023290D01*
X032331Y023292D01*
X032296Y023298D01*
X032262Y023308D01*
X032229Y023321D01*
X032198Y023338D01*
X032170Y023359D01*
X032143Y023382D01*
X032120Y023409D01*
X032099Y023437D01*
X032082Y023468D01*
X032069Y023501D01*
X032059Y023535D01*
X032053Y023570D01*
X032051Y023605D01*
X032051Y020062D02*
X032053Y020097D01*
X032059Y020132D01*
X032069Y020166D01*
X032082Y020199D01*
X032099Y020230D01*
X032120Y020258D01*
X032143Y020285D01*
X032170Y020308D01*
X032198Y020329D01*
X032229Y020346D01*
X032262Y020359D01*
X032296Y020369D01*
X032331Y020375D01*
X032366Y020377D01*
X032401Y020375D01*
X032436Y020369D01*
X032470Y020359D01*
X032503Y020346D01*
X032534Y020329D01*
X032562Y020308D01*
X032589Y020285D01*
X032612Y020258D01*
X032633Y020230D01*
X032650Y020199D01*
X032663Y020166D01*
X032673Y020132D01*
X032679Y020097D01*
X032681Y020062D01*
X032679Y020027D01*
X032673Y019992D01*
X032663Y019958D01*
X032650Y019925D01*
X032633Y019894D01*
X032612Y019866D01*
X032589Y019839D01*
X032562Y019816D01*
X032534Y019795D01*
X032503Y019778D01*
X032470Y019765D01*
X032436Y019755D01*
X032401Y019749D01*
X032366Y019747D01*
X032331Y019749D01*
X032296Y019755D01*
X032262Y019765D01*
X032229Y019778D01*
X032198Y019795D01*
X032170Y019816D01*
X032143Y019839D01*
X032120Y019866D01*
X032099Y019894D01*
X032082Y019925D01*
X032069Y019958D01*
X032059Y019992D01*
X032053Y020027D01*
X032051Y020062D01*
X020240Y020062D02*
X020242Y020097D01*
X020248Y020132D01*
X020258Y020166D01*
X020271Y020199D01*
X020288Y020230D01*
X020309Y020258D01*
X020332Y020285D01*
X020359Y020308D01*
X020387Y020329D01*
X020418Y020346D01*
X020451Y020359D01*
X020485Y020369D01*
X020520Y020375D01*
X020555Y020377D01*
X020590Y020375D01*
X020625Y020369D01*
X020659Y020359D01*
X020692Y020346D01*
X020723Y020329D01*
X020751Y020308D01*
X020778Y020285D01*
X020801Y020258D01*
X020822Y020230D01*
X020839Y020199D01*
X020852Y020166D01*
X020862Y020132D01*
X020868Y020097D01*
X020870Y020062D01*
X020868Y020027D01*
X020862Y019992D01*
X020852Y019958D01*
X020839Y019925D01*
X020822Y019894D01*
X020801Y019866D01*
X020778Y019839D01*
X020751Y019816D01*
X020723Y019795D01*
X020692Y019778D01*
X020659Y019765D01*
X020625Y019755D01*
X020590Y019749D01*
X020555Y019747D01*
X020520Y019749D01*
X020485Y019755D01*
X020451Y019765D01*
X020418Y019778D01*
X020387Y019795D01*
X020359Y019816D01*
X020332Y019839D01*
X020309Y019866D01*
X020288Y019894D01*
X020271Y019925D01*
X020258Y019958D01*
X020248Y019992D01*
X020242Y020027D01*
X020240Y020062D01*
X020240Y023605D02*
X020242Y023640D01*
X020248Y023675D01*
X020258Y023709D01*
X020271Y023742D01*
X020288Y023773D01*
X020309Y023801D01*
X020332Y023828D01*
X020359Y023851D01*
X020387Y023872D01*
X020418Y023889D01*
X020451Y023902D01*
X020485Y023912D01*
X020520Y023918D01*
X020555Y023920D01*
X020590Y023918D01*
X020625Y023912D01*
X020659Y023902D01*
X020692Y023889D01*
X020723Y023872D01*
X020751Y023851D01*
X020778Y023828D01*
X020801Y023801D01*
X020822Y023773D01*
X020839Y023742D01*
X020852Y023709D01*
X020862Y023675D01*
X020868Y023640D01*
X020870Y023605D01*
X020868Y023570D01*
X020862Y023535D01*
X020852Y023501D01*
X020839Y023468D01*
X020822Y023437D01*
X020801Y023409D01*
X020778Y023382D01*
X020751Y023359D01*
X020723Y023338D01*
X020692Y023321D01*
X020659Y023308D01*
X020625Y023298D01*
X020590Y023292D01*
X020555Y023290D01*
X020520Y023292D01*
X020485Y023298D01*
X020451Y023308D01*
X020418Y023321D01*
X020387Y023338D01*
X020359Y023359D01*
X020332Y023382D01*
X020309Y023409D01*
X020288Y023437D01*
X020271Y023468D01*
X020258Y023501D01*
X020248Y023535D01*
X020242Y023570D01*
X020240Y023605D01*
X008429Y023605D02*
X008431Y023640D01*
X008437Y023675D01*
X008447Y023709D01*
X008460Y023742D01*
X008477Y023773D01*
X008498Y023801D01*
X008521Y023828D01*
X008548Y023851D01*
X008576Y023872D01*
X008607Y023889D01*
X008640Y023902D01*
X008674Y023912D01*
X008709Y023918D01*
X008744Y023920D01*
X008779Y023918D01*
X008814Y023912D01*
X008848Y023902D01*
X008881Y023889D01*
X008912Y023872D01*
X008940Y023851D01*
X008967Y023828D01*
X008990Y023801D01*
X009011Y023773D01*
X009028Y023742D01*
X009041Y023709D01*
X009051Y023675D01*
X009057Y023640D01*
X009059Y023605D01*
X009057Y023570D01*
X009051Y023535D01*
X009041Y023501D01*
X009028Y023468D01*
X009011Y023437D01*
X008990Y023409D01*
X008967Y023382D01*
X008940Y023359D01*
X008912Y023338D01*
X008881Y023321D01*
X008848Y023308D01*
X008814Y023298D01*
X008779Y023292D01*
X008744Y023290D01*
X008709Y023292D01*
X008674Y023298D01*
X008640Y023308D01*
X008607Y023321D01*
X008576Y023338D01*
X008548Y023359D01*
X008521Y023382D01*
X008498Y023409D01*
X008477Y023437D01*
X008460Y023468D01*
X008447Y023501D01*
X008437Y023535D01*
X008431Y023570D01*
X008429Y023605D01*
X008429Y020062D02*
X008431Y020097D01*
X008437Y020132D01*
X008447Y020166D01*
X008460Y020199D01*
X008477Y020230D01*
X008498Y020258D01*
X008521Y020285D01*
X008548Y020308D01*
X008576Y020329D01*
X008607Y020346D01*
X008640Y020359D01*
X008674Y020369D01*
X008709Y020375D01*
X008744Y020377D01*
X008779Y020375D01*
X008814Y020369D01*
X008848Y020359D01*
X008881Y020346D01*
X008912Y020329D01*
X008940Y020308D01*
X008967Y020285D01*
X008990Y020258D01*
X009011Y020230D01*
X009028Y020199D01*
X009041Y020166D01*
X009051Y020132D01*
X009057Y020097D01*
X009059Y020062D01*
X009057Y020027D01*
X009051Y019992D01*
X009041Y019958D01*
X009028Y019925D01*
X009011Y019894D01*
X008990Y019866D01*
X008967Y019839D01*
X008940Y019816D01*
X008912Y019795D01*
X008881Y019778D01*
X008848Y019765D01*
X008814Y019755D01*
X008779Y019749D01*
X008744Y019747D01*
X008709Y019749D01*
X008674Y019755D01*
X008640Y019765D01*
X008607Y019778D01*
X008576Y019795D01*
X008548Y019816D01*
X008521Y019839D01*
X008498Y019866D01*
X008477Y019894D01*
X008460Y019925D01*
X008447Y019958D01*
X008437Y019992D01*
X008431Y020027D01*
X008429Y020062D01*
M02*
