G75*
%MOIN*%
%OFA0B0*%
%FSLAX24Y24*%
%IPPOS*%
%LPD*%
%AMOC8*
5,1,8,0,0,1.08239X$1,22.5*
%
%ADD10C,0.0000*%
%ADD11C,0.1340*%
%ADD12C,0.0930*%
%ADD13C,0.0740*%
%ADD14C,0.0710*%
%ADD15C,0.0680*%
%ADD16C,0.0480*%
D10*
X001755Y000967D02*
X001755Y027739D01*
X032070Y027739D01*
X032070Y000967D01*
X001755Y000967D01*
X006558Y002739D02*
X006560Y002774D01*
X006566Y002809D01*
X006576Y002843D01*
X006589Y002876D01*
X006606Y002907D01*
X006627Y002935D01*
X006650Y002962D01*
X006677Y002985D01*
X006705Y003006D01*
X006736Y003023D01*
X006769Y003036D01*
X006803Y003046D01*
X006838Y003052D01*
X006873Y003054D01*
X006908Y003052D01*
X006943Y003046D01*
X006977Y003036D01*
X007010Y003023D01*
X007041Y003006D01*
X007069Y002985D01*
X007096Y002962D01*
X007119Y002935D01*
X007140Y002907D01*
X007157Y002876D01*
X007170Y002843D01*
X007180Y002809D01*
X007186Y002774D01*
X007188Y002739D01*
X007186Y002704D01*
X007180Y002669D01*
X007170Y002635D01*
X007157Y002602D01*
X007140Y002571D01*
X007119Y002543D01*
X007096Y002516D01*
X007069Y002493D01*
X007041Y002472D01*
X007010Y002455D01*
X006977Y002442D01*
X006943Y002432D01*
X006908Y002426D01*
X006873Y002424D01*
X006838Y002426D01*
X006803Y002432D01*
X006769Y002442D01*
X006736Y002455D01*
X006705Y002472D01*
X006677Y002493D01*
X006650Y002516D01*
X006627Y002543D01*
X006606Y002571D01*
X006589Y002602D01*
X006576Y002635D01*
X006566Y002669D01*
X006560Y002704D01*
X006558Y002739D01*
X006558Y006282D02*
X006560Y006317D01*
X006566Y006352D01*
X006576Y006386D01*
X006589Y006419D01*
X006606Y006450D01*
X006627Y006478D01*
X006650Y006505D01*
X006677Y006528D01*
X006705Y006549D01*
X006736Y006566D01*
X006769Y006579D01*
X006803Y006589D01*
X006838Y006595D01*
X006873Y006597D01*
X006908Y006595D01*
X006943Y006589D01*
X006977Y006579D01*
X007010Y006566D01*
X007041Y006549D01*
X007069Y006528D01*
X007096Y006505D01*
X007119Y006478D01*
X007140Y006450D01*
X007157Y006419D01*
X007170Y006386D01*
X007180Y006352D01*
X007186Y006317D01*
X007188Y006282D01*
X007186Y006247D01*
X007180Y006212D01*
X007170Y006178D01*
X007157Y006145D01*
X007140Y006114D01*
X007119Y006086D01*
X007096Y006059D01*
X007069Y006036D01*
X007041Y006015D01*
X007010Y005998D01*
X006977Y005985D01*
X006943Y005975D01*
X006908Y005969D01*
X006873Y005967D01*
X006838Y005969D01*
X006803Y005975D01*
X006769Y005985D01*
X006736Y005998D01*
X006705Y006015D01*
X006677Y006036D01*
X006650Y006059D01*
X006627Y006086D01*
X006606Y006114D01*
X006589Y006145D01*
X006576Y006178D01*
X006566Y006212D01*
X006560Y006247D01*
X006558Y006282D01*
X006558Y008645D02*
X006560Y008680D01*
X006566Y008715D01*
X006576Y008749D01*
X006589Y008782D01*
X006606Y008813D01*
X006627Y008841D01*
X006650Y008868D01*
X006677Y008891D01*
X006705Y008912D01*
X006736Y008929D01*
X006769Y008942D01*
X006803Y008952D01*
X006838Y008958D01*
X006873Y008960D01*
X006908Y008958D01*
X006943Y008952D01*
X006977Y008942D01*
X007010Y008929D01*
X007041Y008912D01*
X007069Y008891D01*
X007096Y008868D01*
X007119Y008841D01*
X007140Y008813D01*
X007157Y008782D01*
X007170Y008749D01*
X007180Y008715D01*
X007186Y008680D01*
X007188Y008645D01*
X007186Y008610D01*
X007180Y008575D01*
X007170Y008541D01*
X007157Y008508D01*
X007140Y008477D01*
X007119Y008449D01*
X007096Y008422D01*
X007069Y008399D01*
X007041Y008378D01*
X007010Y008361D01*
X006977Y008348D01*
X006943Y008338D01*
X006908Y008332D01*
X006873Y008330D01*
X006838Y008332D01*
X006803Y008338D01*
X006769Y008348D01*
X006736Y008361D01*
X006705Y008378D01*
X006677Y008399D01*
X006650Y008422D01*
X006627Y008449D01*
X006606Y008477D01*
X006589Y008508D01*
X006576Y008541D01*
X006566Y008575D01*
X006560Y008610D01*
X006558Y008645D01*
X006558Y012188D02*
X006560Y012223D01*
X006566Y012258D01*
X006576Y012292D01*
X006589Y012325D01*
X006606Y012356D01*
X006627Y012384D01*
X006650Y012411D01*
X006677Y012434D01*
X006705Y012455D01*
X006736Y012472D01*
X006769Y012485D01*
X006803Y012495D01*
X006838Y012501D01*
X006873Y012503D01*
X006908Y012501D01*
X006943Y012495D01*
X006977Y012485D01*
X007010Y012472D01*
X007041Y012455D01*
X007069Y012434D01*
X007096Y012411D01*
X007119Y012384D01*
X007140Y012356D01*
X007157Y012325D01*
X007170Y012292D01*
X007180Y012258D01*
X007186Y012223D01*
X007188Y012188D01*
X007186Y012153D01*
X007180Y012118D01*
X007170Y012084D01*
X007157Y012051D01*
X007140Y012020D01*
X007119Y011992D01*
X007096Y011965D01*
X007069Y011942D01*
X007041Y011921D01*
X007010Y011904D01*
X006977Y011891D01*
X006943Y011881D01*
X006908Y011875D01*
X006873Y011873D01*
X006838Y011875D01*
X006803Y011881D01*
X006769Y011891D01*
X006736Y011904D01*
X006705Y011921D01*
X006677Y011942D01*
X006650Y011965D01*
X006627Y011992D01*
X006606Y012020D01*
X006589Y012051D01*
X006576Y012084D01*
X006566Y012118D01*
X006560Y012153D01*
X006558Y012188D01*
X009196Y014353D02*
X009198Y014403D01*
X009204Y014453D01*
X009214Y014502D01*
X009228Y014550D01*
X009245Y014597D01*
X009266Y014642D01*
X009291Y014686D01*
X009319Y014727D01*
X009351Y014766D01*
X009385Y014803D01*
X009422Y014837D01*
X009462Y014867D01*
X009504Y014894D01*
X009548Y014918D01*
X009594Y014939D01*
X009641Y014955D01*
X009689Y014968D01*
X009739Y014977D01*
X009788Y014982D01*
X009839Y014983D01*
X009889Y014980D01*
X009938Y014973D01*
X009987Y014962D01*
X010035Y014947D01*
X010081Y014929D01*
X010126Y014907D01*
X010169Y014881D01*
X010210Y014852D01*
X010249Y014820D01*
X010285Y014785D01*
X010317Y014747D01*
X010347Y014707D01*
X010374Y014664D01*
X010397Y014620D01*
X010416Y014574D01*
X010432Y014526D01*
X010444Y014477D01*
X010452Y014428D01*
X010456Y014378D01*
X010456Y014328D01*
X010452Y014278D01*
X010444Y014229D01*
X010432Y014180D01*
X010416Y014132D01*
X010397Y014086D01*
X010374Y014042D01*
X010347Y013999D01*
X010317Y013959D01*
X010285Y013921D01*
X010249Y013886D01*
X010210Y013854D01*
X010169Y013825D01*
X010126Y013799D01*
X010081Y013777D01*
X010035Y013759D01*
X009987Y013744D01*
X009938Y013733D01*
X009889Y013726D01*
X009839Y013723D01*
X009788Y013724D01*
X009739Y013729D01*
X009689Y013738D01*
X009641Y013751D01*
X009594Y013767D01*
X009548Y013788D01*
X009504Y013812D01*
X009462Y013839D01*
X009422Y013869D01*
X009385Y013903D01*
X009351Y013940D01*
X009319Y013979D01*
X009291Y014020D01*
X009266Y014064D01*
X009245Y014109D01*
X009228Y014156D01*
X009214Y014204D01*
X009204Y014253D01*
X009198Y014303D01*
X009196Y014353D01*
X006558Y016519D02*
X006560Y016554D01*
X006566Y016589D01*
X006576Y016623D01*
X006589Y016656D01*
X006606Y016687D01*
X006627Y016715D01*
X006650Y016742D01*
X006677Y016765D01*
X006705Y016786D01*
X006736Y016803D01*
X006769Y016816D01*
X006803Y016826D01*
X006838Y016832D01*
X006873Y016834D01*
X006908Y016832D01*
X006943Y016826D01*
X006977Y016816D01*
X007010Y016803D01*
X007041Y016786D01*
X007069Y016765D01*
X007096Y016742D01*
X007119Y016715D01*
X007140Y016687D01*
X007157Y016656D01*
X007170Y016623D01*
X007180Y016589D01*
X007186Y016554D01*
X007188Y016519D01*
X007186Y016484D01*
X007180Y016449D01*
X007170Y016415D01*
X007157Y016382D01*
X007140Y016351D01*
X007119Y016323D01*
X007096Y016296D01*
X007069Y016273D01*
X007041Y016252D01*
X007010Y016235D01*
X006977Y016222D01*
X006943Y016212D01*
X006908Y016206D01*
X006873Y016204D01*
X006838Y016206D01*
X006803Y016212D01*
X006769Y016222D01*
X006736Y016235D01*
X006705Y016252D01*
X006677Y016273D01*
X006650Y016296D01*
X006627Y016323D01*
X006606Y016351D01*
X006589Y016382D01*
X006576Y016415D01*
X006566Y016449D01*
X006560Y016484D01*
X006558Y016519D01*
X006558Y020062D02*
X006560Y020097D01*
X006566Y020132D01*
X006576Y020166D01*
X006589Y020199D01*
X006606Y020230D01*
X006627Y020258D01*
X006650Y020285D01*
X006677Y020308D01*
X006705Y020329D01*
X006736Y020346D01*
X006769Y020359D01*
X006803Y020369D01*
X006838Y020375D01*
X006873Y020377D01*
X006908Y020375D01*
X006943Y020369D01*
X006977Y020359D01*
X007010Y020346D01*
X007041Y020329D01*
X007069Y020308D01*
X007096Y020285D01*
X007119Y020258D01*
X007140Y020230D01*
X007157Y020199D01*
X007170Y020166D01*
X007180Y020132D01*
X007186Y020097D01*
X007188Y020062D01*
X007186Y020027D01*
X007180Y019992D01*
X007170Y019958D01*
X007157Y019925D01*
X007140Y019894D01*
X007119Y019866D01*
X007096Y019839D01*
X007069Y019816D01*
X007041Y019795D01*
X007010Y019778D01*
X006977Y019765D01*
X006943Y019755D01*
X006908Y019749D01*
X006873Y019747D01*
X006838Y019749D01*
X006803Y019755D01*
X006769Y019765D01*
X006736Y019778D01*
X006705Y019795D01*
X006677Y019816D01*
X006650Y019839D01*
X006627Y019866D01*
X006606Y019894D01*
X006589Y019925D01*
X006576Y019958D01*
X006566Y019992D01*
X006560Y020027D01*
X006558Y020062D01*
X006558Y022424D02*
X006560Y022459D01*
X006566Y022494D01*
X006576Y022528D01*
X006589Y022561D01*
X006606Y022592D01*
X006627Y022620D01*
X006650Y022647D01*
X006677Y022670D01*
X006705Y022691D01*
X006736Y022708D01*
X006769Y022721D01*
X006803Y022731D01*
X006838Y022737D01*
X006873Y022739D01*
X006908Y022737D01*
X006943Y022731D01*
X006977Y022721D01*
X007010Y022708D01*
X007041Y022691D01*
X007069Y022670D01*
X007096Y022647D01*
X007119Y022620D01*
X007140Y022592D01*
X007157Y022561D01*
X007170Y022528D01*
X007180Y022494D01*
X007186Y022459D01*
X007188Y022424D01*
X007186Y022389D01*
X007180Y022354D01*
X007170Y022320D01*
X007157Y022287D01*
X007140Y022256D01*
X007119Y022228D01*
X007096Y022201D01*
X007069Y022178D01*
X007041Y022157D01*
X007010Y022140D01*
X006977Y022127D01*
X006943Y022117D01*
X006908Y022111D01*
X006873Y022109D01*
X006838Y022111D01*
X006803Y022117D01*
X006769Y022127D01*
X006736Y022140D01*
X006705Y022157D01*
X006677Y022178D01*
X006650Y022201D01*
X006627Y022228D01*
X006606Y022256D01*
X006589Y022287D01*
X006576Y022320D01*
X006566Y022354D01*
X006560Y022389D01*
X006558Y022424D01*
X006558Y025967D02*
X006560Y026002D01*
X006566Y026037D01*
X006576Y026071D01*
X006589Y026104D01*
X006606Y026135D01*
X006627Y026163D01*
X006650Y026190D01*
X006677Y026213D01*
X006705Y026234D01*
X006736Y026251D01*
X006769Y026264D01*
X006803Y026274D01*
X006838Y026280D01*
X006873Y026282D01*
X006908Y026280D01*
X006943Y026274D01*
X006977Y026264D01*
X007010Y026251D01*
X007041Y026234D01*
X007069Y026213D01*
X007096Y026190D01*
X007119Y026163D01*
X007140Y026135D01*
X007157Y026104D01*
X007170Y026071D01*
X007180Y026037D01*
X007186Y026002D01*
X007188Y025967D01*
X007186Y025932D01*
X007180Y025897D01*
X007170Y025863D01*
X007157Y025830D01*
X007140Y025799D01*
X007119Y025771D01*
X007096Y025744D01*
X007069Y025721D01*
X007041Y025700D01*
X007010Y025683D01*
X006977Y025670D01*
X006943Y025660D01*
X006908Y025654D01*
X006873Y025652D01*
X006838Y025654D01*
X006803Y025660D01*
X006769Y025670D01*
X006736Y025683D01*
X006705Y025700D01*
X006677Y025721D01*
X006650Y025744D01*
X006627Y025771D01*
X006606Y025799D01*
X006589Y025830D01*
X006576Y025863D01*
X006566Y025897D01*
X006560Y025932D01*
X006558Y025967D01*
X012463Y025967D02*
X012465Y026002D01*
X012471Y026037D01*
X012481Y026071D01*
X012494Y026104D01*
X012511Y026135D01*
X012532Y026163D01*
X012555Y026190D01*
X012582Y026213D01*
X012610Y026234D01*
X012641Y026251D01*
X012674Y026264D01*
X012708Y026274D01*
X012743Y026280D01*
X012778Y026282D01*
X012813Y026280D01*
X012848Y026274D01*
X012882Y026264D01*
X012915Y026251D01*
X012946Y026234D01*
X012974Y026213D01*
X013001Y026190D01*
X013024Y026163D01*
X013045Y026135D01*
X013062Y026104D01*
X013075Y026071D01*
X013085Y026037D01*
X013091Y026002D01*
X013093Y025967D01*
X013091Y025932D01*
X013085Y025897D01*
X013075Y025863D01*
X013062Y025830D01*
X013045Y025799D01*
X013024Y025771D01*
X013001Y025744D01*
X012974Y025721D01*
X012946Y025700D01*
X012915Y025683D01*
X012882Y025670D01*
X012848Y025660D01*
X012813Y025654D01*
X012778Y025652D01*
X012743Y025654D01*
X012708Y025660D01*
X012674Y025670D01*
X012641Y025683D01*
X012610Y025700D01*
X012582Y025721D01*
X012555Y025744D01*
X012532Y025771D01*
X012511Y025799D01*
X012494Y025830D01*
X012481Y025863D01*
X012471Y025897D01*
X012465Y025932D01*
X012463Y025967D01*
X012463Y022424D02*
X012465Y022459D01*
X012471Y022494D01*
X012481Y022528D01*
X012494Y022561D01*
X012511Y022592D01*
X012532Y022620D01*
X012555Y022647D01*
X012582Y022670D01*
X012610Y022691D01*
X012641Y022708D01*
X012674Y022721D01*
X012708Y022731D01*
X012743Y022737D01*
X012778Y022739D01*
X012813Y022737D01*
X012848Y022731D01*
X012882Y022721D01*
X012915Y022708D01*
X012946Y022691D01*
X012974Y022670D01*
X013001Y022647D01*
X013024Y022620D01*
X013045Y022592D01*
X013062Y022561D01*
X013075Y022528D01*
X013085Y022494D01*
X013091Y022459D01*
X013093Y022424D01*
X013091Y022389D01*
X013085Y022354D01*
X013075Y022320D01*
X013062Y022287D01*
X013045Y022256D01*
X013024Y022228D01*
X013001Y022201D01*
X012974Y022178D01*
X012946Y022157D01*
X012915Y022140D01*
X012882Y022127D01*
X012848Y022117D01*
X012813Y022111D01*
X012778Y022109D01*
X012743Y022111D01*
X012708Y022117D01*
X012674Y022127D01*
X012641Y022140D01*
X012610Y022157D01*
X012582Y022178D01*
X012555Y022201D01*
X012532Y022228D01*
X012511Y022256D01*
X012494Y022287D01*
X012481Y022320D01*
X012471Y022354D01*
X012465Y022389D01*
X012463Y022424D01*
X012463Y020062D02*
X012465Y020097D01*
X012471Y020132D01*
X012481Y020166D01*
X012494Y020199D01*
X012511Y020230D01*
X012532Y020258D01*
X012555Y020285D01*
X012582Y020308D01*
X012610Y020329D01*
X012641Y020346D01*
X012674Y020359D01*
X012708Y020369D01*
X012743Y020375D01*
X012778Y020377D01*
X012813Y020375D01*
X012848Y020369D01*
X012882Y020359D01*
X012915Y020346D01*
X012946Y020329D01*
X012974Y020308D01*
X013001Y020285D01*
X013024Y020258D01*
X013045Y020230D01*
X013062Y020199D01*
X013075Y020166D01*
X013085Y020132D01*
X013091Y020097D01*
X013093Y020062D01*
X013091Y020027D01*
X013085Y019992D01*
X013075Y019958D01*
X013062Y019925D01*
X013045Y019894D01*
X013024Y019866D01*
X013001Y019839D01*
X012974Y019816D01*
X012946Y019795D01*
X012915Y019778D01*
X012882Y019765D01*
X012848Y019755D01*
X012813Y019749D01*
X012778Y019747D01*
X012743Y019749D01*
X012708Y019755D01*
X012674Y019765D01*
X012641Y019778D01*
X012610Y019795D01*
X012582Y019816D01*
X012555Y019839D01*
X012532Y019866D01*
X012511Y019894D01*
X012494Y019925D01*
X012481Y019958D01*
X012471Y019992D01*
X012465Y020027D01*
X012463Y020062D01*
X012463Y016519D02*
X012465Y016554D01*
X012471Y016589D01*
X012481Y016623D01*
X012494Y016656D01*
X012511Y016687D01*
X012532Y016715D01*
X012555Y016742D01*
X012582Y016765D01*
X012610Y016786D01*
X012641Y016803D01*
X012674Y016816D01*
X012708Y016826D01*
X012743Y016832D01*
X012778Y016834D01*
X012813Y016832D01*
X012848Y016826D01*
X012882Y016816D01*
X012915Y016803D01*
X012946Y016786D01*
X012974Y016765D01*
X013001Y016742D01*
X013024Y016715D01*
X013045Y016687D01*
X013062Y016656D01*
X013075Y016623D01*
X013085Y016589D01*
X013091Y016554D01*
X013093Y016519D01*
X013091Y016484D01*
X013085Y016449D01*
X013075Y016415D01*
X013062Y016382D01*
X013045Y016351D01*
X013024Y016323D01*
X013001Y016296D01*
X012974Y016273D01*
X012946Y016252D01*
X012915Y016235D01*
X012882Y016222D01*
X012848Y016212D01*
X012813Y016206D01*
X012778Y016204D01*
X012743Y016206D01*
X012708Y016212D01*
X012674Y016222D01*
X012641Y016235D01*
X012610Y016252D01*
X012582Y016273D01*
X012555Y016296D01*
X012532Y016323D01*
X012511Y016351D01*
X012494Y016382D01*
X012481Y016415D01*
X012471Y016449D01*
X012465Y016484D01*
X012463Y016519D01*
X016085Y014353D02*
X016087Y014403D01*
X016093Y014453D01*
X016103Y014502D01*
X016117Y014550D01*
X016134Y014597D01*
X016155Y014642D01*
X016180Y014686D01*
X016208Y014727D01*
X016240Y014766D01*
X016274Y014803D01*
X016311Y014837D01*
X016351Y014867D01*
X016393Y014894D01*
X016437Y014918D01*
X016483Y014939D01*
X016530Y014955D01*
X016578Y014968D01*
X016628Y014977D01*
X016677Y014982D01*
X016728Y014983D01*
X016778Y014980D01*
X016827Y014973D01*
X016876Y014962D01*
X016924Y014947D01*
X016970Y014929D01*
X017015Y014907D01*
X017058Y014881D01*
X017099Y014852D01*
X017138Y014820D01*
X017174Y014785D01*
X017206Y014747D01*
X017236Y014707D01*
X017263Y014664D01*
X017286Y014620D01*
X017305Y014574D01*
X017321Y014526D01*
X017333Y014477D01*
X017341Y014428D01*
X017345Y014378D01*
X017345Y014328D01*
X017341Y014278D01*
X017333Y014229D01*
X017321Y014180D01*
X017305Y014132D01*
X017286Y014086D01*
X017263Y014042D01*
X017236Y013999D01*
X017206Y013959D01*
X017174Y013921D01*
X017138Y013886D01*
X017099Y013854D01*
X017058Y013825D01*
X017015Y013799D01*
X016970Y013777D01*
X016924Y013759D01*
X016876Y013744D01*
X016827Y013733D01*
X016778Y013726D01*
X016728Y013723D01*
X016677Y013724D01*
X016628Y013729D01*
X016578Y013738D01*
X016530Y013751D01*
X016483Y013767D01*
X016437Y013788D01*
X016393Y013812D01*
X016351Y013839D01*
X016311Y013869D01*
X016274Y013903D01*
X016240Y013940D01*
X016208Y013979D01*
X016180Y014020D01*
X016155Y014064D01*
X016134Y014109D01*
X016117Y014156D01*
X016103Y014204D01*
X016093Y014253D01*
X016087Y014303D01*
X016085Y014353D01*
X012463Y012188D02*
X012465Y012223D01*
X012471Y012258D01*
X012481Y012292D01*
X012494Y012325D01*
X012511Y012356D01*
X012532Y012384D01*
X012555Y012411D01*
X012582Y012434D01*
X012610Y012455D01*
X012641Y012472D01*
X012674Y012485D01*
X012708Y012495D01*
X012743Y012501D01*
X012778Y012503D01*
X012813Y012501D01*
X012848Y012495D01*
X012882Y012485D01*
X012915Y012472D01*
X012946Y012455D01*
X012974Y012434D01*
X013001Y012411D01*
X013024Y012384D01*
X013045Y012356D01*
X013062Y012325D01*
X013075Y012292D01*
X013085Y012258D01*
X013091Y012223D01*
X013093Y012188D01*
X013091Y012153D01*
X013085Y012118D01*
X013075Y012084D01*
X013062Y012051D01*
X013045Y012020D01*
X013024Y011992D01*
X013001Y011965D01*
X012974Y011942D01*
X012946Y011921D01*
X012915Y011904D01*
X012882Y011891D01*
X012848Y011881D01*
X012813Y011875D01*
X012778Y011873D01*
X012743Y011875D01*
X012708Y011881D01*
X012674Y011891D01*
X012641Y011904D01*
X012610Y011921D01*
X012582Y011942D01*
X012555Y011965D01*
X012532Y011992D01*
X012511Y012020D01*
X012494Y012051D01*
X012481Y012084D01*
X012471Y012118D01*
X012465Y012153D01*
X012463Y012188D01*
X012463Y008645D02*
X012465Y008680D01*
X012471Y008715D01*
X012481Y008749D01*
X012494Y008782D01*
X012511Y008813D01*
X012532Y008841D01*
X012555Y008868D01*
X012582Y008891D01*
X012610Y008912D01*
X012641Y008929D01*
X012674Y008942D01*
X012708Y008952D01*
X012743Y008958D01*
X012778Y008960D01*
X012813Y008958D01*
X012848Y008952D01*
X012882Y008942D01*
X012915Y008929D01*
X012946Y008912D01*
X012974Y008891D01*
X013001Y008868D01*
X013024Y008841D01*
X013045Y008813D01*
X013062Y008782D01*
X013075Y008749D01*
X013085Y008715D01*
X013091Y008680D01*
X013093Y008645D01*
X013091Y008610D01*
X013085Y008575D01*
X013075Y008541D01*
X013062Y008508D01*
X013045Y008477D01*
X013024Y008449D01*
X013001Y008422D01*
X012974Y008399D01*
X012946Y008378D01*
X012915Y008361D01*
X012882Y008348D01*
X012848Y008338D01*
X012813Y008332D01*
X012778Y008330D01*
X012743Y008332D01*
X012708Y008338D01*
X012674Y008348D01*
X012641Y008361D01*
X012610Y008378D01*
X012582Y008399D01*
X012555Y008422D01*
X012532Y008449D01*
X012511Y008477D01*
X012494Y008508D01*
X012481Y008541D01*
X012471Y008575D01*
X012465Y008610D01*
X012463Y008645D01*
X012463Y006282D02*
X012465Y006317D01*
X012471Y006352D01*
X012481Y006386D01*
X012494Y006419D01*
X012511Y006450D01*
X012532Y006478D01*
X012555Y006505D01*
X012582Y006528D01*
X012610Y006549D01*
X012641Y006566D01*
X012674Y006579D01*
X012708Y006589D01*
X012743Y006595D01*
X012778Y006597D01*
X012813Y006595D01*
X012848Y006589D01*
X012882Y006579D01*
X012915Y006566D01*
X012946Y006549D01*
X012974Y006528D01*
X013001Y006505D01*
X013024Y006478D01*
X013045Y006450D01*
X013062Y006419D01*
X013075Y006386D01*
X013085Y006352D01*
X013091Y006317D01*
X013093Y006282D01*
X013091Y006247D01*
X013085Y006212D01*
X013075Y006178D01*
X013062Y006145D01*
X013045Y006114D01*
X013024Y006086D01*
X013001Y006059D01*
X012974Y006036D01*
X012946Y006015D01*
X012915Y005998D01*
X012882Y005985D01*
X012848Y005975D01*
X012813Y005969D01*
X012778Y005967D01*
X012743Y005969D01*
X012708Y005975D01*
X012674Y005985D01*
X012641Y005998D01*
X012610Y006015D01*
X012582Y006036D01*
X012555Y006059D01*
X012532Y006086D01*
X012511Y006114D01*
X012494Y006145D01*
X012481Y006178D01*
X012471Y006212D01*
X012465Y006247D01*
X012463Y006282D01*
X012463Y002739D02*
X012465Y002774D01*
X012471Y002809D01*
X012481Y002843D01*
X012494Y002876D01*
X012511Y002907D01*
X012532Y002935D01*
X012555Y002962D01*
X012582Y002985D01*
X012610Y003006D01*
X012641Y003023D01*
X012674Y003036D01*
X012708Y003046D01*
X012743Y003052D01*
X012778Y003054D01*
X012813Y003052D01*
X012848Y003046D01*
X012882Y003036D01*
X012915Y003023D01*
X012946Y003006D01*
X012974Y002985D01*
X013001Y002962D01*
X013024Y002935D01*
X013045Y002907D01*
X013062Y002876D01*
X013075Y002843D01*
X013085Y002809D01*
X013091Y002774D01*
X013093Y002739D01*
X013091Y002704D01*
X013085Y002669D01*
X013075Y002635D01*
X013062Y002602D01*
X013045Y002571D01*
X013024Y002543D01*
X013001Y002516D01*
X012974Y002493D01*
X012946Y002472D01*
X012915Y002455D01*
X012882Y002442D01*
X012848Y002432D01*
X012813Y002426D01*
X012778Y002424D01*
X012743Y002426D01*
X012708Y002432D01*
X012674Y002442D01*
X012641Y002455D01*
X012610Y002472D01*
X012582Y002493D01*
X012555Y002516D01*
X012532Y002543D01*
X012511Y002571D01*
X012494Y002602D01*
X012481Y002635D01*
X012471Y002669D01*
X012465Y002704D01*
X012463Y002739D01*
X016085Y007463D02*
X016087Y007513D01*
X016093Y007563D01*
X016103Y007612D01*
X016117Y007660D01*
X016134Y007707D01*
X016155Y007752D01*
X016180Y007796D01*
X016208Y007837D01*
X016240Y007876D01*
X016274Y007913D01*
X016311Y007947D01*
X016351Y007977D01*
X016393Y008004D01*
X016437Y008028D01*
X016483Y008049D01*
X016530Y008065D01*
X016578Y008078D01*
X016628Y008087D01*
X016677Y008092D01*
X016728Y008093D01*
X016778Y008090D01*
X016827Y008083D01*
X016876Y008072D01*
X016924Y008057D01*
X016970Y008039D01*
X017015Y008017D01*
X017058Y007991D01*
X017099Y007962D01*
X017138Y007930D01*
X017174Y007895D01*
X017206Y007857D01*
X017236Y007817D01*
X017263Y007774D01*
X017286Y007730D01*
X017305Y007684D01*
X017321Y007636D01*
X017333Y007587D01*
X017341Y007538D01*
X017345Y007488D01*
X017345Y007438D01*
X017341Y007388D01*
X017333Y007339D01*
X017321Y007290D01*
X017305Y007242D01*
X017286Y007196D01*
X017263Y007152D01*
X017236Y007109D01*
X017206Y007069D01*
X017174Y007031D01*
X017138Y006996D01*
X017099Y006964D01*
X017058Y006935D01*
X017015Y006909D01*
X016970Y006887D01*
X016924Y006869D01*
X016876Y006854D01*
X016827Y006843D01*
X016778Y006836D01*
X016728Y006833D01*
X016677Y006834D01*
X016628Y006839D01*
X016578Y006848D01*
X016530Y006861D01*
X016483Y006877D01*
X016437Y006898D01*
X016393Y006922D01*
X016351Y006949D01*
X016311Y006979D01*
X016274Y007013D01*
X016240Y007050D01*
X016208Y007089D01*
X016180Y007130D01*
X016155Y007174D01*
X016134Y007219D01*
X016117Y007266D01*
X016103Y007314D01*
X016093Y007363D01*
X016087Y007413D01*
X016085Y007463D01*
X020337Y006282D02*
X020339Y006317D01*
X020345Y006352D01*
X020355Y006386D01*
X020368Y006419D01*
X020385Y006450D01*
X020406Y006478D01*
X020429Y006505D01*
X020456Y006528D01*
X020484Y006549D01*
X020515Y006566D01*
X020548Y006579D01*
X020582Y006589D01*
X020617Y006595D01*
X020652Y006597D01*
X020687Y006595D01*
X020722Y006589D01*
X020756Y006579D01*
X020789Y006566D01*
X020820Y006549D01*
X020848Y006528D01*
X020875Y006505D01*
X020898Y006478D01*
X020919Y006450D01*
X020936Y006419D01*
X020949Y006386D01*
X020959Y006352D01*
X020965Y006317D01*
X020967Y006282D01*
X020965Y006247D01*
X020959Y006212D01*
X020949Y006178D01*
X020936Y006145D01*
X020919Y006114D01*
X020898Y006086D01*
X020875Y006059D01*
X020848Y006036D01*
X020820Y006015D01*
X020789Y005998D01*
X020756Y005985D01*
X020722Y005975D01*
X020687Y005969D01*
X020652Y005967D01*
X020617Y005969D01*
X020582Y005975D01*
X020548Y005985D01*
X020515Y005998D01*
X020484Y006015D01*
X020456Y006036D01*
X020429Y006059D01*
X020406Y006086D01*
X020385Y006114D01*
X020368Y006145D01*
X020355Y006178D01*
X020345Y006212D01*
X020339Y006247D01*
X020337Y006282D01*
X020337Y008645D02*
X020339Y008680D01*
X020345Y008715D01*
X020355Y008749D01*
X020368Y008782D01*
X020385Y008813D01*
X020406Y008841D01*
X020429Y008868D01*
X020456Y008891D01*
X020484Y008912D01*
X020515Y008929D01*
X020548Y008942D01*
X020582Y008952D01*
X020617Y008958D01*
X020652Y008960D01*
X020687Y008958D01*
X020722Y008952D01*
X020756Y008942D01*
X020789Y008929D01*
X020820Y008912D01*
X020848Y008891D01*
X020875Y008868D01*
X020898Y008841D01*
X020919Y008813D01*
X020936Y008782D01*
X020949Y008749D01*
X020959Y008715D01*
X020965Y008680D01*
X020967Y008645D01*
X020965Y008610D01*
X020959Y008575D01*
X020949Y008541D01*
X020936Y008508D01*
X020919Y008477D01*
X020898Y008449D01*
X020875Y008422D01*
X020848Y008399D01*
X020820Y008378D01*
X020789Y008361D01*
X020756Y008348D01*
X020722Y008338D01*
X020687Y008332D01*
X020652Y008330D01*
X020617Y008332D01*
X020582Y008338D01*
X020548Y008348D01*
X020515Y008361D01*
X020484Y008378D01*
X020456Y008399D01*
X020429Y008422D01*
X020406Y008449D01*
X020385Y008477D01*
X020368Y008508D01*
X020355Y008541D01*
X020345Y008575D01*
X020339Y008610D01*
X020337Y008645D01*
X020337Y012188D02*
X020339Y012223D01*
X020345Y012258D01*
X020355Y012292D01*
X020368Y012325D01*
X020385Y012356D01*
X020406Y012384D01*
X020429Y012411D01*
X020456Y012434D01*
X020484Y012455D01*
X020515Y012472D01*
X020548Y012485D01*
X020582Y012495D01*
X020617Y012501D01*
X020652Y012503D01*
X020687Y012501D01*
X020722Y012495D01*
X020756Y012485D01*
X020789Y012472D01*
X020820Y012455D01*
X020848Y012434D01*
X020875Y012411D01*
X020898Y012384D01*
X020919Y012356D01*
X020936Y012325D01*
X020949Y012292D01*
X020959Y012258D01*
X020965Y012223D01*
X020967Y012188D01*
X020965Y012153D01*
X020959Y012118D01*
X020949Y012084D01*
X020936Y012051D01*
X020919Y012020D01*
X020898Y011992D01*
X020875Y011965D01*
X020848Y011942D01*
X020820Y011921D01*
X020789Y011904D01*
X020756Y011891D01*
X020722Y011881D01*
X020687Y011875D01*
X020652Y011873D01*
X020617Y011875D01*
X020582Y011881D01*
X020548Y011891D01*
X020515Y011904D01*
X020484Y011921D01*
X020456Y011942D01*
X020429Y011965D01*
X020406Y011992D01*
X020385Y012020D01*
X020368Y012051D01*
X020355Y012084D01*
X020345Y012118D01*
X020339Y012153D01*
X020337Y012188D01*
X022975Y014353D02*
X022977Y014403D01*
X022983Y014453D01*
X022993Y014502D01*
X023007Y014550D01*
X023024Y014597D01*
X023045Y014642D01*
X023070Y014686D01*
X023098Y014727D01*
X023130Y014766D01*
X023164Y014803D01*
X023201Y014837D01*
X023241Y014867D01*
X023283Y014894D01*
X023327Y014918D01*
X023373Y014939D01*
X023420Y014955D01*
X023468Y014968D01*
X023518Y014977D01*
X023567Y014982D01*
X023618Y014983D01*
X023668Y014980D01*
X023717Y014973D01*
X023766Y014962D01*
X023814Y014947D01*
X023860Y014929D01*
X023905Y014907D01*
X023948Y014881D01*
X023989Y014852D01*
X024028Y014820D01*
X024064Y014785D01*
X024096Y014747D01*
X024126Y014707D01*
X024153Y014664D01*
X024176Y014620D01*
X024195Y014574D01*
X024211Y014526D01*
X024223Y014477D01*
X024231Y014428D01*
X024235Y014378D01*
X024235Y014328D01*
X024231Y014278D01*
X024223Y014229D01*
X024211Y014180D01*
X024195Y014132D01*
X024176Y014086D01*
X024153Y014042D01*
X024126Y013999D01*
X024096Y013959D01*
X024064Y013921D01*
X024028Y013886D01*
X023989Y013854D01*
X023948Y013825D01*
X023905Y013799D01*
X023860Y013777D01*
X023814Y013759D01*
X023766Y013744D01*
X023717Y013733D01*
X023668Y013726D01*
X023618Y013723D01*
X023567Y013724D01*
X023518Y013729D01*
X023468Y013738D01*
X023420Y013751D01*
X023373Y013767D01*
X023327Y013788D01*
X023283Y013812D01*
X023241Y013839D01*
X023201Y013869D01*
X023164Y013903D01*
X023130Y013940D01*
X023098Y013979D01*
X023070Y014020D01*
X023045Y014064D01*
X023024Y014109D01*
X023007Y014156D01*
X022993Y014204D01*
X022983Y014253D01*
X022977Y014303D01*
X022975Y014353D01*
X020337Y016519D02*
X020339Y016554D01*
X020345Y016589D01*
X020355Y016623D01*
X020368Y016656D01*
X020385Y016687D01*
X020406Y016715D01*
X020429Y016742D01*
X020456Y016765D01*
X020484Y016786D01*
X020515Y016803D01*
X020548Y016816D01*
X020582Y016826D01*
X020617Y016832D01*
X020652Y016834D01*
X020687Y016832D01*
X020722Y016826D01*
X020756Y016816D01*
X020789Y016803D01*
X020820Y016786D01*
X020848Y016765D01*
X020875Y016742D01*
X020898Y016715D01*
X020919Y016687D01*
X020936Y016656D01*
X020949Y016623D01*
X020959Y016589D01*
X020965Y016554D01*
X020967Y016519D01*
X020965Y016484D01*
X020959Y016449D01*
X020949Y016415D01*
X020936Y016382D01*
X020919Y016351D01*
X020898Y016323D01*
X020875Y016296D01*
X020848Y016273D01*
X020820Y016252D01*
X020789Y016235D01*
X020756Y016222D01*
X020722Y016212D01*
X020687Y016206D01*
X020652Y016204D01*
X020617Y016206D01*
X020582Y016212D01*
X020548Y016222D01*
X020515Y016235D01*
X020484Y016252D01*
X020456Y016273D01*
X020429Y016296D01*
X020406Y016323D01*
X020385Y016351D01*
X020368Y016382D01*
X020355Y016415D01*
X020345Y016449D01*
X020339Y016484D01*
X020337Y016519D01*
X020337Y020062D02*
X020339Y020097D01*
X020345Y020132D01*
X020355Y020166D01*
X020368Y020199D01*
X020385Y020230D01*
X020406Y020258D01*
X020429Y020285D01*
X020456Y020308D01*
X020484Y020329D01*
X020515Y020346D01*
X020548Y020359D01*
X020582Y020369D01*
X020617Y020375D01*
X020652Y020377D01*
X020687Y020375D01*
X020722Y020369D01*
X020756Y020359D01*
X020789Y020346D01*
X020820Y020329D01*
X020848Y020308D01*
X020875Y020285D01*
X020898Y020258D01*
X020919Y020230D01*
X020936Y020199D01*
X020949Y020166D01*
X020959Y020132D01*
X020965Y020097D01*
X020967Y020062D01*
X020965Y020027D01*
X020959Y019992D01*
X020949Y019958D01*
X020936Y019925D01*
X020919Y019894D01*
X020898Y019866D01*
X020875Y019839D01*
X020848Y019816D01*
X020820Y019795D01*
X020789Y019778D01*
X020756Y019765D01*
X020722Y019755D01*
X020687Y019749D01*
X020652Y019747D01*
X020617Y019749D01*
X020582Y019755D01*
X020548Y019765D01*
X020515Y019778D01*
X020484Y019795D01*
X020456Y019816D01*
X020429Y019839D01*
X020406Y019866D01*
X020385Y019894D01*
X020368Y019925D01*
X020355Y019958D01*
X020345Y019992D01*
X020339Y020027D01*
X020337Y020062D01*
X020337Y022424D02*
X020339Y022459D01*
X020345Y022494D01*
X020355Y022528D01*
X020368Y022561D01*
X020385Y022592D01*
X020406Y022620D01*
X020429Y022647D01*
X020456Y022670D01*
X020484Y022691D01*
X020515Y022708D01*
X020548Y022721D01*
X020582Y022731D01*
X020617Y022737D01*
X020652Y022739D01*
X020687Y022737D01*
X020722Y022731D01*
X020756Y022721D01*
X020789Y022708D01*
X020820Y022691D01*
X020848Y022670D01*
X020875Y022647D01*
X020898Y022620D01*
X020919Y022592D01*
X020936Y022561D01*
X020949Y022528D01*
X020959Y022494D01*
X020965Y022459D01*
X020967Y022424D01*
X020965Y022389D01*
X020959Y022354D01*
X020949Y022320D01*
X020936Y022287D01*
X020919Y022256D01*
X020898Y022228D01*
X020875Y022201D01*
X020848Y022178D01*
X020820Y022157D01*
X020789Y022140D01*
X020756Y022127D01*
X020722Y022117D01*
X020687Y022111D01*
X020652Y022109D01*
X020617Y022111D01*
X020582Y022117D01*
X020548Y022127D01*
X020515Y022140D01*
X020484Y022157D01*
X020456Y022178D01*
X020429Y022201D01*
X020406Y022228D01*
X020385Y022256D01*
X020368Y022287D01*
X020355Y022320D01*
X020345Y022354D01*
X020339Y022389D01*
X020337Y022424D01*
X020337Y025967D02*
X020339Y026002D01*
X020345Y026037D01*
X020355Y026071D01*
X020368Y026104D01*
X020385Y026135D01*
X020406Y026163D01*
X020429Y026190D01*
X020456Y026213D01*
X020484Y026234D01*
X020515Y026251D01*
X020548Y026264D01*
X020582Y026274D01*
X020617Y026280D01*
X020652Y026282D01*
X020687Y026280D01*
X020722Y026274D01*
X020756Y026264D01*
X020789Y026251D01*
X020820Y026234D01*
X020848Y026213D01*
X020875Y026190D01*
X020898Y026163D01*
X020919Y026135D01*
X020936Y026104D01*
X020949Y026071D01*
X020959Y026037D01*
X020965Y026002D01*
X020967Y025967D01*
X020965Y025932D01*
X020959Y025897D01*
X020949Y025863D01*
X020936Y025830D01*
X020919Y025799D01*
X020898Y025771D01*
X020875Y025744D01*
X020848Y025721D01*
X020820Y025700D01*
X020789Y025683D01*
X020756Y025670D01*
X020722Y025660D01*
X020687Y025654D01*
X020652Y025652D01*
X020617Y025654D01*
X020582Y025660D01*
X020548Y025670D01*
X020515Y025683D01*
X020484Y025700D01*
X020456Y025721D01*
X020429Y025744D01*
X020406Y025771D01*
X020385Y025799D01*
X020368Y025830D01*
X020355Y025863D01*
X020345Y025897D01*
X020339Y025932D01*
X020337Y025967D01*
X016085Y021243D02*
X016087Y021293D01*
X016093Y021343D01*
X016103Y021392D01*
X016117Y021440D01*
X016134Y021487D01*
X016155Y021532D01*
X016180Y021576D01*
X016208Y021617D01*
X016240Y021656D01*
X016274Y021693D01*
X016311Y021727D01*
X016351Y021757D01*
X016393Y021784D01*
X016437Y021808D01*
X016483Y021829D01*
X016530Y021845D01*
X016578Y021858D01*
X016628Y021867D01*
X016677Y021872D01*
X016728Y021873D01*
X016778Y021870D01*
X016827Y021863D01*
X016876Y021852D01*
X016924Y021837D01*
X016970Y021819D01*
X017015Y021797D01*
X017058Y021771D01*
X017099Y021742D01*
X017138Y021710D01*
X017174Y021675D01*
X017206Y021637D01*
X017236Y021597D01*
X017263Y021554D01*
X017286Y021510D01*
X017305Y021464D01*
X017321Y021416D01*
X017333Y021367D01*
X017341Y021318D01*
X017345Y021268D01*
X017345Y021218D01*
X017341Y021168D01*
X017333Y021119D01*
X017321Y021070D01*
X017305Y021022D01*
X017286Y020976D01*
X017263Y020932D01*
X017236Y020889D01*
X017206Y020849D01*
X017174Y020811D01*
X017138Y020776D01*
X017099Y020744D01*
X017058Y020715D01*
X017015Y020689D01*
X016970Y020667D01*
X016924Y020649D01*
X016876Y020634D01*
X016827Y020623D01*
X016778Y020616D01*
X016728Y020613D01*
X016677Y020614D01*
X016628Y020619D01*
X016578Y020628D01*
X016530Y020641D01*
X016483Y020657D01*
X016437Y020678D01*
X016393Y020702D01*
X016351Y020729D01*
X016311Y020759D01*
X016274Y020793D01*
X016240Y020830D01*
X016208Y020869D01*
X016180Y020910D01*
X016155Y020954D01*
X016134Y020999D01*
X016117Y021046D01*
X016103Y021094D01*
X016093Y021143D01*
X016087Y021193D01*
X016085Y021243D01*
X026243Y022424D02*
X026245Y022459D01*
X026251Y022494D01*
X026261Y022528D01*
X026274Y022561D01*
X026291Y022592D01*
X026312Y022620D01*
X026335Y022647D01*
X026362Y022670D01*
X026390Y022691D01*
X026421Y022708D01*
X026454Y022721D01*
X026488Y022731D01*
X026523Y022737D01*
X026558Y022739D01*
X026593Y022737D01*
X026628Y022731D01*
X026662Y022721D01*
X026695Y022708D01*
X026726Y022691D01*
X026754Y022670D01*
X026781Y022647D01*
X026804Y022620D01*
X026825Y022592D01*
X026842Y022561D01*
X026855Y022528D01*
X026865Y022494D01*
X026871Y022459D01*
X026873Y022424D01*
X026871Y022389D01*
X026865Y022354D01*
X026855Y022320D01*
X026842Y022287D01*
X026825Y022256D01*
X026804Y022228D01*
X026781Y022201D01*
X026754Y022178D01*
X026726Y022157D01*
X026695Y022140D01*
X026662Y022127D01*
X026628Y022117D01*
X026593Y022111D01*
X026558Y022109D01*
X026523Y022111D01*
X026488Y022117D01*
X026454Y022127D01*
X026421Y022140D01*
X026390Y022157D01*
X026362Y022178D01*
X026335Y022201D01*
X026312Y022228D01*
X026291Y022256D01*
X026274Y022287D01*
X026261Y022320D01*
X026251Y022354D01*
X026245Y022389D01*
X026243Y022424D01*
X026243Y020062D02*
X026245Y020097D01*
X026251Y020132D01*
X026261Y020166D01*
X026274Y020199D01*
X026291Y020230D01*
X026312Y020258D01*
X026335Y020285D01*
X026362Y020308D01*
X026390Y020329D01*
X026421Y020346D01*
X026454Y020359D01*
X026488Y020369D01*
X026523Y020375D01*
X026558Y020377D01*
X026593Y020375D01*
X026628Y020369D01*
X026662Y020359D01*
X026695Y020346D01*
X026726Y020329D01*
X026754Y020308D01*
X026781Y020285D01*
X026804Y020258D01*
X026825Y020230D01*
X026842Y020199D01*
X026855Y020166D01*
X026865Y020132D01*
X026871Y020097D01*
X026873Y020062D01*
X026871Y020027D01*
X026865Y019992D01*
X026855Y019958D01*
X026842Y019925D01*
X026825Y019894D01*
X026804Y019866D01*
X026781Y019839D01*
X026754Y019816D01*
X026726Y019795D01*
X026695Y019778D01*
X026662Y019765D01*
X026628Y019755D01*
X026593Y019749D01*
X026558Y019747D01*
X026523Y019749D01*
X026488Y019755D01*
X026454Y019765D01*
X026421Y019778D01*
X026390Y019795D01*
X026362Y019816D01*
X026335Y019839D01*
X026312Y019866D01*
X026291Y019894D01*
X026274Y019925D01*
X026261Y019958D01*
X026251Y019992D01*
X026245Y020027D01*
X026243Y020062D01*
X026243Y016519D02*
X026245Y016554D01*
X026251Y016589D01*
X026261Y016623D01*
X026274Y016656D01*
X026291Y016687D01*
X026312Y016715D01*
X026335Y016742D01*
X026362Y016765D01*
X026390Y016786D01*
X026421Y016803D01*
X026454Y016816D01*
X026488Y016826D01*
X026523Y016832D01*
X026558Y016834D01*
X026593Y016832D01*
X026628Y016826D01*
X026662Y016816D01*
X026695Y016803D01*
X026726Y016786D01*
X026754Y016765D01*
X026781Y016742D01*
X026804Y016715D01*
X026825Y016687D01*
X026842Y016656D01*
X026855Y016623D01*
X026865Y016589D01*
X026871Y016554D01*
X026873Y016519D01*
X026871Y016484D01*
X026865Y016449D01*
X026855Y016415D01*
X026842Y016382D01*
X026825Y016351D01*
X026804Y016323D01*
X026781Y016296D01*
X026754Y016273D01*
X026726Y016252D01*
X026695Y016235D01*
X026662Y016222D01*
X026628Y016212D01*
X026593Y016206D01*
X026558Y016204D01*
X026523Y016206D01*
X026488Y016212D01*
X026454Y016222D01*
X026421Y016235D01*
X026390Y016252D01*
X026362Y016273D01*
X026335Y016296D01*
X026312Y016323D01*
X026291Y016351D01*
X026274Y016382D01*
X026261Y016415D01*
X026251Y016449D01*
X026245Y016484D01*
X026243Y016519D01*
X026243Y012188D02*
X026245Y012223D01*
X026251Y012258D01*
X026261Y012292D01*
X026274Y012325D01*
X026291Y012356D01*
X026312Y012384D01*
X026335Y012411D01*
X026362Y012434D01*
X026390Y012455D01*
X026421Y012472D01*
X026454Y012485D01*
X026488Y012495D01*
X026523Y012501D01*
X026558Y012503D01*
X026593Y012501D01*
X026628Y012495D01*
X026662Y012485D01*
X026695Y012472D01*
X026726Y012455D01*
X026754Y012434D01*
X026781Y012411D01*
X026804Y012384D01*
X026825Y012356D01*
X026842Y012325D01*
X026855Y012292D01*
X026865Y012258D01*
X026871Y012223D01*
X026873Y012188D01*
X026871Y012153D01*
X026865Y012118D01*
X026855Y012084D01*
X026842Y012051D01*
X026825Y012020D01*
X026804Y011992D01*
X026781Y011965D01*
X026754Y011942D01*
X026726Y011921D01*
X026695Y011904D01*
X026662Y011891D01*
X026628Y011881D01*
X026593Y011875D01*
X026558Y011873D01*
X026523Y011875D01*
X026488Y011881D01*
X026454Y011891D01*
X026421Y011904D01*
X026390Y011921D01*
X026362Y011942D01*
X026335Y011965D01*
X026312Y011992D01*
X026291Y012020D01*
X026274Y012051D01*
X026261Y012084D01*
X026251Y012118D01*
X026245Y012153D01*
X026243Y012188D01*
X026243Y008645D02*
X026245Y008680D01*
X026251Y008715D01*
X026261Y008749D01*
X026274Y008782D01*
X026291Y008813D01*
X026312Y008841D01*
X026335Y008868D01*
X026362Y008891D01*
X026390Y008912D01*
X026421Y008929D01*
X026454Y008942D01*
X026488Y008952D01*
X026523Y008958D01*
X026558Y008960D01*
X026593Y008958D01*
X026628Y008952D01*
X026662Y008942D01*
X026695Y008929D01*
X026726Y008912D01*
X026754Y008891D01*
X026781Y008868D01*
X026804Y008841D01*
X026825Y008813D01*
X026842Y008782D01*
X026855Y008749D01*
X026865Y008715D01*
X026871Y008680D01*
X026873Y008645D01*
X026871Y008610D01*
X026865Y008575D01*
X026855Y008541D01*
X026842Y008508D01*
X026825Y008477D01*
X026804Y008449D01*
X026781Y008422D01*
X026754Y008399D01*
X026726Y008378D01*
X026695Y008361D01*
X026662Y008348D01*
X026628Y008338D01*
X026593Y008332D01*
X026558Y008330D01*
X026523Y008332D01*
X026488Y008338D01*
X026454Y008348D01*
X026421Y008361D01*
X026390Y008378D01*
X026362Y008399D01*
X026335Y008422D01*
X026312Y008449D01*
X026291Y008477D01*
X026274Y008508D01*
X026261Y008541D01*
X026251Y008575D01*
X026245Y008610D01*
X026243Y008645D01*
X026243Y006282D02*
X026245Y006317D01*
X026251Y006352D01*
X026261Y006386D01*
X026274Y006419D01*
X026291Y006450D01*
X026312Y006478D01*
X026335Y006505D01*
X026362Y006528D01*
X026390Y006549D01*
X026421Y006566D01*
X026454Y006579D01*
X026488Y006589D01*
X026523Y006595D01*
X026558Y006597D01*
X026593Y006595D01*
X026628Y006589D01*
X026662Y006579D01*
X026695Y006566D01*
X026726Y006549D01*
X026754Y006528D01*
X026781Y006505D01*
X026804Y006478D01*
X026825Y006450D01*
X026842Y006419D01*
X026855Y006386D01*
X026865Y006352D01*
X026871Y006317D01*
X026873Y006282D01*
X026871Y006247D01*
X026865Y006212D01*
X026855Y006178D01*
X026842Y006145D01*
X026825Y006114D01*
X026804Y006086D01*
X026781Y006059D01*
X026754Y006036D01*
X026726Y006015D01*
X026695Y005998D01*
X026662Y005985D01*
X026628Y005975D01*
X026593Y005969D01*
X026558Y005967D01*
X026523Y005969D01*
X026488Y005975D01*
X026454Y005985D01*
X026421Y005998D01*
X026390Y006015D01*
X026362Y006036D01*
X026335Y006059D01*
X026312Y006086D01*
X026291Y006114D01*
X026274Y006145D01*
X026261Y006178D01*
X026251Y006212D01*
X026245Y006247D01*
X026243Y006282D01*
X026243Y002739D02*
X026245Y002774D01*
X026251Y002809D01*
X026261Y002843D01*
X026274Y002876D01*
X026291Y002907D01*
X026312Y002935D01*
X026335Y002962D01*
X026362Y002985D01*
X026390Y003006D01*
X026421Y003023D01*
X026454Y003036D01*
X026488Y003046D01*
X026523Y003052D01*
X026558Y003054D01*
X026593Y003052D01*
X026628Y003046D01*
X026662Y003036D01*
X026695Y003023D01*
X026726Y003006D01*
X026754Y002985D01*
X026781Y002962D01*
X026804Y002935D01*
X026825Y002907D01*
X026842Y002876D01*
X026855Y002843D01*
X026865Y002809D01*
X026871Y002774D01*
X026873Y002739D01*
X026871Y002704D01*
X026865Y002669D01*
X026855Y002635D01*
X026842Y002602D01*
X026825Y002571D01*
X026804Y002543D01*
X026781Y002516D01*
X026754Y002493D01*
X026726Y002472D01*
X026695Y002455D01*
X026662Y002442D01*
X026628Y002432D01*
X026593Y002426D01*
X026558Y002424D01*
X026523Y002426D01*
X026488Y002432D01*
X026454Y002442D01*
X026421Y002455D01*
X026390Y002472D01*
X026362Y002493D01*
X026335Y002516D01*
X026312Y002543D01*
X026291Y002571D01*
X026274Y002602D01*
X026261Y002635D01*
X026251Y002669D01*
X026245Y002704D01*
X026243Y002739D01*
X020337Y002739D02*
X020339Y002774D01*
X020345Y002809D01*
X020355Y002843D01*
X020368Y002876D01*
X020385Y002907D01*
X020406Y002935D01*
X020429Y002962D01*
X020456Y002985D01*
X020484Y003006D01*
X020515Y003023D01*
X020548Y003036D01*
X020582Y003046D01*
X020617Y003052D01*
X020652Y003054D01*
X020687Y003052D01*
X020722Y003046D01*
X020756Y003036D01*
X020789Y003023D01*
X020820Y003006D01*
X020848Y002985D01*
X020875Y002962D01*
X020898Y002935D01*
X020919Y002907D01*
X020936Y002876D01*
X020949Y002843D01*
X020959Y002809D01*
X020965Y002774D01*
X020967Y002739D01*
X020965Y002704D01*
X020959Y002669D01*
X020949Y002635D01*
X020936Y002602D01*
X020919Y002571D01*
X020898Y002543D01*
X020875Y002516D01*
X020848Y002493D01*
X020820Y002472D01*
X020789Y002455D01*
X020756Y002442D01*
X020722Y002432D01*
X020687Y002426D01*
X020652Y002424D01*
X020617Y002426D01*
X020582Y002432D01*
X020548Y002442D01*
X020515Y002455D01*
X020484Y002472D01*
X020456Y002493D01*
X020429Y002516D01*
X020406Y002543D01*
X020385Y002571D01*
X020368Y002602D01*
X020355Y002635D01*
X020345Y002669D01*
X020339Y002704D01*
X020337Y002739D01*
X026243Y025967D02*
X026245Y026002D01*
X026251Y026037D01*
X026261Y026071D01*
X026274Y026104D01*
X026291Y026135D01*
X026312Y026163D01*
X026335Y026190D01*
X026362Y026213D01*
X026390Y026234D01*
X026421Y026251D01*
X026454Y026264D01*
X026488Y026274D01*
X026523Y026280D01*
X026558Y026282D01*
X026593Y026280D01*
X026628Y026274D01*
X026662Y026264D01*
X026695Y026251D01*
X026726Y026234D01*
X026754Y026213D01*
X026781Y026190D01*
X026804Y026163D01*
X026825Y026135D01*
X026842Y026104D01*
X026855Y026071D01*
X026865Y026037D01*
X026871Y026002D01*
X026873Y025967D01*
X026871Y025932D01*
X026865Y025897D01*
X026855Y025863D01*
X026842Y025830D01*
X026825Y025799D01*
X026804Y025771D01*
X026781Y025744D01*
X026754Y025721D01*
X026726Y025700D01*
X026695Y025683D01*
X026662Y025670D01*
X026628Y025660D01*
X026593Y025654D01*
X026558Y025652D01*
X026523Y025654D01*
X026488Y025660D01*
X026454Y025670D01*
X026421Y025683D01*
X026390Y025700D01*
X026362Y025721D01*
X026335Y025744D01*
X026312Y025771D01*
X026291Y025799D01*
X026274Y025830D01*
X026261Y025863D01*
X026251Y025897D01*
X026245Y025932D01*
X026243Y025967D01*
D11*
X016715Y021243D03*
X016715Y014353D03*
X009826Y014353D03*
X016715Y007463D03*
X023605Y014353D03*
D12*
X023113Y017306D03*
X024097Y017306D03*
X024097Y019274D03*
X023113Y019274D03*
X023113Y023211D03*
X024097Y023211D03*
X024097Y025180D03*
X023113Y025180D03*
X018192Y025180D03*
X018192Y023211D03*
X015239Y023211D03*
X015239Y025180D03*
X010318Y025180D03*
X009334Y025180D03*
X009334Y023211D03*
X010318Y023211D03*
X010318Y019274D03*
X009334Y019274D03*
X009334Y017306D03*
X010318Y017306D03*
X015239Y017306D03*
X015239Y019274D03*
X018192Y019274D03*
X018192Y017306D03*
X018192Y011400D03*
X018192Y009432D03*
X015239Y009432D03*
X015239Y011400D03*
X010318Y011400D03*
X009334Y011400D03*
X009334Y009432D03*
X010318Y009432D03*
X010318Y005495D03*
X009334Y005495D03*
X009334Y003526D03*
X010318Y003526D03*
X015239Y003526D03*
X015239Y005495D03*
X018192Y005495D03*
X018192Y003526D03*
X023113Y003526D03*
X024097Y003526D03*
X024097Y005495D03*
X023113Y005495D03*
X023113Y009432D03*
X024097Y009432D03*
X024097Y011400D03*
X023113Y011400D03*
X029019Y011400D03*
X029019Y009432D03*
X029019Y005495D03*
X029019Y003526D03*
X029019Y017306D03*
X029019Y019274D03*
X029019Y023211D03*
X029019Y025180D03*
X004412Y025180D03*
X004412Y023211D03*
X004412Y019274D03*
X004412Y017306D03*
X004412Y011400D03*
X004412Y009432D03*
X004412Y005495D03*
X004412Y003526D03*
D13*
X006873Y001853D03*
X006873Y007168D03*
X006873Y007759D03*
X012778Y007759D03*
X012778Y007168D03*
X012778Y001853D03*
X020652Y001853D03*
X020652Y007168D03*
X020652Y007759D03*
X026558Y007759D03*
X026558Y007168D03*
X026558Y001853D03*
X026558Y013074D03*
X026558Y015633D03*
X020652Y015633D03*
X020652Y013074D03*
X012778Y013074D03*
X012778Y015633D03*
X006873Y015633D03*
X006873Y013074D03*
X006873Y020948D03*
X006873Y021538D03*
X006873Y026853D03*
X012778Y026853D03*
X012778Y021538D03*
X012778Y020948D03*
X020652Y020948D03*
X020652Y021538D03*
X020652Y026853D03*
X026558Y026853D03*
X026558Y021538D03*
X026558Y020948D03*
D14*
X026558Y020062D03*
X026558Y022424D03*
X026558Y025967D03*
X020652Y025967D03*
X020652Y022424D03*
X020652Y020062D03*
X020652Y016519D03*
X020652Y012188D03*
X020652Y008645D03*
X020652Y006282D03*
X020652Y002739D03*
X026558Y002739D03*
X026558Y006282D03*
X026558Y008645D03*
X026558Y012188D03*
X026558Y016519D03*
X012778Y016519D03*
X012778Y020062D03*
X012778Y022424D03*
X012778Y025967D03*
X006873Y025967D03*
X006873Y022424D03*
X006873Y020062D03*
X006873Y016519D03*
X006873Y012188D03*
X006873Y008645D03*
X006873Y006282D03*
X006873Y002739D03*
X012778Y002739D03*
X012778Y006282D03*
X012778Y008645D03*
X012778Y012188D03*
D15*
X003236Y012247D02*
X002636Y012247D01*
X002636Y011247D02*
X003236Y011247D01*
X003236Y010247D02*
X002636Y010247D01*
X002636Y009247D02*
X003236Y009247D01*
X003236Y008247D02*
X002636Y008247D01*
X002636Y007247D02*
X003236Y007247D01*
X003236Y006247D02*
X002636Y006247D01*
X002636Y013247D02*
X003236Y013247D01*
X003236Y014247D02*
X002636Y014247D01*
X002636Y015247D02*
X003236Y015247D01*
X003236Y016247D02*
X002636Y016247D01*
X002636Y017247D02*
X003236Y017247D01*
X003236Y018247D02*
X002636Y018247D01*
X002636Y019247D02*
X003236Y019247D01*
X003236Y020247D02*
X002636Y020247D01*
X002636Y021247D02*
X003236Y021247D01*
X003236Y022247D02*
X002636Y022247D01*
X002636Y023247D02*
X003236Y023247D01*
X030589Y023247D02*
X031189Y023247D01*
X031189Y022247D02*
X030589Y022247D01*
X030589Y021247D02*
X031189Y021247D01*
X031189Y020247D02*
X030589Y020247D01*
X030589Y019247D02*
X031189Y019247D01*
X031189Y018247D02*
X030589Y018247D01*
X030589Y017247D02*
X031189Y017247D01*
X031189Y016247D02*
X030589Y016247D01*
X030589Y015247D02*
X031189Y015247D01*
X031189Y014247D02*
X030589Y014247D01*
X030589Y013247D02*
X031189Y013247D01*
X031189Y012247D02*
X030589Y012247D01*
X030589Y011247D02*
X031189Y011247D01*
X031189Y010247D02*
X030589Y010247D01*
X030589Y009247D02*
X031189Y009247D01*
X031189Y008247D02*
X030589Y008247D01*
X030589Y007247D02*
X031189Y007247D01*
X031189Y006247D02*
X030589Y006247D01*
D16*
X025785Y004927D03*
X018945Y003487D03*
X027405Y023557D03*
X028125Y023917D03*
X027405Y024637D03*
X026415Y024277D03*
M02*
