%
M48
M72
T01C0.0240
T02C0.0315
T03C0.0400
T04C0.0472
T05C0.0630
T06C0.1260
%
T01
X18945Y3487
X25785Y4927
X27405Y23557
X28125Y23917
X27405Y24637
X26415Y24277
T02
X6873Y1853
X6873Y7168
X6873Y7759
X6873Y13074
X6873Y15633
X6873Y20948
X6873Y21538
X6873Y26853
X12778Y26853
X12778Y21538
X12778Y20948
X12778Y15633
X12778Y13074
X12778Y7759
X12778Y7168
X12778Y1853
X20652Y7168
X20652Y7759
X20652Y1853
X26558Y1853
X26558Y7168
X26558Y7759
X26558Y13074
X26558Y15633
X20652Y13074
X20652Y15633
X20652Y20948
X20652Y21538
X20652Y26853
X26558Y26853
X26558Y21538
X26558Y20948
T03
X2936Y23247
X2936Y22247
X2936Y21247
X2936Y20247
X2936Y19247
X2936Y18247
X2936Y17247
X2936Y16247
X2936Y15247
X2936Y14247
X2936Y13247
X2936Y12247
X2936Y11247
X2936Y10247
X2936Y9247
X2936Y8247
X2936Y7247
X2936Y6247
X30889Y16247
X30889Y17247
X30889Y18247
X30889Y19247
X30889Y20247
X30889Y21247
X30889Y22247
X30889Y23247
X30889Y15247
X30889Y14247
X30889Y13247
X30889Y12247
X30889Y11247
X30889Y10247
X30889Y9247
X30889Y8247
X30889Y7247
X30889Y6247
T04
X4412Y3526
X4412Y5495
X4412Y9432
X4412Y11400
X9334Y11400
X10318Y11400
X10318Y9432
X9334Y9432
X10318Y5495
X9334Y5495
X9334Y3526
X10318Y3526
X15239Y3526
X15239Y5495
X18192Y5495
X18192Y3526
X23113Y3526
X24097Y3526
X24097Y5495
X23113Y5495
X18192Y9432
X18192Y11400
X23113Y11400
X24097Y11400
X24097Y9432
X23113Y9432
X29019Y5495
X29019Y3526
X29019Y9432
X29019Y11400
X18192Y17306
X18192Y19274
X15239Y23211
X15239Y25180
X10318Y25180
X9334Y25180
X9334Y23211
X10318Y23211
X10318Y19274
X9334Y19274
X9334Y17306
X10318Y17306
X15239Y17306
X15239Y19274
X18192Y23211
X18192Y25180
X23113Y25180
X24097Y25180
X24097Y23211
X23113Y23211
X23113Y19274
X24097Y19274
X24097Y17306
X23113Y17306
X29019Y17306
X29019Y19274
X29019Y23211
X29019Y25180
X15239Y11400
X15239Y9432
X4412Y17306
X4412Y19274
X4412Y23211
X4412Y25180
T05
X6873Y2739
X6873Y6282
X6873Y8645
X6873Y12188
X6873Y16519
X6873Y20062
X6873Y22424
X6873Y25967
X12778Y25967
X12778Y22424
X12778Y20062
X20652Y22424
X20652Y20062
X20652Y16519
X20652Y12188
X20652Y8645
X20652Y6282
X20652Y2739
X12778Y6282
X12778Y8645
X12778Y12188
X12778Y16519
X20652Y25967
X26558Y25967
X26558Y22424
X26558Y20062
X26558Y16519
X26558Y12188
X26558Y8645
X26558Y6282
X26558Y2739
X12778Y2739
T06
X9826Y14353
X16715Y14353
X16715Y7463
X23605Y14353
X16715Y21243
M30
