G75*
%MOIN*%
%OFA0B0*%
%FSLAX24Y24*%
%IPPOS*%
%LPD*%
%AMOC8*
5,1,8,0,0,1.08239X$1,22.5*
%
%ADD10C,0.0000*%
%ADD11C,0.0850*%
%ADD12C,0.0660*%
%ADD13C,0.0600*%
%ADD14C,0.0100*%
%ADD15C,0.0400*%
%ADD16C,0.0160*%
D10*
X001755Y000967D02*
X001755Y027739D01*
X032070Y027739D01*
X032070Y000967D01*
X001755Y000967D01*
X006558Y002739D02*
X006560Y002774D01*
X006566Y002809D01*
X006576Y002843D01*
X006589Y002876D01*
X006606Y002907D01*
X006627Y002935D01*
X006650Y002962D01*
X006677Y002985D01*
X006705Y003006D01*
X006736Y003023D01*
X006769Y003036D01*
X006803Y003046D01*
X006838Y003052D01*
X006873Y003054D01*
X006908Y003052D01*
X006943Y003046D01*
X006977Y003036D01*
X007010Y003023D01*
X007041Y003006D01*
X007069Y002985D01*
X007096Y002962D01*
X007119Y002935D01*
X007140Y002907D01*
X007157Y002876D01*
X007170Y002843D01*
X007180Y002809D01*
X007186Y002774D01*
X007188Y002739D01*
X007186Y002704D01*
X007180Y002669D01*
X007170Y002635D01*
X007157Y002602D01*
X007140Y002571D01*
X007119Y002543D01*
X007096Y002516D01*
X007069Y002493D01*
X007041Y002472D01*
X007010Y002455D01*
X006977Y002442D01*
X006943Y002432D01*
X006908Y002426D01*
X006873Y002424D01*
X006838Y002426D01*
X006803Y002432D01*
X006769Y002442D01*
X006736Y002455D01*
X006705Y002472D01*
X006677Y002493D01*
X006650Y002516D01*
X006627Y002543D01*
X006606Y002571D01*
X006589Y002602D01*
X006576Y002635D01*
X006566Y002669D01*
X006560Y002704D01*
X006558Y002739D01*
X006558Y006282D02*
X006560Y006317D01*
X006566Y006352D01*
X006576Y006386D01*
X006589Y006419D01*
X006606Y006450D01*
X006627Y006478D01*
X006650Y006505D01*
X006677Y006528D01*
X006705Y006549D01*
X006736Y006566D01*
X006769Y006579D01*
X006803Y006589D01*
X006838Y006595D01*
X006873Y006597D01*
X006908Y006595D01*
X006943Y006589D01*
X006977Y006579D01*
X007010Y006566D01*
X007041Y006549D01*
X007069Y006528D01*
X007096Y006505D01*
X007119Y006478D01*
X007140Y006450D01*
X007157Y006419D01*
X007170Y006386D01*
X007180Y006352D01*
X007186Y006317D01*
X007188Y006282D01*
X007186Y006247D01*
X007180Y006212D01*
X007170Y006178D01*
X007157Y006145D01*
X007140Y006114D01*
X007119Y006086D01*
X007096Y006059D01*
X007069Y006036D01*
X007041Y006015D01*
X007010Y005998D01*
X006977Y005985D01*
X006943Y005975D01*
X006908Y005969D01*
X006873Y005967D01*
X006838Y005969D01*
X006803Y005975D01*
X006769Y005985D01*
X006736Y005998D01*
X006705Y006015D01*
X006677Y006036D01*
X006650Y006059D01*
X006627Y006086D01*
X006606Y006114D01*
X006589Y006145D01*
X006576Y006178D01*
X006566Y006212D01*
X006560Y006247D01*
X006558Y006282D01*
X006558Y008645D02*
X006560Y008680D01*
X006566Y008715D01*
X006576Y008749D01*
X006589Y008782D01*
X006606Y008813D01*
X006627Y008841D01*
X006650Y008868D01*
X006677Y008891D01*
X006705Y008912D01*
X006736Y008929D01*
X006769Y008942D01*
X006803Y008952D01*
X006838Y008958D01*
X006873Y008960D01*
X006908Y008958D01*
X006943Y008952D01*
X006977Y008942D01*
X007010Y008929D01*
X007041Y008912D01*
X007069Y008891D01*
X007096Y008868D01*
X007119Y008841D01*
X007140Y008813D01*
X007157Y008782D01*
X007170Y008749D01*
X007180Y008715D01*
X007186Y008680D01*
X007188Y008645D01*
X007186Y008610D01*
X007180Y008575D01*
X007170Y008541D01*
X007157Y008508D01*
X007140Y008477D01*
X007119Y008449D01*
X007096Y008422D01*
X007069Y008399D01*
X007041Y008378D01*
X007010Y008361D01*
X006977Y008348D01*
X006943Y008338D01*
X006908Y008332D01*
X006873Y008330D01*
X006838Y008332D01*
X006803Y008338D01*
X006769Y008348D01*
X006736Y008361D01*
X006705Y008378D01*
X006677Y008399D01*
X006650Y008422D01*
X006627Y008449D01*
X006606Y008477D01*
X006589Y008508D01*
X006576Y008541D01*
X006566Y008575D01*
X006560Y008610D01*
X006558Y008645D01*
X006558Y012188D02*
X006560Y012223D01*
X006566Y012258D01*
X006576Y012292D01*
X006589Y012325D01*
X006606Y012356D01*
X006627Y012384D01*
X006650Y012411D01*
X006677Y012434D01*
X006705Y012455D01*
X006736Y012472D01*
X006769Y012485D01*
X006803Y012495D01*
X006838Y012501D01*
X006873Y012503D01*
X006908Y012501D01*
X006943Y012495D01*
X006977Y012485D01*
X007010Y012472D01*
X007041Y012455D01*
X007069Y012434D01*
X007096Y012411D01*
X007119Y012384D01*
X007140Y012356D01*
X007157Y012325D01*
X007170Y012292D01*
X007180Y012258D01*
X007186Y012223D01*
X007188Y012188D01*
X007186Y012153D01*
X007180Y012118D01*
X007170Y012084D01*
X007157Y012051D01*
X007140Y012020D01*
X007119Y011992D01*
X007096Y011965D01*
X007069Y011942D01*
X007041Y011921D01*
X007010Y011904D01*
X006977Y011891D01*
X006943Y011881D01*
X006908Y011875D01*
X006873Y011873D01*
X006838Y011875D01*
X006803Y011881D01*
X006769Y011891D01*
X006736Y011904D01*
X006705Y011921D01*
X006677Y011942D01*
X006650Y011965D01*
X006627Y011992D01*
X006606Y012020D01*
X006589Y012051D01*
X006576Y012084D01*
X006566Y012118D01*
X006560Y012153D01*
X006558Y012188D01*
X009196Y014353D02*
X009198Y014403D01*
X009204Y014453D01*
X009214Y014502D01*
X009228Y014550D01*
X009245Y014597D01*
X009266Y014642D01*
X009291Y014686D01*
X009319Y014727D01*
X009351Y014766D01*
X009385Y014803D01*
X009422Y014837D01*
X009462Y014867D01*
X009504Y014894D01*
X009548Y014918D01*
X009594Y014939D01*
X009641Y014955D01*
X009689Y014968D01*
X009739Y014977D01*
X009788Y014982D01*
X009839Y014983D01*
X009889Y014980D01*
X009938Y014973D01*
X009987Y014962D01*
X010035Y014947D01*
X010081Y014929D01*
X010126Y014907D01*
X010169Y014881D01*
X010210Y014852D01*
X010249Y014820D01*
X010285Y014785D01*
X010317Y014747D01*
X010347Y014707D01*
X010374Y014664D01*
X010397Y014620D01*
X010416Y014574D01*
X010432Y014526D01*
X010444Y014477D01*
X010452Y014428D01*
X010456Y014378D01*
X010456Y014328D01*
X010452Y014278D01*
X010444Y014229D01*
X010432Y014180D01*
X010416Y014132D01*
X010397Y014086D01*
X010374Y014042D01*
X010347Y013999D01*
X010317Y013959D01*
X010285Y013921D01*
X010249Y013886D01*
X010210Y013854D01*
X010169Y013825D01*
X010126Y013799D01*
X010081Y013777D01*
X010035Y013759D01*
X009987Y013744D01*
X009938Y013733D01*
X009889Y013726D01*
X009839Y013723D01*
X009788Y013724D01*
X009739Y013729D01*
X009689Y013738D01*
X009641Y013751D01*
X009594Y013767D01*
X009548Y013788D01*
X009504Y013812D01*
X009462Y013839D01*
X009422Y013869D01*
X009385Y013903D01*
X009351Y013940D01*
X009319Y013979D01*
X009291Y014020D01*
X009266Y014064D01*
X009245Y014109D01*
X009228Y014156D01*
X009214Y014204D01*
X009204Y014253D01*
X009198Y014303D01*
X009196Y014353D01*
X006558Y016519D02*
X006560Y016554D01*
X006566Y016589D01*
X006576Y016623D01*
X006589Y016656D01*
X006606Y016687D01*
X006627Y016715D01*
X006650Y016742D01*
X006677Y016765D01*
X006705Y016786D01*
X006736Y016803D01*
X006769Y016816D01*
X006803Y016826D01*
X006838Y016832D01*
X006873Y016834D01*
X006908Y016832D01*
X006943Y016826D01*
X006977Y016816D01*
X007010Y016803D01*
X007041Y016786D01*
X007069Y016765D01*
X007096Y016742D01*
X007119Y016715D01*
X007140Y016687D01*
X007157Y016656D01*
X007170Y016623D01*
X007180Y016589D01*
X007186Y016554D01*
X007188Y016519D01*
X007186Y016484D01*
X007180Y016449D01*
X007170Y016415D01*
X007157Y016382D01*
X007140Y016351D01*
X007119Y016323D01*
X007096Y016296D01*
X007069Y016273D01*
X007041Y016252D01*
X007010Y016235D01*
X006977Y016222D01*
X006943Y016212D01*
X006908Y016206D01*
X006873Y016204D01*
X006838Y016206D01*
X006803Y016212D01*
X006769Y016222D01*
X006736Y016235D01*
X006705Y016252D01*
X006677Y016273D01*
X006650Y016296D01*
X006627Y016323D01*
X006606Y016351D01*
X006589Y016382D01*
X006576Y016415D01*
X006566Y016449D01*
X006560Y016484D01*
X006558Y016519D01*
X006558Y020062D02*
X006560Y020097D01*
X006566Y020132D01*
X006576Y020166D01*
X006589Y020199D01*
X006606Y020230D01*
X006627Y020258D01*
X006650Y020285D01*
X006677Y020308D01*
X006705Y020329D01*
X006736Y020346D01*
X006769Y020359D01*
X006803Y020369D01*
X006838Y020375D01*
X006873Y020377D01*
X006908Y020375D01*
X006943Y020369D01*
X006977Y020359D01*
X007010Y020346D01*
X007041Y020329D01*
X007069Y020308D01*
X007096Y020285D01*
X007119Y020258D01*
X007140Y020230D01*
X007157Y020199D01*
X007170Y020166D01*
X007180Y020132D01*
X007186Y020097D01*
X007188Y020062D01*
X007186Y020027D01*
X007180Y019992D01*
X007170Y019958D01*
X007157Y019925D01*
X007140Y019894D01*
X007119Y019866D01*
X007096Y019839D01*
X007069Y019816D01*
X007041Y019795D01*
X007010Y019778D01*
X006977Y019765D01*
X006943Y019755D01*
X006908Y019749D01*
X006873Y019747D01*
X006838Y019749D01*
X006803Y019755D01*
X006769Y019765D01*
X006736Y019778D01*
X006705Y019795D01*
X006677Y019816D01*
X006650Y019839D01*
X006627Y019866D01*
X006606Y019894D01*
X006589Y019925D01*
X006576Y019958D01*
X006566Y019992D01*
X006560Y020027D01*
X006558Y020062D01*
X006558Y022424D02*
X006560Y022459D01*
X006566Y022494D01*
X006576Y022528D01*
X006589Y022561D01*
X006606Y022592D01*
X006627Y022620D01*
X006650Y022647D01*
X006677Y022670D01*
X006705Y022691D01*
X006736Y022708D01*
X006769Y022721D01*
X006803Y022731D01*
X006838Y022737D01*
X006873Y022739D01*
X006908Y022737D01*
X006943Y022731D01*
X006977Y022721D01*
X007010Y022708D01*
X007041Y022691D01*
X007069Y022670D01*
X007096Y022647D01*
X007119Y022620D01*
X007140Y022592D01*
X007157Y022561D01*
X007170Y022528D01*
X007180Y022494D01*
X007186Y022459D01*
X007188Y022424D01*
X007186Y022389D01*
X007180Y022354D01*
X007170Y022320D01*
X007157Y022287D01*
X007140Y022256D01*
X007119Y022228D01*
X007096Y022201D01*
X007069Y022178D01*
X007041Y022157D01*
X007010Y022140D01*
X006977Y022127D01*
X006943Y022117D01*
X006908Y022111D01*
X006873Y022109D01*
X006838Y022111D01*
X006803Y022117D01*
X006769Y022127D01*
X006736Y022140D01*
X006705Y022157D01*
X006677Y022178D01*
X006650Y022201D01*
X006627Y022228D01*
X006606Y022256D01*
X006589Y022287D01*
X006576Y022320D01*
X006566Y022354D01*
X006560Y022389D01*
X006558Y022424D01*
X006558Y025967D02*
X006560Y026002D01*
X006566Y026037D01*
X006576Y026071D01*
X006589Y026104D01*
X006606Y026135D01*
X006627Y026163D01*
X006650Y026190D01*
X006677Y026213D01*
X006705Y026234D01*
X006736Y026251D01*
X006769Y026264D01*
X006803Y026274D01*
X006838Y026280D01*
X006873Y026282D01*
X006908Y026280D01*
X006943Y026274D01*
X006977Y026264D01*
X007010Y026251D01*
X007041Y026234D01*
X007069Y026213D01*
X007096Y026190D01*
X007119Y026163D01*
X007140Y026135D01*
X007157Y026104D01*
X007170Y026071D01*
X007180Y026037D01*
X007186Y026002D01*
X007188Y025967D01*
X007186Y025932D01*
X007180Y025897D01*
X007170Y025863D01*
X007157Y025830D01*
X007140Y025799D01*
X007119Y025771D01*
X007096Y025744D01*
X007069Y025721D01*
X007041Y025700D01*
X007010Y025683D01*
X006977Y025670D01*
X006943Y025660D01*
X006908Y025654D01*
X006873Y025652D01*
X006838Y025654D01*
X006803Y025660D01*
X006769Y025670D01*
X006736Y025683D01*
X006705Y025700D01*
X006677Y025721D01*
X006650Y025744D01*
X006627Y025771D01*
X006606Y025799D01*
X006589Y025830D01*
X006576Y025863D01*
X006566Y025897D01*
X006560Y025932D01*
X006558Y025967D01*
X012463Y025967D02*
X012465Y026002D01*
X012471Y026037D01*
X012481Y026071D01*
X012494Y026104D01*
X012511Y026135D01*
X012532Y026163D01*
X012555Y026190D01*
X012582Y026213D01*
X012610Y026234D01*
X012641Y026251D01*
X012674Y026264D01*
X012708Y026274D01*
X012743Y026280D01*
X012778Y026282D01*
X012813Y026280D01*
X012848Y026274D01*
X012882Y026264D01*
X012915Y026251D01*
X012946Y026234D01*
X012974Y026213D01*
X013001Y026190D01*
X013024Y026163D01*
X013045Y026135D01*
X013062Y026104D01*
X013075Y026071D01*
X013085Y026037D01*
X013091Y026002D01*
X013093Y025967D01*
X013091Y025932D01*
X013085Y025897D01*
X013075Y025863D01*
X013062Y025830D01*
X013045Y025799D01*
X013024Y025771D01*
X013001Y025744D01*
X012974Y025721D01*
X012946Y025700D01*
X012915Y025683D01*
X012882Y025670D01*
X012848Y025660D01*
X012813Y025654D01*
X012778Y025652D01*
X012743Y025654D01*
X012708Y025660D01*
X012674Y025670D01*
X012641Y025683D01*
X012610Y025700D01*
X012582Y025721D01*
X012555Y025744D01*
X012532Y025771D01*
X012511Y025799D01*
X012494Y025830D01*
X012481Y025863D01*
X012471Y025897D01*
X012465Y025932D01*
X012463Y025967D01*
X012463Y022424D02*
X012465Y022459D01*
X012471Y022494D01*
X012481Y022528D01*
X012494Y022561D01*
X012511Y022592D01*
X012532Y022620D01*
X012555Y022647D01*
X012582Y022670D01*
X012610Y022691D01*
X012641Y022708D01*
X012674Y022721D01*
X012708Y022731D01*
X012743Y022737D01*
X012778Y022739D01*
X012813Y022737D01*
X012848Y022731D01*
X012882Y022721D01*
X012915Y022708D01*
X012946Y022691D01*
X012974Y022670D01*
X013001Y022647D01*
X013024Y022620D01*
X013045Y022592D01*
X013062Y022561D01*
X013075Y022528D01*
X013085Y022494D01*
X013091Y022459D01*
X013093Y022424D01*
X013091Y022389D01*
X013085Y022354D01*
X013075Y022320D01*
X013062Y022287D01*
X013045Y022256D01*
X013024Y022228D01*
X013001Y022201D01*
X012974Y022178D01*
X012946Y022157D01*
X012915Y022140D01*
X012882Y022127D01*
X012848Y022117D01*
X012813Y022111D01*
X012778Y022109D01*
X012743Y022111D01*
X012708Y022117D01*
X012674Y022127D01*
X012641Y022140D01*
X012610Y022157D01*
X012582Y022178D01*
X012555Y022201D01*
X012532Y022228D01*
X012511Y022256D01*
X012494Y022287D01*
X012481Y022320D01*
X012471Y022354D01*
X012465Y022389D01*
X012463Y022424D01*
X012463Y020062D02*
X012465Y020097D01*
X012471Y020132D01*
X012481Y020166D01*
X012494Y020199D01*
X012511Y020230D01*
X012532Y020258D01*
X012555Y020285D01*
X012582Y020308D01*
X012610Y020329D01*
X012641Y020346D01*
X012674Y020359D01*
X012708Y020369D01*
X012743Y020375D01*
X012778Y020377D01*
X012813Y020375D01*
X012848Y020369D01*
X012882Y020359D01*
X012915Y020346D01*
X012946Y020329D01*
X012974Y020308D01*
X013001Y020285D01*
X013024Y020258D01*
X013045Y020230D01*
X013062Y020199D01*
X013075Y020166D01*
X013085Y020132D01*
X013091Y020097D01*
X013093Y020062D01*
X013091Y020027D01*
X013085Y019992D01*
X013075Y019958D01*
X013062Y019925D01*
X013045Y019894D01*
X013024Y019866D01*
X013001Y019839D01*
X012974Y019816D01*
X012946Y019795D01*
X012915Y019778D01*
X012882Y019765D01*
X012848Y019755D01*
X012813Y019749D01*
X012778Y019747D01*
X012743Y019749D01*
X012708Y019755D01*
X012674Y019765D01*
X012641Y019778D01*
X012610Y019795D01*
X012582Y019816D01*
X012555Y019839D01*
X012532Y019866D01*
X012511Y019894D01*
X012494Y019925D01*
X012481Y019958D01*
X012471Y019992D01*
X012465Y020027D01*
X012463Y020062D01*
X012463Y016519D02*
X012465Y016554D01*
X012471Y016589D01*
X012481Y016623D01*
X012494Y016656D01*
X012511Y016687D01*
X012532Y016715D01*
X012555Y016742D01*
X012582Y016765D01*
X012610Y016786D01*
X012641Y016803D01*
X012674Y016816D01*
X012708Y016826D01*
X012743Y016832D01*
X012778Y016834D01*
X012813Y016832D01*
X012848Y016826D01*
X012882Y016816D01*
X012915Y016803D01*
X012946Y016786D01*
X012974Y016765D01*
X013001Y016742D01*
X013024Y016715D01*
X013045Y016687D01*
X013062Y016656D01*
X013075Y016623D01*
X013085Y016589D01*
X013091Y016554D01*
X013093Y016519D01*
X013091Y016484D01*
X013085Y016449D01*
X013075Y016415D01*
X013062Y016382D01*
X013045Y016351D01*
X013024Y016323D01*
X013001Y016296D01*
X012974Y016273D01*
X012946Y016252D01*
X012915Y016235D01*
X012882Y016222D01*
X012848Y016212D01*
X012813Y016206D01*
X012778Y016204D01*
X012743Y016206D01*
X012708Y016212D01*
X012674Y016222D01*
X012641Y016235D01*
X012610Y016252D01*
X012582Y016273D01*
X012555Y016296D01*
X012532Y016323D01*
X012511Y016351D01*
X012494Y016382D01*
X012481Y016415D01*
X012471Y016449D01*
X012465Y016484D01*
X012463Y016519D01*
X016085Y014353D02*
X016087Y014403D01*
X016093Y014453D01*
X016103Y014502D01*
X016117Y014550D01*
X016134Y014597D01*
X016155Y014642D01*
X016180Y014686D01*
X016208Y014727D01*
X016240Y014766D01*
X016274Y014803D01*
X016311Y014837D01*
X016351Y014867D01*
X016393Y014894D01*
X016437Y014918D01*
X016483Y014939D01*
X016530Y014955D01*
X016578Y014968D01*
X016628Y014977D01*
X016677Y014982D01*
X016728Y014983D01*
X016778Y014980D01*
X016827Y014973D01*
X016876Y014962D01*
X016924Y014947D01*
X016970Y014929D01*
X017015Y014907D01*
X017058Y014881D01*
X017099Y014852D01*
X017138Y014820D01*
X017174Y014785D01*
X017206Y014747D01*
X017236Y014707D01*
X017263Y014664D01*
X017286Y014620D01*
X017305Y014574D01*
X017321Y014526D01*
X017333Y014477D01*
X017341Y014428D01*
X017345Y014378D01*
X017345Y014328D01*
X017341Y014278D01*
X017333Y014229D01*
X017321Y014180D01*
X017305Y014132D01*
X017286Y014086D01*
X017263Y014042D01*
X017236Y013999D01*
X017206Y013959D01*
X017174Y013921D01*
X017138Y013886D01*
X017099Y013854D01*
X017058Y013825D01*
X017015Y013799D01*
X016970Y013777D01*
X016924Y013759D01*
X016876Y013744D01*
X016827Y013733D01*
X016778Y013726D01*
X016728Y013723D01*
X016677Y013724D01*
X016628Y013729D01*
X016578Y013738D01*
X016530Y013751D01*
X016483Y013767D01*
X016437Y013788D01*
X016393Y013812D01*
X016351Y013839D01*
X016311Y013869D01*
X016274Y013903D01*
X016240Y013940D01*
X016208Y013979D01*
X016180Y014020D01*
X016155Y014064D01*
X016134Y014109D01*
X016117Y014156D01*
X016103Y014204D01*
X016093Y014253D01*
X016087Y014303D01*
X016085Y014353D01*
X012463Y012188D02*
X012465Y012223D01*
X012471Y012258D01*
X012481Y012292D01*
X012494Y012325D01*
X012511Y012356D01*
X012532Y012384D01*
X012555Y012411D01*
X012582Y012434D01*
X012610Y012455D01*
X012641Y012472D01*
X012674Y012485D01*
X012708Y012495D01*
X012743Y012501D01*
X012778Y012503D01*
X012813Y012501D01*
X012848Y012495D01*
X012882Y012485D01*
X012915Y012472D01*
X012946Y012455D01*
X012974Y012434D01*
X013001Y012411D01*
X013024Y012384D01*
X013045Y012356D01*
X013062Y012325D01*
X013075Y012292D01*
X013085Y012258D01*
X013091Y012223D01*
X013093Y012188D01*
X013091Y012153D01*
X013085Y012118D01*
X013075Y012084D01*
X013062Y012051D01*
X013045Y012020D01*
X013024Y011992D01*
X013001Y011965D01*
X012974Y011942D01*
X012946Y011921D01*
X012915Y011904D01*
X012882Y011891D01*
X012848Y011881D01*
X012813Y011875D01*
X012778Y011873D01*
X012743Y011875D01*
X012708Y011881D01*
X012674Y011891D01*
X012641Y011904D01*
X012610Y011921D01*
X012582Y011942D01*
X012555Y011965D01*
X012532Y011992D01*
X012511Y012020D01*
X012494Y012051D01*
X012481Y012084D01*
X012471Y012118D01*
X012465Y012153D01*
X012463Y012188D01*
X012463Y008645D02*
X012465Y008680D01*
X012471Y008715D01*
X012481Y008749D01*
X012494Y008782D01*
X012511Y008813D01*
X012532Y008841D01*
X012555Y008868D01*
X012582Y008891D01*
X012610Y008912D01*
X012641Y008929D01*
X012674Y008942D01*
X012708Y008952D01*
X012743Y008958D01*
X012778Y008960D01*
X012813Y008958D01*
X012848Y008952D01*
X012882Y008942D01*
X012915Y008929D01*
X012946Y008912D01*
X012974Y008891D01*
X013001Y008868D01*
X013024Y008841D01*
X013045Y008813D01*
X013062Y008782D01*
X013075Y008749D01*
X013085Y008715D01*
X013091Y008680D01*
X013093Y008645D01*
X013091Y008610D01*
X013085Y008575D01*
X013075Y008541D01*
X013062Y008508D01*
X013045Y008477D01*
X013024Y008449D01*
X013001Y008422D01*
X012974Y008399D01*
X012946Y008378D01*
X012915Y008361D01*
X012882Y008348D01*
X012848Y008338D01*
X012813Y008332D01*
X012778Y008330D01*
X012743Y008332D01*
X012708Y008338D01*
X012674Y008348D01*
X012641Y008361D01*
X012610Y008378D01*
X012582Y008399D01*
X012555Y008422D01*
X012532Y008449D01*
X012511Y008477D01*
X012494Y008508D01*
X012481Y008541D01*
X012471Y008575D01*
X012465Y008610D01*
X012463Y008645D01*
X012463Y006282D02*
X012465Y006317D01*
X012471Y006352D01*
X012481Y006386D01*
X012494Y006419D01*
X012511Y006450D01*
X012532Y006478D01*
X012555Y006505D01*
X012582Y006528D01*
X012610Y006549D01*
X012641Y006566D01*
X012674Y006579D01*
X012708Y006589D01*
X012743Y006595D01*
X012778Y006597D01*
X012813Y006595D01*
X012848Y006589D01*
X012882Y006579D01*
X012915Y006566D01*
X012946Y006549D01*
X012974Y006528D01*
X013001Y006505D01*
X013024Y006478D01*
X013045Y006450D01*
X013062Y006419D01*
X013075Y006386D01*
X013085Y006352D01*
X013091Y006317D01*
X013093Y006282D01*
X013091Y006247D01*
X013085Y006212D01*
X013075Y006178D01*
X013062Y006145D01*
X013045Y006114D01*
X013024Y006086D01*
X013001Y006059D01*
X012974Y006036D01*
X012946Y006015D01*
X012915Y005998D01*
X012882Y005985D01*
X012848Y005975D01*
X012813Y005969D01*
X012778Y005967D01*
X012743Y005969D01*
X012708Y005975D01*
X012674Y005985D01*
X012641Y005998D01*
X012610Y006015D01*
X012582Y006036D01*
X012555Y006059D01*
X012532Y006086D01*
X012511Y006114D01*
X012494Y006145D01*
X012481Y006178D01*
X012471Y006212D01*
X012465Y006247D01*
X012463Y006282D01*
X012463Y002739D02*
X012465Y002774D01*
X012471Y002809D01*
X012481Y002843D01*
X012494Y002876D01*
X012511Y002907D01*
X012532Y002935D01*
X012555Y002962D01*
X012582Y002985D01*
X012610Y003006D01*
X012641Y003023D01*
X012674Y003036D01*
X012708Y003046D01*
X012743Y003052D01*
X012778Y003054D01*
X012813Y003052D01*
X012848Y003046D01*
X012882Y003036D01*
X012915Y003023D01*
X012946Y003006D01*
X012974Y002985D01*
X013001Y002962D01*
X013024Y002935D01*
X013045Y002907D01*
X013062Y002876D01*
X013075Y002843D01*
X013085Y002809D01*
X013091Y002774D01*
X013093Y002739D01*
X013091Y002704D01*
X013085Y002669D01*
X013075Y002635D01*
X013062Y002602D01*
X013045Y002571D01*
X013024Y002543D01*
X013001Y002516D01*
X012974Y002493D01*
X012946Y002472D01*
X012915Y002455D01*
X012882Y002442D01*
X012848Y002432D01*
X012813Y002426D01*
X012778Y002424D01*
X012743Y002426D01*
X012708Y002432D01*
X012674Y002442D01*
X012641Y002455D01*
X012610Y002472D01*
X012582Y002493D01*
X012555Y002516D01*
X012532Y002543D01*
X012511Y002571D01*
X012494Y002602D01*
X012481Y002635D01*
X012471Y002669D01*
X012465Y002704D01*
X012463Y002739D01*
X016085Y007463D02*
X016087Y007513D01*
X016093Y007563D01*
X016103Y007612D01*
X016117Y007660D01*
X016134Y007707D01*
X016155Y007752D01*
X016180Y007796D01*
X016208Y007837D01*
X016240Y007876D01*
X016274Y007913D01*
X016311Y007947D01*
X016351Y007977D01*
X016393Y008004D01*
X016437Y008028D01*
X016483Y008049D01*
X016530Y008065D01*
X016578Y008078D01*
X016628Y008087D01*
X016677Y008092D01*
X016728Y008093D01*
X016778Y008090D01*
X016827Y008083D01*
X016876Y008072D01*
X016924Y008057D01*
X016970Y008039D01*
X017015Y008017D01*
X017058Y007991D01*
X017099Y007962D01*
X017138Y007930D01*
X017174Y007895D01*
X017206Y007857D01*
X017236Y007817D01*
X017263Y007774D01*
X017286Y007730D01*
X017305Y007684D01*
X017321Y007636D01*
X017333Y007587D01*
X017341Y007538D01*
X017345Y007488D01*
X017345Y007438D01*
X017341Y007388D01*
X017333Y007339D01*
X017321Y007290D01*
X017305Y007242D01*
X017286Y007196D01*
X017263Y007152D01*
X017236Y007109D01*
X017206Y007069D01*
X017174Y007031D01*
X017138Y006996D01*
X017099Y006964D01*
X017058Y006935D01*
X017015Y006909D01*
X016970Y006887D01*
X016924Y006869D01*
X016876Y006854D01*
X016827Y006843D01*
X016778Y006836D01*
X016728Y006833D01*
X016677Y006834D01*
X016628Y006839D01*
X016578Y006848D01*
X016530Y006861D01*
X016483Y006877D01*
X016437Y006898D01*
X016393Y006922D01*
X016351Y006949D01*
X016311Y006979D01*
X016274Y007013D01*
X016240Y007050D01*
X016208Y007089D01*
X016180Y007130D01*
X016155Y007174D01*
X016134Y007219D01*
X016117Y007266D01*
X016103Y007314D01*
X016093Y007363D01*
X016087Y007413D01*
X016085Y007463D01*
X020337Y006282D02*
X020339Y006317D01*
X020345Y006352D01*
X020355Y006386D01*
X020368Y006419D01*
X020385Y006450D01*
X020406Y006478D01*
X020429Y006505D01*
X020456Y006528D01*
X020484Y006549D01*
X020515Y006566D01*
X020548Y006579D01*
X020582Y006589D01*
X020617Y006595D01*
X020652Y006597D01*
X020687Y006595D01*
X020722Y006589D01*
X020756Y006579D01*
X020789Y006566D01*
X020820Y006549D01*
X020848Y006528D01*
X020875Y006505D01*
X020898Y006478D01*
X020919Y006450D01*
X020936Y006419D01*
X020949Y006386D01*
X020959Y006352D01*
X020965Y006317D01*
X020967Y006282D01*
X020965Y006247D01*
X020959Y006212D01*
X020949Y006178D01*
X020936Y006145D01*
X020919Y006114D01*
X020898Y006086D01*
X020875Y006059D01*
X020848Y006036D01*
X020820Y006015D01*
X020789Y005998D01*
X020756Y005985D01*
X020722Y005975D01*
X020687Y005969D01*
X020652Y005967D01*
X020617Y005969D01*
X020582Y005975D01*
X020548Y005985D01*
X020515Y005998D01*
X020484Y006015D01*
X020456Y006036D01*
X020429Y006059D01*
X020406Y006086D01*
X020385Y006114D01*
X020368Y006145D01*
X020355Y006178D01*
X020345Y006212D01*
X020339Y006247D01*
X020337Y006282D01*
X020337Y008645D02*
X020339Y008680D01*
X020345Y008715D01*
X020355Y008749D01*
X020368Y008782D01*
X020385Y008813D01*
X020406Y008841D01*
X020429Y008868D01*
X020456Y008891D01*
X020484Y008912D01*
X020515Y008929D01*
X020548Y008942D01*
X020582Y008952D01*
X020617Y008958D01*
X020652Y008960D01*
X020687Y008958D01*
X020722Y008952D01*
X020756Y008942D01*
X020789Y008929D01*
X020820Y008912D01*
X020848Y008891D01*
X020875Y008868D01*
X020898Y008841D01*
X020919Y008813D01*
X020936Y008782D01*
X020949Y008749D01*
X020959Y008715D01*
X020965Y008680D01*
X020967Y008645D01*
X020965Y008610D01*
X020959Y008575D01*
X020949Y008541D01*
X020936Y008508D01*
X020919Y008477D01*
X020898Y008449D01*
X020875Y008422D01*
X020848Y008399D01*
X020820Y008378D01*
X020789Y008361D01*
X020756Y008348D01*
X020722Y008338D01*
X020687Y008332D01*
X020652Y008330D01*
X020617Y008332D01*
X020582Y008338D01*
X020548Y008348D01*
X020515Y008361D01*
X020484Y008378D01*
X020456Y008399D01*
X020429Y008422D01*
X020406Y008449D01*
X020385Y008477D01*
X020368Y008508D01*
X020355Y008541D01*
X020345Y008575D01*
X020339Y008610D01*
X020337Y008645D01*
X020337Y012188D02*
X020339Y012223D01*
X020345Y012258D01*
X020355Y012292D01*
X020368Y012325D01*
X020385Y012356D01*
X020406Y012384D01*
X020429Y012411D01*
X020456Y012434D01*
X020484Y012455D01*
X020515Y012472D01*
X020548Y012485D01*
X020582Y012495D01*
X020617Y012501D01*
X020652Y012503D01*
X020687Y012501D01*
X020722Y012495D01*
X020756Y012485D01*
X020789Y012472D01*
X020820Y012455D01*
X020848Y012434D01*
X020875Y012411D01*
X020898Y012384D01*
X020919Y012356D01*
X020936Y012325D01*
X020949Y012292D01*
X020959Y012258D01*
X020965Y012223D01*
X020967Y012188D01*
X020965Y012153D01*
X020959Y012118D01*
X020949Y012084D01*
X020936Y012051D01*
X020919Y012020D01*
X020898Y011992D01*
X020875Y011965D01*
X020848Y011942D01*
X020820Y011921D01*
X020789Y011904D01*
X020756Y011891D01*
X020722Y011881D01*
X020687Y011875D01*
X020652Y011873D01*
X020617Y011875D01*
X020582Y011881D01*
X020548Y011891D01*
X020515Y011904D01*
X020484Y011921D01*
X020456Y011942D01*
X020429Y011965D01*
X020406Y011992D01*
X020385Y012020D01*
X020368Y012051D01*
X020355Y012084D01*
X020345Y012118D01*
X020339Y012153D01*
X020337Y012188D01*
X022975Y014353D02*
X022977Y014403D01*
X022983Y014453D01*
X022993Y014502D01*
X023007Y014550D01*
X023024Y014597D01*
X023045Y014642D01*
X023070Y014686D01*
X023098Y014727D01*
X023130Y014766D01*
X023164Y014803D01*
X023201Y014837D01*
X023241Y014867D01*
X023283Y014894D01*
X023327Y014918D01*
X023373Y014939D01*
X023420Y014955D01*
X023468Y014968D01*
X023518Y014977D01*
X023567Y014982D01*
X023618Y014983D01*
X023668Y014980D01*
X023717Y014973D01*
X023766Y014962D01*
X023814Y014947D01*
X023860Y014929D01*
X023905Y014907D01*
X023948Y014881D01*
X023989Y014852D01*
X024028Y014820D01*
X024064Y014785D01*
X024096Y014747D01*
X024126Y014707D01*
X024153Y014664D01*
X024176Y014620D01*
X024195Y014574D01*
X024211Y014526D01*
X024223Y014477D01*
X024231Y014428D01*
X024235Y014378D01*
X024235Y014328D01*
X024231Y014278D01*
X024223Y014229D01*
X024211Y014180D01*
X024195Y014132D01*
X024176Y014086D01*
X024153Y014042D01*
X024126Y013999D01*
X024096Y013959D01*
X024064Y013921D01*
X024028Y013886D01*
X023989Y013854D01*
X023948Y013825D01*
X023905Y013799D01*
X023860Y013777D01*
X023814Y013759D01*
X023766Y013744D01*
X023717Y013733D01*
X023668Y013726D01*
X023618Y013723D01*
X023567Y013724D01*
X023518Y013729D01*
X023468Y013738D01*
X023420Y013751D01*
X023373Y013767D01*
X023327Y013788D01*
X023283Y013812D01*
X023241Y013839D01*
X023201Y013869D01*
X023164Y013903D01*
X023130Y013940D01*
X023098Y013979D01*
X023070Y014020D01*
X023045Y014064D01*
X023024Y014109D01*
X023007Y014156D01*
X022993Y014204D01*
X022983Y014253D01*
X022977Y014303D01*
X022975Y014353D01*
X020337Y016519D02*
X020339Y016554D01*
X020345Y016589D01*
X020355Y016623D01*
X020368Y016656D01*
X020385Y016687D01*
X020406Y016715D01*
X020429Y016742D01*
X020456Y016765D01*
X020484Y016786D01*
X020515Y016803D01*
X020548Y016816D01*
X020582Y016826D01*
X020617Y016832D01*
X020652Y016834D01*
X020687Y016832D01*
X020722Y016826D01*
X020756Y016816D01*
X020789Y016803D01*
X020820Y016786D01*
X020848Y016765D01*
X020875Y016742D01*
X020898Y016715D01*
X020919Y016687D01*
X020936Y016656D01*
X020949Y016623D01*
X020959Y016589D01*
X020965Y016554D01*
X020967Y016519D01*
X020965Y016484D01*
X020959Y016449D01*
X020949Y016415D01*
X020936Y016382D01*
X020919Y016351D01*
X020898Y016323D01*
X020875Y016296D01*
X020848Y016273D01*
X020820Y016252D01*
X020789Y016235D01*
X020756Y016222D01*
X020722Y016212D01*
X020687Y016206D01*
X020652Y016204D01*
X020617Y016206D01*
X020582Y016212D01*
X020548Y016222D01*
X020515Y016235D01*
X020484Y016252D01*
X020456Y016273D01*
X020429Y016296D01*
X020406Y016323D01*
X020385Y016351D01*
X020368Y016382D01*
X020355Y016415D01*
X020345Y016449D01*
X020339Y016484D01*
X020337Y016519D01*
X020337Y020062D02*
X020339Y020097D01*
X020345Y020132D01*
X020355Y020166D01*
X020368Y020199D01*
X020385Y020230D01*
X020406Y020258D01*
X020429Y020285D01*
X020456Y020308D01*
X020484Y020329D01*
X020515Y020346D01*
X020548Y020359D01*
X020582Y020369D01*
X020617Y020375D01*
X020652Y020377D01*
X020687Y020375D01*
X020722Y020369D01*
X020756Y020359D01*
X020789Y020346D01*
X020820Y020329D01*
X020848Y020308D01*
X020875Y020285D01*
X020898Y020258D01*
X020919Y020230D01*
X020936Y020199D01*
X020949Y020166D01*
X020959Y020132D01*
X020965Y020097D01*
X020967Y020062D01*
X020965Y020027D01*
X020959Y019992D01*
X020949Y019958D01*
X020936Y019925D01*
X020919Y019894D01*
X020898Y019866D01*
X020875Y019839D01*
X020848Y019816D01*
X020820Y019795D01*
X020789Y019778D01*
X020756Y019765D01*
X020722Y019755D01*
X020687Y019749D01*
X020652Y019747D01*
X020617Y019749D01*
X020582Y019755D01*
X020548Y019765D01*
X020515Y019778D01*
X020484Y019795D01*
X020456Y019816D01*
X020429Y019839D01*
X020406Y019866D01*
X020385Y019894D01*
X020368Y019925D01*
X020355Y019958D01*
X020345Y019992D01*
X020339Y020027D01*
X020337Y020062D01*
X020337Y022424D02*
X020339Y022459D01*
X020345Y022494D01*
X020355Y022528D01*
X020368Y022561D01*
X020385Y022592D01*
X020406Y022620D01*
X020429Y022647D01*
X020456Y022670D01*
X020484Y022691D01*
X020515Y022708D01*
X020548Y022721D01*
X020582Y022731D01*
X020617Y022737D01*
X020652Y022739D01*
X020687Y022737D01*
X020722Y022731D01*
X020756Y022721D01*
X020789Y022708D01*
X020820Y022691D01*
X020848Y022670D01*
X020875Y022647D01*
X020898Y022620D01*
X020919Y022592D01*
X020936Y022561D01*
X020949Y022528D01*
X020959Y022494D01*
X020965Y022459D01*
X020967Y022424D01*
X020965Y022389D01*
X020959Y022354D01*
X020949Y022320D01*
X020936Y022287D01*
X020919Y022256D01*
X020898Y022228D01*
X020875Y022201D01*
X020848Y022178D01*
X020820Y022157D01*
X020789Y022140D01*
X020756Y022127D01*
X020722Y022117D01*
X020687Y022111D01*
X020652Y022109D01*
X020617Y022111D01*
X020582Y022117D01*
X020548Y022127D01*
X020515Y022140D01*
X020484Y022157D01*
X020456Y022178D01*
X020429Y022201D01*
X020406Y022228D01*
X020385Y022256D01*
X020368Y022287D01*
X020355Y022320D01*
X020345Y022354D01*
X020339Y022389D01*
X020337Y022424D01*
X020337Y025967D02*
X020339Y026002D01*
X020345Y026037D01*
X020355Y026071D01*
X020368Y026104D01*
X020385Y026135D01*
X020406Y026163D01*
X020429Y026190D01*
X020456Y026213D01*
X020484Y026234D01*
X020515Y026251D01*
X020548Y026264D01*
X020582Y026274D01*
X020617Y026280D01*
X020652Y026282D01*
X020687Y026280D01*
X020722Y026274D01*
X020756Y026264D01*
X020789Y026251D01*
X020820Y026234D01*
X020848Y026213D01*
X020875Y026190D01*
X020898Y026163D01*
X020919Y026135D01*
X020936Y026104D01*
X020949Y026071D01*
X020959Y026037D01*
X020965Y026002D01*
X020967Y025967D01*
X020965Y025932D01*
X020959Y025897D01*
X020949Y025863D01*
X020936Y025830D01*
X020919Y025799D01*
X020898Y025771D01*
X020875Y025744D01*
X020848Y025721D01*
X020820Y025700D01*
X020789Y025683D01*
X020756Y025670D01*
X020722Y025660D01*
X020687Y025654D01*
X020652Y025652D01*
X020617Y025654D01*
X020582Y025660D01*
X020548Y025670D01*
X020515Y025683D01*
X020484Y025700D01*
X020456Y025721D01*
X020429Y025744D01*
X020406Y025771D01*
X020385Y025799D01*
X020368Y025830D01*
X020355Y025863D01*
X020345Y025897D01*
X020339Y025932D01*
X020337Y025967D01*
X016085Y021243D02*
X016087Y021293D01*
X016093Y021343D01*
X016103Y021392D01*
X016117Y021440D01*
X016134Y021487D01*
X016155Y021532D01*
X016180Y021576D01*
X016208Y021617D01*
X016240Y021656D01*
X016274Y021693D01*
X016311Y021727D01*
X016351Y021757D01*
X016393Y021784D01*
X016437Y021808D01*
X016483Y021829D01*
X016530Y021845D01*
X016578Y021858D01*
X016628Y021867D01*
X016677Y021872D01*
X016728Y021873D01*
X016778Y021870D01*
X016827Y021863D01*
X016876Y021852D01*
X016924Y021837D01*
X016970Y021819D01*
X017015Y021797D01*
X017058Y021771D01*
X017099Y021742D01*
X017138Y021710D01*
X017174Y021675D01*
X017206Y021637D01*
X017236Y021597D01*
X017263Y021554D01*
X017286Y021510D01*
X017305Y021464D01*
X017321Y021416D01*
X017333Y021367D01*
X017341Y021318D01*
X017345Y021268D01*
X017345Y021218D01*
X017341Y021168D01*
X017333Y021119D01*
X017321Y021070D01*
X017305Y021022D01*
X017286Y020976D01*
X017263Y020932D01*
X017236Y020889D01*
X017206Y020849D01*
X017174Y020811D01*
X017138Y020776D01*
X017099Y020744D01*
X017058Y020715D01*
X017015Y020689D01*
X016970Y020667D01*
X016924Y020649D01*
X016876Y020634D01*
X016827Y020623D01*
X016778Y020616D01*
X016728Y020613D01*
X016677Y020614D01*
X016628Y020619D01*
X016578Y020628D01*
X016530Y020641D01*
X016483Y020657D01*
X016437Y020678D01*
X016393Y020702D01*
X016351Y020729D01*
X016311Y020759D01*
X016274Y020793D01*
X016240Y020830D01*
X016208Y020869D01*
X016180Y020910D01*
X016155Y020954D01*
X016134Y020999D01*
X016117Y021046D01*
X016103Y021094D01*
X016093Y021143D01*
X016087Y021193D01*
X016085Y021243D01*
X026243Y022424D02*
X026245Y022459D01*
X026251Y022494D01*
X026261Y022528D01*
X026274Y022561D01*
X026291Y022592D01*
X026312Y022620D01*
X026335Y022647D01*
X026362Y022670D01*
X026390Y022691D01*
X026421Y022708D01*
X026454Y022721D01*
X026488Y022731D01*
X026523Y022737D01*
X026558Y022739D01*
X026593Y022737D01*
X026628Y022731D01*
X026662Y022721D01*
X026695Y022708D01*
X026726Y022691D01*
X026754Y022670D01*
X026781Y022647D01*
X026804Y022620D01*
X026825Y022592D01*
X026842Y022561D01*
X026855Y022528D01*
X026865Y022494D01*
X026871Y022459D01*
X026873Y022424D01*
X026871Y022389D01*
X026865Y022354D01*
X026855Y022320D01*
X026842Y022287D01*
X026825Y022256D01*
X026804Y022228D01*
X026781Y022201D01*
X026754Y022178D01*
X026726Y022157D01*
X026695Y022140D01*
X026662Y022127D01*
X026628Y022117D01*
X026593Y022111D01*
X026558Y022109D01*
X026523Y022111D01*
X026488Y022117D01*
X026454Y022127D01*
X026421Y022140D01*
X026390Y022157D01*
X026362Y022178D01*
X026335Y022201D01*
X026312Y022228D01*
X026291Y022256D01*
X026274Y022287D01*
X026261Y022320D01*
X026251Y022354D01*
X026245Y022389D01*
X026243Y022424D01*
X026243Y020062D02*
X026245Y020097D01*
X026251Y020132D01*
X026261Y020166D01*
X026274Y020199D01*
X026291Y020230D01*
X026312Y020258D01*
X026335Y020285D01*
X026362Y020308D01*
X026390Y020329D01*
X026421Y020346D01*
X026454Y020359D01*
X026488Y020369D01*
X026523Y020375D01*
X026558Y020377D01*
X026593Y020375D01*
X026628Y020369D01*
X026662Y020359D01*
X026695Y020346D01*
X026726Y020329D01*
X026754Y020308D01*
X026781Y020285D01*
X026804Y020258D01*
X026825Y020230D01*
X026842Y020199D01*
X026855Y020166D01*
X026865Y020132D01*
X026871Y020097D01*
X026873Y020062D01*
X026871Y020027D01*
X026865Y019992D01*
X026855Y019958D01*
X026842Y019925D01*
X026825Y019894D01*
X026804Y019866D01*
X026781Y019839D01*
X026754Y019816D01*
X026726Y019795D01*
X026695Y019778D01*
X026662Y019765D01*
X026628Y019755D01*
X026593Y019749D01*
X026558Y019747D01*
X026523Y019749D01*
X026488Y019755D01*
X026454Y019765D01*
X026421Y019778D01*
X026390Y019795D01*
X026362Y019816D01*
X026335Y019839D01*
X026312Y019866D01*
X026291Y019894D01*
X026274Y019925D01*
X026261Y019958D01*
X026251Y019992D01*
X026245Y020027D01*
X026243Y020062D01*
X026243Y016519D02*
X026245Y016554D01*
X026251Y016589D01*
X026261Y016623D01*
X026274Y016656D01*
X026291Y016687D01*
X026312Y016715D01*
X026335Y016742D01*
X026362Y016765D01*
X026390Y016786D01*
X026421Y016803D01*
X026454Y016816D01*
X026488Y016826D01*
X026523Y016832D01*
X026558Y016834D01*
X026593Y016832D01*
X026628Y016826D01*
X026662Y016816D01*
X026695Y016803D01*
X026726Y016786D01*
X026754Y016765D01*
X026781Y016742D01*
X026804Y016715D01*
X026825Y016687D01*
X026842Y016656D01*
X026855Y016623D01*
X026865Y016589D01*
X026871Y016554D01*
X026873Y016519D01*
X026871Y016484D01*
X026865Y016449D01*
X026855Y016415D01*
X026842Y016382D01*
X026825Y016351D01*
X026804Y016323D01*
X026781Y016296D01*
X026754Y016273D01*
X026726Y016252D01*
X026695Y016235D01*
X026662Y016222D01*
X026628Y016212D01*
X026593Y016206D01*
X026558Y016204D01*
X026523Y016206D01*
X026488Y016212D01*
X026454Y016222D01*
X026421Y016235D01*
X026390Y016252D01*
X026362Y016273D01*
X026335Y016296D01*
X026312Y016323D01*
X026291Y016351D01*
X026274Y016382D01*
X026261Y016415D01*
X026251Y016449D01*
X026245Y016484D01*
X026243Y016519D01*
X026243Y012188D02*
X026245Y012223D01*
X026251Y012258D01*
X026261Y012292D01*
X026274Y012325D01*
X026291Y012356D01*
X026312Y012384D01*
X026335Y012411D01*
X026362Y012434D01*
X026390Y012455D01*
X026421Y012472D01*
X026454Y012485D01*
X026488Y012495D01*
X026523Y012501D01*
X026558Y012503D01*
X026593Y012501D01*
X026628Y012495D01*
X026662Y012485D01*
X026695Y012472D01*
X026726Y012455D01*
X026754Y012434D01*
X026781Y012411D01*
X026804Y012384D01*
X026825Y012356D01*
X026842Y012325D01*
X026855Y012292D01*
X026865Y012258D01*
X026871Y012223D01*
X026873Y012188D01*
X026871Y012153D01*
X026865Y012118D01*
X026855Y012084D01*
X026842Y012051D01*
X026825Y012020D01*
X026804Y011992D01*
X026781Y011965D01*
X026754Y011942D01*
X026726Y011921D01*
X026695Y011904D01*
X026662Y011891D01*
X026628Y011881D01*
X026593Y011875D01*
X026558Y011873D01*
X026523Y011875D01*
X026488Y011881D01*
X026454Y011891D01*
X026421Y011904D01*
X026390Y011921D01*
X026362Y011942D01*
X026335Y011965D01*
X026312Y011992D01*
X026291Y012020D01*
X026274Y012051D01*
X026261Y012084D01*
X026251Y012118D01*
X026245Y012153D01*
X026243Y012188D01*
X026243Y008645D02*
X026245Y008680D01*
X026251Y008715D01*
X026261Y008749D01*
X026274Y008782D01*
X026291Y008813D01*
X026312Y008841D01*
X026335Y008868D01*
X026362Y008891D01*
X026390Y008912D01*
X026421Y008929D01*
X026454Y008942D01*
X026488Y008952D01*
X026523Y008958D01*
X026558Y008960D01*
X026593Y008958D01*
X026628Y008952D01*
X026662Y008942D01*
X026695Y008929D01*
X026726Y008912D01*
X026754Y008891D01*
X026781Y008868D01*
X026804Y008841D01*
X026825Y008813D01*
X026842Y008782D01*
X026855Y008749D01*
X026865Y008715D01*
X026871Y008680D01*
X026873Y008645D01*
X026871Y008610D01*
X026865Y008575D01*
X026855Y008541D01*
X026842Y008508D01*
X026825Y008477D01*
X026804Y008449D01*
X026781Y008422D01*
X026754Y008399D01*
X026726Y008378D01*
X026695Y008361D01*
X026662Y008348D01*
X026628Y008338D01*
X026593Y008332D01*
X026558Y008330D01*
X026523Y008332D01*
X026488Y008338D01*
X026454Y008348D01*
X026421Y008361D01*
X026390Y008378D01*
X026362Y008399D01*
X026335Y008422D01*
X026312Y008449D01*
X026291Y008477D01*
X026274Y008508D01*
X026261Y008541D01*
X026251Y008575D01*
X026245Y008610D01*
X026243Y008645D01*
X026243Y006282D02*
X026245Y006317D01*
X026251Y006352D01*
X026261Y006386D01*
X026274Y006419D01*
X026291Y006450D01*
X026312Y006478D01*
X026335Y006505D01*
X026362Y006528D01*
X026390Y006549D01*
X026421Y006566D01*
X026454Y006579D01*
X026488Y006589D01*
X026523Y006595D01*
X026558Y006597D01*
X026593Y006595D01*
X026628Y006589D01*
X026662Y006579D01*
X026695Y006566D01*
X026726Y006549D01*
X026754Y006528D01*
X026781Y006505D01*
X026804Y006478D01*
X026825Y006450D01*
X026842Y006419D01*
X026855Y006386D01*
X026865Y006352D01*
X026871Y006317D01*
X026873Y006282D01*
X026871Y006247D01*
X026865Y006212D01*
X026855Y006178D01*
X026842Y006145D01*
X026825Y006114D01*
X026804Y006086D01*
X026781Y006059D01*
X026754Y006036D01*
X026726Y006015D01*
X026695Y005998D01*
X026662Y005985D01*
X026628Y005975D01*
X026593Y005969D01*
X026558Y005967D01*
X026523Y005969D01*
X026488Y005975D01*
X026454Y005985D01*
X026421Y005998D01*
X026390Y006015D01*
X026362Y006036D01*
X026335Y006059D01*
X026312Y006086D01*
X026291Y006114D01*
X026274Y006145D01*
X026261Y006178D01*
X026251Y006212D01*
X026245Y006247D01*
X026243Y006282D01*
X026243Y002739D02*
X026245Y002774D01*
X026251Y002809D01*
X026261Y002843D01*
X026274Y002876D01*
X026291Y002907D01*
X026312Y002935D01*
X026335Y002962D01*
X026362Y002985D01*
X026390Y003006D01*
X026421Y003023D01*
X026454Y003036D01*
X026488Y003046D01*
X026523Y003052D01*
X026558Y003054D01*
X026593Y003052D01*
X026628Y003046D01*
X026662Y003036D01*
X026695Y003023D01*
X026726Y003006D01*
X026754Y002985D01*
X026781Y002962D01*
X026804Y002935D01*
X026825Y002907D01*
X026842Y002876D01*
X026855Y002843D01*
X026865Y002809D01*
X026871Y002774D01*
X026873Y002739D01*
X026871Y002704D01*
X026865Y002669D01*
X026855Y002635D01*
X026842Y002602D01*
X026825Y002571D01*
X026804Y002543D01*
X026781Y002516D01*
X026754Y002493D01*
X026726Y002472D01*
X026695Y002455D01*
X026662Y002442D01*
X026628Y002432D01*
X026593Y002426D01*
X026558Y002424D01*
X026523Y002426D01*
X026488Y002432D01*
X026454Y002442D01*
X026421Y002455D01*
X026390Y002472D01*
X026362Y002493D01*
X026335Y002516D01*
X026312Y002543D01*
X026291Y002571D01*
X026274Y002602D01*
X026261Y002635D01*
X026251Y002669D01*
X026245Y002704D01*
X026243Y002739D01*
X020337Y002739D02*
X020339Y002774D01*
X020345Y002809D01*
X020355Y002843D01*
X020368Y002876D01*
X020385Y002907D01*
X020406Y002935D01*
X020429Y002962D01*
X020456Y002985D01*
X020484Y003006D01*
X020515Y003023D01*
X020548Y003036D01*
X020582Y003046D01*
X020617Y003052D01*
X020652Y003054D01*
X020687Y003052D01*
X020722Y003046D01*
X020756Y003036D01*
X020789Y003023D01*
X020820Y003006D01*
X020848Y002985D01*
X020875Y002962D01*
X020898Y002935D01*
X020919Y002907D01*
X020936Y002876D01*
X020949Y002843D01*
X020959Y002809D01*
X020965Y002774D01*
X020967Y002739D01*
X020965Y002704D01*
X020959Y002669D01*
X020949Y002635D01*
X020936Y002602D01*
X020919Y002571D01*
X020898Y002543D01*
X020875Y002516D01*
X020848Y002493D01*
X020820Y002472D01*
X020789Y002455D01*
X020756Y002442D01*
X020722Y002432D01*
X020687Y002426D01*
X020652Y002424D01*
X020617Y002426D01*
X020582Y002432D01*
X020548Y002442D01*
X020515Y002455D01*
X020484Y002472D01*
X020456Y002493D01*
X020429Y002516D01*
X020406Y002543D01*
X020385Y002571D01*
X020368Y002602D01*
X020355Y002635D01*
X020345Y002669D01*
X020339Y002704D01*
X020337Y002739D01*
X026243Y025967D02*
X026245Y026002D01*
X026251Y026037D01*
X026261Y026071D01*
X026274Y026104D01*
X026291Y026135D01*
X026312Y026163D01*
X026335Y026190D01*
X026362Y026213D01*
X026390Y026234D01*
X026421Y026251D01*
X026454Y026264D01*
X026488Y026274D01*
X026523Y026280D01*
X026558Y026282D01*
X026593Y026280D01*
X026628Y026274D01*
X026662Y026264D01*
X026695Y026251D01*
X026726Y026234D01*
X026754Y026213D01*
X026781Y026190D01*
X026804Y026163D01*
X026825Y026135D01*
X026842Y026104D01*
X026855Y026071D01*
X026865Y026037D01*
X026871Y026002D01*
X026873Y025967D01*
X026871Y025932D01*
X026865Y025897D01*
X026855Y025863D01*
X026842Y025830D01*
X026825Y025799D01*
X026804Y025771D01*
X026781Y025744D01*
X026754Y025721D01*
X026726Y025700D01*
X026695Y025683D01*
X026662Y025670D01*
X026628Y025660D01*
X026593Y025654D01*
X026558Y025652D01*
X026523Y025654D01*
X026488Y025660D01*
X026454Y025670D01*
X026421Y025683D01*
X026390Y025700D01*
X026362Y025721D01*
X026335Y025744D01*
X026312Y025771D01*
X026291Y025799D01*
X026274Y025830D01*
X026261Y025863D01*
X026251Y025897D01*
X026245Y025932D01*
X026243Y025967D01*
D11*
X024097Y025180D03*
X023113Y025180D03*
X023113Y023211D03*
X024097Y023211D03*
X024097Y019274D03*
X023113Y019274D03*
X023113Y017306D03*
X024097Y017306D03*
X029019Y017306D03*
X029019Y019274D03*
X029019Y023211D03*
X029019Y025180D03*
X018192Y025180D03*
X018192Y023211D03*
X015239Y023211D03*
X015239Y025180D03*
X010318Y025180D03*
X009334Y025180D03*
X009334Y023211D03*
X010318Y023211D03*
X010318Y019274D03*
X009334Y019274D03*
X009334Y017306D03*
X010318Y017306D03*
X015239Y017306D03*
X015239Y019274D03*
X018192Y019274D03*
X018192Y017306D03*
X018192Y011400D03*
X018192Y009432D03*
X015239Y009432D03*
X015239Y011400D03*
X010318Y011400D03*
X009334Y011400D03*
X009334Y009432D03*
X010318Y009432D03*
X010318Y005495D03*
X009334Y005495D03*
X009334Y003526D03*
X010318Y003526D03*
X015239Y003526D03*
X015239Y005495D03*
X018192Y005495D03*
X018192Y003526D03*
X023113Y003526D03*
X024097Y003526D03*
X024097Y005495D03*
X023113Y005495D03*
X023113Y009432D03*
X024097Y009432D03*
X024097Y011400D03*
X023113Y011400D03*
X029019Y011400D03*
X029019Y009432D03*
X029019Y005495D03*
X029019Y003526D03*
X004412Y003526D03*
X004412Y005495D03*
X004412Y009432D03*
X004412Y011400D03*
X004412Y017306D03*
X004412Y019274D03*
X004412Y023211D03*
X004412Y025180D03*
D12*
X006873Y026853D03*
X006873Y021538D03*
X006873Y020948D03*
X012778Y020948D03*
X012778Y021538D03*
X012778Y026853D03*
X020652Y026853D03*
X020652Y021538D03*
X020652Y020948D03*
X026558Y020948D03*
X026558Y021538D03*
X026558Y026853D03*
X026558Y015633D03*
X026558Y013074D03*
X020652Y013074D03*
X020652Y015633D03*
X012778Y015633D03*
X012778Y013074D03*
X006873Y013074D03*
X006873Y015633D03*
X006873Y007759D03*
X006873Y007168D03*
X006873Y001853D03*
X012778Y001853D03*
X012778Y007168D03*
X012778Y007759D03*
X020652Y007759D03*
X020652Y007168D03*
X020652Y001853D03*
X026558Y001853D03*
X026558Y007168D03*
X026558Y007759D03*
D13*
X030589Y008247D02*
X031189Y008247D01*
X031189Y009247D02*
X030589Y009247D01*
X030589Y010247D02*
X031189Y010247D01*
X031189Y011247D02*
X030589Y011247D01*
X030589Y012247D02*
X031189Y012247D01*
X031189Y013247D02*
X030589Y013247D01*
X030589Y014247D02*
X031189Y014247D01*
X031189Y015247D02*
X030589Y015247D01*
X030589Y016247D02*
X031189Y016247D01*
X031189Y017247D02*
X030589Y017247D01*
X030589Y018247D02*
X031189Y018247D01*
X031189Y019247D02*
X030589Y019247D01*
X030589Y020247D02*
X031189Y020247D01*
X031189Y021247D02*
X030589Y021247D01*
X030589Y022247D02*
X031189Y022247D01*
X031189Y023247D02*
X030589Y023247D01*
X030589Y007247D02*
X031189Y007247D01*
X031189Y006247D02*
X030589Y006247D01*
X003236Y006247D02*
X002636Y006247D01*
X002636Y007247D02*
X003236Y007247D01*
X003236Y008247D02*
X002636Y008247D01*
X002636Y009247D02*
X003236Y009247D01*
X003236Y010247D02*
X002636Y010247D01*
X002636Y011247D02*
X003236Y011247D01*
X003236Y012247D02*
X002636Y012247D01*
X002636Y013247D02*
X003236Y013247D01*
X003236Y014247D02*
X002636Y014247D01*
X002636Y015247D02*
X003236Y015247D01*
X003236Y016247D02*
X002636Y016247D01*
X002636Y017247D02*
X003236Y017247D01*
X003236Y018247D02*
X002636Y018247D01*
X002636Y019247D02*
X003236Y019247D01*
X003236Y020247D02*
X002636Y020247D01*
X002636Y021247D02*
X003236Y021247D01*
X003236Y022247D02*
X002636Y022247D01*
X002636Y023247D02*
X003236Y023247D01*
D14*
X003015Y023287D02*
X002936Y023247D01*
X002925Y023197D01*
X002205Y022477D01*
X002205Y020047D01*
X002475Y019777D01*
X004095Y019777D01*
X005265Y020947D01*
X006795Y020947D01*
X006873Y020948D01*
X006885Y020947D01*
X007695Y020947D01*
X007875Y020767D01*
X010305Y023197D01*
X010318Y023211D01*
X010395Y023197D01*
X010845Y023197D01*
X012465Y021577D01*
X012735Y021577D01*
X012778Y021538D01*
X012825Y021487D01*
X012825Y021037D01*
X012778Y020948D01*
X012825Y020947D01*
X013545Y020947D01*
X014175Y020317D01*
X017055Y023197D01*
X018135Y023197D01*
X018192Y023211D01*
X018225Y023197D01*
X019845Y021577D01*
X020565Y021577D01*
X020652Y021538D01*
X020655Y021487D01*
X020655Y021037D01*
X020652Y020948D01*
X020655Y020947D01*
X020925Y020947D01*
X021375Y020497D01*
X024075Y023197D01*
X024097Y023211D01*
X024165Y023197D01*
X024615Y023197D01*
X026235Y021577D01*
X026505Y021577D01*
X026558Y021538D01*
X026595Y021487D01*
X026595Y021037D01*
X026558Y020948D01*
X026595Y020947D01*
X027315Y020947D01*
X028935Y019327D01*
X029019Y019274D01*
X029295Y018697D02*
X029655Y019057D01*
X029655Y021217D01*
X027405Y023467D01*
X027405Y023557D01*
X027765Y023377D02*
X027765Y025897D01*
X026865Y026797D01*
X026595Y026797D01*
X026558Y026853D01*
X027405Y024637D02*
X024345Y024637D01*
X024255Y024547D01*
X019935Y024547D01*
X017685Y026797D01*
X012825Y026797D01*
X012778Y026853D01*
X013725Y025807D02*
X013095Y025177D01*
X011115Y025177D01*
X009495Y026797D01*
X006885Y026797D01*
X006873Y026853D01*
X007605Y024547D02*
X009675Y024547D01*
X010305Y025177D01*
X010318Y025180D01*
X007695Y024367D02*
X017325Y024367D01*
X018135Y025177D01*
X018192Y025180D01*
X018405Y025807D02*
X013725Y025807D01*
X018405Y025807D02*
X019935Y024277D01*
X026415Y024277D01*
X027765Y023377D02*
X029835Y021307D01*
X029835Y020317D01*
X030825Y019327D01*
X030889Y019247D01*
X030889Y018247D02*
X030825Y018157D01*
X012645Y018157D01*
X010125Y015637D01*
X006885Y015637D01*
X006873Y015633D01*
X006615Y015187D02*
X006705Y015097D01*
X008955Y015097D01*
X009315Y015457D01*
X012285Y015457D01*
X012645Y015097D01*
X015885Y015097D01*
X016245Y015457D01*
X020115Y015457D01*
X020475Y015097D01*
X022815Y015097D01*
X025065Y017347D01*
X028935Y017347D01*
X029019Y017306D01*
X029295Y017887D02*
X016695Y017887D01*
X014445Y015637D01*
X012825Y015637D01*
X012778Y015633D01*
X010935Y016717D02*
X012915Y018697D01*
X029295Y018697D01*
X029295Y017887D02*
X029925Y017257D01*
X030825Y017257D01*
X030889Y017247D01*
X030825Y015277D02*
X030889Y015247D01*
X030825Y015277D02*
X026865Y015277D01*
X026595Y015547D01*
X026558Y015633D01*
X025065Y014197D02*
X024075Y013207D01*
X021195Y013207D01*
X020835Y013567D01*
X017505Y013567D01*
X017145Y013207D01*
X013365Y013207D01*
X013005Y013567D01*
X010575Y013567D01*
X010125Y013117D01*
X006885Y013117D01*
X006873Y013074D01*
X006615Y015187D02*
X003015Y015187D01*
X002936Y015247D01*
X002475Y015727D02*
X004995Y015727D01*
X006615Y017347D01*
X008505Y017347D01*
X009135Y016717D01*
X010935Y016717D01*
X009334Y017306D02*
X009315Y017347D01*
X008505Y018157D01*
X003015Y018157D01*
X002936Y018247D01*
X002936Y020247D02*
X003015Y020317D01*
X003645Y020317D01*
X007695Y024367D01*
X007605Y024547D02*
X004365Y021307D01*
X003015Y021307D01*
X002936Y021247D01*
X003015Y023287D02*
X004365Y023287D01*
X004412Y023211D01*
X006873Y021538D02*
X006885Y021487D01*
X006885Y021037D01*
X006873Y020948D01*
X007875Y020767D02*
X009315Y019327D01*
X009334Y019274D01*
X014175Y020317D02*
X015165Y019327D01*
X015239Y019274D01*
X021375Y020497D02*
X022545Y019327D01*
X023085Y019327D01*
X023113Y019274D01*
X028125Y023287D02*
X028125Y023917D01*
X028125Y023287D02*
X030105Y021307D01*
X030825Y021307D01*
X030889Y021247D01*
X030889Y014247D02*
X030825Y014197D01*
X025065Y014197D01*
X024705Y013567D02*
X024165Y013027D01*
X020655Y013027D01*
X020652Y013074D01*
X018192Y011400D02*
X018135Y011317D01*
X017595Y010777D01*
X004185Y010777D01*
X003825Y011137D01*
X003825Y011407D01*
X003015Y012217D01*
X002936Y012247D01*
X004365Y012847D02*
X004365Y011407D01*
X004412Y011400D01*
X004365Y012847D02*
X003015Y014197D01*
X002936Y014247D01*
X002205Y015457D02*
X002475Y015727D01*
X002205Y015457D02*
X002205Y006997D01*
X002925Y006277D01*
X002936Y006247D01*
X003015Y007177D02*
X002936Y007247D01*
X003015Y007177D02*
X004815Y007177D01*
X007065Y004927D01*
X025785Y004927D01*
X025515Y004117D02*
X011745Y004117D01*
X009495Y001867D01*
X006885Y001867D01*
X006873Y001853D01*
X008685Y005557D02*
X007155Y007087D01*
X006885Y007087D01*
X006873Y007168D01*
X006885Y007177D01*
X006885Y007717D01*
X006873Y007759D01*
X006795Y007807D01*
X006075Y007807D01*
X004455Y009427D01*
X004412Y009432D01*
X008685Y005557D02*
X009315Y005557D01*
X009334Y005495D01*
X009405Y005557D01*
X012015Y008167D01*
X012015Y008257D01*
X010845Y009427D01*
X010395Y009427D01*
X010318Y009432D01*
X012015Y008257D02*
X012465Y007807D01*
X012735Y007807D01*
X012778Y007759D01*
X012825Y007717D01*
X012825Y007177D01*
X012778Y007168D01*
X012825Y007087D01*
X013635Y007087D01*
X014175Y006547D01*
X017055Y009427D01*
X018135Y009427D01*
X018192Y009432D01*
X018225Y009427D01*
X019845Y007807D01*
X020565Y007807D01*
X020652Y007759D01*
X020655Y007717D01*
X020655Y007177D01*
X020652Y007168D01*
X020655Y007087D01*
X021015Y007087D01*
X021375Y006727D01*
X024075Y009427D01*
X024097Y009432D01*
X024165Y009427D01*
X024615Y009427D01*
X026235Y007807D01*
X026505Y007807D01*
X026558Y007759D01*
X026595Y007717D01*
X026595Y007177D01*
X026558Y007168D01*
X027405Y006817D02*
X027405Y006007D01*
X025515Y004117D01*
X027405Y004747D02*
X027405Y002497D01*
X026775Y001867D01*
X026595Y001867D01*
X026558Y001853D01*
X027405Y004747D02*
X029835Y007177D01*
X030825Y007177D01*
X030889Y007247D01*
X030825Y008167D02*
X029835Y008167D01*
X023535Y001867D01*
X020655Y001867D01*
X020652Y001853D01*
X018945Y003487D02*
X017325Y001867D01*
X012825Y001867D01*
X012778Y001853D01*
X015239Y005495D02*
X015165Y005557D01*
X014175Y006547D01*
X021375Y006727D02*
X022545Y005557D01*
X023085Y005557D01*
X023113Y005495D01*
X027405Y006817D02*
X030825Y010237D01*
X030889Y010247D01*
X030889Y012247D02*
X030825Y012307D01*
X028035Y012307D01*
X026775Y013567D01*
X024705Y013567D01*
X030889Y008247D02*
X030825Y008167D01*
X030889Y006247D02*
X030825Y006187D01*
X029655Y006187D01*
X029025Y005557D01*
X029019Y005495D01*
D15*
X025785Y004927D03*
X018945Y003487D03*
X027405Y023557D03*
X028125Y023917D03*
X027405Y024637D03*
X026415Y024277D03*
D16*
X026565Y023950D02*
X027555Y023950D01*
X027555Y024108D02*
X026734Y024108D01*
X026720Y024073D02*
X026775Y024206D01*
X026775Y024349D01*
X026742Y024427D01*
X027106Y024427D01*
X027201Y024332D01*
X027333Y024277D01*
X027476Y024277D01*
X027555Y024310D01*
X027555Y023290D01*
X027678Y023167D01*
X029625Y021220D01*
X029625Y020230D01*
X029748Y020107D01*
X030273Y019582D01*
X030199Y019507D01*
X030129Y019338D01*
X030129Y019155D01*
X030199Y018986D01*
X030328Y018857D01*
X030497Y018787D01*
X031280Y018787D01*
X031449Y018857D01*
X031579Y018986D01*
X031590Y019013D01*
X031590Y018481D01*
X031579Y018507D01*
X031449Y018637D01*
X031280Y018707D01*
X030497Y018707D01*
X030328Y018637D01*
X030199Y018507D01*
X030141Y018367D01*
X012558Y018367D01*
X010038Y015847D01*
X007326Y015847D01*
X007547Y016068D01*
X007668Y016360D01*
X007668Y016677D01*
X007547Y016969D01*
X007323Y017193D01*
X007031Y017314D01*
X006715Y017314D01*
X006423Y017193D01*
X006199Y016969D01*
X006078Y016677D01*
X006078Y016360D01*
X006199Y016068D01*
X006423Y015845D01*
X006429Y015842D01*
X006383Y015730D01*
X006383Y015535D01*
X006440Y015397D01*
X003671Y015397D01*
X003626Y015507D01*
X003496Y015637D01*
X003327Y015707D01*
X002544Y015707D01*
X002375Y015637D01*
X002246Y015507D01*
X002235Y015481D01*
X002235Y016013D01*
X002246Y015986D01*
X002375Y015857D01*
X002544Y015787D01*
X003327Y015787D01*
X003496Y015857D01*
X003626Y015986D01*
X003696Y016155D01*
X003696Y016338D01*
X003626Y016507D01*
X003496Y016637D01*
X003327Y016707D01*
X002544Y016707D01*
X002375Y016637D01*
X002246Y016507D01*
X002235Y016481D01*
X002235Y017013D01*
X002246Y016986D01*
X002375Y016857D01*
X002544Y016787D01*
X003327Y016787D01*
X003496Y016857D01*
X003626Y016986D01*
X003696Y017155D01*
X003696Y017338D01*
X003626Y017507D01*
X003496Y017637D01*
X003327Y017707D01*
X002544Y017707D01*
X002375Y017637D01*
X002246Y017507D01*
X002235Y017481D01*
X002235Y018013D01*
X002246Y017986D01*
X002375Y017857D01*
X002544Y017787D01*
X003327Y017787D01*
X003496Y017857D01*
X003587Y017947D01*
X008418Y017947D01*
X008805Y017560D01*
X008749Y017422D01*
X008749Y017190D01*
X008838Y016975D01*
X009002Y016810D01*
X009217Y016721D01*
X009450Y016721D01*
X009665Y016810D01*
X009826Y016971D01*
X009986Y016810D01*
X010201Y016721D01*
X010434Y016721D01*
X010649Y016810D01*
X010814Y016975D01*
X010903Y017190D01*
X010903Y017422D01*
X010814Y017637D01*
X010649Y017802D01*
X010434Y017891D01*
X010201Y017891D01*
X009986Y017802D01*
X009826Y017641D01*
X009665Y017802D01*
X009450Y017891D01*
X009217Y017891D01*
X009112Y017847D01*
X008592Y018367D01*
X003684Y018367D01*
X003626Y018507D01*
X003496Y018637D01*
X003327Y018707D01*
X002544Y018707D01*
X002375Y018637D01*
X002246Y018507D01*
X002235Y018481D01*
X002235Y019013D01*
X002246Y018986D01*
X002375Y018857D01*
X002544Y018787D01*
X003327Y018787D01*
X003496Y018857D01*
X003626Y018986D01*
X003696Y019155D01*
X003696Y019338D01*
X003626Y019507D01*
X003566Y019567D01*
X003900Y019567D01*
X003827Y019391D01*
X003827Y019158D01*
X003916Y018943D01*
X004081Y018779D01*
X004296Y018689D01*
X004529Y018689D01*
X004744Y018779D01*
X004908Y018943D01*
X004997Y019158D01*
X004997Y019391D01*
X004908Y019606D01*
X004744Y019770D01*
X004529Y019859D01*
X004474Y019859D01*
X005352Y020737D01*
X006426Y020737D01*
X006423Y020736D01*
X006199Y020512D01*
X006078Y020220D01*
X006078Y019904D01*
X006199Y019612D01*
X006423Y019388D01*
X006715Y019267D01*
X007031Y019267D01*
X007323Y019388D01*
X007547Y019612D01*
X007668Y019904D01*
X007668Y020220D01*
X007547Y020512D01*
X007323Y020736D01*
X007319Y020737D01*
X007608Y020737D01*
X007665Y020680D01*
X007788Y020557D01*
X008809Y019536D01*
X008749Y019391D01*
X008749Y019158D01*
X008838Y018943D01*
X009002Y018779D01*
X009217Y018689D01*
X009450Y018689D01*
X009665Y018779D01*
X009826Y018939D01*
X009986Y018779D01*
X010201Y018689D01*
X010434Y018689D01*
X010649Y018779D01*
X010814Y018943D01*
X010903Y019158D01*
X010903Y019391D01*
X010814Y019606D01*
X010649Y019770D01*
X010434Y019859D01*
X010201Y019859D01*
X009986Y019770D01*
X009826Y019610D01*
X009665Y019770D01*
X009450Y019859D01*
X009217Y019859D01*
X009120Y019819D01*
X008172Y020767D01*
X010081Y022676D01*
X010201Y022626D01*
X010434Y022626D01*
X010649Y022716D01*
X010814Y022880D01*
X010829Y022916D01*
X012255Y021490D01*
X012288Y021457D01*
X012288Y021441D01*
X012363Y021261D01*
X012381Y021243D01*
X012363Y021225D01*
X012288Y021045D01*
X012288Y020850D01*
X012335Y020739D01*
X012328Y020736D01*
X012104Y020512D01*
X011983Y020220D01*
X011983Y019904D01*
X012104Y019612D01*
X012328Y019388D01*
X012620Y019267D01*
X012937Y019267D01*
X013229Y019388D01*
X013452Y019612D01*
X013573Y019904D01*
X013573Y020220D01*
X013452Y020512D01*
X013229Y020736D01*
X013225Y020737D01*
X013458Y020737D01*
X014088Y020107D01*
X014698Y019497D01*
X014654Y019391D01*
X014654Y019158D01*
X014743Y018943D01*
X014908Y018779D01*
X015123Y018689D01*
X015355Y018689D01*
X015570Y018779D01*
X015735Y018943D01*
X015824Y019158D01*
X015824Y019391D01*
X015735Y019606D01*
X015570Y019770D01*
X015355Y019859D01*
X015123Y019859D01*
X014986Y019803D01*
X014472Y020317D01*
X015628Y021474D01*
X015606Y021389D01*
X015606Y021097D01*
X015251Y021097D01*
X015093Y020938D02*
X015648Y020938D01*
X015681Y020815D02*
X015606Y021097D01*
X015606Y021255D02*
X015410Y021255D01*
X015568Y021414D02*
X015612Y021414D01*
X015291Y021731D02*
X013229Y021731D01*
X013222Y021747D02*
X013229Y021750D01*
X013452Y021974D01*
X013573Y022266D01*
X013573Y022582D01*
X013452Y022874D01*
X013229Y023098D01*
X012937Y023219D01*
X012620Y023219D01*
X012328Y023098D01*
X012104Y022874D01*
X011983Y022582D01*
X011983Y022356D01*
X011055Y023284D01*
X011055Y023284D01*
X010932Y023407D01*
X010870Y023407D01*
X010814Y023543D01*
X010649Y023707D01*
X010434Y023796D01*
X010201Y023796D01*
X009986Y023707D01*
X009826Y023547D01*
X009665Y023707D01*
X009450Y023796D01*
X009217Y023796D01*
X009002Y023707D01*
X008838Y023543D01*
X008749Y023328D01*
X008749Y023095D01*
X008838Y022880D01*
X009002Y022716D01*
X009217Y022626D01*
X009437Y022626D01*
X007875Y021064D01*
X007782Y021157D01*
X007316Y021157D01*
X007288Y021225D01*
X007271Y021243D01*
X007288Y021261D01*
X007363Y021441D01*
X007363Y021636D01*
X007317Y021747D01*
X007323Y021750D01*
X007547Y021974D01*
X007668Y022266D01*
X007668Y022582D01*
X007547Y022874D01*
X007323Y023098D01*
X007031Y023219D01*
X006843Y023219D01*
X007782Y024157D01*
X017412Y024157D01*
X017916Y024661D01*
X018075Y024595D01*
X018308Y024595D01*
X018523Y024684D01*
X018688Y024849D01*
X018777Y025064D01*
X018777Y025138D01*
X019848Y024067D01*
X026116Y024067D01*
X026211Y023972D01*
X026343Y023917D01*
X026486Y023917D01*
X026619Y023972D01*
X026720Y024073D01*
X026775Y024267D02*
X027555Y024267D01*
X027975Y024267D02*
X028028Y024267D01*
X028053Y024277D02*
X027975Y024245D01*
X027975Y025984D01*
X027075Y026884D01*
X027048Y026911D01*
X027048Y026951D01*
X026973Y027131D01*
X026845Y027259D01*
X031590Y027259D01*
X031590Y023511D01*
X031555Y023560D01*
X031501Y023613D01*
X031440Y023657D01*
X031373Y023692D01*
X031301Y023715D01*
X031226Y023727D01*
X030909Y023727D01*
X030909Y023267D01*
X030869Y023267D01*
X030869Y023727D01*
X030551Y023727D01*
X030476Y023715D01*
X030404Y023692D01*
X030337Y023657D01*
X030276Y023613D01*
X030223Y023560D01*
X030178Y023499D01*
X030144Y023431D01*
X030120Y023359D01*
X030109Y023285D01*
X030109Y023267D01*
X030869Y023267D01*
X030869Y023227D01*
X030909Y023227D01*
X030909Y022767D01*
X031226Y022767D01*
X031301Y022779D01*
X031373Y022802D01*
X031440Y022836D01*
X031501Y022881D01*
X031555Y022934D01*
X031590Y022982D01*
X031590Y022481D01*
X031579Y022507D01*
X031449Y022637D01*
X031280Y022707D01*
X030497Y022707D01*
X030328Y022637D01*
X030199Y022507D01*
X030129Y022338D01*
X030129Y022155D01*
X030199Y021986D01*
X030328Y021857D01*
X030497Y021787D01*
X031280Y021787D01*
X031449Y021857D01*
X031579Y021986D01*
X031590Y022013D01*
X031590Y021481D01*
X031579Y021507D01*
X031449Y021637D01*
X031280Y021707D01*
X030497Y021707D01*
X030328Y021637D01*
X030209Y021517D01*
X030192Y021517D01*
X029083Y022626D01*
X029135Y022626D01*
X029350Y022716D01*
X029515Y022880D01*
X029604Y023095D01*
X029604Y023328D01*
X029515Y023543D01*
X029350Y023707D01*
X029135Y023796D01*
X028902Y023796D01*
X028687Y023707D01*
X028523Y023543D01*
X028434Y023328D01*
X028434Y023276D01*
X028335Y023374D01*
X028335Y023618D01*
X028430Y023713D01*
X028485Y023846D01*
X028485Y023989D01*
X028430Y024121D01*
X028329Y024223D01*
X028196Y024277D01*
X028053Y024277D01*
X027975Y024425D02*
X031590Y024425D01*
X031590Y024267D02*
X028222Y024267D01*
X028435Y024108D02*
X031590Y024108D01*
X031590Y023950D02*
X028485Y023950D01*
X028462Y023791D02*
X028890Y023791D01*
X029147Y023791D02*
X031590Y023791D01*
X031590Y023633D02*
X031474Y023633D01*
X030909Y023633D02*
X030869Y023633D01*
X030869Y023474D02*
X030909Y023474D01*
X030909Y023316D02*
X030869Y023316D01*
X030869Y023227D02*
X030109Y023227D01*
X030109Y023209D01*
X030120Y023135D01*
X030144Y023063D01*
X030178Y022995D01*
X030223Y022934D01*
X030276Y022881D01*
X030337Y022836D01*
X030404Y022802D01*
X030476Y022779D01*
X030551Y022767D01*
X030869Y022767D01*
X030869Y023227D01*
X030869Y023157D02*
X030909Y023157D01*
X030909Y022999D02*
X030869Y022999D01*
X030869Y022840D02*
X030909Y022840D01*
X031340Y022682D02*
X031590Y022682D01*
X031590Y022840D02*
X031446Y022840D01*
X031563Y022523D02*
X031590Y022523D01*
X031590Y021889D02*
X031482Y021889D01*
X031590Y021731D02*
X029978Y021731D01*
X029820Y021889D02*
X030296Y021889D01*
X030173Y022048D02*
X029661Y022048D01*
X029503Y022206D02*
X030129Y022206D01*
X030140Y022365D02*
X029344Y022365D01*
X029186Y022523D02*
X030215Y022523D01*
X030437Y022682D02*
X029269Y022682D01*
X029475Y022840D02*
X030332Y022840D01*
X030176Y022999D02*
X029564Y022999D01*
X029604Y023157D02*
X030117Y023157D01*
X030114Y023316D02*
X029604Y023316D01*
X029543Y023474D02*
X030166Y023474D01*
X030303Y023633D02*
X029424Y023633D01*
X028613Y023633D02*
X028349Y023633D01*
X028335Y023474D02*
X028494Y023474D01*
X028434Y023316D02*
X028393Y023316D01*
X028005Y022840D02*
X027246Y022840D01*
X027232Y022874D02*
X027008Y023098D01*
X026716Y023219D01*
X026400Y023219D01*
X026108Y023098D01*
X025884Y022874D01*
X025763Y022582D01*
X025763Y022346D01*
X024702Y023407D01*
X024649Y023407D01*
X024593Y023543D01*
X024429Y023707D01*
X024214Y023796D01*
X023981Y023796D01*
X023766Y023707D01*
X023605Y023547D01*
X023444Y023707D01*
X023229Y023796D01*
X022997Y023796D01*
X022782Y023707D01*
X022617Y023543D01*
X022528Y023328D01*
X022528Y023095D01*
X022617Y022880D01*
X022782Y022716D01*
X022997Y022626D01*
X023207Y022626D01*
X021375Y020794D01*
X021142Y021027D01*
X021142Y021045D01*
X021068Y021225D01*
X021050Y021243D01*
X021068Y021261D01*
X021142Y021441D01*
X021142Y021636D01*
X021096Y021747D01*
X021103Y021750D01*
X021326Y021974D01*
X021447Y022266D01*
X021447Y022582D01*
X021326Y022874D01*
X021103Y023098D01*
X020811Y023219D01*
X020494Y023219D01*
X020202Y023098D01*
X019979Y022874D01*
X019857Y022582D01*
X019857Y022266D01*
X019979Y021974D01*
X020165Y021787D01*
X019932Y021787D01*
X018732Y022987D01*
X018777Y023095D01*
X018777Y023328D01*
X018688Y023543D01*
X018523Y023707D01*
X018308Y023796D01*
X018075Y023796D01*
X017860Y023707D01*
X017696Y023543D01*
X017640Y023407D01*
X016968Y023407D01*
X014175Y020614D01*
X013632Y021157D01*
X013222Y021157D01*
X013194Y021225D01*
X013176Y021243D01*
X013194Y021261D01*
X013268Y021441D01*
X013268Y021636D01*
X013222Y021747D01*
X013268Y021572D02*
X015133Y021572D01*
X014974Y021414D02*
X013257Y021414D01*
X013189Y021255D02*
X014816Y021255D01*
X014657Y021097D02*
X013692Y021097D01*
X013851Y020938D02*
X014499Y020938D01*
X014340Y020780D02*
X014009Y020780D01*
X014168Y020621D02*
X014182Y020621D01*
X013891Y020304D02*
X013538Y020304D01*
X013573Y020146D02*
X014049Y020146D01*
X014208Y019987D02*
X013573Y019987D01*
X013542Y019829D02*
X014366Y019829D01*
X014525Y019670D02*
X013477Y019670D01*
X013353Y019512D02*
X014683Y019512D01*
X014654Y019353D02*
X013145Y019353D01*
X012411Y019353D02*
X010903Y019353D01*
X010903Y019195D02*
X014654Y019195D01*
X014704Y019036D02*
X010852Y019036D01*
X010749Y018878D02*
X014808Y018878D01*
X015050Y018719D02*
X010506Y018719D01*
X010129Y018719D02*
X009522Y018719D01*
X009764Y018878D02*
X009887Y018878D01*
X009145Y018719D02*
X004601Y018719D01*
X004843Y018878D02*
X008903Y018878D01*
X008799Y019036D02*
X004947Y019036D01*
X004997Y019195D02*
X008749Y019195D01*
X008749Y019353D02*
X007240Y019353D01*
X007447Y019512D02*
X008799Y019512D01*
X008675Y019670D02*
X007571Y019670D01*
X007637Y019829D02*
X008516Y019829D01*
X008358Y019987D02*
X007668Y019987D01*
X007668Y020146D02*
X008199Y020146D01*
X008041Y020304D02*
X007633Y020304D01*
X007567Y020463D02*
X007882Y020463D01*
X007788Y020557D02*
X007788Y020557D01*
X007724Y020621D02*
X007438Y020621D01*
X007665Y020680D02*
X007665Y020680D01*
X007842Y021097D02*
X007907Y021097D01*
X008066Y021255D02*
X007283Y021255D01*
X007352Y021414D02*
X008224Y021414D01*
X008383Y021572D02*
X007363Y021572D01*
X007323Y021731D02*
X008541Y021731D01*
X008700Y021889D02*
X007462Y021889D01*
X007578Y022048D02*
X008858Y022048D01*
X009017Y022206D02*
X007643Y022206D01*
X007668Y022365D02*
X009175Y022365D01*
X009334Y022523D02*
X007668Y022523D01*
X007627Y022682D02*
X009083Y022682D01*
X008877Y022840D02*
X007561Y022840D01*
X007422Y022999D02*
X008788Y022999D01*
X008749Y023157D02*
X007180Y023157D01*
X006940Y023316D02*
X008749Y023316D01*
X008809Y023474D02*
X007099Y023474D01*
X007257Y023633D02*
X008928Y023633D01*
X009205Y023791D02*
X007416Y023791D01*
X007574Y023950D02*
X026265Y023950D01*
X026743Y024425D02*
X027108Y024425D01*
X027555Y023791D02*
X024226Y023791D01*
X023969Y023791D02*
X023242Y023791D01*
X022984Y023791D02*
X018320Y023791D01*
X018063Y023791D02*
X015368Y023791D01*
X015355Y023796D02*
X015123Y023796D01*
X014908Y023707D01*
X014743Y023543D01*
X014654Y023328D01*
X014654Y023095D01*
X014743Y022880D01*
X014908Y022716D01*
X015123Y022626D01*
X015355Y022626D01*
X015570Y022716D01*
X015735Y022880D01*
X015824Y023095D01*
X015824Y023328D01*
X015735Y023543D01*
X015570Y023707D01*
X015355Y023796D01*
X015110Y023791D02*
X010446Y023791D01*
X010189Y023791D02*
X009462Y023791D01*
X009739Y023633D02*
X009912Y023633D01*
X010724Y023633D02*
X014833Y023633D01*
X014715Y023474D02*
X010842Y023474D01*
X011023Y023316D02*
X014654Y023316D01*
X014654Y023157D02*
X013085Y023157D01*
X013328Y022999D02*
X014694Y022999D01*
X014783Y022840D02*
X013466Y022840D01*
X013532Y022682D02*
X014989Y022682D01*
X015489Y022682D02*
X016242Y022682D01*
X016084Y022523D02*
X013573Y022523D01*
X013573Y022365D02*
X015925Y022365D01*
X015767Y022206D02*
X013549Y022206D01*
X013483Y022048D02*
X015608Y022048D01*
X015450Y021889D02*
X013368Y021889D01*
X012368Y021255D02*
X008660Y021255D01*
X008501Y021097D02*
X012310Y021097D01*
X012288Y020938D02*
X008343Y020938D01*
X008184Y020780D02*
X012318Y020780D01*
X012214Y020621D02*
X008318Y020621D01*
X008476Y020463D02*
X012084Y020463D01*
X012018Y020304D02*
X008635Y020304D01*
X008793Y020146D02*
X011983Y020146D01*
X011983Y019987D02*
X008952Y019987D01*
X009110Y019829D02*
X009143Y019829D01*
X009524Y019829D02*
X010128Y019829D01*
X009886Y019670D02*
X009765Y019670D01*
X010508Y019829D02*
X012014Y019829D01*
X012080Y019670D02*
X010749Y019670D01*
X010853Y019512D02*
X012204Y019512D01*
X013343Y020621D02*
X013574Y020621D01*
X013473Y020463D02*
X013732Y020463D01*
X014485Y020304D02*
X016121Y020304D01*
X016034Y020355D02*
X016287Y020209D01*
X016569Y020133D01*
X016862Y020133D01*
X017144Y020209D01*
X017397Y020355D01*
X017604Y020561D01*
X017750Y020815D01*
X017825Y021097D01*
X020184Y021097D01*
X020162Y021045D02*
X020162Y020850D01*
X020209Y020739D01*
X020202Y020736D01*
X019979Y020512D01*
X019857Y020220D01*
X019857Y019904D01*
X019979Y019612D01*
X020202Y019388D01*
X020494Y019267D01*
X020811Y019267D01*
X021103Y019388D01*
X021326Y019612D01*
X021447Y019904D01*
X021447Y020128D01*
X022458Y019117D01*
X022545Y019117D01*
X022617Y018943D01*
X022782Y018779D01*
X022997Y018689D01*
X023229Y018689D01*
X023444Y018779D01*
X023605Y018939D01*
X023766Y018779D01*
X023981Y018689D01*
X024214Y018689D01*
X024429Y018779D01*
X024593Y018943D01*
X024682Y019158D01*
X024682Y019391D01*
X024593Y019606D01*
X024429Y019770D01*
X024214Y019859D01*
X023981Y019859D01*
X023766Y019770D01*
X023605Y019610D01*
X023444Y019770D01*
X023229Y019859D01*
X022997Y019859D01*
X022782Y019770D01*
X022617Y019606D01*
X022601Y019568D01*
X021672Y020497D01*
X023854Y022679D01*
X023981Y022626D01*
X024214Y022626D01*
X024429Y022716D01*
X024593Y022880D01*
X024606Y022910D01*
X026025Y021490D01*
X026068Y021447D01*
X026068Y021441D01*
X026143Y021261D01*
X026160Y021243D01*
X026143Y021225D01*
X026068Y021045D01*
X026068Y020850D01*
X026114Y020739D01*
X026108Y020736D01*
X025884Y020512D01*
X025763Y020220D01*
X025763Y019904D01*
X025884Y019612D01*
X026108Y019388D01*
X026400Y019267D01*
X026716Y019267D01*
X027008Y019388D01*
X027232Y019612D01*
X027353Y019904D01*
X027353Y020220D01*
X027232Y020512D01*
X027008Y020736D01*
X027004Y020737D01*
X027228Y020737D01*
X028475Y019490D01*
X028434Y019391D01*
X028434Y019158D01*
X028523Y018943D01*
X028687Y018779D01*
X028902Y018689D01*
X029135Y018689D01*
X029350Y018779D01*
X029515Y018943D01*
X029604Y019158D01*
X029604Y019391D01*
X029515Y019606D01*
X029350Y019770D01*
X029135Y019859D01*
X028902Y019859D01*
X028759Y019800D01*
X027402Y021157D01*
X027001Y021157D01*
X026973Y021225D01*
X026956Y021243D01*
X026973Y021261D01*
X027048Y021441D01*
X027048Y021636D01*
X027002Y021747D01*
X027008Y021750D01*
X027232Y021974D01*
X027353Y022266D01*
X027353Y022582D01*
X027232Y022874D01*
X027107Y022999D02*
X027846Y022999D01*
X027688Y023157D02*
X026865Y023157D01*
X026251Y023157D02*
X024952Y023157D01*
X025110Y022999D02*
X026009Y022999D01*
X025870Y022840D02*
X025269Y022840D01*
X025427Y022682D02*
X025804Y022682D01*
X025763Y022523D02*
X025586Y022523D01*
X025744Y022365D02*
X025763Y022365D01*
X025467Y022048D02*
X023222Y022048D01*
X023064Y021889D02*
X025626Y021889D01*
X025784Y021731D02*
X022905Y021731D01*
X022747Y021572D02*
X025943Y021572D01*
X026079Y021414D02*
X022588Y021414D01*
X022430Y021255D02*
X026148Y021255D01*
X026089Y021097D02*
X022271Y021097D01*
X022113Y020938D02*
X026068Y020938D01*
X026097Y020780D02*
X021954Y020780D01*
X021796Y020621D02*
X025993Y020621D01*
X025864Y020463D02*
X021706Y020463D01*
X021865Y020304D02*
X025798Y020304D01*
X025763Y020146D02*
X022023Y020146D01*
X022182Y019987D02*
X025763Y019987D01*
X025794Y019829D02*
X024287Y019829D01*
X024529Y019670D02*
X025860Y019670D01*
X025984Y019512D02*
X024632Y019512D01*
X024682Y019353D02*
X026191Y019353D01*
X026925Y019353D02*
X028434Y019353D01*
X028434Y019195D02*
X024682Y019195D01*
X024632Y019036D02*
X028484Y019036D01*
X028588Y018878D02*
X024528Y018878D01*
X024286Y018719D02*
X028830Y018719D01*
X029207Y018719D02*
X031590Y018719D01*
X031590Y018561D02*
X031525Y018561D01*
X031470Y018878D02*
X031590Y018878D01*
X030307Y018878D02*
X029449Y018878D01*
X029553Y019036D02*
X030178Y019036D01*
X030129Y019195D02*
X029604Y019195D01*
X029604Y019353D02*
X030135Y019353D01*
X030203Y019512D02*
X029553Y019512D01*
X029450Y019670D02*
X030185Y019670D01*
X030026Y019829D02*
X029209Y019829D01*
X028828Y019829D02*
X028730Y019829D01*
X028572Y019987D02*
X029868Y019987D01*
X029709Y020146D02*
X028413Y020146D01*
X028255Y020304D02*
X029625Y020304D01*
X029625Y020463D02*
X028096Y020463D01*
X027938Y020621D02*
X029625Y020621D01*
X029625Y020780D02*
X027779Y020780D01*
X027621Y020938D02*
X029625Y020938D01*
X029625Y021097D02*
X027462Y021097D01*
X027037Y021414D02*
X029431Y021414D01*
X029273Y021572D02*
X027048Y021572D01*
X027009Y021731D02*
X029114Y021731D01*
X028956Y021889D02*
X027148Y021889D01*
X027263Y022048D02*
X028797Y022048D01*
X028639Y022206D02*
X027328Y022206D01*
X027353Y022365D02*
X028480Y022365D01*
X028322Y022523D02*
X027353Y022523D01*
X027312Y022682D02*
X028163Y022682D01*
X027555Y023316D02*
X024793Y023316D01*
X024622Y023474D02*
X027555Y023474D01*
X027555Y023633D02*
X024503Y023633D01*
X023691Y023633D02*
X023519Y023633D01*
X022707Y023633D02*
X018598Y023633D01*
X018716Y023474D02*
X022589Y023474D01*
X022528Y023316D02*
X018777Y023316D01*
X018777Y023157D02*
X020346Y023157D01*
X020103Y022999D02*
X018737Y022999D01*
X018879Y022840D02*
X019964Y022840D01*
X019899Y022682D02*
X019037Y022682D01*
X019196Y022523D02*
X019857Y022523D01*
X019857Y022365D02*
X019354Y022365D01*
X019513Y022206D02*
X019882Y022206D01*
X019948Y022048D02*
X019671Y022048D01*
X019830Y021889D02*
X020063Y021889D01*
X019553Y021572D02*
X017776Y021572D01*
X017750Y021671D02*
X017604Y021924D01*
X017397Y022131D01*
X017144Y022277D01*
X016862Y022353D01*
X016569Y022353D01*
X016485Y022330D01*
X017142Y022987D01*
X017651Y022987D01*
X017696Y022880D01*
X017860Y022716D01*
X018075Y022626D01*
X018308Y022626D01*
X018443Y022682D01*
X018442Y022682D01*
X018443Y022682D02*
X019758Y021367D01*
X020193Y021367D01*
X020237Y021261D01*
X020255Y021243D01*
X020237Y021225D01*
X020162Y021045D01*
X020162Y020938D02*
X017783Y020938D01*
X017825Y021097D02*
X017825Y021389D01*
X017750Y021671D01*
X017715Y021731D02*
X019394Y021731D01*
X019236Y021889D02*
X017624Y021889D01*
X017480Y022048D02*
X019077Y022048D01*
X018919Y022206D02*
X017267Y022206D01*
X016836Y022682D02*
X017942Y022682D01*
X017736Y022840D02*
X016995Y022840D01*
X016718Y023157D02*
X015824Y023157D01*
X015824Y023316D02*
X016876Y023316D01*
X016559Y022999D02*
X015784Y022999D01*
X015695Y022840D02*
X016401Y022840D01*
X016678Y022523D02*
X018602Y022523D01*
X018760Y022365D02*
X016519Y022365D01*
X015763Y023474D02*
X017668Y023474D01*
X017786Y023633D02*
X015645Y023633D01*
X017521Y024267D02*
X019648Y024267D01*
X019490Y024425D02*
X017680Y024425D01*
X017838Y024584D02*
X019331Y024584D01*
X019173Y024742D02*
X018582Y024742D01*
X018709Y024901D02*
X019014Y024901D01*
X018856Y025059D02*
X018775Y025059D01*
X019807Y024108D02*
X007733Y024108D01*
X009611Y022206D02*
X011539Y022206D01*
X011697Y022048D02*
X009452Y022048D01*
X009294Y021889D02*
X011856Y021889D01*
X012014Y021731D02*
X009135Y021731D01*
X008977Y021572D02*
X012173Y021572D01*
X012255Y021490D02*
X012255Y021490D01*
X012300Y021414D02*
X008818Y021414D01*
X009769Y022365D02*
X011380Y022365D01*
X011222Y022523D02*
X009928Y022523D01*
X010568Y022682D02*
X011063Y022682D01*
X010905Y022840D02*
X010774Y022840D01*
X011182Y023157D02*
X012472Y023157D01*
X012229Y022999D02*
X011340Y022999D01*
X011499Y022840D02*
X012090Y022840D01*
X012025Y022682D02*
X011657Y022682D01*
X011816Y022523D02*
X011983Y022523D01*
X011974Y022365D02*
X011983Y022365D01*
X014617Y020463D02*
X015926Y020463D01*
X015827Y020561D02*
X016034Y020355D01*
X015827Y020561D02*
X015681Y020815D01*
X015701Y020780D02*
X014934Y020780D01*
X014776Y020621D02*
X015793Y020621D01*
X016521Y020146D02*
X014643Y020146D01*
X014802Y019987D02*
X019857Y019987D01*
X019857Y020146D02*
X016910Y020146D01*
X017310Y020304D02*
X019892Y020304D01*
X019958Y020463D02*
X017505Y020463D01*
X017638Y020621D02*
X020088Y020621D01*
X020192Y020780D02*
X017730Y020780D01*
X017825Y021255D02*
X020242Y021255D01*
X019711Y021414D02*
X017819Y021414D01*
X018075Y019859D02*
X017860Y019770D01*
X017696Y019606D01*
X017607Y019391D01*
X017607Y019158D01*
X017696Y018943D01*
X017860Y018779D01*
X018075Y018689D01*
X018308Y018689D01*
X018523Y018779D01*
X018688Y018943D01*
X018777Y019158D01*
X018777Y019391D01*
X018688Y019606D01*
X018523Y019770D01*
X018308Y019859D01*
X018075Y019859D01*
X018002Y019829D02*
X015429Y019829D01*
X015670Y019670D02*
X017760Y019670D01*
X017657Y019512D02*
X015774Y019512D01*
X015824Y019353D02*
X017607Y019353D01*
X017607Y019195D02*
X015824Y019195D01*
X015774Y019036D02*
X017657Y019036D01*
X017761Y018878D02*
X015670Y018878D01*
X015428Y018719D02*
X018003Y018719D01*
X018380Y018719D02*
X022924Y018719D01*
X022682Y018878D02*
X018623Y018878D01*
X018726Y019036D02*
X022578Y019036D01*
X022380Y019195D02*
X018777Y019195D01*
X018777Y019353D02*
X020285Y019353D01*
X020078Y019512D02*
X018727Y019512D01*
X018623Y019670D02*
X019954Y019670D01*
X019888Y019829D02*
X018382Y019829D01*
X021019Y019353D02*
X022222Y019353D01*
X022063Y019512D02*
X021227Y019512D01*
X021351Y019670D02*
X021905Y019670D01*
X021746Y019829D02*
X021416Y019829D01*
X021447Y019987D02*
X021588Y019987D01*
X022340Y019829D02*
X022923Y019829D01*
X022682Y019670D02*
X022499Y019670D01*
X023303Y019829D02*
X023907Y019829D01*
X023666Y019670D02*
X023544Y019670D01*
X023544Y018878D02*
X023667Y018878D01*
X023909Y018719D02*
X023302Y018719D01*
X021519Y020938D02*
X021231Y020938D01*
X021121Y021097D02*
X021677Y021097D01*
X021836Y021255D02*
X021063Y021255D01*
X021131Y021414D02*
X021994Y021414D01*
X022153Y021572D02*
X021142Y021572D01*
X021103Y021731D02*
X022311Y021731D01*
X022470Y021889D02*
X021242Y021889D01*
X021357Y022048D02*
X022628Y022048D01*
X022787Y022206D02*
X021423Y022206D01*
X021447Y022365D02*
X022945Y022365D01*
X023104Y022523D02*
X021447Y022523D01*
X021406Y022682D02*
X022863Y022682D01*
X022657Y022840D02*
X021340Y022840D01*
X021202Y022999D02*
X022568Y022999D01*
X022528Y023157D02*
X020959Y023157D01*
X023381Y022206D02*
X025309Y022206D01*
X025150Y022365D02*
X023539Y022365D01*
X023698Y022523D02*
X024992Y022523D01*
X024833Y022682D02*
X024348Y022682D01*
X024554Y022840D02*
X024675Y022840D01*
X026968Y021255D02*
X029590Y021255D01*
X030137Y021572D02*
X030264Y021572D01*
X031514Y021572D02*
X031590Y021572D01*
X028453Y019512D02*
X027132Y019512D01*
X027256Y019670D02*
X028295Y019670D01*
X028136Y019829D02*
X027322Y019829D01*
X027353Y019987D02*
X027978Y019987D01*
X027819Y020146D02*
X027353Y020146D01*
X027318Y020304D02*
X027661Y020304D01*
X027502Y020463D02*
X027252Y020463D01*
X027344Y020621D02*
X027123Y020621D01*
X030252Y018561D02*
X003572Y018561D01*
X003669Y018402D02*
X030155Y018402D01*
X029135Y024595D02*
X028902Y024595D01*
X028687Y024684D01*
X028523Y024849D01*
X028434Y025064D01*
X028434Y025296D01*
X028523Y025511D01*
X028687Y025676D01*
X028902Y025765D01*
X029135Y025765D01*
X029350Y025676D01*
X029515Y025511D01*
X029604Y025296D01*
X029604Y025064D01*
X029515Y024849D01*
X029350Y024684D01*
X029135Y024595D01*
X029408Y024742D02*
X031590Y024742D01*
X031590Y024584D02*
X027975Y024584D01*
X027975Y024742D02*
X028629Y024742D01*
X028501Y024901D02*
X027975Y024901D01*
X027975Y025059D02*
X028435Y025059D01*
X028434Y025218D02*
X027975Y025218D01*
X027975Y025376D02*
X028467Y025376D01*
X028546Y025535D02*
X027975Y025535D01*
X027975Y025693D02*
X028729Y025693D01*
X029308Y025693D02*
X031590Y025693D01*
X031590Y025535D02*
X029491Y025535D01*
X029570Y025376D02*
X031590Y025376D01*
X031590Y025218D02*
X029604Y025218D01*
X029602Y025059D02*
X031590Y025059D01*
X031590Y024901D02*
X029536Y024901D01*
X027975Y025852D02*
X031590Y025852D01*
X031590Y026010D02*
X027949Y026010D01*
X027790Y026169D02*
X031590Y026169D01*
X031590Y026327D02*
X027632Y026327D01*
X027473Y026486D02*
X031590Y026486D01*
X031590Y026644D02*
X027315Y026644D01*
X027156Y026803D02*
X031590Y026803D01*
X031590Y026961D02*
X027044Y026961D01*
X026978Y027120D02*
X031590Y027120D01*
X015049Y019829D02*
X014960Y019829D01*
X012434Y018244D02*
X008715Y018244D01*
X008874Y018085D02*
X012276Y018085D01*
X012117Y017927D02*
X009032Y017927D01*
X008755Y017610D02*
X004920Y017610D01*
X004908Y017637D02*
X004997Y017422D01*
X004997Y017190D01*
X004908Y016975D01*
X004744Y016810D01*
X004529Y016721D01*
X004296Y016721D01*
X004081Y016810D01*
X003916Y016975D01*
X003827Y017190D01*
X003827Y017422D01*
X003916Y017637D01*
X004081Y017802D01*
X004296Y017891D01*
X004529Y017891D01*
X004744Y017802D01*
X004908Y017637D01*
X004777Y017768D02*
X008597Y017768D01*
X008438Y017927D02*
X003566Y017927D01*
X003523Y017610D02*
X003905Y017610D01*
X003839Y017451D02*
X003649Y017451D01*
X003696Y017293D02*
X003827Y017293D01*
X003850Y017134D02*
X003687Y017134D01*
X003615Y016976D02*
X003916Y016976D01*
X004074Y016817D02*
X003401Y016817D01*
X003443Y016659D02*
X006078Y016659D01*
X006078Y016500D02*
X003629Y016500D01*
X003694Y016342D02*
X006086Y016342D01*
X006151Y016183D02*
X003696Y016183D01*
X003642Y016025D02*
X006242Y016025D01*
X006401Y015866D02*
X003506Y015866D01*
X003584Y015549D02*
X006383Y015549D01*
X006383Y015708D02*
X002235Y015708D01*
X002235Y015866D02*
X002366Y015866D01*
X002288Y015549D02*
X002235Y015549D01*
X002235Y016500D02*
X002243Y016500D01*
X002235Y016659D02*
X002429Y016659D01*
X002471Y016817D02*
X002235Y016817D01*
X002235Y016976D02*
X002256Y016976D01*
X002235Y017610D02*
X002348Y017610D01*
X002235Y017768D02*
X004047Y017768D01*
X004224Y018719D02*
X002235Y018719D01*
X002235Y018561D02*
X002299Y018561D01*
X002354Y018878D02*
X002235Y018878D01*
X002235Y017927D02*
X002305Y017927D01*
X003517Y018878D02*
X003982Y018878D01*
X003878Y019036D02*
X003647Y019036D01*
X003696Y019195D02*
X003827Y019195D01*
X003827Y019353D02*
X003690Y019353D01*
X003621Y019512D02*
X003877Y019512D01*
X004602Y019829D02*
X006109Y019829D01*
X006078Y019987D02*
X004602Y019987D01*
X004760Y020146D02*
X006078Y020146D01*
X006113Y020304D02*
X004919Y020304D01*
X005077Y020463D02*
X006179Y020463D01*
X006308Y020621D02*
X005236Y020621D01*
X004844Y019670D02*
X006175Y019670D01*
X006299Y019512D02*
X004947Y019512D01*
X004997Y019353D02*
X006506Y019353D01*
X004985Y017451D02*
X008761Y017451D01*
X008749Y017293D02*
X007081Y017293D01*
X007381Y017134D02*
X008771Y017134D01*
X008837Y016976D02*
X007540Y016976D01*
X007610Y016817D02*
X008995Y016817D01*
X009672Y016817D02*
X009979Y016817D01*
X010657Y016817D02*
X011008Y016817D01*
X010849Y016659D02*
X007668Y016659D01*
X007668Y016500D02*
X010691Y016500D01*
X010532Y016342D02*
X007660Y016342D01*
X007595Y016183D02*
X010374Y016183D01*
X010215Y016025D02*
X007503Y016025D01*
X007345Y015866D02*
X010057Y015866D01*
X010814Y016976D02*
X011166Y016976D01*
X011325Y017134D02*
X010880Y017134D01*
X010903Y017293D02*
X011483Y017293D01*
X011642Y017451D02*
X010891Y017451D01*
X010825Y017610D02*
X011800Y017610D01*
X011959Y017768D02*
X010683Y017768D01*
X009953Y017768D02*
X009698Y017768D01*
X006665Y017293D02*
X004997Y017293D01*
X004974Y017134D02*
X006365Y017134D01*
X006206Y016976D02*
X004909Y016976D01*
X004751Y016817D02*
X006136Y016817D01*
X004728Y006967D02*
X003607Y006967D01*
X003496Y006857D01*
X003327Y006787D01*
X002544Y006787D01*
X002375Y006857D01*
X002246Y006986D01*
X002235Y007013D01*
X002235Y006511D01*
X002270Y006560D01*
X002323Y006613D01*
X002384Y006657D01*
X002452Y006692D01*
X002524Y006715D01*
X002598Y006727D01*
X002916Y006727D01*
X002916Y006267D01*
X002956Y006267D01*
X003716Y006267D01*
X003716Y006285D01*
X003704Y006359D01*
X003681Y006431D01*
X003646Y006499D01*
X003602Y006560D01*
X003549Y006613D01*
X003487Y006657D01*
X003420Y006692D01*
X003348Y006715D01*
X003274Y006727D01*
X002956Y006727D01*
X002956Y006267D01*
X002956Y006227D01*
X003716Y006227D01*
X003716Y006209D01*
X003704Y006135D01*
X003681Y006063D01*
X003646Y005995D01*
X003602Y005934D01*
X003549Y005881D01*
X003971Y005881D01*
X003916Y005826D02*
X003827Y005611D01*
X003827Y005379D01*
X003916Y005164D01*
X004081Y004999D01*
X004296Y004910D01*
X004529Y004910D01*
X004744Y004999D01*
X004908Y005164D01*
X004997Y005379D01*
X004997Y005611D01*
X004908Y005826D01*
X004744Y005991D01*
X004529Y006080D01*
X004296Y006080D01*
X004081Y005991D01*
X003916Y005826D01*
X003873Y005722D02*
X002235Y005722D01*
X002235Y005564D02*
X003827Y005564D01*
X003827Y005405D02*
X002235Y005405D01*
X002235Y005247D02*
X003882Y005247D01*
X003992Y005088D02*
X002235Y005088D01*
X002235Y004930D02*
X004248Y004930D01*
X004577Y004930D02*
X006765Y004930D01*
X006855Y004840D02*
X006978Y004717D01*
X025486Y004717D01*
X025581Y004622D01*
X025681Y004581D01*
X025428Y004327D01*
X011658Y004327D01*
X010903Y003572D01*
X010903Y003643D01*
X010814Y003858D01*
X010649Y004022D01*
X010434Y004111D01*
X010201Y004111D01*
X009986Y004022D01*
X009826Y003862D01*
X009665Y004022D01*
X009450Y004111D01*
X009217Y004111D01*
X009002Y004022D01*
X008838Y003858D01*
X008749Y003643D01*
X008749Y003410D01*
X008838Y003195D01*
X009002Y003031D01*
X009217Y002941D01*
X009450Y002941D01*
X009665Y003031D01*
X009826Y003191D01*
X009986Y003031D01*
X010201Y002941D01*
X010272Y002941D01*
X009408Y002077D01*
X007336Y002077D01*
X007547Y002289D01*
X007668Y002581D01*
X007668Y002897D01*
X007547Y003189D01*
X007323Y003413D01*
X007031Y003534D01*
X006715Y003534D01*
X006423Y003413D01*
X006199Y003189D01*
X006078Y002897D01*
X006078Y002581D01*
X006199Y002289D01*
X006423Y002065D01*
X006429Y002062D01*
X006383Y001951D01*
X006383Y001756D01*
X006458Y001576D01*
X006586Y001447D01*
X002235Y001447D01*
X002235Y005982D01*
X002270Y005934D01*
X002323Y005881D01*
X002235Y005881D01*
X002323Y005881D02*
X002384Y005836D01*
X002452Y005802D01*
X002524Y005779D01*
X002598Y005767D01*
X002916Y005767D01*
X002916Y006227D01*
X002956Y006227D01*
X002956Y005767D01*
X003274Y005767D01*
X003348Y005779D01*
X003420Y005802D01*
X003487Y005836D01*
X003549Y005881D01*
X003669Y006039D02*
X004198Y006039D01*
X004627Y006039D02*
X005656Y006039D01*
X005814Y005881D02*
X004854Y005881D01*
X004951Y005722D02*
X005973Y005722D01*
X006131Y005564D02*
X004997Y005564D01*
X004997Y005405D02*
X006290Y005405D01*
X006448Y005247D02*
X004943Y005247D01*
X004833Y005088D02*
X006607Y005088D01*
X006855Y004840D02*
X004728Y006967D01*
X004863Y006832D02*
X003436Y006832D01*
X003456Y006673D02*
X005022Y006673D01*
X005180Y006515D02*
X003635Y006515D01*
X003705Y006356D02*
X005339Y006356D01*
X005497Y006198D02*
X003714Y006198D01*
X002956Y006198D02*
X002916Y006198D01*
X002916Y006356D02*
X002956Y006356D01*
X002956Y006515D02*
X002916Y006515D01*
X002916Y006673D02*
X002956Y006673D01*
X002416Y006673D02*
X002235Y006673D01*
X002235Y006515D02*
X002237Y006515D01*
X002235Y006832D02*
X002436Y006832D01*
X002244Y006990D02*
X002235Y006990D01*
X002916Y006039D02*
X002956Y006039D01*
X002956Y005881D02*
X002916Y005881D01*
X002235Y004771D02*
X006924Y004771D01*
X007105Y003503D02*
X008749Y003503D01*
X008756Y003662D02*
X004989Y003662D01*
X004997Y003643D02*
X004908Y003858D01*
X004744Y004022D01*
X004529Y004111D01*
X004296Y004111D01*
X004081Y004022D01*
X003916Y003858D01*
X003827Y003643D01*
X003827Y003410D01*
X003916Y003195D01*
X004081Y003031D01*
X004296Y002941D01*
X004529Y002941D01*
X004744Y003031D01*
X004908Y003195D01*
X004997Y003410D01*
X004997Y003643D01*
X004997Y003503D02*
X006641Y003503D01*
X006355Y003345D02*
X004970Y003345D01*
X004900Y003186D02*
X006198Y003186D01*
X006132Y003028D02*
X004737Y003028D01*
X004087Y003028D02*
X002235Y003028D01*
X002235Y003186D02*
X003925Y003186D01*
X003854Y003345D02*
X002235Y003345D01*
X002235Y003503D02*
X003827Y003503D01*
X003835Y003662D02*
X002235Y003662D01*
X002235Y003820D02*
X003901Y003820D01*
X004037Y003979D02*
X002235Y003979D01*
X002235Y004137D02*
X011468Y004137D01*
X011309Y003979D02*
X010693Y003979D01*
X010829Y003820D02*
X011151Y003820D01*
X010992Y003662D02*
X010895Y003662D01*
X011626Y004296D02*
X002235Y004296D01*
X002235Y004454D02*
X025555Y004454D01*
X025603Y004613D02*
X002235Y004613D01*
X002235Y002869D02*
X006078Y002869D01*
X006078Y002711D02*
X002235Y002711D01*
X002235Y002552D02*
X006090Y002552D01*
X006155Y002394D02*
X002235Y002394D01*
X002235Y002235D02*
X006252Y002235D01*
X006411Y002077D02*
X002235Y002077D01*
X002235Y001918D02*
X006383Y001918D01*
X006383Y001760D02*
X002235Y001760D01*
X002235Y001601D02*
X006447Y001601D01*
X007494Y002235D02*
X009566Y002235D01*
X009724Y002394D02*
X007590Y002394D01*
X007656Y002552D02*
X009883Y002552D01*
X010041Y002711D02*
X007668Y002711D01*
X007668Y002869D02*
X010200Y002869D01*
X009993Y003028D02*
X009659Y003028D01*
X009821Y003186D02*
X009831Y003186D01*
X009008Y003028D02*
X007614Y003028D01*
X007548Y003186D02*
X008846Y003186D01*
X008776Y003345D02*
X007391Y003345D01*
X008822Y003820D02*
X004924Y003820D01*
X004787Y003979D02*
X008959Y003979D01*
X009708Y003979D02*
X009943Y003979D01*
M02*
