G75*
%MOIN*%
%OFA0B0*%
%FSLAX24Y24*%
%IPPOS*%
%LPD*%
%AMOC8*
5,1,8,0,0,1.08239X$1,22.5*
%
%ADD10C,0.0000*%
%ADD11C,0.0060*%
%ADD12C,0.0030*%
%ADD13C,0.0080*%
%ADD14C,0.0120*%
%ADD15C,0.0354*%
%ADD16C,0.0130*%
%ADD17C,0.0050*%
D10*
X001755Y000967D02*
X001755Y027739D01*
X032070Y027739D01*
X032070Y000967D01*
X001755Y000967D01*
X006558Y002739D02*
X006560Y002774D01*
X006566Y002809D01*
X006576Y002843D01*
X006589Y002876D01*
X006606Y002907D01*
X006627Y002935D01*
X006650Y002962D01*
X006677Y002985D01*
X006705Y003006D01*
X006736Y003023D01*
X006769Y003036D01*
X006803Y003046D01*
X006838Y003052D01*
X006873Y003054D01*
X006908Y003052D01*
X006943Y003046D01*
X006977Y003036D01*
X007010Y003023D01*
X007041Y003006D01*
X007069Y002985D01*
X007096Y002962D01*
X007119Y002935D01*
X007140Y002907D01*
X007157Y002876D01*
X007170Y002843D01*
X007180Y002809D01*
X007186Y002774D01*
X007188Y002739D01*
X007186Y002704D01*
X007180Y002669D01*
X007170Y002635D01*
X007157Y002602D01*
X007140Y002571D01*
X007119Y002543D01*
X007096Y002516D01*
X007069Y002493D01*
X007041Y002472D01*
X007010Y002455D01*
X006977Y002442D01*
X006943Y002432D01*
X006908Y002426D01*
X006873Y002424D01*
X006838Y002426D01*
X006803Y002432D01*
X006769Y002442D01*
X006736Y002455D01*
X006705Y002472D01*
X006677Y002493D01*
X006650Y002516D01*
X006627Y002543D01*
X006606Y002571D01*
X006589Y002602D01*
X006576Y002635D01*
X006566Y002669D01*
X006560Y002704D01*
X006558Y002739D01*
X006558Y006282D02*
X006560Y006317D01*
X006566Y006352D01*
X006576Y006386D01*
X006589Y006419D01*
X006606Y006450D01*
X006627Y006478D01*
X006650Y006505D01*
X006677Y006528D01*
X006705Y006549D01*
X006736Y006566D01*
X006769Y006579D01*
X006803Y006589D01*
X006838Y006595D01*
X006873Y006597D01*
X006908Y006595D01*
X006943Y006589D01*
X006977Y006579D01*
X007010Y006566D01*
X007041Y006549D01*
X007069Y006528D01*
X007096Y006505D01*
X007119Y006478D01*
X007140Y006450D01*
X007157Y006419D01*
X007170Y006386D01*
X007180Y006352D01*
X007186Y006317D01*
X007188Y006282D01*
X007186Y006247D01*
X007180Y006212D01*
X007170Y006178D01*
X007157Y006145D01*
X007140Y006114D01*
X007119Y006086D01*
X007096Y006059D01*
X007069Y006036D01*
X007041Y006015D01*
X007010Y005998D01*
X006977Y005985D01*
X006943Y005975D01*
X006908Y005969D01*
X006873Y005967D01*
X006838Y005969D01*
X006803Y005975D01*
X006769Y005985D01*
X006736Y005998D01*
X006705Y006015D01*
X006677Y006036D01*
X006650Y006059D01*
X006627Y006086D01*
X006606Y006114D01*
X006589Y006145D01*
X006576Y006178D01*
X006566Y006212D01*
X006560Y006247D01*
X006558Y006282D01*
X006558Y008645D02*
X006560Y008680D01*
X006566Y008715D01*
X006576Y008749D01*
X006589Y008782D01*
X006606Y008813D01*
X006627Y008841D01*
X006650Y008868D01*
X006677Y008891D01*
X006705Y008912D01*
X006736Y008929D01*
X006769Y008942D01*
X006803Y008952D01*
X006838Y008958D01*
X006873Y008960D01*
X006908Y008958D01*
X006943Y008952D01*
X006977Y008942D01*
X007010Y008929D01*
X007041Y008912D01*
X007069Y008891D01*
X007096Y008868D01*
X007119Y008841D01*
X007140Y008813D01*
X007157Y008782D01*
X007170Y008749D01*
X007180Y008715D01*
X007186Y008680D01*
X007188Y008645D01*
X007186Y008610D01*
X007180Y008575D01*
X007170Y008541D01*
X007157Y008508D01*
X007140Y008477D01*
X007119Y008449D01*
X007096Y008422D01*
X007069Y008399D01*
X007041Y008378D01*
X007010Y008361D01*
X006977Y008348D01*
X006943Y008338D01*
X006908Y008332D01*
X006873Y008330D01*
X006838Y008332D01*
X006803Y008338D01*
X006769Y008348D01*
X006736Y008361D01*
X006705Y008378D01*
X006677Y008399D01*
X006650Y008422D01*
X006627Y008449D01*
X006606Y008477D01*
X006589Y008508D01*
X006576Y008541D01*
X006566Y008575D01*
X006560Y008610D01*
X006558Y008645D01*
X006558Y012188D02*
X006560Y012223D01*
X006566Y012258D01*
X006576Y012292D01*
X006589Y012325D01*
X006606Y012356D01*
X006627Y012384D01*
X006650Y012411D01*
X006677Y012434D01*
X006705Y012455D01*
X006736Y012472D01*
X006769Y012485D01*
X006803Y012495D01*
X006838Y012501D01*
X006873Y012503D01*
X006908Y012501D01*
X006943Y012495D01*
X006977Y012485D01*
X007010Y012472D01*
X007041Y012455D01*
X007069Y012434D01*
X007096Y012411D01*
X007119Y012384D01*
X007140Y012356D01*
X007157Y012325D01*
X007170Y012292D01*
X007180Y012258D01*
X007186Y012223D01*
X007188Y012188D01*
X007186Y012153D01*
X007180Y012118D01*
X007170Y012084D01*
X007157Y012051D01*
X007140Y012020D01*
X007119Y011992D01*
X007096Y011965D01*
X007069Y011942D01*
X007041Y011921D01*
X007010Y011904D01*
X006977Y011891D01*
X006943Y011881D01*
X006908Y011875D01*
X006873Y011873D01*
X006838Y011875D01*
X006803Y011881D01*
X006769Y011891D01*
X006736Y011904D01*
X006705Y011921D01*
X006677Y011942D01*
X006650Y011965D01*
X006627Y011992D01*
X006606Y012020D01*
X006589Y012051D01*
X006576Y012084D01*
X006566Y012118D01*
X006560Y012153D01*
X006558Y012188D01*
X009196Y014353D02*
X009198Y014403D01*
X009204Y014453D01*
X009214Y014502D01*
X009228Y014550D01*
X009245Y014597D01*
X009266Y014642D01*
X009291Y014686D01*
X009319Y014727D01*
X009351Y014766D01*
X009385Y014803D01*
X009422Y014837D01*
X009462Y014867D01*
X009504Y014894D01*
X009548Y014918D01*
X009594Y014939D01*
X009641Y014955D01*
X009689Y014968D01*
X009739Y014977D01*
X009788Y014982D01*
X009839Y014983D01*
X009889Y014980D01*
X009938Y014973D01*
X009987Y014962D01*
X010035Y014947D01*
X010081Y014929D01*
X010126Y014907D01*
X010169Y014881D01*
X010210Y014852D01*
X010249Y014820D01*
X010285Y014785D01*
X010317Y014747D01*
X010347Y014707D01*
X010374Y014664D01*
X010397Y014620D01*
X010416Y014574D01*
X010432Y014526D01*
X010444Y014477D01*
X010452Y014428D01*
X010456Y014378D01*
X010456Y014328D01*
X010452Y014278D01*
X010444Y014229D01*
X010432Y014180D01*
X010416Y014132D01*
X010397Y014086D01*
X010374Y014042D01*
X010347Y013999D01*
X010317Y013959D01*
X010285Y013921D01*
X010249Y013886D01*
X010210Y013854D01*
X010169Y013825D01*
X010126Y013799D01*
X010081Y013777D01*
X010035Y013759D01*
X009987Y013744D01*
X009938Y013733D01*
X009889Y013726D01*
X009839Y013723D01*
X009788Y013724D01*
X009739Y013729D01*
X009689Y013738D01*
X009641Y013751D01*
X009594Y013767D01*
X009548Y013788D01*
X009504Y013812D01*
X009462Y013839D01*
X009422Y013869D01*
X009385Y013903D01*
X009351Y013940D01*
X009319Y013979D01*
X009291Y014020D01*
X009266Y014064D01*
X009245Y014109D01*
X009228Y014156D01*
X009214Y014204D01*
X009204Y014253D01*
X009198Y014303D01*
X009196Y014353D01*
X006558Y016519D02*
X006560Y016554D01*
X006566Y016589D01*
X006576Y016623D01*
X006589Y016656D01*
X006606Y016687D01*
X006627Y016715D01*
X006650Y016742D01*
X006677Y016765D01*
X006705Y016786D01*
X006736Y016803D01*
X006769Y016816D01*
X006803Y016826D01*
X006838Y016832D01*
X006873Y016834D01*
X006908Y016832D01*
X006943Y016826D01*
X006977Y016816D01*
X007010Y016803D01*
X007041Y016786D01*
X007069Y016765D01*
X007096Y016742D01*
X007119Y016715D01*
X007140Y016687D01*
X007157Y016656D01*
X007170Y016623D01*
X007180Y016589D01*
X007186Y016554D01*
X007188Y016519D01*
X007186Y016484D01*
X007180Y016449D01*
X007170Y016415D01*
X007157Y016382D01*
X007140Y016351D01*
X007119Y016323D01*
X007096Y016296D01*
X007069Y016273D01*
X007041Y016252D01*
X007010Y016235D01*
X006977Y016222D01*
X006943Y016212D01*
X006908Y016206D01*
X006873Y016204D01*
X006838Y016206D01*
X006803Y016212D01*
X006769Y016222D01*
X006736Y016235D01*
X006705Y016252D01*
X006677Y016273D01*
X006650Y016296D01*
X006627Y016323D01*
X006606Y016351D01*
X006589Y016382D01*
X006576Y016415D01*
X006566Y016449D01*
X006560Y016484D01*
X006558Y016519D01*
X006558Y020062D02*
X006560Y020097D01*
X006566Y020132D01*
X006576Y020166D01*
X006589Y020199D01*
X006606Y020230D01*
X006627Y020258D01*
X006650Y020285D01*
X006677Y020308D01*
X006705Y020329D01*
X006736Y020346D01*
X006769Y020359D01*
X006803Y020369D01*
X006838Y020375D01*
X006873Y020377D01*
X006908Y020375D01*
X006943Y020369D01*
X006977Y020359D01*
X007010Y020346D01*
X007041Y020329D01*
X007069Y020308D01*
X007096Y020285D01*
X007119Y020258D01*
X007140Y020230D01*
X007157Y020199D01*
X007170Y020166D01*
X007180Y020132D01*
X007186Y020097D01*
X007188Y020062D01*
X007186Y020027D01*
X007180Y019992D01*
X007170Y019958D01*
X007157Y019925D01*
X007140Y019894D01*
X007119Y019866D01*
X007096Y019839D01*
X007069Y019816D01*
X007041Y019795D01*
X007010Y019778D01*
X006977Y019765D01*
X006943Y019755D01*
X006908Y019749D01*
X006873Y019747D01*
X006838Y019749D01*
X006803Y019755D01*
X006769Y019765D01*
X006736Y019778D01*
X006705Y019795D01*
X006677Y019816D01*
X006650Y019839D01*
X006627Y019866D01*
X006606Y019894D01*
X006589Y019925D01*
X006576Y019958D01*
X006566Y019992D01*
X006560Y020027D01*
X006558Y020062D01*
X006558Y022424D02*
X006560Y022459D01*
X006566Y022494D01*
X006576Y022528D01*
X006589Y022561D01*
X006606Y022592D01*
X006627Y022620D01*
X006650Y022647D01*
X006677Y022670D01*
X006705Y022691D01*
X006736Y022708D01*
X006769Y022721D01*
X006803Y022731D01*
X006838Y022737D01*
X006873Y022739D01*
X006908Y022737D01*
X006943Y022731D01*
X006977Y022721D01*
X007010Y022708D01*
X007041Y022691D01*
X007069Y022670D01*
X007096Y022647D01*
X007119Y022620D01*
X007140Y022592D01*
X007157Y022561D01*
X007170Y022528D01*
X007180Y022494D01*
X007186Y022459D01*
X007188Y022424D01*
X007186Y022389D01*
X007180Y022354D01*
X007170Y022320D01*
X007157Y022287D01*
X007140Y022256D01*
X007119Y022228D01*
X007096Y022201D01*
X007069Y022178D01*
X007041Y022157D01*
X007010Y022140D01*
X006977Y022127D01*
X006943Y022117D01*
X006908Y022111D01*
X006873Y022109D01*
X006838Y022111D01*
X006803Y022117D01*
X006769Y022127D01*
X006736Y022140D01*
X006705Y022157D01*
X006677Y022178D01*
X006650Y022201D01*
X006627Y022228D01*
X006606Y022256D01*
X006589Y022287D01*
X006576Y022320D01*
X006566Y022354D01*
X006560Y022389D01*
X006558Y022424D01*
X006558Y025967D02*
X006560Y026002D01*
X006566Y026037D01*
X006576Y026071D01*
X006589Y026104D01*
X006606Y026135D01*
X006627Y026163D01*
X006650Y026190D01*
X006677Y026213D01*
X006705Y026234D01*
X006736Y026251D01*
X006769Y026264D01*
X006803Y026274D01*
X006838Y026280D01*
X006873Y026282D01*
X006908Y026280D01*
X006943Y026274D01*
X006977Y026264D01*
X007010Y026251D01*
X007041Y026234D01*
X007069Y026213D01*
X007096Y026190D01*
X007119Y026163D01*
X007140Y026135D01*
X007157Y026104D01*
X007170Y026071D01*
X007180Y026037D01*
X007186Y026002D01*
X007188Y025967D01*
X007186Y025932D01*
X007180Y025897D01*
X007170Y025863D01*
X007157Y025830D01*
X007140Y025799D01*
X007119Y025771D01*
X007096Y025744D01*
X007069Y025721D01*
X007041Y025700D01*
X007010Y025683D01*
X006977Y025670D01*
X006943Y025660D01*
X006908Y025654D01*
X006873Y025652D01*
X006838Y025654D01*
X006803Y025660D01*
X006769Y025670D01*
X006736Y025683D01*
X006705Y025700D01*
X006677Y025721D01*
X006650Y025744D01*
X006627Y025771D01*
X006606Y025799D01*
X006589Y025830D01*
X006576Y025863D01*
X006566Y025897D01*
X006560Y025932D01*
X006558Y025967D01*
X012463Y025967D02*
X012465Y026002D01*
X012471Y026037D01*
X012481Y026071D01*
X012494Y026104D01*
X012511Y026135D01*
X012532Y026163D01*
X012555Y026190D01*
X012582Y026213D01*
X012610Y026234D01*
X012641Y026251D01*
X012674Y026264D01*
X012708Y026274D01*
X012743Y026280D01*
X012778Y026282D01*
X012813Y026280D01*
X012848Y026274D01*
X012882Y026264D01*
X012915Y026251D01*
X012946Y026234D01*
X012974Y026213D01*
X013001Y026190D01*
X013024Y026163D01*
X013045Y026135D01*
X013062Y026104D01*
X013075Y026071D01*
X013085Y026037D01*
X013091Y026002D01*
X013093Y025967D01*
X013091Y025932D01*
X013085Y025897D01*
X013075Y025863D01*
X013062Y025830D01*
X013045Y025799D01*
X013024Y025771D01*
X013001Y025744D01*
X012974Y025721D01*
X012946Y025700D01*
X012915Y025683D01*
X012882Y025670D01*
X012848Y025660D01*
X012813Y025654D01*
X012778Y025652D01*
X012743Y025654D01*
X012708Y025660D01*
X012674Y025670D01*
X012641Y025683D01*
X012610Y025700D01*
X012582Y025721D01*
X012555Y025744D01*
X012532Y025771D01*
X012511Y025799D01*
X012494Y025830D01*
X012481Y025863D01*
X012471Y025897D01*
X012465Y025932D01*
X012463Y025967D01*
X012463Y022424D02*
X012465Y022459D01*
X012471Y022494D01*
X012481Y022528D01*
X012494Y022561D01*
X012511Y022592D01*
X012532Y022620D01*
X012555Y022647D01*
X012582Y022670D01*
X012610Y022691D01*
X012641Y022708D01*
X012674Y022721D01*
X012708Y022731D01*
X012743Y022737D01*
X012778Y022739D01*
X012813Y022737D01*
X012848Y022731D01*
X012882Y022721D01*
X012915Y022708D01*
X012946Y022691D01*
X012974Y022670D01*
X013001Y022647D01*
X013024Y022620D01*
X013045Y022592D01*
X013062Y022561D01*
X013075Y022528D01*
X013085Y022494D01*
X013091Y022459D01*
X013093Y022424D01*
X013091Y022389D01*
X013085Y022354D01*
X013075Y022320D01*
X013062Y022287D01*
X013045Y022256D01*
X013024Y022228D01*
X013001Y022201D01*
X012974Y022178D01*
X012946Y022157D01*
X012915Y022140D01*
X012882Y022127D01*
X012848Y022117D01*
X012813Y022111D01*
X012778Y022109D01*
X012743Y022111D01*
X012708Y022117D01*
X012674Y022127D01*
X012641Y022140D01*
X012610Y022157D01*
X012582Y022178D01*
X012555Y022201D01*
X012532Y022228D01*
X012511Y022256D01*
X012494Y022287D01*
X012481Y022320D01*
X012471Y022354D01*
X012465Y022389D01*
X012463Y022424D01*
X012463Y020062D02*
X012465Y020097D01*
X012471Y020132D01*
X012481Y020166D01*
X012494Y020199D01*
X012511Y020230D01*
X012532Y020258D01*
X012555Y020285D01*
X012582Y020308D01*
X012610Y020329D01*
X012641Y020346D01*
X012674Y020359D01*
X012708Y020369D01*
X012743Y020375D01*
X012778Y020377D01*
X012813Y020375D01*
X012848Y020369D01*
X012882Y020359D01*
X012915Y020346D01*
X012946Y020329D01*
X012974Y020308D01*
X013001Y020285D01*
X013024Y020258D01*
X013045Y020230D01*
X013062Y020199D01*
X013075Y020166D01*
X013085Y020132D01*
X013091Y020097D01*
X013093Y020062D01*
X013091Y020027D01*
X013085Y019992D01*
X013075Y019958D01*
X013062Y019925D01*
X013045Y019894D01*
X013024Y019866D01*
X013001Y019839D01*
X012974Y019816D01*
X012946Y019795D01*
X012915Y019778D01*
X012882Y019765D01*
X012848Y019755D01*
X012813Y019749D01*
X012778Y019747D01*
X012743Y019749D01*
X012708Y019755D01*
X012674Y019765D01*
X012641Y019778D01*
X012610Y019795D01*
X012582Y019816D01*
X012555Y019839D01*
X012532Y019866D01*
X012511Y019894D01*
X012494Y019925D01*
X012481Y019958D01*
X012471Y019992D01*
X012465Y020027D01*
X012463Y020062D01*
X012463Y016519D02*
X012465Y016554D01*
X012471Y016589D01*
X012481Y016623D01*
X012494Y016656D01*
X012511Y016687D01*
X012532Y016715D01*
X012555Y016742D01*
X012582Y016765D01*
X012610Y016786D01*
X012641Y016803D01*
X012674Y016816D01*
X012708Y016826D01*
X012743Y016832D01*
X012778Y016834D01*
X012813Y016832D01*
X012848Y016826D01*
X012882Y016816D01*
X012915Y016803D01*
X012946Y016786D01*
X012974Y016765D01*
X013001Y016742D01*
X013024Y016715D01*
X013045Y016687D01*
X013062Y016656D01*
X013075Y016623D01*
X013085Y016589D01*
X013091Y016554D01*
X013093Y016519D01*
X013091Y016484D01*
X013085Y016449D01*
X013075Y016415D01*
X013062Y016382D01*
X013045Y016351D01*
X013024Y016323D01*
X013001Y016296D01*
X012974Y016273D01*
X012946Y016252D01*
X012915Y016235D01*
X012882Y016222D01*
X012848Y016212D01*
X012813Y016206D01*
X012778Y016204D01*
X012743Y016206D01*
X012708Y016212D01*
X012674Y016222D01*
X012641Y016235D01*
X012610Y016252D01*
X012582Y016273D01*
X012555Y016296D01*
X012532Y016323D01*
X012511Y016351D01*
X012494Y016382D01*
X012481Y016415D01*
X012471Y016449D01*
X012465Y016484D01*
X012463Y016519D01*
X016085Y014353D02*
X016087Y014403D01*
X016093Y014453D01*
X016103Y014502D01*
X016117Y014550D01*
X016134Y014597D01*
X016155Y014642D01*
X016180Y014686D01*
X016208Y014727D01*
X016240Y014766D01*
X016274Y014803D01*
X016311Y014837D01*
X016351Y014867D01*
X016393Y014894D01*
X016437Y014918D01*
X016483Y014939D01*
X016530Y014955D01*
X016578Y014968D01*
X016628Y014977D01*
X016677Y014982D01*
X016728Y014983D01*
X016778Y014980D01*
X016827Y014973D01*
X016876Y014962D01*
X016924Y014947D01*
X016970Y014929D01*
X017015Y014907D01*
X017058Y014881D01*
X017099Y014852D01*
X017138Y014820D01*
X017174Y014785D01*
X017206Y014747D01*
X017236Y014707D01*
X017263Y014664D01*
X017286Y014620D01*
X017305Y014574D01*
X017321Y014526D01*
X017333Y014477D01*
X017341Y014428D01*
X017345Y014378D01*
X017345Y014328D01*
X017341Y014278D01*
X017333Y014229D01*
X017321Y014180D01*
X017305Y014132D01*
X017286Y014086D01*
X017263Y014042D01*
X017236Y013999D01*
X017206Y013959D01*
X017174Y013921D01*
X017138Y013886D01*
X017099Y013854D01*
X017058Y013825D01*
X017015Y013799D01*
X016970Y013777D01*
X016924Y013759D01*
X016876Y013744D01*
X016827Y013733D01*
X016778Y013726D01*
X016728Y013723D01*
X016677Y013724D01*
X016628Y013729D01*
X016578Y013738D01*
X016530Y013751D01*
X016483Y013767D01*
X016437Y013788D01*
X016393Y013812D01*
X016351Y013839D01*
X016311Y013869D01*
X016274Y013903D01*
X016240Y013940D01*
X016208Y013979D01*
X016180Y014020D01*
X016155Y014064D01*
X016134Y014109D01*
X016117Y014156D01*
X016103Y014204D01*
X016093Y014253D01*
X016087Y014303D01*
X016085Y014353D01*
X012463Y012188D02*
X012465Y012223D01*
X012471Y012258D01*
X012481Y012292D01*
X012494Y012325D01*
X012511Y012356D01*
X012532Y012384D01*
X012555Y012411D01*
X012582Y012434D01*
X012610Y012455D01*
X012641Y012472D01*
X012674Y012485D01*
X012708Y012495D01*
X012743Y012501D01*
X012778Y012503D01*
X012813Y012501D01*
X012848Y012495D01*
X012882Y012485D01*
X012915Y012472D01*
X012946Y012455D01*
X012974Y012434D01*
X013001Y012411D01*
X013024Y012384D01*
X013045Y012356D01*
X013062Y012325D01*
X013075Y012292D01*
X013085Y012258D01*
X013091Y012223D01*
X013093Y012188D01*
X013091Y012153D01*
X013085Y012118D01*
X013075Y012084D01*
X013062Y012051D01*
X013045Y012020D01*
X013024Y011992D01*
X013001Y011965D01*
X012974Y011942D01*
X012946Y011921D01*
X012915Y011904D01*
X012882Y011891D01*
X012848Y011881D01*
X012813Y011875D01*
X012778Y011873D01*
X012743Y011875D01*
X012708Y011881D01*
X012674Y011891D01*
X012641Y011904D01*
X012610Y011921D01*
X012582Y011942D01*
X012555Y011965D01*
X012532Y011992D01*
X012511Y012020D01*
X012494Y012051D01*
X012481Y012084D01*
X012471Y012118D01*
X012465Y012153D01*
X012463Y012188D01*
X012463Y008645D02*
X012465Y008680D01*
X012471Y008715D01*
X012481Y008749D01*
X012494Y008782D01*
X012511Y008813D01*
X012532Y008841D01*
X012555Y008868D01*
X012582Y008891D01*
X012610Y008912D01*
X012641Y008929D01*
X012674Y008942D01*
X012708Y008952D01*
X012743Y008958D01*
X012778Y008960D01*
X012813Y008958D01*
X012848Y008952D01*
X012882Y008942D01*
X012915Y008929D01*
X012946Y008912D01*
X012974Y008891D01*
X013001Y008868D01*
X013024Y008841D01*
X013045Y008813D01*
X013062Y008782D01*
X013075Y008749D01*
X013085Y008715D01*
X013091Y008680D01*
X013093Y008645D01*
X013091Y008610D01*
X013085Y008575D01*
X013075Y008541D01*
X013062Y008508D01*
X013045Y008477D01*
X013024Y008449D01*
X013001Y008422D01*
X012974Y008399D01*
X012946Y008378D01*
X012915Y008361D01*
X012882Y008348D01*
X012848Y008338D01*
X012813Y008332D01*
X012778Y008330D01*
X012743Y008332D01*
X012708Y008338D01*
X012674Y008348D01*
X012641Y008361D01*
X012610Y008378D01*
X012582Y008399D01*
X012555Y008422D01*
X012532Y008449D01*
X012511Y008477D01*
X012494Y008508D01*
X012481Y008541D01*
X012471Y008575D01*
X012465Y008610D01*
X012463Y008645D01*
X012463Y006282D02*
X012465Y006317D01*
X012471Y006352D01*
X012481Y006386D01*
X012494Y006419D01*
X012511Y006450D01*
X012532Y006478D01*
X012555Y006505D01*
X012582Y006528D01*
X012610Y006549D01*
X012641Y006566D01*
X012674Y006579D01*
X012708Y006589D01*
X012743Y006595D01*
X012778Y006597D01*
X012813Y006595D01*
X012848Y006589D01*
X012882Y006579D01*
X012915Y006566D01*
X012946Y006549D01*
X012974Y006528D01*
X013001Y006505D01*
X013024Y006478D01*
X013045Y006450D01*
X013062Y006419D01*
X013075Y006386D01*
X013085Y006352D01*
X013091Y006317D01*
X013093Y006282D01*
X013091Y006247D01*
X013085Y006212D01*
X013075Y006178D01*
X013062Y006145D01*
X013045Y006114D01*
X013024Y006086D01*
X013001Y006059D01*
X012974Y006036D01*
X012946Y006015D01*
X012915Y005998D01*
X012882Y005985D01*
X012848Y005975D01*
X012813Y005969D01*
X012778Y005967D01*
X012743Y005969D01*
X012708Y005975D01*
X012674Y005985D01*
X012641Y005998D01*
X012610Y006015D01*
X012582Y006036D01*
X012555Y006059D01*
X012532Y006086D01*
X012511Y006114D01*
X012494Y006145D01*
X012481Y006178D01*
X012471Y006212D01*
X012465Y006247D01*
X012463Y006282D01*
X012463Y002739D02*
X012465Y002774D01*
X012471Y002809D01*
X012481Y002843D01*
X012494Y002876D01*
X012511Y002907D01*
X012532Y002935D01*
X012555Y002962D01*
X012582Y002985D01*
X012610Y003006D01*
X012641Y003023D01*
X012674Y003036D01*
X012708Y003046D01*
X012743Y003052D01*
X012778Y003054D01*
X012813Y003052D01*
X012848Y003046D01*
X012882Y003036D01*
X012915Y003023D01*
X012946Y003006D01*
X012974Y002985D01*
X013001Y002962D01*
X013024Y002935D01*
X013045Y002907D01*
X013062Y002876D01*
X013075Y002843D01*
X013085Y002809D01*
X013091Y002774D01*
X013093Y002739D01*
X013091Y002704D01*
X013085Y002669D01*
X013075Y002635D01*
X013062Y002602D01*
X013045Y002571D01*
X013024Y002543D01*
X013001Y002516D01*
X012974Y002493D01*
X012946Y002472D01*
X012915Y002455D01*
X012882Y002442D01*
X012848Y002432D01*
X012813Y002426D01*
X012778Y002424D01*
X012743Y002426D01*
X012708Y002432D01*
X012674Y002442D01*
X012641Y002455D01*
X012610Y002472D01*
X012582Y002493D01*
X012555Y002516D01*
X012532Y002543D01*
X012511Y002571D01*
X012494Y002602D01*
X012481Y002635D01*
X012471Y002669D01*
X012465Y002704D01*
X012463Y002739D01*
X016085Y007463D02*
X016087Y007513D01*
X016093Y007563D01*
X016103Y007612D01*
X016117Y007660D01*
X016134Y007707D01*
X016155Y007752D01*
X016180Y007796D01*
X016208Y007837D01*
X016240Y007876D01*
X016274Y007913D01*
X016311Y007947D01*
X016351Y007977D01*
X016393Y008004D01*
X016437Y008028D01*
X016483Y008049D01*
X016530Y008065D01*
X016578Y008078D01*
X016628Y008087D01*
X016677Y008092D01*
X016728Y008093D01*
X016778Y008090D01*
X016827Y008083D01*
X016876Y008072D01*
X016924Y008057D01*
X016970Y008039D01*
X017015Y008017D01*
X017058Y007991D01*
X017099Y007962D01*
X017138Y007930D01*
X017174Y007895D01*
X017206Y007857D01*
X017236Y007817D01*
X017263Y007774D01*
X017286Y007730D01*
X017305Y007684D01*
X017321Y007636D01*
X017333Y007587D01*
X017341Y007538D01*
X017345Y007488D01*
X017345Y007438D01*
X017341Y007388D01*
X017333Y007339D01*
X017321Y007290D01*
X017305Y007242D01*
X017286Y007196D01*
X017263Y007152D01*
X017236Y007109D01*
X017206Y007069D01*
X017174Y007031D01*
X017138Y006996D01*
X017099Y006964D01*
X017058Y006935D01*
X017015Y006909D01*
X016970Y006887D01*
X016924Y006869D01*
X016876Y006854D01*
X016827Y006843D01*
X016778Y006836D01*
X016728Y006833D01*
X016677Y006834D01*
X016628Y006839D01*
X016578Y006848D01*
X016530Y006861D01*
X016483Y006877D01*
X016437Y006898D01*
X016393Y006922D01*
X016351Y006949D01*
X016311Y006979D01*
X016274Y007013D01*
X016240Y007050D01*
X016208Y007089D01*
X016180Y007130D01*
X016155Y007174D01*
X016134Y007219D01*
X016117Y007266D01*
X016103Y007314D01*
X016093Y007363D01*
X016087Y007413D01*
X016085Y007463D01*
X020337Y006282D02*
X020339Y006317D01*
X020345Y006352D01*
X020355Y006386D01*
X020368Y006419D01*
X020385Y006450D01*
X020406Y006478D01*
X020429Y006505D01*
X020456Y006528D01*
X020484Y006549D01*
X020515Y006566D01*
X020548Y006579D01*
X020582Y006589D01*
X020617Y006595D01*
X020652Y006597D01*
X020687Y006595D01*
X020722Y006589D01*
X020756Y006579D01*
X020789Y006566D01*
X020820Y006549D01*
X020848Y006528D01*
X020875Y006505D01*
X020898Y006478D01*
X020919Y006450D01*
X020936Y006419D01*
X020949Y006386D01*
X020959Y006352D01*
X020965Y006317D01*
X020967Y006282D01*
X020965Y006247D01*
X020959Y006212D01*
X020949Y006178D01*
X020936Y006145D01*
X020919Y006114D01*
X020898Y006086D01*
X020875Y006059D01*
X020848Y006036D01*
X020820Y006015D01*
X020789Y005998D01*
X020756Y005985D01*
X020722Y005975D01*
X020687Y005969D01*
X020652Y005967D01*
X020617Y005969D01*
X020582Y005975D01*
X020548Y005985D01*
X020515Y005998D01*
X020484Y006015D01*
X020456Y006036D01*
X020429Y006059D01*
X020406Y006086D01*
X020385Y006114D01*
X020368Y006145D01*
X020355Y006178D01*
X020345Y006212D01*
X020339Y006247D01*
X020337Y006282D01*
X020337Y008645D02*
X020339Y008680D01*
X020345Y008715D01*
X020355Y008749D01*
X020368Y008782D01*
X020385Y008813D01*
X020406Y008841D01*
X020429Y008868D01*
X020456Y008891D01*
X020484Y008912D01*
X020515Y008929D01*
X020548Y008942D01*
X020582Y008952D01*
X020617Y008958D01*
X020652Y008960D01*
X020687Y008958D01*
X020722Y008952D01*
X020756Y008942D01*
X020789Y008929D01*
X020820Y008912D01*
X020848Y008891D01*
X020875Y008868D01*
X020898Y008841D01*
X020919Y008813D01*
X020936Y008782D01*
X020949Y008749D01*
X020959Y008715D01*
X020965Y008680D01*
X020967Y008645D01*
X020965Y008610D01*
X020959Y008575D01*
X020949Y008541D01*
X020936Y008508D01*
X020919Y008477D01*
X020898Y008449D01*
X020875Y008422D01*
X020848Y008399D01*
X020820Y008378D01*
X020789Y008361D01*
X020756Y008348D01*
X020722Y008338D01*
X020687Y008332D01*
X020652Y008330D01*
X020617Y008332D01*
X020582Y008338D01*
X020548Y008348D01*
X020515Y008361D01*
X020484Y008378D01*
X020456Y008399D01*
X020429Y008422D01*
X020406Y008449D01*
X020385Y008477D01*
X020368Y008508D01*
X020355Y008541D01*
X020345Y008575D01*
X020339Y008610D01*
X020337Y008645D01*
X020337Y012188D02*
X020339Y012223D01*
X020345Y012258D01*
X020355Y012292D01*
X020368Y012325D01*
X020385Y012356D01*
X020406Y012384D01*
X020429Y012411D01*
X020456Y012434D01*
X020484Y012455D01*
X020515Y012472D01*
X020548Y012485D01*
X020582Y012495D01*
X020617Y012501D01*
X020652Y012503D01*
X020687Y012501D01*
X020722Y012495D01*
X020756Y012485D01*
X020789Y012472D01*
X020820Y012455D01*
X020848Y012434D01*
X020875Y012411D01*
X020898Y012384D01*
X020919Y012356D01*
X020936Y012325D01*
X020949Y012292D01*
X020959Y012258D01*
X020965Y012223D01*
X020967Y012188D01*
X020965Y012153D01*
X020959Y012118D01*
X020949Y012084D01*
X020936Y012051D01*
X020919Y012020D01*
X020898Y011992D01*
X020875Y011965D01*
X020848Y011942D01*
X020820Y011921D01*
X020789Y011904D01*
X020756Y011891D01*
X020722Y011881D01*
X020687Y011875D01*
X020652Y011873D01*
X020617Y011875D01*
X020582Y011881D01*
X020548Y011891D01*
X020515Y011904D01*
X020484Y011921D01*
X020456Y011942D01*
X020429Y011965D01*
X020406Y011992D01*
X020385Y012020D01*
X020368Y012051D01*
X020355Y012084D01*
X020345Y012118D01*
X020339Y012153D01*
X020337Y012188D01*
X022975Y014353D02*
X022977Y014403D01*
X022983Y014453D01*
X022993Y014502D01*
X023007Y014550D01*
X023024Y014597D01*
X023045Y014642D01*
X023070Y014686D01*
X023098Y014727D01*
X023130Y014766D01*
X023164Y014803D01*
X023201Y014837D01*
X023241Y014867D01*
X023283Y014894D01*
X023327Y014918D01*
X023373Y014939D01*
X023420Y014955D01*
X023468Y014968D01*
X023518Y014977D01*
X023567Y014982D01*
X023618Y014983D01*
X023668Y014980D01*
X023717Y014973D01*
X023766Y014962D01*
X023814Y014947D01*
X023860Y014929D01*
X023905Y014907D01*
X023948Y014881D01*
X023989Y014852D01*
X024028Y014820D01*
X024064Y014785D01*
X024096Y014747D01*
X024126Y014707D01*
X024153Y014664D01*
X024176Y014620D01*
X024195Y014574D01*
X024211Y014526D01*
X024223Y014477D01*
X024231Y014428D01*
X024235Y014378D01*
X024235Y014328D01*
X024231Y014278D01*
X024223Y014229D01*
X024211Y014180D01*
X024195Y014132D01*
X024176Y014086D01*
X024153Y014042D01*
X024126Y013999D01*
X024096Y013959D01*
X024064Y013921D01*
X024028Y013886D01*
X023989Y013854D01*
X023948Y013825D01*
X023905Y013799D01*
X023860Y013777D01*
X023814Y013759D01*
X023766Y013744D01*
X023717Y013733D01*
X023668Y013726D01*
X023618Y013723D01*
X023567Y013724D01*
X023518Y013729D01*
X023468Y013738D01*
X023420Y013751D01*
X023373Y013767D01*
X023327Y013788D01*
X023283Y013812D01*
X023241Y013839D01*
X023201Y013869D01*
X023164Y013903D01*
X023130Y013940D01*
X023098Y013979D01*
X023070Y014020D01*
X023045Y014064D01*
X023024Y014109D01*
X023007Y014156D01*
X022993Y014204D01*
X022983Y014253D01*
X022977Y014303D01*
X022975Y014353D01*
X020337Y016519D02*
X020339Y016554D01*
X020345Y016589D01*
X020355Y016623D01*
X020368Y016656D01*
X020385Y016687D01*
X020406Y016715D01*
X020429Y016742D01*
X020456Y016765D01*
X020484Y016786D01*
X020515Y016803D01*
X020548Y016816D01*
X020582Y016826D01*
X020617Y016832D01*
X020652Y016834D01*
X020687Y016832D01*
X020722Y016826D01*
X020756Y016816D01*
X020789Y016803D01*
X020820Y016786D01*
X020848Y016765D01*
X020875Y016742D01*
X020898Y016715D01*
X020919Y016687D01*
X020936Y016656D01*
X020949Y016623D01*
X020959Y016589D01*
X020965Y016554D01*
X020967Y016519D01*
X020965Y016484D01*
X020959Y016449D01*
X020949Y016415D01*
X020936Y016382D01*
X020919Y016351D01*
X020898Y016323D01*
X020875Y016296D01*
X020848Y016273D01*
X020820Y016252D01*
X020789Y016235D01*
X020756Y016222D01*
X020722Y016212D01*
X020687Y016206D01*
X020652Y016204D01*
X020617Y016206D01*
X020582Y016212D01*
X020548Y016222D01*
X020515Y016235D01*
X020484Y016252D01*
X020456Y016273D01*
X020429Y016296D01*
X020406Y016323D01*
X020385Y016351D01*
X020368Y016382D01*
X020355Y016415D01*
X020345Y016449D01*
X020339Y016484D01*
X020337Y016519D01*
X020337Y020062D02*
X020339Y020097D01*
X020345Y020132D01*
X020355Y020166D01*
X020368Y020199D01*
X020385Y020230D01*
X020406Y020258D01*
X020429Y020285D01*
X020456Y020308D01*
X020484Y020329D01*
X020515Y020346D01*
X020548Y020359D01*
X020582Y020369D01*
X020617Y020375D01*
X020652Y020377D01*
X020687Y020375D01*
X020722Y020369D01*
X020756Y020359D01*
X020789Y020346D01*
X020820Y020329D01*
X020848Y020308D01*
X020875Y020285D01*
X020898Y020258D01*
X020919Y020230D01*
X020936Y020199D01*
X020949Y020166D01*
X020959Y020132D01*
X020965Y020097D01*
X020967Y020062D01*
X020965Y020027D01*
X020959Y019992D01*
X020949Y019958D01*
X020936Y019925D01*
X020919Y019894D01*
X020898Y019866D01*
X020875Y019839D01*
X020848Y019816D01*
X020820Y019795D01*
X020789Y019778D01*
X020756Y019765D01*
X020722Y019755D01*
X020687Y019749D01*
X020652Y019747D01*
X020617Y019749D01*
X020582Y019755D01*
X020548Y019765D01*
X020515Y019778D01*
X020484Y019795D01*
X020456Y019816D01*
X020429Y019839D01*
X020406Y019866D01*
X020385Y019894D01*
X020368Y019925D01*
X020355Y019958D01*
X020345Y019992D01*
X020339Y020027D01*
X020337Y020062D01*
X020337Y022424D02*
X020339Y022459D01*
X020345Y022494D01*
X020355Y022528D01*
X020368Y022561D01*
X020385Y022592D01*
X020406Y022620D01*
X020429Y022647D01*
X020456Y022670D01*
X020484Y022691D01*
X020515Y022708D01*
X020548Y022721D01*
X020582Y022731D01*
X020617Y022737D01*
X020652Y022739D01*
X020687Y022737D01*
X020722Y022731D01*
X020756Y022721D01*
X020789Y022708D01*
X020820Y022691D01*
X020848Y022670D01*
X020875Y022647D01*
X020898Y022620D01*
X020919Y022592D01*
X020936Y022561D01*
X020949Y022528D01*
X020959Y022494D01*
X020965Y022459D01*
X020967Y022424D01*
X020965Y022389D01*
X020959Y022354D01*
X020949Y022320D01*
X020936Y022287D01*
X020919Y022256D01*
X020898Y022228D01*
X020875Y022201D01*
X020848Y022178D01*
X020820Y022157D01*
X020789Y022140D01*
X020756Y022127D01*
X020722Y022117D01*
X020687Y022111D01*
X020652Y022109D01*
X020617Y022111D01*
X020582Y022117D01*
X020548Y022127D01*
X020515Y022140D01*
X020484Y022157D01*
X020456Y022178D01*
X020429Y022201D01*
X020406Y022228D01*
X020385Y022256D01*
X020368Y022287D01*
X020355Y022320D01*
X020345Y022354D01*
X020339Y022389D01*
X020337Y022424D01*
X020337Y025967D02*
X020339Y026002D01*
X020345Y026037D01*
X020355Y026071D01*
X020368Y026104D01*
X020385Y026135D01*
X020406Y026163D01*
X020429Y026190D01*
X020456Y026213D01*
X020484Y026234D01*
X020515Y026251D01*
X020548Y026264D01*
X020582Y026274D01*
X020617Y026280D01*
X020652Y026282D01*
X020687Y026280D01*
X020722Y026274D01*
X020756Y026264D01*
X020789Y026251D01*
X020820Y026234D01*
X020848Y026213D01*
X020875Y026190D01*
X020898Y026163D01*
X020919Y026135D01*
X020936Y026104D01*
X020949Y026071D01*
X020959Y026037D01*
X020965Y026002D01*
X020967Y025967D01*
X020965Y025932D01*
X020959Y025897D01*
X020949Y025863D01*
X020936Y025830D01*
X020919Y025799D01*
X020898Y025771D01*
X020875Y025744D01*
X020848Y025721D01*
X020820Y025700D01*
X020789Y025683D01*
X020756Y025670D01*
X020722Y025660D01*
X020687Y025654D01*
X020652Y025652D01*
X020617Y025654D01*
X020582Y025660D01*
X020548Y025670D01*
X020515Y025683D01*
X020484Y025700D01*
X020456Y025721D01*
X020429Y025744D01*
X020406Y025771D01*
X020385Y025799D01*
X020368Y025830D01*
X020355Y025863D01*
X020345Y025897D01*
X020339Y025932D01*
X020337Y025967D01*
X016085Y021243D02*
X016087Y021293D01*
X016093Y021343D01*
X016103Y021392D01*
X016117Y021440D01*
X016134Y021487D01*
X016155Y021532D01*
X016180Y021576D01*
X016208Y021617D01*
X016240Y021656D01*
X016274Y021693D01*
X016311Y021727D01*
X016351Y021757D01*
X016393Y021784D01*
X016437Y021808D01*
X016483Y021829D01*
X016530Y021845D01*
X016578Y021858D01*
X016628Y021867D01*
X016677Y021872D01*
X016728Y021873D01*
X016778Y021870D01*
X016827Y021863D01*
X016876Y021852D01*
X016924Y021837D01*
X016970Y021819D01*
X017015Y021797D01*
X017058Y021771D01*
X017099Y021742D01*
X017138Y021710D01*
X017174Y021675D01*
X017206Y021637D01*
X017236Y021597D01*
X017263Y021554D01*
X017286Y021510D01*
X017305Y021464D01*
X017321Y021416D01*
X017333Y021367D01*
X017341Y021318D01*
X017345Y021268D01*
X017345Y021218D01*
X017341Y021168D01*
X017333Y021119D01*
X017321Y021070D01*
X017305Y021022D01*
X017286Y020976D01*
X017263Y020932D01*
X017236Y020889D01*
X017206Y020849D01*
X017174Y020811D01*
X017138Y020776D01*
X017099Y020744D01*
X017058Y020715D01*
X017015Y020689D01*
X016970Y020667D01*
X016924Y020649D01*
X016876Y020634D01*
X016827Y020623D01*
X016778Y020616D01*
X016728Y020613D01*
X016677Y020614D01*
X016628Y020619D01*
X016578Y020628D01*
X016530Y020641D01*
X016483Y020657D01*
X016437Y020678D01*
X016393Y020702D01*
X016351Y020729D01*
X016311Y020759D01*
X016274Y020793D01*
X016240Y020830D01*
X016208Y020869D01*
X016180Y020910D01*
X016155Y020954D01*
X016134Y020999D01*
X016117Y021046D01*
X016103Y021094D01*
X016093Y021143D01*
X016087Y021193D01*
X016085Y021243D01*
X026243Y022424D02*
X026245Y022459D01*
X026251Y022494D01*
X026261Y022528D01*
X026274Y022561D01*
X026291Y022592D01*
X026312Y022620D01*
X026335Y022647D01*
X026362Y022670D01*
X026390Y022691D01*
X026421Y022708D01*
X026454Y022721D01*
X026488Y022731D01*
X026523Y022737D01*
X026558Y022739D01*
X026593Y022737D01*
X026628Y022731D01*
X026662Y022721D01*
X026695Y022708D01*
X026726Y022691D01*
X026754Y022670D01*
X026781Y022647D01*
X026804Y022620D01*
X026825Y022592D01*
X026842Y022561D01*
X026855Y022528D01*
X026865Y022494D01*
X026871Y022459D01*
X026873Y022424D01*
X026871Y022389D01*
X026865Y022354D01*
X026855Y022320D01*
X026842Y022287D01*
X026825Y022256D01*
X026804Y022228D01*
X026781Y022201D01*
X026754Y022178D01*
X026726Y022157D01*
X026695Y022140D01*
X026662Y022127D01*
X026628Y022117D01*
X026593Y022111D01*
X026558Y022109D01*
X026523Y022111D01*
X026488Y022117D01*
X026454Y022127D01*
X026421Y022140D01*
X026390Y022157D01*
X026362Y022178D01*
X026335Y022201D01*
X026312Y022228D01*
X026291Y022256D01*
X026274Y022287D01*
X026261Y022320D01*
X026251Y022354D01*
X026245Y022389D01*
X026243Y022424D01*
X026243Y020062D02*
X026245Y020097D01*
X026251Y020132D01*
X026261Y020166D01*
X026274Y020199D01*
X026291Y020230D01*
X026312Y020258D01*
X026335Y020285D01*
X026362Y020308D01*
X026390Y020329D01*
X026421Y020346D01*
X026454Y020359D01*
X026488Y020369D01*
X026523Y020375D01*
X026558Y020377D01*
X026593Y020375D01*
X026628Y020369D01*
X026662Y020359D01*
X026695Y020346D01*
X026726Y020329D01*
X026754Y020308D01*
X026781Y020285D01*
X026804Y020258D01*
X026825Y020230D01*
X026842Y020199D01*
X026855Y020166D01*
X026865Y020132D01*
X026871Y020097D01*
X026873Y020062D01*
X026871Y020027D01*
X026865Y019992D01*
X026855Y019958D01*
X026842Y019925D01*
X026825Y019894D01*
X026804Y019866D01*
X026781Y019839D01*
X026754Y019816D01*
X026726Y019795D01*
X026695Y019778D01*
X026662Y019765D01*
X026628Y019755D01*
X026593Y019749D01*
X026558Y019747D01*
X026523Y019749D01*
X026488Y019755D01*
X026454Y019765D01*
X026421Y019778D01*
X026390Y019795D01*
X026362Y019816D01*
X026335Y019839D01*
X026312Y019866D01*
X026291Y019894D01*
X026274Y019925D01*
X026261Y019958D01*
X026251Y019992D01*
X026245Y020027D01*
X026243Y020062D01*
X026243Y016519D02*
X026245Y016554D01*
X026251Y016589D01*
X026261Y016623D01*
X026274Y016656D01*
X026291Y016687D01*
X026312Y016715D01*
X026335Y016742D01*
X026362Y016765D01*
X026390Y016786D01*
X026421Y016803D01*
X026454Y016816D01*
X026488Y016826D01*
X026523Y016832D01*
X026558Y016834D01*
X026593Y016832D01*
X026628Y016826D01*
X026662Y016816D01*
X026695Y016803D01*
X026726Y016786D01*
X026754Y016765D01*
X026781Y016742D01*
X026804Y016715D01*
X026825Y016687D01*
X026842Y016656D01*
X026855Y016623D01*
X026865Y016589D01*
X026871Y016554D01*
X026873Y016519D01*
X026871Y016484D01*
X026865Y016449D01*
X026855Y016415D01*
X026842Y016382D01*
X026825Y016351D01*
X026804Y016323D01*
X026781Y016296D01*
X026754Y016273D01*
X026726Y016252D01*
X026695Y016235D01*
X026662Y016222D01*
X026628Y016212D01*
X026593Y016206D01*
X026558Y016204D01*
X026523Y016206D01*
X026488Y016212D01*
X026454Y016222D01*
X026421Y016235D01*
X026390Y016252D01*
X026362Y016273D01*
X026335Y016296D01*
X026312Y016323D01*
X026291Y016351D01*
X026274Y016382D01*
X026261Y016415D01*
X026251Y016449D01*
X026245Y016484D01*
X026243Y016519D01*
X026243Y012188D02*
X026245Y012223D01*
X026251Y012258D01*
X026261Y012292D01*
X026274Y012325D01*
X026291Y012356D01*
X026312Y012384D01*
X026335Y012411D01*
X026362Y012434D01*
X026390Y012455D01*
X026421Y012472D01*
X026454Y012485D01*
X026488Y012495D01*
X026523Y012501D01*
X026558Y012503D01*
X026593Y012501D01*
X026628Y012495D01*
X026662Y012485D01*
X026695Y012472D01*
X026726Y012455D01*
X026754Y012434D01*
X026781Y012411D01*
X026804Y012384D01*
X026825Y012356D01*
X026842Y012325D01*
X026855Y012292D01*
X026865Y012258D01*
X026871Y012223D01*
X026873Y012188D01*
X026871Y012153D01*
X026865Y012118D01*
X026855Y012084D01*
X026842Y012051D01*
X026825Y012020D01*
X026804Y011992D01*
X026781Y011965D01*
X026754Y011942D01*
X026726Y011921D01*
X026695Y011904D01*
X026662Y011891D01*
X026628Y011881D01*
X026593Y011875D01*
X026558Y011873D01*
X026523Y011875D01*
X026488Y011881D01*
X026454Y011891D01*
X026421Y011904D01*
X026390Y011921D01*
X026362Y011942D01*
X026335Y011965D01*
X026312Y011992D01*
X026291Y012020D01*
X026274Y012051D01*
X026261Y012084D01*
X026251Y012118D01*
X026245Y012153D01*
X026243Y012188D01*
X026243Y008645D02*
X026245Y008680D01*
X026251Y008715D01*
X026261Y008749D01*
X026274Y008782D01*
X026291Y008813D01*
X026312Y008841D01*
X026335Y008868D01*
X026362Y008891D01*
X026390Y008912D01*
X026421Y008929D01*
X026454Y008942D01*
X026488Y008952D01*
X026523Y008958D01*
X026558Y008960D01*
X026593Y008958D01*
X026628Y008952D01*
X026662Y008942D01*
X026695Y008929D01*
X026726Y008912D01*
X026754Y008891D01*
X026781Y008868D01*
X026804Y008841D01*
X026825Y008813D01*
X026842Y008782D01*
X026855Y008749D01*
X026865Y008715D01*
X026871Y008680D01*
X026873Y008645D01*
X026871Y008610D01*
X026865Y008575D01*
X026855Y008541D01*
X026842Y008508D01*
X026825Y008477D01*
X026804Y008449D01*
X026781Y008422D01*
X026754Y008399D01*
X026726Y008378D01*
X026695Y008361D01*
X026662Y008348D01*
X026628Y008338D01*
X026593Y008332D01*
X026558Y008330D01*
X026523Y008332D01*
X026488Y008338D01*
X026454Y008348D01*
X026421Y008361D01*
X026390Y008378D01*
X026362Y008399D01*
X026335Y008422D01*
X026312Y008449D01*
X026291Y008477D01*
X026274Y008508D01*
X026261Y008541D01*
X026251Y008575D01*
X026245Y008610D01*
X026243Y008645D01*
X026243Y006282D02*
X026245Y006317D01*
X026251Y006352D01*
X026261Y006386D01*
X026274Y006419D01*
X026291Y006450D01*
X026312Y006478D01*
X026335Y006505D01*
X026362Y006528D01*
X026390Y006549D01*
X026421Y006566D01*
X026454Y006579D01*
X026488Y006589D01*
X026523Y006595D01*
X026558Y006597D01*
X026593Y006595D01*
X026628Y006589D01*
X026662Y006579D01*
X026695Y006566D01*
X026726Y006549D01*
X026754Y006528D01*
X026781Y006505D01*
X026804Y006478D01*
X026825Y006450D01*
X026842Y006419D01*
X026855Y006386D01*
X026865Y006352D01*
X026871Y006317D01*
X026873Y006282D01*
X026871Y006247D01*
X026865Y006212D01*
X026855Y006178D01*
X026842Y006145D01*
X026825Y006114D01*
X026804Y006086D01*
X026781Y006059D01*
X026754Y006036D01*
X026726Y006015D01*
X026695Y005998D01*
X026662Y005985D01*
X026628Y005975D01*
X026593Y005969D01*
X026558Y005967D01*
X026523Y005969D01*
X026488Y005975D01*
X026454Y005985D01*
X026421Y005998D01*
X026390Y006015D01*
X026362Y006036D01*
X026335Y006059D01*
X026312Y006086D01*
X026291Y006114D01*
X026274Y006145D01*
X026261Y006178D01*
X026251Y006212D01*
X026245Y006247D01*
X026243Y006282D01*
X026243Y002739D02*
X026245Y002774D01*
X026251Y002809D01*
X026261Y002843D01*
X026274Y002876D01*
X026291Y002907D01*
X026312Y002935D01*
X026335Y002962D01*
X026362Y002985D01*
X026390Y003006D01*
X026421Y003023D01*
X026454Y003036D01*
X026488Y003046D01*
X026523Y003052D01*
X026558Y003054D01*
X026593Y003052D01*
X026628Y003046D01*
X026662Y003036D01*
X026695Y003023D01*
X026726Y003006D01*
X026754Y002985D01*
X026781Y002962D01*
X026804Y002935D01*
X026825Y002907D01*
X026842Y002876D01*
X026855Y002843D01*
X026865Y002809D01*
X026871Y002774D01*
X026873Y002739D01*
X026871Y002704D01*
X026865Y002669D01*
X026855Y002635D01*
X026842Y002602D01*
X026825Y002571D01*
X026804Y002543D01*
X026781Y002516D01*
X026754Y002493D01*
X026726Y002472D01*
X026695Y002455D01*
X026662Y002442D01*
X026628Y002432D01*
X026593Y002426D01*
X026558Y002424D01*
X026523Y002426D01*
X026488Y002432D01*
X026454Y002442D01*
X026421Y002455D01*
X026390Y002472D01*
X026362Y002493D01*
X026335Y002516D01*
X026312Y002543D01*
X026291Y002571D01*
X026274Y002602D01*
X026261Y002635D01*
X026251Y002669D01*
X026245Y002704D01*
X026243Y002739D01*
X020337Y002739D02*
X020339Y002774D01*
X020345Y002809D01*
X020355Y002843D01*
X020368Y002876D01*
X020385Y002907D01*
X020406Y002935D01*
X020429Y002962D01*
X020456Y002985D01*
X020484Y003006D01*
X020515Y003023D01*
X020548Y003036D01*
X020582Y003046D01*
X020617Y003052D01*
X020652Y003054D01*
X020687Y003052D01*
X020722Y003046D01*
X020756Y003036D01*
X020789Y003023D01*
X020820Y003006D01*
X020848Y002985D01*
X020875Y002962D01*
X020898Y002935D01*
X020919Y002907D01*
X020936Y002876D01*
X020949Y002843D01*
X020959Y002809D01*
X020965Y002774D01*
X020967Y002739D01*
X020965Y002704D01*
X020959Y002669D01*
X020949Y002635D01*
X020936Y002602D01*
X020919Y002571D01*
X020898Y002543D01*
X020875Y002516D01*
X020848Y002493D01*
X020820Y002472D01*
X020789Y002455D01*
X020756Y002442D01*
X020722Y002432D01*
X020687Y002426D01*
X020652Y002424D01*
X020617Y002426D01*
X020582Y002432D01*
X020548Y002442D01*
X020515Y002455D01*
X020484Y002472D01*
X020456Y002493D01*
X020429Y002516D01*
X020406Y002543D01*
X020385Y002571D01*
X020368Y002602D01*
X020355Y002635D01*
X020345Y002669D01*
X020339Y002704D01*
X020337Y002739D01*
X026243Y025967D02*
X026245Y026002D01*
X026251Y026037D01*
X026261Y026071D01*
X026274Y026104D01*
X026291Y026135D01*
X026312Y026163D01*
X026335Y026190D01*
X026362Y026213D01*
X026390Y026234D01*
X026421Y026251D01*
X026454Y026264D01*
X026488Y026274D01*
X026523Y026280D01*
X026558Y026282D01*
X026593Y026280D01*
X026628Y026274D01*
X026662Y026264D01*
X026695Y026251D01*
X026726Y026234D01*
X026754Y026213D01*
X026781Y026190D01*
X026804Y026163D01*
X026825Y026135D01*
X026842Y026104D01*
X026855Y026071D01*
X026865Y026037D01*
X026871Y026002D01*
X026873Y025967D01*
X026871Y025932D01*
X026865Y025897D01*
X026855Y025863D01*
X026842Y025830D01*
X026825Y025799D01*
X026804Y025771D01*
X026781Y025744D01*
X026754Y025721D01*
X026726Y025700D01*
X026695Y025683D01*
X026662Y025670D01*
X026628Y025660D01*
X026593Y025654D01*
X026558Y025652D01*
X026523Y025654D01*
X026488Y025660D01*
X026454Y025670D01*
X026421Y025683D01*
X026390Y025700D01*
X026362Y025721D01*
X026335Y025744D01*
X026312Y025771D01*
X026291Y025799D01*
X026274Y025830D01*
X026261Y025863D01*
X026251Y025897D01*
X026245Y025932D01*
X026243Y025967D01*
D11*
X024815Y025347D02*
X024815Y025007D01*
X024872Y025177D02*
X024645Y025177D01*
X024815Y025347D01*
X024815Y023379D02*
X024702Y023379D01*
X024645Y023322D01*
X024815Y023379D02*
X024872Y023322D01*
X024872Y023265D01*
X024645Y023038D01*
X024872Y023038D01*
X022431Y023038D02*
X022204Y023038D01*
X022317Y023038D02*
X022317Y023379D01*
X022204Y023265D01*
X022261Y025007D02*
X022204Y025064D01*
X022261Y025007D02*
X022374Y025007D01*
X022431Y025064D01*
X022431Y025120D01*
X022374Y025177D01*
X022317Y025177D01*
X022374Y025177D02*
X022431Y025234D01*
X022431Y025290D01*
X022374Y025347D01*
X022261Y025347D01*
X022204Y025290D01*
X018966Y025177D02*
X018739Y025177D01*
X018909Y025347D01*
X018909Y025007D01*
X018909Y023379D02*
X018796Y023379D01*
X018739Y023322D01*
X018909Y023379D02*
X018966Y023322D01*
X018966Y023265D01*
X018739Y023038D01*
X018966Y023038D01*
X018906Y019448D02*
X018906Y019108D01*
X018793Y019108D02*
X019020Y019108D01*
X018793Y019334D02*
X018906Y019448D01*
X018849Y017479D02*
X018793Y017423D01*
X018849Y017479D02*
X018963Y017479D01*
X019020Y017423D01*
X019020Y017366D01*
X018963Y017309D01*
X019020Y017253D01*
X019020Y017196D01*
X018963Y017139D01*
X018849Y017139D01*
X018793Y017196D01*
X018906Y017309D02*
X018963Y017309D01*
X017605Y015918D02*
X017605Y015811D01*
X017605Y015598D02*
X017605Y015171D01*
X017499Y015171D02*
X017712Y015171D01*
X017928Y015277D02*
X018035Y015171D01*
X018355Y015171D01*
X017928Y015277D02*
X017928Y015491D01*
X018035Y015598D01*
X018355Y015598D01*
X017605Y015598D02*
X017499Y015598D01*
X017282Y015598D02*
X017175Y015598D01*
X016961Y015384D01*
X016961Y015171D02*
X016961Y015598D01*
X016744Y015491D02*
X016744Y015384D01*
X016317Y015384D01*
X016317Y015277D02*
X016317Y015491D01*
X016424Y015598D01*
X016637Y015598D01*
X016744Y015491D01*
X016637Y015171D02*
X016424Y015171D01*
X016317Y015277D01*
X016099Y015171D02*
X016099Y015491D01*
X015993Y015598D01*
X015672Y015598D01*
X015672Y015171D01*
X015455Y015384D02*
X015028Y015384D01*
X015028Y015277D02*
X015028Y015491D01*
X015135Y015598D01*
X015348Y015598D01*
X015455Y015491D01*
X015455Y015384D01*
X015348Y015171D02*
X015135Y015171D01*
X015028Y015277D01*
X014810Y015277D02*
X014810Y015491D01*
X014597Y015491D01*
X014810Y015704D02*
X014704Y015811D01*
X014490Y015811D01*
X014383Y015704D01*
X014383Y015277D01*
X014490Y015171D01*
X014704Y015171D01*
X014810Y015277D01*
X014553Y017139D02*
X014553Y017479D01*
X014383Y017309D01*
X014610Y017309D01*
X014610Y019108D02*
X014383Y019108D01*
X014610Y019334D01*
X014610Y019391D01*
X014553Y019448D01*
X014440Y019448D01*
X014383Y019391D01*
X011146Y019108D02*
X010919Y019108D01*
X011032Y019108D02*
X011032Y019448D01*
X010919Y019334D01*
X010975Y017479D02*
X010919Y017423D01*
X010975Y017479D02*
X011089Y017479D01*
X011146Y017423D01*
X011146Y017366D01*
X011089Y017309D01*
X011146Y017253D01*
X011146Y017196D01*
X011089Y017139D01*
X010975Y017139D01*
X010919Y017196D01*
X011032Y017309D02*
X011089Y017309D01*
X008705Y017309D02*
X008478Y017309D01*
X008648Y017479D01*
X008648Y017139D01*
X008705Y019108D02*
X008478Y019108D01*
X008705Y019334D01*
X008705Y019391D01*
X008648Y019448D01*
X008534Y019448D01*
X008478Y019391D01*
X005240Y019108D02*
X005013Y019108D01*
X005127Y019108D02*
X005127Y019448D01*
X005013Y019334D01*
X003436Y019497D02*
X003436Y018997D01*
X003186Y018747D01*
X003436Y018497D01*
X003436Y017997D01*
X003186Y017747D01*
X003436Y017497D01*
X003436Y016997D01*
X003186Y016747D01*
X003436Y016497D01*
X003436Y015997D01*
X003186Y015747D01*
X003436Y015497D01*
X003436Y014997D01*
X003186Y014747D01*
X003436Y014497D01*
X003436Y013997D01*
X003186Y013747D01*
X003436Y013497D01*
X003436Y012997D01*
X003186Y012747D01*
X003436Y012497D01*
X003436Y011997D01*
X003186Y011747D01*
X003436Y011497D01*
X003436Y010997D01*
X003186Y010747D01*
X003436Y010497D01*
X003436Y009997D01*
X003186Y009747D01*
X003436Y009497D01*
X003436Y008997D01*
X003186Y008747D01*
X003436Y008497D01*
X003436Y007997D01*
X003186Y007747D01*
X003436Y007497D01*
X003436Y006997D01*
X003186Y006747D01*
X003436Y006497D01*
X003436Y005997D01*
X003186Y005747D01*
X002686Y005747D01*
X002436Y005997D01*
X002436Y006497D01*
X002686Y006747D01*
X002436Y006997D01*
X002436Y007497D01*
X002686Y007747D01*
X003186Y007747D01*
X002686Y007747D02*
X002436Y007997D01*
X002436Y008497D01*
X002686Y008747D01*
X002436Y008997D01*
X002436Y009497D01*
X002686Y009747D01*
X002436Y009997D01*
X002436Y010497D01*
X002686Y010747D01*
X003186Y010747D01*
X002686Y010747D02*
X002436Y010997D01*
X002436Y011497D01*
X002686Y011747D01*
X002436Y011997D01*
X002436Y012497D01*
X002686Y012747D01*
X002436Y012997D01*
X002436Y013497D01*
X002686Y013747D01*
X003186Y013747D01*
X002686Y013747D02*
X002436Y013997D01*
X002436Y014497D01*
X002686Y014747D01*
X002436Y014997D01*
X002436Y015497D01*
X002686Y015747D01*
X002436Y015997D01*
X002436Y016497D01*
X002686Y016747D01*
X003186Y016747D01*
X002686Y016747D02*
X002436Y016997D01*
X002436Y017497D01*
X002686Y017747D01*
X002436Y017997D01*
X002436Y018497D01*
X002686Y018747D01*
X002436Y018997D01*
X002436Y019497D01*
X002686Y019747D01*
X003186Y019747D01*
X003436Y019497D01*
X003186Y019747D02*
X003436Y019997D01*
X003436Y020497D01*
X003186Y020747D01*
X003436Y020997D01*
X003436Y021497D01*
X003186Y021747D01*
X003436Y021997D01*
X003436Y022497D01*
X003186Y022747D01*
X003436Y022997D01*
X003436Y023497D01*
X003186Y023747D01*
X002686Y023747D01*
X002436Y023497D01*
X002436Y022997D01*
X002686Y022747D01*
X003186Y022747D01*
X002686Y022747D02*
X002436Y022497D01*
X002436Y021997D01*
X002686Y021747D01*
X003186Y021747D01*
X002686Y021747D02*
X002436Y021497D01*
X002436Y020997D01*
X002686Y020747D01*
X003186Y020747D01*
X002686Y020747D02*
X002436Y020497D01*
X002436Y019997D01*
X002686Y019747D01*
X002686Y018747D02*
X003186Y018747D01*
X003186Y017747D02*
X002686Y017747D01*
X002686Y015747D02*
X003186Y015747D01*
X003186Y014747D02*
X002686Y014747D01*
X002686Y012747D02*
X003186Y012747D01*
X003186Y011747D02*
X002686Y011747D01*
X002686Y009747D02*
X003186Y009747D01*
X003186Y008747D02*
X002686Y008747D01*
X002686Y006747D02*
X003186Y006747D01*
X005013Y005555D02*
X005127Y005668D01*
X005127Y005328D01*
X005240Y005328D02*
X005013Y005328D01*
X005070Y003700D02*
X005183Y003700D01*
X005240Y003643D01*
X005240Y003586D01*
X005183Y003530D01*
X005240Y003473D01*
X005240Y003416D01*
X005183Y003360D01*
X005070Y003360D01*
X005013Y003416D01*
X005127Y003530D02*
X005183Y003530D01*
X005013Y003643D02*
X005070Y003700D01*
X008478Y003530D02*
X008705Y003530D01*
X008648Y003360D02*
X008648Y003700D01*
X008478Y003530D01*
X008478Y005328D02*
X008705Y005555D01*
X008705Y005612D01*
X008648Y005668D01*
X008534Y005668D01*
X008478Y005612D01*
X008478Y005328D02*
X008705Y005328D01*
X010919Y005328D02*
X011146Y005328D01*
X011032Y005328D02*
X011032Y005668D01*
X010919Y005555D01*
X010975Y003700D02*
X010919Y003643D01*
X010975Y003700D02*
X011089Y003700D01*
X011146Y003643D01*
X011146Y003586D01*
X011089Y003530D01*
X011146Y003473D01*
X011146Y003416D01*
X011089Y003360D01*
X010975Y003360D01*
X010919Y003416D01*
X011032Y003530D02*
X011089Y003530D01*
X014383Y003530D02*
X014610Y003530D01*
X014553Y003700D02*
X014383Y003530D01*
X014553Y003360D02*
X014553Y003700D01*
X014610Y005328D02*
X014383Y005328D01*
X014610Y005555D01*
X014610Y005612D01*
X014553Y005668D01*
X014440Y005668D01*
X014383Y005612D01*
X014330Y009259D02*
X014557Y009259D01*
X014443Y009259D02*
X014443Y009599D01*
X014330Y009486D01*
X014387Y011227D02*
X014330Y011284D01*
X014387Y011227D02*
X014500Y011227D01*
X014557Y011284D01*
X014557Y011341D01*
X014500Y011397D01*
X014443Y011397D01*
X014500Y011397D02*
X014557Y011454D01*
X014557Y011511D01*
X014500Y011568D01*
X014387Y011568D01*
X014330Y011511D01*
X015171Y012808D02*
X015171Y013449D01*
X015491Y013449D01*
X015598Y013342D01*
X015598Y013129D01*
X015491Y013022D01*
X015171Y013022D01*
X015384Y013022D02*
X015598Y012808D01*
X015815Y012808D02*
X016242Y012808D01*
X016460Y013022D02*
X016673Y012808D01*
X016887Y013022D01*
X016887Y013449D01*
X016460Y013449D02*
X016460Y013022D01*
X016242Y013449D02*
X015815Y013449D01*
X015815Y012808D01*
X015815Y013129D02*
X016029Y013129D01*
X017749Y012915D02*
X017749Y013342D01*
X017856Y013449D01*
X018069Y013449D01*
X018176Y013342D01*
X017749Y012915D01*
X017856Y012808D01*
X018069Y012808D01*
X018176Y012915D01*
X018176Y013342D01*
X018393Y012915D02*
X018500Y012915D01*
X018500Y012808D01*
X018393Y012808D01*
X018393Y012915D01*
X018716Y012808D02*
X019143Y012808D01*
X018929Y012808D02*
X018929Y013449D01*
X018716Y013235D01*
X018909Y011568D02*
X018739Y011397D01*
X018966Y011397D01*
X018909Y011227D02*
X018909Y011568D01*
X018909Y009599D02*
X018796Y009599D01*
X018739Y009542D01*
X018909Y009599D02*
X018966Y009542D01*
X018966Y009486D01*
X018739Y009259D01*
X018966Y009259D01*
X022204Y009259D02*
X022431Y009259D01*
X022317Y009259D02*
X022317Y009599D01*
X022204Y009486D01*
X022261Y011227D02*
X022204Y011284D01*
X022261Y011227D02*
X022374Y011227D01*
X022431Y011284D01*
X022431Y011341D01*
X022374Y011397D01*
X022317Y011397D01*
X022374Y011397D02*
X022431Y011454D01*
X022431Y011511D01*
X022374Y011568D01*
X022261Y011568D01*
X022204Y011511D01*
X024645Y011397D02*
X024872Y011397D01*
X024815Y011227D02*
X024815Y011568D01*
X024645Y011397D01*
X024702Y009599D02*
X024645Y009542D01*
X024702Y009599D02*
X024815Y009599D01*
X024872Y009542D01*
X024872Y009486D01*
X024645Y009259D01*
X024872Y009259D01*
X028109Y009259D02*
X028336Y009259D01*
X028223Y009259D02*
X028223Y009599D01*
X028109Y009486D01*
X028166Y011227D02*
X028109Y011284D01*
X028166Y011227D02*
X028280Y011227D01*
X028336Y011284D01*
X028336Y011341D01*
X028280Y011397D01*
X028223Y011397D01*
X028280Y011397D02*
X028336Y011454D01*
X028336Y011511D01*
X028280Y011568D01*
X028166Y011568D01*
X028109Y011511D01*
X030389Y011497D02*
X030389Y010997D01*
X030639Y010747D01*
X030389Y010497D01*
X030389Y009997D01*
X030639Y009747D01*
X031139Y009747D01*
X031389Y009997D01*
X031389Y010497D01*
X031139Y010747D01*
X030639Y010747D01*
X031139Y010747D02*
X031389Y010997D01*
X031389Y011497D01*
X031139Y011747D01*
X030639Y011747D01*
X030389Y011497D01*
X030639Y011747D02*
X030389Y011997D01*
X030389Y012497D01*
X030639Y012747D01*
X030389Y012997D01*
X030389Y013497D01*
X030639Y013747D01*
X030389Y013997D01*
X030389Y014497D01*
X030639Y014747D01*
X030389Y014997D01*
X030389Y015497D01*
X030639Y015747D01*
X030389Y015997D01*
X030389Y016497D01*
X030639Y016747D01*
X030389Y016997D01*
X030389Y017497D01*
X030639Y017747D01*
X030389Y017997D01*
X030389Y018497D01*
X030639Y018747D01*
X030389Y018997D01*
X030389Y019497D01*
X030639Y019747D01*
X030389Y019997D01*
X030389Y020497D01*
X030639Y020747D01*
X030389Y020997D01*
X030389Y021497D01*
X030639Y021747D01*
X030389Y021997D01*
X030389Y022497D01*
X030639Y022747D01*
X030389Y022997D01*
X030389Y023497D01*
X030639Y023747D01*
X031139Y023747D01*
X031389Y023497D01*
X031389Y022997D01*
X031139Y022747D01*
X031389Y022497D01*
X031389Y021997D01*
X031139Y021747D01*
X030639Y021747D01*
X031139Y021747D02*
X031389Y021497D01*
X031389Y020997D01*
X031139Y020747D01*
X031389Y020497D01*
X031389Y019997D01*
X031139Y019747D01*
X031389Y019497D01*
X031389Y018997D01*
X031139Y018747D01*
X030639Y018747D01*
X031139Y018747D02*
X031389Y018497D01*
X031389Y017997D01*
X031139Y017747D01*
X031389Y017497D01*
X031389Y016997D01*
X031139Y016747D01*
X031389Y016497D01*
X031389Y015997D01*
X031139Y015747D01*
X030639Y015747D01*
X031139Y015747D02*
X031389Y015497D01*
X031389Y014997D01*
X031139Y014747D01*
X031389Y014497D01*
X031389Y013997D01*
X031139Y013747D01*
X031389Y013497D01*
X031389Y012997D01*
X031139Y012747D01*
X030639Y012747D01*
X031139Y012747D02*
X031389Y012497D01*
X031389Y011997D01*
X031139Y011747D01*
X031139Y013747D02*
X030639Y013747D01*
X030639Y014747D02*
X031139Y014747D01*
X031139Y016747D02*
X030639Y016747D01*
X030639Y017747D02*
X031139Y017747D01*
X031139Y019747D02*
X030639Y019747D01*
X030639Y020747D02*
X031139Y020747D01*
X031139Y022747D02*
X030639Y022747D01*
X028336Y023038D02*
X028109Y023038D01*
X028223Y023038D02*
X028223Y023379D01*
X028109Y023265D01*
X028166Y025007D02*
X028109Y025064D01*
X028166Y025007D02*
X028280Y025007D01*
X028336Y025064D01*
X028336Y025120D01*
X028280Y025177D01*
X028223Y025177D01*
X028280Y025177D02*
X028336Y025234D01*
X028336Y025290D01*
X028280Y025347D01*
X028166Y025347D01*
X028109Y025290D01*
X028219Y019448D02*
X028163Y019391D01*
X028219Y019448D02*
X028333Y019448D01*
X028390Y019391D01*
X028390Y019334D01*
X028163Y019108D01*
X028390Y019108D01*
X028333Y017479D02*
X028163Y017309D01*
X028390Y017309D01*
X028333Y017139D02*
X028333Y017479D01*
X024925Y017423D02*
X024925Y017366D01*
X024868Y017309D01*
X024925Y017253D01*
X024925Y017196D01*
X024868Y017139D01*
X024755Y017139D01*
X024698Y017196D01*
X024812Y017309D02*
X024868Y017309D01*
X024925Y017423D02*
X024868Y017479D01*
X024755Y017479D01*
X024698Y017423D01*
X024698Y019108D02*
X024925Y019108D01*
X024812Y019108D02*
X024812Y019448D01*
X024698Y019334D01*
X022484Y019334D02*
X022257Y019108D01*
X022484Y019108D01*
X022484Y019334D02*
X022484Y019391D01*
X022427Y019448D01*
X022314Y019448D01*
X022257Y019391D01*
X022427Y017479D02*
X022257Y017309D01*
X022484Y017309D01*
X022427Y017139D02*
X022427Y017479D01*
X021150Y015811D02*
X020936Y015811D01*
X021043Y015811D02*
X021043Y015171D01*
X020936Y015171D02*
X021150Y015171D01*
X020719Y015277D02*
X020719Y015704D01*
X020612Y015811D01*
X020292Y015811D01*
X020292Y015171D01*
X020612Y015171D01*
X020719Y015277D01*
X020075Y015171D02*
X019862Y015171D01*
X019969Y015171D02*
X019969Y015811D01*
X020075Y015811D02*
X019862Y015811D01*
X019644Y015811D02*
X019644Y015171D01*
X019217Y015171D02*
X019217Y015811D01*
X019431Y015598D01*
X019644Y015811D01*
X014557Y023038D02*
X014330Y023038D01*
X014443Y023038D02*
X014443Y023379D01*
X014330Y023265D01*
X014387Y025007D02*
X014330Y025064D01*
X014387Y025007D02*
X014500Y025007D01*
X014557Y025064D01*
X014557Y025120D01*
X014500Y025177D01*
X014443Y025177D01*
X014500Y025177D02*
X014557Y025234D01*
X014557Y025290D01*
X014500Y025347D01*
X014387Y025347D01*
X014330Y025290D01*
X011092Y025177D02*
X010865Y025177D01*
X011035Y025347D01*
X011035Y025007D01*
X011035Y023379D02*
X010922Y023379D01*
X010865Y023322D01*
X011035Y023379D02*
X011092Y023322D01*
X011092Y023265D01*
X010865Y023038D01*
X011092Y023038D01*
X008651Y023038D02*
X008424Y023038D01*
X008538Y023038D02*
X008538Y023379D01*
X008424Y023265D01*
X008481Y025007D02*
X008424Y025064D01*
X008481Y025007D02*
X008595Y025007D01*
X008651Y025064D01*
X008651Y025120D01*
X008595Y025177D01*
X008538Y025177D01*
X008595Y025177D02*
X008651Y025234D01*
X008651Y025290D01*
X008595Y025347D01*
X008481Y025347D01*
X008424Y025290D01*
X005187Y025177D02*
X004960Y025177D01*
X005130Y025347D01*
X005130Y025007D01*
X005130Y023379D02*
X005017Y023379D01*
X004960Y023322D01*
X005130Y023379D02*
X005187Y023322D01*
X005187Y023265D01*
X004960Y023038D01*
X005187Y023038D01*
X005183Y017479D02*
X005070Y017479D01*
X005013Y017423D01*
X005127Y017309D02*
X005183Y017309D01*
X005240Y017253D01*
X005240Y017196D01*
X005183Y017139D01*
X005070Y017139D01*
X005013Y017196D01*
X005183Y017309D02*
X005240Y017366D01*
X005240Y017423D01*
X005183Y017479D01*
X005130Y011568D02*
X004960Y011397D01*
X005187Y011397D01*
X005130Y011227D02*
X005130Y011568D01*
X005130Y009599D02*
X005017Y009599D01*
X004960Y009542D01*
X005130Y009599D02*
X005187Y009542D01*
X005187Y009486D01*
X004960Y009259D01*
X005187Y009259D01*
X008424Y009259D02*
X008651Y009259D01*
X008538Y009259D02*
X008538Y009599D01*
X008424Y009486D01*
X008481Y011227D02*
X008424Y011284D01*
X008481Y011227D02*
X008595Y011227D01*
X008651Y011284D01*
X008651Y011341D01*
X008595Y011397D01*
X008538Y011397D01*
X008595Y011397D02*
X008651Y011454D01*
X008651Y011511D01*
X008595Y011568D01*
X008481Y011568D01*
X008424Y011511D01*
X010865Y011397D02*
X011092Y011397D01*
X011035Y011227D02*
X011035Y011568D01*
X010865Y011397D01*
X010922Y009599D02*
X010865Y009542D01*
X010922Y009599D02*
X011035Y009599D01*
X011092Y009542D01*
X011092Y009486D01*
X010865Y009259D01*
X011092Y009259D01*
X018793Y005555D02*
X018906Y005668D01*
X018906Y005328D01*
X018793Y005328D02*
X019020Y005328D01*
X018963Y003700D02*
X019020Y003643D01*
X019020Y003586D01*
X018963Y003530D01*
X019020Y003473D01*
X019020Y003416D01*
X018963Y003360D01*
X018849Y003360D01*
X018793Y003416D01*
X018906Y003530D02*
X018963Y003530D01*
X018963Y003700D02*
X018849Y003700D01*
X018793Y003643D01*
X022257Y003530D02*
X022484Y003530D01*
X022427Y003700D02*
X022257Y003530D01*
X022427Y003360D02*
X022427Y003700D01*
X022484Y005328D02*
X022257Y005328D01*
X022484Y005555D01*
X022484Y005612D01*
X022427Y005668D01*
X022314Y005668D01*
X022257Y005612D01*
X024698Y005555D02*
X024812Y005668D01*
X024812Y005328D01*
X024925Y005328D02*
X024698Y005328D01*
X024755Y003700D02*
X024868Y003700D01*
X024925Y003643D01*
X024925Y003586D01*
X024868Y003530D01*
X024925Y003473D01*
X024925Y003416D01*
X024868Y003360D01*
X024755Y003360D01*
X024698Y003416D01*
X024812Y003530D02*
X024868Y003530D01*
X024698Y003643D02*
X024755Y003700D01*
X028163Y003530D02*
X028390Y003530D01*
X028333Y003700D02*
X028163Y003530D01*
X028333Y003360D02*
X028333Y003700D01*
X028390Y005328D02*
X028163Y005328D01*
X028390Y005555D01*
X028390Y005612D01*
X028333Y005668D01*
X028219Y005668D01*
X028163Y005612D01*
X030389Y005997D02*
X030389Y006497D01*
X030639Y006747D01*
X030389Y006997D01*
X030389Y007497D01*
X030639Y007747D01*
X030389Y007997D01*
X030389Y008497D01*
X030639Y008747D01*
X030389Y008997D01*
X030389Y009497D01*
X030639Y009747D01*
X031139Y009747D02*
X031389Y009497D01*
X031389Y008997D01*
X031139Y008747D01*
X031389Y008497D01*
X031389Y007997D01*
X031139Y007747D01*
X031389Y007497D01*
X031389Y006997D01*
X031139Y006747D01*
X031389Y006497D01*
X031389Y005997D01*
X031139Y005747D01*
X030639Y005747D01*
X030389Y005997D01*
X030639Y006747D02*
X031139Y006747D01*
X031139Y007747D02*
X030639Y007747D01*
X030639Y008747D02*
X031139Y008747D01*
D12*
X031094Y005349D02*
X031156Y005287D01*
X031156Y005164D01*
X031094Y005102D01*
X030847Y005102D01*
X030785Y005164D01*
X030785Y005287D01*
X030847Y005349D01*
X030847Y004981D02*
X030785Y004919D01*
X030785Y004796D01*
X030847Y004734D01*
X031094Y004734D01*
X031156Y004796D01*
X031156Y004919D01*
X031094Y004981D01*
X031032Y004613D02*
X030785Y004613D01*
X031032Y004613D02*
X031156Y004489D01*
X031032Y004366D01*
X030785Y004366D01*
X016897Y004425D02*
X016836Y004487D01*
X016712Y004487D01*
X016650Y004425D01*
X016650Y004302D01*
X016712Y004240D01*
X016836Y004240D01*
X016897Y004302D01*
X016897Y004425D01*
X016897Y004608D02*
X016897Y004732D01*
X016897Y004670D02*
X016527Y004670D01*
X016527Y004608D01*
X016650Y004916D02*
X016650Y005039D01*
X016712Y005101D01*
X016897Y005101D01*
X016897Y004916D01*
X016836Y004854D01*
X016774Y004916D01*
X016774Y005101D01*
X016712Y005222D02*
X016774Y005284D01*
X016774Y005407D01*
X016836Y005469D01*
X016897Y005407D01*
X016897Y005222D01*
X016712Y005222D02*
X016650Y005284D01*
X016650Y005469D01*
X016712Y005959D02*
X016712Y006144D01*
X016774Y006206D01*
X016836Y006206D01*
X016897Y006144D01*
X016897Y005959D01*
X016527Y005959D01*
X016527Y006144D01*
X016589Y006206D01*
X016650Y006206D01*
X016712Y006144D01*
X016712Y006327D02*
X016836Y006327D01*
X016897Y006389D01*
X016897Y006512D01*
X016836Y006574D01*
X016712Y006574D01*
X016650Y006512D01*
X016650Y006389D01*
X016712Y006327D01*
X016650Y006695D02*
X016836Y006695D01*
X016897Y006757D01*
X016897Y006942D01*
X016959Y006942D02*
X017021Y006881D01*
X017021Y006819D01*
X016959Y006942D02*
X016650Y006942D01*
X016712Y007064D02*
X016650Y007125D01*
X016650Y007249D01*
X016712Y007311D01*
X016774Y007311D01*
X016774Y007064D01*
X016836Y007064D02*
X016712Y007064D01*
X016836Y007064D02*
X016897Y007125D01*
X016897Y007249D01*
X016897Y007432D02*
X016650Y007432D01*
X016650Y007556D02*
X016650Y007617D01*
X016650Y007556D02*
X016774Y007432D01*
X016897Y004118D02*
X016774Y003933D01*
X016650Y004118D01*
X016527Y003933D02*
X016897Y003933D01*
X016897Y003812D02*
X016897Y003626D01*
X016836Y003565D01*
X016712Y003565D01*
X016650Y003626D01*
X016650Y003812D01*
X016650Y003381D02*
X016897Y003381D01*
X016897Y003319D02*
X016897Y003443D01*
X016897Y003198D02*
X016527Y003198D01*
X016650Y003319D02*
X016650Y003381D01*
X016527Y003381D02*
X016465Y003381D01*
X016527Y002951D02*
X016897Y003198D01*
X016897Y002951D02*
X016527Y002951D01*
X003183Y004534D02*
X003121Y004472D01*
X002875Y004472D01*
X002813Y004534D01*
X002813Y004657D01*
X002875Y004719D01*
X002998Y004719D02*
X002998Y004595D01*
X002998Y004719D02*
X003121Y004719D01*
X003183Y004657D01*
X003183Y004534D01*
X003183Y004840D02*
X002813Y004840D01*
X003183Y005087D01*
X002813Y005087D01*
X002813Y005209D02*
X002813Y005394D01*
X002875Y005455D01*
X003121Y005455D01*
X003183Y005394D01*
X003183Y005209D01*
X002813Y005209D01*
X016527Y016534D02*
X016897Y016780D01*
X016527Y016780D01*
X016650Y016902D02*
X016650Y016964D01*
X016897Y016964D01*
X016897Y017025D02*
X016897Y016902D01*
X016836Y017147D02*
X016712Y017147D01*
X016650Y017209D01*
X016650Y017394D01*
X016527Y017516D02*
X016897Y017516D01*
X016897Y017394D02*
X016897Y017209D01*
X016836Y017147D01*
X016527Y016964D02*
X016465Y016964D01*
X016527Y016534D02*
X016897Y016534D01*
X016774Y017516D02*
X016650Y017701D01*
X016712Y017823D02*
X016836Y017823D01*
X016897Y017884D01*
X016897Y018008D01*
X016836Y018070D01*
X016712Y018070D01*
X016650Y018008D01*
X016650Y017884D01*
X016712Y017823D01*
X016897Y017701D02*
X016774Y017516D01*
X016897Y018191D02*
X016897Y018314D01*
X016897Y018253D02*
X016527Y018253D01*
X016527Y018191D01*
X016650Y018498D02*
X016650Y018622D01*
X016712Y018683D01*
X016897Y018683D01*
X016897Y018498D01*
X016836Y018437D01*
X016774Y018498D01*
X016774Y018683D01*
X016712Y018805D02*
X016650Y018867D01*
X016650Y019052D01*
X016774Y018990D02*
X016774Y018867D01*
X016712Y018805D01*
X016897Y018805D02*
X016897Y018990D01*
X016836Y019052D01*
X016774Y018990D01*
X016712Y019541D02*
X016712Y019727D01*
X016774Y019788D01*
X016836Y019788D01*
X016897Y019727D01*
X016897Y019541D01*
X016527Y019541D01*
X016527Y019727D01*
X016589Y019788D01*
X016650Y019788D01*
X016712Y019727D01*
X016712Y019910D02*
X016836Y019910D01*
X016897Y019972D01*
X016897Y020095D01*
X016836Y020157D01*
X016712Y020157D01*
X016650Y020095D01*
X016650Y019972D01*
X016712Y019910D01*
X016650Y020278D02*
X016836Y020278D01*
X016897Y020340D01*
X016897Y020525D01*
X016959Y020525D02*
X017021Y020463D01*
X017021Y020402D01*
X016959Y020525D02*
X016650Y020525D01*
X016712Y020646D02*
X016650Y020708D01*
X016650Y020832D01*
X016712Y020893D01*
X016774Y020893D01*
X016774Y020646D01*
X016836Y020646D02*
X016712Y020646D01*
X016836Y020646D02*
X016897Y020708D01*
X016897Y020832D01*
X016897Y021015D02*
X016650Y021015D01*
X016650Y021138D02*
X016650Y021200D01*
X016650Y021138D02*
X016774Y021015D01*
X003110Y024204D02*
X002986Y024328D01*
X002740Y024328D01*
X002801Y024449D02*
X003048Y024449D01*
X003110Y024511D01*
X003110Y024634D01*
X003048Y024696D01*
X003048Y024817D02*
X003110Y024879D01*
X003110Y025003D01*
X003048Y025064D01*
X003048Y024817D02*
X002801Y024817D01*
X002740Y024879D01*
X002740Y025003D01*
X002801Y025064D01*
X002801Y024696D02*
X002740Y024634D01*
X002740Y024511D01*
X002801Y024449D01*
X002740Y024081D02*
X002986Y024081D01*
X003110Y024204D01*
X030681Y024199D02*
X030681Y024076D01*
X030742Y024014D01*
X030989Y024014D01*
X031051Y024076D01*
X031051Y024199D01*
X030989Y024261D01*
X030866Y024261D01*
X030866Y024137D01*
X030742Y024261D02*
X030681Y024199D01*
X030681Y024382D02*
X031051Y024629D01*
X030681Y024629D01*
X030681Y024751D02*
X030681Y024936D01*
X030742Y024997D01*
X030989Y024997D01*
X031051Y024936D01*
X031051Y024751D01*
X030681Y024751D01*
X030681Y024382D02*
X031051Y024382D01*
D13*
X028920Y024589D02*
X028920Y023802D01*
X028920Y022621D02*
X028920Y022286D01*
X028467Y021834D01*
X024649Y021834D01*
X024196Y022286D01*
X024196Y022621D01*
X024589Y022621D01*
X024589Y023802D01*
X024196Y023802D01*
X024196Y024589D01*
X024589Y024589D01*
X024589Y025771D01*
X024196Y025771D01*
X024196Y026105D01*
X024649Y026558D01*
X028467Y026558D01*
X028920Y026105D01*
X028920Y025771D01*
X025180Y024196D02*
X025182Y024270D01*
X025188Y024344D01*
X025198Y024417D01*
X025212Y024490D01*
X025229Y024562D01*
X025251Y024632D01*
X025276Y024702D01*
X025305Y024770D01*
X025338Y024836D01*
X025374Y024901D01*
X025414Y024963D01*
X025456Y025024D01*
X025502Y025082D01*
X025551Y025137D01*
X025603Y025190D01*
X025658Y025240D01*
X025715Y025286D01*
X025775Y025330D01*
X025837Y025370D01*
X025901Y025407D01*
X025967Y025441D01*
X026035Y025471D01*
X026104Y025497D01*
X026175Y025520D01*
X026246Y025538D01*
X026319Y025553D01*
X026392Y025564D01*
X026466Y025571D01*
X026540Y025574D01*
X026613Y025573D01*
X026687Y025568D01*
X026761Y025559D01*
X026834Y025546D01*
X026906Y025529D01*
X026977Y025509D01*
X027047Y025484D01*
X027115Y025456D01*
X027182Y025425D01*
X027247Y025389D01*
X027310Y025351D01*
X027371Y025309D01*
X027430Y025263D01*
X027486Y025215D01*
X027539Y025164D01*
X027589Y025110D01*
X027637Y025053D01*
X027681Y024994D01*
X027723Y024932D01*
X027761Y024869D01*
X027795Y024803D01*
X027826Y024736D01*
X027853Y024667D01*
X027876Y024597D01*
X027896Y024526D01*
X027912Y024453D01*
X027924Y024380D01*
X027932Y024307D01*
X027936Y024233D01*
X027936Y024159D01*
X027932Y024085D01*
X027924Y024012D01*
X027912Y023939D01*
X027896Y023866D01*
X027876Y023795D01*
X027853Y023725D01*
X027826Y023656D01*
X027795Y023589D01*
X027761Y023523D01*
X027723Y023460D01*
X027681Y023398D01*
X027637Y023339D01*
X027589Y023282D01*
X027539Y023228D01*
X027486Y023177D01*
X027430Y023129D01*
X027371Y023083D01*
X027310Y023041D01*
X027247Y023003D01*
X027182Y022967D01*
X027115Y022936D01*
X027047Y022908D01*
X026977Y022883D01*
X026906Y022863D01*
X026834Y022846D01*
X026761Y022833D01*
X026687Y022824D01*
X026613Y022819D01*
X026540Y022818D01*
X026466Y022821D01*
X026392Y022828D01*
X026319Y022839D01*
X026246Y022854D01*
X026175Y022872D01*
X026104Y022895D01*
X026035Y022921D01*
X025967Y022951D01*
X025901Y022985D01*
X025837Y023022D01*
X025775Y023062D01*
X025715Y023106D01*
X025658Y023152D01*
X025603Y023202D01*
X025551Y023255D01*
X025502Y023310D01*
X025456Y023368D01*
X025414Y023429D01*
X025374Y023491D01*
X025338Y023556D01*
X025305Y023622D01*
X025276Y023690D01*
X025251Y023760D01*
X025229Y023830D01*
X025212Y023902D01*
X025198Y023975D01*
X025188Y024048D01*
X025182Y024122D01*
X025180Y024196D01*
X023015Y024589D02*
X023015Y023802D01*
X023015Y022621D02*
X023015Y022286D01*
X022562Y021834D01*
X018743Y021834D01*
X018290Y022286D01*
X018290Y022621D01*
X018684Y022621D01*
X018684Y023802D01*
X018290Y023802D01*
X018290Y024589D01*
X018684Y024589D01*
X018684Y025771D01*
X018290Y025771D01*
X018290Y026105D01*
X018743Y026558D01*
X022562Y026558D01*
X023015Y026105D01*
X023015Y025771D01*
X019274Y024196D02*
X019276Y024270D01*
X019282Y024344D01*
X019292Y024417D01*
X019306Y024490D01*
X019323Y024562D01*
X019345Y024632D01*
X019370Y024702D01*
X019399Y024770D01*
X019432Y024836D01*
X019468Y024901D01*
X019508Y024963D01*
X019550Y025024D01*
X019596Y025082D01*
X019645Y025137D01*
X019697Y025190D01*
X019752Y025240D01*
X019809Y025286D01*
X019869Y025330D01*
X019931Y025370D01*
X019995Y025407D01*
X020061Y025441D01*
X020129Y025471D01*
X020198Y025497D01*
X020269Y025520D01*
X020340Y025538D01*
X020413Y025553D01*
X020486Y025564D01*
X020560Y025571D01*
X020634Y025574D01*
X020707Y025573D01*
X020781Y025568D01*
X020855Y025559D01*
X020928Y025546D01*
X021000Y025529D01*
X021071Y025509D01*
X021141Y025484D01*
X021209Y025456D01*
X021276Y025425D01*
X021341Y025389D01*
X021404Y025351D01*
X021465Y025309D01*
X021524Y025263D01*
X021580Y025215D01*
X021633Y025164D01*
X021683Y025110D01*
X021731Y025053D01*
X021775Y024994D01*
X021817Y024932D01*
X021855Y024869D01*
X021889Y024803D01*
X021920Y024736D01*
X021947Y024667D01*
X021970Y024597D01*
X021990Y024526D01*
X022006Y024453D01*
X022018Y024380D01*
X022026Y024307D01*
X022030Y024233D01*
X022030Y024159D01*
X022026Y024085D01*
X022018Y024012D01*
X022006Y023939D01*
X021990Y023866D01*
X021970Y023795D01*
X021947Y023725D01*
X021920Y023656D01*
X021889Y023589D01*
X021855Y023523D01*
X021817Y023460D01*
X021775Y023398D01*
X021731Y023339D01*
X021683Y023282D01*
X021633Y023228D01*
X021580Y023177D01*
X021524Y023129D01*
X021465Y023083D01*
X021404Y023041D01*
X021341Y023003D01*
X021276Y022967D01*
X021209Y022936D01*
X021141Y022908D01*
X021071Y022883D01*
X021000Y022863D01*
X020928Y022846D01*
X020855Y022833D01*
X020781Y022824D01*
X020707Y022819D01*
X020634Y022818D01*
X020560Y022821D01*
X020486Y022828D01*
X020413Y022839D01*
X020340Y022854D01*
X020269Y022872D01*
X020198Y022895D01*
X020129Y022921D01*
X020061Y022951D01*
X019995Y022985D01*
X019931Y023022D01*
X019869Y023062D01*
X019809Y023106D01*
X019752Y023152D01*
X019697Y023202D01*
X019645Y023255D01*
X019596Y023310D01*
X019550Y023368D01*
X019508Y023429D01*
X019468Y023491D01*
X019432Y023556D01*
X019399Y023622D01*
X019370Y023690D01*
X019345Y023760D01*
X019323Y023830D01*
X019306Y023902D01*
X019292Y023975D01*
X019282Y024048D01*
X019276Y024122D01*
X019274Y024196D01*
X018743Y020652D02*
X018290Y020200D01*
X018290Y019865D01*
X018743Y020652D02*
X022562Y020652D01*
X023015Y020200D01*
X023015Y019865D01*
X022621Y019865D01*
X022621Y018684D01*
X023015Y018684D01*
X023015Y017897D01*
X022621Y017897D01*
X022621Y016715D01*
X023015Y016715D01*
X023015Y016381D01*
X022562Y015928D01*
X018743Y015928D01*
X018290Y016381D01*
X018290Y016715D01*
X018290Y017897D02*
X018290Y018684D01*
X019274Y018290D02*
X019276Y018364D01*
X019282Y018438D01*
X019292Y018511D01*
X019306Y018584D01*
X019323Y018656D01*
X019345Y018726D01*
X019370Y018796D01*
X019399Y018864D01*
X019432Y018930D01*
X019468Y018995D01*
X019508Y019057D01*
X019550Y019118D01*
X019596Y019176D01*
X019645Y019231D01*
X019697Y019284D01*
X019752Y019334D01*
X019809Y019380D01*
X019869Y019424D01*
X019931Y019464D01*
X019995Y019501D01*
X020061Y019535D01*
X020129Y019565D01*
X020198Y019591D01*
X020269Y019614D01*
X020340Y019632D01*
X020413Y019647D01*
X020486Y019658D01*
X020560Y019665D01*
X020634Y019668D01*
X020707Y019667D01*
X020781Y019662D01*
X020855Y019653D01*
X020928Y019640D01*
X021000Y019623D01*
X021071Y019603D01*
X021141Y019578D01*
X021209Y019550D01*
X021276Y019519D01*
X021341Y019483D01*
X021404Y019445D01*
X021465Y019403D01*
X021524Y019357D01*
X021580Y019309D01*
X021633Y019258D01*
X021683Y019204D01*
X021731Y019147D01*
X021775Y019088D01*
X021817Y019026D01*
X021855Y018963D01*
X021889Y018897D01*
X021920Y018830D01*
X021947Y018761D01*
X021970Y018691D01*
X021990Y018620D01*
X022006Y018547D01*
X022018Y018474D01*
X022026Y018401D01*
X022030Y018327D01*
X022030Y018253D01*
X022026Y018179D01*
X022018Y018106D01*
X022006Y018033D01*
X021990Y017960D01*
X021970Y017889D01*
X021947Y017819D01*
X021920Y017750D01*
X021889Y017683D01*
X021855Y017617D01*
X021817Y017554D01*
X021775Y017492D01*
X021731Y017433D01*
X021683Y017376D01*
X021633Y017322D01*
X021580Y017271D01*
X021524Y017223D01*
X021465Y017177D01*
X021404Y017135D01*
X021341Y017097D01*
X021276Y017061D01*
X021209Y017030D01*
X021141Y017002D01*
X021071Y016977D01*
X021000Y016957D01*
X020928Y016940D01*
X020855Y016927D01*
X020781Y016918D01*
X020707Y016913D01*
X020634Y016912D01*
X020560Y016915D01*
X020486Y016922D01*
X020413Y016933D01*
X020340Y016948D01*
X020269Y016966D01*
X020198Y016989D01*
X020129Y017015D01*
X020061Y017045D01*
X019995Y017079D01*
X019931Y017116D01*
X019869Y017156D01*
X019809Y017200D01*
X019752Y017246D01*
X019697Y017296D01*
X019645Y017349D01*
X019596Y017404D01*
X019550Y017462D01*
X019508Y017523D01*
X019468Y017585D01*
X019432Y017650D01*
X019399Y017716D01*
X019370Y017784D01*
X019345Y017854D01*
X019323Y017924D01*
X019306Y017996D01*
X019292Y018069D01*
X019282Y018142D01*
X019276Y018216D01*
X019274Y018290D01*
X015141Y017897D02*
X014747Y017897D01*
X014747Y016715D01*
X015141Y016715D01*
X015141Y016381D01*
X014688Y015928D01*
X010869Y015928D01*
X010416Y016381D01*
X010416Y016715D01*
X009235Y016715D02*
X009235Y016381D01*
X008782Y015928D01*
X004963Y015928D01*
X004511Y016381D01*
X004511Y016715D01*
X004511Y017897D02*
X004511Y018684D01*
X004511Y019865D02*
X004511Y020200D01*
X004963Y020652D01*
X008782Y020652D01*
X009235Y020200D01*
X009235Y019865D01*
X008841Y019865D01*
X008841Y018684D01*
X009235Y018684D01*
X009235Y017897D01*
X008841Y017897D01*
X008841Y016715D01*
X009235Y016715D01*
X010416Y017897D02*
X010416Y018684D01*
X010416Y019865D02*
X010416Y020200D01*
X010869Y020652D01*
X014688Y020652D01*
X015141Y020200D01*
X015141Y019865D01*
X014747Y019865D01*
X014747Y018684D01*
X015141Y018684D01*
X015141Y017897D01*
X011400Y018290D02*
X011402Y018364D01*
X011408Y018438D01*
X011418Y018511D01*
X011432Y018584D01*
X011449Y018656D01*
X011471Y018726D01*
X011496Y018796D01*
X011525Y018864D01*
X011558Y018930D01*
X011594Y018995D01*
X011634Y019057D01*
X011676Y019118D01*
X011722Y019176D01*
X011771Y019231D01*
X011823Y019284D01*
X011878Y019334D01*
X011935Y019380D01*
X011995Y019424D01*
X012057Y019464D01*
X012121Y019501D01*
X012187Y019535D01*
X012255Y019565D01*
X012324Y019591D01*
X012395Y019614D01*
X012466Y019632D01*
X012539Y019647D01*
X012612Y019658D01*
X012686Y019665D01*
X012760Y019668D01*
X012833Y019667D01*
X012907Y019662D01*
X012981Y019653D01*
X013054Y019640D01*
X013126Y019623D01*
X013197Y019603D01*
X013267Y019578D01*
X013335Y019550D01*
X013402Y019519D01*
X013467Y019483D01*
X013530Y019445D01*
X013591Y019403D01*
X013650Y019357D01*
X013706Y019309D01*
X013759Y019258D01*
X013809Y019204D01*
X013857Y019147D01*
X013901Y019088D01*
X013943Y019026D01*
X013981Y018963D01*
X014015Y018897D01*
X014046Y018830D01*
X014073Y018761D01*
X014096Y018691D01*
X014116Y018620D01*
X014132Y018547D01*
X014144Y018474D01*
X014152Y018401D01*
X014156Y018327D01*
X014156Y018253D01*
X014152Y018179D01*
X014144Y018106D01*
X014132Y018033D01*
X014116Y017960D01*
X014096Y017889D01*
X014073Y017819D01*
X014046Y017750D01*
X014015Y017683D01*
X013981Y017617D01*
X013943Y017554D01*
X013901Y017492D01*
X013857Y017433D01*
X013809Y017376D01*
X013759Y017322D01*
X013706Y017271D01*
X013650Y017223D01*
X013591Y017177D01*
X013530Y017135D01*
X013467Y017097D01*
X013402Y017061D01*
X013335Y017030D01*
X013267Y017002D01*
X013197Y016977D01*
X013126Y016957D01*
X013054Y016940D01*
X012981Y016927D01*
X012907Y016918D01*
X012833Y016913D01*
X012760Y016912D01*
X012686Y016915D01*
X012612Y016922D01*
X012539Y016933D01*
X012466Y016948D01*
X012395Y016966D01*
X012324Y016989D01*
X012255Y017015D01*
X012187Y017045D01*
X012121Y017079D01*
X012057Y017116D01*
X011995Y017156D01*
X011935Y017200D01*
X011878Y017246D01*
X011823Y017296D01*
X011771Y017349D01*
X011722Y017404D01*
X011676Y017462D01*
X011634Y017523D01*
X011594Y017585D01*
X011558Y017650D01*
X011525Y017716D01*
X011496Y017784D01*
X011471Y017854D01*
X011449Y017924D01*
X011432Y017996D01*
X011418Y018069D01*
X011408Y018142D01*
X011402Y018216D01*
X011400Y018290D01*
X010869Y021834D02*
X010416Y022286D01*
X010416Y022621D01*
X010810Y022621D01*
X010810Y023802D01*
X010416Y023802D01*
X010416Y024589D01*
X010810Y024589D01*
X010810Y025771D01*
X010416Y025771D01*
X010416Y026105D01*
X010869Y026558D01*
X014688Y026558D01*
X015141Y026105D01*
X015141Y025771D01*
X015141Y024589D02*
X015141Y023802D01*
X015141Y022621D02*
X015141Y022286D01*
X014688Y021834D01*
X010869Y021834D01*
X009235Y022286D02*
X008782Y021834D01*
X004963Y021834D01*
X004511Y022286D01*
X004511Y022621D01*
X004904Y022621D01*
X004904Y023802D01*
X004511Y023802D01*
X004511Y024589D01*
X004904Y024589D01*
X004904Y025771D01*
X004511Y025771D01*
X004511Y026105D01*
X004963Y026558D01*
X008782Y026558D01*
X009235Y026105D01*
X009235Y025771D01*
X009235Y024589D02*
X009235Y023802D01*
X009235Y022621D02*
X009235Y022286D01*
X005495Y024196D02*
X005497Y024270D01*
X005503Y024344D01*
X005513Y024417D01*
X005527Y024490D01*
X005544Y024562D01*
X005566Y024632D01*
X005591Y024702D01*
X005620Y024770D01*
X005653Y024836D01*
X005689Y024901D01*
X005729Y024963D01*
X005771Y025024D01*
X005817Y025082D01*
X005866Y025137D01*
X005918Y025190D01*
X005973Y025240D01*
X006030Y025286D01*
X006090Y025330D01*
X006152Y025370D01*
X006216Y025407D01*
X006282Y025441D01*
X006350Y025471D01*
X006419Y025497D01*
X006490Y025520D01*
X006561Y025538D01*
X006634Y025553D01*
X006707Y025564D01*
X006781Y025571D01*
X006855Y025574D01*
X006928Y025573D01*
X007002Y025568D01*
X007076Y025559D01*
X007149Y025546D01*
X007221Y025529D01*
X007292Y025509D01*
X007362Y025484D01*
X007430Y025456D01*
X007497Y025425D01*
X007562Y025389D01*
X007625Y025351D01*
X007686Y025309D01*
X007745Y025263D01*
X007801Y025215D01*
X007854Y025164D01*
X007904Y025110D01*
X007952Y025053D01*
X007996Y024994D01*
X008038Y024932D01*
X008076Y024869D01*
X008110Y024803D01*
X008141Y024736D01*
X008168Y024667D01*
X008191Y024597D01*
X008211Y024526D01*
X008227Y024453D01*
X008239Y024380D01*
X008247Y024307D01*
X008251Y024233D01*
X008251Y024159D01*
X008247Y024085D01*
X008239Y024012D01*
X008227Y023939D01*
X008211Y023866D01*
X008191Y023795D01*
X008168Y023725D01*
X008141Y023656D01*
X008110Y023589D01*
X008076Y023523D01*
X008038Y023460D01*
X007996Y023398D01*
X007952Y023339D01*
X007904Y023282D01*
X007854Y023228D01*
X007801Y023177D01*
X007745Y023129D01*
X007686Y023083D01*
X007625Y023041D01*
X007562Y023003D01*
X007497Y022967D01*
X007430Y022936D01*
X007362Y022908D01*
X007292Y022883D01*
X007221Y022863D01*
X007149Y022846D01*
X007076Y022833D01*
X007002Y022824D01*
X006928Y022819D01*
X006855Y022818D01*
X006781Y022821D01*
X006707Y022828D01*
X006634Y022839D01*
X006561Y022854D01*
X006490Y022872D01*
X006419Y022895D01*
X006350Y022921D01*
X006282Y022951D01*
X006216Y022985D01*
X006152Y023022D01*
X006090Y023062D01*
X006030Y023106D01*
X005973Y023152D01*
X005918Y023202D01*
X005866Y023255D01*
X005817Y023310D01*
X005771Y023368D01*
X005729Y023429D01*
X005689Y023491D01*
X005653Y023556D01*
X005620Y023622D01*
X005591Y023690D01*
X005566Y023760D01*
X005544Y023830D01*
X005527Y023902D01*
X005513Y023975D01*
X005503Y024048D01*
X005497Y024122D01*
X005495Y024196D01*
X005495Y018290D02*
X005497Y018364D01*
X005503Y018438D01*
X005513Y018511D01*
X005527Y018584D01*
X005544Y018656D01*
X005566Y018726D01*
X005591Y018796D01*
X005620Y018864D01*
X005653Y018930D01*
X005689Y018995D01*
X005729Y019057D01*
X005771Y019118D01*
X005817Y019176D01*
X005866Y019231D01*
X005918Y019284D01*
X005973Y019334D01*
X006030Y019380D01*
X006090Y019424D01*
X006152Y019464D01*
X006216Y019501D01*
X006282Y019535D01*
X006350Y019565D01*
X006419Y019591D01*
X006490Y019614D01*
X006561Y019632D01*
X006634Y019647D01*
X006707Y019658D01*
X006781Y019665D01*
X006855Y019668D01*
X006928Y019667D01*
X007002Y019662D01*
X007076Y019653D01*
X007149Y019640D01*
X007221Y019623D01*
X007292Y019603D01*
X007362Y019578D01*
X007430Y019550D01*
X007497Y019519D01*
X007562Y019483D01*
X007625Y019445D01*
X007686Y019403D01*
X007745Y019357D01*
X007801Y019309D01*
X007854Y019258D01*
X007904Y019204D01*
X007952Y019147D01*
X007996Y019088D01*
X008038Y019026D01*
X008076Y018963D01*
X008110Y018897D01*
X008141Y018830D01*
X008168Y018761D01*
X008191Y018691D01*
X008211Y018620D01*
X008227Y018547D01*
X008239Y018474D01*
X008247Y018401D01*
X008251Y018327D01*
X008251Y018253D01*
X008247Y018179D01*
X008239Y018106D01*
X008227Y018033D01*
X008211Y017960D01*
X008191Y017889D01*
X008168Y017819D01*
X008141Y017750D01*
X008110Y017683D01*
X008076Y017617D01*
X008038Y017554D01*
X007996Y017492D01*
X007952Y017433D01*
X007904Y017376D01*
X007854Y017322D01*
X007801Y017271D01*
X007745Y017223D01*
X007686Y017177D01*
X007625Y017135D01*
X007562Y017097D01*
X007497Y017061D01*
X007430Y017030D01*
X007362Y017002D01*
X007292Y016977D01*
X007221Y016957D01*
X007149Y016940D01*
X007076Y016927D01*
X007002Y016918D01*
X006928Y016913D01*
X006855Y016912D01*
X006781Y016915D01*
X006707Y016922D01*
X006634Y016933D01*
X006561Y016948D01*
X006490Y016966D01*
X006419Y016989D01*
X006350Y017015D01*
X006282Y017045D01*
X006216Y017079D01*
X006152Y017116D01*
X006090Y017156D01*
X006030Y017200D01*
X005973Y017246D01*
X005918Y017296D01*
X005866Y017349D01*
X005817Y017404D01*
X005771Y017462D01*
X005729Y017523D01*
X005689Y017585D01*
X005653Y017650D01*
X005620Y017716D01*
X005591Y017784D01*
X005566Y017854D01*
X005544Y017924D01*
X005527Y017996D01*
X005513Y018069D01*
X005503Y018142D01*
X005497Y018216D01*
X005495Y018290D01*
X004963Y012778D02*
X004511Y012326D01*
X004511Y011991D01*
X004904Y011991D01*
X004904Y010810D01*
X004511Y010810D01*
X004511Y010023D01*
X004904Y010023D01*
X004904Y008841D01*
X004511Y008841D01*
X004511Y008507D01*
X004963Y008054D01*
X008782Y008054D01*
X009235Y008507D01*
X009235Y008841D01*
X010416Y008841D02*
X010416Y008507D01*
X010869Y008054D01*
X014688Y008054D01*
X015141Y008507D01*
X015141Y008841D01*
X015141Y010023D02*
X015141Y010810D01*
X015141Y011991D02*
X015141Y012326D01*
X014688Y012778D01*
X010869Y012778D01*
X010416Y012326D01*
X010416Y011991D01*
X010810Y011991D01*
X010810Y010810D01*
X010416Y010810D01*
X010416Y010023D01*
X010810Y010023D01*
X010810Y008841D01*
X010416Y008841D01*
X009235Y010023D02*
X009235Y010810D01*
X009235Y011991D02*
X009235Y012326D01*
X008782Y012778D01*
X004963Y012778D01*
X005495Y010416D02*
X005497Y010490D01*
X005503Y010564D01*
X005513Y010637D01*
X005527Y010710D01*
X005544Y010782D01*
X005566Y010852D01*
X005591Y010922D01*
X005620Y010990D01*
X005653Y011056D01*
X005689Y011121D01*
X005729Y011183D01*
X005771Y011244D01*
X005817Y011302D01*
X005866Y011357D01*
X005918Y011410D01*
X005973Y011460D01*
X006030Y011506D01*
X006090Y011550D01*
X006152Y011590D01*
X006216Y011627D01*
X006282Y011661D01*
X006350Y011691D01*
X006419Y011717D01*
X006490Y011740D01*
X006561Y011758D01*
X006634Y011773D01*
X006707Y011784D01*
X006781Y011791D01*
X006855Y011794D01*
X006928Y011793D01*
X007002Y011788D01*
X007076Y011779D01*
X007149Y011766D01*
X007221Y011749D01*
X007292Y011729D01*
X007362Y011704D01*
X007430Y011676D01*
X007497Y011645D01*
X007562Y011609D01*
X007625Y011571D01*
X007686Y011529D01*
X007745Y011483D01*
X007801Y011435D01*
X007854Y011384D01*
X007904Y011330D01*
X007952Y011273D01*
X007996Y011214D01*
X008038Y011152D01*
X008076Y011089D01*
X008110Y011023D01*
X008141Y010956D01*
X008168Y010887D01*
X008191Y010817D01*
X008211Y010746D01*
X008227Y010673D01*
X008239Y010600D01*
X008247Y010527D01*
X008251Y010453D01*
X008251Y010379D01*
X008247Y010305D01*
X008239Y010232D01*
X008227Y010159D01*
X008211Y010086D01*
X008191Y010015D01*
X008168Y009945D01*
X008141Y009876D01*
X008110Y009809D01*
X008076Y009743D01*
X008038Y009680D01*
X007996Y009618D01*
X007952Y009559D01*
X007904Y009502D01*
X007854Y009448D01*
X007801Y009397D01*
X007745Y009349D01*
X007686Y009303D01*
X007625Y009261D01*
X007562Y009223D01*
X007497Y009187D01*
X007430Y009156D01*
X007362Y009128D01*
X007292Y009103D01*
X007221Y009083D01*
X007149Y009066D01*
X007076Y009053D01*
X007002Y009044D01*
X006928Y009039D01*
X006855Y009038D01*
X006781Y009041D01*
X006707Y009048D01*
X006634Y009059D01*
X006561Y009074D01*
X006490Y009092D01*
X006419Y009115D01*
X006350Y009141D01*
X006282Y009171D01*
X006216Y009205D01*
X006152Y009242D01*
X006090Y009282D01*
X006030Y009326D01*
X005973Y009372D01*
X005918Y009422D01*
X005866Y009475D01*
X005817Y009530D01*
X005771Y009588D01*
X005729Y009649D01*
X005689Y009711D01*
X005653Y009776D01*
X005620Y009842D01*
X005591Y009910D01*
X005566Y009980D01*
X005544Y010050D01*
X005527Y010122D01*
X005513Y010195D01*
X005503Y010268D01*
X005497Y010342D01*
X005495Y010416D01*
X004963Y006873D02*
X004511Y006420D01*
X004511Y006086D01*
X004963Y006873D02*
X008782Y006873D01*
X009235Y006420D01*
X009235Y006086D01*
X008841Y006086D01*
X008841Y004904D01*
X009235Y004904D01*
X009235Y004117D01*
X008841Y004117D01*
X008841Y002936D01*
X009235Y002936D01*
X009235Y002601D01*
X008782Y002149D01*
X004963Y002149D01*
X004511Y002601D01*
X004511Y002936D01*
X004511Y004117D02*
X004511Y004904D01*
X005495Y004511D02*
X005497Y004585D01*
X005503Y004659D01*
X005513Y004732D01*
X005527Y004805D01*
X005544Y004877D01*
X005566Y004947D01*
X005591Y005017D01*
X005620Y005085D01*
X005653Y005151D01*
X005689Y005216D01*
X005729Y005278D01*
X005771Y005339D01*
X005817Y005397D01*
X005866Y005452D01*
X005918Y005505D01*
X005973Y005555D01*
X006030Y005601D01*
X006090Y005645D01*
X006152Y005685D01*
X006216Y005722D01*
X006282Y005756D01*
X006350Y005786D01*
X006419Y005812D01*
X006490Y005835D01*
X006561Y005853D01*
X006634Y005868D01*
X006707Y005879D01*
X006781Y005886D01*
X006855Y005889D01*
X006928Y005888D01*
X007002Y005883D01*
X007076Y005874D01*
X007149Y005861D01*
X007221Y005844D01*
X007292Y005824D01*
X007362Y005799D01*
X007430Y005771D01*
X007497Y005740D01*
X007562Y005704D01*
X007625Y005666D01*
X007686Y005624D01*
X007745Y005578D01*
X007801Y005530D01*
X007854Y005479D01*
X007904Y005425D01*
X007952Y005368D01*
X007996Y005309D01*
X008038Y005247D01*
X008076Y005184D01*
X008110Y005118D01*
X008141Y005051D01*
X008168Y004982D01*
X008191Y004912D01*
X008211Y004841D01*
X008227Y004768D01*
X008239Y004695D01*
X008247Y004622D01*
X008251Y004548D01*
X008251Y004474D01*
X008247Y004400D01*
X008239Y004327D01*
X008227Y004254D01*
X008211Y004181D01*
X008191Y004110D01*
X008168Y004040D01*
X008141Y003971D01*
X008110Y003904D01*
X008076Y003838D01*
X008038Y003775D01*
X007996Y003713D01*
X007952Y003654D01*
X007904Y003597D01*
X007854Y003543D01*
X007801Y003492D01*
X007745Y003444D01*
X007686Y003398D01*
X007625Y003356D01*
X007562Y003318D01*
X007497Y003282D01*
X007430Y003251D01*
X007362Y003223D01*
X007292Y003198D01*
X007221Y003178D01*
X007149Y003161D01*
X007076Y003148D01*
X007002Y003139D01*
X006928Y003134D01*
X006855Y003133D01*
X006781Y003136D01*
X006707Y003143D01*
X006634Y003154D01*
X006561Y003169D01*
X006490Y003187D01*
X006419Y003210D01*
X006350Y003236D01*
X006282Y003266D01*
X006216Y003300D01*
X006152Y003337D01*
X006090Y003377D01*
X006030Y003421D01*
X005973Y003467D01*
X005918Y003517D01*
X005866Y003570D01*
X005817Y003625D01*
X005771Y003683D01*
X005729Y003744D01*
X005689Y003806D01*
X005653Y003871D01*
X005620Y003937D01*
X005591Y004005D01*
X005566Y004075D01*
X005544Y004145D01*
X005527Y004217D01*
X005513Y004290D01*
X005503Y004363D01*
X005497Y004437D01*
X005495Y004511D01*
X010416Y004117D02*
X010416Y004904D01*
X010416Y006086D02*
X010416Y006420D01*
X010869Y006873D01*
X014688Y006873D01*
X015141Y006420D01*
X015141Y006086D01*
X014747Y006086D01*
X014747Y004904D01*
X015141Y004904D01*
X015141Y004117D01*
X014747Y004117D01*
X014747Y002936D01*
X015141Y002936D01*
X015141Y002601D01*
X014688Y002149D01*
X010869Y002149D01*
X010416Y002601D01*
X010416Y002936D01*
X011400Y004511D02*
X011402Y004585D01*
X011408Y004659D01*
X011418Y004732D01*
X011432Y004805D01*
X011449Y004877D01*
X011471Y004947D01*
X011496Y005017D01*
X011525Y005085D01*
X011558Y005151D01*
X011594Y005216D01*
X011634Y005278D01*
X011676Y005339D01*
X011722Y005397D01*
X011771Y005452D01*
X011823Y005505D01*
X011878Y005555D01*
X011935Y005601D01*
X011995Y005645D01*
X012057Y005685D01*
X012121Y005722D01*
X012187Y005756D01*
X012255Y005786D01*
X012324Y005812D01*
X012395Y005835D01*
X012466Y005853D01*
X012539Y005868D01*
X012612Y005879D01*
X012686Y005886D01*
X012760Y005889D01*
X012833Y005888D01*
X012907Y005883D01*
X012981Y005874D01*
X013054Y005861D01*
X013126Y005844D01*
X013197Y005824D01*
X013267Y005799D01*
X013335Y005771D01*
X013402Y005740D01*
X013467Y005704D01*
X013530Y005666D01*
X013591Y005624D01*
X013650Y005578D01*
X013706Y005530D01*
X013759Y005479D01*
X013809Y005425D01*
X013857Y005368D01*
X013901Y005309D01*
X013943Y005247D01*
X013981Y005184D01*
X014015Y005118D01*
X014046Y005051D01*
X014073Y004982D01*
X014096Y004912D01*
X014116Y004841D01*
X014132Y004768D01*
X014144Y004695D01*
X014152Y004622D01*
X014156Y004548D01*
X014156Y004474D01*
X014152Y004400D01*
X014144Y004327D01*
X014132Y004254D01*
X014116Y004181D01*
X014096Y004110D01*
X014073Y004040D01*
X014046Y003971D01*
X014015Y003904D01*
X013981Y003838D01*
X013943Y003775D01*
X013901Y003713D01*
X013857Y003654D01*
X013809Y003597D01*
X013759Y003543D01*
X013706Y003492D01*
X013650Y003444D01*
X013591Y003398D01*
X013530Y003356D01*
X013467Y003318D01*
X013402Y003282D01*
X013335Y003251D01*
X013267Y003223D01*
X013197Y003198D01*
X013126Y003178D01*
X013054Y003161D01*
X012981Y003148D01*
X012907Y003139D01*
X012833Y003134D01*
X012760Y003133D01*
X012686Y003136D01*
X012612Y003143D01*
X012539Y003154D01*
X012466Y003169D01*
X012395Y003187D01*
X012324Y003210D01*
X012255Y003236D01*
X012187Y003266D01*
X012121Y003300D01*
X012057Y003337D01*
X011995Y003377D01*
X011935Y003421D01*
X011878Y003467D01*
X011823Y003517D01*
X011771Y003570D01*
X011722Y003625D01*
X011676Y003683D01*
X011634Y003744D01*
X011594Y003806D01*
X011558Y003871D01*
X011525Y003937D01*
X011496Y004005D01*
X011471Y004075D01*
X011449Y004145D01*
X011432Y004217D01*
X011418Y004290D01*
X011408Y004363D01*
X011402Y004437D01*
X011400Y004511D01*
X011400Y010416D02*
X011402Y010490D01*
X011408Y010564D01*
X011418Y010637D01*
X011432Y010710D01*
X011449Y010782D01*
X011471Y010852D01*
X011496Y010922D01*
X011525Y010990D01*
X011558Y011056D01*
X011594Y011121D01*
X011634Y011183D01*
X011676Y011244D01*
X011722Y011302D01*
X011771Y011357D01*
X011823Y011410D01*
X011878Y011460D01*
X011935Y011506D01*
X011995Y011550D01*
X012057Y011590D01*
X012121Y011627D01*
X012187Y011661D01*
X012255Y011691D01*
X012324Y011717D01*
X012395Y011740D01*
X012466Y011758D01*
X012539Y011773D01*
X012612Y011784D01*
X012686Y011791D01*
X012760Y011794D01*
X012833Y011793D01*
X012907Y011788D01*
X012981Y011779D01*
X013054Y011766D01*
X013126Y011749D01*
X013197Y011729D01*
X013267Y011704D01*
X013335Y011676D01*
X013402Y011645D01*
X013467Y011609D01*
X013530Y011571D01*
X013591Y011529D01*
X013650Y011483D01*
X013706Y011435D01*
X013759Y011384D01*
X013809Y011330D01*
X013857Y011273D01*
X013901Y011214D01*
X013943Y011152D01*
X013981Y011089D01*
X014015Y011023D01*
X014046Y010956D01*
X014073Y010887D01*
X014096Y010817D01*
X014116Y010746D01*
X014132Y010673D01*
X014144Y010600D01*
X014152Y010527D01*
X014156Y010453D01*
X014156Y010379D01*
X014152Y010305D01*
X014144Y010232D01*
X014132Y010159D01*
X014116Y010086D01*
X014096Y010015D01*
X014073Y009945D01*
X014046Y009876D01*
X014015Y009809D01*
X013981Y009743D01*
X013943Y009680D01*
X013901Y009618D01*
X013857Y009559D01*
X013809Y009502D01*
X013759Y009448D01*
X013706Y009397D01*
X013650Y009349D01*
X013591Y009303D01*
X013530Y009261D01*
X013467Y009223D01*
X013402Y009187D01*
X013335Y009156D01*
X013267Y009128D01*
X013197Y009103D01*
X013126Y009083D01*
X013054Y009066D01*
X012981Y009053D01*
X012907Y009044D01*
X012833Y009039D01*
X012760Y009038D01*
X012686Y009041D01*
X012612Y009048D01*
X012539Y009059D01*
X012466Y009074D01*
X012395Y009092D01*
X012324Y009115D01*
X012255Y009141D01*
X012187Y009171D01*
X012121Y009205D01*
X012057Y009242D01*
X011995Y009282D01*
X011935Y009326D01*
X011878Y009372D01*
X011823Y009422D01*
X011771Y009475D01*
X011722Y009530D01*
X011676Y009588D01*
X011634Y009649D01*
X011594Y009711D01*
X011558Y009776D01*
X011525Y009842D01*
X011496Y009910D01*
X011471Y009980D01*
X011449Y010050D01*
X011432Y010122D01*
X011418Y010195D01*
X011408Y010268D01*
X011402Y010342D01*
X011400Y010416D01*
X018290Y010023D02*
X018684Y010023D01*
X018684Y008841D01*
X018290Y008841D01*
X018290Y008507D01*
X018743Y008054D01*
X022562Y008054D01*
X023015Y008507D01*
X023015Y008841D01*
X024196Y008841D02*
X024196Y008507D01*
X024649Y008054D01*
X028467Y008054D01*
X028920Y008507D01*
X028920Y008841D01*
X028920Y010023D02*
X028920Y010810D01*
X028920Y011991D02*
X028920Y012326D01*
X028467Y012778D01*
X024649Y012778D01*
X024196Y012326D01*
X024196Y011991D01*
X024589Y011991D01*
X024589Y010810D01*
X024196Y010810D01*
X024196Y010023D01*
X024589Y010023D01*
X024589Y008841D01*
X024196Y008841D01*
X023015Y010023D02*
X023015Y010810D01*
X023015Y011991D02*
X023015Y012326D01*
X022562Y012778D01*
X018743Y012778D01*
X018290Y012326D01*
X018290Y011991D01*
X018684Y011991D01*
X018684Y010810D01*
X018290Y010810D01*
X018290Y010023D01*
X019274Y010416D02*
X019276Y010490D01*
X019282Y010564D01*
X019292Y010637D01*
X019306Y010710D01*
X019323Y010782D01*
X019345Y010852D01*
X019370Y010922D01*
X019399Y010990D01*
X019432Y011056D01*
X019468Y011121D01*
X019508Y011183D01*
X019550Y011244D01*
X019596Y011302D01*
X019645Y011357D01*
X019697Y011410D01*
X019752Y011460D01*
X019809Y011506D01*
X019869Y011550D01*
X019931Y011590D01*
X019995Y011627D01*
X020061Y011661D01*
X020129Y011691D01*
X020198Y011717D01*
X020269Y011740D01*
X020340Y011758D01*
X020413Y011773D01*
X020486Y011784D01*
X020560Y011791D01*
X020634Y011794D01*
X020707Y011793D01*
X020781Y011788D01*
X020855Y011779D01*
X020928Y011766D01*
X021000Y011749D01*
X021071Y011729D01*
X021141Y011704D01*
X021209Y011676D01*
X021276Y011645D01*
X021341Y011609D01*
X021404Y011571D01*
X021465Y011529D01*
X021524Y011483D01*
X021580Y011435D01*
X021633Y011384D01*
X021683Y011330D01*
X021731Y011273D01*
X021775Y011214D01*
X021817Y011152D01*
X021855Y011089D01*
X021889Y011023D01*
X021920Y010956D01*
X021947Y010887D01*
X021970Y010817D01*
X021990Y010746D01*
X022006Y010673D01*
X022018Y010600D01*
X022026Y010527D01*
X022030Y010453D01*
X022030Y010379D01*
X022026Y010305D01*
X022018Y010232D01*
X022006Y010159D01*
X021990Y010086D01*
X021970Y010015D01*
X021947Y009945D01*
X021920Y009876D01*
X021889Y009809D01*
X021855Y009743D01*
X021817Y009680D01*
X021775Y009618D01*
X021731Y009559D01*
X021683Y009502D01*
X021633Y009448D01*
X021580Y009397D01*
X021524Y009349D01*
X021465Y009303D01*
X021404Y009261D01*
X021341Y009223D01*
X021276Y009187D01*
X021209Y009156D01*
X021141Y009128D01*
X021071Y009103D01*
X021000Y009083D01*
X020928Y009066D01*
X020855Y009053D01*
X020781Y009044D01*
X020707Y009039D01*
X020634Y009038D01*
X020560Y009041D01*
X020486Y009048D01*
X020413Y009059D01*
X020340Y009074D01*
X020269Y009092D01*
X020198Y009115D01*
X020129Y009141D01*
X020061Y009171D01*
X019995Y009205D01*
X019931Y009242D01*
X019869Y009282D01*
X019809Y009326D01*
X019752Y009372D01*
X019697Y009422D01*
X019645Y009475D01*
X019596Y009530D01*
X019550Y009588D01*
X019508Y009649D01*
X019468Y009711D01*
X019432Y009776D01*
X019399Y009842D01*
X019370Y009910D01*
X019345Y009980D01*
X019323Y010050D01*
X019306Y010122D01*
X019292Y010195D01*
X019282Y010268D01*
X019276Y010342D01*
X019274Y010416D01*
X018743Y006873D02*
X018290Y006420D01*
X018290Y006086D01*
X018743Y006873D02*
X022562Y006873D01*
X023015Y006420D01*
X023015Y006086D01*
X022621Y006086D01*
X022621Y004904D01*
X023015Y004904D01*
X023015Y004117D01*
X022621Y004117D01*
X022621Y002936D01*
X023015Y002936D01*
X023015Y002601D01*
X022562Y002149D01*
X018743Y002149D01*
X018290Y002601D01*
X018290Y002936D01*
X018290Y004117D02*
X018290Y004904D01*
X019274Y004511D02*
X019276Y004585D01*
X019282Y004659D01*
X019292Y004732D01*
X019306Y004805D01*
X019323Y004877D01*
X019345Y004947D01*
X019370Y005017D01*
X019399Y005085D01*
X019432Y005151D01*
X019468Y005216D01*
X019508Y005278D01*
X019550Y005339D01*
X019596Y005397D01*
X019645Y005452D01*
X019697Y005505D01*
X019752Y005555D01*
X019809Y005601D01*
X019869Y005645D01*
X019931Y005685D01*
X019995Y005722D01*
X020061Y005756D01*
X020129Y005786D01*
X020198Y005812D01*
X020269Y005835D01*
X020340Y005853D01*
X020413Y005868D01*
X020486Y005879D01*
X020560Y005886D01*
X020634Y005889D01*
X020707Y005888D01*
X020781Y005883D01*
X020855Y005874D01*
X020928Y005861D01*
X021000Y005844D01*
X021071Y005824D01*
X021141Y005799D01*
X021209Y005771D01*
X021276Y005740D01*
X021341Y005704D01*
X021404Y005666D01*
X021465Y005624D01*
X021524Y005578D01*
X021580Y005530D01*
X021633Y005479D01*
X021683Y005425D01*
X021731Y005368D01*
X021775Y005309D01*
X021817Y005247D01*
X021855Y005184D01*
X021889Y005118D01*
X021920Y005051D01*
X021947Y004982D01*
X021970Y004912D01*
X021990Y004841D01*
X022006Y004768D01*
X022018Y004695D01*
X022026Y004622D01*
X022030Y004548D01*
X022030Y004474D01*
X022026Y004400D01*
X022018Y004327D01*
X022006Y004254D01*
X021990Y004181D01*
X021970Y004110D01*
X021947Y004040D01*
X021920Y003971D01*
X021889Y003904D01*
X021855Y003838D01*
X021817Y003775D01*
X021775Y003713D01*
X021731Y003654D01*
X021683Y003597D01*
X021633Y003543D01*
X021580Y003492D01*
X021524Y003444D01*
X021465Y003398D01*
X021404Y003356D01*
X021341Y003318D01*
X021276Y003282D01*
X021209Y003251D01*
X021141Y003223D01*
X021071Y003198D01*
X021000Y003178D01*
X020928Y003161D01*
X020855Y003148D01*
X020781Y003139D01*
X020707Y003134D01*
X020634Y003133D01*
X020560Y003136D01*
X020486Y003143D01*
X020413Y003154D01*
X020340Y003169D01*
X020269Y003187D01*
X020198Y003210D01*
X020129Y003236D01*
X020061Y003266D01*
X019995Y003300D01*
X019931Y003337D01*
X019869Y003377D01*
X019809Y003421D01*
X019752Y003467D01*
X019697Y003517D01*
X019645Y003570D01*
X019596Y003625D01*
X019550Y003683D01*
X019508Y003744D01*
X019468Y003806D01*
X019432Y003871D01*
X019399Y003937D01*
X019370Y004005D01*
X019345Y004075D01*
X019323Y004145D01*
X019306Y004217D01*
X019292Y004290D01*
X019282Y004363D01*
X019276Y004437D01*
X019274Y004511D01*
X024196Y004117D02*
X024196Y004904D01*
X024196Y006086D02*
X024196Y006420D01*
X024649Y006873D01*
X028467Y006873D01*
X028920Y006420D01*
X028920Y006086D01*
X028526Y006086D01*
X028526Y004904D01*
X028920Y004904D01*
X028920Y004117D01*
X028526Y004117D01*
X028526Y002936D01*
X028920Y002936D01*
X028920Y002601D01*
X028467Y002149D01*
X024649Y002149D01*
X024196Y002601D01*
X024196Y002936D01*
X025180Y004511D02*
X025182Y004585D01*
X025188Y004659D01*
X025198Y004732D01*
X025212Y004805D01*
X025229Y004877D01*
X025251Y004947D01*
X025276Y005017D01*
X025305Y005085D01*
X025338Y005151D01*
X025374Y005216D01*
X025414Y005278D01*
X025456Y005339D01*
X025502Y005397D01*
X025551Y005452D01*
X025603Y005505D01*
X025658Y005555D01*
X025715Y005601D01*
X025775Y005645D01*
X025837Y005685D01*
X025901Y005722D01*
X025967Y005756D01*
X026035Y005786D01*
X026104Y005812D01*
X026175Y005835D01*
X026246Y005853D01*
X026319Y005868D01*
X026392Y005879D01*
X026466Y005886D01*
X026540Y005889D01*
X026613Y005888D01*
X026687Y005883D01*
X026761Y005874D01*
X026834Y005861D01*
X026906Y005844D01*
X026977Y005824D01*
X027047Y005799D01*
X027115Y005771D01*
X027182Y005740D01*
X027247Y005704D01*
X027310Y005666D01*
X027371Y005624D01*
X027430Y005578D01*
X027486Y005530D01*
X027539Y005479D01*
X027589Y005425D01*
X027637Y005368D01*
X027681Y005309D01*
X027723Y005247D01*
X027761Y005184D01*
X027795Y005118D01*
X027826Y005051D01*
X027853Y004982D01*
X027876Y004912D01*
X027896Y004841D01*
X027912Y004768D01*
X027924Y004695D01*
X027932Y004622D01*
X027936Y004548D01*
X027936Y004474D01*
X027932Y004400D01*
X027924Y004327D01*
X027912Y004254D01*
X027896Y004181D01*
X027876Y004110D01*
X027853Y004040D01*
X027826Y003971D01*
X027795Y003904D01*
X027761Y003838D01*
X027723Y003775D01*
X027681Y003713D01*
X027637Y003654D01*
X027589Y003597D01*
X027539Y003543D01*
X027486Y003492D01*
X027430Y003444D01*
X027371Y003398D01*
X027310Y003356D01*
X027247Y003318D01*
X027182Y003282D01*
X027115Y003251D01*
X027047Y003223D01*
X026977Y003198D01*
X026906Y003178D01*
X026834Y003161D01*
X026761Y003148D01*
X026687Y003139D01*
X026613Y003134D01*
X026540Y003133D01*
X026466Y003136D01*
X026392Y003143D01*
X026319Y003154D01*
X026246Y003169D01*
X026175Y003187D01*
X026104Y003210D01*
X026035Y003236D01*
X025967Y003266D01*
X025901Y003300D01*
X025837Y003337D01*
X025775Y003377D01*
X025715Y003421D01*
X025658Y003467D01*
X025603Y003517D01*
X025551Y003570D01*
X025502Y003625D01*
X025456Y003683D01*
X025414Y003744D01*
X025374Y003806D01*
X025338Y003871D01*
X025305Y003937D01*
X025276Y004005D01*
X025251Y004075D01*
X025229Y004145D01*
X025212Y004217D01*
X025198Y004290D01*
X025188Y004363D01*
X025182Y004437D01*
X025180Y004511D01*
X025180Y010416D02*
X025182Y010490D01*
X025188Y010564D01*
X025198Y010637D01*
X025212Y010710D01*
X025229Y010782D01*
X025251Y010852D01*
X025276Y010922D01*
X025305Y010990D01*
X025338Y011056D01*
X025374Y011121D01*
X025414Y011183D01*
X025456Y011244D01*
X025502Y011302D01*
X025551Y011357D01*
X025603Y011410D01*
X025658Y011460D01*
X025715Y011506D01*
X025775Y011550D01*
X025837Y011590D01*
X025901Y011627D01*
X025967Y011661D01*
X026035Y011691D01*
X026104Y011717D01*
X026175Y011740D01*
X026246Y011758D01*
X026319Y011773D01*
X026392Y011784D01*
X026466Y011791D01*
X026540Y011794D01*
X026613Y011793D01*
X026687Y011788D01*
X026761Y011779D01*
X026834Y011766D01*
X026906Y011749D01*
X026977Y011729D01*
X027047Y011704D01*
X027115Y011676D01*
X027182Y011645D01*
X027247Y011609D01*
X027310Y011571D01*
X027371Y011529D01*
X027430Y011483D01*
X027486Y011435D01*
X027539Y011384D01*
X027589Y011330D01*
X027637Y011273D01*
X027681Y011214D01*
X027723Y011152D01*
X027761Y011089D01*
X027795Y011023D01*
X027826Y010956D01*
X027853Y010887D01*
X027876Y010817D01*
X027896Y010746D01*
X027912Y010673D01*
X027924Y010600D01*
X027932Y010527D01*
X027936Y010453D01*
X027936Y010379D01*
X027932Y010305D01*
X027924Y010232D01*
X027912Y010159D01*
X027896Y010086D01*
X027876Y010015D01*
X027853Y009945D01*
X027826Y009876D01*
X027795Y009809D01*
X027761Y009743D01*
X027723Y009680D01*
X027681Y009618D01*
X027637Y009559D01*
X027589Y009502D01*
X027539Y009448D01*
X027486Y009397D01*
X027430Y009349D01*
X027371Y009303D01*
X027310Y009261D01*
X027247Y009223D01*
X027182Y009187D01*
X027115Y009156D01*
X027047Y009128D01*
X026977Y009103D01*
X026906Y009083D01*
X026834Y009066D01*
X026761Y009053D01*
X026687Y009044D01*
X026613Y009039D01*
X026540Y009038D01*
X026466Y009041D01*
X026392Y009048D01*
X026319Y009059D01*
X026246Y009074D01*
X026175Y009092D01*
X026104Y009115D01*
X026035Y009141D01*
X025967Y009171D01*
X025901Y009205D01*
X025837Y009242D01*
X025775Y009282D01*
X025715Y009326D01*
X025658Y009372D01*
X025603Y009422D01*
X025551Y009475D01*
X025502Y009530D01*
X025456Y009588D01*
X025414Y009649D01*
X025374Y009711D01*
X025338Y009776D01*
X025305Y009842D01*
X025276Y009910D01*
X025251Y009980D01*
X025229Y010050D01*
X025212Y010122D01*
X025198Y010195D01*
X025188Y010268D01*
X025182Y010342D01*
X025180Y010416D01*
X024649Y015928D02*
X024196Y016381D01*
X024196Y016715D01*
X024649Y015928D02*
X028467Y015928D01*
X028920Y016381D01*
X028920Y016715D01*
X028526Y016715D01*
X028526Y017897D01*
X028920Y017897D01*
X028920Y018684D01*
X028526Y018684D01*
X028526Y019865D01*
X028920Y019865D01*
X028920Y020200D01*
X028467Y020652D01*
X024649Y020652D01*
X024196Y020200D01*
X024196Y019865D01*
X024196Y018684D02*
X024196Y017897D01*
X025180Y018290D02*
X025182Y018364D01*
X025188Y018438D01*
X025198Y018511D01*
X025212Y018584D01*
X025229Y018656D01*
X025251Y018726D01*
X025276Y018796D01*
X025305Y018864D01*
X025338Y018930D01*
X025374Y018995D01*
X025414Y019057D01*
X025456Y019118D01*
X025502Y019176D01*
X025551Y019231D01*
X025603Y019284D01*
X025658Y019334D01*
X025715Y019380D01*
X025775Y019424D01*
X025837Y019464D01*
X025901Y019501D01*
X025967Y019535D01*
X026035Y019565D01*
X026104Y019591D01*
X026175Y019614D01*
X026246Y019632D01*
X026319Y019647D01*
X026392Y019658D01*
X026466Y019665D01*
X026540Y019668D01*
X026613Y019667D01*
X026687Y019662D01*
X026761Y019653D01*
X026834Y019640D01*
X026906Y019623D01*
X026977Y019603D01*
X027047Y019578D01*
X027115Y019550D01*
X027182Y019519D01*
X027247Y019483D01*
X027310Y019445D01*
X027371Y019403D01*
X027430Y019357D01*
X027486Y019309D01*
X027539Y019258D01*
X027589Y019204D01*
X027637Y019147D01*
X027681Y019088D01*
X027723Y019026D01*
X027761Y018963D01*
X027795Y018897D01*
X027826Y018830D01*
X027853Y018761D01*
X027876Y018691D01*
X027896Y018620D01*
X027912Y018547D01*
X027924Y018474D01*
X027932Y018401D01*
X027936Y018327D01*
X027936Y018253D01*
X027932Y018179D01*
X027924Y018106D01*
X027912Y018033D01*
X027896Y017960D01*
X027876Y017889D01*
X027853Y017819D01*
X027826Y017750D01*
X027795Y017683D01*
X027761Y017617D01*
X027723Y017554D01*
X027681Y017492D01*
X027637Y017433D01*
X027589Y017376D01*
X027539Y017322D01*
X027486Y017271D01*
X027430Y017223D01*
X027371Y017177D01*
X027310Y017135D01*
X027247Y017097D01*
X027182Y017061D01*
X027115Y017030D01*
X027047Y017002D01*
X026977Y016977D01*
X026906Y016957D01*
X026834Y016940D01*
X026761Y016927D01*
X026687Y016918D01*
X026613Y016913D01*
X026540Y016912D01*
X026466Y016915D01*
X026392Y016922D01*
X026319Y016933D01*
X026246Y016948D01*
X026175Y016966D01*
X026104Y016989D01*
X026035Y017015D01*
X025967Y017045D01*
X025901Y017079D01*
X025837Y017116D01*
X025775Y017156D01*
X025715Y017200D01*
X025658Y017246D01*
X025603Y017296D01*
X025551Y017349D01*
X025502Y017404D01*
X025456Y017462D01*
X025414Y017523D01*
X025374Y017585D01*
X025338Y017650D01*
X025305Y017716D01*
X025276Y017784D01*
X025251Y017854D01*
X025229Y017924D01*
X025212Y017996D01*
X025198Y018069D01*
X025188Y018142D01*
X025182Y018216D01*
X025180Y018290D01*
X011400Y024196D02*
X011402Y024270D01*
X011408Y024344D01*
X011418Y024417D01*
X011432Y024490D01*
X011449Y024562D01*
X011471Y024632D01*
X011496Y024702D01*
X011525Y024770D01*
X011558Y024836D01*
X011594Y024901D01*
X011634Y024963D01*
X011676Y025024D01*
X011722Y025082D01*
X011771Y025137D01*
X011823Y025190D01*
X011878Y025240D01*
X011935Y025286D01*
X011995Y025330D01*
X012057Y025370D01*
X012121Y025407D01*
X012187Y025441D01*
X012255Y025471D01*
X012324Y025497D01*
X012395Y025520D01*
X012466Y025538D01*
X012539Y025553D01*
X012612Y025564D01*
X012686Y025571D01*
X012760Y025574D01*
X012833Y025573D01*
X012907Y025568D01*
X012981Y025559D01*
X013054Y025546D01*
X013126Y025529D01*
X013197Y025509D01*
X013267Y025484D01*
X013335Y025456D01*
X013402Y025425D01*
X013467Y025389D01*
X013530Y025351D01*
X013591Y025309D01*
X013650Y025263D01*
X013706Y025215D01*
X013759Y025164D01*
X013809Y025110D01*
X013857Y025053D01*
X013901Y024994D01*
X013943Y024932D01*
X013981Y024869D01*
X014015Y024803D01*
X014046Y024736D01*
X014073Y024667D01*
X014096Y024597D01*
X014116Y024526D01*
X014132Y024453D01*
X014144Y024380D01*
X014152Y024307D01*
X014156Y024233D01*
X014156Y024159D01*
X014152Y024085D01*
X014144Y024012D01*
X014132Y023939D01*
X014116Y023866D01*
X014096Y023795D01*
X014073Y023725D01*
X014046Y023656D01*
X014015Y023589D01*
X013981Y023523D01*
X013943Y023460D01*
X013901Y023398D01*
X013857Y023339D01*
X013809Y023282D01*
X013759Y023228D01*
X013706Y023177D01*
X013650Y023129D01*
X013591Y023083D01*
X013530Y023041D01*
X013467Y023003D01*
X013402Y022967D01*
X013335Y022936D01*
X013267Y022908D01*
X013197Y022883D01*
X013126Y022863D01*
X013054Y022846D01*
X012981Y022833D01*
X012907Y022824D01*
X012833Y022819D01*
X012760Y022818D01*
X012686Y022821D01*
X012612Y022828D01*
X012539Y022839D01*
X012466Y022854D01*
X012395Y022872D01*
X012324Y022895D01*
X012255Y022921D01*
X012187Y022951D01*
X012121Y022985D01*
X012057Y023022D01*
X011995Y023062D01*
X011935Y023106D01*
X011878Y023152D01*
X011823Y023202D01*
X011771Y023255D01*
X011722Y023310D01*
X011676Y023368D01*
X011634Y023429D01*
X011594Y023491D01*
X011558Y023556D01*
X011525Y023622D01*
X011496Y023690D01*
X011471Y023760D01*
X011449Y023830D01*
X011432Y023902D01*
X011418Y023975D01*
X011408Y024048D01*
X011402Y024122D01*
X011400Y024196D01*
D14*
X012528Y024446D02*
X012778Y024446D01*
X013028Y024446D01*
X012778Y024446D02*
X013028Y023946D01*
X012778Y023946D01*
X012528Y023946D01*
X012778Y024446D01*
X007123Y024446D02*
X006873Y024446D01*
X006623Y024446D01*
X006873Y024446D02*
X006623Y023946D01*
X006873Y023946D01*
X007123Y023946D01*
X006873Y024446D01*
X006873Y018540D02*
X006623Y018540D01*
X006873Y018040D01*
X006623Y018040D01*
X006873Y018040D02*
X007123Y018040D01*
X006873Y018040D02*
X007123Y018540D01*
X006873Y018540D01*
X012528Y018540D02*
X012778Y018040D01*
X012528Y018040D01*
X012778Y018040D02*
X013028Y018040D01*
X012778Y018040D02*
X013028Y018540D01*
X012778Y018540D01*
X012528Y018540D01*
X020402Y018540D02*
X020652Y018040D01*
X020402Y018040D01*
X020652Y018040D02*
X020902Y018040D01*
X020652Y018040D02*
X020902Y018540D01*
X020652Y018540D01*
X020402Y018540D01*
X026308Y018540D02*
X026558Y018040D01*
X026308Y018040D01*
X026558Y018040D02*
X026808Y018040D01*
X026558Y018040D02*
X026808Y018540D01*
X026558Y018540D01*
X026308Y018540D01*
X026308Y023946D02*
X026558Y024446D01*
X026808Y024446D01*
X026558Y024446D02*
X026808Y023946D01*
X026558Y023946D01*
X026308Y023946D01*
X026308Y024446D02*
X026558Y024446D01*
X020902Y024446D02*
X020652Y024446D01*
X020402Y024446D01*
X020652Y024446D02*
X020402Y023946D01*
X020652Y023946D01*
X020902Y023946D01*
X020652Y024446D01*
X020652Y010666D02*
X020402Y010666D01*
X020652Y010666D02*
X020402Y010166D01*
X020652Y010166D01*
X020902Y010166D01*
X020652Y010666D01*
X020902Y010666D01*
X026308Y010666D02*
X026558Y010666D01*
X026808Y010666D01*
X026558Y010666D02*
X026808Y010166D01*
X026558Y010166D01*
X026308Y010166D01*
X026558Y010666D01*
X026558Y004761D02*
X026308Y004761D01*
X026558Y004261D01*
X026308Y004261D01*
X026558Y004261D02*
X026808Y004261D01*
X026558Y004261D02*
X026808Y004761D01*
X026558Y004761D01*
X020902Y004761D02*
X020652Y004261D01*
X020402Y004261D01*
X020652Y004261D02*
X020402Y004761D01*
X020652Y004761D01*
X020902Y004761D01*
X020902Y004261D02*
X020652Y004261D01*
X013028Y004261D02*
X012778Y004261D01*
X012528Y004261D01*
X012778Y004261D02*
X012528Y004761D01*
X012778Y004761D01*
X013028Y004761D01*
X012778Y004261D01*
X007123Y004261D02*
X006873Y004261D01*
X006623Y004261D01*
X006873Y004261D02*
X006623Y004761D01*
X006873Y004761D01*
X007123Y004761D01*
X006873Y004261D01*
X006873Y010166D02*
X006623Y010166D01*
X006873Y010666D01*
X007123Y010666D01*
X006873Y010666D02*
X006623Y010666D01*
X006873Y010666D02*
X007123Y010166D01*
X006873Y010166D01*
X012528Y010166D02*
X012778Y010666D01*
X013028Y010666D01*
X012778Y010666D02*
X013028Y010166D01*
X012778Y010166D01*
X012528Y010166D01*
X012528Y010666D02*
X012778Y010666D01*
D15*
X011047Y011991D02*
X011049Y012016D01*
X011055Y012040D01*
X011064Y012062D01*
X011077Y012083D01*
X011093Y012102D01*
X011112Y012118D01*
X011133Y012131D01*
X011155Y012140D01*
X011179Y012146D01*
X011204Y012148D01*
X011229Y012146D01*
X011253Y012140D01*
X011275Y012131D01*
X011296Y012118D01*
X011315Y012102D01*
X011331Y012083D01*
X011344Y012062D01*
X011353Y012040D01*
X011359Y012016D01*
X011361Y011991D01*
X011359Y011966D01*
X011353Y011942D01*
X011344Y011920D01*
X011331Y011899D01*
X011315Y011880D01*
X011296Y011864D01*
X011275Y011851D01*
X011253Y011842D01*
X011229Y011836D01*
X011204Y011834D01*
X011179Y011836D01*
X011155Y011842D01*
X011133Y011851D01*
X011112Y011864D01*
X011093Y011880D01*
X011077Y011899D01*
X011064Y011920D01*
X011055Y011942D01*
X011049Y011966D01*
X011047Y011991D01*
X008291Y011991D02*
X008293Y012016D01*
X008299Y012040D01*
X008308Y012062D01*
X008321Y012083D01*
X008337Y012102D01*
X008356Y012118D01*
X008377Y012131D01*
X008399Y012140D01*
X008423Y012146D01*
X008448Y012148D01*
X008473Y012146D01*
X008497Y012140D01*
X008519Y012131D01*
X008540Y012118D01*
X008559Y012102D01*
X008575Y012083D01*
X008588Y012062D01*
X008597Y012040D01*
X008603Y012016D01*
X008605Y011991D01*
X008603Y011966D01*
X008597Y011942D01*
X008588Y011920D01*
X008575Y011899D01*
X008559Y011880D01*
X008540Y011864D01*
X008519Y011851D01*
X008497Y011842D01*
X008473Y011836D01*
X008448Y011834D01*
X008423Y011836D01*
X008399Y011842D01*
X008377Y011851D01*
X008356Y011864D01*
X008337Y011880D01*
X008321Y011899D01*
X008308Y011920D01*
X008299Y011942D01*
X008293Y011966D01*
X008291Y011991D01*
X005141Y011991D02*
X005143Y012016D01*
X005149Y012040D01*
X005158Y012062D01*
X005171Y012083D01*
X005187Y012102D01*
X005206Y012118D01*
X005227Y012131D01*
X005249Y012140D01*
X005273Y012146D01*
X005298Y012148D01*
X005323Y012146D01*
X005347Y012140D01*
X005369Y012131D01*
X005390Y012118D01*
X005409Y012102D01*
X005425Y012083D01*
X005438Y012062D01*
X005447Y012040D01*
X005453Y012016D01*
X005455Y011991D01*
X005453Y011966D01*
X005447Y011942D01*
X005438Y011920D01*
X005425Y011899D01*
X005409Y011880D01*
X005390Y011864D01*
X005369Y011851D01*
X005347Y011842D01*
X005323Y011836D01*
X005298Y011834D01*
X005273Y011836D01*
X005249Y011842D01*
X005227Y011851D01*
X005206Y011864D01*
X005187Y011880D01*
X005171Y011899D01*
X005158Y011920D01*
X005149Y011942D01*
X005143Y011966D01*
X005141Y011991D01*
X005141Y008841D02*
X005143Y008866D01*
X005149Y008890D01*
X005158Y008912D01*
X005171Y008933D01*
X005187Y008952D01*
X005206Y008968D01*
X005227Y008981D01*
X005249Y008990D01*
X005273Y008996D01*
X005298Y008998D01*
X005323Y008996D01*
X005347Y008990D01*
X005369Y008981D01*
X005390Y008968D01*
X005409Y008952D01*
X005425Y008933D01*
X005438Y008912D01*
X005447Y008890D01*
X005453Y008866D01*
X005455Y008841D01*
X005453Y008816D01*
X005447Y008792D01*
X005438Y008770D01*
X005425Y008749D01*
X005409Y008730D01*
X005390Y008714D01*
X005369Y008701D01*
X005347Y008692D01*
X005323Y008686D01*
X005298Y008684D01*
X005273Y008686D01*
X005249Y008692D01*
X005227Y008701D01*
X005206Y008714D01*
X005187Y008730D01*
X005171Y008749D01*
X005158Y008770D01*
X005149Y008792D01*
X005143Y008816D01*
X005141Y008841D01*
X005141Y006086D02*
X005143Y006111D01*
X005149Y006135D01*
X005158Y006157D01*
X005171Y006178D01*
X005187Y006197D01*
X005206Y006213D01*
X005227Y006226D01*
X005249Y006235D01*
X005273Y006241D01*
X005298Y006243D01*
X005323Y006241D01*
X005347Y006235D01*
X005369Y006226D01*
X005390Y006213D01*
X005409Y006197D01*
X005425Y006178D01*
X005438Y006157D01*
X005447Y006135D01*
X005453Y006111D01*
X005455Y006086D01*
X005453Y006061D01*
X005447Y006037D01*
X005438Y006015D01*
X005425Y005994D01*
X005409Y005975D01*
X005390Y005959D01*
X005369Y005946D01*
X005347Y005937D01*
X005323Y005931D01*
X005298Y005929D01*
X005273Y005931D01*
X005249Y005937D01*
X005227Y005946D01*
X005206Y005959D01*
X005187Y005975D01*
X005171Y005994D01*
X005158Y006015D01*
X005149Y006037D01*
X005143Y006061D01*
X005141Y006086D01*
X008291Y006086D02*
X008293Y006111D01*
X008299Y006135D01*
X008308Y006157D01*
X008321Y006178D01*
X008337Y006197D01*
X008356Y006213D01*
X008377Y006226D01*
X008399Y006235D01*
X008423Y006241D01*
X008448Y006243D01*
X008473Y006241D01*
X008497Y006235D01*
X008519Y006226D01*
X008540Y006213D01*
X008559Y006197D01*
X008575Y006178D01*
X008588Y006157D01*
X008597Y006135D01*
X008603Y006111D01*
X008605Y006086D01*
X008603Y006061D01*
X008597Y006037D01*
X008588Y006015D01*
X008575Y005994D01*
X008559Y005975D01*
X008540Y005959D01*
X008519Y005946D01*
X008497Y005937D01*
X008473Y005931D01*
X008448Y005929D01*
X008423Y005931D01*
X008399Y005937D01*
X008377Y005946D01*
X008356Y005959D01*
X008337Y005975D01*
X008321Y005994D01*
X008308Y006015D01*
X008299Y006037D01*
X008293Y006061D01*
X008291Y006086D01*
X011047Y006086D02*
X011049Y006111D01*
X011055Y006135D01*
X011064Y006157D01*
X011077Y006178D01*
X011093Y006197D01*
X011112Y006213D01*
X011133Y006226D01*
X011155Y006235D01*
X011179Y006241D01*
X011204Y006243D01*
X011229Y006241D01*
X011253Y006235D01*
X011275Y006226D01*
X011296Y006213D01*
X011315Y006197D01*
X011331Y006178D01*
X011344Y006157D01*
X011353Y006135D01*
X011359Y006111D01*
X011361Y006086D01*
X011359Y006061D01*
X011353Y006037D01*
X011344Y006015D01*
X011331Y005994D01*
X011315Y005975D01*
X011296Y005959D01*
X011275Y005946D01*
X011253Y005937D01*
X011229Y005931D01*
X011204Y005929D01*
X011179Y005931D01*
X011155Y005937D01*
X011133Y005946D01*
X011112Y005959D01*
X011093Y005975D01*
X011077Y005994D01*
X011064Y006015D01*
X011055Y006037D01*
X011049Y006061D01*
X011047Y006086D01*
X011047Y008841D02*
X011049Y008866D01*
X011055Y008890D01*
X011064Y008912D01*
X011077Y008933D01*
X011093Y008952D01*
X011112Y008968D01*
X011133Y008981D01*
X011155Y008990D01*
X011179Y008996D01*
X011204Y008998D01*
X011229Y008996D01*
X011253Y008990D01*
X011275Y008981D01*
X011296Y008968D01*
X011315Y008952D01*
X011331Y008933D01*
X011344Y008912D01*
X011353Y008890D01*
X011359Y008866D01*
X011361Y008841D01*
X011359Y008816D01*
X011353Y008792D01*
X011344Y008770D01*
X011331Y008749D01*
X011315Y008730D01*
X011296Y008714D01*
X011275Y008701D01*
X011253Y008692D01*
X011229Y008686D01*
X011204Y008684D01*
X011179Y008686D01*
X011155Y008692D01*
X011133Y008701D01*
X011112Y008714D01*
X011093Y008730D01*
X011077Y008749D01*
X011064Y008770D01*
X011055Y008792D01*
X011049Y008816D01*
X011047Y008841D01*
X008291Y008841D02*
X008293Y008866D01*
X008299Y008890D01*
X008308Y008912D01*
X008321Y008933D01*
X008337Y008952D01*
X008356Y008968D01*
X008377Y008981D01*
X008399Y008990D01*
X008423Y008996D01*
X008448Y008998D01*
X008473Y008996D01*
X008497Y008990D01*
X008519Y008981D01*
X008540Y008968D01*
X008559Y008952D01*
X008575Y008933D01*
X008588Y008912D01*
X008597Y008890D01*
X008603Y008866D01*
X008605Y008841D01*
X008603Y008816D01*
X008597Y008792D01*
X008588Y008770D01*
X008575Y008749D01*
X008559Y008730D01*
X008540Y008714D01*
X008519Y008701D01*
X008497Y008692D01*
X008473Y008686D01*
X008448Y008684D01*
X008423Y008686D01*
X008399Y008692D01*
X008377Y008701D01*
X008356Y008714D01*
X008337Y008730D01*
X008321Y008749D01*
X008308Y008770D01*
X008299Y008792D01*
X008293Y008816D01*
X008291Y008841D01*
X014196Y008841D02*
X014198Y008866D01*
X014204Y008890D01*
X014213Y008912D01*
X014226Y008933D01*
X014242Y008952D01*
X014261Y008968D01*
X014282Y008981D01*
X014304Y008990D01*
X014328Y008996D01*
X014353Y008998D01*
X014378Y008996D01*
X014402Y008990D01*
X014424Y008981D01*
X014445Y008968D01*
X014464Y008952D01*
X014480Y008933D01*
X014493Y008912D01*
X014502Y008890D01*
X014508Y008866D01*
X014510Y008841D01*
X014508Y008816D01*
X014502Y008792D01*
X014493Y008770D01*
X014480Y008749D01*
X014464Y008730D01*
X014445Y008714D01*
X014424Y008701D01*
X014402Y008692D01*
X014378Y008686D01*
X014353Y008684D01*
X014328Y008686D01*
X014304Y008692D01*
X014282Y008701D01*
X014261Y008714D01*
X014242Y008730D01*
X014226Y008749D01*
X014213Y008770D01*
X014204Y008792D01*
X014198Y008816D01*
X014196Y008841D01*
X014196Y006086D02*
X014198Y006111D01*
X014204Y006135D01*
X014213Y006157D01*
X014226Y006178D01*
X014242Y006197D01*
X014261Y006213D01*
X014282Y006226D01*
X014304Y006235D01*
X014328Y006241D01*
X014353Y006243D01*
X014378Y006241D01*
X014402Y006235D01*
X014424Y006226D01*
X014445Y006213D01*
X014464Y006197D01*
X014480Y006178D01*
X014493Y006157D01*
X014502Y006135D01*
X014508Y006111D01*
X014510Y006086D01*
X014508Y006061D01*
X014502Y006037D01*
X014493Y006015D01*
X014480Y005994D01*
X014464Y005975D01*
X014445Y005959D01*
X014424Y005946D01*
X014402Y005937D01*
X014378Y005931D01*
X014353Y005929D01*
X014328Y005931D01*
X014304Y005937D01*
X014282Y005946D01*
X014261Y005959D01*
X014242Y005975D01*
X014226Y005994D01*
X014213Y006015D01*
X014204Y006037D01*
X014198Y006061D01*
X014196Y006086D01*
X014196Y002936D02*
X014198Y002961D01*
X014204Y002985D01*
X014213Y003007D01*
X014226Y003028D01*
X014242Y003047D01*
X014261Y003063D01*
X014282Y003076D01*
X014304Y003085D01*
X014328Y003091D01*
X014353Y003093D01*
X014378Y003091D01*
X014402Y003085D01*
X014424Y003076D01*
X014445Y003063D01*
X014464Y003047D01*
X014480Y003028D01*
X014493Y003007D01*
X014502Y002985D01*
X014508Y002961D01*
X014510Y002936D01*
X014508Y002911D01*
X014502Y002887D01*
X014493Y002865D01*
X014480Y002844D01*
X014464Y002825D01*
X014445Y002809D01*
X014424Y002796D01*
X014402Y002787D01*
X014378Y002781D01*
X014353Y002779D01*
X014328Y002781D01*
X014304Y002787D01*
X014282Y002796D01*
X014261Y002809D01*
X014242Y002825D01*
X014226Y002844D01*
X014213Y002865D01*
X014204Y002887D01*
X014198Y002911D01*
X014196Y002936D01*
X011047Y002936D02*
X011049Y002961D01*
X011055Y002985D01*
X011064Y003007D01*
X011077Y003028D01*
X011093Y003047D01*
X011112Y003063D01*
X011133Y003076D01*
X011155Y003085D01*
X011179Y003091D01*
X011204Y003093D01*
X011229Y003091D01*
X011253Y003085D01*
X011275Y003076D01*
X011296Y003063D01*
X011315Y003047D01*
X011331Y003028D01*
X011344Y003007D01*
X011353Y002985D01*
X011359Y002961D01*
X011361Y002936D01*
X011359Y002911D01*
X011353Y002887D01*
X011344Y002865D01*
X011331Y002844D01*
X011315Y002825D01*
X011296Y002809D01*
X011275Y002796D01*
X011253Y002787D01*
X011229Y002781D01*
X011204Y002779D01*
X011179Y002781D01*
X011155Y002787D01*
X011133Y002796D01*
X011112Y002809D01*
X011093Y002825D01*
X011077Y002844D01*
X011064Y002865D01*
X011055Y002887D01*
X011049Y002911D01*
X011047Y002936D01*
X008291Y002936D02*
X008293Y002961D01*
X008299Y002985D01*
X008308Y003007D01*
X008321Y003028D01*
X008337Y003047D01*
X008356Y003063D01*
X008377Y003076D01*
X008399Y003085D01*
X008423Y003091D01*
X008448Y003093D01*
X008473Y003091D01*
X008497Y003085D01*
X008519Y003076D01*
X008540Y003063D01*
X008559Y003047D01*
X008575Y003028D01*
X008588Y003007D01*
X008597Y002985D01*
X008603Y002961D01*
X008605Y002936D01*
X008603Y002911D01*
X008597Y002887D01*
X008588Y002865D01*
X008575Y002844D01*
X008559Y002825D01*
X008540Y002809D01*
X008519Y002796D01*
X008497Y002787D01*
X008473Y002781D01*
X008448Y002779D01*
X008423Y002781D01*
X008399Y002787D01*
X008377Y002796D01*
X008356Y002809D01*
X008337Y002825D01*
X008321Y002844D01*
X008308Y002865D01*
X008299Y002887D01*
X008293Y002911D01*
X008291Y002936D01*
X005141Y002936D02*
X005143Y002961D01*
X005149Y002985D01*
X005158Y003007D01*
X005171Y003028D01*
X005187Y003047D01*
X005206Y003063D01*
X005227Y003076D01*
X005249Y003085D01*
X005273Y003091D01*
X005298Y003093D01*
X005323Y003091D01*
X005347Y003085D01*
X005369Y003076D01*
X005390Y003063D01*
X005409Y003047D01*
X005425Y003028D01*
X005438Y003007D01*
X005447Y002985D01*
X005453Y002961D01*
X005455Y002936D01*
X005453Y002911D01*
X005447Y002887D01*
X005438Y002865D01*
X005425Y002844D01*
X005409Y002825D01*
X005390Y002809D01*
X005369Y002796D01*
X005347Y002787D01*
X005323Y002781D01*
X005298Y002779D01*
X005273Y002781D01*
X005249Y002787D01*
X005227Y002796D01*
X005206Y002809D01*
X005187Y002825D01*
X005171Y002844D01*
X005158Y002865D01*
X005149Y002887D01*
X005143Y002911D01*
X005141Y002936D01*
X014196Y011991D02*
X014198Y012016D01*
X014204Y012040D01*
X014213Y012062D01*
X014226Y012083D01*
X014242Y012102D01*
X014261Y012118D01*
X014282Y012131D01*
X014304Y012140D01*
X014328Y012146D01*
X014353Y012148D01*
X014378Y012146D01*
X014402Y012140D01*
X014424Y012131D01*
X014445Y012118D01*
X014464Y012102D01*
X014480Y012083D01*
X014493Y012062D01*
X014502Y012040D01*
X014508Y012016D01*
X014510Y011991D01*
X014508Y011966D01*
X014502Y011942D01*
X014493Y011920D01*
X014480Y011899D01*
X014464Y011880D01*
X014445Y011864D01*
X014424Y011851D01*
X014402Y011842D01*
X014378Y011836D01*
X014353Y011834D01*
X014328Y011836D01*
X014304Y011842D01*
X014282Y011851D01*
X014261Y011864D01*
X014242Y011880D01*
X014226Y011899D01*
X014213Y011920D01*
X014204Y011942D01*
X014198Y011966D01*
X014196Y011991D01*
X018921Y011991D02*
X018923Y012016D01*
X018929Y012040D01*
X018938Y012062D01*
X018951Y012083D01*
X018967Y012102D01*
X018986Y012118D01*
X019007Y012131D01*
X019029Y012140D01*
X019053Y012146D01*
X019078Y012148D01*
X019103Y012146D01*
X019127Y012140D01*
X019149Y012131D01*
X019170Y012118D01*
X019189Y012102D01*
X019205Y012083D01*
X019218Y012062D01*
X019227Y012040D01*
X019233Y012016D01*
X019235Y011991D01*
X019233Y011966D01*
X019227Y011942D01*
X019218Y011920D01*
X019205Y011899D01*
X019189Y011880D01*
X019170Y011864D01*
X019149Y011851D01*
X019127Y011842D01*
X019103Y011836D01*
X019078Y011834D01*
X019053Y011836D01*
X019029Y011842D01*
X019007Y011851D01*
X018986Y011864D01*
X018967Y011880D01*
X018951Y011899D01*
X018938Y011920D01*
X018929Y011942D01*
X018923Y011966D01*
X018921Y011991D01*
X022070Y011991D02*
X022072Y012016D01*
X022078Y012040D01*
X022087Y012062D01*
X022100Y012083D01*
X022116Y012102D01*
X022135Y012118D01*
X022156Y012131D01*
X022178Y012140D01*
X022202Y012146D01*
X022227Y012148D01*
X022252Y012146D01*
X022276Y012140D01*
X022298Y012131D01*
X022319Y012118D01*
X022338Y012102D01*
X022354Y012083D01*
X022367Y012062D01*
X022376Y012040D01*
X022382Y012016D01*
X022384Y011991D01*
X022382Y011966D01*
X022376Y011942D01*
X022367Y011920D01*
X022354Y011899D01*
X022338Y011880D01*
X022319Y011864D01*
X022298Y011851D01*
X022276Y011842D01*
X022252Y011836D01*
X022227Y011834D01*
X022202Y011836D01*
X022178Y011842D01*
X022156Y011851D01*
X022135Y011864D01*
X022116Y011880D01*
X022100Y011899D01*
X022087Y011920D01*
X022078Y011942D01*
X022072Y011966D01*
X022070Y011991D01*
X024826Y011991D02*
X024828Y012016D01*
X024834Y012040D01*
X024843Y012062D01*
X024856Y012083D01*
X024872Y012102D01*
X024891Y012118D01*
X024912Y012131D01*
X024934Y012140D01*
X024958Y012146D01*
X024983Y012148D01*
X025008Y012146D01*
X025032Y012140D01*
X025054Y012131D01*
X025075Y012118D01*
X025094Y012102D01*
X025110Y012083D01*
X025123Y012062D01*
X025132Y012040D01*
X025138Y012016D01*
X025140Y011991D01*
X025138Y011966D01*
X025132Y011942D01*
X025123Y011920D01*
X025110Y011899D01*
X025094Y011880D01*
X025075Y011864D01*
X025054Y011851D01*
X025032Y011842D01*
X025008Y011836D01*
X024983Y011834D01*
X024958Y011836D01*
X024934Y011842D01*
X024912Y011851D01*
X024891Y011864D01*
X024872Y011880D01*
X024856Y011899D01*
X024843Y011920D01*
X024834Y011942D01*
X024828Y011966D01*
X024826Y011991D01*
X027976Y011991D02*
X027978Y012016D01*
X027984Y012040D01*
X027993Y012062D01*
X028006Y012083D01*
X028022Y012102D01*
X028041Y012118D01*
X028062Y012131D01*
X028084Y012140D01*
X028108Y012146D01*
X028133Y012148D01*
X028158Y012146D01*
X028182Y012140D01*
X028204Y012131D01*
X028225Y012118D01*
X028244Y012102D01*
X028260Y012083D01*
X028273Y012062D01*
X028282Y012040D01*
X028288Y012016D01*
X028290Y011991D01*
X028288Y011966D01*
X028282Y011942D01*
X028273Y011920D01*
X028260Y011899D01*
X028244Y011880D01*
X028225Y011864D01*
X028204Y011851D01*
X028182Y011842D01*
X028158Y011836D01*
X028133Y011834D01*
X028108Y011836D01*
X028084Y011842D01*
X028062Y011851D01*
X028041Y011864D01*
X028022Y011880D01*
X028006Y011899D01*
X027993Y011920D01*
X027984Y011942D01*
X027978Y011966D01*
X027976Y011991D01*
X027976Y008841D02*
X027978Y008866D01*
X027984Y008890D01*
X027993Y008912D01*
X028006Y008933D01*
X028022Y008952D01*
X028041Y008968D01*
X028062Y008981D01*
X028084Y008990D01*
X028108Y008996D01*
X028133Y008998D01*
X028158Y008996D01*
X028182Y008990D01*
X028204Y008981D01*
X028225Y008968D01*
X028244Y008952D01*
X028260Y008933D01*
X028273Y008912D01*
X028282Y008890D01*
X028288Y008866D01*
X028290Y008841D01*
X028288Y008816D01*
X028282Y008792D01*
X028273Y008770D01*
X028260Y008749D01*
X028244Y008730D01*
X028225Y008714D01*
X028204Y008701D01*
X028182Y008692D01*
X028158Y008686D01*
X028133Y008684D01*
X028108Y008686D01*
X028084Y008692D01*
X028062Y008701D01*
X028041Y008714D01*
X028022Y008730D01*
X028006Y008749D01*
X027993Y008770D01*
X027984Y008792D01*
X027978Y008816D01*
X027976Y008841D01*
X024826Y008841D02*
X024828Y008866D01*
X024834Y008890D01*
X024843Y008912D01*
X024856Y008933D01*
X024872Y008952D01*
X024891Y008968D01*
X024912Y008981D01*
X024934Y008990D01*
X024958Y008996D01*
X024983Y008998D01*
X025008Y008996D01*
X025032Y008990D01*
X025054Y008981D01*
X025075Y008968D01*
X025094Y008952D01*
X025110Y008933D01*
X025123Y008912D01*
X025132Y008890D01*
X025138Y008866D01*
X025140Y008841D01*
X025138Y008816D01*
X025132Y008792D01*
X025123Y008770D01*
X025110Y008749D01*
X025094Y008730D01*
X025075Y008714D01*
X025054Y008701D01*
X025032Y008692D01*
X025008Y008686D01*
X024983Y008684D01*
X024958Y008686D01*
X024934Y008692D01*
X024912Y008701D01*
X024891Y008714D01*
X024872Y008730D01*
X024856Y008749D01*
X024843Y008770D01*
X024834Y008792D01*
X024828Y008816D01*
X024826Y008841D01*
X022070Y008841D02*
X022072Y008866D01*
X022078Y008890D01*
X022087Y008912D01*
X022100Y008933D01*
X022116Y008952D01*
X022135Y008968D01*
X022156Y008981D01*
X022178Y008990D01*
X022202Y008996D01*
X022227Y008998D01*
X022252Y008996D01*
X022276Y008990D01*
X022298Y008981D01*
X022319Y008968D01*
X022338Y008952D01*
X022354Y008933D01*
X022367Y008912D01*
X022376Y008890D01*
X022382Y008866D01*
X022384Y008841D01*
X022382Y008816D01*
X022376Y008792D01*
X022367Y008770D01*
X022354Y008749D01*
X022338Y008730D01*
X022319Y008714D01*
X022298Y008701D01*
X022276Y008692D01*
X022252Y008686D01*
X022227Y008684D01*
X022202Y008686D01*
X022178Y008692D01*
X022156Y008701D01*
X022135Y008714D01*
X022116Y008730D01*
X022100Y008749D01*
X022087Y008770D01*
X022078Y008792D01*
X022072Y008816D01*
X022070Y008841D01*
X022070Y006086D02*
X022072Y006111D01*
X022078Y006135D01*
X022087Y006157D01*
X022100Y006178D01*
X022116Y006197D01*
X022135Y006213D01*
X022156Y006226D01*
X022178Y006235D01*
X022202Y006241D01*
X022227Y006243D01*
X022252Y006241D01*
X022276Y006235D01*
X022298Y006226D01*
X022319Y006213D01*
X022338Y006197D01*
X022354Y006178D01*
X022367Y006157D01*
X022376Y006135D01*
X022382Y006111D01*
X022384Y006086D01*
X022382Y006061D01*
X022376Y006037D01*
X022367Y006015D01*
X022354Y005994D01*
X022338Y005975D01*
X022319Y005959D01*
X022298Y005946D01*
X022276Y005937D01*
X022252Y005931D01*
X022227Y005929D01*
X022202Y005931D01*
X022178Y005937D01*
X022156Y005946D01*
X022135Y005959D01*
X022116Y005975D01*
X022100Y005994D01*
X022087Y006015D01*
X022078Y006037D01*
X022072Y006061D01*
X022070Y006086D01*
X024826Y006086D02*
X024828Y006111D01*
X024834Y006135D01*
X024843Y006157D01*
X024856Y006178D01*
X024872Y006197D01*
X024891Y006213D01*
X024912Y006226D01*
X024934Y006235D01*
X024958Y006241D01*
X024983Y006243D01*
X025008Y006241D01*
X025032Y006235D01*
X025054Y006226D01*
X025075Y006213D01*
X025094Y006197D01*
X025110Y006178D01*
X025123Y006157D01*
X025132Y006135D01*
X025138Y006111D01*
X025140Y006086D01*
X025138Y006061D01*
X025132Y006037D01*
X025123Y006015D01*
X025110Y005994D01*
X025094Y005975D01*
X025075Y005959D01*
X025054Y005946D01*
X025032Y005937D01*
X025008Y005931D01*
X024983Y005929D01*
X024958Y005931D01*
X024934Y005937D01*
X024912Y005946D01*
X024891Y005959D01*
X024872Y005975D01*
X024856Y005994D01*
X024843Y006015D01*
X024834Y006037D01*
X024828Y006061D01*
X024826Y006086D01*
X027976Y006086D02*
X027978Y006111D01*
X027984Y006135D01*
X027993Y006157D01*
X028006Y006178D01*
X028022Y006197D01*
X028041Y006213D01*
X028062Y006226D01*
X028084Y006235D01*
X028108Y006241D01*
X028133Y006243D01*
X028158Y006241D01*
X028182Y006235D01*
X028204Y006226D01*
X028225Y006213D01*
X028244Y006197D01*
X028260Y006178D01*
X028273Y006157D01*
X028282Y006135D01*
X028288Y006111D01*
X028290Y006086D01*
X028288Y006061D01*
X028282Y006037D01*
X028273Y006015D01*
X028260Y005994D01*
X028244Y005975D01*
X028225Y005959D01*
X028204Y005946D01*
X028182Y005937D01*
X028158Y005931D01*
X028133Y005929D01*
X028108Y005931D01*
X028084Y005937D01*
X028062Y005946D01*
X028041Y005959D01*
X028022Y005975D01*
X028006Y005994D01*
X027993Y006015D01*
X027984Y006037D01*
X027978Y006061D01*
X027976Y006086D01*
X027976Y002936D02*
X027978Y002961D01*
X027984Y002985D01*
X027993Y003007D01*
X028006Y003028D01*
X028022Y003047D01*
X028041Y003063D01*
X028062Y003076D01*
X028084Y003085D01*
X028108Y003091D01*
X028133Y003093D01*
X028158Y003091D01*
X028182Y003085D01*
X028204Y003076D01*
X028225Y003063D01*
X028244Y003047D01*
X028260Y003028D01*
X028273Y003007D01*
X028282Y002985D01*
X028288Y002961D01*
X028290Y002936D01*
X028288Y002911D01*
X028282Y002887D01*
X028273Y002865D01*
X028260Y002844D01*
X028244Y002825D01*
X028225Y002809D01*
X028204Y002796D01*
X028182Y002787D01*
X028158Y002781D01*
X028133Y002779D01*
X028108Y002781D01*
X028084Y002787D01*
X028062Y002796D01*
X028041Y002809D01*
X028022Y002825D01*
X028006Y002844D01*
X027993Y002865D01*
X027984Y002887D01*
X027978Y002911D01*
X027976Y002936D01*
X024826Y002936D02*
X024828Y002961D01*
X024834Y002985D01*
X024843Y003007D01*
X024856Y003028D01*
X024872Y003047D01*
X024891Y003063D01*
X024912Y003076D01*
X024934Y003085D01*
X024958Y003091D01*
X024983Y003093D01*
X025008Y003091D01*
X025032Y003085D01*
X025054Y003076D01*
X025075Y003063D01*
X025094Y003047D01*
X025110Y003028D01*
X025123Y003007D01*
X025132Y002985D01*
X025138Y002961D01*
X025140Y002936D01*
X025138Y002911D01*
X025132Y002887D01*
X025123Y002865D01*
X025110Y002844D01*
X025094Y002825D01*
X025075Y002809D01*
X025054Y002796D01*
X025032Y002787D01*
X025008Y002781D01*
X024983Y002779D01*
X024958Y002781D01*
X024934Y002787D01*
X024912Y002796D01*
X024891Y002809D01*
X024872Y002825D01*
X024856Y002844D01*
X024843Y002865D01*
X024834Y002887D01*
X024828Y002911D01*
X024826Y002936D01*
X022070Y002936D02*
X022072Y002961D01*
X022078Y002985D01*
X022087Y003007D01*
X022100Y003028D01*
X022116Y003047D01*
X022135Y003063D01*
X022156Y003076D01*
X022178Y003085D01*
X022202Y003091D01*
X022227Y003093D01*
X022252Y003091D01*
X022276Y003085D01*
X022298Y003076D01*
X022319Y003063D01*
X022338Y003047D01*
X022354Y003028D01*
X022367Y003007D01*
X022376Y002985D01*
X022382Y002961D01*
X022384Y002936D01*
X022382Y002911D01*
X022376Y002887D01*
X022367Y002865D01*
X022354Y002844D01*
X022338Y002825D01*
X022319Y002809D01*
X022298Y002796D01*
X022276Y002787D01*
X022252Y002781D01*
X022227Y002779D01*
X022202Y002781D01*
X022178Y002787D01*
X022156Y002796D01*
X022135Y002809D01*
X022116Y002825D01*
X022100Y002844D01*
X022087Y002865D01*
X022078Y002887D01*
X022072Y002911D01*
X022070Y002936D01*
X018921Y002936D02*
X018923Y002961D01*
X018929Y002985D01*
X018938Y003007D01*
X018951Y003028D01*
X018967Y003047D01*
X018986Y003063D01*
X019007Y003076D01*
X019029Y003085D01*
X019053Y003091D01*
X019078Y003093D01*
X019103Y003091D01*
X019127Y003085D01*
X019149Y003076D01*
X019170Y003063D01*
X019189Y003047D01*
X019205Y003028D01*
X019218Y003007D01*
X019227Y002985D01*
X019233Y002961D01*
X019235Y002936D01*
X019233Y002911D01*
X019227Y002887D01*
X019218Y002865D01*
X019205Y002844D01*
X019189Y002825D01*
X019170Y002809D01*
X019149Y002796D01*
X019127Y002787D01*
X019103Y002781D01*
X019078Y002779D01*
X019053Y002781D01*
X019029Y002787D01*
X019007Y002796D01*
X018986Y002809D01*
X018967Y002825D01*
X018951Y002844D01*
X018938Y002865D01*
X018929Y002887D01*
X018923Y002911D01*
X018921Y002936D01*
X018921Y006086D02*
X018923Y006111D01*
X018929Y006135D01*
X018938Y006157D01*
X018951Y006178D01*
X018967Y006197D01*
X018986Y006213D01*
X019007Y006226D01*
X019029Y006235D01*
X019053Y006241D01*
X019078Y006243D01*
X019103Y006241D01*
X019127Y006235D01*
X019149Y006226D01*
X019170Y006213D01*
X019189Y006197D01*
X019205Y006178D01*
X019218Y006157D01*
X019227Y006135D01*
X019233Y006111D01*
X019235Y006086D01*
X019233Y006061D01*
X019227Y006037D01*
X019218Y006015D01*
X019205Y005994D01*
X019189Y005975D01*
X019170Y005959D01*
X019149Y005946D01*
X019127Y005937D01*
X019103Y005931D01*
X019078Y005929D01*
X019053Y005931D01*
X019029Y005937D01*
X019007Y005946D01*
X018986Y005959D01*
X018967Y005975D01*
X018951Y005994D01*
X018938Y006015D01*
X018929Y006037D01*
X018923Y006061D01*
X018921Y006086D01*
X018921Y008841D02*
X018923Y008866D01*
X018929Y008890D01*
X018938Y008912D01*
X018951Y008933D01*
X018967Y008952D01*
X018986Y008968D01*
X019007Y008981D01*
X019029Y008990D01*
X019053Y008996D01*
X019078Y008998D01*
X019103Y008996D01*
X019127Y008990D01*
X019149Y008981D01*
X019170Y008968D01*
X019189Y008952D01*
X019205Y008933D01*
X019218Y008912D01*
X019227Y008890D01*
X019233Y008866D01*
X019235Y008841D01*
X019233Y008816D01*
X019227Y008792D01*
X019218Y008770D01*
X019205Y008749D01*
X019189Y008730D01*
X019170Y008714D01*
X019149Y008701D01*
X019127Y008692D01*
X019103Y008686D01*
X019078Y008684D01*
X019053Y008686D01*
X019029Y008692D01*
X019007Y008701D01*
X018986Y008714D01*
X018967Y008730D01*
X018951Y008749D01*
X018938Y008770D01*
X018929Y008792D01*
X018923Y008816D01*
X018921Y008841D01*
X018921Y016715D02*
X018923Y016740D01*
X018929Y016764D01*
X018938Y016786D01*
X018951Y016807D01*
X018967Y016826D01*
X018986Y016842D01*
X019007Y016855D01*
X019029Y016864D01*
X019053Y016870D01*
X019078Y016872D01*
X019103Y016870D01*
X019127Y016864D01*
X019149Y016855D01*
X019170Y016842D01*
X019189Y016826D01*
X019205Y016807D01*
X019218Y016786D01*
X019227Y016764D01*
X019233Y016740D01*
X019235Y016715D01*
X019233Y016690D01*
X019227Y016666D01*
X019218Y016644D01*
X019205Y016623D01*
X019189Y016604D01*
X019170Y016588D01*
X019149Y016575D01*
X019127Y016566D01*
X019103Y016560D01*
X019078Y016558D01*
X019053Y016560D01*
X019029Y016566D01*
X019007Y016575D01*
X018986Y016588D01*
X018967Y016604D01*
X018951Y016623D01*
X018938Y016644D01*
X018929Y016666D01*
X018923Y016690D01*
X018921Y016715D01*
X022070Y016715D02*
X022072Y016740D01*
X022078Y016764D01*
X022087Y016786D01*
X022100Y016807D01*
X022116Y016826D01*
X022135Y016842D01*
X022156Y016855D01*
X022178Y016864D01*
X022202Y016870D01*
X022227Y016872D01*
X022252Y016870D01*
X022276Y016864D01*
X022298Y016855D01*
X022319Y016842D01*
X022338Y016826D01*
X022354Y016807D01*
X022367Y016786D01*
X022376Y016764D01*
X022382Y016740D01*
X022384Y016715D01*
X022382Y016690D01*
X022376Y016666D01*
X022367Y016644D01*
X022354Y016623D01*
X022338Y016604D01*
X022319Y016588D01*
X022298Y016575D01*
X022276Y016566D01*
X022252Y016560D01*
X022227Y016558D01*
X022202Y016560D01*
X022178Y016566D01*
X022156Y016575D01*
X022135Y016588D01*
X022116Y016604D01*
X022100Y016623D01*
X022087Y016644D01*
X022078Y016666D01*
X022072Y016690D01*
X022070Y016715D01*
X024826Y016715D02*
X024828Y016740D01*
X024834Y016764D01*
X024843Y016786D01*
X024856Y016807D01*
X024872Y016826D01*
X024891Y016842D01*
X024912Y016855D01*
X024934Y016864D01*
X024958Y016870D01*
X024983Y016872D01*
X025008Y016870D01*
X025032Y016864D01*
X025054Y016855D01*
X025075Y016842D01*
X025094Y016826D01*
X025110Y016807D01*
X025123Y016786D01*
X025132Y016764D01*
X025138Y016740D01*
X025140Y016715D01*
X025138Y016690D01*
X025132Y016666D01*
X025123Y016644D01*
X025110Y016623D01*
X025094Y016604D01*
X025075Y016588D01*
X025054Y016575D01*
X025032Y016566D01*
X025008Y016560D01*
X024983Y016558D01*
X024958Y016560D01*
X024934Y016566D01*
X024912Y016575D01*
X024891Y016588D01*
X024872Y016604D01*
X024856Y016623D01*
X024843Y016644D01*
X024834Y016666D01*
X024828Y016690D01*
X024826Y016715D01*
X027976Y016715D02*
X027978Y016740D01*
X027984Y016764D01*
X027993Y016786D01*
X028006Y016807D01*
X028022Y016826D01*
X028041Y016842D01*
X028062Y016855D01*
X028084Y016864D01*
X028108Y016870D01*
X028133Y016872D01*
X028158Y016870D01*
X028182Y016864D01*
X028204Y016855D01*
X028225Y016842D01*
X028244Y016826D01*
X028260Y016807D01*
X028273Y016786D01*
X028282Y016764D01*
X028288Y016740D01*
X028290Y016715D01*
X028288Y016690D01*
X028282Y016666D01*
X028273Y016644D01*
X028260Y016623D01*
X028244Y016604D01*
X028225Y016588D01*
X028204Y016575D01*
X028182Y016566D01*
X028158Y016560D01*
X028133Y016558D01*
X028108Y016560D01*
X028084Y016566D01*
X028062Y016575D01*
X028041Y016588D01*
X028022Y016604D01*
X028006Y016623D01*
X027993Y016644D01*
X027984Y016666D01*
X027978Y016690D01*
X027976Y016715D01*
X027976Y019865D02*
X027978Y019890D01*
X027984Y019914D01*
X027993Y019936D01*
X028006Y019957D01*
X028022Y019976D01*
X028041Y019992D01*
X028062Y020005D01*
X028084Y020014D01*
X028108Y020020D01*
X028133Y020022D01*
X028158Y020020D01*
X028182Y020014D01*
X028204Y020005D01*
X028225Y019992D01*
X028244Y019976D01*
X028260Y019957D01*
X028273Y019936D01*
X028282Y019914D01*
X028288Y019890D01*
X028290Y019865D01*
X028288Y019840D01*
X028282Y019816D01*
X028273Y019794D01*
X028260Y019773D01*
X028244Y019754D01*
X028225Y019738D01*
X028204Y019725D01*
X028182Y019716D01*
X028158Y019710D01*
X028133Y019708D01*
X028108Y019710D01*
X028084Y019716D01*
X028062Y019725D01*
X028041Y019738D01*
X028022Y019754D01*
X028006Y019773D01*
X027993Y019794D01*
X027984Y019816D01*
X027978Y019840D01*
X027976Y019865D01*
X024826Y019865D02*
X024828Y019890D01*
X024834Y019914D01*
X024843Y019936D01*
X024856Y019957D01*
X024872Y019976D01*
X024891Y019992D01*
X024912Y020005D01*
X024934Y020014D01*
X024958Y020020D01*
X024983Y020022D01*
X025008Y020020D01*
X025032Y020014D01*
X025054Y020005D01*
X025075Y019992D01*
X025094Y019976D01*
X025110Y019957D01*
X025123Y019936D01*
X025132Y019914D01*
X025138Y019890D01*
X025140Y019865D01*
X025138Y019840D01*
X025132Y019816D01*
X025123Y019794D01*
X025110Y019773D01*
X025094Y019754D01*
X025075Y019738D01*
X025054Y019725D01*
X025032Y019716D01*
X025008Y019710D01*
X024983Y019708D01*
X024958Y019710D01*
X024934Y019716D01*
X024912Y019725D01*
X024891Y019738D01*
X024872Y019754D01*
X024856Y019773D01*
X024843Y019794D01*
X024834Y019816D01*
X024828Y019840D01*
X024826Y019865D01*
X022070Y019865D02*
X022072Y019890D01*
X022078Y019914D01*
X022087Y019936D01*
X022100Y019957D01*
X022116Y019976D01*
X022135Y019992D01*
X022156Y020005D01*
X022178Y020014D01*
X022202Y020020D01*
X022227Y020022D01*
X022252Y020020D01*
X022276Y020014D01*
X022298Y020005D01*
X022319Y019992D01*
X022338Y019976D01*
X022354Y019957D01*
X022367Y019936D01*
X022376Y019914D01*
X022382Y019890D01*
X022384Y019865D01*
X022382Y019840D01*
X022376Y019816D01*
X022367Y019794D01*
X022354Y019773D01*
X022338Y019754D01*
X022319Y019738D01*
X022298Y019725D01*
X022276Y019716D01*
X022252Y019710D01*
X022227Y019708D01*
X022202Y019710D01*
X022178Y019716D01*
X022156Y019725D01*
X022135Y019738D01*
X022116Y019754D01*
X022100Y019773D01*
X022087Y019794D01*
X022078Y019816D01*
X022072Y019840D01*
X022070Y019865D01*
X022070Y022621D02*
X022072Y022646D01*
X022078Y022670D01*
X022087Y022692D01*
X022100Y022713D01*
X022116Y022732D01*
X022135Y022748D01*
X022156Y022761D01*
X022178Y022770D01*
X022202Y022776D01*
X022227Y022778D01*
X022252Y022776D01*
X022276Y022770D01*
X022298Y022761D01*
X022319Y022748D01*
X022338Y022732D01*
X022354Y022713D01*
X022367Y022692D01*
X022376Y022670D01*
X022382Y022646D01*
X022384Y022621D01*
X022382Y022596D01*
X022376Y022572D01*
X022367Y022550D01*
X022354Y022529D01*
X022338Y022510D01*
X022319Y022494D01*
X022298Y022481D01*
X022276Y022472D01*
X022252Y022466D01*
X022227Y022464D01*
X022202Y022466D01*
X022178Y022472D01*
X022156Y022481D01*
X022135Y022494D01*
X022116Y022510D01*
X022100Y022529D01*
X022087Y022550D01*
X022078Y022572D01*
X022072Y022596D01*
X022070Y022621D01*
X024826Y022621D02*
X024828Y022646D01*
X024834Y022670D01*
X024843Y022692D01*
X024856Y022713D01*
X024872Y022732D01*
X024891Y022748D01*
X024912Y022761D01*
X024934Y022770D01*
X024958Y022776D01*
X024983Y022778D01*
X025008Y022776D01*
X025032Y022770D01*
X025054Y022761D01*
X025075Y022748D01*
X025094Y022732D01*
X025110Y022713D01*
X025123Y022692D01*
X025132Y022670D01*
X025138Y022646D01*
X025140Y022621D01*
X025138Y022596D01*
X025132Y022572D01*
X025123Y022550D01*
X025110Y022529D01*
X025094Y022510D01*
X025075Y022494D01*
X025054Y022481D01*
X025032Y022472D01*
X025008Y022466D01*
X024983Y022464D01*
X024958Y022466D01*
X024934Y022472D01*
X024912Y022481D01*
X024891Y022494D01*
X024872Y022510D01*
X024856Y022529D01*
X024843Y022550D01*
X024834Y022572D01*
X024828Y022596D01*
X024826Y022621D01*
X027976Y022621D02*
X027978Y022646D01*
X027984Y022670D01*
X027993Y022692D01*
X028006Y022713D01*
X028022Y022732D01*
X028041Y022748D01*
X028062Y022761D01*
X028084Y022770D01*
X028108Y022776D01*
X028133Y022778D01*
X028158Y022776D01*
X028182Y022770D01*
X028204Y022761D01*
X028225Y022748D01*
X028244Y022732D01*
X028260Y022713D01*
X028273Y022692D01*
X028282Y022670D01*
X028288Y022646D01*
X028290Y022621D01*
X028288Y022596D01*
X028282Y022572D01*
X028273Y022550D01*
X028260Y022529D01*
X028244Y022510D01*
X028225Y022494D01*
X028204Y022481D01*
X028182Y022472D01*
X028158Y022466D01*
X028133Y022464D01*
X028108Y022466D01*
X028084Y022472D01*
X028062Y022481D01*
X028041Y022494D01*
X028022Y022510D01*
X028006Y022529D01*
X027993Y022550D01*
X027984Y022572D01*
X027978Y022596D01*
X027976Y022621D01*
X027976Y025771D02*
X027978Y025796D01*
X027984Y025820D01*
X027993Y025842D01*
X028006Y025863D01*
X028022Y025882D01*
X028041Y025898D01*
X028062Y025911D01*
X028084Y025920D01*
X028108Y025926D01*
X028133Y025928D01*
X028158Y025926D01*
X028182Y025920D01*
X028204Y025911D01*
X028225Y025898D01*
X028244Y025882D01*
X028260Y025863D01*
X028273Y025842D01*
X028282Y025820D01*
X028288Y025796D01*
X028290Y025771D01*
X028288Y025746D01*
X028282Y025722D01*
X028273Y025700D01*
X028260Y025679D01*
X028244Y025660D01*
X028225Y025644D01*
X028204Y025631D01*
X028182Y025622D01*
X028158Y025616D01*
X028133Y025614D01*
X028108Y025616D01*
X028084Y025622D01*
X028062Y025631D01*
X028041Y025644D01*
X028022Y025660D01*
X028006Y025679D01*
X027993Y025700D01*
X027984Y025722D01*
X027978Y025746D01*
X027976Y025771D01*
X024826Y025771D02*
X024828Y025796D01*
X024834Y025820D01*
X024843Y025842D01*
X024856Y025863D01*
X024872Y025882D01*
X024891Y025898D01*
X024912Y025911D01*
X024934Y025920D01*
X024958Y025926D01*
X024983Y025928D01*
X025008Y025926D01*
X025032Y025920D01*
X025054Y025911D01*
X025075Y025898D01*
X025094Y025882D01*
X025110Y025863D01*
X025123Y025842D01*
X025132Y025820D01*
X025138Y025796D01*
X025140Y025771D01*
X025138Y025746D01*
X025132Y025722D01*
X025123Y025700D01*
X025110Y025679D01*
X025094Y025660D01*
X025075Y025644D01*
X025054Y025631D01*
X025032Y025622D01*
X025008Y025616D01*
X024983Y025614D01*
X024958Y025616D01*
X024934Y025622D01*
X024912Y025631D01*
X024891Y025644D01*
X024872Y025660D01*
X024856Y025679D01*
X024843Y025700D01*
X024834Y025722D01*
X024828Y025746D01*
X024826Y025771D01*
X022070Y025771D02*
X022072Y025796D01*
X022078Y025820D01*
X022087Y025842D01*
X022100Y025863D01*
X022116Y025882D01*
X022135Y025898D01*
X022156Y025911D01*
X022178Y025920D01*
X022202Y025926D01*
X022227Y025928D01*
X022252Y025926D01*
X022276Y025920D01*
X022298Y025911D01*
X022319Y025898D01*
X022338Y025882D01*
X022354Y025863D01*
X022367Y025842D01*
X022376Y025820D01*
X022382Y025796D01*
X022384Y025771D01*
X022382Y025746D01*
X022376Y025722D01*
X022367Y025700D01*
X022354Y025679D01*
X022338Y025660D01*
X022319Y025644D01*
X022298Y025631D01*
X022276Y025622D01*
X022252Y025616D01*
X022227Y025614D01*
X022202Y025616D01*
X022178Y025622D01*
X022156Y025631D01*
X022135Y025644D01*
X022116Y025660D01*
X022100Y025679D01*
X022087Y025700D01*
X022078Y025722D01*
X022072Y025746D01*
X022070Y025771D01*
X018921Y025771D02*
X018923Y025796D01*
X018929Y025820D01*
X018938Y025842D01*
X018951Y025863D01*
X018967Y025882D01*
X018986Y025898D01*
X019007Y025911D01*
X019029Y025920D01*
X019053Y025926D01*
X019078Y025928D01*
X019103Y025926D01*
X019127Y025920D01*
X019149Y025911D01*
X019170Y025898D01*
X019189Y025882D01*
X019205Y025863D01*
X019218Y025842D01*
X019227Y025820D01*
X019233Y025796D01*
X019235Y025771D01*
X019233Y025746D01*
X019227Y025722D01*
X019218Y025700D01*
X019205Y025679D01*
X019189Y025660D01*
X019170Y025644D01*
X019149Y025631D01*
X019127Y025622D01*
X019103Y025616D01*
X019078Y025614D01*
X019053Y025616D01*
X019029Y025622D01*
X019007Y025631D01*
X018986Y025644D01*
X018967Y025660D01*
X018951Y025679D01*
X018938Y025700D01*
X018929Y025722D01*
X018923Y025746D01*
X018921Y025771D01*
X018921Y022621D02*
X018923Y022646D01*
X018929Y022670D01*
X018938Y022692D01*
X018951Y022713D01*
X018967Y022732D01*
X018986Y022748D01*
X019007Y022761D01*
X019029Y022770D01*
X019053Y022776D01*
X019078Y022778D01*
X019103Y022776D01*
X019127Y022770D01*
X019149Y022761D01*
X019170Y022748D01*
X019189Y022732D01*
X019205Y022713D01*
X019218Y022692D01*
X019227Y022670D01*
X019233Y022646D01*
X019235Y022621D01*
X019233Y022596D01*
X019227Y022572D01*
X019218Y022550D01*
X019205Y022529D01*
X019189Y022510D01*
X019170Y022494D01*
X019149Y022481D01*
X019127Y022472D01*
X019103Y022466D01*
X019078Y022464D01*
X019053Y022466D01*
X019029Y022472D01*
X019007Y022481D01*
X018986Y022494D01*
X018967Y022510D01*
X018951Y022529D01*
X018938Y022550D01*
X018929Y022572D01*
X018923Y022596D01*
X018921Y022621D01*
X018921Y019865D02*
X018923Y019890D01*
X018929Y019914D01*
X018938Y019936D01*
X018951Y019957D01*
X018967Y019976D01*
X018986Y019992D01*
X019007Y020005D01*
X019029Y020014D01*
X019053Y020020D01*
X019078Y020022D01*
X019103Y020020D01*
X019127Y020014D01*
X019149Y020005D01*
X019170Y019992D01*
X019189Y019976D01*
X019205Y019957D01*
X019218Y019936D01*
X019227Y019914D01*
X019233Y019890D01*
X019235Y019865D01*
X019233Y019840D01*
X019227Y019816D01*
X019218Y019794D01*
X019205Y019773D01*
X019189Y019754D01*
X019170Y019738D01*
X019149Y019725D01*
X019127Y019716D01*
X019103Y019710D01*
X019078Y019708D01*
X019053Y019710D01*
X019029Y019716D01*
X019007Y019725D01*
X018986Y019738D01*
X018967Y019754D01*
X018951Y019773D01*
X018938Y019794D01*
X018929Y019816D01*
X018923Y019840D01*
X018921Y019865D01*
X014196Y019865D02*
X014198Y019890D01*
X014204Y019914D01*
X014213Y019936D01*
X014226Y019957D01*
X014242Y019976D01*
X014261Y019992D01*
X014282Y020005D01*
X014304Y020014D01*
X014328Y020020D01*
X014353Y020022D01*
X014378Y020020D01*
X014402Y020014D01*
X014424Y020005D01*
X014445Y019992D01*
X014464Y019976D01*
X014480Y019957D01*
X014493Y019936D01*
X014502Y019914D01*
X014508Y019890D01*
X014510Y019865D01*
X014508Y019840D01*
X014502Y019816D01*
X014493Y019794D01*
X014480Y019773D01*
X014464Y019754D01*
X014445Y019738D01*
X014424Y019725D01*
X014402Y019716D01*
X014378Y019710D01*
X014353Y019708D01*
X014328Y019710D01*
X014304Y019716D01*
X014282Y019725D01*
X014261Y019738D01*
X014242Y019754D01*
X014226Y019773D01*
X014213Y019794D01*
X014204Y019816D01*
X014198Y019840D01*
X014196Y019865D01*
X014196Y022621D02*
X014198Y022646D01*
X014204Y022670D01*
X014213Y022692D01*
X014226Y022713D01*
X014242Y022732D01*
X014261Y022748D01*
X014282Y022761D01*
X014304Y022770D01*
X014328Y022776D01*
X014353Y022778D01*
X014378Y022776D01*
X014402Y022770D01*
X014424Y022761D01*
X014445Y022748D01*
X014464Y022732D01*
X014480Y022713D01*
X014493Y022692D01*
X014502Y022670D01*
X014508Y022646D01*
X014510Y022621D01*
X014508Y022596D01*
X014502Y022572D01*
X014493Y022550D01*
X014480Y022529D01*
X014464Y022510D01*
X014445Y022494D01*
X014424Y022481D01*
X014402Y022472D01*
X014378Y022466D01*
X014353Y022464D01*
X014328Y022466D01*
X014304Y022472D01*
X014282Y022481D01*
X014261Y022494D01*
X014242Y022510D01*
X014226Y022529D01*
X014213Y022550D01*
X014204Y022572D01*
X014198Y022596D01*
X014196Y022621D01*
X011047Y022621D02*
X011049Y022646D01*
X011055Y022670D01*
X011064Y022692D01*
X011077Y022713D01*
X011093Y022732D01*
X011112Y022748D01*
X011133Y022761D01*
X011155Y022770D01*
X011179Y022776D01*
X011204Y022778D01*
X011229Y022776D01*
X011253Y022770D01*
X011275Y022761D01*
X011296Y022748D01*
X011315Y022732D01*
X011331Y022713D01*
X011344Y022692D01*
X011353Y022670D01*
X011359Y022646D01*
X011361Y022621D01*
X011359Y022596D01*
X011353Y022572D01*
X011344Y022550D01*
X011331Y022529D01*
X011315Y022510D01*
X011296Y022494D01*
X011275Y022481D01*
X011253Y022472D01*
X011229Y022466D01*
X011204Y022464D01*
X011179Y022466D01*
X011155Y022472D01*
X011133Y022481D01*
X011112Y022494D01*
X011093Y022510D01*
X011077Y022529D01*
X011064Y022550D01*
X011055Y022572D01*
X011049Y022596D01*
X011047Y022621D01*
X008291Y022621D02*
X008293Y022646D01*
X008299Y022670D01*
X008308Y022692D01*
X008321Y022713D01*
X008337Y022732D01*
X008356Y022748D01*
X008377Y022761D01*
X008399Y022770D01*
X008423Y022776D01*
X008448Y022778D01*
X008473Y022776D01*
X008497Y022770D01*
X008519Y022761D01*
X008540Y022748D01*
X008559Y022732D01*
X008575Y022713D01*
X008588Y022692D01*
X008597Y022670D01*
X008603Y022646D01*
X008605Y022621D01*
X008603Y022596D01*
X008597Y022572D01*
X008588Y022550D01*
X008575Y022529D01*
X008559Y022510D01*
X008540Y022494D01*
X008519Y022481D01*
X008497Y022472D01*
X008473Y022466D01*
X008448Y022464D01*
X008423Y022466D01*
X008399Y022472D01*
X008377Y022481D01*
X008356Y022494D01*
X008337Y022510D01*
X008321Y022529D01*
X008308Y022550D01*
X008299Y022572D01*
X008293Y022596D01*
X008291Y022621D01*
X008291Y019865D02*
X008293Y019890D01*
X008299Y019914D01*
X008308Y019936D01*
X008321Y019957D01*
X008337Y019976D01*
X008356Y019992D01*
X008377Y020005D01*
X008399Y020014D01*
X008423Y020020D01*
X008448Y020022D01*
X008473Y020020D01*
X008497Y020014D01*
X008519Y020005D01*
X008540Y019992D01*
X008559Y019976D01*
X008575Y019957D01*
X008588Y019936D01*
X008597Y019914D01*
X008603Y019890D01*
X008605Y019865D01*
X008603Y019840D01*
X008597Y019816D01*
X008588Y019794D01*
X008575Y019773D01*
X008559Y019754D01*
X008540Y019738D01*
X008519Y019725D01*
X008497Y019716D01*
X008473Y019710D01*
X008448Y019708D01*
X008423Y019710D01*
X008399Y019716D01*
X008377Y019725D01*
X008356Y019738D01*
X008337Y019754D01*
X008321Y019773D01*
X008308Y019794D01*
X008299Y019816D01*
X008293Y019840D01*
X008291Y019865D01*
X011047Y019865D02*
X011049Y019890D01*
X011055Y019914D01*
X011064Y019936D01*
X011077Y019957D01*
X011093Y019976D01*
X011112Y019992D01*
X011133Y020005D01*
X011155Y020014D01*
X011179Y020020D01*
X011204Y020022D01*
X011229Y020020D01*
X011253Y020014D01*
X011275Y020005D01*
X011296Y019992D01*
X011315Y019976D01*
X011331Y019957D01*
X011344Y019936D01*
X011353Y019914D01*
X011359Y019890D01*
X011361Y019865D01*
X011359Y019840D01*
X011353Y019816D01*
X011344Y019794D01*
X011331Y019773D01*
X011315Y019754D01*
X011296Y019738D01*
X011275Y019725D01*
X011253Y019716D01*
X011229Y019710D01*
X011204Y019708D01*
X011179Y019710D01*
X011155Y019716D01*
X011133Y019725D01*
X011112Y019738D01*
X011093Y019754D01*
X011077Y019773D01*
X011064Y019794D01*
X011055Y019816D01*
X011049Y019840D01*
X011047Y019865D01*
X011047Y016715D02*
X011049Y016740D01*
X011055Y016764D01*
X011064Y016786D01*
X011077Y016807D01*
X011093Y016826D01*
X011112Y016842D01*
X011133Y016855D01*
X011155Y016864D01*
X011179Y016870D01*
X011204Y016872D01*
X011229Y016870D01*
X011253Y016864D01*
X011275Y016855D01*
X011296Y016842D01*
X011315Y016826D01*
X011331Y016807D01*
X011344Y016786D01*
X011353Y016764D01*
X011359Y016740D01*
X011361Y016715D01*
X011359Y016690D01*
X011353Y016666D01*
X011344Y016644D01*
X011331Y016623D01*
X011315Y016604D01*
X011296Y016588D01*
X011275Y016575D01*
X011253Y016566D01*
X011229Y016560D01*
X011204Y016558D01*
X011179Y016560D01*
X011155Y016566D01*
X011133Y016575D01*
X011112Y016588D01*
X011093Y016604D01*
X011077Y016623D01*
X011064Y016644D01*
X011055Y016666D01*
X011049Y016690D01*
X011047Y016715D01*
X008291Y016715D02*
X008293Y016740D01*
X008299Y016764D01*
X008308Y016786D01*
X008321Y016807D01*
X008337Y016826D01*
X008356Y016842D01*
X008377Y016855D01*
X008399Y016864D01*
X008423Y016870D01*
X008448Y016872D01*
X008473Y016870D01*
X008497Y016864D01*
X008519Y016855D01*
X008540Y016842D01*
X008559Y016826D01*
X008575Y016807D01*
X008588Y016786D01*
X008597Y016764D01*
X008603Y016740D01*
X008605Y016715D01*
X008603Y016690D01*
X008597Y016666D01*
X008588Y016644D01*
X008575Y016623D01*
X008559Y016604D01*
X008540Y016588D01*
X008519Y016575D01*
X008497Y016566D01*
X008473Y016560D01*
X008448Y016558D01*
X008423Y016560D01*
X008399Y016566D01*
X008377Y016575D01*
X008356Y016588D01*
X008337Y016604D01*
X008321Y016623D01*
X008308Y016644D01*
X008299Y016666D01*
X008293Y016690D01*
X008291Y016715D01*
X005141Y016715D02*
X005143Y016740D01*
X005149Y016764D01*
X005158Y016786D01*
X005171Y016807D01*
X005187Y016826D01*
X005206Y016842D01*
X005227Y016855D01*
X005249Y016864D01*
X005273Y016870D01*
X005298Y016872D01*
X005323Y016870D01*
X005347Y016864D01*
X005369Y016855D01*
X005390Y016842D01*
X005409Y016826D01*
X005425Y016807D01*
X005438Y016786D01*
X005447Y016764D01*
X005453Y016740D01*
X005455Y016715D01*
X005453Y016690D01*
X005447Y016666D01*
X005438Y016644D01*
X005425Y016623D01*
X005409Y016604D01*
X005390Y016588D01*
X005369Y016575D01*
X005347Y016566D01*
X005323Y016560D01*
X005298Y016558D01*
X005273Y016560D01*
X005249Y016566D01*
X005227Y016575D01*
X005206Y016588D01*
X005187Y016604D01*
X005171Y016623D01*
X005158Y016644D01*
X005149Y016666D01*
X005143Y016690D01*
X005141Y016715D01*
X005141Y019865D02*
X005143Y019890D01*
X005149Y019914D01*
X005158Y019936D01*
X005171Y019957D01*
X005187Y019976D01*
X005206Y019992D01*
X005227Y020005D01*
X005249Y020014D01*
X005273Y020020D01*
X005298Y020022D01*
X005323Y020020D01*
X005347Y020014D01*
X005369Y020005D01*
X005390Y019992D01*
X005409Y019976D01*
X005425Y019957D01*
X005438Y019936D01*
X005447Y019914D01*
X005453Y019890D01*
X005455Y019865D01*
X005453Y019840D01*
X005447Y019816D01*
X005438Y019794D01*
X005425Y019773D01*
X005409Y019754D01*
X005390Y019738D01*
X005369Y019725D01*
X005347Y019716D01*
X005323Y019710D01*
X005298Y019708D01*
X005273Y019710D01*
X005249Y019716D01*
X005227Y019725D01*
X005206Y019738D01*
X005187Y019754D01*
X005171Y019773D01*
X005158Y019794D01*
X005149Y019816D01*
X005143Y019840D01*
X005141Y019865D01*
X005141Y022621D02*
X005143Y022646D01*
X005149Y022670D01*
X005158Y022692D01*
X005171Y022713D01*
X005187Y022732D01*
X005206Y022748D01*
X005227Y022761D01*
X005249Y022770D01*
X005273Y022776D01*
X005298Y022778D01*
X005323Y022776D01*
X005347Y022770D01*
X005369Y022761D01*
X005390Y022748D01*
X005409Y022732D01*
X005425Y022713D01*
X005438Y022692D01*
X005447Y022670D01*
X005453Y022646D01*
X005455Y022621D01*
X005453Y022596D01*
X005447Y022572D01*
X005438Y022550D01*
X005425Y022529D01*
X005409Y022510D01*
X005390Y022494D01*
X005369Y022481D01*
X005347Y022472D01*
X005323Y022466D01*
X005298Y022464D01*
X005273Y022466D01*
X005249Y022472D01*
X005227Y022481D01*
X005206Y022494D01*
X005187Y022510D01*
X005171Y022529D01*
X005158Y022550D01*
X005149Y022572D01*
X005143Y022596D01*
X005141Y022621D01*
X005141Y025771D02*
X005143Y025796D01*
X005149Y025820D01*
X005158Y025842D01*
X005171Y025863D01*
X005187Y025882D01*
X005206Y025898D01*
X005227Y025911D01*
X005249Y025920D01*
X005273Y025926D01*
X005298Y025928D01*
X005323Y025926D01*
X005347Y025920D01*
X005369Y025911D01*
X005390Y025898D01*
X005409Y025882D01*
X005425Y025863D01*
X005438Y025842D01*
X005447Y025820D01*
X005453Y025796D01*
X005455Y025771D01*
X005453Y025746D01*
X005447Y025722D01*
X005438Y025700D01*
X005425Y025679D01*
X005409Y025660D01*
X005390Y025644D01*
X005369Y025631D01*
X005347Y025622D01*
X005323Y025616D01*
X005298Y025614D01*
X005273Y025616D01*
X005249Y025622D01*
X005227Y025631D01*
X005206Y025644D01*
X005187Y025660D01*
X005171Y025679D01*
X005158Y025700D01*
X005149Y025722D01*
X005143Y025746D01*
X005141Y025771D01*
X008291Y025771D02*
X008293Y025796D01*
X008299Y025820D01*
X008308Y025842D01*
X008321Y025863D01*
X008337Y025882D01*
X008356Y025898D01*
X008377Y025911D01*
X008399Y025920D01*
X008423Y025926D01*
X008448Y025928D01*
X008473Y025926D01*
X008497Y025920D01*
X008519Y025911D01*
X008540Y025898D01*
X008559Y025882D01*
X008575Y025863D01*
X008588Y025842D01*
X008597Y025820D01*
X008603Y025796D01*
X008605Y025771D01*
X008603Y025746D01*
X008597Y025722D01*
X008588Y025700D01*
X008575Y025679D01*
X008559Y025660D01*
X008540Y025644D01*
X008519Y025631D01*
X008497Y025622D01*
X008473Y025616D01*
X008448Y025614D01*
X008423Y025616D01*
X008399Y025622D01*
X008377Y025631D01*
X008356Y025644D01*
X008337Y025660D01*
X008321Y025679D01*
X008308Y025700D01*
X008299Y025722D01*
X008293Y025746D01*
X008291Y025771D01*
X011047Y025771D02*
X011049Y025796D01*
X011055Y025820D01*
X011064Y025842D01*
X011077Y025863D01*
X011093Y025882D01*
X011112Y025898D01*
X011133Y025911D01*
X011155Y025920D01*
X011179Y025926D01*
X011204Y025928D01*
X011229Y025926D01*
X011253Y025920D01*
X011275Y025911D01*
X011296Y025898D01*
X011315Y025882D01*
X011331Y025863D01*
X011344Y025842D01*
X011353Y025820D01*
X011359Y025796D01*
X011361Y025771D01*
X011359Y025746D01*
X011353Y025722D01*
X011344Y025700D01*
X011331Y025679D01*
X011315Y025660D01*
X011296Y025644D01*
X011275Y025631D01*
X011253Y025622D01*
X011229Y025616D01*
X011204Y025614D01*
X011179Y025616D01*
X011155Y025622D01*
X011133Y025631D01*
X011112Y025644D01*
X011093Y025660D01*
X011077Y025679D01*
X011064Y025700D01*
X011055Y025722D01*
X011049Y025746D01*
X011047Y025771D01*
X014196Y025771D02*
X014198Y025796D01*
X014204Y025820D01*
X014213Y025842D01*
X014226Y025863D01*
X014242Y025882D01*
X014261Y025898D01*
X014282Y025911D01*
X014304Y025920D01*
X014328Y025926D01*
X014353Y025928D01*
X014378Y025926D01*
X014402Y025920D01*
X014424Y025911D01*
X014445Y025898D01*
X014464Y025882D01*
X014480Y025863D01*
X014493Y025842D01*
X014502Y025820D01*
X014508Y025796D01*
X014510Y025771D01*
X014508Y025746D01*
X014502Y025722D01*
X014493Y025700D01*
X014480Y025679D01*
X014464Y025660D01*
X014445Y025644D01*
X014424Y025631D01*
X014402Y025622D01*
X014378Y025616D01*
X014353Y025614D01*
X014328Y025616D01*
X014304Y025622D01*
X014282Y025631D01*
X014261Y025644D01*
X014242Y025660D01*
X014226Y025679D01*
X014213Y025700D01*
X014204Y025722D01*
X014198Y025746D01*
X014196Y025771D01*
X014196Y016715D02*
X014198Y016740D01*
X014204Y016764D01*
X014213Y016786D01*
X014226Y016807D01*
X014242Y016826D01*
X014261Y016842D01*
X014282Y016855D01*
X014304Y016864D01*
X014328Y016870D01*
X014353Y016872D01*
X014378Y016870D01*
X014402Y016864D01*
X014424Y016855D01*
X014445Y016842D01*
X014464Y016826D01*
X014480Y016807D01*
X014493Y016786D01*
X014502Y016764D01*
X014508Y016740D01*
X014510Y016715D01*
X014508Y016690D01*
X014502Y016666D01*
X014493Y016644D01*
X014480Y016623D01*
X014464Y016604D01*
X014445Y016588D01*
X014424Y016575D01*
X014402Y016566D01*
X014378Y016560D01*
X014353Y016558D01*
X014328Y016560D01*
X014304Y016566D01*
X014282Y016575D01*
X014261Y016588D01*
X014242Y016604D01*
X014226Y016623D01*
X014213Y016644D01*
X014204Y016666D01*
X014198Y016690D01*
X014196Y016715D01*
D16*
X013014Y017351D02*
X012527Y017351D01*
X012790Y018997D02*
X012790Y019484D01*
X012547Y019241D02*
X013034Y019241D01*
X012592Y023003D02*
X012592Y023490D01*
X012348Y023246D02*
X012836Y023246D01*
X012856Y025136D02*
X012368Y025136D01*
X006950Y025136D02*
X006463Y025136D01*
X006686Y023490D02*
X006686Y023003D01*
X006443Y023246D02*
X006930Y023246D01*
X006885Y019484D02*
X006885Y018997D01*
X007128Y019241D02*
X006641Y019241D01*
X006621Y017351D02*
X007108Y017351D01*
X006950Y011357D02*
X006463Y011357D01*
X006686Y009710D02*
X006686Y009223D01*
X006443Y009467D02*
X006930Y009467D01*
X006885Y005705D02*
X006885Y005217D01*
X007128Y005461D02*
X006641Y005461D01*
X006621Y003571D02*
X007108Y003571D01*
X012527Y003571D02*
X013014Y003571D01*
X012790Y005217D02*
X012790Y005705D01*
X012547Y005461D02*
X013034Y005461D01*
X012592Y009223D02*
X012592Y009710D01*
X012348Y009467D02*
X012836Y009467D01*
X012856Y011357D02*
X012368Y011357D01*
X020242Y011357D02*
X020730Y011357D01*
X020466Y009710D02*
X020466Y009223D01*
X020222Y009467D02*
X020710Y009467D01*
X020664Y005705D02*
X020664Y005217D01*
X020421Y005461D02*
X020908Y005461D01*
X020888Y003571D02*
X020401Y003571D01*
X026306Y003571D02*
X026793Y003571D01*
X026570Y005217D02*
X026570Y005705D01*
X026813Y005461D02*
X026326Y005461D01*
X026371Y009223D02*
X026371Y009710D01*
X026128Y009467D02*
X026615Y009467D01*
X026635Y011357D02*
X026148Y011357D01*
X026306Y017351D02*
X026793Y017351D01*
X026570Y018997D02*
X026570Y019484D01*
X026813Y019241D02*
X026326Y019241D01*
X026371Y023003D02*
X026371Y023490D01*
X026128Y023246D02*
X026615Y023246D01*
X026635Y025136D02*
X026148Y025136D01*
X020730Y025136D02*
X020242Y025136D01*
X020466Y023490D02*
X020466Y023003D01*
X020222Y023246D02*
X020710Y023246D01*
X020664Y019484D02*
X020664Y018997D01*
X020421Y019241D02*
X020908Y019241D01*
X020888Y017351D02*
X020401Y017351D01*
D17*
X031633Y022571D02*
X031633Y022721D01*
X031633Y022646D02*
X032009Y022646D01*
X032084Y022571D01*
X032084Y022496D01*
X032009Y022421D01*
X032084Y022881D02*
X031633Y022881D01*
X031633Y023106D01*
X031708Y023181D01*
X031858Y023181D01*
X031934Y023106D01*
X031934Y022881D01*
X032084Y023342D02*
X031783Y023642D01*
X031708Y023642D01*
X031633Y023567D01*
X031633Y023417D01*
X031708Y023342D01*
X032084Y023342D02*
X032084Y023642D01*
X002191Y006963D02*
X002191Y006663D01*
X002191Y006813D02*
X001741Y006813D01*
X001891Y006663D01*
X001966Y006503D02*
X002041Y006428D01*
X002041Y006202D01*
X002191Y006202D02*
X001741Y006202D01*
X001741Y006428D01*
X001816Y006503D01*
X001966Y006503D01*
X001741Y006042D02*
X001741Y005892D01*
X001741Y005967D02*
X002116Y005967D01*
X002191Y005892D01*
X002191Y005817D01*
X002116Y005742D01*
M02*
