%
M48
M72
T01C0.0236
T02C0.0240
T03C0.0320
T04C0.0354
T05C0.0360
T06C0.0520
T07C0.1102
T08C0.1181
%
T01
X13278Y13566
X21074Y12542
X26546Y10967
X29578Y12306
X30759Y14589
X32373Y14668
X39105Y8881
X35601Y7424
X37924Y6440
X29381Y6637
X26900Y8054
X24263Y5337
X18121Y5613
X13711Y7739
X6192Y8841
X3239Y7660
T02
X17290Y13461
X23890Y13461
X11570Y8951
X3210Y4221
X15530Y5431
X25320Y5871
X27410Y4771
X39180Y5651
T03
X17652Y10341
X18652Y10341
X19652Y10341
X20652Y10341
X21652Y10341
X22652Y10341
X23652Y10341
X24652Y10341
X24652Y7341
X23652Y7341
X22652Y7341
X21652Y7341
X20652Y7341
X19652Y7341
X18652Y7341
X17652Y7341
T04
X8357Y8841
X10326Y8841
X37349Y7086
X40349Y7086
T05
X41192Y13141
T06
X32336Y8755
X34316Y8755
X34316Y6785
X32336Y6785
X32336Y4815
X34316Y4815
X34316Y10725
X32336Y10725
X32336Y12695
X34316Y12695
T07
X1861Y9314
X41074Y8802
T08
X2058Y14747
X4814Y14747
X13869Y14747
X16625Y14747
X25680Y14747
X28436Y14747
X37491Y14747
X40247Y14747
X40247Y2936
X37491Y2936
X28436Y2936
X25680Y2936
X16625Y2936
X13869Y2936
X4814Y2936
X2058Y2936
M30
