G75*
%MOIN*%
%OFA0B0*%
%FSLAX24Y24*%
%IPPOS*%
%LPD*%
%AMOC8*
5,1,8,0,0,1.08239X$1,22.5*
%
%ADD10C,0.0000*%
D10*
X000680Y001499D02*
X000680Y015995D01*
X042495Y015995D01*
X042495Y001499D01*
X000680Y001499D01*
X001310Y009314D02*
X001312Y009361D01*
X001318Y009407D01*
X001328Y009453D01*
X001341Y009498D01*
X001359Y009541D01*
X001380Y009583D01*
X001404Y009623D01*
X001432Y009660D01*
X001463Y009695D01*
X001497Y009728D01*
X001533Y009757D01*
X001572Y009783D01*
X001613Y009806D01*
X001656Y009825D01*
X001700Y009841D01*
X001745Y009853D01*
X001791Y009861D01*
X001838Y009865D01*
X001884Y009865D01*
X001931Y009861D01*
X001977Y009853D01*
X002022Y009841D01*
X002066Y009825D01*
X002109Y009806D01*
X002150Y009783D01*
X002189Y009757D01*
X002225Y009728D01*
X002259Y009695D01*
X002290Y009660D01*
X002318Y009623D01*
X002342Y009583D01*
X002363Y009541D01*
X002381Y009498D01*
X002394Y009453D01*
X002404Y009407D01*
X002410Y009361D01*
X002412Y009314D01*
X002410Y009267D01*
X002404Y009221D01*
X002394Y009175D01*
X002381Y009130D01*
X002363Y009087D01*
X002342Y009045D01*
X002318Y009005D01*
X002290Y008968D01*
X002259Y008933D01*
X002225Y008900D01*
X002189Y008871D01*
X002150Y008845D01*
X002109Y008822D01*
X002066Y008803D01*
X002022Y008787D01*
X001977Y008775D01*
X001931Y008767D01*
X001884Y008763D01*
X001838Y008763D01*
X001791Y008767D01*
X001745Y008775D01*
X001700Y008787D01*
X001656Y008803D01*
X001613Y008822D01*
X001572Y008845D01*
X001533Y008871D01*
X001497Y008900D01*
X001463Y008933D01*
X001432Y008968D01*
X001404Y009005D01*
X001380Y009045D01*
X001359Y009087D01*
X001341Y009130D01*
X001328Y009175D01*
X001318Y009221D01*
X001312Y009267D01*
X001310Y009314D01*
X040523Y008802D02*
X040525Y008849D01*
X040531Y008895D01*
X040541Y008941D01*
X040554Y008986D01*
X040572Y009029D01*
X040593Y009071D01*
X040617Y009111D01*
X040645Y009148D01*
X040676Y009183D01*
X040710Y009216D01*
X040746Y009245D01*
X040785Y009271D01*
X040826Y009294D01*
X040869Y009313D01*
X040913Y009329D01*
X040958Y009341D01*
X041004Y009349D01*
X041051Y009353D01*
X041097Y009353D01*
X041144Y009349D01*
X041190Y009341D01*
X041235Y009329D01*
X041279Y009313D01*
X041322Y009294D01*
X041363Y009271D01*
X041402Y009245D01*
X041438Y009216D01*
X041472Y009183D01*
X041503Y009148D01*
X041531Y009111D01*
X041555Y009071D01*
X041576Y009029D01*
X041594Y008986D01*
X041607Y008941D01*
X041617Y008895D01*
X041623Y008849D01*
X041625Y008802D01*
X041623Y008755D01*
X041617Y008709D01*
X041607Y008663D01*
X041594Y008618D01*
X041576Y008575D01*
X041555Y008533D01*
X041531Y008493D01*
X041503Y008456D01*
X041472Y008421D01*
X041438Y008388D01*
X041402Y008359D01*
X041363Y008333D01*
X041322Y008310D01*
X041279Y008291D01*
X041235Y008275D01*
X041190Y008263D01*
X041144Y008255D01*
X041097Y008251D01*
X041051Y008251D01*
X041004Y008255D01*
X040958Y008263D01*
X040913Y008275D01*
X040869Y008291D01*
X040826Y008310D01*
X040785Y008333D01*
X040746Y008359D01*
X040710Y008388D01*
X040676Y008421D01*
X040645Y008456D01*
X040617Y008493D01*
X040593Y008533D01*
X040572Y008575D01*
X040554Y008618D01*
X040541Y008663D01*
X040531Y008709D01*
X040525Y008755D01*
X040523Y008802D01*
M02*
