G75*
%MOIN*%
%OFA0B0*%
%FSLAX24Y24*%
%IPPOS*%
%LPD*%
%AMOC8*
5,1,8,0,0,1.08239X$1,22.5*
%
%ADD10C,0.0000*%
%ADD11C,0.0060*%
%ADD12C,0.0080*%
%ADD13C,0.0010*%
%ADD14C,0.0050*%
%ADD15C,0.0030*%
%ADD16C,0.0100*%
D10*
X000680Y001499D02*
X000680Y015995D01*
X042495Y015995D01*
X042495Y001499D01*
X000680Y001499D01*
X001310Y009314D02*
X001312Y009361D01*
X001318Y009407D01*
X001328Y009453D01*
X001341Y009498D01*
X001359Y009541D01*
X001380Y009583D01*
X001404Y009623D01*
X001432Y009660D01*
X001463Y009695D01*
X001497Y009728D01*
X001533Y009757D01*
X001572Y009783D01*
X001613Y009806D01*
X001656Y009825D01*
X001700Y009841D01*
X001745Y009853D01*
X001791Y009861D01*
X001838Y009865D01*
X001884Y009865D01*
X001931Y009861D01*
X001977Y009853D01*
X002022Y009841D01*
X002066Y009825D01*
X002109Y009806D01*
X002150Y009783D01*
X002189Y009757D01*
X002225Y009728D01*
X002259Y009695D01*
X002290Y009660D01*
X002318Y009623D01*
X002342Y009583D01*
X002363Y009541D01*
X002381Y009498D01*
X002394Y009453D01*
X002404Y009407D01*
X002410Y009361D01*
X002412Y009314D01*
X002410Y009267D01*
X002404Y009221D01*
X002394Y009175D01*
X002381Y009130D01*
X002363Y009087D01*
X002342Y009045D01*
X002318Y009005D01*
X002290Y008968D01*
X002259Y008933D01*
X002225Y008900D01*
X002189Y008871D01*
X002150Y008845D01*
X002109Y008822D01*
X002066Y008803D01*
X002022Y008787D01*
X001977Y008775D01*
X001931Y008767D01*
X001884Y008763D01*
X001838Y008763D01*
X001791Y008767D01*
X001745Y008775D01*
X001700Y008787D01*
X001656Y008803D01*
X001613Y008822D01*
X001572Y008845D01*
X001533Y008871D01*
X001497Y008900D01*
X001463Y008933D01*
X001432Y008968D01*
X001404Y009005D01*
X001380Y009045D01*
X001359Y009087D01*
X001341Y009130D01*
X001328Y009175D01*
X001318Y009221D01*
X001312Y009267D01*
X001310Y009314D01*
X040523Y008802D02*
X040525Y008849D01*
X040531Y008895D01*
X040541Y008941D01*
X040554Y008986D01*
X040572Y009029D01*
X040593Y009071D01*
X040617Y009111D01*
X040645Y009148D01*
X040676Y009183D01*
X040710Y009216D01*
X040746Y009245D01*
X040785Y009271D01*
X040826Y009294D01*
X040869Y009313D01*
X040913Y009329D01*
X040958Y009341D01*
X041004Y009349D01*
X041051Y009353D01*
X041097Y009353D01*
X041144Y009349D01*
X041190Y009341D01*
X041235Y009329D01*
X041279Y009313D01*
X041322Y009294D01*
X041363Y009271D01*
X041402Y009245D01*
X041438Y009216D01*
X041472Y009183D01*
X041503Y009148D01*
X041531Y009111D01*
X041555Y009071D01*
X041576Y009029D01*
X041594Y008986D01*
X041607Y008941D01*
X041617Y008895D01*
X041623Y008849D01*
X041625Y008802D01*
X041623Y008755D01*
X041617Y008709D01*
X041607Y008663D01*
X041594Y008618D01*
X041576Y008575D01*
X041555Y008533D01*
X041531Y008493D01*
X041503Y008456D01*
X041472Y008421D01*
X041438Y008388D01*
X041402Y008359D01*
X041363Y008333D01*
X041322Y008310D01*
X041279Y008291D01*
X041235Y008275D01*
X041190Y008263D01*
X041144Y008255D01*
X041097Y008251D01*
X041051Y008251D01*
X041004Y008255D01*
X040958Y008263D01*
X040913Y008275D01*
X040869Y008291D01*
X040826Y008310D01*
X040785Y008333D01*
X040746Y008359D01*
X040710Y008388D01*
X040676Y008421D01*
X040645Y008456D01*
X040617Y008493D01*
X040593Y008533D01*
X040572Y008575D01*
X040554Y008618D01*
X040541Y008663D01*
X040531Y008709D01*
X040525Y008755D01*
X040523Y008802D01*
D11*
X040892Y012841D02*
X040992Y012841D01*
X040892Y012841D02*
X040892Y012941D01*
X041392Y012841D02*
X041492Y012841D01*
X041492Y012941D01*
X041492Y013341D02*
X041492Y013441D01*
X041392Y013441D01*
X040992Y013441D02*
X040892Y013441D01*
X040892Y013341D01*
X035276Y013645D02*
X035276Y003845D01*
X031376Y003845D01*
X031376Y013645D01*
X035276Y013645D01*
X025154Y014383D02*
X024940Y014383D01*
X025047Y014383D02*
X025047Y015024D01*
X024940Y015024D02*
X025154Y015024D01*
X024723Y014917D02*
X024616Y015024D01*
X024296Y015024D01*
X024296Y014383D01*
X024616Y014383D01*
X024723Y014490D01*
X024723Y014917D01*
X024079Y015024D02*
X023866Y015024D01*
X023973Y015024D02*
X023973Y014383D01*
X024079Y014383D02*
X023866Y014383D01*
X023648Y014383D02*
X023648Y015024D01*
X023435Y014810D01*
X023221Y015024D01*
X023221Y014383D01*
X022359Y014383D02*
X022039Y014383D01*
X021932Y014490D01*
X021932Y014704D01*
X022039Y014810D01*
X022359Y014810D01*
X021609Y014810D02*
X021609Y014383D01*
X021502Y014383D02*
X021716Y014383D01*
X021609Y014810D02*
X021502Y014810D01*
X021286Y014810D02*
X021179Y014810D01*
X020965Y014597D01*
X020965Y014810D02*
X020965Y014383D01*
X020748Y014597D02*
X020321Y014597D01*
X020321Y014490D02*
X020321Y014704D01*
X020428Y014810D01*
X020641Y014810D01*
X020748Y014704D01*
X020748Y014597D01*
X020641Y014383D02*
X020428Y014383D01*
X020321Y014490D01*
X020103Y014383D02*
X020103Y014704D01*
X019997Y014810D01*
X019676Y014810D01*
X019676Y014383D01*
X019459Y014597D02*
X019032Y014597D01*
X019032Y014490D02*
X019032Y014704D01*
X019138Y014810D01*
X019352Y014810D01*
X019459Y014704D01*
X019459Y014597D01*
X019352Y014383D02*
X019138Y014383D01*
X019032Y014490D01*
X018814Y014490D02*
X018707Y014383D01*
X018494Y014383D01*
X018387Y014490D01*
X018387Y014917D01*
X018494Y015024D01*
X018707Y015024D01*
X018814Y014917D01*
X018814Y014704D02*
X018601Y014704D01*
X018814Y014704D02*
X018814Y014490D01*
X021609Y015024D02*
X021609Y015131D01*
X025152Y010841D02*
X017152Y010841D01*
X017152Y009841D01*
X017152Y009241D01*
X017191Y009239D01*
X017230Y009233D01*
X017268Y009224D01*
X017305Y009211D01*
X017341Y009194D01*
X017374Y009174D01*
X017406Y009150D01*
X017435Y009124D01*
X017461Y009095D01*
X017485Y009063D01*
X017505Y009030D01*
X017522Y008994D01*
X017535Y008957D01*
X017544Y008919D01*
X017550Y008880D01*
X017552Y008841D01*
X017550Y008802D01*
X017544Y008763D01*
X017535Y008725D01*
X017522Y008688D01*
X017505Y008652D01*
X017485Y008619D01*
X017461Y008587D01*
X017435Y008558D01*
X017406Y008532D01*
X017374Y008508D01*
X017341Y008488D01*
X017305Y008471D01*
X017268Y008458D01*
X017230Y008449D01*
X017191Y008443D01*
X017152Y008441D01*
X017152Y007841D01*
X025152Y007841D01*
X025152Y006841D01*
X017152Y006841D01*
X017152Y007841D01*
X018978Y008517D02*
X018978Y008624D01*
X019405Y009051D01*
X019405Y009158D01*
X018978Y009158D01*
X019622Y008837D02*
X020049Y008837D01*
X020267Y008837D02*
X020694Y008837D01*
X020911Y008624D02*
X021018Y008517D01*
X021232Y008517D01*
X021338Y008624D01*
X021556Y008837D02*
X021983Y008837D01*
X022200Y008624D02*
X022627Y009051D01*
X022627Y008624D01*
X022521Y008517D01*
X022307Y008517D01*
X022200Y008624D01*
X022200Y009051D01*
X022307Y009158D01*
X022521Y009158D01*
X022627Y009051D01*
X022845Y009158D02*
X022845Y008837D01*
X023059Y008944D01*
X023165Y008944D01*
X023272Y008837D01*
X023272Y008624D01*
X023165Y008517D01*
X022952Y008517D01*
X022845Y008624D01*
X023490Y008517D02*
X023917Y008517D01*
X023703Y008517D02*
X023703Y009158D01*
X023490Y008944D01*
X023272Y009158D02*
X022845Y009158D01*
X021876Y009158D02*
X021556Y008837D01*
X021338Y009051D02*
X021232Y009158D01*
X021018Y009158D01*
X020911Y009051D01*
X020911Y008624D01*
X020694Y008517D02*
X020694Y009158D01*
X020267Y009158D02*
X020267Y008517D01*
X019943Y008517D02*
X019943Y009158D01*
X019622Y008837D01*
X021876Y008517D02*
X021876Y009158D01*
X025152Y009841D02*
X025152Y007841D01*
X025152Y009841D02*
X017152Y009841D01*
X025152Y009841D02*
X025152Y010841D01*
X030713Y003083D02*
X030713Y002977D01*
X030713Y002763D02*
X030607Y002763D01*
X030713Y002763D02*
X030713Y002336D01*
X030607Y002336D02*
X030820Y002336D01*
X031036Y002443D02*
X031143Y002336D01*
X031463Y002336D01*
X031681Y002336D02*
X031681Y002977D01*
X031463Y002763D02*
X031143Y002763D01*
X031036Y002656D01*
X031036Y002443D01*
X031681Y002549D02*
X032001Y002763D01*
X032218Y002656D02*
X032218Y002443D01*
X032325Y002336D01*
X032538Y002336D01*
X032645Y002443D01*
X032645Y002656D01*
X032538Y002763D01*
X032325Y002763D01*
X032218Y002656D01*
X032001Y002336D02*
X031681Y002549D01*
X030389Y002336D02*
X030389Y002977D01*
X029962Y002977D02*
X030389Y002336D01*
X029962Y002336D02*
X029962Y002977D01*
X032862Y002977D02*
X032969Y002977D01*
X032969Y002336D01*
X032862Y002336D02*
X033076Y002336D01*
X033292Y002443D02*
X033399Y002549D01*
X033719Y002549D01*
X033719Y002656D02*
X033719Y002336D01*
X033399Y002336D01*
X033292Y002443D01*
X033612Y002763D02*
X033719Y002656D01*
X033612Y002763D02*
X033399Y002763D01*
X033937Y002656D02*
X034043Y002763D01*
X034364Y002763D01*
X034257Y002549D02*
X034043Y002549D01*
X033937Y002656D01*
X033937Y002336D02*
X034257Y002336D01*
X034364Y002443D01*
X034257Y002549D01*
X035226Y002656D02*
X035546Y002656D01*
X035653Y002549D01*
X035653Y002443D01*
X035546Y002336D01*
X035226Y002336D01*
X035226Y002977D01*
X035546Y002977D01*
X035653Y002870D01*
X035653Y002763D01*
X035546Y002656D01*
X035870Y002656D02*
X035870Y002443D01*
X035977Y002336D01*
X036191Y002336D01*
X036297Y002443D01*
X036297Y002656D01*
X036191Y002763D01*
X035977Y002763D01*
X035870Y002656D01*
X036515Y002763D02*
X036515Y002443D01*
X036622Y002336D01*
X036942Y002336D01*
X036942Y002229D02*
X036835Y002122D01*
X036728Y002122D01*
X036942Y002229D02*
X036942Y002763D01*
X037159Y002656D02*
X037266Y002763D01*
X037480Y002763D01*
X037586Y002656D01*
X037586Y002549D01*
X037159Y002549D01*
X037159Y002443D02*
X037159Y002656D01*
X037159Y002443D02*
X037266Y002336D01*
X037480Y002336D01*
X037804Y002336D02*
X037804Y002763D01*
X037804Y002549D02*
X038018Y002763D01*
X038124Y002763D01*
X011966Y002533D02*
X011538Y002533D01*
X011752Y002533D02*
X011752Y003173D01*
X011538Y002960D01*
X010999Y003067D02*
X010572Y002640D01*
X010678Y002533D01*
X010892Y002533D01*
X010999Y002640D01*
X010999Y003067D01*
X010892Y003173D01*
X010678Y003173D01*
X010572Y003067D01*
X010572Y002640D01*
X011216Y002640D02*
X011323Y002640D01*
X011323Y002533D01*
X011216Y002533D01*
X011216Y002640D01*
X009710Y002960D02*
X009496Y002533D01*
X009283Y002960D01*
X009065Y002853D02*
X009065Y002746D01*
X008638Y002746D01*
X008638Y002640D02*
X008638Y002853D01*
X008745Y002960D01*
X008958Y002960D01*
X009065Y002853D01*
X008958Y002533D02*
X008745Y002533D01*
X008638Y002640D01*
X008420Y002533D02*
X008207Y002746D01*
X008314Y002746D02*
X007993Y002746D01*
X007993Y002533D02*
X007993Y003173D01*
X008314Y003173D01*
X008420Y003067D01*
X008420Y002853D01*
X008314Y002746D01*
D12*
X007191Y008841D02*
X007193Y008933D01*
X007199Y009026D01*
X007209Y009118D01*
X007223Y009209D01*
X007241Y009300D01*
X007262Y009390D01*
X007288Y009479D01*
X007317Y009567D01*
X007350Y009653D01*
X007387Y009738D01*
X007427Y009821D01*
X007471Y009903D01*
X007519Y009982D01*
X007570Y010059D01*
X007624Y010134D01*
X007681Y010207D01*
X007741Y010277D01*
X007804Y010345D01*
X007871Y010410D01*
X007939Y010471D01*
X008011Y010530D01*
X008085Y010586D01*
X008161Y010638D01*
X008239Y010687D01*
X008320Y010733D01*
X008402Y010775D01*
X008486Y010814D01*
X008572Y010849D01*
X008659Y010880D01*
X008747Y010907D01*
X008837Y010931D01*
X008927Y010951D01*
X009018Y010967D01*
X009110Y010979D01*
X009202Y010987D01*
X009295Y010991D01*
X009387Y010991D01*
X009480Y010987D01*
X009572Y010979D01*
X009664Y010967D01*
X009755Y010951D01*
X009845Y010931D01*
X009935Y010907D01*
X010023Y010880D01*
X010110Y010849D01*
X010196Y010814D01*
X010280Y010775D01*
X010362Y010733D01*
X010443Y010687D01*
X010521Y010638D01*
X010597Y010586D01*
X010671Y010530D01*
X010743Y010471D01*
X010811Y010410D01*
X010878Y010345D01*
X010941Y010277D01*
X011001Y010207D01*
X011058Y010134D01*
X011112Y010059D01*
X011163Y009982D01*
X011211Y009903D01*
X011255Y009821D01*
X011295Y009738D01*
X011332Y009653D01*
X011365Y009567D01*
X011394Y009479D01*
X011420Y009390D01*
X011441Y009300D01*
X011459Y009209D01*
X011473Y009118D01*
X011483Y009026D01*
X011489Y008933D01*
X011491Y008841D01*
X011489Y008749D01*
X011483Y008656D01*
X011473Y008564D01*
X011459Y008473D01*
X011441Y008382D01*
X011420Y008292D01*
X011394Y008203D01*
X011365Y008115D01*
X011332Y008029D01*
X011295Y007944D01*
X011255Y007861D01*
X011211Y007779D01*
X011163Y007700D01*
X011112Y007623D01*
X011058Y007548D01*
X011001Y007475D01*
X010941Y007405D01*
X010878Y007337D01*
X010811Y007272D01*
X010743Y007211D01*
X010671Y007152D01*
X010597Y007096D01*
X010521Y007044D01*
X010443Y006995D01*
X010362Y006949D01*
X010280Y006907D01*
X010196Y006868D01*
X010110Y006833D01*
X010023Y006802D01*
X009935Y006775D01*
X009845Y006751D01*
X009755Y006731D01*
X009664Y006715D01*
X009572Y006703D01*
X009480Y006695D01*
X009387Y006691D01*
X009295Y006691D01*
X009202Y006695D01*
X009110Y006703D01*
X009018Y006715D01*
X008927Y006731D01*
X008837Y006751D01*
X008747Y006775D01*
X008659Y006802D01*
X008572Y006833D01*
X008486Y006868D01*
X008402Y006907D01*
X008320Y006949D01*
X008239Y006995D01*
X008161Y007044D01*
X008085Y007096D01*
X008011Y007152D01*
X007939Y007211D01*
X007871Y007272D01*
X007804Y007337D01*
X007741Y007405D01*
X007681Y007475D01*
X007624Y007548D01*
X007570Y007623D01*
X007519Y007700D01*
X007471Y007779D01*
X007427Y007861D01*
X007387Y007944D01*
X007350Y008029D01*
X007317Y008115D01*
X007288Y008203D01*
X007262Y008292D01*
X007241Y008382D01*
X007223Y008473D01*
X007209Y008564D01*
X007199Y008656D01*
X007193Y008749D01*
X007191Y008841D01*
X008091Y009341D02*
X008591Y009341D01*
X010114Y009431D02*
X010514Y009431D01*
X010314Y009631D02*
X010314Y009231D01*
X037749Y007086D02*
X037849Y007086D01*
X037849Y007386D01*
X039849Y007386D01*
X039849Y007086D01*
X039949Y007086D01*
X039849Y007086D02*
X039849Y006786D01*
X037849Y006786D01*
X037849Y007086D01*
D13*
X039560Y006581D02*
X039635Y006581D01*
X039660Y006556D01*
X039660Y006506D01*
X039635Y006481D01*
X039560Y006481D01*
X039610Y006481D02*
X039660Y006431D01*
X039707Y006431D02*
X039807Y006431D01*
X039757Y006431D02*
X039757Y006581D01*
X039707Y006531D01*
X039560Y006581D02*
X039560Y006431D01*
X009294Y009996D02*
X009194Y009996D01*
X009244Y009996D02*
X009244Y010147D01*
X009194Y010097D01*
X009147Y010122D02*
X009121Y010147D01*
X009071Y010147D01*
X009046Y010122D01*
X009046Y010021D01*
X009071Y009996D01*
X009121Y009996D01*
X009147Y010021D01*
D14*
X004420Y011794D02*
X004420Y013763D01*
X002806Y013763D01*
X002924Y013881D01*
X002767Y014038D01*
X002452Y013763D01*
X002806Y013763D01*
X002452Y013408D01*
X002452Y013763D01*
X002452Y013408D02*
X002452Y011794D01*
X004420Y011794D01*
X002759Y012778D02*
X002761Y012830D01*
X002767Y012881D01*
X002777Y012932D01*
X002791Y012982D01*
X002808Y013031D01*
X002829Y013078D01*
X002854Y013124D01*
X002882Y013167D01*
X002914Y013209D01*
X002948Y013247D01*
X002986Y013283D01*
X003026Y013316D01*
X003068Y013346D01*
X003113Y013373D01*
X003159Y013396D01*
X003207Y013415D01*
X003257Y013431D01*
X003307Y013443D01*
X003358Y013451D01*
X003410Y013455D01*
X003462Y013455D01*
X003514Y013451D01*
X003565Y013443D01*
X003615Y013431D01*
X003665Y013415D01*
X003713Y013396D01*
X003759Y013373D01*
X003804Y013346D01*
X003846Y013316D01*
X003886Y013283D01*
X003924Y013247D01*
X003958Y013209D01*
X003990Y013167D01*
X004018Y013124D01*
X004043Y013078D01*
X004064Y013031D01*
X004081Y012982D01*
X004095Y012932D01*
X004105Y012881D01*
X004111Y012830D01*
X004113Y012778D01*
X004111Y012726D01*
X004105Y012675D01*
X004095Y012624D01*
X004081Y012574D01*
X004064Y012525D01*
X004043Y012478D01*
X004018Y012432D01*
X003990Y012389D01*
X003958Y012347D01*
X003924Y012309D01*
X003886Y012273D01*
X003846Y012240D01*
X003804Y012210D01*
X003759Y012183D01*
X003713Y012160D01*
X003665Y012141D01*
X003615Y012125D01*
X003565Y012113D01*
X003514Y012105D01*
X003462Y012101D01*
X003410Y012101D01*
X003358Y012105D01*
X003307Y012113D01*
X003257Y012125D01*
X003207Y012141D01*
X003159Y012160D01*
X003113Y012183D01*
X003068Y012210D01*
X003026Y012240D01*
X002986Y012273D01*
X002948Y012309D01*
X002914Y012347D01*
X002882Y012389D01*
X002854Y012432D01*
X002829Y012478D01*
X002808Y012525D01*
X002791Y012574D01*
X002777Y012624D01*
X002767Y012675D01*
X002761Y012726D01*
X002759Y012778D01*
X014263Y013408D02*
X014263Y011794D01*
X016231Y011794D01*
X016231Y013763D01*
X014617Y013763D01*
X014735Y013881D01*
X014578Y014038D01*
X014263Y013763D01*
X014617Y013763D01*
X014263Y013408D01*
X014263Y013763D01*
X014570Y012778D02*
X014572Y012830D01*
X014578Y012881D01*
X014588Y012932D01*
X014602Y012982D01*
X014619Y013031D01*
X014640Y013078D01*
X014665Y013124D01*
X014693Y013167D01*
X014725Y013209D01*
X014759Y013247D01*
X014797Y013283D01*
X014837Y013316D01*
X014879Y013346D01*
X014924Y013373D01*
X014970Y013396D01*
X015018Y013415D01*
X015068Y013431D01*
X015118Y013443D01*
X015169Y013451D01*
X015221Y013455D01*
X015273Y013455D01*
X015325Y013451D01*
X015376Y013443D01*
X015426Y013431D01*
X015476Y013415D01*
X015524Y013396D01*
X015570Y013373D01*
X015615Y013346D01*
X015657Y013316D01*
X015697Y013283D01*
X015735Y013247D01*
X015769Y013209D01*
X015801Y013167D01*
X015829Y013124D01*
X015854Y013078D01*
X015875Y013031D01*
X015892Y012982D01*
X015906Y012932D01*
X015916Y012881D01*
X015922Y012830D01*
X015924Y012778D01*
X015922Y012726D01*
X015916Y012675D01*
X015906Y012624D01*
X015892Y012574D01*
X015875Y012525D01*
X015854Y012478D01*
X015829Y012432D01*
X015801Y012389D01*
X015769Y012347D01*
X015735Y012309D01*
X015697Y012273D01*
X015657Y012240D01*
X015615Y012210D01*
X015570Y012183D01*
X015524Y012160D01*
X015476Y012141D01*
X015426Y012125D01*
X015376Y012113D01*
X015325Y012105D01*
X015273Y012101D01*
X015221Y012101D01*
X015169Y012105D01*
X015118Y012113D01*
X015068Y012125D01*
X015018Y012141D01*
X014970Y012160D01*
X014924Y012183D01*
X014879Y012210D01*
X014837Y012240D01*
X014797Y012273D01*
X014759Y012309D01*
X014725Y012347D01*
X014693Y012389D01*
X014665Y012432D01*
X014640Y012478D01*
X014619Y012525D01*
X014602Y012574D01*
X014588Y012624D01*
X014578Y012675D01*
X014572Y012726D01*
X014570Y012778D01*
X026074Y013408D02*
X026074Y011794D01*
X028042Y011794D01*
X028042Y013763D01*
X026428Y013763D01*
X026546Y013881D01*
X026389Y014038D01*
X026074Y013763D01*
X026428Y013763D01*
X026074Y013408D01*
X026074Y013763D01*
X026381Y012778D02*
X026383Y012830D01*
X026389Y012881D01*
X026399Y012932D01*
X026413Y012982D01*
X026430Y013031D01*
X026451Y013078D01*
X026476Y013124D01*
X026504Y013167D01*
X026536Y013209D01*
X026570Y013247D01*
X026608Y013283D01*
X026648Y013316D01*
X026690Y013346D01*
X026735Y013373D01*
X026781Y013396D01*
X026829Y013415D01*
X026879Y013431D01*
X026929Y013443D01*
X026980Y013451D01*
X027032Y013455D01*
X027084Y013455D01*
X027136Y013451D01*
X027187Y013443D01*
X027237Y013431D01*
X027287Y013415D01*
X027335Y013396D01*
X027381Y013373D01*
X027426Y013346D01*
X027468Y013316D01*
X027508Y013283D01*
X027546Y013247D01*
X027580Y013209D01*
X027612Y013167D01*
X027640Y013124D01*
X027665Y013078D01*
X027686Y013031D01*
X027703Y012982D01*
X027717Y012932D01*
X027727Y012881D01*
X027733Y012830D01*
X027735Y012778D01*
X027733Y012726D01*
X027727Y012675D01*
X027717Y012624D01*
X027703Y012574D01*
X027686Y012525D01*
X027665Y012478D01*
X027640Y012432D01*
X027612Y012389D01*
X027580Y012347D01*
X027546Y012309D01*
X027508Y012273D01*
X027468Y012240D01*
X027426Y012210D01*
X027381Y012183D01*
X027335Y012160D01*
X027287Y012141D01*
X027237Y012125D01*
X027187Y012113D01*
X027136Y012105D01*
X027084Y012101D01*
X027032Y012101D01*
X026980Y012105D01*
X026929Y012113D01*
X026879Y012125D01*
X026829Y012141D01*
X026781Y012160D01*
X026735Y012183D01*
X026690Y012210D01*
X026648Y012240D01*
X026608Y012273D01*
X026570Y012309D01*
X026536Y012347D01*
X026504Y012389D01*
X026476Y012432D01*
X026451Y012478D01*
X026430Y012525D01*
X026413Y012574D01*
X026399Y012624D01*
X026389Y012675D01*
X026383Y012726D01*
X026381Y012778D01*
X037885Y013408D02*
X037885Y011794D01*
X039853Y011794D01*
X039853Y013763D01*
X038239Y013763D01*
X038357Y013881D01*
X038200Y014038D01*
X037885Y013763D01*
X038239Y013763D01*
X037885Y013408D01*
X037885Y013763D01*
X038192Y012778D02*
X038194Y012830D01*
X038200Y012881D01*
X038210Y012932D01*
X038224Y012982D01*
X038241Y013031D01*
X038262Y013078D01*
X038287Y013124D01*
X038315Y013167D01*
X038347Y013209D01*
X038381Y013247D01*
X038419Y013283D01*
X038459Y013316D01*
X038501Y013346D01*
X038546Y013373D01*
X038592Y013396D01*
X038640Y013415D01*
X038690Y013431D01*
X038740Y013443D01*
X038791Y013451D01*
X038843Y013455D01*
X038895Y013455D01*
X038947Y013451D01*
X038998Y013443D01*
X039048Y013431D01*
X039098Y013415D01*
X039146Y013396D01*
X039192Y013373D01*
X039237Y013346D01*
X039279Y013316D01*
X039319Y013283D01*
X039357Y013247D01*
X039391Y013209D01*
X039423Y013167D01*
X039451Y013124D01*
X039476Y013078D01*
X039497Y013031D01*
X039514Y012982D01*
X039528Y012932D01*
X039538Y012881D01*
X039544Y012830D01*
X039546Y012778D01*
X039544Y012726D01*
X039538Y012675D01*
X039528Y012624D01*
X039514Y012574D01*
X039497Y012525D01*
X039476Y012478D01*
X039451Y012432D01*
X039423Y012389D01*
X039391Y012347D01*
X039357Y012309D01*
X039319Y012273D01*
X039279Y012240D01*
X039237Y012210D01*
X039192Y012183D01*
X039146Y012160D01*
X039098Y012141D01*
X039048Y012125D01*
X038998Y012113D01*
X038947Y012105D01*
X038895Y012101D01*
X038843Y012101D01*
X038791Y012105D01*
X038740Y012113D01*
X038690Y012125D01*
X038640Y012141D01*
X038592Y012160D01*
X038546Y012183D01*
X038501Y012210D01*
X038459Y012240D01*
X038419Y012273D01*
X038381Y012309D01*
X038347Y012347D01*
X038315Y012389D01*
X038287Y012432D01*
X038262Y012478D01*
X038241Y012525D01*
X038224Y012574D01*
X038210Y012624D01*
X038200Y012675D01*
X038194Y012726D01*
X038192Y012778D01*
X040917Y013566D02*
X040917Y014016D01*
X041142Y014016D01*
X041217Y013941D01*
X041217Y013791D01*
X041142Y013716D01*
X040917Y013716D01*
X041377Y013791D02*
X041677Y013791D01*
X041677Y013866D02*
X041677Y013566D01*
X041838Y013566D02*
X042063Y013566D01*
X042138Y013641D01*
X042138Y013941D01*
X042063Y014016D01*
X041838Y014016D01*
X041838Y013566D01*
X041677Y013866D02*
X041527Y014016D01*
X041377Y013866D01*
X041377Y013566D01*
X042298Y013566D02*
X042598Y013566D01*
X042448Y013566D02*
X042448Y014016D01*
X042298Y013866D01*
X038200Y006164D02*
X037885Y005889D01*
X038239Y005889D01*
X038357Y006007D01*
X038200Y006164D01*
X038239Y005889D02*
X037885Y005534D01*
X037885Y005889D01*
X038239Y005889D02*
X039853Y005889D01*
X039853Y003920D01*
X037885Y003920D01*
X037885Y005534D01*
X038192Y004904D02*
X038194Y004956D01*
X038200Y005007D01*
X038210Y005058D01*
X038224Y005108D01*
X038241Y005157D01*
X038262Y005204D01*
X038287Y005250D01*
X038315Y005293D01*
X038347Y005335D01*
X038381Y005373D01*
X038419Y005409D01*
X038459Y005442D01*
X038501Y005472D01*
X038546Y005499D01*
X038592Y005522D01*
X038640Y005541D01*
X038690Y005557D01*
X038740Y005569D01*
X038791Y005577D01*
X038843Y005581D01*
X038895Y005581D01*
X038947Y005577D01*
X038998Y005569D01*
X039048Y005557D01*
X039098Y005541D01*
X039146Y005522D01*
X039192Y005499D01*
X039237Y005472D01*
X039279Y005442D01*
X039319Y005409D01*
X039357Y005373D01*
X039391Y005335D01*
X039423Y005293D01*
X039451Y005250D01*
X039476Y005204D01*
X039497Y005157D01*
X039514Y005108D01*
X039528Y005058D01*
X039538Y005007D01*
X039544Y004956D01*
X039546Y004904D01*
X039544Y004852D01*
X039538Y004801D01*
X039528Y004750D01*
X039514Y004700D01*
X039497Y004651D01*
X039476Y004604D01*
X039451Y004558D01*
X039423Y004515D01*
X039391Y004473D01*
X039357Y004435D01*
X039319Y004399D01*
X039279Y004366D01*
X039237Y004336D01*
X039192Y004309D01*
X039146Y004286D01*
X039098Y004267D01*
X039048Y004251D01*
X038998Y004239D01*
X038947Y004231D01*
X038895Y004227D01*
X038843Y004227D01*
X038791Y004231D01*
X038740Y004239D01*
X038690Y004251D01*
X038640Y004267D01*
X038592Y004286D01*
X038546Y004309D01*
X038501Y004336D01*
X038459Y004366D01*
X038419Y004399D01*
X038381Y004435D01*
X038347Y004473D01*
X038315Y004515D01*
X038287Y004558D01*
X038262Y004604D01*
X038241Y004651D01*
X038224Y004700D01*
X038210Y004750D01*
X038200Y004801D01*
X038194Y004852D01*
X038192Y004904D01*
X031201Y004640D02*
X031201Y004340D01*
X031201Y004490D02*
X030750Y004490D01*
X030900Y004340D01*
X030750Y004180D02*
X031201Y003880D01*
X031201Y004180D02*
X030750Y003880D01*
X028042Y003920D02*
X028042Y005889D01*
X026428Y005889D01*
X026546Y006007D01*
X026389Y006164D01*
X026074Y005889D01*
X026428Y005889D01*
X026074Y005534D01*
X026074Y005889D01*
X026074Y005534D02*
X026074Y003920D01*
X028042Y003920D01*
X026381Y004904D02*
X026383Y004956D01*
X026389Y005007D01*
X026399Y005058D01*
X026413Y005108D01*
X026430Y005157D01*
X026451Y005204D01*
X026476Y005250D01*
X026504Y005293D01*
X026536Y005335D01*
X026570Y005373D01*
X026608Y005409D01*
X026648Y005442D01*
X026690Y005472D01*
X026735Y005499D01*
X026781Y005522D01*
X026829Y005541D01*
X026879Y005557D01*
X026929Y005569D01*
X026980Y005577D01*
X027032Y005581D01*
X027084Y005581D01*
X027136Y005577D01*
X027187Y005569D01*
X027237Y005557D01*
X027287Y005541D01*
X027335Y005522D01*
X027381Y005499D01*
X027426Y005472D01*
X027468Y005442D01*
X027508Y005409D01*
X027546Y005373D01*
X027580Y005335D01*
X027612Y005293D01*
X027640Y005250D01*
X027665Y005204D01*
X027686Y005157D01*
X027703Y005108D01*
X027717Y005058D01*
X027727Y005007D01*
X027733Y004956D01*
X027735Y004904D01*
X027733Y004852D01*
X027727Y004801D01*
X027717Y004750D01*
X027703Y004700D01*
X027686Y004651D01*
X027665Y004604D01*
X027640Y004558D01*
X027612Y004515D01*
X027580Y004473D01*
X027546Y004435D01*
X027508Y004399D01*
X027468Y004366D01*
X027426Y004336D01*
X027381Y004309D01*
X027335Y004286D01*
X027287Y004267D01*
X027237Y004251D01*
X027187Y004239D01*
X027136Y004231D01*
X027084Y004227D01*
X027032Y004227D01*
X026980Y004231D01*
X026929Y004239D01*
X026879Y004251D01*
X026829Y004267D01*
X026781Y004286D01*
X026735Y004309D01*
X026690Y004336D01*
X026648Y004366D01*
X026608Y004399D01*
X026570Y004435D01*
X026536Y004473D01*
X026504Y004515D01*
X026476Y004558D01*
X026451Y004604D01*
X026430Y004651D01*
X026413Y004700D01*
X026399Y004750D01*
X026389Y004801D01*
X026383Y004852D01*
X026381Y004904D01*
X017027Y006916D02*
X017027Y007067D01*
X017027Y006991D02*
X016577Y006991D01*
X016577Y006916D02*
X016577Y007067D01*
X016652Y007223D02*
X016952Y007223D01*
X017027Y007298D01*
X017027Y007449D01*
X016952Y007524D01*
X017027Y007684D02*
X017027Y007984D01*
X017027Y007834D02*
X016577Y007834D01*
X016727Y007684D01*
X016652Y007524D02*
X016577Y007449D01*
X016577Y007298D01*
X016652Y007223D01*
X014735Y006007D02*
X014578Y006164D01*
X014263Y005889D01*
X014617Y005889D01*
X014735Y006007D01*
X014617Y005889D02*
X014263Y005534D01*
X014263Y005889D01*
X014617Y005889D02*
X016231Y005889D01*
X016231Y003920D01*
X014263Y003920D01*
X014263Y005534D01*
X014570Y004904D02*
X014572Y004956D01*
X014578Y005007D01*
X014588Y005058D01*
X014602Y005108D01*
X014619Y005157D01*
X014640Y005204D01*
X014665Y005250D01*
X014693Y005293D01*
X014725Y005335D01*
X014759Y005373D01*
X014797Y005409D01*
X014837Y005442D01*
X014879Y005472D01*
X014924Y005499D01*
X014970Y005522D01*
X015018Y005541D01*
X015068Y005557D01*
X015118Y005569D01*
X015169Y005577D01*
X015221Y005581D01*
X015273Y005581D01*
X015325Y005577D01*
X015376Y005569D01*
X015426Y005557D01*
X015476Y005541D01*
X015524Y005522D01*
X015570Y005499D01*
X015615Y005472D01*
X015657Y005442D01*
X015697Y005409D01*
X015735Y005373D01*
X015769Y005335D01*
X015801Y005293D01*
X015829Y005250D01*
X015854Y005204D01*
X015875Y005157D01*
X015892Y005108D01*
X015906Y005058D01*
X015916Y005007D01*
X015922Y004956D01*
X015924Y004904D01*
X015922Y004852D01*
X015916Y004801D01*
X015906Y004750D01*
X015892Y004700D01*
X015875Y004651D01*
X015854Y004604D01*
X015829Y004558D01*
X015801Y004515D01*
X015769Y004473D01*
X015735Y004435D01*
X015697Y004399D01*
X015657Y004366D01*
X015615Y004336D01*
X015570Y004309D01*
X015524Y004286D01*
X015476Y004267D01*
X015426Y004251D01*
X015376Y004239D01*
X015325Y004231D01*
X015273Y004227D01*
X015221Y004227D01*
X015169Y004231D01*
X015118Y004239D01*
X015068Y004251D01*
X015018Y004267D01*
X014970Y004286D01*
X014924Y004309D01*
X014879Y004336D01*
X014837Y004366D01*
X014797Y004399D01*
X014759Y004435D01*
X014725Y004473D01*
X014693Y004515D01*
X014665Y004558D01*
X014640Y004604D01*
X014619Y004651D01*
X014602Y004700D01*
X014588Y004750D01*
X014578Y004801D01*
X014572Y004852D01*
X014570Y004904D01*
X004420Y005889D02*
X004420Y003920D01*
X002452Y003920D01*
X002452Y005534D01*
X002806Y005889D01*
X002924Y006007D01*
X002767Y006164D01*
X002452Y005889D01*
X002806Y005889D01*
X004420Y005889D01*
X002452Y005889D02*
X002452Y005534D01*
X002759Y004904D02*
X002761Y004956D01*
X002767Y005007D01*
X002777Y005058D01*
X002791Y005108D01*
X002808Y005157D01*
X002829Y005204D01*
X002854Y005250D01*
X002882Y005293D01*
X002914Y005335D01*
X002948Y005373D01*
X002986Y005409D01*
X003026Y005442D01*
X003068Y005472D01*
X003113Y005499D01*
X003159Y005522D01*
X003207Y005541D01*
X003257Y005557D01*
X003307Y005569D01*
X003358Y005577D01*
X003410Y005581D01*
X003462Y005581D01*
X003514Y005577D01*
X003565Y005569D01*
X003615Y005557D01*
X003665Y005541D01*
X003713Y005522D01*
X003759Y005499D01*
X003804Y005472D01*
X003846Y005442D01*
X003886Y005409D01*
X003924Y005373D01*
X003958Y005335D01*
X003990Y005293D01*
X004018Y005250D01*
X004043Y005204D01*
X004064Y005157D01*
X004081Y005108D01*
X004095Y005058D01*
X004105Y005007D01*
X004111Y004956D01*
X004113Y004904D01*
X004111Y004852D01*
X004105Y004801D01*
X004095Y004750D01*
X004081Y004700D01*
X004064Y004651D01*
X004043Y004604D01*
X004018Y004558D01*
X003990Y004515D01*
X003958Y004473D01*
X003924Y004435D01*
X003886Y004399D01*
X003846Y004366D01*
X003804Y004336D01*
X003759Y004309D01*
X003713Y004286D01*
X003665Y004267D01*
X003615Y004251D01*
X003565Y004239D01*
X003514Y004231D01*
X003462Y004227D01*
X003410Y004227D01*
X003358Y004231D01*
X003307Y004239D01*
X003257Y004251D01*
X003207Y004267D01*
X003159Y004286D01*
X003113Y004309D01*
X003068Y004336D01*
X003026Y004366D01*
X002986Y004399D01*
X002948Y004435D01*
X002914Y004473D01*
X002882Y004515D01*
X002854Y004558D01*
X002829Y004604D01*
X002808Y004651D01*
X002791Y004700D01*
X002777Y004750D01*
X002767Y004801D01*
X002761Y004852D01*
X002759Y004904D01*
D15*
X004826Y004955D02*
X005116Y004955D01*
X005116Y005149D01*
X005068Y005250D02*
X005116Y005298D01*
X005116Y005395D01*
X005068Y005443D01*
X004971Y005443D01*
X004922Y005395D01*
X004922Y005347D01*
X004971Y005250D01*
X004826Y005250D01*
X004826Y005443D01*
X016637Y005395D02*
X016782Y005250D01*
X016782Y005443D01*
X016927Y005395D02*
X016637Y005395D01*
X016927Y005149D02*
X016927Y004955D01*
X016637Y004955D01*
X028448Y004955D02*
X028738Y004955D01*
X028738Y005149D01*
X028690Y005250D02*
X028738Y005298D01*
X028738Y005395D01*
X028690Y005443D01*
X028641Y005443D01*
X028593Y005395D01*
X028593Y005347D01*
X028593Y005395D02*
X028544Y005443D01*
X028496Y005443D01*
X028448Y005395D01*
X028448Y005298D01*
X028496Y005250D01*
X040259Y005298D02*
X040307Y005250D01*
X040259Y005298D02*
X040259Y005395D01*
X040307Y005443D01*
X040355Y005443D01*
X040549Y005250D01*
X040549Y005443D01*
X040549Y005149D02*
X040549Y004955D01*
X040259Y004955D01*
X040259Y012829D02*
X040549Y012829D01*
X040549Y013023D01*
X040501Y013124D02*
X040549Y013172D01*
X040549Y013269D01*
X040501Y013317D01*
X040452Y013317D01*
X040404Y013269D01*
X040404Y013124D01*
X040501Y013124D01*
X040404Y013124D02*
X040307Y013221D01*
X040259Y013317D01*
X028738Y013124D02*
X028690Y013124D01*
X028496Y013317D01*
X028448Y013317D01*
X028448Y013124D01*
X028448Y012829D02*
X028738Y012829D01*
X028738Y013023D01*
X016927Y013023D02*
X016927Y012829D01*
X016637Y012829D01*
X016685Y013124D02*
X016733Y013124D01*
X016782Y013172D01*
X016782Y013269D01*
X016830Y013317D01*
X016879Y013317D01*
X016927Y013269D01*
X016927Y013172D01*
X016879Y013124D01*
X016830Y013124D01*
X016782Y013172D01*
X016782Y013269D02*
X016733Y013317D01*
X016685Y013317D01*
X016637Y013269D01*
X016637Y013172D01*
X016685Y013124D01*
X005116Y013172D02*
X005068Y013124D01*
X005116Y013172D02*
X005116Y013269D01*
X005068Y013317D01*
X004874Y013317D01*
X004826Y013269D01*
X004826Y013172D01*
X004874Y013124D01*
X004922Y013124D01*
X004971Y013172D01*
X004971Y013317D01*
X005116Y013023D02*
X005116Y012829D01*
X004826Y012829D01*
D16*
X033156Y012825D02*
X033496Y012825D01*
X033496Y012565D02*
X033156Y012565D01*
X033156Y010855D02*
X033496Y010855D01*
X033496Y010595D02*
X033156Y010595D01*
X033156Y008885D02*
X033496Y008885D01*
X033496Y008625D02*
X033156Y008625D01*
X033156Y006915D02*
X033496Y006915D01*
X033496Y006655D02*
X033156Y006655D01*
X033156Y004945D02*
X033496Y004945D01*
X033496Y004685D02*
X033156Y004685D01*
M02*
