G75*
%MOIN*%
%OFA0B0*%
%FSLAX24Y24*%
%IPPOS*%
%LPD*%
%AMOC8*
5,1,8,0,0,1.08239X$1,22.5*
%
%ADD10C,0.0000*%
%ADD11C,0.0760*%
%ADD12R,0.0760X0.0760*%
%ADD13C,0.0520*%
%ADD14R,0.0591X0.0354*%
%ADD15OC8,0.0630*%
%ADD16C,0.0740*%
%ADD17C,0.1581*%
%ADD18C,0.0780*%
%ADD19C,0.0120*%
%ADD20C,0.0400*%
%ADD21C,0.0160*%
%ADD22R,0.0396X0.0396*%
D10*
X000680Y001499D02*
X000680Y015995D01*
X042495Y015995D01*
X042495Y001499D01*
X000680Y001499D01*
X001310Y009314D02*
X001312Y009361D01*
X001318Y009407D01*
X001328Y009453D01*
X001341Y009498D01*
X001359Y009541D01*
X001380Y009583D01*
X001404Y009623D01*
X001432Y009660D01*
X001463Y009695D01*
X001497Y009728D01*
X001533Y009757D01*
X001572Y009783D01*
X001613Y009806D01*
X001656Y009825D01*
X001700Y009841D01*
X001745Y009853D01*
X001791Y009861D01*
X001838Y009865D01*
X001884Y009865D01*
X001931Y009861D01*
X001977Y009853D01*
X002022Y009841D01*
X002066Y009825D01*
X002109Y009806D01*
X002150Y009783D01*
X002189Y009757D01*
X002225Y009728D01*
X002259Y009695D01*
X002290Y009660D01*
X002318Y009623D01*
X002342Y009583D01*
X002363Y009541D01*
X002381Y009498D01*
X002394Y009453D01*
X002404Y009407D01*
X002410Y009361D01*
X002412Y009314D01*
X002410Y009267D01*
X002404Y009221D01*
X002394Y009175D01*
X002381Y009130D01*
X002363Y009087D01*
X002342Y009045D01*
X002318Y009005D01*
X002290Y008968D01*
X002259Y008933D01*
X002225Y008900D01*
X002189Y008871D01*
X002150Y008845D01*
X002109Y008822D01*
X002066Y008803D01*
X002022Y008787D01*
X001977Y008775D01*
X001931Y008767D01*
X001884Y008763D01*
X001838Y008763D01*
X001791Y008767D01*
X001745Y008775D01*
X001700Y008787D01*
X001656Y008803D01*
X001613Y008822D01*
X001572Y008845D01*
X001533Y008871D01*
X001497Y008900D01*
X001463Y008933D01*
X001432Y008968D01*
X001404Y009005D01*
X001380Y009045D01*
X001359Y009087D01*
X001341Y009130D01*
X001328Y009175D01*
X001318Y009221D01*
X001312Y009267D01*
X001310Y009314D01*
X040523Y008802D02*
X040525Y008849D01*
X040531Y008895D01*
X040541Y008941D01*
X040554Y008986D01*
X040572Y009029D01*
X040593Y009071D01*
X040617Y009111D01*
X040645Y009148D01*
X040676Y009183D01*
X040710Y009216D01*
X040746Y009245D01*
X040785Y009271D01*
X040826Y009294D01*
X040869Y009313D01*
X040913Y009329D01*
X040958Y009341D01*
X041004Y009349D01*
X041051Y009353D01*
X041097Y009353D01*
X041144Y009349D01*
X041190Y009341D01*
X041235Y009329D01*
X041279Y009313D01*
X041322Y009294D01*
X041363Y009271D01*
X041402Y009245D01*
X041438Y009216D01*
X041472Y009183D01*
X041503Y009148D01*
X041531Y009111D01*
X041555Y009071D01*
X041576Y009029D01*
X041594Y008986D01*
X041607Y008941D01*
X041617Y008895D01*
X041623Y008849D01*
X041625Y008802D01*
X041623Y008755D01*
X041617Y008709D01*
X041607Y008663D01*
X041594Y008618D01*
X041576Y008575D01*
X041555Y008533D01*
X041531Y008493D01*
X041503Y008456D01*
X041472Y008421D01*
X041438Y008388D01*
X041402Y008359D01*
X041363Y008333D01*
X041322Y008310D01*
X041279Y008291D01*
X041235Y008275D01*
X041190Y008263D01*
X041144Y008255D01*
X041097Y008251D01*
X041051Y008251D01*
X041004Y008255D01*
X040958Y008263D01*
X040913Y008275D01*
X040869Y008291D01*
X040826Y008310D01*
X040785Y008333D01*
X040746Y008359D01*
X040710Y008388D01*
X040676Y008421D01*
X040645Y008456D01*
X040617Y008493D01*
X040593Y008533D01*
X040572Y008575D01*
X040554Y008618D01*
X040541Y008663D01*
X040531Y008709D01*
X040525Y008755D01*
X040523Y008802D01*
D11*
X008357Y008841D03*
D12*
X010326Y008841D03*
D13*
X017652Y007601D02*
X017652Y007081D01*
X018652Y007081D02*
X018652Y007601D01*
X019652Y007601D02*
X019652Y007081D01*
X020652Y007081D02*
X020652Y007601D01*
X021652Y007601D02*
X021652Y007081D01*
X022652Y007081D02*
X022652Y007601D01*
X023652Y007601D02*
X023652Y007081D01*
X024652Y007081D02*
X024652Y007601D01*
X024652Y010081D02*
X024652Y010601D01*
X023652Y010601D02*
X023652Y010081D01*
X022652Y010081D02*
X022652Y010601D01*
X021652Y010601D02*
X021652Y010081D01*
X020652Y010081D02*
X020652Y010601D01*
X019652Y010601D02*
X019652Y010081D01*
X018652Y010081D02*
X018652Y010601D01*
X017652Y010601D02*
X017652Y010081D01*
D14*
X016211Y012129D03*
X014282Y012129D03*
X014282Y013428D03*
X016211Y013428D03*
X026093Y013428D03*
X028023Y013428D03*
X028023Y012129D03*
X026093Y012129D03*
X037904Y012129D03*
X039834Y012129D03*
X039834Y013428D03*
X037904Y013428D03*
X037904Y005554D03*
X039834Y005554D03*
X039834Y004255D03*
X037904Y004255D03*
X028023Y004255D03*
X026093Y004255D03*
X026093Y005554D03*
X028023Y005554D03*
X016211Y005554D03*
X014282Y005554D03*
X014282Y004255D03*
X016211Y004255D03*
X004400Y004255D03*
X002471Y004255D03*
X002471Y005554D03*
X004400Y005554D03*
X004400Y012129D03*
X002471Y012129D03*
X002471Y013428D03*
X004400Y013428D03*
D15*
X041192Y013141D03*
D16*
X040349Y007086D03*
X037349Y007086D03*
D17*
X037491Y002936D03*
X040247Y002936D03*
X028436Y002936D03*
X025680Y002936D03*
X016625Y002936D03*
X013869Y002936D03*
X004814Y002936D03*
X002058Y002936D03*
X002058Y014747D03*
X004814Y014747D03*
X013869Y014747D03*
X016625Y014747D03*
X025680Y014747D03*
X028436Y014747D03*
X037491Y014747D03*
X040247Y014747D03*
D18*
X034706Y012695D02*
X033926Y012695D01*
X032726Y012695D02*
X031946Y012695D01*
X031946Y010725D02*
X032726Y010725D01*
X033926Y010725D02*
X034706Y010725D01*
X034706Y008755D02*
X033926Y008755D01*
X032726Y008755D02*
X031946Y008755D01*
X031946Y006785D02*
X032726Y006785D01*
X033926Y006785D02*
X034706Y006785D01*
X034706Y004815D02*
X033926Y004815D01*
X032726Y004815D02*
X031946Y004815D01*
D19*
X031590Y005871D02*
X030600Y006861D01*
X028620Y004881D01*
X028290Y004881D01*
X028070Y004661D01*
X028070Y004331D01*
X028023Y004255D01*
X027960Y004221D01*
X027410Y004221D01*
X026200Y003011D01*
X025760Y003011D01*
X025680Y002936D01*
X025650Y003011D01*
X018280Y003011D01*
X017070Y004221D01*
X016300Y004221D01*
X016211Y004255D01*
X016190Y004221D01*
X015530Y004221D01*
X014320Y003011D01*
X013880Y003011D01*
X013869Y002936D01*
X013770Y003011D01*
X013770Y003451D01*
X010360Y006861D01*
X007720Y004221D01*
X004420Y004221D01*
X004400Y004255D01*
X004310Y004221D01*
X003760Y004221D01*
X002550Y003011D01*
X002110Y003011D01*
X002058Y002936D01*
X002550Y004221D02*
X002471Y004255D01*
X002550Y004221D02*
X003210Y004221D01*
X004400Y005554D02*
X004420Y005651D01*
X004420Y009831D01*
X002330Y011921D01*
X002330Y012031D01*
X002440Y012141D01*
X002471Y012129D01*
X003210Y013461D02*
X003870Y012801D01*
X004090Y012801D01*
X004310Y012581D01*
X004310Y012141D01*
X004400Y012129D01*
X004420Y012141D01*
X006510Y012141D01*
X009700Y008951D01*
X010250Y008951D01*
X010326Y008841D01*
X010360Y008731D01*
X010690Y008731D01*
X013330Y011371D01*
X016190Y011371D01*
X017400Y010161D01*
X017510Y010161D01*
X017620Y010271D01*
X017652Y010341D01*
X018652Y010341D02*
X018720Y010271D01*
X018720Y010051D01*
X020480Y008291D01*
X020590Y008291D01*
X021140Y007741D01*
X021140Y006971D01*
X021030Y006861D01*
X021030Y006641D01*
X021800Y005871D01*
X025320Y005871D01*
X026750Y004881D02*
X027520Y005651D01*
X027630Y005541D01*
X027960Y005541D01*
X028023Y005554D01*
X027410Y004771D02*
X026860Y004221D01*
X026200Y004221D01*
X026093Y004255D01*
X026750Y004881D02*
X015750Y004881D01*
X015090Y004221D01*
X014320Y004221D01*
X014282Y004255D01*
X015530Y005431D02*
X015750Y005651D01*
X015860Y005541D01*
X016190Y005541D01*
X016211Y005554D01*
X020590Y007411D02*
X020652Y007341D01*
X020590Y007411D02*
X020590Y007631D01*
X019270Y008951D01*
X011570Y008951D01*
X010360Y008841D02*
X010360Y008731D01*
X010360Y006861D01*
X010360Y008841D02*
X010326Y008841D01*
X016190Y011371D02*
X016190Y012031D01*
X016211Y012129D01*
X016190Y012141D01*
X016190Y012581D01*
X015970Y012801D01*
X015750Y012801D01*
X015090Y013461D01*
X015090Y013791D01*
X014210Y014671D01*
X013880Y014671D01*
X013869Y014747D01*
X016625Y014747D02*
X016630Y014671D01*
X020150Y011151D01*
X020040Y011041D01*
X020040Y010931D01*
X020150Y010821D01*
X020150Y009061D01*
X021580Y007631D01*
X021580Y007411D01*
X021652Y007341D01*
X030600Y006861D02*
X032250Y008511D01*
X032250Y008731D01*
X032336Y008755D01*
X032250Y008841D01*
X031700Y008841D01*
X029060Y011481D01*
X028290Y011481D01*
X027850Y011921D01*
X027850Y012031D01*
X027960Y012141D01*
X028023Y012129D01*
X027960Y012141D02*
X027960Y012581D01*
X027740Y012801D01*
X027520Y012801D01*
X026860Y013461D01*
X026860Y014011D01*
X026200Y014671D01*
X025760Y014671D01*
X025680Y014747D01*
X024110Y013461D02*
X025430Y012141D01*
X026090Y012141D01*
X026093Y012129D01*
X028023Y013428D02*
X028070Y013461D01*
X031590Y013461D01*
X031700Y013571D01*
X036100Y013571D01*
X037640Y012031D01*
X037860Y012031D01*
X037904Y012129D01*
X039510Y012801D02*
X039730Y012581D01*
X039730Y012141D01*
X039834Y012129D01*
X039840Y012031D01*
X039840Y010711D01*
X035000Y005871D01*
X031590Y005871D01*
X035000Y005871D02*
X037420Y003451D01*
X037420Y003011D01*
X037491Y002936D01*
X037530Y003011D01*
X037970Y003011D01*
X039180Y004221D01*
X039730Y004221D01*
X039834Y004255D01*
X037904Y004255D02*
X037860Y004331D01*
X037860Y004661D01*
X037640Y004881D01*
X037420Y004881D01*
X037090Y005211D01*
X037090Y006311D01*
X037420Y006641D01*
X037420Y007081D01*
X037349Y007086D01*
X039180Y005651D02*
X039400Y005431D01*
X039510Y005541D01*
X039730Y005541D01*
X039834Y005554D01*
X039510Y012801D02*
X039290Y012801D01*
X038630Y013461D01*
X038630Y013791D01*
X037750Y014671D01*
X037530Y014671D01*
X037491Y014747D01*
X039834Y013428D02*
X039840Y013351D01*
X039840Y013021D01*
X040217Y012998D01*
X040437Y012998D01*
X040523Y013109D01*
X040649Y012920D01*
X040767Y012976D01*
X041192Y013141D01*
X024110Y013461D02*
X023890Y013461D01*
X017290Y013461D02*
X016300Y013461D01*
X016211Y013428D01*
X014282Y012129D02*
X014210Y012141D01*
X013880Y012141D01*
X013770Y012031D01*
X012340Y013461D01*
X004420Y013461D01*
X004400Y013428D01*
X003210Y013461D02*
X003210Y013791D01*
X002330Y014671D01*
X002110Y014671D01*
X002058Y014747D01*
D20*
X017290Y013461D03*
X023890Y013461D03*
X011570Y008951D03*
X015530Y005431D03*
X025320Y005871D03*
X027410Y004771D03*
X039180Y005651D03*
X003210Y004221D03*
D21*
X003563Y004363D02*
X003532Y004436D01*
X003425Y004543D01*
X003286Y004601D01*
X003134Y004601D01*
X002995Y004543D01*
X002947Y004495D01*
X002947Y004507D01*
X002841Y004612D01*
X002102Y004612D01*
X001996Y004507D01*
X001996Y004003D01*
X002093Y003906D01*
X001865Y003906D01*
X001508Y003759D01*
X001235Y003486D01*
X001160Y003304D01*
X001160Y008557D01*
X001228Y008489D01*
X001463Y008353D01*
X001725Y008283D01*
X001997Y008283D01*
X002259Y008353D01*
X002494Y008489D01*
X002686Y008681D01*
X002822Y008916D01*
X002892Y009178D01*
X002892Y009450D01*
X002822Y009712D01*
X002686Y009947D01*
X002494Y010139D01*
X002259Y010275D01*
X001997Y010345D01*
X001725Y010345D01*
X001463Y010275D01*
X001228Y010139D01*
X001160Y010071D01*
X001160Y014379D01*
X001235Y014197D01*
X001508Y013924D01*
X001865Y013776D01*
X002119Y013776D01*
X002107Y013773D01*
X002066Y013749D01*
X002032Y013716D01*
X002008Y013675D01*
X001996Y013629D01*
X001996Y013437D01*
X002463Y013437D01*
X002463Y013785D01*
X002272Y013785D01*
X002608Y013924D01*
X002673Y013989D01*
X002970Y013692D01*
X002970Y013413D01*
X003007Y013325D01*
X003074Y013258D01*
X003734Y012598D01*
X003822Y012561D01*
X003991Y012561D01*
X004066Y012486D01*
X004031Y012486D01*
X003925Y012381D01*
X003925Y011877D01*
X004031Y011772D01*
X004770Y011772D01*
X004876Y011877D01*
X004876Y011901D01*
X006411Y011901D01*
X009497Y008815D01*
X009564Y008748D01*
X009652Y008711D01*
X009766Y008711D01*
X009766Y008387D01*
X009871Y008281D01*
X010120Y008281D01*
X010120Y006961D01*
X007621Y004461D01*
X004876Y004461D01*
X004876Y004507D01*
X004770Y004612D01*
X004031Y004612D01*
X003925Y004507D01*
X003925Y004461D01*
X003712Y004461D01*
X003624Y004425D01*
X003563Y004363D01*
X003559Y004373D02*
X003572Y004373D01*
X003437Y004531D02*
X003950Y004531D01*
X004851Y004531D02*
X007691Y004531D01*
X007849Y004690D02*
X001160Y004690D01*
X001160Y004848D02*
X008008Y004848D01*
X008166Y005007D02*
X001160Y005007D01*
X001160Y005165D02*
X008325Y005165D01*
X008483Y005324D02*
X004876Y005324D01*
X004876Y005302D02*
X004876Y005806D01*
X004770Y005911D01*
X004660Y005911D01*
X004660Y009879D01*
X004623Y009967D01*
X002819Y011772D01*
X002841Y011772D01*
X002947Y011877D01*
X002947Y012381D01*
X002841Y012486D01*
X002102Y012486D01*
X001996Y012381D01*
X001996Y011877D01*
X002102Y011772D01*
X002140Y011772D01*
X002194Y011718D01*
X004180Y009732D01*
X004180Y005911D01*
X004031Y005911D01*
X003925Y005806D01*
X003925Y005302D01*
X004031Y005197D01*
X004770Y005197D01*
X004876Y005302D01*
X004876Y005482D02*
X008642Y005482D01*
X008800Y005641D02*
X004876Y005641D01*
X004876Y005799D02*
X008959Y005799D01*
X009117Y005958D02*
X004660Y005958D01*
X004660Y006116D02*
X009276Y006116D01*
X009434Y006275D02*
X004660Y006275D01*
X004660Y006433D02*
X009593Y006433D01*
X009751Y006592D02*
X004660Y006592D01*
X004660Y006750D02*
X009910Y006750D01*
X010068Y006909D02*
X004660Y006909D01*
X004660Y007067D02*
X010120Y007067D01*
X010120Y007226D02*
X004660Y007226D01*
X004660Y007384D02*
X010120Y007384D01*
X010120Y007543D02*
X004660Y007543D01*
X004660Y007701D02*
X010120Y007701D01*
X010120Y007860D02*
X004660Y007860D01*
X004660Y008018D02*
X010120Y008018D01*
X010120Y008177D02*
X004660Y008177D01*
X004660Y008335D02*
X008117Y008335D01*
X008142Y008322D02*
X008226Y008295D01*
X008313Y008281D01*
X008349Y008281D01*
X008349Y008833D01*
X008366Y008833D01*
X008366Y008850D01*
X008917Y008850D01*
X008917Y008885D01*
X008903Y008973D01*
X008876Y009056D01*
X008836Y009135D01*
X008784Y009206D01*
X008722Y009269D01*
X008651Y009320D01*
X008572Y009360D01*
X008488Y009388D01*
X008401Y009401D01*
X008366Y009401D01*
X008366Y008850D01*
X008349Y008850D01*
X008349Y009401D01*
X008313Y009401D01*
X008226Y009388D01*
X008142Y009360D01*
X008064Y009320D01*
X007992Y009269D01*
X007930Y009206D01*
X007878Y009135D01*
X007838Y009056D01*
X007811Y008973D01*
X007797Y008885D01*
X007797Y008850D01*
X008349Y008850D01*
X008349Y008833D01*
X007797Y008833D01*
X007797Y008797D01*
X007811Y008710D01*
X007838Y008626D01*
X007878Y008548D01*
X007930Y008477D01*
X007992Y008414D01*
X008064Y008362D01*
X008142Y008322D01*
X008349Y008335D02*
X008366Y008335D01*
X008366Y008281D02*
X008401Y008281D01*
X008488Y008295D01*
X008572Y008322D01*
X008651Y008362D01*
X008722Y008414D01*
X008784Y008477D01*
X008836Y008548D01*
X008876Y008626D01*
X008903Y008710D01*
X008917Y008797D01*
X008917Y008833D01*
X008366Y008833D01*
X008366Y008281D01*
X008349Y008494D02*
X008366Y008494D01*
X008349Y008652D02*
X008366Y008652D01*
X008349Y008811D02*
X008366Y008811D01*
X008349Y008969D02*
X008366Y008969D01*
X008349Y009128D02*
X008366Y009128D01*
X008349Y009286D02*
X008366Y009286D01*
X008698Y009286D02*
X009026Y009286D01*
X009184Y009128D02*
X008840Y009128D01*
X008904Y008969D02*
X009343Y008969D01*
X009501Y008811D02*
X008917Y008811D01*
X008884Y008652D02*
X009766Y008652D01*
X009766Y008494D02*
X008797Y008494D01*
X008597Y008335D02*
X009817Y008335D01*
X010600Y008281D02*
X010780Y008281D01*
X010886Y008387D01*
X010886Y008587D01*
X010893Y008595D01*
X011190Y008892D01*
X011190Y008876D01*
X011248Y008736D01*
X011355Y008629D01*
X011494Y008571D01*
X011646Y008571D01*
X011785Y008629D01*
X011867Y008711D01*
X019171Y008711D01*
X020212Y007669D01*
X020212Y006994D01*
X020279Y006832D01*
X020403Y006708D01*
X020565Y006641D01*
X020740Y006641D01*
X020790Y006662D01*
X020790Y006593D01*
X020827Y006505D01*
X021597Y005735D01*
X021664Y005668D01*
X021752Y005631D01*
X025023Y005631D01*
X025105Y005549D01*
X025244Y005491D01*
X025396Y005491D01*
X025535Y005549D01*
X025618Y005632D01*
X025618Y005563D01*
X026085Y005563D01*
X026085Y005911D01*
X025774Y005911D01*
X025729Y005899D01*
X025700Y005882D01*
X025700Y005947D01*
X025642Y006086D01*
X025535Y006193D01*
X025396Y006251D01*
X025244Y006251D01*
X025105Y006193D01*
X025023Y006111D01*
X021899Y006111D01*
X021270Y006741D01*
X021270Y006762D01*
X021310Y006802D01*
X021403Y006708D01*
X021565Y006641D01*
X021740Y006641D01*
X021902Y006708D01*
X022025Y006832D01*
X022092Y006994D01*
X022092Y007689D01*
X022025Y007851D01*
X021902Y007974D01*
X021740Y008041D01*
X021565Y008041D01*
X021525Y008025D01*
X020390Y009161D01*
X020390Y009722D01*
X020403Y009708D01*
X020565Y009641D01*
X020740Y009641D01*
X020902Y009708D01*
X021025Y009832D01*
X021092Y009994D01*
X021092Y010689D01*
X021025Y010851D01*
X020902Y010974D01*
X020740Y011041D01*
X020565Y011041D01*
X020403Y010974D01*
X020363Y010934D01*
X020353Y010957D01*
X020324Y010986D01*
X020353Y011015D01*
X020390Y011103D01*
X020390Y011199D01*
X020353Y011287D01*
X017446Y014195D01*
X017448Y014197D01*
X017595Y014554D01*
X017595Y014940D01*
X017448Y015297D01*
X017229Y015515D01*
X025075Y015515D01*
X024857Y015297D01*
X024709Y014940D01*
X024709Y014554D01*
X024857Y014197D01*
X025130Y013924D01*
X025487Y013776D01*
X025742Y013776D01*
X025729Y013773D01*
X025688Y013749D01*
X025654Y013716D01*
X025630Y013675D01*
X025618Y013629D01*
X025618Y013437D01*
X026085Y013437D01*
X026085Y013785D01*
X025894Y013785D01*
X026230Y013924D01*
X026419Y014113D01*
X026620Y013912D01*
X026620Y013413D01*
X026657Y013325D01*
X026724Y013258D01*
X027384Y012598D01*
X027472Y012561D01*
X027641Y012561D01*
X027716Y012486D01*
X027653Y012486D01*
X027547Y012381D01*
X027547Y011877D01*
X027653Y011772D01*
X027660Y011772D01*
X027714Y011718D01*
X028154Y011278D01*
X028242Y011241D01*
X028961Y011241D01*
X031376Y008826D01*
X031376Y008641D01*
X031462Y008432D01*
X031623Y008272D01*
X031657Y008257D01*
X030464Y007065D01*
X030397Y006997D01*
X028521Y005121D01*
X028242Y005121D01*
X028154Y005085D01*
X028087Y005017D01*
X027867Y004797D01*
X027830Y004709D01*
X027830Y004612D01*
X027755Y004612D01*
X027790Y004696D01*
X027790Y004847D01*
X027732Y004986D01*
X027625Y005093D01*
X027486Y005151D01*
X027359Y005151D01*
X027531Y005322D01*
X027547Y005316D01*
X027547Y005302D01*
X027653Y005197D01*
X028392Y005197D01*
X028498Y005302D01*
X028498Y005806D01*
X028392Y005911D01*
X027653Y005911D01*
X027614Y005872D01*
X027568Y005891D01*
X027472Y005891D01*
X027384Y005855D01*
X027317Y005787D01*
X026651Y005121D01*
X015757Y005121D01*
X015837Y005201D01*
X015842Y005197D01*
X016581Y005197D01*
X016687Y005302D01*
X016687Y005806D01*
X016581Y005911D01*
X015842Y005911D01*
X015815Y005884D01*
X015798Y005891D01*
X015702Y005891D01*
X015614Y005855D01*
X015571Y005811D01*
X015454Y005811D01*
X015315Y005753D01*
X015208Y005646D01*
X015150Y005507D01*
X015150Y005356D01*
X015208Y005216D01*
X015315Y005109D01*
X015454Y005051D01*
X015581Y005051D01*
X015547Y005017D01*
X014991Y004461D01*
X014758Y004461D01*
X014758Y004507D01*
X014652Y004612D01*
X013913Y004612D01*
X013807Y004507D01*
X013807Y004003D01*
X013904Y003906D01*
X013676Y003906D01*
X013660Y003900D01*
X010600Y006961D01*
X010600Y008281D01*
X010600Y008177D02*
X019705Y008177D01*
X019740Y008041D02*
X019565Y008041D01*
X019403Y007974D01*
X019279Y007851D01*
X019212Y007689D01*
X019212Y006994D01*
X019279Y006832D01*
X019403Y006708D01*
X019565Y006641D01*
X019740Y006641D01*
X019902Y006708D01*
X020025Y006832D01*
X020092Y006994D01*
X020092Y007689D01*
X020025Y007851D01*
X019902Y007974D01*
X019740Y008041D01*
X019796Y008018D02*
X019864Y008018D01*
X020016Y007860D02*
X020022Y007860D01*
X020087Y007701D02*
X020181Y007701D01*
X020212Y007543D02*
X020092Y007543D01*
X020092Y007384D02*
X020212Y007384D01*
X020212Y007226D02*
X020092Y007226D01*
X020092Y007067D02*
X020212Y007067D01*
X020248Y006909D02*
X020057Y006909D01*
X019943Y006750D02*
X020361Y006750D01*
X020791Y006592D02*
X010969Y006592D01*
X010810Y006750D02*
X017361Y006750D01*
X017403Y006708D02*
X017565Y006641D01*
X017740Y006641D01*
X017902Y006708D01*
X018025Y006832D01*
X018092Y006994D01*
X018092Y007689D01*
X018025Y007851D01*
X017902Y007974D01*
X017740Y008041D01*
X017565Y008041D01*
X017403Y007974D01*
X017279Y007851D01*
X017212Y007689D01*
X017212Y006994D01*
X017279Y006832D01*
X017403Y006708D01*
X017248Y006909D02*
X010652Y006909D01*
X010600Y007067D02*
X017212Y007067D01*
X017212Y007226D02*
X010600Y007226D01*
X010600Y007384D02*
X017212Y007384D01*
X017212Y007543D02*
X010600Y007543D01*
X010600Y007701D02*
X017217Y007701D01*
X017288Y007860D02*
X010600Y007860D01*
X010600Y008018D02*
X017509Y008018D01*
X017796Y008018D02*
X018509Y008018D01*
X018565Y008041D02*
X018403Y007974D01*
X018279Y007851D01*
X018212Y007689D01*
X018212Y006994D01*
X018279Y006832D01*
X018403Y006708D01*
X018565Y006641D01*
X018740Y006641D01*
X018902Y006708D01*
X019025Y006832D01*
X019092Y006994D01*
X019092Y007689D01*
X019025Y007851D01*
X018902Y007974D01*
X018740Y008041D01*
X018565Y008041D01*
X018796Y008018D02*
X019509Y008018D01*
X019288Y007860D02*
X019016Y007860D01*
X019087Y007701D02*
X019217Y007701D01*
X019212Y007543D02*
X019092Y007543D01*
X019092Y007384D02*
X019212Y007384D01*
X019212Y007226D02*
X019092Y007226D01*
X019092Y007067D02*
X019212Y007067D01*
X019248Y006909D02*
X019057Y006909D01*
X018943Y006750D02*
X019361Y006750D01*
X018361Y006750D02*
X017943Y006750D01*
X018057Y006909D02*
X018248Y006909D01*
X018212Y007067D02*
X018092Y007067D01*
X018092Y007226D02*
X018212Y007226D01*
X018212Y007384D02*
X018092Y007384D01*
X018092Y007543D02*
X018212Y007543D01*
X018217Y007701D02*
X018087Y007701D01*
X018016Y007860D02*
X018288Y007860D01*
X019388Y008494D02*
X010886Y008494D01*
X010834Y008335D02*
X019547Y008335D01*
X019230Y008652D02*
X011808Y008652D01*
X011332Y008652D02*
X010950Y008652D01*
X011109Y008811D02*
X011217Y008811D01*
X010886Y009266D02*
X010886Y009296D01*
X010780Y009401D01*
X009871Y009401D01*
X009766Y009296D01*
X009766Y009225D01*
X006646Y012345D01*
X006558Y012381D01*
X004875Y012381D01*
X004770Y012486D01*
X004550Y012486D01*
X004550Y012629D01*
X004513Y012717D01*
X004293Y012937D01*
X004226Y013005D01*
X004138Y013041D01*
X003969Y013041D01*
X003450Y013561D01*
X003450Y013839D01*
X003413Y013927D01*
X002958Y014383D01*
X003029Y014554D01*
X003029Y014940D01*
X002881Y015297D01*
X002662Y015515D01*
X004209Y015515D01*
X003991Y015297D01*
X003843Y014940D01*
X003843Y014554D01*
X003991Y014197D01*
X004264Y013924D01*
X004600Y013785D01*
X004031Y013785D01*
X003925Y013680D01*
X003925Y013176D01*
X004031Y013071D01*
X004770Y013071D01*
X004876Y013176D01*
X004876Y013221D01*
X012241Y013221D01*
X013567Y011895D01*
X013634Y011828D01*
X013722Y011791D01*
X013818Y011791D01*
X013871Y011813D01*
X013913Y011772D01*
X014652Y011772D01*
X014758Y011877D01*
X014758Y012381D01*
X014652Y012486D01*
X013913Y012486D01*
X013807Y012381D01*
X013807Y012371D01*
X013781Y012360D01*
X012476Y013665D01*
X012388Y013701D01*
X004854Y013701D01*
X004779Y013776D01*
X005007Y013776D01*
X005364Y013924D01*
X005637Y014197D01*
X005784Y014554D01*
X005784Y014940D01*
X005637Y015297D01*
X005418Y015515D01*
X013264Y015515D01*
X013046Y015297D01*
X012898Y014940D01*
X012898Y014554D01*
X013046Y014197D01*
X013319Y013924D01*
X013676Y013776D01*
X013930Y013776D01*
X013918Y013773D01*
X013877Y013749D01*
X013843Y013716D01*
X013819Y013675D01*
X013807Y013629D01*
X013807Y013437D01*
X014274Y013437D01*
X014274Y013785D01*
X014083Y013785D01*
X014419Y013924D01*
X014518Y014024D01*
X014850Y013692D01*
X014850Y013413D01*
X014887Y013325D01*
X014954Y013258D01*
X015614Y012598D01*
X015702Y012561D01*
X015871Y012561D01*
X015946Y012486D01*
X015842Y012486D01*
X015736Y012381D01*
X015736Y011877D01*
X015842Y011772D01*
X015950Y011772D01*
X015950Y011611D01*
X013282Y011611D01*
X013194Y011575D01*
X010886Y009266D01*
X010886Y009286D02*
X010906Y009286D01*
X011064Y009445D02*
X009546Y009445D01*
X009387Y009603D02*
X011223Y009603D01*
X011381Y009762D02*
X009229Y009762D01*
X009070Y009920D02*
X011540Y009920D01*
X011698Y010079D02*
X008912Y010079D01*
X008753Y010237D02*
X011857Y010237D01*
X012015Y010396D02*
X008595Y010396D01*
X008436Y010554D02*
X012174Y010554D01*
X012332Y010713D02*
X008278Y010713D01*
X008119Y010871D02*
X012491Y010871D01*
X012649Y011030D02*
X007961Y011030D01*
X007802Y011188D02*
X012808Y011188D01*
X012966Y011347D02*
X007644Y011347D01*
X007485Y011505D02*
X013125Y011505D01*
X013481Y011981D02*
X007010Y011981D01*
X006851Y012139D02*
X013323Y012139D01*
X013164Y012298D02*
X006693Y012298D01*
X006490Y011822D02*
X004821Y011822D01*
X003980Y011822D02*
X002892Y011822D01*
X002927Y011664D02*
X006648Y011664D01*
X006807Y011505D02*
X003085Y011505D01*
X003244Y011347D02*
X006965Y011347D01*
X007124Y011188D02*
X003402Y011188D01*
X003561Y011030D02*
X007282Y011030D01*
X007441Y010871D02*
X003719Y010871D01*
X003878Y010713D02*
X007599Y010713D01*
X007758Y010554D02*
X004036Y010554D01*
X004195Y010396D02*
X007916Y010396D01*
X008075Y010237D02*
X004353Y010237D01*
X004512Y010079D02*
X008233Y010079D01*
X008392Y009920D02*
X004643Y009920D01*
X004660Y009762D02*
X008550Y009762D01*
X008709Y009603D02*
X004660Y009603D01*
X004660Y009445D02*
X008867Y009445D01*
X009704Y009286D02*
X009766Y009286D01*
X008017Y009286D02*
X004660Y009286D01*
X004660Y009128D02*
X007874Y009128D01*
X007810Y008969D02*
X004660Y008969D01*
X004660Y008811D02*
X007797Y008811D01*
X007830Y008652D02*
X004660Y008652D01*
X004660Y008494D02*
X007918Y008494D01*
X004180Y008494D02*
X002499Y008494D01*
X002658Y008652D02*
X004180Y008652D01*
X004180Y008811D02*
X002761Y008811D01*
X002836Y008969D02*
X004180Y008969D01*
X004180Y009128D02*
X002879Y009128D01*
X002892Y009286D02*
X004180Y009286D01*
X004180Y009445D02*
X002892Y009445D01*
X002851Y009603D02*
X004180Y009603D01*
X004150Y009762D02*
X002793Y009762D01*
X002702Y009920D02*
X003992Y009920D01*
X003833Y010079D02*
X002555Y010079D01*
X002324Y010237D02*
X003675Y010237D01*
X003516Y010396D02*
X001160Y010396D01*
X001160Y010554D02*
X003358Y010554D01*
X003199Y010713D02*
X001160Y010713D01*
X001160Y010871D02*
X003041Y010871D01*
X002882Y011030D02*
X001160Y011030D01*
X001160Y011188D02*
X002724Y011188D01*
X002565Y011347D02*
X001160Y011347D01*
X001160Y011505D02*
X002407Y011505D01*
X002248Y011664D02*
X001160Y011664D01*
X001160Y011822D02*
X002051Y011822D01*
X001996Y011981D02*
X001160Y011981D01*
X001160Y012139D02*
X001996Y012139D01*
X001996Y012298D02*
X001160Y012298D01*
X001160Y012456D02*
X002072Y012456D01*
X001160Y012615D02*
X003717Y012615D01*
X003559Y012773D02*
X001160Y012773D01*
X001160Y012932D02*
X003400Y012932D01*
X003242Y013090D02*
X002848Y013090D01*
X002836Y013083D02*
X002877Y013107D01*
X002911Y013140D01*
X002934Y013181D01*
X002947Y013227D01*
X002947Y013419D01*
X002480Y013419D01*
X002480Y013071D01*
X002790Y013071D01*
X002836Y013083D01*
X002947Y013249D02*
X003083Y013249D01*
X002973Y013407D02*
X002947Y013407D01*
X002947Y013437D02*
X002947Y013629D01*
X002934Y013675D01*
X002911Y013716D01*
X002877Y013749D01*
X002836Y013773D01*
X002790Y013785D01*
X002480Y013785D01*
X002480Y013437D01*
X002463Y013437D01*
X002463Y013419D01*
X002480Y013419D01*
X002480Y013437D01*
X002947Y013437D01*
X002947Y013566D02*
X002970Y013566D01*
X002938Y013724D02*
X002902Y013724D01*
X002779Y013883D02*
X002508Y013883D01*
X002480Y013724D02*
X002463Y013724D01*
X002463Y013566D02*
X002480Y013566D01*
X002463Y013419D02*
X001996Y013419D01*
X001996Y013227D01*
X002008Y013181D01*
X002032Y013140D01*
X002066Y013107D01*
X002107Y013083D01*
X002152Y013071D01*
X002463Y013071D01*
X002463Y013419D01*
X002463Y013407D02*
X002480Y013407D01*
X002463Y013249D02*
X002480Y013249D01*
X002463Y013090D02*
X002480Y013090D01*
X002094Y013090D02*
X001160Y013090D01*
X001160Y013249D02*
X001996Y013249D01*
X001996Y013407D02*
X001160Y013407D01*
X001160Y013566D02*
X001996Y013566D01*
X002040Y013724D02*
X001160Y013724D01*
X001160Y013883D02*
X001608Y013883D01*
X001391Y014041D02*
X001160Y014041D01*
X001160Y014200D02*
X001234Y014200D01*
X001168Y014358D02*
X001160Y014358D01*
X002982Y014358D02*
X003924Y014358D01*
X003859Y014517D02*
X003013Y014517D01*
X003029Y014675D02*
X003843Y014675D01*
X003843Y014834D02*
X003029Y014834D01*
X003007Y014992D02*
X003865Y014992D01*
X003931Y015151D02*
X002941Y015151D01*
X002868Y015309D02*
X004003Y015309D01*
X004162Y015468D02*
X002710Y015468D01*
X005466Y015468D02*
X013217Y015468D01*
X013059Y015309D02*
X005624Y015309D01*
X005697Y015151D02*
X012986Y015151D01*
X012920Y014992D02*
X005763Y014992D01*
X005784Y014834D02*
X012898Y014834D01*
X012898Y014675D02*
X005784Y014675D01*
X005769Y014517D02*
X012914Y014517D01*
X012980Y014358D02*
X005703Y014358D01*
X005638Y014200D02*
X013045Y014200D01*
X013202Y014041D02*
X005481Y014041D01*
X005263Y013883D02*
X013419Y013883D01*
X013851Y013724D02*
X004831Y013724D01*
X004364Y013883D02*
X003432Y013883D01*
X003450Y013724D02*
X003970Y013724D01*
X003925Y013566D02*
X003450Y013566D01*
X003603Y013407D02*
X003925Y013407D01*
X003925Y013249D02*
X003762Y013249D01*
X003920Y013090D02*
X004011Y013090D01*
X004299Y012932D02*
X012530Y012932D01*
X012372Y013090D02*
X004790Y013090D01*
X004457Y012773D02*
X012689Y012773D01*
X012847Y012615D02*
X004550Y012615D01*
X004800Y012456D02*
X013006Y012456D01*
X013526Y012615D02*
X015597Y012615D01*
X015439Y012773D02*
X013367Y012773D01*
X013209Y012932D02*
X015280Y012932D01*
X015122Y013090D02*
X014659Y013090D01*
X014647Y013083D02*
X014688Y013107D01*
X014722Y013140D01*
X014745Y013181D01*
X014758Y013227D01*
X014758Y013419D01*
X014291Y013419D01*
X014291Y013071D01*
X014601Y013071D01*
X014647Y013083D01*
X014758Y013249D02*
X014963Y013249D01*
X014853Y013407D02*
X014758Y013407D01*
X014758Y013437D02*
X014758Y013629D01*
X014745Y013675D01*
X014722Y013716D01*
X014688Y013749D01*
X014647Y013773D01*
X014601Y013785D01*
X014291Y013785D01*
X014291Y013437D01*
X014274Y013437D01*
X014274Y013419D01*
X014291Y013419D01*
X014291Y013437D01*
X014758Y013437D01*
X014758Y013566D02*
X014850Y013566D01*
X014818Y013724D02*
X014713Y013724D01*
X014659Y013883D02*
X014319Y013883D01*
X014291Y013724D02*
X014274Y013724D01*
X014274Y013566D02*
X014291Y013566D01*
X014274Y013419D02*
X013807Y013419D01*
X013807Y013227D01*
X013819Y013181D01*
X013843Y013140D01*
X013877Y013107D01*
X013918Y013083D01*
X013963Y013071D01*
X014274Y013071D01*
X014274Y013419D01*
X014274Y013407D02*
X014291Y013407D01*
X014274Y013249D02*
X014291Y013249D01*
X014274Y013090D02*
X014291Y013090D01*
X013906Y013090D02*
X013050Y013090D01*
X012892Y013249D02*
X013807Y013249D01*
X013807Y013407D02*
X012733Y013407D01*
X012575Y013566D02*
X013807Y013566D01*
X013883Y012456D02*
X013684Y012456D01*
X014682Y012456D02*
X015812Y012456D01*
X015736Y012298D02*
X014758Y012298D01*
X014758Y012139D02*
X015736Y012139D01*
X015736Y011981D02*
X014758Y011981D01*
X014703Y011822D02*
X015791Y011822D01*
X015950Y011664D02*
X007327Y011664D01*
X007168Y011822D02*
X013647Y011822D01*
X018233Y013407D02*
X023510Y013407D01*
X023510Y013386D02*
X023568Y013246D01*
X023675Y013139D01*
X023814Y013081D01*
X023966Y013081D01*
X024096Y013135D01*
X025227Y012005D01*
X025294Y011938D01*
X025382Y011901D01*
X025618Y011901D01*
X025618Y011877D01*
X025724Y011772D01*
X026463Y011772D01*
X026569Y011877D01*
X026569Y012381D01*
X026463Y012486D01*
X025724Y012486D01*
X025619Y012381D01*
X025529Y012381D01*
X024246Y013665D01*
X024208Y013680D01*
X024105Y013783D01*
X023966Y013841D01*
X023814Y013841D01*
X023675Y013783D01*
X023568Y013676D01*
X023510Y013537D01*
X023510Y013386D01*
X023567Y013249D02*
X018392Y013249D01*
X018550Y013090D02*
X023793Y013090D01*
X023987Y013090D02*
X024142Y013090D01*
X024300Y012932D02*
X018709Y012932D01*
X018867Y012773D02*
X024459Y012773D01*
X024617Y012615D02*
X019026Y012615D01*
X019184Y012456D02*
X024776Y012456D01*
X024934Y012298D02*
X019343Y012298D01*
X019501Y012139D02*
X025093Y012139D01*
X025251Y011981D02*
X019660Y011981D01*
X019818Y011822D02*
X025673Y011822D01*
X026514Y011822D02*
X027602Y011822D01*
X027547Y011981D02*
X026569Y011981D01*
X026569Y012139D02*
X027547Y012139D01*
X027547Y012298D02*
X026569Y012298D01*
X026493Y012456D02*
X027623Y012456D01*
X027367Y012615D02*
X025296Y012615D01*
X025137Y012773D02*
X027209Y012773D01*
X027050Y012932D02*
X024979Y012932D01*
X024820Y013090D02*
X025717Y013090D01*
X025729Y013083D02*
X025774Y013071D01*
X026085Y013071D01*
X026085Y013419D01*
X026102Y013419D01*
X026102Y013071D01*
X026412Y013071D01*
X026458Y013083D01*
X026499Y013107D01*
X026533Y013140D01*
X026556Y013181D01*
X026569Y013227D01*
X026569Y013419D01*
X026102Y013419D01*
X026102Y013437D01*
X026085Y013437D01*
X026085Y013419D01*
X025618Y013419D01*
X025618Y013227D01*
X025630Y013181D01*
X025654Y013140D01*
X025688Y013107D01*
X025729Y013083D01*
X025618Y013249D02*
X024662Y013249D01*
X024503Y013407D02*
X025618Y013407D01*
X025618Y013566D02*
X024345Y013566D01*
X024164Y013724D02*
X025662Y013724D01*
X026085Y013724D02*
X026102Y013724D01*
X026102Y013785D02*
X026102Y013437D01*
X026569Y013437D01*
X026569Y013629D01*
X026556Y013675D01*
X026533Y013716D01*
X026499Y013749D01*
X026458Y013773D01*
X026412Y013785D01*
X026102Y013785D01*
X026130Y013883D02*
X026620Y013883D01*
X026620Y013724D02*
X026524Y013724D01*
X026569Y013566D02*
X026620Y013566D01*
X026623Y013407D02*
X026569Y013407D01*
X026569Y013249D02*
X026733Y013249D01*
X026892Y013090D02*
X026470Y013090D01*
X026102Y013090D02*
X026085Y013090D01*
X026085Y013249D02*
X026102Y013249D01*
X026085Y013407D02*
X026102Y013407D01*
X026085Y013566D02*
X026102Y013566D01*
X026347Y014041D02*
X026491Y014041D01*
X026651Y014560D02*
X027063Y014147D01*
X027100Y014059D01*
X027100Y013561D01*
X027619Y013041D01*
X027788Y013041D01*
X027876Y013005D01*
X027943Y012937D01*
X028163Y012717D01*
X028200Y012629D01*
X028200Y012486D01*
X028392Y012486D01*
X028498Y012381D01*
X028498Y011877D01*
X028392Y011772D01*
X028339Y011772D01*
X028389Y011721D01*
X029108Y011721D01*
X029196Y011685D01*
X029263Y011617D01*
X031637Y009244D01*
X031832Y009325D01*
X032839Y009325D01*
X033049Y009238D01*
X033209Y009078D01*
X033296Y008868D01*
X033296Y008641D01*
X033209Y008432D01*
X033049Y008272D01*
X032839Y008185D01*
X032263Y008185D01*
X030939Y006861D01*
X031689Y006111D01*
X034901Y006111D01*
X039600Y010811D01*
X039600Y011772D01*
X039464Y011772D01*
X039358Y011877D01*
X039358Y012381D01*
X039464Y012486D01*
X039486Y012486D01*
X039411Y012561D01*
X039242Y012561D01*
X039154Y012598D01*
X038494Y013258D01*
X038427Y013325D01*
X038390Y013413D01*
X038390Y013692D01*
X038099Y013983D01*
X038041Y013924D01*
X037705Y013785D01*
X037896Y013785D01*
X037896Y013437D01*
X037913Y013437D01*
X037913Y013785D01*
X038223Y013785D01*
X038269Y013773D01*
X038310Y013749D01*
X038344Y013716D01*
X038367Y013675D01*
X038380Y013629D01*
X038380Y013437D01*
X037913Y013437D01*
X037913Y013419D01*
X037913Y013071D01*
X038223Y013071D01*
X038269Y013083D01*
X038310Y013107D01*
X038344Y013140D01*
X038367Y013181D01*
X038380Y013227D01*
X038380Y013419D01*
X037913Y013419D01*
X037896Y013419D01*
X037896Y013071D01*
X037585Y013071D01*
X037540Y013083D01*
X037499Y013107D01*
X037465Y013140D01*
X037441Y013181D01*
X037429Y013227D01*
X037429Y013419D01*
X037896Y013419D01*
X037896Y013437D01*
X037429Y013437D01*
X037429Y013629D01*
X037441Y013675D01*
X037465Y013716D01*
X037499Y013749D01*
X037540Y013773D01*
X037553Y013776D01*
X037298Y013776D01*
X036941Y013924D01*
X036668Y014197D01*
X036520Y014554D01*
X036520Y014940D01*
X036668Y015297D01*
X036886Y015515D01*
X029040Y015515D01*
X029259Y015297D01*
X029406Y014940D01*
X029406Y014554D01*
X029259Y014197D01*
X028986Y013924D01*
X028629Y013776D01*
X028401Y013776D01*
X028476Y013701D01*
X031491Y013701D01*
X031497Y013707D01*
X031564Y013775D01*
X031652Y013811D01*
X036148Y013811D01*
X036236Y013775D01*
X037530Y012481D01*
X037535Y012486D01*
X038274Y012486D01*
X038380Y012381D01*
X038380Y011877D01*
X038274Y011772D01*
X037535Y011772D01*
X037429Y011877D01*
X037429Y011903D01*
X036001Y013331D01*
X031799Y013331D01*
X031726Y013258D01*
X031638Y013221D01*
X028498Y013221D01*
X028498Y013176D01*
X028392Y013071D01*
X027653Y013071D01*
X027547Y013176D01*
X027547Y013680D01*
X027653Y013785D01*
X028222Y013785D01*
X027886Y013924D01*
X027613Y014197D01*
X027465Y014554D01*
X027465Y014940D01*
X027613Y015297D01*
X027831Y015515D01*
X026285Y015515D01*
X026503Y015297D01*
X026651Y014940D01*
X026651Y014560D01*
X026694Y014517D02*
X027481Y014517D01*
X027465Y014675D02*
X026651Y014675D01*
X026651Y014834D02*
X027465Y014834D01*
X027487Y014992D02*
X026629Y014992D01*
X026563Y015151D02*
X027553Y015151D01*
X027626Y015309D02*
X026490Y015309D01*
X026332Y015468D02*
X027784Y015468D01*
X029088Y015468D02*
X036839Y015468D01*
X036681Y015309D02*
X029246Y015309D01*
X029319Y015151D02*
X036608Y015151D01*
X036542Y014992D02*
X029385Y014992D01*
X029406Y014834D02*
X036520Y014834D01*
X036520Y014675D02*
X029406Y014675D01*
X029391Y014517D02*
X036536Y014517D01*
X036602Y014358D02*
X029325Y014358D01*
X029260Y014200D02*
X036667Y014200D01*
X036824Y014041D02*
X029103Y014041D01*
X028885Y013883D02*
X037041Y013883D01*
X037474Y013724D02*
X036286Y013724D01*
X036445Y013566D02*
X037429Y013566D01*
X037429Y013407D02*
X036603Y013407D01*
X036762Y013249D02*
X037429Y013249D01*
X037528Y013090D02*
X036920Y013090D01*
X037079Y012932D02*
X038820Y012932D01*
X038662Y013090D02*
X038281Y013090D01*
X038380Y013249D02*
X038503Y013249D01*
X038393Y013407D02*
X038380Y013407D01*
X038380Y013566D02*
X038390Y013566D01*
X038358Y013724D02*
X038335Y013724D01*
X038199Y013883D02*
X037941Y013883D01*
X037913Y013724D02*
X037896Y013724D01*
X037896Y013566D02*
X037913Y013566D01*
X037896Y013407D02*
X037913Y013407D01*
X037896Y013249D02*
X037913Y013249D01*
X037896Y013090D02*
X037913Y013090D01*
X037237Y012773D02*
X038979Y012773D01*
X039137Y012615D02*
X037396Y012615D01*
X036876Y012456D02*
X035224Y012456D01*
X035189Y012372D02*
X035276Y012581D01*
X035276Y012808D01*
X035189Y013018D01*
X035029Y013178D01*
X034819Y013265D01*
X033812Y013265D01*
X033603Y013178D01*
X033442Y013018D01*
X033356Y012808D01*
X033356Y012581D01*
X033442Y012372D01*
X033603Y012212D01*
X033812Y012125D01*
X034819Y012125D01*
X035029Y012212D01*
X035189Y012372D01*
X035115Y012298D02*
X037034Y012298D01*
X037193Y012139D02*
X034854Y012139D01*
X033778Y012139D02*
X032874Y012139D01*
X032839Y012125D02*
X033049Y012212D01*
X033209Y012372D01*
X033296Y012581D01*
X033296Y012808D01*
X033209Y013018D01*
X033049Y013178D01*
X032839Y013265D01*
X031832Y013265D01*
X031623Y013178D01*
X031462Y013018D01*
X031376Y012808D01*
X031376Y012581D01*
X031462Y012372D01*
X031623Y012212D01*
X031832Y012125D01*
X032839Y012125D01*
X033135Y012298D02*
X033517Y012298D01*
X033408Y012456D02*
X033244Y012456D01*
X033296Y012615D02*
X033356Y012615D01*
X033356Y012773D02*
X033296Y012773D01*
X033245Y012932D02*
X033407Y012932D01*
X033515Y013090D02*
X033136Y013090D01*
X032878Y013249D02*
X033773Y013249D01*
X034858Y013249D02*
X036083Y013249D01*
X036242Y013090D02*
X035116Y013090D01*
X035225Y012932D02*
X036400Y012932D01*
X036559Y012773D02*
X035276Y012773D01*
X035276Y012615D02*
X036717Y012615D01*
X038304Y012456D02*
X039434Y012456D01*
X039358Y012298D02*
X038380Y012298D01*
X038380Y012139D02*
X039358Y012139D01*
X039358Y011981D02*
X038380Y011981D01*
X038325Y011822D02*
X039413Y011822D01*
X039600Y011664D02*
X029217Y011664D01*
X029375Y011505D02*
X039600Y011505D01*
X039600Y011347D02*
X029534Y011347D01*
X029692Y011188D02*
X031603Y011188D01*
X031623Y011208D02*
X031462Y011048D01*
X031376Y010838D01*
X031376Y010611D01*
X031462Y010402D01*
X031623Y010242D01*
X031832Y010155D01*
X032839Y010155D01*
X033049Y010242D01*
X033209Y010402D01*
X033296Y010611D01*
X033296Y010838D01*
X033209Y011048D01*
X033049Y011208D01*
X032839Y011295D01*
X031832Y011295D01*
X031623Y011208D01*
X031455Y011030D02*
X029851Y011030D01*
X030009Y010871D02*
X031389Y010871D01*
X031376Y010713D02*
X030168Y010713D01*
X030326Y010554D02*
X031399Y010554D01*
X031469Y010396D02*
X030485Y010396D01*
X030643Y010237D02*
X031634Y010237D01*
X030960Y009920D02*
X038710Y009920D01*
X038868Y010079D02*
X030802Y010079D01*
X031119Y009762D02*
X038551Y009762D01*
X038393Y009603D02*
X031277Y009603D01*
X031436Y009445D02*
X038234Y009445D01*
X038076Y009286D02*
X034915Y009286D01*
X034924Y009283D02*
X034839Y009311D01*
X034751Y009325D01*
X034366Y009325D01*
X034366Y008805D01*
X035275Y008805D01*
X035262Y008888D01*
X035234Y008974D01*
X035193Y009054D01*
X035140Y009126D01*
X035077Y009190D01*
X035004Y009242D01*
X034924Y009283D01*
X035139Y009128D02*
X037917Y009128D01*
X037759Y008969D02*
X035235Y008969D01*
X035274Y008811D02*
X037600Y008811D01*
X037442Y008652D02*
X035267Y008652D01*
X035262Y008621D02*
X035275Y008705D01*
X034366Y008705D01*
X034366Y008805D01*
X034266Y008805D01*
X034266Y009325D01*
X033881Y009325D01*
X033792Y009311D01*
X033707Y009283D01*
X033627Y009242D01*
X033554Y009190D01*
X033491Y009126D01*
X033438Y009054D01*
X033397Y008974D01*
X033370Y008888D01*
X033356Y008805D01*
X034266Y008805D01*
X034266Y008705D01*
X034366Y008705D01*
X034366Y008185D01*
X034751Y008185D01*
X034839Y008199D01*
X034924Y008227D01*
X035004Y008267D01*
X035077Y008320D01*
X035140Y008383D01*
X035193Y008456D01*
X035234Y008536D01*
X035262Y008621D01*
X035212Y008494D02*
X037283Y008494D01*
X037125Y008335D02*
X035092Y008335D01*
X034366Y008335D02*
X034266Y008335D01*
X034266Y008185D02*
X033881Y008185D01*
X033792Y008199D01*
X033707Y008227D01*
X033627Y008267D01*
X033554Y008320D01*
X033491Y008383D01*
X033438Y008456D01*
X033397Y008536D01*
X033370Y008621D01*
X033356Y008705D01*
X034266Y008705D01*
X034266Y008185D01*
X033539Y008335D02*
X033112Y008335D01*
X033234Y008494D02*
X033419Y008494D01*
X033365Y008652D02*
X033296Y008652D01*
X033296Y008811D02*
X033357Y008811D01*
X033396Y008969D02*
X033254Y008969D01*
X033159Y009128D02*
X033492Y009128D01*
X033716Y009286D02*
X032932Y009286D01*
X034266Y009286D02*
X034366Y009286D01*
X034366Y009128D02*
X034266Y009128D01*
X034266Y008969D02*
X034366Y008969D01*
X034366Y008811D02*
X034266Y008811D01*
X034266Y008652D02*
X034366Y008652D01*
X034366Y008494D02*
X034266Y008494D01*
X032255Y008177D02*
X036966Y008177D01*
X036808Y008018D02*
X032096Y008018D01*
X031938Y007860D02*
X036649Y007860D01*
X036491Y007701D02*
X031779Y007701D01*
X031621Y007543D02*
X036332Y007543D01*
X036174Y007384D02*
X031462Y007384D01*
X031580Y007226D02*
X031304Y007226D01*
X031462Y007108D02*
X031376Y006898D01*
X031376Y006671D01*
X031462Y006462D01*
X031623Y006302D01*
X031832Y006215D01*
X032839Y006215D01*
X033049Y006302D01*
X033209Y006462D01*
X033296Y006671D01*
X033296Y006898D01*
X033209Y007108D01*
X033049Y007268D01*
X032839Y007355D01*
X031832Y007355D01*
X031623Y007268D01*
X031462Y007108D01*
X031446Y007067D02*
X031145Y007067D01*
X030987Y006909D02*
X031380Y006909D01*
X031376Y006750D02*
X031050Y006750D01*
X031209Y006592D02*
X031409Y006592D01*
X031367Y006433D02*
X031491Y006433D01*
X031526Y006275D02*
X031688Y006275D01*
X031684Y006116D02*
X034906Y006116D01*
X034839Y006229D02*
X034924Y006257D01*
X035004Y006297D01*
X035077Y006350D01*
X035140Y006413D01*
X035193Y006486D01*
X035234Y006566D01*
X035262Y006651D01*
X035275Y006735D01*
X034366Y006735D01*
X034366Y006835D01*
X035275Y006835D01*
X035262Y006918D01*
X035234Y007004D01*
X035193Y007084D01*
X035140Y007156D01*
X035077Y007220D01*
X035004Y007272D01*
X034924Y007313D01*
X034839Y007341D01*
X034751Y007355D01*
X034366Y007355D01*
X034366Y006835D01*
X034266Y006835D01*
X034266Y007355D01*
X033881Y007355D01*
X033792Y007341D01*
X033707Y007313D01*
X033627Y007272D01*
X033554Y007220D01*
X033491Y007156D01*
X033438Y007084D01*
X033397Y007004D01*
X033370Y006918D01*
X033356Y006835D01*
X034266Y006835D01*
X034266Y006735D01*
X034366Y006735D01*
X034366Y006215D01*
X034751Y006215D01*
X034839Y006229D01*
X034960Y006275D02*
X035064Y006275D01*
X035155Y006433D02*
X035223Y006433D01*
X035242Y006592D02*
X035381Y006592D01*
X035540Y006750D02*
X034366Y006750D01*
X034266Y006750D02*
X033296Y006750D01*
X033356Y006735D02*
X033370Y006651D01*
X033397Y006566D01*
X033438Y006486D01*
X033491Y006413D01*
X033554Y006350D01*
X033627Y006297D01*
X033707Y006257D01*
X033792Y006229D01*
X033881Y006215D01*
X034266Y006215D01*
X034266Y006735D01*
X033356Y006735D01*
X033389Y006592D02*
X033263Y006592D01*
X033180Y006433D02*
X033477Y006433D01*
X033671Y006275D02*
X032983Y006275D01*
X034266Y006275D02*
X034366Y006275D01*
X034366Y006433D02*
X034266Y006433D01*
X034266Y006592D02*
X034366Y006592D01*
X034366Y006909D02*
X034266Y006909D01*
X034266Y007067D02*
X034366Y007067D01*
X034366Y007226D02*
X034266Y007226D01*
X033563Y007226D02*
X033091Y007226D01*
X033226Y007067D02*
X033430Y007067D01*
X033368Y006909D02*
X033291Y006909D01*
X035069Y007226D02*
X036015Y007226D01*
X035857Y007067D02*
X035202Y007067D01*
X035263Y006909D02*
X035698Y006909D01*
X036218Y006750D02*
X036907Y006750D01*
X036883Y006774D02*
X037038Y006619D01*
X037053Y006613D01*
X036887Y006447D01*
X036850Y006359D01*
X036850Y005163D01*
X036887Y005075D01*
X036954Y005008D01*
X037284Y004678D01*
X037372Y004641D01*
X037541Y004641D01*
X037570Y004612D01*
X037535Y004612D01*
X037429Y004507D01*
X037429Y004003D01*
X037526Y003906D01*
X037304Y003906D01*
X035339Y005871D01*
X040043Y010575D01*
X040080Y010663D01*
X040080Y010759D01*
X040080Y011772D01*
X040203Y011772D01*
X040309Y011877D01*
X040309Y012381D01*
X040203Y012486D01*
X039970Y012486D01*
X039970Y012629D01*
X039933Y012717D01*
X039872Y012779D01*
X040163Y012761D01*
X040170Y012758D01*
X040210Y012758D01*
X040250Y012755D01*
X040258Y012758D01*
X040406Y012758D01*
X040421Y012754D01*
X040453Y012758D01*
X040469Y012758D01*
X040476Y012747D01*
X040501Y012731D01*
X040523Y012711D01*
X040540Y012705D01*
X040556Y012694D01*
X040585Y012688D01*
X040613Y012678D01*
X040631Y012679D01*
X040649Y012676D01*
X040679Y012682D01*
X040708Y012683D01*
X040725Y012691D01*
X040743Y012694D01*
X040768Y012711D01*
X040862Y012755D01*
X040873Y012759D01*
X040987Y012646D01*
X041397Y012646D01*
X041687Y012936D01*
X041687Y013346D01*
X041397Y013636D01*
X040987Y013636D01*
X040697Y013346D01*
X040697Y013281D01*
X040696Y013282D01*
X040663Y013304D01*
X040632Y013328D01*
X040624Y013331D01*
X040617Y013335D01*
X040578Y013343D01*
X040540Y013353D01*
X040531Y013352D01*
X040523Y013354D01*
X040484Y013346D01*
X040445Y013341D01*
X040438Y013337D01*
X040429Y013335D01*
X040397Y013313D01*
X040362Y013293D01*
X040357Y013287D01*
X040350Y013282D01*
X040328Y013249D01*
X040319Y013238D01*
X040309Y013238D01*
X040309Y013680D01*
X040212Y013776D01*
X040440Y013776D01*
X040797Y013924D01*
X041070Y014197D01*
X041217Y014554D01*
X041217Y014940D01*
X041070Y015297D01*
X040851Y015515D01*
X042015Y015515D01*
X042015Y009234D01*
X041899Y009435D01*
X041707Y009627D01*
X041472Y009763D01*
X041209Y009833D01*
X040938Y009833D01*
X040676Y009763D01*
X040441Y009627D01*
X040249Y009435D01*
X040113Y009200D01*
X040043Y008938D01*
X040043Y008666D01*
X040113Y008404D01*
X040249Y008169D01*
X040441Y007977D01*
X040676Y007841D01*
X040938Y007771D01*
X041209Y007771D01*
X041472Y007841D01*
X041707Y007977D01*
X041899Y008169D01*
X042015Y008370D01*
X042015Y001979D01*
X040473Y001979D01*
X040797Y002113D01*
X041070Y002386D01*
X041217Y002743D01*
X041217Y003129D01*
X041070Y003486D01*
X040797Y003759D01*
X040440Y003906D01*
X040212Y003906D01*
X040309Y004003D01*
X040309Y004507D01*
X040203Y004612D01*
X039464Y004612D01*
X039358Y004507D01*
X039358Y004461D01*
X039132Y004461D01*
X039044Y004425D01*
X038209Y003590D01*
X038041Y003759D01*
X037705Y003898D01*
X038274Y003898D01*
X038380Y004003D01*
X038380Y004507D01*
X038274Y004612D01*
X038100Y004612D01*
X038100Y004709D01*
X038063Y004797D01*
X037843Y005017D01*
X037776Y005085D01*
X037688Y005121D01*
X037519Y005121D01*
X037330Y005311D01*
X037330Y006212D01*
X037556Y006438D01*
X037623Y006505D01*
X037660Y006593D01*
X037660Y006619D01*
X037661Y006619D01*
X037816Y006774D01*
X037899Y006976D01*
X037899Y007195D01*
X037816Y007397D01*
X037661Y007552D01*
X037459Y007636D01*
X037240Y007636D01*
X037038Y007552D01*
X036883Y007397D01*
X036799Y007195D01*
X036799Y006976D01*
X036883Y006774D01*
X036827Y006909D02*
X036377Y006909D01*
X036535Y007067D02*
X036799Y007067D01*
X036812Y007226D02*
X036694Y007226D01*
X036852Y007384D02*
X036878Y007384D01*
X037011Y007543D02*
X037029Y007543D01*
X037169Y007701D02*
X042015Y007701D01*
X042015Y007543D02*
X040670Y007543D01*
X040661Y007552D02*
X040459Y007636D01*
X040240Y007636D01*
X040038Y007552D01*
X039883Y007397D01*
X039799Y007195D01*
X039799Y006976D01*
X039883Y006774D01*
X040038Y006619D01*
X040240Y006536D01*
X040459Y006536D01*
X040661Y006619D01*
X040816Y006774D01*
X040899Y006976D01*
X040899Y007195D01*
X040816Y007397D01*
X040661Y007552D01*
X040821Y007384D02*
X042015Y007384D01*
X042015Y007226D02*
X040887Y007226D01*
X040899Y007067D02*
X042015Y007067D01*
X042015Y006909D02*
X040871Y006909D01*
X040792Y006750D02*
X042015Y006750D01*
X042015Y006592D02*
X040594Y006592D01*
X040104Y006592D02*
X037659Y006592D01*
X037551Y006433D02*
X042015Y006433D01*
X042015Y006275D02*
X037393Y006275D01*
X037330Y006116D02*
X042015Y006116D01*
X042015Y005958D02*
X039411Y005958D01*
X039395Y005973D02*
X039256Y006031D01*
X039104Y006031D01*
X038965Y005973D01*
X038858Y005866D01*
X038800Y005727D01*
X038800Y005576D01*
X038858Y005436D01*
X038965Y005329D01*
X039104Y005271D01*
X039221Y005271D01*
X039264Y005228D01*
X039352Y005191D01*
X039448Y005191D01*
X039463Y005197D01*
X039464Y005197D01*
X040203Y005197D01*
X040309Y005302D01*
X040309Y005806D01*
X040203Y005911D01*
X039464Y005911D01*
X039461Y005908D01*
X039395Y005973D01*
X038949Y005958D02*
X037330Y005958D01*
X037330Y005799D02*
X037441Y005799D01*
X037441Y005801D02*
X037429Y005755D01*
X037429Y005563D01*
X037896Y005563D01*
X037896Y005911D01*
X037585Y005911D01*
X037540Y005899D01*
X037499Y005875D01*
X037465Y005842D01*
X037441Y005801D01*
X037429Y005641D02*
X037330Y005641D01*
X037429Y005545D02*
X037429Y005353D01*
X037441Y005307D01*
X037465Y005266D01*
X037499Y005233D01*
X037540Y005209D01*
X037585Y005197D01*
X037896Y005197D01*
X037896Y005545D01*
X037913Y005545D01*
X037913Y005197D01*
X038223Y005197D01*
X038269Y005209D01*
X038310Y005233D01*
X038344Y005266D01*
X038367Y005307D01*
X038380Y005353D01*
X038380Y005545D01*
X037913Y005545D01*
X037913Y005563D01*
X037896Y005563D01*
X037896Y005545D01*
X037429Y005545D01*
X037429Y005482D02*
X037330Y005482D01*
X037330Y005324D02*
X037437Y005324D01*
X037475Y005165D02*
X042015Y005165D01*
X042015Y005007D02*
X037854Y005007D01*
X037843Y005017D02*
X037843Y005017D01*
X038012Y004848D02*
X042015Y004848D01*
X042015Y004690D02*
X038100Y004690D01*
X038355Y004531D02*
X039383Y004531D01*
X038992Y004373D02*
X038380Y004373D01*
X038380Y004214D02*
X038834Y004214D01*
X038675Y004056D02*
X038380Y004056D01*
X038517Y003897D02*
X037707Y003897D01*
X037429Y004056D02*
X037155Y004056D01*
X036996Y004214D02*
X037429Y004214D01*
X037429Y004373D02*
X036838Y004373D01*
X036679Y004531D02*
X037454Y004531D01*
X037272Y004690D02*
X036521Y004690D01*
X036362Y004848D02*
X037114Y004848D01*
X036955Y005007D02*
X036204Y005007D01*
X036045Y005165D02*
X036850Y005165D01*
X036850Y005324D02*
X035887Y005324D01*
X035728Y005482D02*
X036850Y005482D01*
X036850Y005641D02*
X035570Y005641D01*
X035411Y005799D02*
X036850Y005799D01*
X036850Y005958D02*
X035426Y005958D01*
X035584Y006116D02*
X036850Y006116D01*
X036850Y006275D02*
X035743Y006275D01*
X035901Y006433D02*
X036881Y006433D01*
X037031Y006592D02*
X036060Y006592D01*
X037792Y006750D02*
X039907Y006750D01*
X039827Y006909D02*
X037871Y006909D01*
X037899Y007067D02*
X039799Y007067D01*
X039812Y007226D02*
X037887Y007226D01*
X037821Y007384D02*
X039878Y007384D01*
X040029Y007543D02*
X037670Y007543D01*
X037328Y007860D02*
X040644Y007860D01*
X040399Y008018D02*
X037486Y008018D01*
X037645Y008177D02*
X040244Y008177D01*
X040153Y008335D02*
X037803Y008335D01*
X037962Y008494D02*
X040089Y008494D01*
X040046Y008652D02*
X038120Y008652D01*
X038279Y008811D02*
X040043Y008811D01*
X040051Y008969D02*
X038437Y008969D01*
X038596Y009128D02*
X040093Y009128D01*
X040162Y009286D02*
X038754Y009286D01*
X038913Y009445D02*
X040258Y009445D01*
X040416Y009603D02*
X039071Y009603D01*
X039230Y009762D02*
X040673Y009762D01*
X041474Y009762D02*
X042015Y009762D01*
X042015Y009920D02*
X039388Y009920D01*
X039547Y010079D02*
X042015Y010079D01*
X042015Y010237D02*
X039705Y010237D01*
X039864Y010396D02*
X042015Y010396D01*
X042015Y010554D02*
X040022Y010554D01*
X040080Y010713D02*
X042015Y010713D01*
X042015Y010871D02*
X040080Y010871D01*
X040080Y011030D02*
X042015Y011030D01*
X042015Y011188D02*
X040080Y011188D01*
X040080Y011347D02*
X042015Y011347D01*
X042015Y011505D02*
X040080Y011505D01*
X040080Y011664D02*
X042015Y011664D01*
X042015Y011822D02*
X040254Y011822D01*
X040309Y011981D02*
X042015Y011981D01*
X042015Y012139D02*
X040309Y012139D01*
X040309Y012298D02*
X042015Y012298D01*
X042015Y012456D02*
X040233Y012456D01*
X039970Y012615D02*
X042015Y012615D01*
X042015Y012773D02*
X041524Y012773D01*
X041683Y012932D02*
X042015Y012932D01*
X042015Y013090D02*
X041687Y013090D01*
X041687Y013249D02*
X042015Y013249D01*
X042015Y013407D02*
X041625Y013407D01*
X041467Y013566D02*
X042015Y013566D01*
X042015Y013724D02*
X040264Y013724D01*
X040309Y013566D02*
X040917Y013566D01*
X040758Y013407D02*
X040309Y013407D01*
X040309Y013249D02*
X040328Y013249D01*
X039963Y012773D02*
X039877Y012773D01*
X040696Y013883D02*
X042015Y013883D01*
X042015Y014041D02*
X040914Y014041D01*
X041071Y014200D02*
X042015Y014200D01*
X042015Y014358D02*
X041136Y014358D01*
X041202Y014517D02*
X042015Y014517D01*
X042015Y014675D02*
X041217Y014675D01*
X041217Y014834D02*
X042015Y014834D01*
X042015Y014992D02*
X041196Y014992D01*
X041130Y015151D02*
X042015Y015151D01*
X042015Y015309D02*
X041057Y015309D01*
X040899Y015468D02*
X042015Y015468D01*
X037484Y011822D02*
X028443Y011822D01*
X028498Y011981D02*
X037351Y011981D01*
X035189Y011048D02*
X035029Y011208D01*
X034819Y011295D01*
X033812Y011295D01*
X033603Y011208D01*
X033442Y011048D01*
X033356Y010838D01*
X033356Y010611D01*
X033442Y010402D01*
X033603Y010242D01*
X033812Y010155D01*
X034819Y010155D01*
X035029Y010242D01*
X035189Y010402D01*
X035276Y010611D01*
X035276Y010838D01*
X035189Y011048D01*
X035196Y011030D02*
X039600Y011030D01*
X039600Y011188D02*
X035048Y011188D01*
X035262Y010871D02*
X039600Y010871D01*
X039502Y010713D02*
X035276Y010713D01*
X035252Y010554D02*
X039344Y010554D01*
X039185Y010396D02*
X035183Y010396D01*
X035018Y010237D02*
X039027Y010237D01*
X041731Y009603D02*
X042015Y009603D01*
X042015Y009445D02*
X041889Y009445D01*
X041985Y009286D02*
X042015Y009286D01*
X041995Y008335D02*
X042015Y008335D01*
X042015Y008177D02*
X041903Y008177D01*
X042015Y008018D02*
X041748Y008018D01*
X041504Y007860D02*
X042015Y007860D01*
X038269Y005899D02*
X038223Y005911D01*
X037913Y005911D01*
X037913Y005563D01*
X038380Y005563D01*
X038380Y005755D01*
X038367Y005801D01*
X038344Y005842D01*
X038310Y005875D01*
X038269Y005899D01*
X038368Y005799D02*
X038830Y005799D01*
X038800Y005641D02*
X038380Y005641D01*
X038380Y005482D02*
X038839Y005482D01*
X038978Y005324D02*
X038372Y005324D01*
X037913Y005324D02*
X037896Y005324D01*
X037896Y005482D02*
X037913Y005482D01*
X037896Y005641D02*
X037913Y005641D01*
X037896Y005799D02*
X037913Y005799D01*
X040309Y005799D02*
X042015Y005799D01*
X042015Y005641D02*
X040309Y005641D01*
X040309Y005482D02*
X042015Y005482D01*
X042015Y005324D02*
X040309Y005324D01*
X040284Y004531D02*
X042015Y004531D01*
X042015Y004373D02*
X040309Y004373D01*
X040309Y004214D02*
X042015Y004214D01*
X042015Y004056D02*
X040309Y004056D01*
X040463Y003897D02*
X042015Y003897D01*
X042015Y003739D02*
X040817Y003739D01*
X040975Y003580D02*
X042015Y003580D01*
X042015Y003422D02*
X041096Y003422D01*
X041162Y003263D02*
X042015Y003263D01*
X042015Y003105D02*
X041217Y003105D01*
X041217Y002946D02*
X042015Y002946D01*
X042015Y002788D02*
X041217Y002788D01*
X041170Y002629D02*
X042015Y002629D01*
X042015Y002471D02*
X041105Y002471D01*
X040996Y002312D02*
X042015Y002312D01*
X042015Y002154D02*
X040837Y002154D01*
X040512Y001995D02*
X042015Y001995D01*
X038358Y003739D02*
X038061Y003739D01*
X029991Y006592D02*
X021419Y006592D01*
X021361Y006750D02*
X021270Y006750D01*
X021943Y006750D02*
X022361Y006750D01*
X022366Y006746D02*
X022422Y006705D01*
X022484Y006674D01*
X022549Y006652D01*
X022618Y006641D01*
X022652Y006641D01*
X022652Y007341D01*
X022212Y007341D01*
X022212Y007047D01*
X022223Y006978D01*
X022245Y006913D01*
X022276Y006851D01*
X022317Y006795D01*
X022366Y006746D01*
X022247Y006909D02*
X022057Y006909D01*
X022092Y007067D02*
X022212Y007067D01*
X022212Y007226D02*
X022092Y007226D01*
X022092Y007384D02*
X022212Y007384D01*
X022212Y007341D02*
X022652Y007341D01*
X022652Y007341D01*
X022652Y007341D01*
X022652Y006641D01*
X022687Y006641D01*
X022755Y006652D01*
X022821Y006674D01*
X022883Y006705D01*
X022939Y006746D01*
X022988Y006795D01*
X023029Y006851D01*
X023060Y006913D01*
X023082Y006978D01*
X023092Y007047D01*
X023092Y007341D01*
X022652Y007341D01*
X022652Y008041D01*
X022618Y008041D01*
X022549Y008031D01*
X022484Y008009D01*
X022422Y007978D01*
X022366Y007937D01*
X022317Y007888D01*
X022276Y007832D01*
X022245Y007770D01*
X022223Y007704D01*
X022212Y007636D01*
X022212Y007341D01*
X022212Y007543D02*
X022092Y007543D01*
X022087Y007701D02*
X022223Y007701D01*
X022296Y007860D02*
X022016Y007860D01*
X021796Y008018D02*
X022511Y008018D01*
X022652Y008018D02*
X022652Y008018D01*
X022652Y008041D02*
X022652Y007341D01*
X022652Y007341D01*
X022652Y007341D01*
X023092Y007341D01*
X023092Y007636D01*
X023082Y007704D01*
X023060Y007770D01*
X023029Y007832D01*
X022988Y007888D01*
X022939Y007937D01*
X022883Y007978D01*
X022821Y008009D01*
X022755Y008031D01*
X022687Y008041D01*
X022652Y008041D01*
X022794Y008018D02*
X023511Y008018D01*
X023484Y008009D02*
X023422Y007978D01*
X023366Y007937D01*
X023317Y007888D01*
X023276Y007832D01*
X023245Y007770D01*
X023223Y007704D01*
X023212Y007636D01*
X023212Y007341D01*
X023212Y007047D01*
X023223Y006978D01*
X023245Y006913D01*
X023276Y006851D01*
X023317Y006795D01*
X023366Y006746D01*
X023422Y006705D01*
X023484Y006674D01*
X023549Y006652D01*
X023618Y006641D01*
X023652Y006641D01*
X023652Y007341D01*
X023212Y007341D01*
X023652Y007341D01*
X023652Y007341D01*
X023652Y007341D01*
X023652Y006641D01*
X023687Y006641D01*
X023755Y006652D01*
X023821Y006674D01*
X023883Y006705D01*
X023939Y006746D01*
X023988Y006795D01*
X024029Y006851D01*
X024060Y006913D01*
X024082Y006978D01*
X024092Y007047D01*
X024092Y007341D01*
X023652Y007341D01*
X023652Y008041D01*
X023618Y008041D01*
X023549Y008031D01*
X023484Y008009D01*
X023652Y008018D02*
X023652Y008018D01*
X023652Y008041D02*
X023652Y007341D01*
X023652Y007341D01*
X023652Y007341D01*
X024092Y007341D01*
X024092Y007636D01*
X024082Y007704D01*
X024060Y007770D01*
X024029Y007832D01*
X023988Y007888D01*
X023939Y007937D01*
X023883Y007978D01*
X023821Y008009D01*
X023755Y008031D01*
X023687Y008041D01*
X023652Y008041D01*
X023794Y008018D02*
X024511Y008018D01*
X024484Y008009D02*
X024422Y007978D01*
X024366Y007937D01*
X024317Y007888D01*
X024276Y007832D01*
X024245Y007770D01*
X024223Y007704D01*
X024212Y007636D01*
X024212Y007341D01*
X024212Y007047D01*
X024223Y006978D01*
X024245Y006913D01*
X024276Y006851D01*
X024317Y006795D01*
X024366Y006746D01*
X024422Y006705D01*
X024484Y006674D01*
X024549Y006652D01*
X024618Y006641D01*
X024652Y006641D01*
X024652Y007341D01*
X024212Y007341D01*
X024652Y007341D01*
X024652Y007341D01*
X024652Y007341D01*
X024652Y006641D01*
X024687Y006641D01*
X024755Y006652D01*
X024821Y006674D01*
X024883Y006705D01*
X024939Y006746D01*
X024988Y006795D01*
X025029Y006851D01*
X025060Y006913D01*
X025082Y006978D01*
X025092Y007047D01*
X025092Y007341D01*
X024652Y007341D01*
X024652Y008041D01*
X024618Y008041D01*
X024549Y008031D01*
X024484Y008009D01*
X024652Y008018D02*
X024652Y008018D01*
X024652Y008041D02*
X024652Y007341D01*
X024652Y007341D01*
X024652Y007341D01*
X025092Y007341D01*
X025092Y007636D01*
X025082Y007704D01*
X025060Y007770D01*
X025029Y007832D01*
X024988Y007888D01*
X024939Y007937D01*
X024883Y007978D01*
X024821Y008009D01*
X024755Y008031D01*
X024687Y008041D01*
X024652Y008041D01*
X024794Y008018D02*
X031418Y008018D01*
X031576Y008177D02*
X021374Y008177D01*
X021215Y008335D02*
X031559Y008335D01*
X031437Y008494D02*
X021057Y008494D01*
X020898Y008652D02*
X031376Y008652D01*
X031376Y008811D02*
X020740Y008811D01*
X020581Y008969D02*
X031233Y008969D01*
X031074Y009128D02*
X020423Y009128D01*
X020390Y009286D02*
X030916Y009286D01*
X030757Y009445D02*
X020390Y009445D01*
X020390Y009603D02*
X030599Y009603D01*
X030440Y009762D02*
X024955Y009762D01*
X024902Y009708D02*
X025025Y009832D01*
X025092Y009994D01*
X025092Y010689D01*
X025025Y010851D01*
X024902Y010974D01*
X024740Y011041D01*
X024565Y011041D01*
X024403Y010974D01*
X024279Y010851D01*
X024212Y010689D01*
X024212Y009994D01*
X024279Y009832D01*
X024403Y009708D01*
X024565Y009641D01*
X024740Y009641D01*
X024902Y009708D01*
X024350Y009762D02*
X023955Y009762D01*
X023902Y009708D02*
X024025Y009832D01*
X024092Y009994D01*
X024092Y010689D01*
X024025Y010851D01*
X023902Y010974D01*
X023740Y011041D01*
X023565Y011041D01*
X023403Y010974D01*
X023279Y010851D01*
X023212Y010689D01*
X023212Y009994D01*
X023279Y009832D01*
X023403Y009708D01*
X023565Y009641D01*
X023740Y009641D01*
X023902Y009708D01*
X023350Y009762D02*
X022955Y009762D01*
X022902Y009708D02*
X023025Y009832D01*
X023092Y009994D01*
X023092Y010689D01*
X023025Y010851D01*
X022902Y010974D01*
X022740Y011041D01*
X022565Y011041D01*
X022403Y010974D01*
X022279Y010851D01*
X022212Y010689D01*
X022212Y009994D01*
X022279Y009832D01*
X022403Y009708D01*
X022565Y009641D01*
X022740Y009641D01*
X022902Y009708D01*
X022350Y009762D02*
X021955Y009762D01*
X021902Y009708D02*
X022025Y009832D01*
X022092Y009994D01*
X022092Y010689D01*
X022025Y010851D01*
X021902Y010974D01*
X021740Y011041D01*
X021565Y011041D01*
X021403Y010974D01*
X021279Y010851D01*
X021212Y010689D01*
X021212Y009994D01*
X021279Y009832D01*
X021403Y009708D01*
X021565Y009641D01*
X021740Y009641D01*
X021902Y009708D01*
X021350Y009762D02*
X020955Y009762D01*
X021062Y009920D02*
X021243Y009920D01*
X021212Y010079D02*
X021092Y010079D01*
X021092Y010237D02*
X021212Y010237D01*
X021212Y010396D02*
X021092Y010396D01*
X021092Y010554D02*
X021212Y010554D01*
X021222Y010713D02*
X021083Y010713D01*
X021005Y010871D02*
X021300Y010871D01*
X021536Y011030D02*
X020768Y011030D01*
X020536Y011030D02*
X020359Y011030D01*
X020390Y011188D02*
X029014Y011188D01*
X029172Y011030D02*
X024768Y011030D01*
X024536Y011030D02*
X023768Y011030D01*
X023536Y011030D02*
X022768Y011030D01*
X022536Y011030D02*
X021768Y011030D01*
X022005Y010871D02*
X022300Y010871D01*
X022222Y010713D02*
X022083Y010713D01*
X022092Y010554D02*
X022212Y010554D01*
X022212Y010396D02*
X022092Y010396D01*
X022092Y010237D02*
X022212Y010237D01*
X022212Y010079D02*
X022092Y010079D01*
X022062Y009920D02*
X022243Y009920D01*
X023062Y009920D02*
X023243Y009920D01*
X023212Y010079D02*
X023092Y010079D01*
X023092Y010237D02*
X023212Y010237D01*
X023212Y010396D02*
X023092Y010396D01*
X023092Y010554D02*
X023212Y010554D01*
X023222Y010713D02*
X023083Y010713D01*
X023005Y010871D02*
X023300Y010871D01*
X024005Y010871D02*
X024300Y010871D01*
X024222Y010713D02*
X024083Y010713D01*
X024092Y010554D02*
X024212Y010554D01*
X024212Y010396D02*
X024092Y010396D01*
X024092Y010237D02*
X024212Y010237D01*
X024212Y010079D02*
X024092Y010079D01*
X024062Y009920D02*
X024243Y009920D01*
X025062Y009920D02*
X030282Y009920D01*
X030123Y010079D02*
X025092Y010079D01*
X025092Y010237D02*
X029965Y010237D01*
X029806Y010396D02*
X025092Y010396D01*
X025092Y010554D02*
X029648Y010554D01*
X029489Y010713D02*
X025083Y010713D01*
X025005Y010871D02*
X029331Y010871D01*
X028085Y011347D02*
X020294Y011347D01*
X020135Y011505D02*
X027927Y011505D01*
X027768Y011664D02*
X019977Y011664D01*
X018075Y013566D02*
X023522Y013566D01*
X023616Y013724D02*
X017916Y013724D01*
X017758Y013883D02*
X025230Y013883D01*
X025013Y014041D02*
X017599Y014041D01*
X017449Y014200D02*
X024856Y014200D01*
X024791Y014358D02*
X017514Y014358D01*
X017580Y014517D02*
X024725Y014517D01*
X024709Y014675D02*
X017595Y014675D01*
X017595Y014834D02*
X024709Y014834D01*
X024731Y014992D02*
X017574Y014992D01*
X017508Y015151D02*
X024797Y015151D01*
X024870Y015309D02*
X017435Y015309D01*
X017277Y015468D02*
X025028Y015468D01*
X026852Y014358D02*
X027546Y014358D01*
X027612Y014200D02*
X027011Y014200D01*
X027100Y014041D02*
X027769Y014041D01*
X027986Y013883D02*
X027100Y013883D01*
X027100Y013724D02*
X027592Y013724D01*
X027547Y013566D02*
X027100Y013566D01*
X027253Y013407D02*
X027547Y013407D01*
X027547Y013249D02*
X027412Y013249D01*
X027570Y013090D02*
X027633Y013090D01*
X027949Y012932D02*
X031427Y012932D01*
X031376Y012773D02*
X028107Y012773D01*
X028200Y012615D02*
X031376Y012615D01*
X031428Y012456D02*
X028422Y012456D01*
X028498Y012298D02*
X031537Y012298D01*
X031798Y012139D02*
X028498Y012139D01*
X028412Y013090D02*
X031535Y013090D01*
X031704Y013249D02*
X031793Y013249D01*
X031514Y013724D02*
X028453Y013724D01*
X025694Y012456D02*
X025454Y012456D01*
X033068Y011188D02*
X033583Y011188D01*
X033435Y011030D02*
X033216Y011030D01*
X033282Y010871D02*
X033369Y010871D01*
X033356Y010713D02*
X033296Y010713D01*
X033272Y010554D02*
X033379Y010554D01*
X033449Y010396D02*
X033203Y010396D01*
X033038Y010237D02*
X033614Y010237D01*
X031739Y009286D02*
X031594Y009286D01*
X031259Y007860D02*
X025009Y007860D01*
X025082Y007701D02*
X031101Y007701D01*
X030942Y007543D02*
X025092Y007543D01*
X025092Y007384D02*
X030784Y007384D01*
X030625Y007226D02*
X025092Y007226D01*
X025092Y007067D02*
X030467Y007067D01*
X030464Y007065D02*
X030464Y007065D01*
X030308Y006909D02*
X025058Y006909D01*
X024943Y006750D02*
X030150Y006750D01*
X029833Y006433D02*
X021577Y006433D01*
X021736Y006275D02*
X029674Y006275D01*
X029516Y006116D02*
X025612Y006116D01*
X025695Y005958D02*
X029357Y005958D01*
X029199Y005799D02*
X028498Y005799D01*
X028498Y005641D02*
X029040Y005641D01*
X028882Y005482D02*
X028498Y005482D01*
X028498Y005324D02*
X028723Y005324D01*
X028565Y005165D02*
X027373Y005165D01*
X027712Y005007D02*
X028076Y005007D01*
X027918Y004848D02*
X027789Y004848D01*
X027788Y004690D02*
X027830Y004690D01*
X026853Y005324D02*
X026561Y005324D01*
X026556Y005307D02*
X026569Y005353D01*
X026569Y005545D01*
X026102Y005545D01*
X026102Y005197D01*
X026412Y005197D01*
X026458Y005209D01*
X026499Y005233D01*
X026533Y005266D01*
X026556Y005307D01*
X026569Y005482D02*
X027012Y005482D01*
X027170Y005641D02*
X026569Y005641D01*
X026569Y005563D02*
X026569Y005755D01*
X026556Y005801D01*
X026533Y005842D01*
X026499Y005875D01*
X026458Y005899D01*
X026412Y005911D01*
X026102Y005911D01*
X026102Y005563D01*
X026085Y005563D01*
X026085Y005545D01*
X026102Y005545D01*
X026102Y005563D01*
X026569Y005563D01*
X026557Y005799D02*
X027329Y005799D01*
X026102Y005799D02*
X026085Y005799D01*
X026085Y005641D02*
X026102Y005641D01*
X026085Y005545D02*
X025618Y005545D01*
X025618Y005353D01*
X025630Y005307D01*
X025654Y005266D01*
X025688Y005233D01*
X025729Y005209D01*
X025774Y005197D01*
X026085Y005197D01*
X026085Y005545D01*
X026085Y005482D02*
X026102Y005482D01*
X026085Y005324D02*
X026102Y005324D01*
X025626Y005324D02*
X016687Y005324D01*
X016687Y005482D02*
X025618Y005482D01*
X026695Y005165D02*
X015801Y005165D01*
X015536Y005007D02*
X012554Y005007D01*
X012395Y005165D02*
X015259Y005165D01*
X015163Y005324D02*
X014750Y005324D01*
X014745Y005307D02*
X014758Y005353D01*
X014758Y005545D01*
X014291Y005545D01*
X014291Y005197D01*
X014601Y005197D01*
X014647Y005209D01*
X014688Y005233D01*
X014722Y005266D01*
X014745Y005307D01*
X014758Y005482D02*
X015150Y005482D01*
X015205Y005641D02*
X014758Y005641D01*
X014758Y005563D02*
X014758Y005755D01*
X014745Y005801D01*
X014722Y005842D01*
X014688Y005875D01*
X014647Y005899D01*
X014601Y005911D01*
X014291Y005911D01*
X014291Y005563D01*
X014274Y005563D01*
X014274Y005911D01*
X013963Y005911D01*
X013918Y005899D01*
X013877Y005875D01*
X013843Y005842D01*
X013819Y005801D01*
X013807Y005755D01*
X013807Y005563D01*
X014274Y005563D01*
X014274Y005545D01*
X014291Y005545D01*
X014291Y005563D01*
X014758Y005563D01*
X014746Y005799D02*
X015425Y005799D01*
X014291Y005799D02*
X014274Y005799D01*
X014274Y005641D02*
X014291Y005641D01*
X014274Y005545D02*
X013807Y005545D01*
X013807Y005353D01*
X013819Y005307D01*
X013843Y005266D01*
X013877Y005233D01*
X013918Y005209D01*
X013963Y005197D01*
X014274Y005197D01*
X014274Y005545D01*
X014274Y005482D02*
X014291Y005482D01*
X014274Y005324D02*
X014291Y005324D01*
X013815Y005324D02*
X012237Y005324D01*
X012078Y005482D02*
X013807Y005482D01*
X013807Y005641D02*
X011920Y005641D01*
X011761Y005799D02*
X013819Y005799D01*
X011603Y005958D02*
X021374Y005958D01*
X021216Y006116D02*
X011444Y006116D01*
X011286Y006275D02*
X021057Y006275D01*
X020899Y006433D02*
X011127Y006433D01*
X012712Y004848D02*
X015378Y004848D01*
X015219Y004690D02*
X012871Y004690D01*
X013029Y004531D02*
X013832Y004531D01*
X013807Y004373D02*
X013188Y004373D01*
X013346Y004214D02*
X013807Y004214D01*
X013807Y004056D02*
X013505Y004056D01*
X014733Y004531D02*
X015061Y004531D01*
X016687Y005641D02*
X021729Y005641D01*
X021533Y005799D02*
X016687Y005799D01*
X021894Y006116D02*
X025028Y006116D01*
X024652Y006750D02*
X024652Y006750D01*
X024652Y006909D02*
X024652Y006909D01*
X024652Y007067D02*
X024652Y007067D01*
X024652Y007226D02*
X024652Y007226D01*
X024652Y007384D02*
X024652Y007384D01*
X024652Y007543D02*
X024652Y007543D01*
X024652Y007701D02*
X024652Y007701D01*
X024652Y007860D02*
X024652Y007860D01*
X024296Y007860D02*
X024009Y007860D01*
X024082Y007701D02*
X024223Y007701D01*
X024212Y007543D02*
X024092Y007543D01*
X024092Y007384D02*
X024212Y007384D01*
X024212Y007226D02*
X024092Y007226D01*
X024092Y007067D02*
X024212Y007067D01*
X024247Y006909D02*
X024058Y006909D01*
X023943Y006750D02*
X024361Y006750D01*
X023652Y006750D02*
X023652Y006750D01*
X023652Y006909D02*
X023652Y006909D01*
X023652Y007067D02*
X023652Y007067D01*
X023652Y007226D02*
X023652Y007226D01*
X023652Y007384D02*
X023652Y007384D01*
X023652Y007543D02*
X023652Y007543D01*
X023652Y007701D02*
X023652Y007701D01*
X023652Y007860D02*
X023652Y007860D01*
X023296Y007860D02*
X023009Y007860D01*
X023082Y007701D02*
X023223Y007701D01*
X023212Y007543D02*
X023092Y007543D01*
X023092Y007384D02*
X023212Y007384D01*
X023212Y007226D02*
X023092Y007226D01*
X023092Y007067D02*
X023212Y007067D01*
X023247Y006909D02*
X023058Y006909D01*
X022943Y006750D02*
X023361Y006750D01*
X022652Y006750D02*
X022652Y006750D01*
X022652Y006909D02*
X022652Y006909D01*
X022652Y007067D02*
X022652Y007067D01*
X022652Y007226D02*
X022652Y007226D01*
X022652Y007384D02*
X022652Y007384D01*
X022652Y007543D02*
X022652Y007543D01*
X022652Y007701D02*
X022652Y007701D01*
X022652Y007860D02*
X022652Y007860D01*
X004180Y007860D02*
X001160Y007860D01*
X001160Y008018D02*
X004180Y008018D01*
X004180Y008177D02*
X001160Y008177D01*
X001160Y008335D02*
X001530Y008335D01*
X001223Y008494D02*
X001160Y008494D01*
X002193Y008335D02*
X004180Y008335D01*
X004180Y007701D02*
X001160Y007701D01*
X001160Y007543D02*
X004180Y007543D01*
X004180Y007384D02*
X001160Y007384D01*
X001160Y007226D02*
X004180Y007226D01*
X004180Y007067D02*
X001160Y007067D01*
X001160Y006909D02*
X004180Y006909D01*
X004180Y006750D02*
X001160Y006750D01*
X001160Y006592D02*
X004180Y006592D01*
X004180Y006433D02*
X001160Y006433D01*
X001160Y006275D02*
X004180Y006275D01*
X004180Y006116D02*
X001160Y006116D01*
X001160Y005958D02*
X004180Y005958D01*
X003925Y005799D02*
X002935Y005799D01*
X002934Y005801D02*
X002911Y005842D01*
X002877Y005875D01*
X002836Y005899D01*
X002790Y005911D01*
X002480Y005911D01*
X002480Y005563D01*
X002463Y005563D01*
X002463Y005911D01*
X002152Y005911D01*
X002107Y005899D01*
X002066Y005875D01*
X002032Y005842D01*
X002008Y005801D01*
X001996Y005755D01*
X001996Y005563D01*
X002463Y005563D01*
X002463Y005545D01*
X002480Y005545D01*
X002480Y005197D01*
X002790Y005197D01*
X002836Y005209D01*
X002877Y005233D01*
X002911Y005266D01*
X002934Y005307D01*
X002947Y005353D01*
X002947Y005545D01*
X002480Y005545D01*
X002480Y005563D01*
X002947Y005563D01*
X002947Y005755D01*
X002934Y005801D01*
X002947Y005641D02*
X003925Y005641D01*
X003925Y005482D02*
X002947Y005482D01*
X002939Y005324D02*
X003925Y005324D01*
X002480Y005324D02*
X002463Y005324D01*
X002463Y005197D02*
X002152Y005197D01*
X002107Y005209D01*
X002066Y005233D01*
X002032Y005266D01*
X002008Y005307D01*
X001996Y005353D01*
X001996Y005545D01*
X002463Y005545D01*
X002463Y005197D01*
X002463Y005482D02*
X002480Y005482D01*
X002463Y005641D02*
X002480Y005641D01*
X002463Y005799D02*
X002480Y005799D01*
X002008Y005799D02*
X001160Y005799D01*
X001160Y005641D02*
X001996Y005641D01*
X001996Y005482D02*
X001160Y005482D01*
X001160Y005324D02*
X002004Y005324D01*
X002021Y004531D02*
X001160Y004531D01*
X001160Y004373D02*
X001996Y004373D01*
X001996Y004214D02*
X001160Y004214D01*
X001160Y004056D02*
X001996Y004056D01*
X001842Y003897D02*
X001160Y003897D01*
X001160Y003739D02*
X001488Y003739D01*
X001330Y003580D02*
X001160Y003580D01*
X001160Y003422D02*
X001209Y003422D01*
X002922Y004531D02*
X002983Y004531D01*
X001168Y010079D02*
X001160Y010079D01*
X001160Y010237D02*
X001398Y010237D01*
X002947Y011981D02*
X003925Y011981D01*
X003925Y012139D02*
X002947Y012139D01*
X002947Y012298D02*
X003925Y012298D01*
X004001Y012456D02*
X002871Y012456D01*
X003299Y014041D02*
X004147Y014041D01*
X003990Y014200D02*
X003141Y014200D01*
D22*
X013278Y013566D03*
X021074Y012542D03*
X026546Y010967D03*
X029578Y012306D03*
X030759Y014589D03*
X032373Y014668D03*
X039105Y008881D03*
X035601Y007424D03*
X037924Y006440D03*
X029381Y006637D03*
X026900Y008054D03*
X024263Y005337D03*
X018121Y005613D03*
X013711Y007739D03*
X006192Y008841D03*
X003239Y007660D03*
M02*
