G75*
%MOIN*%
%OFA0B0*%
%FSLAX24Y24*%
%IPPOS*%
%LPD*%
%AMOC8*
5,1,8,0,0,1.08239X$1,22.5*
%
%ADD10C,0.0000*%
%ADD11C,0.0760*%
%ADD12R,0.0760X0.0760*%
%ADD13C,0.0520*%
%ADD14OC8,0.0630*%
%ADD15C,0.0740*%
%ADD16C,0.1581*%
%ADD17C,0.0780*%
%ADD18C,0.0120*%
%ADD19C,0.0400*%
%ADD20C,0.0160*%
%ADD21R,0.0396X0.0396*%
D10*
X000680Y001499D02*
X000680Y015995D01*
X042495Y015995D01*
X042495Y001499D01*
X000680Y001499D01*
X001310Y009314D02*
X001312Y009361D01*
X001318Y009407D01*
X001328Y009453D01*
X001341Y009498D01*
X001359Y009541D01*
X001380Y009583D01*
X001404Y009623D01*
X001432Y009660D01*
X001463Y009695D01*
X001497Y009728D01*
X001533Y009757D01*
X001572Y009783D01*
X001613Y009806D01*
X001656Y009825D01*
X001700Y009841D01*
X001745Y009853D01*
X001791Y009861D01*
X001838Y009865D01*
X001884Y009865D01*
X001931Y009861D01*
X001977Y009853D01*
X002022Y009841D01*
X002066Y009825D01*
X002109Y009806D01*
X002150Y009783D01*
X002189Y009757D01*
X002225Y009728D01*
X002259Y009695D01*
X002290Y009660D01*
X002318Y009623D01*
X002342Y009583D01*
X002363Y009541D01*
X002381Y009498D01*
X002394Y009453D01*
X002404Y009407D01*
X002410Y009361D01*
X002412Y009314D01*
X002410Y009267D01*
X002404Y009221D01*
X002394Y009175D01*
X002381Y009130D01*
X002363Y009087D01*
X002342Y009045D01*
X002318Y009005D01*
X002290Y008968D01*
X002259Y008933D01*
X002225Y008900D01*
X002189Y008871D01*
X002150Y008845D01*
X002109Y008822D01*
X002066Y008803D01*
X002022Y008787D01*
X001977Y008775D01*
X001931Y008767D01*
X001884Y008763D01*
X001838Y008763D01*
X001791Y008767D01*
X001745Y008775D01*
X001700Y008787D01*
X001656Y008803D01*
X001613Y008822D01*
X001572Y008845D01*
X001533Y008871D01*
X001497Y008900D01*
X001463Y008933D01*
X001432Y008968D01*
X001404Y009005D01*
X001380Y009045D01*
X001359Y009087D01*
X001341Y009130D01*
X001328Y009175D01*
X001318Y009221D01*
X001312Y009267D01*
X001310Y009314D01*
X040523Y008802D02*
X040525Y008849D01*
X040531Y008895D01*
X040541Y008941D01*
X040554Y008986D01*
X040572Y009029D01*
X040593Y009071D01*
X040617Y009111D01*
X040645Y009148D01*
X040676Y009183D01*
X040710Y009216D01*
X040746Y009245D01*
X040785Y009271D01*
X040826Y009294D01*
X040869Y009313D01*
X040913Y009329D01*
X040958Y009341D01*
X041004Y009349D01*
X041051Y009353D01*
X041097Y009353D01*
X041144Y009349D01*
X041190Y009341D01*
X041235Y009329D01*
X041279Y009313D01*
X041322Y009294D01*
X041363Y009271D01*
X041402Y009245D01*
X041438Y009216D01*
X041472Y009183D01*
X041503Y009148D01*
X041531Y009111D01*
X041555Y009071D01*
X041576Y009029D01*
X041594Y008986D01*
X041607Y008941D01*
X041617Y008895D01*
X041623Y008849D01*
X041625Y008802D01*
X041623Y008755D01*
X041617Y008709D01*
X041607Y008663D01*
X041594Y008618D01*
X041576Y008575D01*
X041555Y008533D01*
X041531Y008493D01*
X041503Y008456D01*
X041472Y008421D01*
X041438Y008388D01*
X041402Y008359D01*
X041363Y008333D01*
X041322Y008310D01*
X041279Y008291D01*
X041235Y008275D01*
X041190Y008263D01*
X041144Y008255D01*
X041097Y008251D01*
X041051Y008251D01*
X041004Y008255D01*
X040958Y008263D01*
X040913Y008275D01*
X040869Y008291D01*
X040826Y008310D01*
X040785Y008333D01*
X040746Y008359D01*
X040710Y008388D01*
X040676Y008421D01*
X040645Y008456D01*
X040617Y008493D01*
X040593Y008533D01*
X040572Y008575D01*
X040554Y008618D01*
X040541Y008663D01*
X040531Y008709D01*
X040525Y008755D01*
X040523Y008802D01*
D11*
X008357Y008841D03*
D12*
X010326Y008841D03*
D13*
X017652Y007601D02*
X017652Y007081D01*
X018652Y007081D02*
X018652Y007601D01*
X019652Y007601D02*
X019652Y007081D01*
X020652Y007081D02*
X020652Y007601D01*
X021652Y007601D02*
X021652Y007081D01*
X022652Y007081D02*
X022652Y007601D01*
X023652Y007601D02*
X023652Y007081D01*
X024652Y007081D02*
X024652Y007601D01*
X024652Y010081D02*
X024652Y010601D01*
X023652Y010601D02*
X023652Y010081D01*
X022652Y010081D02*
X022652Y010601D01*
X021652Y010601D02*
X021652Y010081D01*
X020652Y010081D02*
X020652Y010601D01*
X019652Y010601D02*
X019652Y010081D01*
X018652Y010081D02*
X018652Y010601D01*
X017652Y010601D02*
X017652Y010081D01*
D14*
X041192Y013141D03*
D15*
X040349Y007086D03*
X037349Y007086D03*
D16*
X037491Y002936D03*
X040247Y002936D03*
X028436Y002936D03*
X025680Y002936D03*
X016625Y002936D03*
X013869Y002936D03*
X004814Y002936D03*
X002058Y002936D03*
X002058Y014747D03*
X004814Y014747D03*
X013869Y014747D03*
X016625Y014747D03*
X025680Y014747D03*
X028436Y014747D03*
X037491Y014747D03*
X040247Y014747D03*
D17*
X034706Y012695D02*
X033926Y012695D01*
X032726Y012695D02*
X031946Y012695D01*
X031946Y010725D02*
X032726Y010725D01*
X033926Y010725D02*
X034706Y010725D01*
X034706Y008755D02*
X033926Y008755D01*
X032726Y008755D02*
X031946Y008755D01*
X031946Y006785D02*
X032726Y006785D01*
X033926Y006785D02*
X034706Y006785D01*
X034706Y004815D02*
X033926Y004815D01*
X032726Y004815D02*
X031946Y004815D01*
D18*
X031590Y005651D02*
X030710Y004771D01*
X027410Y004771D01*
X027410Y004221D02*
X031370Y004221D01*
X031590Y004001D01*
X036870Y004001D01*
X037090Y004221D01*
X038520Y004221D01*
X039730Y003011D01*
X040170Y003011D01*
X040247Y002936D01*
X039180Y005651D02*
X031590Y005651D01*
X032336Y006785D02*
X032360Y006861D01*
X032360Y007191D01*
X032800Y007631D01*
X034560Y007631D01*
X034890Y007961D01*
X038850Y007961D01*
X039730Y007081D01*
X040280Y007081D01*
X040349Y007086D01*
X034780Y009611D02*
X039180Y014011D01*
X039180Y014121D01*
X039730Y014671D01*
X040170Y014671D01*
X040247Y014747D01*
X034340Y013131D02*
X034340Y012801D01*
X034316Y012695D01*
X034340Y013131D02*
X033900Y013571D01*
X031590Y013571D01*
X031260Y013241D01*
X026200Y013241D01*
X023670Y010711D01*
X023670Y010381D01*
X023652Y010341D01*
X022680Y010271D02*
X022652Y010341D01*
X022680Y010271D02*
X022680Y010051D01*
X023340Y009391D01*
X030380Y009391D01*
X031480Y010491D01*
X031590Y010491D01*
X031810Y010711D01*
X032250Y010711D01*
X032336Y010725D01*
X033570Y009831D02*
X034230Y010491D01*
X034230Y010711D01*
X034316Y010725D01*
X033570Y009831D02*
X031480Y009831D01*
X030820Y009171D01*
X021250Y009171D01*
X019710Y007631D01*
X019710Y007411D01*
X019652Y007341D01*
X018720Y007301D02*
X018720Y006971D01*
X019380Y006311D01*
X028290Y006311D01*
X031590Y009611D01*
X034780Y009611D01*
X031810Y012691D02*
X029500Y010381D01*
X024660Y010381D01*
X024652Y010341D01*
X021690Y010381D02*
X021652Y010341D01*
X021690Y010381D02*
X021690Y010711D01*
X024440Y013461D01*
X026530Y013461D01*
X027740Y014671D01*
X028400Y014671D01*
X028436Y014747D01*
X023890Y013461D02*
X017290Y013461D01*
X019652Y010341D02*
X019600Y010271D01*
X019600Y010051D01*
X018060Y008511D01*
X017180Y008511D01*
X015970Y007301D01*
X015970Y005321D01*
X014650Y004001D01*
X014100Y004001D01*
X013990Y003891D01*
X013550Y003891D01*
X013440Y004001D01*
X006510Y004001D01*
X005520Y003011D01*
X004860Y003011D01*
X004814Y002936D01*
X003210Y004221D02*
X014320Y004221D01*
X015530Y005431D01*
X016960Y004001D02*
X016630Y003671D01*
X016630Y003011D01*
X016625Y002936D01*
X016960Y004001D02*
X016960Y007961D01*
X017290Y008291D01*
X018830Y008291D01*
X020590Y010051D01*
X020590Y010271D01*
X020652Y010341D01*
X018720Y007301D02*
X018652Y007341D01*
X017730Y007301D02*
X017730Y006971D01*
X020480Y004221D01*
X026530Y004221D01*
X027740Y003011D01*
X028400Y003011D01*
X028436Y002936D01*
X027410Y004221D02*
X025760Y005871D01*
X025320Y005871D01*
X017730Y007301D02*
X017652Y007341D01*
X011570Y008951D02*
X006180Y014341D01*
X005850Y014341D01*
X005520Y014671D01*
X004860Y014671D01*
X004814Y014747D01*
X031810Y012691D02*
X032250Y012691D01*
X032336Y012695D01*
D19*
X023890Y013461D03*
X017290Y013461D03*
X011570Y008951D03*
X015530Y005431D03*
X025320Y005871D03*
X027410Y004771D03*
X039180Y005651D03*
X003210Y004221D03*
D20*
X002830Y004214D02*
X001160Y004214D01*
X001160Y004056D02*
X002867Y004056D01*
X002888Y004006D02*
X002995Y003899D01*
X003134Y003841D01*
X003286Y003841D01*
X003425Y003899D01*
X003507Y003981D01*
X006151Y003981D01*
X005642Y003473D01*
X005637Y003486D01*
X005364Y003759D01*
X005007Y003906D01*
X004621Y003906D01*
X004264Y003759D01*
X003991Y003486D01*
X003843Y003129D01*
X003843Y002743D01*
X003991Y002386D01*
X004264Y002113D01*
X004588Y001979D01*
X002284Y001979D01*
X002608Y002113D01*
X002881Y002386D01*
X003029Y002743D01*
X003029Y003129D01*
X002881Y003486D01*
X002608Y003759D01*
X002251Y003906D01*
X001865Y003906D01*
X001508Y003759D01*
X001235Y003486D01*
X001160Y003304D01*
X001160Y008557D01*
X001228Y008489D01*
X001463Y008353D01*
X001725Y008283D01*
X001997Y008283D01*
X002259Y008353D01*
X002494Y008489D01*
X002686Y008681D01*
X002822Y008916D01*
X002892Y009178D01*
X002892Y009450D01*
X002822Y009712D01*
X002686Y009947D01*
X002494Y010139D01*
X002259Y010275D01*
X001997Y010345D01*
X001725Y010345D01*
X001463Y010275D01*
X001228Y010139D01*
X001160Y010071D01*
X001160Y014379D01*
X001235Y014197D01*
X001508Y013924D01*
X001865Y013776D01*
X002251Y013776D01*
X002608Y013924D01*
X002881Y014197D01*
X003029Y014554D01*
X003029Y014940D01*
X002881Y015297D01*
X002662Y015515D01*
X004209Y015515D01*
X003991Y015297D01*
X003843Y014940D01*
X003843Y014554D01*
X003991Y014197D01*
X004264Y013924D01*
X004621Y013776D01*
X005007Y013776D01*
X005364Y013924D01*
X005637Y014197D01*
X005642Y014210D01*
X005714Y014138D01*
X005802Y014101D01*
X006081Y014101D01*
X011190Y008992D01*
X011190Y008876D01*
X011248Y008736D01*
X011355Y008629D01*
X011494Y008571D01*
X011646Y008571D01*
X011785Y008629D01*
X011892Y008736D01*
X011950Y008876D01*
X011950Y009027D01*
X011892Y009166D01*
X011785Y009273D01*
X011646Y009331D01*
X011529Y009331D01*
X006383Y014477D01*
X006316Y014545D01*
X006228Y014581D01*
X005949Y014581D01*
X005784Y014746D01*
X005784Y014940D01*
X005637Y015297D01*
X005418Y015515D01*
X013264Y015515D01*
X013046Y015297D01*
X012898Y014940D01*
X012898Y014554D01*
X013046Y014197D01*
X013319Y013924D01*
X013676Y013776D01*
X014062Y013776D01*
X014419Y013924D01*
X014692Y014197D01*
X014840Y014554D01*
X014840Y014940D01*
X014692Y015297D01*
X014474Y015515D01*
X016020Y015515D01*
X015802Y015297D01*
X015654Y014940D01*
X015654Y014554D01*
X015802Y014197D01*
X016075Y013924D01*
X016432Y013776D01*
X016818Y013776D01*
X017175Y013924D01*
X017448Y014197D01*
X017595Y014554D01*
X017595Y014940D01*
X017448Y015297D01*
X017229Y015515D01*
X025075Y015515D01*
X024857Y015297D01*
X024709Y014940D01*
X024709Y014554D01*
X024857Y014197D01*
X025130Y013924D01*
X025487Y013776D01*
X025873Y013776D01*
X026230Y013924D01*
X026503Y014197D01*
X026651Y014554D01*
X026651Y014940D01*
X026503Y015297D01*
X026285Y015515D01*
X027831Y015515D01*
X027613Y015297D01*
X027465Y014940D01*
X027465Y014736D01*
X026431Y013701D01*
X024392Y013701D01*
X024304Y013665D01*
X024243Y013603D01*
X024212Y013676D01*
X024105Y013783D01*
X023966Y013841D01*
X023814Y013841D01*
X023675Y013783D01*
X023593Y013701D01*
X017587Y013701D01*
X017505Y013783D01*
X017366Y013841D01*
X017214Y013841D01*
X017075Y013783D01*
X016968Y013676D01*
X016910Y013537D01*
X016910Y013386D01*
X016968Y013246D01*
X017075Y013139D01*
X017214Y013081D01*
X017366Y013081D01*
X017505Y013139D01*
X017587Y013221D01*
X023593Y013221D01*
X023675Y013139D01*
X023748Y013109D01*
X021681Y011041D01*
X021565Y011041D01*
X021403Y010974D01*
X021279Y010851D01*
X021212Y010689D01*
X021212Y009994D01*
X021279Y009832D01*
X021403Y009708D01*
X021565Y009641D01*
X021740Y009641D01*
X021902Y009708D01*
X022025Y009832D01*
X022092Y009994D01*
X022092Y010689D01*
X022067Y010749D01*
X024539Y013221D01*
X025841Y013221D01*
X023661Y011041D01*
X023565Y011041D01*
X023403Y010974D01*
X023279Y010851D01*
X023212Y010689D01*
X023212Y009994D01*
X023279Y009832D01*
X023403Y009708D01*
X023565Y009641D01*
X023740Y009641D01*
X023902Y009708D01*
X024025Y009832D01*
X024092Y009994D01*
X024092Y010689D01*
X024062Y010763D01*
X026299Y013001D01*
X031308Y013001D01*
X031396Y013038D01*
X031689Y013331D01*
X033801Y013331D01*
X033867Y013265D01*
X033812Y013265D01*
X033603Y013178D01*
X033442Y013018D01*
X033356Y012808D01*
X033356Y012581D01*
X033442Y012372D01*
X033603Y012212D01*
X033812Y012125D01*
X034819Y012125D01*
X035029Y012212D01*
X035189Y012372D01*
X035276Y012581D01*
X035276Y012808D01*
X035189Y013018D01*
X035029Y013178D01*
X034819Y013265D01*
X034544Y013265D01*
X034543Y013267D01*
X034476Y013335D01*
X034036Y013775D01*
X033948Y013811D01*
X031542Y013811D01*
X031454Y013775D01*
X031387Y013707D01*
X031161Y013481D01*
X026889Y013481D01*
X027611Y014203D01*
X027613Y014197D01*
X027886Y013924D01*
X028243Y013776D01*
X028629Y013776D01*
X028986Y013924D01*
X029259Y014197D01*
X029406Y014554D01*
X029406Y014940D01*
X029259Y015297D01*
X029040Y015515D01*
X036886Y015515D01*
X036668Y015297D01*
X036520Y014940D01*
X036520Y014554D01*
X036668Y014197D01*
X036941Y013924D01*
X037298Y013776D01*
X037684Y013776D01*
X038041Y013924D01*
X038314Y014197D01*
X038462Y014554D01*
X038462Y014940D01*
X038314Y015297D01*
X038096Y015515D01*
X039642Y015515D01*
X039424Y015297D01*
X039276Y014940D01*
X039276Y014557D01*
X038977Y014257D01*
X038940Y014169D01*
X038940Y014111D01*
X034681Y009851D01*
X033929Y009851D01*
X034233Y010155D01*
X034819Y010155D01*
X035029Y010242D01*
X035189Y010402D01*
X035276Y010611D01*
X035276Y010838D01*
X035189Y011048D01*
X035029Y011208D01*
X034819Y011295D01*
X033812Y011295D01*
X033603Y011208D01*
X033442Y011048D01*
X033356Y010838D01*
X033356Y010611D01*
X033442Y010402D01*
X033603Y010242D01*
X033630Y010230D01*
X033471Y010071D01*
X031432Y010071D01*
X031376Y010048D01*
X031579Y010251D01*
X031613Y010251D01*
X031623Y010242D01*
X031832Y010155D01*
X032839Y010155D01*
X033049Y010242D01*
X033209Y010402D01*
X033296Y010611D01*
X033296Y010838D01*
X033209Y011048D01*
X033049Y011208D01*
X032839Y011295D01*
X031832Y011295D01*
X031623Y011208D01*
X031462Y011048D01*
X031376Y010838D01*
X031376Y010708D01*
X031344Y010695D01*
X031277Y010627D01*
X030281Y009631D01*
X023439Y009631D01*
X023088Y009983D01*
X023092Y009994D01*
X023092Y010689D01*
X023025Y010851D01*
X022902Y010974D01*
X022740Y011041D01*
X022565Y011041D01*
X022403Y010974D01*
X022279Y010851D01*
X022212Y010689D01*
X022212Y009994D01*
X022279Y009832D01*
X022403Y009708D01*
X022565Y009641D01*
X022740Y009641D01*
X022747Y009644D01*
X022981Y009411D01*
X021202Y009411D01*
X021114Y009375D01*
X021047Y009307D01*
X019769Y008029D01*
X019740Y008041D01*
X019565Y008041D01*
X019403Y007974D01*
X019279Y007851D01*
X019212Y007689D01*
X019212Y006994D01*
X019279Y006832D01*
X019403Y006708D01*
X019565Y006641D01*
X019740Y006641D01*
X019902Y006708D01*
X020025Y006832D01*
X020092Y006994D01*
X020092Y007674D01*
X021349Y008931D01*
X030571Y008931D01*
X028191Y006551D01*
X019479Y006551D01*
X019076Y006954D01*
X019092Y006994D01*
X019092Y007689D01*
X019025Y007851D01*
X018902Y007974D01*
X018740Y008041D01*
X018565Y008041D01*
X018403Y007974D01*
X018279Y007851D01*
X018212Y007689D01*
X018212Y006994D01*
X018279Y006832D01*
X018403Y006708D01*
X018565Y006641D01*
X018710Y006641D01*
X019177Y006175D01*
X019244Y006108D01*
X019332Y006071D01*
X024992Y006071D01*
X024940Y005947D01*
X024940Y005796D01*
X024998Y005656D01*
X025105Y005549D01*
X025244Y005491D01*
X025396Y005491D01*
X025535Y005549D01*
X025617Y005631D01*
X025661Y005631D01*
X027207Y004085D01*
X027274Y004018D01*
X027362Y003981D01*
X031271Y003981D01*
X031387Y003865D01*
X031454Y003798D01*
X031542Y003761D01*
X036918Y003761D01*
X037006Y003798D01*
X037189Y003981D01*
X038421Y003981D01*
X039276Y003125D01*
X039276Y002743D01*
X039424Y002386D01*
X039697Y002113D01*
X040021Y001979D01*
X037717Y001979D01*
X038041Y002113D01*
X038314Y002386D01*
X038462Y002743D01*
X038462Y003129D01*
X038314Y003486D01*
X038041Y003759D01*
X037684Y003906D01*
X037298Y003906D01*
X036941Y003759D01*
X036668Y003486D01*
X036520Y003129D01*
X036520Y002743D01*
X036668Y002386D01*
X036941Y002113D01*
X037265Y001979D01*
X028662Y001979D01*
X028986Y002113D01*
X029259Y002386D01*
X029406Y002743D01*
X029406Y003129D01*
X029259Y003486D01*
X028986Y003759D01*
X028629Y003906D01*
X028243Y003906D01*
X027886Y003759D01*
X027613Y003486D01*
X027611Y003480D01*
X026666Y004425D01*
X026578Y004461D01*
X020579Y004461D01*
X018079Y006961D01*
X018092Y006994D01*
X018092Y007689D01*
X018025Y007851D01*
X017902Y007974D01*
X017740Y008041D01*
X017565Y008041D01*
X017403Y007974D01*
X017279Y007851D01*
X017212Y007689D01*
X017212Y006994D01*
X017279Y006832D01*
X017403Y006708D01*
X017565Y006641D01*
X017720Y006641D01*
X020277Y004085D01*
X020344Y004018D01*
X020432Y003981D01*
X026431Y003981D01*
X027465Y002946D01*
X026651Y002946D01*
X026651Y002788D02*
X027465Y002788D01*
X027465Y002743D02*
X027613Y002386D01*
X027886Y002113D01*
X028210Y001979D01*
X025906Y001979D01*
X026230Y002113D01*
X026503Y002386D01*
X026651Y002743D01*
X026651Y003129D01*
X026503Y003486D01*
X026230Y003759D01*
X025873Y003906D01*
X025487Y003906D01*
X025130Y003759D01*
X024857Y003486D01*
X024709Y003129D01*
X024709Y002743D01*
X024857Y002386D01*
X025130Y002113D01*
X025454Y001979D01*
X016851Y001979D01*
X017175Y002113D01*
X017448Y002386D01*
X017595Y002743D01*
X017595Y003129D01*
X017448Y003486D01*
X017175Y003759D01*
X017091Y003793D01*
X017163Y003865D01*
X017200Y003953D01*
X017200Y007862D01*
X017389Y008051D01*
X018878Y008051D01*
X018966Y008088D01*
X019033Y008155D01*
X020533Y009655D01*
X020565Y009641D01*
X020740Y009641D01*
X020902Y009708D01*
X021025Y009832D01*
X021092Y009994D01*
X021092Y010689D01*
X021025Y010851D01*
X020902Y010974D01*
X020740Y011041D01*
X020565Y011041D01*
X020403Y010974D01*
X020279Y010851D01*
X020212Y010689D01*
X020212Y010013D01*
X018731Y008531D01*
X018419Y008531D01*
X019540Y009652D01*
X019565Y009641D01*
X019740Y009641D01*
X019902Y009708D01*
X020025Y009832D01*
X020092Y009994D01*
X020092Y010689D01*
X020025Y010851D01*
X019902Y010974D01*
X019740Y011041D01*
X019565Y011041D01*
X019403Y010974D01*
X019279Y010851D01*
X019212Y010689D01*
X019212Y010003D01*
X017961Y008751D01*
X017132Y008751D01*
X017044Y008715D01*
X015834Y007505D01*
X015767Y007437D01*
X015730Y007349D01*
X015730Y005760D01*
X015606Y005811D01*
X015454Y005811D01*
X015315Y005753D01*
X015208Y005646D01*
X015150Y005507D01*
X015150Y005391D01*
X014221Y004461D01*
X003507Y004461D01*
X003425Y004543D01*
X003286Y004601D01*
X003134Y004601D01*
X002995Y004543D01*
X002888Y004436D01*
X002830Y004297D01*
X002830Y004146D01*
X002888Y004006D01*
X002999Y003897D02*
X002274Y003897D01*
X002628Y003739D02*
X004244Y003739D01*
X004085Y003580D02*
X002786Y003580D01*
X002907Y003422D02*
X003965Y003422D01*
X003899Y003263D02*
X002973Y003263D01*
X003029Y003105D02*
X003843Y003105D01*
X003843Y002946D02*
X003029Y002946D01*
X003029Y002788D02*
X003843Y002788D01*
X003890Y002629D02*
X002981Y002629D01*
X002916Y002471D02*
X003956Y002471D01*
X004065Y002312D02*
X002807Y002312D01*
X002648Y002154D02*
X004224Y002154D01*
X004549Y001995D02*
X002323Y001995D01*
X001209Y003422D02*
X001160Y003422D01*
X001160Y003580D02*
X001330Y003580D01*
X001488Y003739D02*
X001160Y003739D01*
X001160Y003897D02*
X001842Y003897D01*
X001160Y004373D02*
X002861Y004373D01*
X002983Y004531D02*
X001160Y004531D01*
X001160Y004690D02*
X014449Y004690D01*
X014608Y004848D02*
X001160Y004848D01*
X001160Y005007D02*
X014766Y005007D01*
X014925Y005165D02*
X001160Y005165D01*
X001160Y005324D02*
X015083Y005324D01*
X015150Y005482D02*
X001160Y005482D01*
X001160Y005641D02*
X015205Y005641D01*
X015425Y005799D02*
X001160Y005799D01*
X001160Y005958D02*
X015730Y005958D01*
X015730Y006116D02*
X001160Y006116D01*
X001160Y006275D02*
X015730Y006275D01*
X015730Y006433D02*
X001160Y006433D01*
X001160Y006592D02*
X015730Y006592D01*
X015730Y006750D02*
X001160Y006750D01*
X001160Y006909D02*
X015730Y006909D01*
X015730Y007067D02*
X001160Y007067D01*
X001160Y007226D02*
X015730Y007226D01*
X015745Y007384D02*
X001160Y007384D01*
X001160Y007543D02*
X015872Y007543D01*
X016031Y007701D02*
X001160Y007701D01*
X001160Y007860D02*
X016189Y007860D01*
X016348Y008018D02*
X001160Y008018D01*
X001160Y008177D02*
X016506Y008177D01*
X016665Y008335D02*
X010834Y008335D01*
X010886Y008387D02*
X010780Y008281D01*
X009871Y008281D01*
X009766Y008387D01*
X009766Y009296D01*
X009871Y009401D01*
X010780Y009401D01*
X010886Y009296D01*
X010886Y008387D01*
X010886Y008494D02*
X016823Y008494D01*
X016982Y008652D02*
X011808Y008652D01*
X011923Y008811D02*
X018020Y008811D01*
X018179Y008969D02*
X011950Y008969D01*
X011908Y009128D02*
X018337Y009128D01*
X018496Y009286D02*
X011754Y009286D01*
X011416Y009445D02*
X018654Y009445D01*
X018740Y009641D02*
X018902Y009708D01*
X019025Y009832D01*
X019092Y009994D01*
X019092Y010689D01*
X019025Y010851D01*
X018902Y010974D01*
X018740Y011041D01*
X018565Y011041D01*
X018403Y010974D01*
X018279Y010851D01*
X018212Y010689D01*
X018212Y009994D01*
X018279Y009832D01*
X018403Y009708D01*
X018565Y009641D01*
X018740Y009641D01*
X018813Y009603D02*
X011257Y009603D01*
X011099Y009762D02*
X017350Y009762D01*
X017403Y009708D02*
X017279Y009832D01*
X017212Y009994D01*
X017212Y010689D01*
X017279Y010851D01*
X017403Y010974D01*
X017565Y011041D01*
X017740Y011041D01*
X017902Y010974D01*
X018025Y010851D01*
X018092Y010689D01*
X018092Y009994D01*
X018025Y009832D01*
X017902Y009708D01*
X017740Y009641D01*
X017565Y009641D01*
X017403Y009708D01*
X017955Y009762D02*
X018350Y009762D01*
X018243Y009920D02*
X018062Y009920D01*
X018092Y010079D02*
X018212Y010079D01*
X018212Y010237D02*
X018092Y010237D01*
X018092Y010396D02*
X018212Y010396D01*
X018212Y010554D02*
X018092Y010554D01*
X018083Y010713D02*
X018222Y010713D01*
X018300Y010871D02*
X018005Y010871D01*
X017768Y011030D02*
X018536Y011030D01*
X018768Y011030D02*
X019536Y011030D01*
X019768Y011030D02*
X020536Y011030D01*
X020768Y011030D02*
X021536Y011030D01*
X021300Y010871D02*
X021005Y010871D01*
X021083Y010713D02*
X021222Y010713D01*
X021212Y010554D02*
X021092Y010554D01*
X021092Y010396D02*
X021212Y010396D01*
X021212Y010237D02*
X021092Y010237D01*
X021092Y010079D02*
X021212Y010079D01*
X021243Y009920D02*
X021062Y009920D01*
X020955Y009762D02*
X021350Y009762D01*
X021955Y009762D02*
X022350Y009762D01*
X022243Y009920D02*
X022062Y009920D01*
X022092Y010079D02*
X022212Y010079D01*
X022212Y010237D02*
X022092Y010237D01*
X022092Y010396D02*
X022212Y010396D01*
X022212Y010554D02*
X022092Y010554D01*
X022083Y010713D02*
X022222Y010713D01*
X022189Y010871D02*
X022300Y010871D01*
X022348Y011030D02*
X022536Y011030D01*
X022506Y011188D02*
X023808Y011188D01*
X023966Y011347D02*
X022665Y011347D01*
X022823Y011505D02*
X024125Y011505D01*
X024283Y011664D02*
X022982Y011664D01*
X023140Y011822D02*
X024442Y011822D01*
X024600Y011981D02*
X023299Y011981D01*
X023457Y012139D02*
X024759Y012139D01*
X024917Y012298D02*
X023616Y012298D01*
X023774Y012456D02*
X025076Y012456D01*
X025234Y012615D02*
X023933Y012615D01*
X024091Y012773D02*
X025393Y012773D01*
X025551Y012932D02*
X024250Y012932D01*
X024408Y013090D02*
X025710Y013090D01*
X026071Y012773D02*
X031376Y012773D01*
X031376Y012808D02*
X031376Y012596D01*
X029401Y010621D01*
X025092Y010621D01*
X025092Y010689D01*
X025025Y010851D01*
X024902Y010974D01*
X024740Y011041D01*
X024565Y011041D01*
X024403Y010974D01*
X024279Y010851D01*
X024212Y010689D01*
X024212Y009994D01*
X024279Y009832D01*
X024403Y009708D01*
X024565Y009641D01*
X024740Y009641D01*
X024902Y009708D01*
X025025Y009832D01*
X025092Y009994D01*
X025092Y010141D01*
X029548Y010141D01*
X029636Y010178D01*
X031656Y012198D01*
X031832Y012125D01*
X032839Y012125D01*
X033049Y012212D01*
X033209Y012372D01*
X033296Y012581D01*
X033296Y012808D01*
X033209Y013018D01*
X033049Y013178D01*
X032839Y013265D01*
X031832Y013265D01*
X031623Y013178D01*
X031462Y013018D01*
X031376Y012808D01*
X031427Y012932D02*
X026230Y012932D01*
X025913Y012615D02*
X031376Y012615D01*
X031236Y012456D02*
X025754Y012456D01*
X025596Y012298D02*
X031077Y012298D01*
X030919Y012139D02*
X025437Y012139D01*
X025279Y011981D02*
X030760Y011981D01*
X030602Y011822D02*
X025120Y011822D01*
X024962Y011664D02*
X030443Y011664D01*
X030285Y011505D02*
X024803Y011505D01*
X024645Y011347D02*
X030126Y011347D01*
X029968Y011188D02*
X024486Y011188D01*
X024536Y011030D02*
X024328Y011030D01*
X024300Y010871D02*
X024169Y010871D01*
X024222Y010713D02*
X024083Y010713D01*
X024092Y010554D02*
X024212Y010554D01*
X024212Y010396D02*
X024092Y010396D01*
X024092Y010237D02*
X024212Y010237D01*
X024212Y010079D02*
X024092Y010079D01*
X024062Y009920D02*
X024243Y009920D01*
X024350Y009762D02*
X023955Y009762D01*
X023350Y009762D02*
X023309Y009762D01*
X023243Y009920D02*
X023150Y009920D01*
X023092Y010079D02*
X023212Y010079D01*
X023212Y010237D02*
X023092Y010237D01*
X023092Y010396D02*
X023212Y010396D01*
X023212Y010554D02*
X023092Y010554D01*
X023083Y010713D02*
X023222Y010713D01*
X023300Y010871D02*
X023005Y010871D01*
X022768Y011030D02*
X023536Y011030D01*
X024768Y011030D02*
X029809Y011030D01*
X029651Y010871D02*
X025005Y010871D01*
X025083Y010713D02*
X029492Y010713D01*
X030012Y010554D02*
X031204Y010554D01*
X031045Y010396D02*
X029854Y010396D01*
X029695Y010237D02*
X030887Y010237D01*
X030728Y010079D02*
X025092Y010079D01*
X025062Y009920D02*
X030570Y009920D01*
X030411Y009762D02*
X024955Y009762D01*
X022947Y009445D02*
X020323Y009445D01*
X020481Y009603D02*
X022789Y009603D01*
X021026Y009286D02*
X020164Y009286D01*
X020006Y009128D02*
X020867Y009128D01*
X020709Y008969D02*
X019847Y008969D01*
X019689Y008811D02*
X020550Y008811D01*
X020392Y008652D02*
X019530Y008652D01*
X019372Y008494D02*
X020233Y008494D01*
X020075Y008335D02*
X019213Y008335D01*
X019055Y008177D02*
X019916Y008177D01*
X019509Y008018D02*
X018796Y008018D01*
X019016Y007860D02*
X019288Y007860D01*
X019217Y007701D02*
X019087Y007701D01*
X019092Y007543D02*
X019212Y007543D01*
X019212Y007384D02*
X019092Y007384D01*
X019092Y007226D02*
X019212Y007226D01*
X019212Y007067D02*
X019092Y007067D01*
X019122Y006909D02*
X019248Y006909D01*
X019280Y006750D02*
X019361Y006750D01*
X019439Y006592D02*
X028231Y006592D01*
X028390Y006750D02*
X024943Y006750D01*
X024939Y006746D02*
X024988Y006795D01*
X025029Y006851D01*
X025060Y006913D01*
X025082Y006978D01*
X025092Y007047D01*
X025092Y007341D01*
X024652Y007341D01*
X024212Y007341D01*
X024212Y007047D01*
X024223Y006978D01*
X024245Y006913D01*
X024276Y006851D01*
X024317Y006795D01*
X024366Y006746D01*
X024422Y006705D01*
X024484Y006674D01*
X024549Y006652D01*
X024618Y006641D01*
X024652Y006641D01*
X024652Y007341D01*
X024652Y007341D01*
X024652Y007341D01*
X024212Y007341D01*
X024212Y007636D01*
X024223Y007704D01*
X024245Y007770D01*
X024276Y007832D01*
X024317Y007888D01*
X024366Y007937D01*
X024422Y007978D01*
X024484Y008009D01*
X024549Y008031D01*
X024618Y008041D01*
X024652Y008041D01*
X024652Y007341D01*
X024652Y006641D01*
X024687Y006641D01*
X024755Y006652D01*
X024821Y006674D01*
X024883Y006705D01*
X024939Y006746D01*
X025058Y006909D02*
X028548Y006909D01*
X028707Y007067D02*
X025092Y007067D01*
X025092Y007226D02*
X028865Y007226D01*
X029024Y007384D02*
X025092Y007384D01*
X025092Y007341D02*
X025092Y007636D01*
X025082Y007704D01*
X025060Y007770D01*
X025029Y007832D01*
X024988Y007888D01*
X024939Y007937D01*
X024883Y007978D01*
X024821Y008009D01*
X024755Y008031D01*
X024687Y008041D01*
X024652Y008041D01*
X024652Y007341D01*
X024652Y007341D01*
X024652Y007341D01*
X025092Y007341D01*
X025092Y007543D02*
X029182Y007543D01*
X029341Y007701D02*
X025082Y007701D01*
X025009Y007860D02*
X029499Y007860D01*
X029658Y008018D02*
X024794Y008018D01*
X024652Y008018D02*
X024652Y008018D01*
X024511Y008018D02*
X023794Y008018D01*
X023821Y008009D02*
X023755Y008031D01*
X023687Y008041D01*
X023652Y008041D01*
X023618Y008041D01*
X023549Y008031D01*
X023484Y008009D01*
X023422Y007978D01*
X023366Y007937D01*
X023317Y007888D01*
X023276Y007832D01*
X023245Y007770D01*
X023223Y007704D01*
X023212Y007636D01*
X023212Y007341D01*
X023212Y007047D01*
X023223Y006978D01*
X023245Y006913D01*
X023276Y006851D01*
X023317Y006795D01*
X023366Y006746D01*
X023422Y006705D01*
X023484Y006674D01*
X023549Y006652D01*
X023618Y006641D01*
X023652Y006641D01*
X023652Y007341D01*
X023212Y007341D01*
X023652Y007341D01*
X023652Y007341D01*
X023652Y007341D01*
X023652Y006641D01*
X023687Y006641D01*
X023755Y006652D01*
X023821Y006674D01*
X023883Y006705D01*
X023939Y006746D01*
X023988Y006795D01*
X024029Y006851D01*
X024060Y006913D01*
X024082Y006978D01*
X024092Y007047D01*
X024092Y007341D01*
X023652Y007341D01*
X023652Y008041D01*
X023652Y007341D01*
X023652Y007341D01*
X023652Y007341D01*
X024092Y007341D01*
X024092Y007636D01*
X024082Y007704D01*
X024060Y007770D01*
X024029Y007832D01*
X023988Y007888D01*
X023939Y007937D01*
X023883Y007978D01*
X023821Y008009D01*
X023652Y008018D02*
X023652Y008018D01*
X023511Y008018D02*
X022794Y008018D01*
X022821Y008009D02*
X022755Y008031D01*
X022687Y008041D01*
X022652Y008041D01*
X022618Y008041D01*
X022549Y008031D01*
X022484Y008009D01*
X022422Y007978D01*
X022366Y007937D01*
X022317Y007888D01*
X022276Y007832D01*
X022245Y007770D01*
X022223Y007704D01*
X022212Y007636D01*
X022212Y007341D01*
X022212Y007047D01*
X022223Y006978D01*
X022245Y006913D01*
X022276Y006851D01*
X022317Y006795D01*
X022366Y006746D01*
X022422Y006705D01*
X022484Y006674D01*
X022549Y006652D01*
X022618Y006641D01*
X022652Y006641D01*
X022652Y007341D01*
X022212Y007341D01*
X022652Y007341D01*
X022652Y007341D01*
X022652Y007341D01*
X022652Y006641D01*
X022687Y006641D01*
X022755Y006652D01*
X022821Y006674D01*
X022883Y006705D01*
X022939Y006746D01*
X022988Y006795D01*
X023029Y006851D01*
X023060Y006913D01*
X023082Y006978D01*
X023092Y007047D01*
X023092Y007341D01*
X022652Y007341D01*
X022652Y008041D01*
X022652Y007341D01*
X022652Y007341D01*
X022652Y007341D01*
X023092Y007341D01*
X023092Y007636D01*
X023082Y007704D01*
X023060Y007770D01*
X023029Y007832D01*
X022988Y007888D01*
X022939Y007937D01*
X022883Y007978D01*
X022821Y008009D01*
X022652Y008018D02*
X022652Y008018D01*
X022511Y008018D02*
X021796Y008018D01*
X021740Y008041D02*
X021565Y008041D01*
X021403Y007974D01*
X021279Y007851D01*
X021212Y007689D01*
X021212Y006994D01*
X021279Y006832D01*
X021403Y006708D01*
X021565Y006641D01*
X021740Y006641D01*
X021902Y006708D01*
X022025Y006832D01*
X022092Y006994D01*
X022092Y007689D01*
X022025Y007851D01*
X021902Y007974D01*
X021740Y008041D01*
X021509Y008018D02*
X020796Y008018D01*
X020740Y008041D02*
X020565Y008041D01*
X020403Y007974D01*
X020279Y007851D01*
X020212Y007689D01*
X020212Y006994D01*
X020279Y006832D01*
X020403Y006708D01*
X020565Y006641D01*
X020740Y006641D01*
X020902Y006708D01*
X021025Y006832D01*
X021092Y006994D01*
X021092Y007689D01*
X021025Y007851D01*
X020902Y007974D01*
X020740Y008041D01*
X020595Y008177D02*
X029816Y008177D01*
X029975Y008335D02*
X020753Y008335D01*
X020912Y008494D02*
X030133Y008494D01*
X030292Y008652D02*
X021070Y008652D01*
X021229Y008811D02*
X030450Y008811D01*
X030970Y008652D02*
X031376Y008652D01*
X031376Y008641D02*
X031462Y008432D01*
X031623Y008272D01*
X031832Y008185D01*
X032839Y008185D01*
X033049Y008272D01*
X033209Y008432D01*
X033296Y008641D01*
X033296Y008868D01*
X033209Y009078D01*
X033049Y009238D01*
X032839Y009325D01*
X031832Y009325D01*
X031623Y009238D01*
X031462Y009078D01*
X031376Y008868D01*
X031376Y008641D01*
X031437Y008494D02*
X030812Y008494D01*
X030653Y008335D02*
X031559Y008335D01*
X030495Y008177D02*
X034783Y008177D01*
X034754Y008165D02*
X034461Y007871D01*
X032752Y007871D01*
X032664Y007835D01*
X032224Y007395D01*
X032184Y007355D01*
X031832Y007355D01*
X031623Y007268D01*
X031462Y007108D01*
X031376Y006898D01*
X031376Y006671D01*
X031462Y006462D01*
X031623Y006302D01*
X031832Y006215D01*
X032839Y006215D01*
X033049Y006302D01*
X033209Y006462D01*
X033296Y006671D01*
X033296Y006898D01*
X033209Y007108D01*
X033049Y007268D01*
X032856Y007348D01*
X032899Y007391D01*
X034608Y007391D01*
X034696Y007428D01*
X034763Y007495D01*
X034989Y007721D01*
X038751Y007721D01*
X039594Y006878D01*
X039682Y006841D01*
X039855Y006841D01*
X039883Y006774D01*
X040038Y006619D01*
X040240Y006536D01*
X040459Y006536D01*
X040661Y006619D01*
X040816Y006774D01*
X040899Y006976D01*
X040899Y007195D01*
X040816Y007397D01*
X040661Y007552D01*
X040459Y007636D01*
X040240Y007636D01*
X040038Y007552D01*
X039883Y007397D01*
X039852Y007321D01*
X039829Y007321D01*
X039053Y008097D01*
X038986Y008165D01*
X038898Y008201D01*
X034846Y008201D01*
X034924Y008227D01*
X035004Y008267D01*
X035077Y008320D01*
X035140Y008383D01*
X035193Y008456D01*
X035234Y008536D01*
X035262Y008621D01*
X035275Y008705D01*
X034366Y008705D01*
X034366Y008805D01*
X035275Y008805D01*
X035262Y008888D01*
X035234Y008974D01*
X035193Y009054D01*
X035140Y009126D01*
X035077Y009190D01*
X035004Y009242D01*
X034924Y009283D01*
X034839Y009311D01*
X034751Y009325D01*
X034366Y009325D01*
X034366Y008805D01*
X034266Y008805D01*
X034266Y009325D01*
X033881Y009325D01*
X033792Y009311D01*
X033707Y009283D01*
X033627Y009242D01*
X033554Y009190D01*
X033491Y009126D01*
X033438Y009054D01*
X033397Y008974D01*
X033370Y008888D01*
X033356Y008805D01*
X034266Y008805D01*
X034266Y008705D01*
X034366Y008705D01*
X034366Y008185D01*
X034751Y008185D01*
X034835Y008198D01*
X034754Y008165D01*
X034608Y008018D02*
X030336Y008018D01*
X030178Y007860D02*
X032725Y007860D01*
X032531Y007701D02*
X030019Y007701D01*
X029861Y007543D02*
X032372Y007543D01*
X032214Y007384D02*
X029702Y007384D01*
X029544Y007226D02*
X031580Y007226D01*
X031446Y007067D02*
X029385Y007067D01*
X029227Y006909D02*
X031380Y006909D01*
X031376Y006750D02*
X029068Y006750D01*
X028910Y006592D02*
X031409Y006592D01*
X031491Y006433D02*
X028751Y006433D01*
X028593Y006275D02*
X031688Y006275D01*
X031542Y005891D02*
X031454Y005855D01*
X031387Y005787D01*
X030611Y005011D01*
X027707Y005011D01*
X027625Y005093D01*
X027486Y005151D01*
X027334Y005151D01*
X027195Y005093D01*
X027088Y004986D01*
X027057Y004913D01*
X025899Y006071D01*
X028338Y006071D01*
X028426Y006108D01*
X031689Y009371D01*
X034828Y009371D01*
X034916Y009408D01*
X039316Y013808D01*
X039383Y013875D01*
X039420Y013963D01*
X039420Y014022D01*
X039510Y014111D01*
X039697Y013924D01*
X040054Y013776D01*
X040440Y013776D01*
X040797Y013924D01*
X041070Y014197D01*
X041217Y014554D01*
X041217Y014940D01*
X041070Y015297D01*
X040851Y015515D01*
X042015Y015515D01*
X042015Y009234D01*
X041899Y009435D01*
X041707Y009627D01*
X041472Y009763D01*
X041209Y009833D01*
X040938Y009833D01*
X040676Y009763D01*
X040441Y009627D01*
X040249Y009435D01*
X040113Y009200D01*
X040043Y008938D01*
X040043Y008666D01*
X040113Y008404D01*
X040249Y008169D01*
X040441Y007977D01*
X040676Y007841D01*
X040938Y007771D01*
X041209Y007771D01*
X041472Y007841D01*
X041707Y007977D01*
X041899Y008169D01*
X042015Y008370D01*
X042015Y001979D01*
X040473Y001979D01*
X040797Y002113D01*
X041070Y002386D01*
X041217Y002743D01*
X041217Y003129D01*
X041070Y003486D01*
X040797Y003759D01*
X040440Y003906D01*
X040054Y003906D01*
X039697Y003759D01*
X039509Y003571D01*
X038656Y004425D01*
X038568Y004461D01*
X038472Y004461D01*
X037042Y004461D01*
X036954Y004425D01*
X036887Y004357D01*
X036771Y004241D01*
X031689Y004241D01*
X031506Y004425D01*
X031418Y004461D01*
X027637Y004461D01*
X027707Y004531D01*
X030758Y004531D01*
X031446Y004531D01*
X031462Y004492D02*
X031623Y004332D01*
X031832Y004245D01*
X032839Y004245D01*
X033049Y004332D01*
X033209Y004492D01*
X033296Y004701D01*
X033296Y004928D01*
X033209Y005138D01*
X033049Y005298D01*
X032839Y005385D01*
X031832Y005385D01*
X031623Y005298D01*
X031462Y005138D01*
X031376Y004928D01*
X031376Y004701D01*
X031462Y004492D01*
X031558Y004373D02*
X031582Y004373D01*
X030846Y004568D02*
X031689Y005411D01*
X038883Y005411D01*
X038965Y005329D01*
X039104Y005271D01*
X039256Y005271D01*
X039395Y005329D01*
X039502Y005436D01*
X039560Y005576D01*
X039560Y005727D01*
X039502Y005866D01*
X039395Y005973D01*
X039256Y006031D01*
X039104Y006031D01*
X038965Y005973D01*
X038883Y005891D01*
X031542Y005891D01*
X031399Y005799D02*
X026171Y005799D01*
X026013Y005958D02*
X038949Y005958D01*
X039411Y005958D02*
X042015Y005958D01*
X042015Y006116D02*
X028434Y006116D01*
X026488Y005482D02*
X031082Y005482D01*
X031240Y005641D02*
X026330Y005641D01*
X025810Y005482D02*
X019558Y005482D01*
X019400Y005641D02*
X025013Y005641D01*
X024940Y005799D02*
X019241Y005799D01*
X019083Y005958D02*
X024945Y005958D01*
X024652Y006750D02*
X024652Y006750D01*
X024652Y006909D02*
X024652Y006909D01*
X024652Y007067D02*
X024652Y007067D01*
X024652Y007226D02*
X024652Y007226D01*
X024652Y007384D02*
X024652Y007384D01*
X024652Y007543D02*
X024652Y007543D01*
X024652Y007701D02*
X024652Y007701D01*
X024652Y007860D02*
X024652Y007860D01*
X024296Y007860D02*
X024009Y007860D01*
X024082Y007701D02*
X024223Y007701D01*
X024212Y007543D02*
X024092Y007543D01*
X024092Y007384D02*
X024212Y007384D01*
X024212Y007226D02*
X024092Y007226D01*
X024092Y007067D02*
X024212Y007067D01*
X024247Y006909D02*
X024058Y006909D01*
X023943Y006750D02*
X024361Y006750D01*
X023652Y006750D02*
X023652Y006750D01*
X023652Y006909D02*
X023652Y006909D01*
X023652Y007067D02*
X023652Y007067D01*
X023652Y007226D02*
X023652Y007226D01*
X023652Y007384D02*
X023652Y007384D01*
X023652Y007543D02*
X023652Y007543D01*
X023652Y007701D02*
X023652Y007701D01*
X023652Y007860D02*
X023652Y007860D01*
X023296Y007860D02*
X023009Y007860D01*
X023082Y007701D02*
X023223Y007701D01*
X023212Y007543D02*
X023092Y007543D01*
X023092Y007384D02*
X023212Y007384D01*
X023212Y007226D02*
X023092Y007226D01*
X023092Y007067D02*
X023212Y007067D01*
X023247Y006909D02*
X023058Y006909D01*
X022943Y006750D02*
X023361Y006750D01*
X022652Y006750D02*
X022652Y006750D01*
X022652Y006909D02*
X022652Y006909D01*
X022652Y007067D02*
X022652Y007067D01*
X022652Y007226D02*
X022652Y007226D01*
X022652Y007384D02*
X022652Y007384D01*
X022652Y007543D02*
X022652Y007543D01*
X022652Y007701D02*
X022652Y007701D01*
X022652Y007860D02*
X022652Y007860D01*
X022296Y007860D02*
X022016Y007860D01*
X022087Y007701D02*
X022223Y007701D01*
X022212Y007543D02*
X022092Y007543D01*
X022092Y007384D02*
X022212Y007384D01*
X022212Y007226D02*
X022092Y007226D01*
X022092Y007067D02*
X022212Y007067D01*
X022247Y006909D02*
X022057Y006909D01*
X021943Y006750D02*
X022361Y006750D01*
X021361Y006750D02*
X020943Y006750D01*
X021057Y006909D02*
X021248Y006909D01*
X021212Y007067D02*
X021092Y007067D01*
X021092Y007226D02*
X021212Y007226D01*
X021212Y007384D02*
X021092Y007384D01*
X021092Y007543D02*
X021212Y007543D01*
X021217Y007701D02*
X021087Y007701D01*
X021016Y007860D02*
X021288Y007860D01*
X020509Y008018D02*
X020436Y008018D01*
X020288Y007860D02*
X020278Y007860D01*
X020217Y007701D02*
X020119Y007701D01*
X020092Y007543D02*
X020212Y007543D01*
X020212Y007384D02*
X020092Y007384D01*
X020092Y007226D02*
X020212Y007226D01*
X020212Y007067D02*
X020092Y007067D01*
X020057Y006909D02*
X020248Y006909D01*
X020361Y006750D02*
X019943Y006750D01*
X018919Y006433D02*
X018607Y006433D01*
X018760Y006592D02*
X018449Y006592D01*
X018361Y006750D02*
X018290Y006750D01*
X018248Y006909D02*
X018132Y006909D01*
X018092Y007067D02*
X018212Y007067D01*
X018212Y007226D02*
X018092Y007226D01*
X018092Y007384D02*
X018212Y007384D01*
X018212Y007543D02*
X018092Y007543D01*
X018087Y007701D02*
X018217Y007701D01*
X018288Y007860D02*
X018016Y007860D01*
X017796Y008018D02*
X018509Y008018D01*
X017509Y008018D02*
X017356Y008018D01*
X017288Y007860D02*
X017200Y007860D01*
X017200Y007701D02*
X017217Y007701D01*
X017200Y007543D02*
X017212Y007543D01*
X017200Y007384D02*
X017212Y007384D01*
X017200Y007226D02*
X017212Y007226D01*
X017200Y007067D02*
X017212Y007067D01*
X017200Y006909D02*
X017248Y006909D01*
X017200Y006750D02*
X017361Y006750D01*
X017200Y006592D02*
X017770Y006592D01*
X017929Y006433D02*
X017200Y006433D01*
X017200Y006275D02*
X018087Y006275D01*
X018246Y006116D02*
X017200Y006116D01*
X017200Y005958D02*
X018404Y005958D01*
X018563Y005799D02*
X017200Y005799D01*
X017200Y005641D02*
X018721Y005641D01*
X018880Y005482D02*
X017200Y005482D01*
X017200Y005324D02*
X019038Y005324D01*
X019197Y005165D02*
X017200Y005165D01*
X017200Y005007D02*
X019355Y005007D01*
X019514Y004848D02*
X017200Y004848D01*
X017200Y004690D02*
X019672Y004690D01*
X019831Y004531D02*
X017200Y004531D01*
X017200Y004373D02*
X019989Y004373D01*
X020148Y004214D02*
X017200Y004214D01*
X017200Y004056D02*
X020306Y004056D01*
X020509Y004531D02*
X026761Y004531D01*
X026718Y004373D02*
X026919Y004373D01*
X026876Y004214D02*
X027078Y004214D01*
X027035Y004056D02*
X027236Y004056D01*
X027193Y003897D02*
X028220Y003897D01*
X027866Y003739D02*
X027352Y003739D01*
X027510Y003580D02*
X027708Y003580D01*
X027149Y003263D02*
X026595Y003263D01*
X026651Y003105D02*
X027307Y003105D01*
X027465Y002946D02*
X027465Y002743D01*
X027512Y002629D02*
X026603Y002629D01*
X026538Y002471D02*
X027578Y002471D01*
X027687Y002312D02*
X026429Y002312D01*
X026270Y002154D02*
X027846Y002154D01*
X028171Y001995D02*
X025945Y001995D01*
X025415Y001995D02*
X016890Y001995D01*
X017215Y002154D02*
X025090Y002154D01*
X024931Y002312D02*
X017374Y002312D01*
X017483Y002471D02*
X024822Y002471D01*
X024757Y002629D02*
X017548Y002629D01*
X017595Y002788D02*
X024709Y002788D01*
X024709Y002946D02*
X017595Y002946D01*
X017595Y003105D02*
X024709Y003105D01*
X024765Y003263D02*
X017540Y003263D01*
X017474Y003422D02*
X024831Y003422D01*
X024952Y003580D02*
X017353Y003580D01*
X017195Y003739D02*
X025110Y003739D01*
X025464Y003897D02*
X017177Y003897D01*
X014291Y004531D02*
X003437Y004531D01*
X003421Y003897D02*
X004598Y003897D01*
X005029Y003897D02*
X006067Y003897D01*
X005908Y003739D02*
X005384Y003739D01*
X005542Y003580D02*
X005750Y003580D01*
X015635Y005799D02*
X015730Y005799D01*
X018766Y006275D02*
X019077Y006275D01*
X018924Y006116D02*
X019236Y006116D01*
X019717Y005324D02*
X025968Y005324D01*
X026127Y005165D02*
X019875Y005165D01*
X020034Y005007D02*
X026285Y005007D01*
X026444Y004848D02*
X020192Y004848D01*
X020351Y004690D02*
X026602Y004690D01*
X026964Y005007D02*
X027108Y005007D01*
X026805Y005165D02*
X030765Y005165D01*
X030923Y005324D02*
X026647Y005324D01*
X026515Y003897D02*
X025896Y003897D01*
X026250Y003739D02*
X026673Y003739D01*
X026832Y003580D02*
X026408Y003580D01*
X026529Y003422D02*
X026990Y003422D01*
X028652Y003897D02*
X031355Y003897D01*
X030846Y004568D02*
X030758Y004531D01*
X030968Y004690D02*
X031381Y004690D01*
X031376Y004848D02*
X031126Y004848D01*
X031285Y005007D02*
X031408Y005007D01*
X031443Y005165D02*
X031490Y005165D01*
X031602Y005324D02*
X031685Y005324D01*
X032987Y005324D02*
X033665Y005324D01*
X033603Y005298D02*
X033442Y005138D01*
X033356Y004928D01*
X033356Y004701D01*
X033442Y004492D01*
X033603Y004332D01*
X033812Y004245D01*
X034819Y004245D01*
X035029Y004332D01*
X035189Y004492D01*
X035276Y004701D01*
X035276Y004928D01*
X035189Y005138D01*
X035029Y005298D01*
X034819Y005385D01*
X033812Y005385D01*
X033603Y005298D01*
X033470Y005165D02*
X033181Y005165D01*
X033263Y005007D02*
X033388Y005007D01*
X033356Y004848D02*
X033296Y004848D01*
X033291Y004690D02*
X033361Y004690D01*
X033426Y004531D02*
X033225Y004531D01*
X033090Y004373D02*
X033562Y004373D01*
X035070Y004373D02*
X036902Y004373D01*
X037105Y003897D02*
X037275Y003897D01*
X036921Y003739D02*
X029006Y003739D01*
X029164Y003580D02*
X036763Y003580D01*
X036642Y003422D02*
X029285Y003422D01*
X029351Y003263D02*
X036576Y003263D01*
X036520Y003105D02*
X029406Y003105D01*
X029406Y002946D02*
X036520Y002946D01*
X036520Y002788D02*
X029406Y002788D01*
X029359Y002629D02*
X036568Y002629D01*
X036633Y002471D02*
X029294Y002471D01*
X029185Y002312D02*
X036742Y002312D01*
X036901Y002154D02*
X029026Y002154D01*
X028701Y001995D02*
X037226Y001995D01*
X037756Y001995D02*
X039982Y001995D01*
X039657Y002154D02*
X038081Y002154D01*
X038240Y002312D02*
X039498Y002312D01*
X039389Y002471D02*
X038349Y002471D01*
X038414Y002629D02*
X039323Y002629D01*
X039276Y002788D02*
X038462Y002788D01*
X038462Y002946D02*
X039276Y002946D01*
X039276Y003105D02*
X038462Y003105D01*
X038406Y003263D02*
X039139Y003263D01*
X038980Y003422D02*
X038340Y003422D01*
X038219Y003580D02*
X038822Y003580D01*
X038663Y003739D02*
X038061Y003739D01*
X037707Y003897D02*
X038505Y003897D01*
X039025Y004056D02*
X042015Y004056D01*
X042015Y004214D02*
X038866Y004214D01*
X038708Y004373D02*
X042015Y004373D01*
X042015Y004531D02*
X035205Y004531D01*
X035271Y004690D02*
X042015Y004690D01*
X042015Y004848D02*
X035276Y004848D01*
X035243Y005007D02*
X042015Y005007D01*
X042015Y005165D02*
X035161Y005165D01*
X034967Y005324D02*
X038978Y005324D01*
X039382Y005324D02*
X042015Y005324D01*
X042015Y005482D02*
X039521Y005482D01*
X039560Y005641D02*
X042015Y005641D01*
X042015Y005799D02*
X039530Y005799D01*
X040104Y006592D02*
X037594Y006592D01*
X037661Y006619D02*
X037816Y006774D01*
X037899Y006976D01*
X037899Y007195D01*
X037816Y007397D01*
X037661Y007552D01*
X037459Y007636D01*
X037240Y007636D01*
X037038Y007552D01*
X036883Y007397D01*
X036799Y007195D01*
X036799Y006976D01*
X036883Y006774D01*
X037038Y006619D01*
X037240Y006536D01*
X037459Y006536D01*
X037661Y006619D01*
X037792Y006750D02*
X039907Y006750D01*
X039563Y006909D02*
X037871Y006909D01*
X037899Y007067D02*
X039405Y007067D01*
X039246Y007226D02*
X037887Y007226D01*
X037821Y007384D02*
X039088Y007384D01*
X038929Y007543D02*
X037670Y007543D01*
X037029Y007543D02*
X034811Y007543D01*
X034751Y007355D02*
X034366Y007355D01*
X034366Y006835D01*
X035275Y006835D01*
X035262Y006918D01*
X035234Y007004D01*
X035193Y007084D01*
X035140Y007156D01*
X035077Y007220D01*
X035004Y007272D01*
X034924Y007313D01*
X034839Y007341D01*
X034751Y007355D01*
X035069Y007226D02*
X036812Y007226D01*
X036799Y007067D02*
X035202Y007067D01*
X035263Y006909D02*
X036827Y006909D01*
X036907Y006750D02*
X034366Y006750D01*
X034366Y006735D02*
X034366Y006835D01*
X034266Y006835D01*
X034266Y007355D01*
X033881Y007355D01*
X033792Y007341D01*
X033707Y007313D01*
X033627Y007272D01*
X033554Y007220D01*
X033491Y007156D01*
X033438Y007084D01*
X033397Y007004D01*
X033370Y006918D01*
X033356Y006835D01*
X034266Y006835D01*
X034266Y006735D01*
X034366Y006735D01*
X035275Y006735D01*
X035262Y006651D01*
X035234Y006566D01*
X035193Y006486D01*
X035140Y006413D01*
X035077Y006350D01*
X035004Y006297D01*
X034924Y006257D01*
X034839Y006229D01*
X034751Y006215D01*
X034366Y006215D01*
X034366Y006735D01*
X034266Y006735D02*
X034266Y006215D01*
X033881Y006215D01*
X033792Y006229D01*
X033707Y006257D01*
X033627Y006297D01*
X033554Y006350D01*
X033491Y006413D01*
X033438Y006486D01*
X033397Y006566D01*
X033370Y006651D01*
X033356Y006735D01*
X034266Y006735D01*
X034266Y006750D02*
X033296Y006750D01*
X033291Y006909D02*
X033368Y006909D01*
X033430Y007067D02*
X033226Y007067D01*
X033091Y007226D02*
X033563Y007226D01*
X032892Y007384D02*
X036878Y007384D01*
X038771Y007701D02*
X034969Y007701D01*
X034266Y008185D02*
X033881Y008185D01*
X033792Y008199D01*
X033707Y008227D01*
X033627Y008267D01*
X033554Y008320D01*
X033491Y008383D01*
X033438Y008456D01*
X033397Y008536D01*
X033370Y008621D01*
X033356Y008705D01*
X034266Y008705D01*
X034266Y008185D01*
X034266Y008335D02*
X034366Y008335D01*
X034366Y008494D02*
X034266Y008494D01*
X034266Y008652D02*
X034366Y008652D01*
X034366Y008811D02*
X034266Y008811D01*
X034266Y008969D02*
X034366Y008969D01*
X034366Y009128D02*
X034266Y009128D01*
X034266Y009286D02*
X034366Y009286D01*
X034915Y009286D02*
X040162Y009286D01*
X040093Y009128D02*
X035139Y009128D01*
X035235Y008969D02*
X040051Y008969D01*
X040043Y008811D02*
X035274Y008811D01*
X035267Y008652D02*
X040046Y008652D01*
X040089Y008494D02*
X035212Y008494D01*
X035092Y008335D02*
X040153Y008335D01*
X040244Y008177D02*
X038957Y008177D01*
X039132Y008018D02*
X040399Y008018D01*
X040644Y007860D02*
X039291Y007860D01*
X039449Y007701D02*
X042015Y007701D01*
X042015Y007543D02*
X040670Y007543D01*
X040821Y007384D02*
X042015Y007384D01*
X042015Y007226D02*
X040887Y007226D01*
X040899Y007067D02*
X042015Y007067D01*
X042015Y006909D02*
X040871Y006909D01*
X040792Y006750D02*
X042015Y006750D01*
X042015Y006592D02*
X040594Y006592D01*
X042015Y006433D02*
X035155Y006433D01*
X035242Y006592D02*
X037104Y006592D01*
X034960Y006275D02*
X042015Y006275D01*
X039878Y007384D02*
X039766Y007384D01*
X039608Y007543D02*
X040029Y007543D01*
X041504Y007860D02*
X042015Y007860D01*
X042015Y008018D02*
X041748Y008018D01*
X041903Y008177D02*
X042015Y008177D01*
X042015Y008335D02*
X041995Y008335D01*
X041985Y009286D02*
X042015Y009286D01*
X042015Y009445D02*
X041889Y009445D01*
X042015Y009603D02*
X041731Y009603D01*
X041474Y009762D02*
X042015Y009762D01*
X042015Y009920D02*
X035428Y009920D01*
X035270Y009762D02*
X040673Y009762D01*
X040416Y009603D02*
X035111Y009603D01*
X034953Y009445D02*
X040258Y009445D01*
X042015Y010079D02*
X035587Y010079D01*
X035745Y010237D02*
X042015Y010237D01*
X042015Y010396D02*
X035904Y010396D01*
X036062Y010554D02*
X042015Y010554D01*
X042015Y010713D02*
X036221Y010713D01*
X036379Y010871D02*
X042015Y010871D01*
X042015Y011030D02*
X036538Y011030D01*
X036696Y011188D02*
X042015Y011188D01*
X042015Y011347D02*
X036855Y011347D01*
X037013Y011505D02*
X042015Y011505D01*
X042015Y011664D02*
X037172Y011664D01*
X037330Y011822D02*
X042015Y011822D01*
X042015Y011981D02*
X037489Y011981D01*
X037647Y012139D02*
X042015Y012139D01*
X042015Y012298D02*
X037806Y012298D01*
X037964Y012456D02*
X042015Y012456D01*
X042015Y012615D02*
X038123Y012615D01*
X038281Y012773D02*
X040859Y012773D01*
X040987Y012646D02*
X040697Y012936D01*
X040697Y013346D01*
X040987Y013636D01*
X041397Y013636D01*
X041687Y013346D01*
X041687Y012936D01*
X041397Y012646D01*
X040987Y012646D01*
X040701Y012932D02*
X038440Y012932D01*
X038598Y013090D02*
X040697Y013090D01*
X040697Y013249D02*
X038757Y013249D01*
X038915Y013407D02*
X040758Y013407D01*
X040917Y013566D02*
X039074Y013566D01*
X039232Y013724D02*
X042015Y013724D01*
X042015Y013566D02*
X041467Y013566D01*
X041625Y013407D02*
X042015Y013407D01*
X042015Y013249D02*
X041687Y013249D01*
X041687Y013090D02*
X042015Y013090D01*
X042015Y012932D02*
X041683Y012932D01*
X041524Y012773D02*
X042015Y012773D01*
X042015Y013883D02*
X040696Y013883D01*
X040914Y014041D02*
X042015Y014041D01*
X042015Y014200D02*
X041071Y014200D01*
X041136Y014358D02*
X042015Y014358D01*
X042015Y014517D02*
X041202Y014517D01*
X041217Y014675D02*
X042015Y014675D01*
X042015Y014834D02*
X041217Y014834D01*
X041196Y014992D02*
X042015Y014992D01*
X042015Y015151D02*
X041130Y015151D01*
X041057Y015309D02*
X042015Y015309D01*
X042015Y015468D02*
X040899Y015468D01*
X039595Y015468D02*
X038143Y015468D01*
X038301Y015309D02*
X039437Y015309D01*
X039364Y015151D02*
X038374Y015151D01*
X038440Y014992D02*
X039298Y014992D01*
X039276Y014834D02*
X038462Y014834D01*
X038462Y014675D02*
X039276Y014675D01*
X039236Y014517D02*
X038446Y014517D01*
X038380Y014358D02*
X039078Y014358D01*
X038953Y014200D02*
X038315Y014200D01*
X038158Y014041D02*
X038871Y014041D01*
X038712Y013883D02*
X037941Y013883D01*
X038395Y013566D02*
X034245Y013566D01*
X034086Y013724D02*
X038554Y013724D01*
X038237Y013407D02*
X034403Y013407D01*
X034858Y013249D02*
X038078Y013249D01*
X037920Y013090D02*
X035116Y013090D01*
X035225Y012932D02*
X037761Y012932D01*
X037603Y012773D02*
X035276Y012773D01*
X035276Y012615D02*
X037444Y012615D01*
X037286Y012456D02*
X035224Y012456D01*
X035115Y012298D02*
X037127Y012298D01*
X036969Y012139D02*
X034854Y012139D01*
X033778Y012139D02*
X032874Y012139D01*
X033135Y012298D02*
X033517Y012298D01*
X033408Y012456D02*
X033244Y012456D01*
X033296Y012615D02*
X033356Y012615D01*
X033356Y012773D02*
X033296Y012773D01*
X033245Y012932D02*
X033407Y012932D01*
X033515Y013090D02*
X033136Y013090D01*
X032878Y013249D02*
X033773Y013249D01*
X031793Y013249D02*
X031607Y013249D01*
X031535Y013090D02*
X031448Y013090D01*
X031245Y013566D02*
X026974Y013566D01*
X027132Y013724D02*
X031404Y013724D01*
X029391Y014517D02*
X036536Y014517D01*
X036520Y014675D02*
X029406Y014675D01*
X029406Y014834D02*
X036520Y014834D01*
X036542Y014992D02*
X029385Y014992D01*
X029319Y015151D02*
X036608Y015151D01*
X036681Y015309D02*
X029246Y015309D01*
X029088Y015468D02*
X036839Y015468D01*
X036602Y014358D02*
X029325Y014358D01*
X029260Y014200D02*
X036667Y014200D01*
X036824Y014041D02*
X029103Y014041D01*
X028885Y013883D02*
X037041Y013883D01*
X039387Y013883D02*
X039797Y013883D01*
X039580Y014041D02*
X039439Y014041D01*
X036810Y011981D02*
X031439Y011981D01*
X031597Y012139D02*
X031798Y012139D01*
X031280Y011822D02*
X036652Y011822D01*
X036493Y011664D02*
X031122Y011664D01*
X030963Y011505D02*
X036335Y011505D01*
X036176Y011347D02*
X030805Y011347D01*
X030646Y011188D02*
X031603Y011188D01*
X031455Y011030D02*
X030488Y011030D01*
X030329Y010871D02*
X031389Y010871D01*
X031376Y010713D02*
X030171Y010713D01*
X031565Y010237D02*
X031634Y010237D01*
X031407Y010079D02*
X033478Y010079D01*
X033614Y010237D02*
X033038Y010237D01*
X033203Y010396D02*
X033449Y010396D01*
X033379Y010554D02*
X033272Y010554D01*
X033296Y010713D02*
X033356Y010713D01*
X033369Y010871D02*
X033282Y010871D01*
X033216Y011030D02*
X033435Y011030D01*
X033583Y011188D02*
X033068Y011188D01*
X035048Y011188D02*
X036018Y011188D01*
X035859Y011030D02*
X035196Y011030D01*
X035262Y010871D02*
X035701Y010871D01*
X035542Y010713D02*
X035276Y010713D01*
X035252Y010554D02*
X035384Y010554D01*
X035225Y010396D02*
X035183Y010396D01*
X035067Y010237D02*
X035018Y010237D01*
X034908Y010079D02*
X034157Y010079D01*
X033998Y009920D02*
X034750Y009920D01*
X033716Y009286D02*
X032932Y009286D01*
X033159Y009128D02*
X033492Y009128D01*
X033396Y008969D02*
X033254Y008969D01*
X033296Y008811D02*
X033357Y008811D01*
X033365Y008652D02*
X033296Y008652D01*
X033234Y008494D02*
X033419Y008494D01*
X033539Y008335D02*
X033112Y008335D01*
X031376Y008811D02*
X031129Y008811D01*
X031287Y008969D02*
X031417Y008969D01*
X031446Y009128D02*
X031512Y009128D01*
X031604Y009286D02*
X031739Y009286D01*
X034266Y007226D02*
X034366Y007226D01*
X034366Y007067D02*
X034266Y007067D01*
X034266Y006909D02*
X034366Y006909D01*
X034366Y006592D02*
X034266Y006592D01*
X034266Y006433D02*
X034366Y006433D01*
X034366Y006275D02*
X034266Y006275D01*
X033671Y006275D02*
X032983Y006275D01*
X033180Y006433D02*
X033477Y006433D01*
X033389Y006592D02*
X033263Y006592D01*
X039183Y003897D02*
X040031Y003897D01*
X039677Y003739D02*
X039342Y003739D01*
X039500Y003580D02*
X039519Y003580D01*
X040463Y003897D02*
X042015Y003897D01*
X042015Y003739D02*
X040817Y003739D01*
X040975Y003580D02*
X042015Y003580D01*
X042015Y003422D02*
X041096Y003422D01*
X041162Y003263D02*
X042015Y003263D01*
X042015Y003105D02*
X041217Y003105D01*
X041217Y002946D02*
X042015Y002946D01*
X042015Y002788D02*
X041217Y002788D01*
X041170Y002629D02*
X042015Y002629D01*
X042015Y002471D02*
X041105Y002471D01*
X040996Y002312D02*
X042015Y002312D01*
X042015Y002154D02*
X040837Y002154D01*
X040512Y001995D02*
X042015Y001995D01*
X019961Y009762D02*
X019955Y009762D01*
X020062Y009920D02*
X020120Y009920D01*
X020092Y010079D02*
X020212Y010079D01*
X020212Y010237D02*
X020092Y010237D01*
X020092Y010396D02*
X020212Y010396D01*
X020212Y010554D02*
X020092Y010554D01*
X020083Y010713D02*
X020222Y010713D01*
X020300Y010871D02*
X020005Y010871D01*
X019300Y010871D02*
X019005Y010871D01*
X019083Y010713D02*
X019222Y010713D01*
X019212Y010554D02*
X019092Y010554D01*
X019092Y010396D02*
X019212Y010396D01*
X019212Y010237D02*
X019092Y010237D01*
X019092Y010079D02*
X019212Y010079D01*
X019130Y009920D02*
X019062Y009920D01*
X018971Y009762D02*
X018955Y009762D01*
X019491Y009603D02*
X019803Y009603D01*
X019644Y009445D02*
X019333Y009445D01*
X019486Y009286D02*
X019174Y009286D01*
X019327Y009128D02*
X019016Y009128D01*
X019169Y008969D02*
X018857Y008969D01*
X019010Y008811D02*
X018699Y008811D01*
X018852Y008652D02*
X018540Y008652D01*
X017243Y009920D02*
X010940Y009920D01*
X010782Y010079D02*
X017212Y010079D01*
X017212Y010237D02*
X010623Y010237D01*
X010465Y010396D02*
X017212Y010396D01*
X017212Y010554D02*
X010306Y010554D01*
X010148Y010713D02*
X017222Y010713D01*
X017300Y010871D02*
X009989Y010871D01*
X009831Y011030D02*
X017536Y011030D01*
X021828Y011188D02*
X009672Y011188D01*
X009514Y011347D02*
X021986Y011347D01*
X022145Y011505D02*
X009355Y011505D01*
X009197Y011664D02*
X022303Y011664D01*
X022462Y011822D02*
X009038Y011822D01*
X008880Y011981D02*
X022620Y011981D01*
X022779Y012139D02*
X008721Y012139D01*
X008563Y012298D02*
X022937Y012298D01*
X023096Y012456D02*
X008404Y012456D01*
X008246Y012615D02*
X023254Y012615D01*
X023413Y012773D02*
X008087Y012773D01*
X007929Y012932D02*
X023571Y012932D01*
X023730Y013090D02*
X017387Y013090D01*
X017193Y013090D02*
X007770Y013090D01*
X007612Y013249D02*
X016967Y013249D01*
X016910Y013407D02*
X007453Y013407D01*
X007295Y013566D02*
X016922Y013566D01*
X017016Y013724D02*
X007136Y013724D01*
X006978Y013883D02*
X013419Y013883D01*
X013202Y014041D02*
X006819Y014041D01*
X006661Y014200D02*
X013045Y014200D01*
X012980Y014358D02*
X006502Y014358D01*
X006344Y014517D02*
X012914Y014517D01*
X012898Y014675D02*
X005855Y014675D01*
X005784Y014834D02*
X012898Y014834D01*
X012920Y014992D02*
X005763Y014992D01*
X005697Y015151D02*
X012986Y015151D01*
X013059Y015309D02*
X005624Y015309D01*
X005466Y015468D02*
X013217Y015468D01*
X014521Y015468D02*
X015973Y015468D01*
X015815Y015309D02*
X014679Y015309D01*
X014752Y015151D02*
X015742Y015151D01*
X015676Y014992D02*
X014818Y014992D01*
X014840Y014834D02*
X015654Y014834D01*
X015654Y014675D02*
X014840Y014675D01*
X014824Y014517D02*
X015670Y014517D01*
X015735Y014358D02*
X014758Y014358D01*
X014693Y014200D02*
X015801Y014200D01*
X015958Y014041D02*
X014536Y014041D01*
X014319Y013883D02*
X016175Y013883D01*
X017074Y013883D02*
X025230Y013883D01*
X025013Y014041D02*
X017292Y014041D01*
X017449Y014200D02*
X024856Y014200D01*
X024791Y014358D02*
X017514Y014358D01*
X017580Y014517D02*
X024725Y014517D01*
X024709Y014675D02*
X017595Y014675D01*
X017595Y014834D02*
X024709Y014834D01*
X024731Y014992D02*
X017574Y014992D01*
X017508Y015151D02*
X024797Y015151D01*
X024870Y015309D02*
X017435Y015309D01*
X017277Y015468D02*
X025028Y015468D01*
X026332Y015468D02*
X027784Y015468D01*
X027626Y015309D02*
X026490Y015309D01*
X026563Y015151D02*
X027553Y015151D01*
X027487Y014992D02*
X026629Y014992D01*
X026651Y014834D02*
X027465Y014834D01*
X027405Y014675D02*
X026651Y014675D01*
X026635Y014517D02*
X027246Y014517D01*
X027088Y014358D02*
X026569Y014358D01*
X026504Y014200D02*
X026929Y014200D01*
X026771Y014041D02*
X026347Y014041D01*
X026130Y013883D02*
X026612Y013883D01*
X026454Y013724D02*
X024164Y013724D01*
X023616Y013724D02*
X017564Y013724D01*
X009311Y010871D02*
X001160Y010871D01*
X001160Y010713D02*
X009469Y010713D01*
X009628Y010554D02*
X001160Y010554D01*
X001160Y010396D02*
X009786Y010396D01*
X009945Y010237D02*
X002324Y010237D01*
X002555Y010079D02*
X010103Y010079D01*
X010262Y009920D02*
X002702Y009920D01*
X002793Y009762D02*
X010420Y009762D01*
X010579Y009603D02*
X002851Y009603D01*
X002892Y009445D02*
X010737Y009445D01*
X010886Y009286D02*
X010896Y009286D01*
X010886Y009128D02*
X011054Y009128D01*
X011190Y008969D02*
X010886Y008969D01*
X010886Y008811D02*
X011217Y008811D01*
X011332Y008652D02*
X010886Y008652D01*
X009817Y008335D02*
X008597Y008335D01*
X008572Y008322D02*
X008651Y008362D01*
X008722Y008414D01*
X008784Y008477D01*
X008836Y008548D01*
X008876Y008626D01*
X008903Y008710D01*
X008917Y008797D01*
X008917Y008833D01*
X008366Y008833D01*
X008366Y008850D01*
X008917Y008850D01*
X008917Y008885D01*
X008903Y008973D01*
X008876Y009056D01*
X008836Y009135D01*
X008784Y009206D01*
X008722Y009269D01*
X008651Y009320D01*
X008572Y009360D01*
X008488Y009388D01*
X008401Y009401D01*
X008366Y009401D01*
X008366Y008850D01*
X008349Y008850D01*
X008349Y009401D01*
X008313Y009401D01*
X008226Y009388D01*
X008142Y009360D01*
X008064Y009320D01*
X007992Y009269D01*
X007930Y009206D01*
X007878Y009135D01*
X007838Y009056D01*
X007811Y008973D01*
X007797Y008885D01*
X007797Y008850D01*
X008349Y008850D01*
X008349Y008833D01*
X008366Y008833D01*
X008366Y008281D01*
X008401Y008281D01*
X008488Y008295D01*
X008572Y008322D01*
X008366Y008335D02*
X008349Y008335D01*
X008349Y008281D02*
X008349Y008833D01*
X007797Y008833D01*
X007797Y008797D01*
X007811Y008710D01*
X007838Y008626D01*
X007878Y008548D01*
X007930Y008477D01*
X007992Y008414D01*
X008064Y008362D01*
X008142Y008322D01*
X008226Y008295D01*
X008313Y008281D01*
X008349Y008281D01*
X008349Y008494D02*
X008366Y008494D01*
X008349Y008652D02*
X008366Y008652D01*
X008349Y008811D02*
X008366Y008811D01*
X008349Y008969D02*
X008366Y008969D01*
X008349Y009128D02*
X008366Y009128D01*
X008349Y009286D02*
X008366Y009286D01*
X008698Y009286D02*
X009766Y009286D01*
X009766Y009128D02*
X008840Y009128D01*
X008904Y008969D02*
X009766Y008969D01*
X009766Y008811D02*
X008917Y008811D01*
X008884Y008652D02*
X009766Y008652D01*
X009766Y008494D02*
X008797Y008494D01*
X008117Y008335D02*
X002193Y008335D01*
X002499Y008494D02*
X007918Y008494D01*
X007830Y008652D02*
X002658Y008652D01*
X002761Y008811D02*
X007797Y008811D01*
X007810Y008969D02*
X002836Y008969D01*
X002879Y009128D02*
X007874Y009128D01*
X008017Y009286D02*
X002892Y009286D01*
X001223Y008494D02*
X001160Y008494D01*
X001160Y008335D02*
X001530Y008335D01*
X001168Y010079D02*
X001160Y010079D01*
X001160Y010237D02*
X001398Y010237D01*
X001160Y011030D02*
X009152Y011030D01*
X008994Y011188D02*
X001160Y011188D01*
X001160Y011347D02*
X008835Y011347D01*
X008677Y011505D02*
X001160Y011505D01*
X001160Y011664D02*
X008518Y011664D01*
X008360Y011822D02*
X001160Y011822D01*
X001160Y011981D02*
X008201Y011981D01*
X008043Y012139D02*
X001160Y012139D01*
X001160Y012298D02*
X007884Y012298D01*
X007726Y012456D02*
X001160Y012456D01*
X001160Y012615D02*
X007567Y012615D01*
X007409Y012773D02*
X001160Y012773D01*
X001160Y012932D02*
X007250Y012932D01*
X007092Y013090D02*
X001160Y013090D01*
X001160Y013249D02*
X006933Y013249D01*
X006775Y013407D02*
X001160Y013407D01*
X001160Y013566D02*
X006616Y013566D01*
X006458Y013724D02*
X001160Y013724D01*
X001160Y013883D02*
X001608Y013883D01*
X001391Y014041D02*
X001160Y014041D01*
X001160Y014200D02*
X001234Y014200D01*
X001168Y014358D02*
X001160Y014358D01*
X002508Y013883D02*
X004364Y013883D01*
X004147Y014041D02*
X002725Y014041D01*
X002882Y014200D02*
X003990Y014200D01*
X003924Y014358D02*
X002947Y014358D01*
X003013Y014517D02*
X003859Y014517D01*
X003843Y014675D02*
X003029Y014675D01*
X003029Y014834D02*
X003843Y014834D01*
X003865Y014992D02*
X003007Y014992D01*
X002941Y015151D02*
X003931Y015151D01*
X004003Y015309D02*
X002868Y015309D01*
X002710Y015468D02*
X004162Y015468D01*
X005638Y014200D02*
X005652Y014200D01*
X005481Y014041D02*
X006141Y014041D01*
X006299Y013883D02*
X005263Y013883D01*
X027291Y013883D02*
X027986Y013883D01*
X027769Y014041D02*
X027449Y014041D01*
X027608Y014200D02*
X027612Y014200D01*
D21*
X030759Y014589D03*
X032373Y014668D03*
X029578Y012306D03*
X026546Y010967D03*
X021074Y012542D03*
X013278Y013566D03*
X006192Y008841D03*
X003239Y007660D03*
X013711Y007739D03*
X018121Y005613D03*
X024263Y005337D03*
X029381Y006637D03*
X026900Y008054D03*
X035601Y007424D03*
X037924Y006440D03*
X039105Y008881D03*
M02*
